<?xml version="1.0" encoding="utf-8"?>
<!-- Generator: Adobe Illustrator 23.1.0, SVG Export Plug-In . SVG Version: 6.00 Build 0)  -->
<svg version="1.1" id="Слой_1" opacity="0.7" xmlns="http://www.w3.org/2000/svg" xmlns:xlink="http://www.w3.org/1999/xlink"
	 x="0px" y="0px" viewBox="0 0 700 799.3" style="enable-background:new 0 0 700 799.3;" xml:space="preserve">
<style type="text/css">
	.st0{fill:none;stroke:#333333;stroke-width:11;stroke-linecap:round;stroke-linejoin:round;stroke-miterlimit:10;}
	.st1{fill:none;stroke:#333333;stroke-width:13;stroke-linecap:round;stroke-linejoin:round;stroke-miterlimit:10;}
	.st2{fill:#222221;stroke:#333333;stroke-miterlimit:10;}
	.st3{fill:none;stroke:#333333;stroke-width:10;stroke-linecap:round;stroke-linejoin:round;stroke-miterlimit:10;}
</style>
<g>
	<g>
		<path class="st0" d="M515.1,42.5c15.9-4.8,33.3-2,48.5,4.5c15.2,6.6,28.6,16.7,41.5,27.2c8.7,7.1,17.4,14.5,23,24.1
			c5.7,9.7,7.8,22.1,2.8,32.1c-4.3,8.6-13.3,14.5-16.4,23.6c-2.9,8.5-0.2,17.8-0.7,26.7c-1.3,20.4-20.7,36.3-41,38.6
			c-20.3,2.2-40.4-6.7-56.5-19.1c-16.1-12.5-29.2-28.4-43.4-43c-7.2-7.3-14.7-14.4-20-23.2s-8.1-19.6-5-29.3
			c5.5-16.8,23.6-16.7,33.3-28.8C492.3,61.9,495.8,48.3,515.1,42.5z"/>
		<g>
			<path class="st0" d="M572.8,219.3c17.4-1.9,34.3-14.1,39.4-30.4c-7.8,8-18.7,13.4-29.8,14.7c-20.3,2.2-40.4-6.7-56.5-19.1
				c-16.1-12.5-29.2-28.4-43.4-43c-7.2-7.3-14.7-14.4-20-23.2c-4.6-7.7-7.4-16.9-5.9-25.7c-3.7,2.9-6.9,6.6-8.7,12
				c-3.2,9.7-0.4,20.6,4.9,29.3c5.3,8.8,12.9,15.9,20,23.2c14.2,14.6,27.3,30.5,43.4,43C532.4,212.6,552.5,221.5,572.8,219.3z"/>
		</g>
		<path class="st0" d="M585.7,133.2c0.9-3.2-2.3-6.8-5.6-6.1c-3.2,0.7-4.9,5.2-2.7,7.8c2.1,2.5,6.9,1.8,8.2-1.3"/>
		<path class="st0" d="M513.9,131.6c0.9-3.2-2.3-6.8-5.6-6.1c-3.2,0.7-4.9,5.2-2.7,7.8c2.1,2.5,6.9,1.8,8.2-1.3"/>
		<path class="st0" d="M538.1,77.3c1.7-5.6-4.2-12-9.9-10.8c-5.8,1.2-8.6,9.3-4.9,13.9c3.8,4.5,12.3,3.2,14.5-2.2"/>
		<path class="st0" d="M584.3,178.9c1.7-5.6-4.2-12-9.9-10.8c-5.8,1.2-8.6,9.3-4.9,13.9c3.8,4.5,12.3,3.2,14.5-2.2"/>
		<path class="st0" d="M615.9,115.2c0.8,4.6,0.6,9.3-0.8,13.7"/>
		<path class="st0" d="M604.2,91.5c3.5,4.4,6.5,9.1,8.8,14.1"/>
		<path class="st0" d="M525.8,50.7c27.5,3.7,52.2,14,72,33.8"/>
	</g>
	<path class="st0" d="M578.5,203.6c77.4-20.1,3.8,8.4,5.1,12.8"/>
	<path class="st0" d="M562.1,201.9c2.2,6.1,4.7,12,7.6,17.8"/>
	<path class="st0" d="M545,196.4c3,6.9,6.1,13.9,9.1,20.8"/>
	<path class="st0" d="M529.7,190.1c1.8,7.7,4.8,15.2,8.7,22.1"/>
	<path class="st0" d="M515.1,175.9c1.2,8.8,3,17.5,5.5,26"/>
	<path class="st0" d="M500.7,160.8c0.4,8.5,1.2,17,2.4,25.4"/>
	<path class="st0" d="M488.8,146.8c0.1,8.2,0.3,16.3,0.4,24.5"/>
	<path class="st0" d="M477.1,135.7c-0.5,7.8-1,15.6-1.5,23.4"/>
	<path class="st0" d="M465,124.2c-0.5,7.8-1,15.5-1.6,23.3"/>
	<path class="st0" d="M457.3,109.7c-1.6,7.9-2.6,15.8-3.1,23.8"/>
</g>
<g>
	<path class="st1" d="M167.6,392L51.9,238.2c-6-7.9,0.2-19.2,10.1-18.4l198.9,16.4c10.5,0.9,16.4,12.4,10.9,21.4L191,390.8
		C185.8,399.4,173.6,400,167.6,392z"/>
	<path class="st2" d="M168.1,365.6c-0.4-1.3,0.4-2.6,1.6-3c1.3-0.4,2.6,0.3,3,1.6c0.4,1.3-0.4,2.6-1.6,3
		C169.8,367.6,168.5,366.8,168.1,365.6z"/>
	<path class="st2" d="M187.2,359.1c-0.4-1.3,0.4-2.6,1.6-3c1.3-0.4,2.6,0.3,3,1.6c0.4,1.3-0.4,2.6-1.6,3
		C188.9,361,187.6,360.3,187.2,359.1z"/>
	<path class="st2" d="M176.1,355.7c0.9-0.9,2.5-0.9,3.4,0s0.9,2.4,0,3.4c-0.9,0.9-2.5,0.9-3.4,0
		C175.2,358.2,175.2,356.6,176.1,355.7z"/>
	<path class="st2" d="M60.9,229.2c1.1-0.7,2.6-0.3,3.3,0.8c0.7,1.1,0.3,2.6-0.8,3.3c-1.1,0.7-2.6,0.3-3.3-0.8
		C59.4,231.3,59.8,229.9,60.9,229.2z"/>
	<path class="st2" d="M72.5,234.5c1.1,0.7,1.5,2.1,0.8,3.3c-0.7,1.1-2.1,1.5-3.3,0.9c-1.1-0.7-1.5-2.1-0.8-3.3
		C69.9,234.2,71.3,233.8,72.5,234.5z"/>
	<path class="st2" d="M181.7,370.8c-0.4-1.3,0.4-2.6,1.6-3c1.3-0.4,2.6,0.3,3,1.6c0.4,1.3-0.4,2.6-1.6,3
		C183.4,372.8,182,372.1,181.7,370.8z"/>
	<path class="st2" d="M173.7,380.1c-0.4-1.3,0.4-2.6,1.6-3c1.3-0.4,2.6,0.3,3,1.6c0.4,1.3-0.4,2.6-1.6,3
		C175.4,382.1,174.1,381.4,173.7,380.1z"/>
	<path class="st2" d="M238.8,257.5c-0.4-1.3,0.4-2.6,1.6-3c1.3-0.4,2.6,0.3,3,1.6c0.4,1.3-0.4,2.6-1.6,3
		C240.5,259.5,239.2,258.8,238.8,257.5z"/>
	<path class="st2" d="M257.9,251c-0.4-1.3,0.4-2.6,1.6-3c1.3-0.4,2.6,0.3,3,1.6s-0.4,2.6-1.6,3C259.6,253,258.3,252.3,257.9,251z"/>
	<path class="st2" d="M246.8,247.6c0.9-0.9,2.5-0.9,3.4,0s0.9,2.4,0,3.4c-0.9,0.9-2.5,0.9-3.4,0
		C245.9,250.1,245.9,248.6,246.8,247.6z"/>
	<path class="st2" d="M252.4,262.8c-0.4-1.3,0.4-2.6,1.6-3c1.3-0.4,2.6,0.3,3,1.6c0.4,1.3-0.4,2.6-1.6,3
		C254.1,264.7,252.7,264,252.4,262.8z"/>
	<path class="st2" d="M244.4,272c-0.4-1.3,0.4-2.6,1.6-3c1.3-0.4,2.6,0.3,3,1.6c0.4,1.3-0.4,2.6-1.6,3
		C246.1,274,244.8,273.3,244.4,272z"/>
	<path class="st1" d="M91.9,266.1c-2.9-3.4-5.8-6.7-8.8-10"/>
	<path class="st1" d="M105.6,282.3c-2.5-3-5-6-7.5-8.9"/>
	<path class="st1" d="M155.9,349c-14.3-20.8-29.4-41.1-45.4-60.7"/>
	<path class="st1" d="M108.9,233c-5.4-0.5-10.8-1.1-16.1-1.6"/>
	<path class="st1" d="M161.3,238.3c-14.1-1.4-28.2-2.8-42.4-4.2"/>
	<path class="st1" d="M221.9,244.3c-8.1-0.8-16.1-1.6-24.2-2.4"/>
</g>
<g>
	<g>
		<path class="st3" d="M427.9,556c-1.8-78.5,2.8-157.2,13.9-235c50.1,59.7,100.9,122,151,181.7C535,501.7,470.7,517.3,427.9,556z"/>
		<path class="st3" d="M592.7,502.7c0,0-69.8,50.6-164.9,53.4"/>
	</g>
	<g>
		<path class="st2" d="M485.7,503.5c0.4,1.3-0.4,2.7-1.7,3.1c-1.3,0.4-2.7-0.4-3-1.7c-0.4-1.3,0.4-2.7,1.7-3.1
			C484,501.4,485.3,502.2,485.7,503.5z"/>
		<path class="st2" d="M466,488.4c-0.4,1.3-1.8,2-3.1,1.6c-1.3-0.4-2-1.8-1.6-3.1c0.4-1.3,1.8-2,3.1-1.6
			C465.7,485.8,466.4,487.1,466,488.4z"/>
		<path class="st2" d="M441.4,499.4c0.4,1.3-0.4,2.7-1.7,3.1c-1.3,0.4-2.7-0.4-3-1.7c-0.4-1.3,0.4-2.7,1.7-3.1
			S441,498.1,441.4,499.4z"/>
		<path class="st2" d="M446.5,521.8c0.4,1.3-0.4,2.7-1.7,3.1c-1.3,0.4-2.7-0.4-3-1.7c-0.4-1.3,0.4-2.7,1.7-3.1
			C444.7,519.7,446.1,520.5,446.5,521.8z"/>
		<path class="st2" d="M534.1,491.1c0.4,1.3-0.4,2.7-1.7,3.1s-2.7-0.4-3-1.7c-0.4-1.3,0.4-2.7,1.7-3.1
			C532.4,489,533.7,489.8,534.1,491.1z"/>
		<path class="st2" d="M506.1,498.1c-1.3,0.5-2.7-0.2-3.2-1.5s0.2-2.7,1.5-3.2s2.7,0.2,3.2,1.5C508.1,496.2,507.4,497.6,506.1,498.1
			z"/>
		<path class="st2" d="M514.4,476c-0.4,1.3-1.8,2-3.1,1.6c-1.3-0.4-2-1.8-1.6-3.1s1.8-2,3.1-1.6C514.1,473.4,514.8,474.7,514.4,476z
			"/>
		<path class="st2" d="M463.7,517.7c-0.4,1.3-1.8,2-3.1,1.6c-1.3-0.4-2-1.8-1.6-3.1s1.8-2,3.1-1.6
			C463.4,514.9,464.2,516.3,463.7,517.7z"/>
		<path class="st2" d="M489.8,487c0.4,1.3-0.4,2.7-1.7,3.1c-1.3,0.4-2.7-0.4-3-1.7c-0.4-1.3,0.4-2.7,1.7-3.1S489.4,485.7,489.8,487z
			"/>
		<path class="st2" d="M492.7,471.6c0.4,1.3-0.4,2.7-1.7,3.1c-1.3,0.4-2.7-0.4-3-1.7c-0.4-1.3,0.4-2.7,1.7-3.1
			C490.9,469.5,492.3,470.2,492.7,471.6z"/>
		<path class="st2" d="M473,456.2c-0.2,1.4-1.5,2.3-2.9,2.1c-1.4-0.2-2.3-1.5-2-2.8c0.2-1.4,1.5-2.3,2.9-2.1
			C472.3,453.6,473.2,454.8,473,456.2z"/>
		<path class="st2" d="M484.5,436.4c-0.2,1.4-1.5,2.3-2.9,2.1c-1.4-0.2-2.3-1.5-2-2.8c0.2-1.4,1.5-2.3,2.9-2.1
			C483.8,433.7,484.7,435,484.5,436.4z"/>
		<path class="st2" d="M489.6,416.1c-0.2,1.4-1.5,2.3-2.9,2.1c-1.4-0.2-2.3-1.5-2-2.8c0.2-1.4,1.5-2.3,2.9-2.1
			C488.9,413.5,489.8,414.8,489.6,416.1z"/>
		<path class="st2" d="M464,397.3c-0.2,1.4-1.5,2.3-2.9,2.1s-2.3-1.5-2-2.8c0.2-1.4,1.5-2.3,2.9-2.1
			C463.4,394.7,464.3,396,464,397.3z"/>
		<path class="st2" d="M465.2,421.6c-0.2,1.4-1.5,2.3-2.9,2.1c-1.4-0.2-2.3-1.5-2-2.8c0.2-1.4,1.5-2.3,2.9-2.1
			C464.5,419,465.4,420.3,465.2,421.6z"/>
		<path class="st2" d="M453,359.7c-0.2,1.4-1.5,2.3-2.9,2.1c-1.4-0.2-2.3-1.5-2-2.8c0.2-1.4,1.5-2.3,2.9-2.1
			C452.3,357.1,453.2,358.4,453,359.7z"/>
		<path class="st2" d="M481.9,391c1,1,0.9,2.6,0,3.5c-1,1-2.5,0.9-3.5,0c-1-1-0.9-2.6,0-3.5C479.4,390,480.9,390,481.9,391z"/>
		<path class="st2" d="M450.6,382.6c1,1,0.9,2.6,0,3.5c-1,1-2.5,0.9-3.5,0c-1-1-0.9-2.6,0-3.5C448.1,381.6,449.6,381.6,450.6,382.6z
			"/>
		<path class="st2" d="M454.4,444.7c-1.3,0.5-2.7,0-3.3-1.3c-0.5-1.3,0-2.7,1.3-3.2s2.7,0,3.3,1.3
			C456.2,442.7,455.6,444.2,454.4,444.7z"/>
		<path class="st2" d="M447.8,416c-1.3,0.5-2.7,0-3.3-1.3c-0.5-1.3,0-2.7,1.3-3.2s2.7,0,3.3,1.3C449.7,414,449.1,415.4,447.8,416z"
			/>
		<path class="st2" d="M466.7,382.8c-1.3,0.5-2.7,0-3.3-1.3c-0.5-1.3,0-2.7,1.3-3.2s2.7,0,3.3,1.3
			C468.5,380.8,467.9,382.2,466.7,382.8z"/>
		<path class="st2" d="M448.4,467.5c0.4,1.3-0.4,2.7-1.7,3.1c-1.3,0.4-2.7-0.4-3-1.7c-0.4-1.3,0.4-2.7,1.7-3.1
			S448,466.2,448.4,467.5z"/>
		<path class="st2" d="M541.1,459.2c0.4,1.3-0.4,2.7-1.7,3.1s-2.7-0.4-3-1.7c-0.4-1.3,0.4-2.7,1.7-3.1
			C539.3,457.1,540.7,457.8,541.1,459.2z"/>
		<path class="st2" d="M561.1,483c0.4,1.3-0.4,2.7-1.7,3.1s-2.7-0.4-3-1.7c-0.4-1.3,0.4-2.7,1.7-3.1
			C559.3,480.9,560.7,481.7,561.1,483z"/>
		<path class="st2" d="M521.3,444.1c-0.4,1.3-1.8,2-3.1,1.6s-2-1.8-1.6-3.1c0.4-1.3,1.8-2,3.1-1.6S521.8,442.8,521.3,444.1z"/>
		<path class="st2" d="M496.9,455.9c-0.1,1.4-1.2,2.4-2.6,2.4c-1.4-0.1-2.4-1.2-2.4-2.6s1.2-2.4,2.6-2.4
			C495.9,453.4,496.9,454.5,496.9,455.9z"/>
		<path class="st2" d="M507.8,427c-0.1,1.4-1.2,2.4-2.6,2.4c-1.4-0.1-2.4-1.2-2.4-2.6c0.1-1.4,1.2-2.4,2.6-2.4
			C506.8,424.5,507.9,425.7,507.8,427z"/>
	</g>
	<path class="st3" d="M451.5,555.1c2.2-7.1,4.3-14.3,6.5-21.4"/>
	<path class="st3" d="M465.3,552c1.2-9.1,4-17.9,8.1-26.1"/>
	<path class="st3" d="M485.7,548.5c1.2-10,2.4-20,3.7-30"/>
	<path class="st3" d="M501.6,543.7c2.7-11,5.4-22.1,8.1-33.1"/>
	<path class="st3" d="M518.1,539.5c1.9-10.3,3.8-20.7,5.7-31"/>
	<path class="st3" d="M531.4,534.8c2.4-9,4.7-18,7.1-27.1"/>
	<path class="st3" d="M545.6,527.9c1.8-7.8,3.6-15.6,5.3-23.4"/>
	<path class="st3" d="M561.6,519.9c1-5.2,2.1-10.5,3.1-15.7"/>
</g>
<g>
	<path class="st3" d="M175.6,650c-24.8,10.9-53.7-0.4-64.7-25.2c-10.9-24.8,0.4-53.7,25.2-64.7c24.8-10.9,53.7,0.4,64.7,25.2
		C211.7,610.1,200.4,639.1,175.6,650z"/>
	<path class="st3" d="M180.8,579.5c4.2,4.3,7.4,9.7,9,15.6"/>
	<path class="st3" d="M159.7,568.6c4.4,0.6,8.6,2.1,12.5,4.3"/>
	<path class="st3" d="M118.1,601.5c1.4-17,15.3-30.7,32.1-33"/>
	<path class="st2" d="M175.1,635c1,0.7,1.4,2.1,0.7,3.1c-0.7,1.1-2,1.4-3.1,0.7c-1-0.7-1.4-2.1-0.7-3.1S174.1,634.4,175.1,635z"/>
	<path class="st2" d="M158.8,636.6c1,0.7,1.4,2.1,0.7,3.1c-0.7,1.1-2,1.4-3.1,0.7c-1-0.7-1.4-2.1-0.7-3.1S157.8,635.9,158.8,636.6z"
		/>
	<path class="st2" d="M168.2,627.6c0.8,1,0.7,2.4-0.3,3.2s-2.4,0.7-3.2-0.3s-0.7-2.4,0.3-3.2C166,626.6,167.4,626.7,168.2,627.6z"/>
	<path class="st2" d="M155.7,626.8c0.7,1,0.5,2.4-0.5,3.2c-1,0.7-2.4,0.5-3.1-0.5s-0.5-2.4,0.5-3.2
		C153.5,625.6,154.9,625.8,155.7,626.8z"/>
	<path class="st2" d="M143.1,633c1,0.7,1.4,2.1,0.7,3.1c-0.7,1.1-2,1.4-3.1,0.7s-1.4-2.1-0.7-3.1S142,632.4,143.1,633z"/>
	<path class="st2" d="M141.3,621.2c1,0.7,1.4,2.1,0.7,3.1c-0.7,1.1-2,1.4-3.1,0.7c-1-0.7-1.4-2.1-0.7-3.1S140.3,620.6,141.3,621.2z"
		/>
	<path class="st2" d="M129.1,621.6c1,0.7,1.4,2.1,0.7,3.1c-0.7,1.1-2,1.4-3.1,0.7c-1-0.7-1.4-2.1-0.7-3.1
		C126.7,621.2,128.1,620.9,129.1,621.6z"/>
</g>
<g>
	<path class="st3" d="M282.4,763.2c-24.8,10.9-53.7-0.4-64.7-25.2c-10.9-24.8,0.4-53.7,25.2-64.7c24.8-10.9,53.7,0.4,64.7,25.2
		C318.5,723.3,307.2,752.2,282.4,763.2z"/>
	<path class="st3" d="M287.6,692.7c4.2,4.3,7.4,9.7,9,15.6"/>
	<path class="st3" d="M266.5,681.7c4.4,0.6,8.6,2.1,12.5,4.3"/>
	<path class="st3" d="M224.9,714.7c1.4-17,15.3-30.7,32.1-33"/>
	<path class="st2" d="M281.9,748.2c1,0.7,1.4,2.1,0.7,3.1s-2,1.4-3.1,0.7c-1-0.7-1.4-2.1-0.7-3.1S280.8,747.5,281.9,748.2z"/>
	<path class="st2" d="M265.6,749.8c1,0.7,1.4,2.1,0.7,3.1c-0.7,1.1-2,1.4-3.1,0.7c-1-0.7-1.4-2.1-0.7-3.1
		C263.1,749.4,264.5,749.1,265.6,749.8z"/>
	<path class="st2" d="M274.9,740.8c0.8,1,0.7,2.4-0.3,3.2s-2.4,0.7-3.2-0.3c-0.8-1-0.7-2.4,0.3-3.2
		C272.7,739.7,274.1,739.9,274.9,740.8z"/>
	<path class="st2" d="M262.4,740c0.7,1,0.5,2.4-0.5,3.2c-1,0.7-2.4,0.5-3.1-0.5s-0.5-2.4,0.5-3.2C260.3,738.8,261.7,739,262.4,740z"
		/>
	<path class="st2" d="M249.8,746.2c1,0.7,1.4,2.1,0.7,3.1c-0.7,1.1-2,1.4-3.1,0.7c-1-0.7-1.4-2.1-0.7-3.1S248.8,745.5,249.8,746.2z"
		/>
	<path class="st2" d="M248.1,734.4c1,0.7,1.4,2.1,0.7,3.1c-0.7,1.1-2,1.4-3.1,0.7c-1-0.7-1.4-2.1-0.7-3.1
		C245.7,734,247,733.7,248.1,734.4z"/>
	<path class="st2" d="M235.9,734.7c1,0.7,1.4,2.1,0.7,3.1c-0.7,1.1-2,1.4-3.1,0.7c-1-0.7-1.4-2.1-0.7-3.1
		C233.5,734.4,234.8,734.1,235.9,734.7z"/>
</g>
</svg>
