<?xml version="1.0" encoding="utf-8"?>
<!-- Generator: Adobe Illustrator 23.1.0, SVG Export Plug-In . SVG Version: 6.00 Build 0)  -->
<svg version="1.1" id="Слой_1" xmlns="http://www.w3.org/2000/svg" xmlns:xlink="http://www.w3.org/1999/xlink" x="0px" y="0px"
	 viewBox="0 0 1366 1283.4838867" enable-background="new 0 0 1366 1283.4838867" xml:space="preserve">
<g>
	<path fill="#1C1C1A" d="M589.1043701,269.0113831c2.7999878-0.8000488,5.5-1.8999023,8-3.3999023l0.0999756,2.1000977
		c-3.2999878,1.8000488-6.7000122,3.1000977-10.4000244,4c-5.2999878,1.1999512-10.7000122,1.1999512-16.0999756,0.1000977
		c-6.9000244-1.3999023-12.9000244-4.3000488-18.0999756-8.8999023
		c-5.2000122-4.6000977-8.9000244-10.1999512-11.2000122-16.6999512
		c-2.2000122-6.6000977-2.5999756-13.3000488-1.2999878-20.1999512c1.4000244-6.8999023,4.4000244-12.8999023,8.9000244-18.1000977
		c4.5999756-5.1999512,10.0999756-8.8999023,16.7000122-11.1999512c6.5999756-2.3000488,13.2999878-2.6999512,20.2000122-1.3000488
		c9.4000244,1.8999023,17,6.5,22.9000244,13.8999023l-2.9000244,2.3000488
		c-5.9000244-7.6000977-13.4000244-12.1999512-22.7000122-14c-9.2999878-1.6999512-17.7999878,0-25.5,5.1000977
		c-5.2999878,3.5-9.2999878,8.1000977-11.9000244,13.8999023c-2.5999756,5.8000488-3.7000122,11.8999023-3.2000122,18.3999023
		s2.5999756,12.5,6.4000244,18.1999512c4.5999756,6.8000488,10.5999756,11.6000977,18.0999756,14.5
		C574.7043457,270.5113831,582.0043335,271.0113831,589.1043701,269.0113831z"/>
	<path fill="#1C1C1A" d="M627.9043579,209.0113831c6.5999756-2.3000488,13.2999878-2.6999512,20.2000122-1.3000488
		s12.9000244,4.3999023,18.0999756,9c5.2000122,4.6000977,8.9000244,10.1999512,11.2000122,16.6999512
		c2.2999878,6.6000977,2.7000122,13.3000488,1.2999878,20.1999512s-4.4000244,12.8999023-9,18.1000977
		c-4.5999756,5.1999512-10.2000122,8.8999023-16.7000122,11.1999512
		c-6.5999756,2.3000488-13.2999878,2.6999512-20.2000122,1.3000488s-13-4.3999023-18.2000122-9
		s-8.9000244-10.1999512-11.2000122-16.6999512c-2.2000122-6.5-2.5999756-13.3000488-1.2999878-20.1999512
		c1.4000244-6.8999023,4.4000244-12.8999023,8.9000244-18.1000977
		C615.7043457,215.0113831,621.3043213,211.2115784,627.9043579,209.0113831z M643.5043335,282.5113831
		c6.2999878-0.3000488,12.2000122-2.1000977,17.5-5.6999512c5.2999878-3.5,9.2999878-8.1999512,12-14
		s3.7999878-11.8999023,3.2000122-18.3999023c-0.5-6.5-2.7000122-12.5-6.4000244-18.1000977s-8.5-9.8999023-14.2999878-12.8999023
		s-11.7999878-4.3000488-18.2000122-4.1000977c-6.4000244,0.3000488-12.2000122,2.1000977-17.5,5.6000977
		s-9.2999878,8.1999512-11.9000244,14c-2.5999756,5.8000488-3.7000122,11.8999023-3.2000122,18.3999023
		s2.7000122,12.5,6.4000244,18.1000977s8.5,9.8999023,14.2999878,12.8999023
		C631.1043701,281.4115295,637.2043457,282.7115784,643.5043335,282.5113831z"/>
	<path fill="#1C1C1A" d="M696.2043457,293.7115784l1.0999756,2.1000977l-21.7999878-4.3999023l14.7999878-74.1000977
		l3.5999756,0.6999512l-14.5,72.3000488L696.2043457,293.7115784z"/>
	<path fill="#1C1C1A" d="M738.9043579,225.8114319l5.0999756,79.3999023l-3.5999756-0.6999512l-1.7999878-29.3000488
		l-21.9000244-4.3999023l-13,26.3000488l-1.9000244-0.3999023l33.7000122-68.1999512L738.9043579,225.8114319z
		 M717.6043701,269.1114807l20.7999878,4.1999512l-2.5999756-41L717.6043701,269.1114807z"/>
</g>
<g>
	<path fill="#1C1C1A" d="M677.7450562,493.8266907c2.0004272-1.1524353,4.2181396-2.0753479,6.6470337-2.5447998
		c6.0299683-1.2645569,11.7261963-0.1670227,16.9555054,3.2438965c5.2293701,3.4109192,8.4520874,8.1977539,9.7165527,14.2277832
		c0.9453125,4.6343689,0.555542,9.0077209-1.3081055,13.2958069c-1.7729492,4.2458496-4.5966187,7.6571045-8.2895508,10.1495361
		l25.9000244,24.3398438l-3.3292236,0.6682129l-25.2058105-23.5600586
		c-1.6800537,0.8930054-3.3961792,1.4716187-5.3295898,1.8206787c-1.1238403,0.1924438-2.3383179,0.4271851-3.5465698,0.4384766
		l5.5994873,27.1773071l-3.4198608,0.7104492L677.7450562,493.8266907z M689.6907349,534.1539307
		c1.1176147,0.0310059,2.2835693-0.0709839,3.4980469-0.3057251c5.1296997-1.0657349,9.1008301-3.9083252,11.9615479-8.6608887
		s3.6316528-9.9655151,2.5360718-15.6330261c-0.5478516-2.8337708-1.59729-5.3234253-3.0999146-7.6019592
		c-1.5026855-2.2785339-3.2835083-4.2069397-5.3002319-5.6944275s-4.3601074-2.4920654-6.8485718-3.0977783
		c-2.5792847-0.5637207-5.0379639-0.6317444-7.5574951-0.1200562c-1.2144775,0.2347107-2.3867188,0.5601807-3.3837891,1.0246582
		L689.6907349,534.1539307z"/>
	<path fill="#1C1C1A" d="M734.7027588,553.34198l15.7033081-3.2333374l1.7509766,1.3907471l-20.5189819,4.2629395
		l-14.432312-70.058075l20.5189819-4.2629395l-1.0405273,2.0290222l-15.7033081,3.2333069l4.9672241,24.1622925
		l13.6792603-2.8420105l-0.8591919,1.9445801l-12.4648438,2.6072998L734.7027588,553.34198z"/>
	<path fill="#1C1C1A" d="M776.3691406,483.4073792c5.5795288,3.6889648,9.7869873,8.4584961,12.755127,14.3566589
		c2.9259644,5.8076477,4.1842041,12.0611267,3.8232422,18.6277466c-0.3609619,6.5665894-2.4071655,12.5941772-6.0054932,18.1314697
		c-3.0842896,4.7462769-7.0801392,8.4829712-11.7217407,11.3071899c-4.7322388,2.866394-9.6992798,4.5181274-15.0823975,5.039917
		c-1.2566528,0.1442261-2.4649048,0.1554565-3.5403442,0.2150269l-14.6309814-70.9582825
		c1.0393677-0.3737183,2.1693115-0.789917,3.3414917-1.115387c5.1905518-1.6457214,10.392334-2.0830688,15.9195557-1.3482666
		C766.5736694,478.4829407,771.6228638,480.3230286,776.3691406,483.4073792z M763.1057739,548.7160034
		c5.8486328-1.1801147,10.9796143-3.901001,15.3864746-7.9395752c4.364624-4.1290894,7.5457153-9.1412964,9.3621216-14.9516602
		c1.7740479-5.901123,2.0743408-11.8876343,0.7738647-18.231842c-0.9453735-4.6343384-2.7063599-8.8884583-5.2833252-12.7627563
		s-5.710144-7.0480652-9.1760864-9.5152283c-3.5565796-2.4249573-7.4881592-4.2340393-11.9337769-5.2521057
		c-4.4456787-1.0180664-8.8738403-1.051239-13.1939697-0.1419983c-1.1237793,0.1924744-2.2960205,0.5179443-3.4260254,0.9339294
		l14.1192627,68.4386902C760.7252197,549.0524292,761.8912964,548.9506836,763.1057739,548.7160034z"/>
	<path fill="#1C1C1A" d="M835.7006836,491.1813354c4.3612061,0.836792,8.2865601,2.8693542,11.510437,6.000885
		c3.2238159,3.1315613,5.3959351,7.0840149,6.2989502,11.627655c1.2644653,6.0300293,0.1670532,11.7260742-3.2437744,16.9554443
		s-8.1977539,8.4519653-14.2277222,9.7165527c-2.4289551,0.4694824-4.7125244,0.5404663-7.1228027,0.3394775l-14.2695923-69.4718933
		c0.3688354-0.3923645,0.7797852-0.6942444,1.2330322-0.905365c1.6862793-1.1165161,3.4508667-1.828064,5.34198-2.2678528
		c4.1387939-0.8247681,7.8778687-0.1395874,11.3922729,2.1948547s5.6627808,5.5255127,6.4876099,9.6644287
		c0.5477905,2.8337402,0.3406372,5.4676208-0.4950562,8.1733704c-0.9684448,2.6574707-2.5043335,4.8071289-4.656311,6.5817261
		c-0.3687744,0.3923645-0.8703613,0.7364502-1.2814331,1.0380859
		C833.5200806,490.7629395,834.5892334,490.9266357,835.7006836,491.1813354z M835.550415,533.7235107
		c5.1296997-1.0657959,9.1008301-3.9083862,11.9615479-8.6609497c2.8607178-4.7525024,3.6316528-9.9654541,2.4453735-15.5907593
		c-1.1862793-5.6252747-3.9259033-10.0855713-8.4002075-13.2966003c-4.4743652-3.2110291-9.2763672-4.2836609-14.4061279-3.217865
		l-3.4198608,0.7104797l8.3632202,40.4517517C833.1698608,534.0599976,834.3359375,533.958252,835.550415,533.7235107z
		 M818.1380005,466.2672424l5.3287354,25.6486816l3.4198608-0.7104797c3.1055908-0.6744995,5.4811401-2.4428101,7.2653809-5.4803162
		c1.6936035-2.9952698,2.2335815-6.3357544,1.4387207-9.9367371c-0.7043457-3.6434326-2.4603271-6.4656982-5.2196655-8.6002808
		c-2.7593994-2.134552-5.7372437-2.8433228-8.7521973-2.2110596
		C820.180603,465.2053223,819.1412354,465.5790405,818.1380005,466.2672424z"/>
	<path fill="#1C1C1A" d="M874.867981,453.2997437l1.6192017-0.3131104l11.668457,56.7834167
		c0.87323,4.0059509,0.145752,7.6543274-2.1400757,11.0359192c-2.2858887,3.3815918-5.3865967,5.4876709-9.3018188,6.3187256
		c-2.6101685,0.553894-5.111145,0.3951416-7.5935669-0.4342651s-4.6803589-2.2324219-6.3705444-4.203064
		c-1.7808228-1.9283447-2.9694214-4.243042-3.4326782-6.8953247l-11.717041-56.6506653l3.4198608-0.7104797l11.717041,56.6506348
		c0.7527466,3.510498,2.508728,6.3330078,5.3165283,8.3345947s5.8762207,2.6681519,9.1148071,2.0421753
		c3.3291626-0.6682129,5.8859253-2.5212402,7.6217651-5.4257813c1.8265381-2.9467773,2.3180542-6.15448,1.6559448-9.7071533
		L874.867981,453.2997437z"/>
	<path fill="#1C1C1A" d="M913.7840576,516.4755249l1.7509766,1.390686l-20.5189819,4.2629395l-14.432312-70.0580444
		l3.4198608-0.7104492l14.0770264,68.3479614L913.7840576,516.4755249z"/>
	<path fill="#1C1C1A" d="M938.5324707,511.3456116l1.7509766,1.3907166l-20.5189819,4.2629395l-14.432312-70.058075
		l3.4198608-0.7104797l14.0770264,68.3479614L938.5324707,511.3456116z"/>
</g>
<g>
	<path fill="#1C1C1A" d="M542.2921753,640.8324585l-14.3701172-7.1098022l-10.9458008,22.1060791l12.5335083,6.1733398
		l-1.8735352,1.0046997l-11.4316406-5.6114502l-19.2244568,38.874939l-3.1333923-1.543396l31.713623-64.114502l18.800293,9.2601318
		L542.2921753,640.8324585z"/>
	<path fill="#1C1C1A" d="M554.7649536,643.7079468l-14.7495117,73.7720947l-3.1334229-1.543396l5.4431152-27.1716919
		l-18.8752441-9.3798828l-18.2464905,20.833374l-1.6641541-0.7940063l47.5684204-54.0965576L554.7649536,643.7079468z
		 M524.6863403,678.0280762l17.9682007,8.8630981l7.6668091-38.152771L524.6863403,678.0280762z"/>
	<path fill="#1C1C1A" d="M600.3717651,667.5630493l1.4692383,0.7490845l-31.713623,64.114502l-1.0044556-0.5394897
		l0.097168-1.3117676l3.2835693-65.4348145l-27.2484131,54.9840698l-1.5667114-0.7715454l31.713623-64.114502l1.0044556,0.5394897
		l-0.0221558,1.4314575l-3.2835693,65.4348755L600.3717651,667.5630493z"/>
	<path fill="#1C1C1A" d="M607.0057983,670.8369751l25.0670776,12.3466797l-2.0684204,0.9597778l-10.307251-5.1469727
		l-30.9418945,62.5476074l-3.1333618-1.543396l30.9418945-62.5476074l-11.7014771-5.7763672L607.0057983,670.8369751z"/>
	<path fill="#1C1C1A" d="M646.2253418,689.0119019l-14.7495117,73.7720947l-3.1334229-1.543396l5.4431152-27.1716309
		l-18.8752441-9.3799438l-18.246521,20.8334351l-1.6641235-0.7940674l47.5684204-54.0965576L646.2253418,689.0119019z
		 M616.0492554,723.3095703l17.9682007,8.8630981l7.6668091-38.15271L616.0492554,723.3095703z"/>
</g>
<g>
	<path fill="#1C1C1A" d="M662.6017456,953.3892822c1.1738892,3.2667236,1.6123657,7.0427246,1.2164917,11.3418579
		c-0.4382935,4.0021362-2.2766724,7.3964233-5.3453979,9.9563599c-3.1677856,2.5740356-6.7457275,3.6912231-10.7337646,3.3519897
		c-2.6587524-0.2262573-5.0063477-1.1029663-7.1277466-2.5170898c-2.135498-1.5131836-3.7053223-3.3091431-4.836731-5.5717773
		c-0.678894-1.2162476-1.0748901-2.5737915-1.3577881-3.8466187l3.2950439-3.0973511
		c-0.1271973,2.6447144,0.3112793,5.0063477,1.541687,7.2547607c1.838562,3.6768188,4.7519531,5.6850586,8.5419922,6.0525513
		c3.0688477,0.2685547,5.8548584-0.7354736,8.2589111-2.9984131c2.4041138-2.2626953,3.789917-5.2891846,4.1999512-8.7824707
		c-0.0141602-0.0991211,0.0565186-0.3111572,0.0140991-0.6082153c0.0565186-0.3111572,0.1130981-0.6223755,0.0706787-0.9191284
		c0.0565796-0.3112183,0.0140991-0.6082153,0.0565796-1.0182495c0.0424194-0.4100342,0.0848389-0.8203125,0.0140991-1.3152466
		c-0.0707397-0.4949951-0.0424805-1.0040894-0.1132202-1.4990845c-0.0848389-0.5940552-0.1697388-1.1878662-0.2545776-1.7819214
		c-0.197998-0.678772-0.2828979-1.2728882-0.480896-1.9515991c-0.7354736-2.3192139-1.8386841-4.3841553-3.1115112-6.2225952
		s-2.7153931-3.4506226-4.2144775-4.7516479s-3.0123901-2.7011719-4.4973755-3.9030762
		c-1.4849854-1.2019653-2.9416504-2.913269-4.4124756-4.7234497c-1.4849854-1.9092407-2.6022949-4.0727539-3.4367676-6.3780518
		c-1.2869873-3.3516235-1.7255249-7.1276245-1.2164917-11.3418579c0.4382935-4.0021362,2.1776733-7.3822632,5.345459-9.9562988
		c3.1677246-2.5740356,6.7456665-3.6912231,10.7337036-3.3520508c2.6587524,0.2263184,5.0063477,1.1030273,7.0287476,2.53125
		c2.135498,1.5131836,3.7053223,3.3092041,4.93573,5.5576782c0.579895,1.2304077,1.06073,2.4749146,1.3577271,3.8466187
		l-3.2950439,3.09729c0.1271973-2.6446533-0.3112183-5.0062866-1.541687-7.2547607
		c-1.937561-3.6626587-4.8650513-5.7697144-8.5419922-6.0525513c-3.0688477-0.2685547-5.8548584,0.7354736-8.2589111,2.9984741
		c-2.4041138,2.2626953-3.789917,5.2891846-4.1008911,8.7683105c0.0141602,0.0991211-0.0565186,0.3111572-0.098999,0.7211914
		s-0.098999,0.7211914-0.1555176,1.0324097c-0.0565186,0.3111572,0,0.7070313-0.0140991,1.3152466
		s0.0707397,1.2020264,0.1414795,1.6970215c0.0848389,0.5940552,0.1697388,1.1878662,0.2828979,1.9798584
		s0.3111572,1.4707642,0.5233154,2.2486572c0.678894,1.9232788,1.541626,3.7192383,2.4891968,5.4021606
		c1.0465698,1.6688232,2.1497192,3.0264282,3.2244873,4.1860962c1.1738892,1.1455078,2.3477173,2.2910156,3.7194824,3.40802
		c1.2869873,1.2302246,2.5598145,2.3616333,3.7336426,3.5071411s2.3759766,2.4890137,3.5215454,4.1436768
		C660.9470215,949.585083,661.9087524,951.3668823,662.6017456,953.3892822z"/>
	<path fill="#1C1C1A" d="M695.5942383,914.93573c4.0164795,4.7799683,5.7137451,10.2952881,5.1906128,16.5321045
		c-0.5230713,6.2367554-3.2240601,11.3704224-8.0180664,15.2878418c-4.7799072,4.0165405-10.2953491,5.7136841-16.4330444,5.1765747
		c-1.1313477-0.1414795-2.3617554-0.2687378-3.5214233-0.6080933l-2.5165405,27.6337891l-3.4790039-0.3110962l6.4891357-71.2341919
		c2.3476563-0.5374146,4.75177-0.6789551,7.0993042-0.5093384
		C686.5430298,907.4406738,691.6766968,910.1416016,695.5942383,914.93573z M690.3342285,945.2849121
		c4.1152344-3.7195435,6.3637085-8.4854736,6.8585205-14.2131348c0.494751-5.7276611-0.8347168-10.7904663-4.1865234-15.1603394
		c-3.3518677-4.369873-7.6369629-6.7880249-12.8554688-7.2545166c-1.2303467-0.1273193-2.4465942-0.1555176-3.5355225,0.0001221
		l-3.7606201,40.8424683c1.0606689,0.3535156,2.2061768,0.593811,3.4365234,0.7211304
		C681.6087036,950.6734619,686.3179932,948.9904175,690.3342285,945.2849121z"/>
	<path fill="#1C1C1A" d="M706.8795166,910.4946899c2.2485352-0.5232544,4.6386108-0.763916,7.0993042-0.5093384
		c6.1376953,0.5371704,11.2713623,3.2382813,15.2879028,8.0182495c4.0164795,4.7799683,5.7137451,10.2953491,5.1764526,16.4330444
		c-0.4382324,4.7094116-2.0786133,8.7822266-5.1049194,12.3461914c-2.9273071,3.5498657-6.6183472,5.996521-10.875061,7.3117676
		l17.7351074,30.8010864l-3.3799438-0.3252563l-17.2967529-29.8535156c-1.8667603,0.3678589-3.6769409,0.4242554-5.62854,0.1980591
		c-1.1313477-0.1414795-2.3617554-0.2687378-3.5214233-0.6080933l-2.5165405,27.6337891l-3.4790039-0.3110962
		L706.8795166,910.4946899z M706.5130615,952.4685669c1.0606689,0.3535156,2.2061157,0.593811,3.4365234,0.7211304
		c5.2184448,0.4664917,9.8429565-1.1033325,13.9581299-4.822937c4.1152344-3.7196045,6.3637085-8.4854736,6.9575195-14.2272949
		c0.296936-2.8709106,0.0139771-5.5578613-0.763855-8.1740723c-0.7778931-2.616272-1.9234619-4.9779663-3.4226074-6.9860229
		c-1.4991455-2.0081177-3.4508667-3.6486816-5.6570435-4.9495239c-2.3051758-1.2869873-4.6386719-2.0645752-7.1984253-2.3050537
		c-1.2303467-0.1272583-2.4465942-0.1554565-3.5355225,0.0001221L706.5130615,952.4685669z"/>
	<path fill="#1C1C1A" d="M740.3985596,985.3056641l6.4891357-71.2341919l3.4790039,0.3110352l-6.4891357,71.2342529
		L740.3985596,985.3056641z"/>
	<path fill="#1C1C1A" d="M756.1083984,914.9764404l27.8317871,2.4881592l-1.5838623,1.6403809l-11.4692993-1.088501
		l-6.3336182,69.4945068l-3.4790039-0.3110962l6.3336182-69.4945068l-12.9967041-1.1734009L756.1083984,914.9764404z"/>
	<path fill="#1C1C1A" d="M785.2857666,987.6801758l15.9664917,1.4561157l1.2728271,1.8384399l-20.8738403-1.8661499
		l6.4891357-71.2342529l20.8738403,1.8662109l-1.5838623,1.6404419l-15.9664917-1.4561157l-2.2478638,24.5649414
		l13.9158325,1.2440186l-1.3858643,1.6121826l-12.6855469-1.1167603L785.2857666,987.6801758z"/>
</g>
</svg>
