<?xml version="1.0" encoding="utf-8"?>
<!-- Generator: Adobe Illustrator 23.1.0, SVG Export Plug-In . SVG Version: 6.00 Build 0)  -->
<svg version="1.1" id="Слой_1" opacity="0.5" xmlns="http://www.w3.org/2000/svg" xmlns:xlink="http://www.w3.org/1999/xlink"
	 x="0px" y="0px" viewBox="0 0 700 1480.4" style="enable-background:new 0 0 700 1480.4;" xml:space="preserve">
<style type="text/css">
	.st0{fill:#333333;}
</style>
<g>
	<path class="st0" d="M372.4,219.6c-0.5,1.4,0.1,2.4,1,2.9c0.8,0.8,1.9,1.1,3.1,0.2c6.2-4.7,12.5-11.8,11.6-20.2
		c-0.8-8.4-22.7-26.7-7.6-32.6c2.8-1.1,2.6-5.5-0.7-5.5c-10.5,0.1-21.4,3.6-22,15.7C357,196.3,379.6,202,372.4,219.6z M368.7,191.7
		c-7.5-8.8-5.4-16.3,1.7-19.6c-1.2,2.6-1.3,5.8-0.3,9.6c1.1,4,3.6,7.6,6.1,10.8c5.4,7.1,7.1,13.6,3.2,19.7
		c-0.1-3.7-0.9-7.4-2.6-10.5C374.6,197.6,371.5,195,368.7,191.7z"/>
	<path class="st0" d="M408.1,218.3c-0.5,1.4,0.1,2.4,1,2.9c0.8,0.8,1.9,1.1,3.1,0.2c7.4-5.5,14.8-14,13.8-23.9
		c-1-10.5-28.4-32.5-8.7-40.1c2.8-1.1,2.6-5.5-0.7-5.5c-12.5,0.1-25.2,4.2-26.1,18.5C389.2,189.9,417,196.6,408.1,218.3z
		 M402.6,184.6c-9.8-11.5-6.4-21.4,3.7-25.3c-2,3.3-2.4,7.5-0.9,12.6c1.3,4.7,4.3,9,7.2,12.8c7.2,9.4,9,18.1,2.9,26.1
		c0.2-4.9-0.8-10-3.1-14.3C409.7,191.8,406,188.6,402.6,184.6z"/>
	<path class="st0" d="M494.2,249.2c-6.4-4.6-13.3-5.1-19.5-1.9c-0.1-8.2-2.7-14.6-10-16.3c-0.1-0.1-0.2,0-0.4,0
		c-0.1,0-0.2-0.1-0.4-0.1c-45.1-1.5-91.9-3.7-136.9,0.2c-15.2,1.3-13.7,10.5-12.6,24.2c1.2,14.3,4,28.7,10,41.8
		c3.8,8.3,9,15.4,14.9,21.3c-13.2,1.3-36.7,6-36.4,19.1c0.2,9.9,17.9,13.3,25,14.4c2.9,0.4,5.7,0.8,8.6,1.1
		c8,18.3,38.2,14.9,54.2,15.1c14.2,0.2,29.9,0.8,43.9-2.1c8.6-1.8,12.6-7.7,17.6-14.4c10.7-1.2,27.6-3.4,31.6-11.8
		c6.2-12.7-27.1-18.2-41.3-19.7c1.4-1.3,2.6-2.6,3.9-4c0.3,0.1,0.6,0.2,1,0.2c22.1-0.9,52.8-15.3,55.4-40.1
		C503.9,266.5,502.2,254.9,494.2,249.2z M470.9,269.8c2.1-0.8,5.3-2.1,7.6-1.3c3,1,4.1,4.2,3.6,7c-0.7,3.9-4.2,7.7-7.3,10
		c-3.4,2.4-8.4,5.2-12.9,6.1c2.9-6.3,6.1-13.9,8.5-21.7C470.6,269.9,470.8,269.9,470.9,269.8z M421.3,361.5
		c-8.5,0.6-17,0.9-25.5,0.9c-12.4,0-43.6,3-52.7-9c14,1,28.3,0.8,42.1,1c19.7,0.4,39.4,0.2,58.9-2.2
		C438,358.5,431.4,360.7,421.3,361.5z M437.3,324.9c9.3,0.4,18.4,2.4,27.3,5.1c2.9,0.9,9.9,2.3,11.8,4.6c4.1,5.1-11.9,8.7-15.3,9.4
		c-23.7,5.4-49,5.3-73.2,4.9c-11.4-0.2-22.9-0.5-34.3-0.9c-11.1-0.4-29.3,0.9-39-5.9c-13.1-9.1,6.4-14.1,13.6-15.9
		c5.5-1.4,11.2-2.5,16.9-2.7c0.1,0,0.2-0.1,0.3-0.1c11.5,9,25.7,14.2,41.4,15.5c19.2,1.6,36.2-3.5,50.1-14.1
		C436.9,324.8,437.1,324.9,437.3,324.9z M438,316.7c-24.3,23.1-67.2,22.4-92.2,0.4c-11-9.7-17.8-23.1-21.6-37.1
		c-2.3-8.1-3.6-16.4-4.2-24.8c-0.2-2.8-1.3-8.5-0.5-11.2c2.5-9.5,12.1-7.5,18.8-7.7c41.7-1,83.5-1.2,125.2,0.1
		c11.6,3.2,0.3,35.5-2,42.2C456.4,292.7,448.9,306.4,438,316.7z M487.6,293c-9.7,9.8-22.8,15.6-36.4,17c1.6-2.1,3.2-4.4,4.7-6.8
		c0.8-1.4,1.9-3.3,3.1-5.7c0.1,0,0.1,0.1,0.2,0.1c10.1-0.3,22.6-8.1,27-17.2c2.1-4.3,2.2-9.6-0.8-13.5c-3.2-4.3-8.5-4.6-13.2-3.3
		c0.8-3.2,1.5-6.4,1.9-9.4c10.7-9,21.8,2,23,13C498.3,277.8,495,285.6,487.6,293z"/>
	<path class="st0" d="M331.7,251.2c-0.3-3.6-5.9-3.6-5.5,0c1.2,14.3,5.5,27.6,13.1,39.7c1.9,3,6.8,0.2,4.8-2.8
		C337,276.8,332.8,264.5,331.7,251.2z"/>
	<path class="st0" d="M347.3,297.4c-3.6,0-3.6,5.5,0,5.5C350.8,302.9,350.8,297.4,347.3,297.4z"/>
</g>
<g>
	<path class="st0" d="M265.4,608.1c1.4-26.8-22.2-57.7-44.8-70.1c-9.4-6.5-25.7-5.6-35.8-1c-12,5.5-15.1,19.4-16.4,31.5
		c-3.1,28.5,11.1,63,40.9,71.7C233.5,647.1,264.1,635.7,265.4,608.1z M217.7,542.3c16.9,9.2,30.7,26.9,38.1,44.5
		c4.9,11.4,7.2,25.4,0,36.4c-4.5,7.1-12.1,10.2-20,11.8c-17.3,0.1-34.9-20.4-41.7-34.9c-7.4-15.9-18.6-37.8-10.8-54.9
		C192.5,537.7,208.3,535.7,217.7,542.3z M174.4,590.9c-1.9-10.4-2.1-22.3,0.9-32.7c0,16.4,8.7,34.7,15.6,47.6
		c5.8,10.5,17,24,29.6,30.6C196.6,634.8,178.8,614.2,174.4,590.9z"/>
	<path class="st0" d="M198.6,542.5L198.6,542.5c-0.3,0.4-0.4,1-0.2,1.8l0,0c0.4,11.5,3.3,21.5,9.6,31.1c10.4,16,23.3,28.2,23.4,48.6
		c0,3.4,4.4,3.7,5.1,0.4c2.9-13.6,3.4-27-5.2-38.5c-10.7-14.6-22.3-24.6-27.9-42.7c0-0.1-0.1-0.2-0.2-0.4c-0.1-0.1,0-0.1,0-0.1
		c-0.2-0.3-0.3-0.5-0.5-0.7c0-0.1-0.1-0.2-0.3-0.3s-0.2-0.2-0.4-0.3c-1.2-0.6-2.5-0.5-3.2,0.5C198.8,542.3,198.6,542.4,198.6,542.5z
		 M216.7,576.8c4.8,5.2,10.6,10.6,13.7,17c2.2,4.3,2.8,9,3,13.8c-4.9-13.2-14.2-24.1-21.3-36.2C213.7,573.4,215.2,575.2,216.7,576.8
		z"/>
	<path class="st0" d="M250.5,608.5c-0.6,3.3,4.5,3.7,5.1,0.4c1.2-6,0.4-12-2-17.5c-1.3-3.1-5.9-0.8-4.7,2.2
		C251,598.4,251.4,603.4,250.5,608.5z"/>
	<path class="st0" d="M249.8,614.7c-0.1-0.1-0.1,0-0.2,0c-3.3-0.3-3.8,4.8-0.4,5.1c0.1,0.1,0.1,0,0.2,0
		C252.6,620.2,253,615,249.8,614.7z"/>
	<path class="st0" d="M336.8,629.4c-9.1-6.4-25.2-10-35.4-5.3c-24.5,8.3-53,34.6-56.4,61.1c-3.4,27.3,24.7,44,49.7,41.4
		c30.9-3.3,50.9-34.8,52.8-63.5C348.4,651.1,347.7,636.9,336.8,629.4z M252,701.8c-5.2-12.1-0.4-25.6,6.3-35.9
		c10.5-15.9,27-31,45.2-37.1c10.3-4.7,25.6-0.2,33.3,8.7c4.8,18.2-10.1,38-20.2,52.3c-9.2,13.1-30.2,30.2-47.2,27.1
		C262.1,714.1,255.4,709.6,252,701.8z M284.4,720.7c13.6-4.2,26.9-15.5,34.5-24.9c9.1-11.3,20.8-28,23.7-44.1
		c1.1,10.9-1.1,22.7-4.9,32.5C329.1,706.3,308.2,723.7,284.4,720.7z"/>
	<path class="st0" d="M271.3,704.7c7.9-30.7,43.5-39.1,52-69.7c0.1-0.1,0-0.2,0-0.2c0-0.2,0-0.4,0.1-0.7c0-0.1,0-0.2-0.1-0.3
		c-0.1-0.3-0.1-0.5-0.3-0.8c0,0-0.1-0.1,0-0.1c-0.6-0.9-1.8-1.6-2.9-1.3c-0.5,0.1-1.1,0.4-1.4,1c-9,14-24.1,23.2-36.6,34
		c-11.6,10-15.4,21.9-15.9,36.9C266.3,706.3,270.5,707.7,271.3,704.7z M281.9,673.8c3.7-3.8,8.2-6.8,12.1-10.4
		c5.2-4.7,10.5-8.8,15.6-13.1c-10.3,13.5-25.8,22.7-35.5,36.5C275.6,682.1,278,677.7,281.9,673.8z"/>
	<path class="st0" d="M297,695.6c-4.5,5.7-11.2,8.9-17.8,11.5c-3.1,1.3-0.8,5.9,2.2,4.7c7.5-3,14.7-6.8,19.8-13.2
		C303.4,696,299.1,693,297,695.6z"/>
	<path class="st0" d="M304.2,688.3c-3.3-0.3-3.8,4.8-0.4,5.1C307.1,693.7,307.5,688.6,304.2,688.3z"/>
	<path class="st0" d="M195.8,687c-3.3-0.3-3.8,4.8-0.4,5.1C198.6,692.3,199.2,687.2,195.8,687z"/>
	<path class="st0" d="M196.9,665.8c0-0.2,0-0.4,0-0.4c0.3-3.3-4.8-3.8-5.1-0.4c0,0.2,0,0.4,0,0.4
		C191.5,668.6,196.6,669.2,196.9,665.8z"/>
	<path class="st0" d="M224.3,659c-3.3-0.3-3.8,4.8-0.4,5.1C227.2,664.4,227.7,659.3,224.3,659z"/>
	<path class="st0" d="M214.9,683.6c0,0.2,0,0.4,0,0.4c-0.3,3.3,4.8,3.8,5.1,0.4c0-0.2,0-0.4,0-0.4
		C220.4,680.7,215.2,680.3,214.9,683.6z"/>
	<path class="st0" d="M206.7,671.2c-3.3-0.3-3.8,4.8-0.4,5.1C209.6,676.6,210,671.5,206.7,671.2z"/>
	<path class="st0" d="M213.3,649.4c-0.2,0-0.4,0-0.4,0c-3.3-0.3-3.8,4.8-0.4,5.1c0.2,0,0.4,0,0.4,0
		C216.2,654.9,216.6,649.8,213.3,649.4z"/>
	<path class="st0" d="M233.7,667c-3.3-0.3-3.8,4.8-0.4,5.1C236.6,672.4,237,667.2,233.7,667z"/>
	<path class="st0" d="M230.3,693.7c-3.3-0.3-3.8,4.8-0.4,5.1C233.2,699.2,233.7,694,230.3,693.7z"/>
	<path class="st0" d="M294.7,602.6c3.3,0.3,3.8-4.8,0.4-5.1C291.8,597.2,291.4,602.3,294.7,602.6z"/>
	<path class="st0" d="M287.3,578.8c3.3,0.3,3.8-4.8,0.4-5.1C284.5,573.3,284.1,578.4,287.3,578.8z"/>
	<path class="st0" d="M305.8,574.3c3.3,0.3,3.8-4.8,0.4-5.1C303,568.9,302.6,574,305.8,574.3z"/>
	<path class="st0" d="M331.7,593c3.3,0.3,3.8-4.8,0.4-5.1C329,587.6,328.5,592.8,331.7,593z"/>
	<path class="st0" d="M308.9,608.2c3.3,0.3,3.8-4.8,0.4-5.1C306,602.8,305.5,607.9,308.9,608.2z"/>
	<path class="st0" d="M312,593c0.3-0.3,0.7-0.5,1-0.8c2.5-2.1-0.7-6.1-3.3-3.9c-0.3,0.3-0.7,0.5-1,0.8
		C306.2,591.3,309.5,595.3,312,593z"/>
	<path class="st0" d="M322.5,580.1c3.3,0.3,3.8-4.8,0.4-5.1C319.7,574.7,319.3,579.8,322.5,580.1z"/>
	<path class="st0" d="M340.8,609.3c3.3,0.3,3.8-4.8,0.4-5.1C337.9,603.9,337.4,609,340.8,609.3z"/>
	<path class="st0" d="M322.8,618.1c3.3,0.3,3.8-4.8,0.4-5.1C319.8,612.7,319.3,617.8,322.8,618.1z"/>
</g>
<g>
	<path class="st0" d="M355.4,1288.4c-23.1-13.7-61.4-7.2-82.8,7c-10.1,5.2-17,20.2-17.6,31.2c-0.7,13.2,10.1,22.4,20.2,29.2
		c23.8,16.1,60.9,19.5,82.5-2.8C375.1,1334.9,379.2,1302.5,355.4,1288.4z M274.9,1300c16-10.6,38.1-14.6,57.1-13
		c12.4,1,25.8,5.4,32.3,17c4.1,7.3,3.4,15.4,1.2,23.2c-8,15.4-34.3,21.4-50.3,20.6c-17.5-0.8-42.2-1.1-53.6-16.1
		C259.1,1320.2,264.8,1305.3,274.9,1300z M297.8,1360.9c-10.1-3.1-20.7-8.6-28.6-16c14.5,7.7,34.8,8.5,49.4,8.4
		c12-0.2,29.1-3.9,40.9-11.9C347,1361.8,320.5,1367.9,297.8,1360.9z"/>
	<path class="st0" d="M266.2,1317L266.2,1317c0.3,0.4,0.7,0.8,1.5,1l0,0c10.3,5,20.5,7.1,32,6c19-1.8,35.8-7.5,53.9,1.9
		c3,1.6,5.3-2.2,2.8-4.3c-10.7-8.9-22.2-15.6-36.5-13.4c-17.9,2.6-32.1,8.2-50.8,4.8c-0.1,0-0.2,0-0.4,0c-0.1,0.1-0.1,0-0.1,0
		c-0.4,0-0.6,0-0.8,0.2c-0.1,0-0.2,0-0.4,0.1s-0.3,0.1-0.4,0.3c-1.1,0.8-1.6,2-1.1,3.1C266.1,1316.7,266.1,1316.9,266.2,1317z
		 M305.1,1316.9c6.9-1.8,14.3-4.5,21.5-4.2c4.8,0,9.3,1.7,13.6,3.8c-13.9-1.8-28,1.3-41.9,2C300.6,1318,302.9,1317.6,305.1,1316.9z"
		/>
	<path class="st0" d="M348.8,1301.8c2.6,2,5.4-2.3,2.8-4.3c-4.7-3.8-10.4-5.9-16.4-6.4c-3.3-0.3-3.5,4.9-0.3,5.2
		C340.2,1296.7,344.7,1298.6,348.8,1301.8z"/>
	<path class="st0" d="M353.9,1305.3c-0.1,0.1,0,0.1-0.1,0.2c-1.8,2.8,2.5,5.6,4.3,2.8c0.1-0.1,0-0.1,0.1-0.2
		C360.1,1305.4,355.8,1302.6,353.9,1305.3z"/>
	<path class="st0" d="M407.5,1235.1c-9.9,5.1-20.6,17.6-21.2,28.9c-4.1,25.5,5.9,63,27.8,78.3c22.6,15.8,50.4-1.4,59.8-24.8
		c11.5-28.9-7.1-61.2-31.6-76.3C432.1,1235,419.2,1229,407.5,1235.1z M432.1,1343.9c-13.1-1-22.8-11.5-28.8-22.3
		c-9.2-16.8-14.8-38.3-11.7-57.3c0.6-11.3,11.7-22.7,23.3-25.4c18.3,4.2,28.9,26.6,36.9,42.3c7.3,14.2,12.7,40.8,2,54.4
		C447.6,1340.7,440.5,1344.6,432.1,1343.9z M463.9,1324.1c2.6-14-1.2-31-5.9-42.1c-5.8-13.3-15-31.4-28-41.5
		c10.1,4.1,19.6,11.5,26.5,19.4C472,1277.8,477.6,1304.4,463.9,1324.1z"/>
	<path class="st0" d="M443.6,1328.2c-23.4-21.3-14.3-56.7-37.5-78.5c-0.1-0.1-0.2-0.1-0.2-0.1c-0.2-0.1-0.4-0.2-0.6-0.4
		c-0.1,0-0.2-0.1-0.3-0.1c-0.3-0.1-0.5-0.1-0.9-0.1c0,0-0.1,0.1-0.1,0c-1.1,0.1-2.3,0.9-2.5,1.9c-0.1,0.5-0.1,1.1,0.2,1.7
		c8.2,14.5,9.3,32.2,13.1,48.2c3.5,14.9,12.1,23.8,25.3,31.2C442.7,1333.4,446,1330.3,443.6,1328.2z M421.2,1304.4
		c-1.6-5.1-2.2-10.5-3.6-15.6c-1.7-6.8-2.9-13.4-4.3-19.9c7.1,15.4,8.1,33.4,15.8,48.5C425.7,1313.9,422.8,1309.7,421.2,1304.4z"/>
	<path class="st0" d="M447.6,1301.2c2.9,6.6,2.7,14,1.9,21.1c-0.3,3.3,4.9,3.5,5.2,0.3c0.8-8,0.8-16.2-2.5-23.7
		C450.9,1295.8,446.2,1298.2,447.6,1301.2z"/>
	<path class="st0" d="M444.4,1291.5c-1.8,2.8,2.5,5.6,4.3,2.8S446.2,1288.6,444.4,1291.5z"/>
	<path class="st0" d="M392.8,1386.7c-1.8,2.8,2.5,5.6,4.3,2.8C398.8,1386.7,394.6,1383.9,392.8,1386.7z"/>
	<path class="st0" d="M374.6,1376c-0.2-0.1-0.3-0.2-0.4-0.2c-2.8-1.8-5.6,2.5-2.8,4.3c0.2,0.1,0.3,0.2,0.4,0.2
		C374.6,1382,377.4,1377.8,374.6,1376z"/>
	<path class="st0" d="M381.4,1348.5c-1.8,2.8,2.5,5.6,4.3,2.8C387.5,1348.4,383.2,1345.7,381.4,1348.5z"/>
	<path class="st0" d="M398.7,1368.3c0.2,0.1,0.3,0.2,0.4,0.2c2.8,1.8,5.6-2.5,2.8-4.3c-0.2-0.1-0.3-0.2-0.4-0.2
		C398.7,1362.1,395.9,1366.5,398.7,1368.3z"/>
	<path class="st0" d="M383.9,1369.8c-1.8,2.8,2.5,5.6,4.3,2.8S385.7,1367,383.9,1369.8z"/>
	<path class="st0" d="M367.7,1353.7c-0.1,0.2-0.2,0.3-0.2,0.4c-1.8,2.8,2.5,5.6,4.3,2.8c0.1-0.2,0.2-0.3,0.2-0.4
		C373.9,1353.8,369.6,1351,367.7,1353.7z"/>
	<path class="st0" d="M392.7,1343.9c-1.8,2.8,2.5,5.6,4.3,2.8C398.9,1343.9,394.5,1341.1,392.7,1343.9z"/>
	<path class="st0" d="M414.9,1359.3c-1.8,2.8,2.5,5.6,4.3,2.8C421,1359.4,416.7,1356.5,414.9,1359.3z"/>
	<path class="st0" d="M364.2,1260c1.8-2.8-2.5-5.6-4.3-2.8C358.1,1260,362.4,1262.8,364.2,1260z"/>
	<path class="st0" d="M339.6,1255.4c1.8-2.8-2.5-5.6-4.3-2.8C333.5,1255.3,337.8,1258.1,339.6,1255.4z"/>
	<path class="st0" d="M344.3,1237c1.8-2.8-2.5-5.6-4.3-2.8C338.2,1236.9,342.6,1239.7,344.3,1237z"/>
	<path class="st0" d="M372.9,1222.7c1.8-2.8-2.5-5.6-4.3-2.8C366.8,1222.6,371.2,1225.5,372.9,1222.7z"/>
	<path class="st0" d="M375.8,1250c1.8-2.8-2.5-5.6-4.3-2.8S374,1252.9,375.8,1250z"/>
	<path class="st0" d="M363.8,1240.2c-0.1-0.4-0.2-0.8-0.3-1.2c-0.7-3.2-5.7-2.2-5,1.1c0.1,0.4,0.2,0.8,0.3,1.2
		C359.5,1244.5,364.6,1243.4,363.8,1240.2z"/>
	<path class="st0" d="M357.2,1224.9c1.8-2.8-2.5-5.6-4.3-2.8C351.1,1224.8,355.5,1227.6,357.2,1224.9z"/>
	<path class="st0" d="M391.6,1222.3c1.8-2.8-2.5-5.6-4.3-2.8C385.4,1222.3,389.8,1225.1,391.6,1222.3z"/>
	<path class="st0" d="M391,1242.3c1.8-2.8-2.5-5.6-4.3-2.8S389.1,1245.2,391,1242.3z"/>
</g>
<g>
	<path class="st0" d="M261.2,999.7c1.6-26.8-21.7-57.9-44.2-70.4c-9.3-6.6-25.7-5.8-35.8-1.3c-12.1,5.4-15.2,19.3-16.6,31.3
		c-3.3,28.5,10.6,63.1,40.4,72C229,1038.5,259.7,1027.3,261.2,999.7z M214,933.5c16.8,9.4,30.5,27.1,37.8,44.8
		c4.8,11.4,7,25.4-0.3,36.4c-4.6,7-12.2,10.1-20.1,11.7c-17.3,0-34.7-20.6-41.4-35.3c-7.3-15.9-18.3-38-10.3-55
		C188.8,928.8,204.7,926.9,214,933.5z M170.4,981.8c-1.9-10.5-1.9-22.4,1.1-32.7c-0.2,16.4,8.4,34.8,15.2,47.7
		c5.7,10.6,16.8,24.1,29.4,30.8C192.2,1025.9,174.6,1005.1,170.4,981.8z"/>
	<path class="st0" d="M194.9,933.6L194.9,933.6c-0.3,0.4-0.4,1-0.2,1.8l0,0c0.3,11.5,3.1,21.5,9.3,31.2c10.3,16,23.1,28.4,23,48.8
		c0,3.4,4.4,3.7,5.1,0.5c3-13.6,3.6-26.9-4.9-38.6c-10.5-14.7-22.1-24.8-27.6-42.9c0-0.1-0.1-0.2-0.2-0.4c-0.1-0.1,0-0.1,0-0.1
		c-0.1-0.3-0.3-0.5-0.5-0.7c0-0.1-0.1-0.2-0.3-0.3c-0.2-0.1-0.2-0.2-0.4-0.3c-1.2-0.6-2.5-0.5-3.2,0.5
		C195.1,933.4,195,933.5,194.9,933.6z M212.8,968.1c4.7,5.3,10.6,10.7,13.6,17.2c2.2,4.3,2.8,9,2.9,13.8c-4.8-13.2-14-24.2-21-36.3
		C209.8,964.6,211.2,966.4,212.8,968.1z"/>
	<path class="st0" d="M246.3,1000c-0.6,3.3,4.5,3.7,5.1,0.5c1.2-6,0.5-11.9-1.8-17.5c-1.2-3.1-5.9-0.9-4.7,2.1
		C246.9,990,247.2,994.9,246.3,1000z"/>
	<path class="st0" d="M245.5,1006.2c-0.1-0.1-0.1,0-0.2,0c-3.3-0.3-3.8,4.8-0.5,5.1c0.1,0.1,0.1,0,0.2,0
		C248.3,1011.7,248.8,1006.6,245.5,1006.2z"/>
	<path class="st0" d="M332.5,1021.6c-9.1-6.4-25.1-10.2-35.4-5.6c-24.5,8.1-53.2,34.2-56.8,60.6c-3.6,27.3,24.4,44.2,49.4,41.7
		c31-3,51.1-34.4,53.3-63.1C343.9,1043.4,343.3,1029.1,332.5,1021.6z M247.1,1093.3c-5.1-12.1-0.2-25.6,6.6-35.8
		c10.7-15.9,27.2-30.8,45.5-36.7c10.3-4.7,25.6,0,33.3,9c4.7,18.2-10.4,37.9-20.6,52.2c-9.3,13.1-30.4,30-47.4,26.7
		C257.1,1105.7,250.4,1101.1,247.1,1093.3z M279.3,1112.5c13.6-4.1,27-15.3,34.7-24.6c9.2-11.2,21-27.8,24.1-43.9
		c1,10.9-1.2,22.7-5.1,32.5C324.2,1098.5,303.2,1115.7,279.3,1112.5z"/>
	<path class="st0" d="M266.4,1096.4c8.2-30.6,43.8-38.7,52.6-69.3c0.1-0.1,0-0.2,0-0.2c0-0.2,0-0.4,0.1-0.7c0-0.1,0-0.2-0.1-0.3
		c-0.1-0.3-0.1-0.6-0.3-0.8c0,0-0.1-0.1,0-0.1c-0.6-1-1.8-1.6-2.8-1.3c-0.6,0.1-1.1,0.4-1.4,1c-9.1,13.9-24.3,23-36.8,33.7
		c-11.7,9.9-15.6,21.7-16.1,36.8C261.3,1097.9,265.6,1099.4,266.4,1096.4z M277.2,1065.5c3.8-3.8,8.3-6.7,12.2-10.3
		c5.2-4.6,10.6-8.7,15.7-13c-10.4,13.4-26,22.5-35.8,36.3C270.9,1073.8,273.2,1069.4,277.2,1065.5z"/>
	<path class="st0" d="M292.1,1087.5c-4.6,5.6-11.2,8.8-17.9,11.4c-3.1,1.2-0.9,5.9,2.1,4.7c7.5-3,14.8-6.7,19.9-13.1
		C298.5,1087.9,294.2,1084.9,292.1,1087.5z"/>
	<path class="st0" d="M299.4,1080.2c-3.3-0.3-3.8,4.8-0.5,5.1C302.2,1085.7,302.7,1080.5,299.4,1080.2z"/>
	<path class="st0" d="M191,1078.1c-3.3-0.3-3.8,4.8-0.5,5.1C193.8,1083.4,194.4,1078.4,191,1078.1z"/>
	<path class="st0" d="M192.2,1056.9c0-0.2,0-0.4,0-0.4c0.3-3.3-4.8-3.8-5.1-0.5c0,0.2,0,0.4,0,0.4
		C186.9,1059.7,191.9,1060.3,192.2,1056.9z"/>
	<path class="st0" d="M219.8,1050.3c-3.3-0.3-3.8,4.8-0.5,5.1C222.6,1055.8,223.1,1050.7,219.8,1050.3z"/>
	<path class="st0" d="M210.1,1074.8c0,0.2,0,0.4,0,0.4c-0.3,3.3,4.8,3.8,5.1,0.5c0-0.2,0-0.4,0-0.4
		C215.6,1072,210.5,1071.5,210.1,1074.8z"/>
	<path class="st0" d="M202,1062.4c-3.3-0.3-3.8,4.8-0.5,5.1C204.9,1067.8,205.3,1062.7,202,1062.4z"/>
	<path class="st0" d="M208.8,1040.6c-0.2,0-0.4,0-0.4,0c-3.3-0.3-3.8,4.8-0.5,5.1c0.2,0,0.4,0,0.4,0
		C211.7,1046.1,212.1,1041,208.8,1040.6z"/>
	<path class="st0" d="M229,1058.3c-3.3-0.3-3.8,4.8-0.5,5.1C231.9,1063.8,232.4,1058.6,229,1058.3z"/>
	<path class="st0" d="M225.5,1085.1c-3.3-0.3-3.8,4.8-0.5,5.1C228.3,1090.6,228.8,1085.4,225.5,1085.1z"/>
	<path class="st0" d="M290.6,994.5c3.3,0.3,3.8-4.8,0.5-5.1S287.2,994.2,290.6,994.5z"/>
	<path class="st0" d="M283.3,970.6c3.3,0.3,3.8-4.8,0.5-5.1C280.6,965.1,280.1,970.2,283.3,970.6z"/>
	<path class="st0" d="M301.8,966.3c3.3,0.3,3.8-4.8,0.5-5.1C299.1,960.8,298.6,966,301.8,966.3z"/>
	<path class="st0" d="M327.7,985.2c3.3,0.3,3.8-4.8,0.5-5.1C324.9,979.7,324.4,984.9,327.7,985.2z"/>
	<path class="st0" d="M304.7,1000.2c3.3,0.3,3.8-4.8,0.5-5.1C301.8,994.8,301.3,999.9,304.7,1000.2z"/>
	<path class="st0" d="M308,985c0.3-0.3,0.7-0.5,1-0.8c2.5-2.1-0.7-6.1-3.3-3.9c-0.3,0.3-0.7,0.5-1,0.8
		C302.2,983.2,305.4,987.2,308,985z"/>
	<path class="st0" d="M318.5,972.2c3.3,0.3,3.8-4.8,0.5-5.1C315.8,966.7,315.3,971.8,318.5,972.2z"/>
	<path class="st0" d="M336.6,1001.5c3.3,0.3,3.8-4.8,0.5-5.1S333.2,1001.2,336.6,1001.5z"/>
	<path class="st0" d="M318.5,1010.2c3.3,0.3,3.8-4.8,0.5-5.1C315.6,1004.8,315.1,1009.8,318.5,1010.2z"/>
</g>
<g>
	<path class="st0" d="M480.2,467.8c-26.8-0.9-57.3,23.1-69.3,45.9c-6.4,9.5-5.2,25.8-0.4,35.8c5.7,12,19.6,14.8,31.7,15.9
		c28.6,2.7,62.8-12.1,71.1-42.1C519.8,499.2,507.9,468.7,480.2,467.8z M415.2,516.6c9-17,26.4-31.1,43.9-38.8
		c11.3-5.1,25.3-7.6,36.4-0.6c7.1,4.4,10.4,11.9,12.1,19.8c0.4,17.3-19.8,35.2-34.3,42.3c-15.8,7.7-37.5,19.2-54.8,11.6
		C411,541.9,408.8,526.1,415.2,516.6z M464.5,559.1c-10.4,2.1-22.3,2.4-32.7-0.4c16.4-0.2,34.6-9.2,47.3-16.3
		c10.4-5.9,23.7-17.4,30.1-30.1C508.1,536.2,487.7,554.3,464.5,559.1z"/>
	<path class="st0" d="M415.7,535.7L415.7,535.7c0.4,0.3,1,0.4,1.8,0.1l0,0c11.5-0.6,21.4-3.6,31-10.1c15.8-10.7,27.8-23.8,48.2-24.2
		c3.4-0.1,3.6-4.5,0.4-5.1c-13.6-2.7-27-3-38.5,5.8c-14.4,10.9-24.2,22.6-42.3,28.6c-0.1,0-0.2,0.1-0.4,0.2c-0.1,0.1-0.1,0-0.1,0
		c-0.3,0.2-0.5,0.3-0.7,0.5c-0.1,0-0.2,0.1-0.3,0.3c-0.1,0.2-0.2,0.2-0.3,0.4c-0.6,1.2-0.4,2.5,0.5,3.2
		C415.5,535.4,415.6,535.6,415.7,535.7z M449.8,517c5.2-4.8,10.4-10.8,16.8-14c4.2-2.3,8.9-3,13.7-3.2
		c-13.1,5.1-23.9,14.6-35.8,21.8C446.3,520.1,448.1,518.6,449.8,517z"/>
	<path class="st0" d="M480.9,482.7c3.3,0.5,3.6-4.6,0.4-5.1c-6-1.1-12-0.2-17.5,2.3c-3.1,1.3-0.7,6,2.2,4.7
		C470.8,482.4,475.8,481.9,480.9,482.7z"/>
	<path class="st0" d="M487.1,483.4c-0.1,0.1,0,0.1,0,0.2c-0.2,3.3,4.9,3.7,5.1,0.4c0.1-0.1,0-0.1,0-0.2
		C492.5,480.4,487.4,480.1,487.1,483.4z"/>
	<path class="st0" d="M500.4,396.1c-6.2,9.2-9.6,25.3-4.8,35.5c8.6,24.3,35.4,52.4,62,55.4c27.4,3,43.6-25.4,40.6-50.4
		c-3.8-30.9-35.6-50.3-64.3-51.8C521.9,384.1,507.7,385,500.4,396.1z M574.2,479.7c-12,5.4-25.6,0.8-36-5.7
		c-16.1-10.3-31.4-26.5-37.8-44.6c-4.9-10.2-0.6-25.5,8.2-33.5c18.1-5.1,38.2,9.5,52.6,19.4c13.3,9,30.7,29.7,27.8,46.8
		C586.2,469.5,581.9,476.3,574.2,479.7z M592.6,447.1c-4.5-13.5-15.9-26.6-25.4-34.1c-11.4-8.9-28.3-20.4-44.5-23
		c10.8-1.3,22.7,0.7,32.6,4.3C577.5,402.6,595.2,423.2,592.6,447.1z"/>
	<path class="st0" d="M576.7,460.4c-30.8-7.4-39.7-42.9-70.5-50.9c-0.1-0.1-0.2,0-0.2,0c-0.2,0-0.4,0-0.7,0c-0.1,0-0.2,0-0.3,0.1
		c-0.3,0.1-0.5,0.1-0.8,0.3c0,0-0.1,0.1-0.1,0c-0.9,0.6-1.6,1.9-1.2,2.9c0.1,0.5,0.4,1.1,1,1.4c14.1,8.8,23.6,23.8,34.6,36
		c10.2,11.5,22.1,15.1,37.2,15.3C578.4,465.4,579.8,461.1,576.7,460.4z M545.6,450.3c-3.9-3.7-6.9-8.1-10.6-11.9
		c-4.8-5.1-9-10.4-13.3-15.4c13.7,10.1,23.1,25.4,37.1,35C554.1,456.5,549.6,454.2,545.6,450.3z"/>
	<path class="st0" d="M567.3,434.9c5.7,4.4,9.1,11,11.8,17.6c1.3,3.1,6,0.7,4.7-2.2c-3.2-7.4-7.1-14.6-13.5-19.6
		C567.5,428.5,564.6,432.8,567.3,434.9z"/>
	<path class="st0" d="M559.8,427.8c-0.2,3.3,4.9,3.7,5.1,0.4C565.2,424.8,560.1,424.5,559.8,427.8z"/>
	<path class="st0" d="M560.2,536.2c-0.2,3.3,4.9,3.7,5.1,0.4C565.5,533.3,560.4,532.8,560.2,536.2z"/>
	<path class="st0" d="M539.1,535.4c-0.2,0-0.4,0-0.4,0c-3.3-0.2-3.7,4.9-0.4,5.1c0.2,0,0.4,0,0.4,0
		C542,540.7,542.4,535.7,539.1,535.4z"/>
	<path class="st0" d="M531.8,508.1c-0.2,3.3,4.9,3.7,5.1,0.4C537.2,505.1,532.1,504.7,531.8,508.1z"/>
	<path class="st0" d="M556.5,517.2c0.2,0,0.4,0,0.4,0c3.3,0.2,3.7-4.9,0.4-5.1c-0.2,0-0.4,0-0.4,0
		C553.6,511.7,553.2,516.9,556.5,517.2z"/>
	<path class="st0" d="M544.3,525.5c-0.2,3.3,4.9,3.7,5.1,0.4C549.7,522.5,544.5,522.3,544.3,525.5z"/>
	<path class="st0" d="M522.4,519.2c0,0.2,0,0.4,0,0.4c-0.2,3.3,4.9,3.7,5.1,0.4c0-0.2,0-0.4,0-0.4
		C527.8,516.3,522.7,515.9,522.4,519.2z"/>
	<path class="st0" d="M539.6,498.6c-0.2,3.3,4.9,3.7,5.1,0.4C545,495.6,539.8,495.3,539.6,498.6z"/>
	<path class="st0" d="M566.4,501.5c-0.2,3.3,4.9,3.7,5.1,0.4C571.9,498.6,566.7,498.2,566.4,501.5z"/>
	<path class="st0" d="M474.3,438.6c0.2-3.3-4.9-3.7-5.1-0.4C469,441.6,474.1,442,474.3,438.6z"/>
	<path class="st0" d="M450.6,446.4c0.2-3.3-4.9-3.7-5.1-0.4C445.2,449.3,450.3,449.7,450.6,446.4z"/>
	<path class="st0" d="M445.9,428c0.2-3.3-4.9-3.7-5.1-0.4C440.5,430.9,445.6,431.2,445.9,428z"/>
	<path class="st0" d="M464.1,401.7c0.2-3.3-4.9-3.7-5.1-0.4C458.7,404.6,463.9,405,464.1,401.7z"/>
	<path class="st0" d="M479.7,424.4c0.2-3.3-4.9-3.7-5.1-0.4C474.3,427.4,479.5,427.7,479.7,424.4z"/>
	<path class="st0" d="M464.5,421.4c-0.3-0.3-0.5-0.7-0.8-1c-2.2-2.4-6.1,0.8-3.9,3.4c0.3,0.3,0.5,0.7,0.8,1
		C462.8,427.3,466.7,423.9,464.5,421.4z"/>
	<path class="st0" d="M451.4,411.2c0.2-3.3-4.9-3.7-5.1-0.4C446,414,451.1,414.4,451.4,411.2z"/>
	<path class="st0" d="M480.3,392.4c0.2-3.3-4.9-3.7-5.1-0.4C474.9,395.4,480,395.8,480.3,392.4z"/>
	<path class="st0" d="M489.4,410.3c0.2-3.3-4.9-3.7-5.1-0.4C484,413.3,489.1,413.8,489.4,410.3z"/>
</g>
<g>
	<path class="st0" d="M197.3,157.4c-26.6,3.4-52.9,32-61.1,56.4c-4.8,10.4-1,26.3,5.3,35.4c7.6,10.9,21.7,11.5,33.9,10.6
		c28.7-1.9,60.1-22,63.4-52.9C241.4,181.9,224.8,153.8,197.3,157.4z M140.9,215.9c6.1-18.2,21.1-34.9,37.1-45.4
		c10.4-6.8,23.7-11.6,35.9-6.4c7.8,3.2,12.2,10.1,15.2,17.6c3.2,17-13.9,37.9-27.1,47.2c-14.3,10.1-34,25-52.2,20.3
		C140.8,241.5,136.2,226.3,140.9,215.9z M196.4,249.9c-9.9,3.8-21.6,6-32.4,4.9c16.1-2.8,32.6-14.7,44.1-23.7
		c9.4-7.5,20.6-21,24.9-34.5C235.8,220.4,218.5,241.5,196.4,249.9z"/>
	<path class="st0" d="M144.5,234.7L144.5,234.7c0.5,0.2,1.1,0.2,1.8-0.2l0,0c11.2-2.4,20.5-7,29-14.9c13.9-13.1,23.6-27.9,43.7-31.6
		c3.4-0.6,2.8-5-0.5-5.1c-13.9-0.5-27.1,1.4-37,11.9c-12.5,13.1-20.3,26.2-37.1,35c-0.1,0.1-0.2,0.2-0.3,0.3c0,0.1-0.1,0.1-0.1,0.1
		c-0.3,0.2-0.5,0.4-0.6,0.6c-0.1,0.1-0.2,0.2-0.2,0.3c-0.1,0.2-0.2,0.2-0.2,0.5c-0.4,1.2,0,2.6,1.1,3.1
		C144.2,234.5,144.4,234.7,144.5,234.7z M175.1,210.8c4.3-5.6,8.6-12.3,14.4-16.5c3.8-2.9,8.4-4.4,13-5.3
		c-12.1,7.1-21.3,18.2-31.9,27.3C172.2,214.4,173.8,212.6,175.1,210.8z"/>
	<path class="st0" d="M200.3,172c3.3,0,2.8-5.1-0.5-5.1c-6.1-0.1-11.8,1.7-16.9,5c-2.8,1.8,0.2,6,3,4.3
		C190.4,173.3,195.2,172,200.3,172z"/>
	<path class="st0" d="M206.6,171.6c0,0.1,0.1,0.1,0,0.2c0.3,3.3,5.4,2.9,5.1-0.5c0-0.1-0.1-0.1,0-0.2
		C211.5,167.8,206.4,168.3,206.6,171.6z"/>
	<path class="st0" d="M205.7,83.3c-4.7,10.1-5.4,26.6,1,35.8c12.4,22.6,43.4,46,70,44.7c27.5-1.4,39-32.1,32-56.2
		c-8.7-29.9-43.2-44-71.8-40.8C225.1,68.1,211.2,71.3,205.7,83.3z M291.9,154.1c-11,7.2-25.1,4.9-36.4,0.1
		c-17.5-7.6-35.2-21.1-44.4-38c-6.5-9.3-4.7-25.1,2.7-34.3c17-8,39.2,3.2,55.1,10.7c14.5,6.7,35.1,24.4,35,41.7
		C302.2,142,299,149.4,291.9,154.1z M304.9,118.9c-6.6-12.6-19.9-23.7-30.6-29.6c-12.7-7-31.2-15.6-47.6-15.6
		c10.5-3,22.5-2.9,32.9-0.9C282.8,77.3,303.6,94.9,304.9,118.9z"/>
	<path class="st0" d="M291.4,134.5c-31.6-2.4-46.1-36-77.8-38.9c-0.1,0-0.2,0-0.2,0c-0.2,0-0.4,0-0.7,0.1c-0.1,0.1-0.2,0-0.3,0.1
		c-0.3,0.1-0.5,0.2-0.7,0.5c0,0,0,0.1-0.1,0.1c-0.8,0.8-1.2,2.1-0.8,3c0.2,0.5,0.6,1,1.2,1.2c15.3,6.4,27.1,19.7,39.9,30
		c11.9,9.7,24.2,11.4,39.2,9.1C293.8,139.2,294.5,134.8,291.4,134.5z M259.1,129.6c-4.4-3-8.1-6.9-12.4-10.1
		c-5.5-4.3-10.5-8.8-15.6-13.1c15.1,7.8,26.9,21.4,42.2,28.5C268.4,134.3,263.6,132.8,259.1,129.6z"/>
	<path class="st0" d="M277.9,110.9c6.4,3.4,10.7,9.4,14.5,15.5c1.8,2.8,6-0.2,4.3-3c-4.3-6.8-9.3-13.3-16.5-17.1
		C277.2,104.6,275,109.3,277.9,110.9z"/>
	<path class="st0" d="M269.5,105.1c0.3,3.3,5.4,2.9,5.1-0.5C274.3,101.3,269.2,101.7,269.5,105.1z"/>
	<path class="st0" d="M287.2,212c0.3,3.3,5.4,2.9,5.1-0.5C292,208.3,286.9,208.7,287.2,212z"/>
	<path class="st0" d="M266.2,214.7c-0.2,0-0.4,0.1-0.4,0c-3.3,0.3-2.9,5.4,0.5,5.1c0.2,0,0.4-0.1,0.4,0
		C269.9,219.4,269.6,214.4,266.2,214.7z"/>
	<path class="st0" d="M254.7,188.8c0.3,3.3,5.4,2.9,5.1-0.5C259.5,185,254.4,185.5,254.7,188.8z"/>
	<path class="st0" d="M280.5,193.8c0.2,0,0.4-0.1,0.4,0c3.3-0.3,2.9-5.4-0.5-5.1c-0.2,0-0.4,0.1-0.4,0
		C276.8,188.9,277.2,194.1,280.5,193.8z"/>
	<path class="st0" d="M269.8,204c0.3,3.3,5.4,2.9,5.1-0.5C274.6,200.2,269.5,200.8,269.8,204z"/>
	<path class="st0" d="M247.2,201.3c0,0.2,0.1,0.4,0,0.4c0.3,3.3,5.4,2.9,5.1-0.5c0-0.2-0.1-0.4,0-0.4
		C252.1,197.6,246.9,198,247.2,201.3z"/>
	<path class="st0" d="M260.9,178.2c0.3,3.3,5.4,2.9,5.1-0.5C265.7,174.4,260.5,174.9,260.9,178.2z"/>
	<path class="st0" d="M287.8,176.8c0.3,3.3,5.4,2.9,5.1-0.5C292.7,173,287.5,173.5,287.8,176.8z"/>
	<path class="st0" d="M186.8,129.5c-0.3-3.3-5.4-2.9-5.1,0.5C182,133.3,187.1,132.8,186.8,129.5z"/>
	<path class="st0" d="M164.6,141c-0.3-3.3-5.4-2.9-5.1,0.5C159.7,144.7,164.9,144.2,164.6,141z"/>
	<path class="st0" d="M157,123.6c-0.3-3.3-5.4-2.9-5.1,0.5C152.1,127.3,157.3,126.8,157,123.6z"/>
	<path class="st0" d="M170.8,94.7c-0.3-3.3-5.4-2.9-5.1,0.5C165.9,98.4,171.2,98,170.8,94.7z"/>
	<path class="st0" d="M189.8,114.6c-0.3-3.3-5.4-2.9-5.1,0.5C185,118.4,190.1,117.9,189.8,114.6z"/>
	<path class="st0" d="M174.3,114.1c-0.3-0.2-0.6-0.6-1-0.8c-2.5-2.1-5.9,1.8-3.3,4c0.3,0.2,0.6,0.6,1,0.8
		C173.6,120.2,176.9,116.2,174.3,114.1z"/>
	<path class="st0" d="M159.7,106.1c-0.3-3.3-5.4-2.9-5.1,0.5C154.9,109.8,160,109.3,159.7,106.1z"/>
	<path class="st0" d="M185.3,83c-0.3-3.3-5.4-2.9-5.1,0.5C180.4,86.8,185.6,86.3,185.3,83z"/>
	<path class="st0" d="M197.1,99.2c-0.3-3.3-5.4-2.9-5.1,0.5C192.3,103,197.4,102.6,197.1,99.2z"/>
</g>
<g>
	<path class="st0" d="M572.6,895.5c1.5-13.1,2.9-26.3,3.5-39.5c0.5-12.7,2-28.9-4.8-40.3c-8.7-14.6-26.2-15.4-40.9-11.1
		c-0.9-0.4-1.8-0.8-2.6-1.1c7-6.1,18.9-14.1,7.1-21.4c-5.9-3.6-14.3-5.4-20.7-7.9c-9.9-3.7-19.9-7.2-29.9-10.9
		c-22.8-8.3-45.4-17.1-68.1-25.5c-4.1-1.5-11.5-5-14.2,0.9c-2.6,5.8,5.1,13.7,8.2,20c-1.8-0.4-3.5-0.8-5.1-0.8
		c-1.3-0.1-2.4,0.7-2.9,1.9c-3.3,8.2-7.3,16.6-9.3,25.1c-0.3,1.3-0.1,2.5,1,3.3c0.9,0.7,2,1.3,3.1,1.8c-16.7,16-31.4,33.8-45.6,52
		c-8.2,10.5-24.9,29.4-14.6,43.7c8.3,11.6,28.4,17.4,41,22.2c16.4,6.3,33.4,11.1,49.8,17.4c15.3,5.8,30.4,12.4,45.9,17.7
		c7.9,2.7,19.2,6.7,27.5,3.4c13.8-5.5,12.8-29.9,13.8-41.2c2-24.3,1.8-48.6,1.5-72.9c1.7,0.4,3.5,0.8,5.1,1c0.3,0.1,0.7,0.2,1,0.1
		c0.2,0,0.3,0,0.5,0c9.8-2.5,21.2-4.6,23.6,6.9c1.2,5.3,1.5,10.9,1.9,16.3c1.1,13.9,1.4,27.8,1.6,41.8c0.1,4.8-2,16.8,0.5,21.4
		c2.8,5.1,13.8,4.2,17.4,0.1C572.5,914.6,571.9,901.7,572.6,895.5z M423.6,746.8c4.3,1.6,8.6,3.2,13,4.9c14,5.3,28,10.5,42,15.7
		c12.4,4.6,24.9,9,37.3,13.7c3.6,1.4,12.8,3,15.4,5.8c4.2,4.7-6,10.9-9.4,14.3c-55.6-14.2-36-12.3-53.6-19.5
		c-12.1-5.1-24.4-9.7-36.6-14.4c-4.3-1.6-9.6-4.3-14.8-6.3c-0.7-4.2-4.4-7.7-4.9-11.4C410.7,739,419.2,745.1,423.6,746.8z
		 M510.2,884.5c-0.5,14.2,2.5,54.1-16.1,57c-8.9,1.4-19.3-3.9-27.3-6.9c-11.6-4.4-23.1-9.1-34.6-13.6c-25-9.7-51.3-16.1-75.3-28.3
		c-12.5-6.4-21-16.4-12.6-31.1c4.5-8,10.7-15,16.4-22.2c13-16.3,26.3-32.2,41.5-46.5c0.2-0.2,0.3-0.3,0.4-0.5
		c4.6,1.6,9.6,2.8,13.5,4.2c13.8,4.9,27.6,9.9,41.2,15.2c12.8,4.9,25.8,9.5,38.8,13.8c4.6,1.5,9.6,3.5,14.6,5.2
		C510.7,848.7,510.9,866.6,510.2,884.5z M480.4,814.2c-14.7-5.1-29.2-10.9-43.8-16.3c-12.6-4.6-25.2-9.1-37.8-13.7l0,0
		c0.8-2.3,1.6-4.7,2.5-7c1.2-3.2,2.5-9.7,4.6-13.4c0.5,0.1,1.3,0.2,2.3,0.8c1.6,1,4,1.4,5.8,2c6.2,2.3,12.4,4.6,18.6,7
		c11.3,4.3,22.6,8.6,33.7,13.3c15.8,6.5,32.3,11.2,48.3,17.3c2.1,0.8,9.9,2.4,11.3,4.5c0.9,1.4-0.4,4.9-1.5,8.2
		c-0.9,2.7-1.6,5.9-2.9,8.5c-0.4,0.8-0.4,1.3-0.4,1.7c-0.3-0.1-0.8-0.2-1.4-0.2C507.5,826.4,491.8,818.2,480.4,814.2z M556.1,917.6
		c-1.2-1.3-0.2-7.7-0.2-9.5c-0.4-20-0.3-40.2-2.6-60.2c-0.6-5.2-0.7-12.8-4-17.2c-4.8-6.7-14-5.9-21.7-4.2
		c2.1-5.3,3.4-11.3,4.9-16.5c13.1-3.6,29.3-2.6,35.3,11.8c3.6,8.7,2.9,19.1,2.7,28.3c-0.2,9.3-1,18.5-1.9,27.7
		c-1,10.5-0.8,22.8-3.8,32.9C563.9,913.6,560,922,556.1,917.6z"/>
	<path class="st0" d="M458.1,850.5c-10.2-0.8-20.6-0.2-30.7-2c-16.7-3-27.6-13.7-38.6-25.9c-1-1.1-2.3-1.2-3.3-0.7
		c-0.2,0.1-0.4,0.2-0.6,0.3c-0.1,0.1-0.2,0.1-0.2,0.2c-0.1,0.1-0.3,0.2-0.4,0.3c-12.5,13.8-47.3,45.4-21.7,61.8
		c16.4,10.5,38.1,14.2,56.2,20.5c19.9,6.9,40.9,19.4,61.9,22.3c10.8,1.5,16.6-3,19.1-13.5c2.7-11.9,5.1-33.2-1.4-44.4
		C490.3,855.6,472.8,851.6,458.1,850.5z"/>
</g>
</svg>
