<?xml version="1.0" encoding="utf-8"?>
<!-- Generator: Adobe Illustrator 23.1.0, SVG Export Plug-In . SVG Version: 6.00 Build 0)  -->
<svg version="1.1" id="Слой_1" xmlns="http://www.w3.org/2000/svg" xmlns:xlink="http://www.w3.org/1999/xlink" x="0px" y="0px"
	 viewBox="0 0 1456.1999512 1662.6773682" enable-background="new 0 0 1456.1999512 1662.6773682" xml:space="preserve">
<g>
	<g>
		<path fill="none" stroke="#333333" stroke-width="11" stroke-linecap="round" stroke-linejoin="round" stroke-miterlimit="10" d="
			M1061.6931152,109.707962c30.911499-9.3229675,64.828125-3.9720993,94.4691162,8.8302307
			c29.6408691,12.8014221,55.6693115,32.5922241,80.730957,52.9486389
			c16.9083252,13.7337646,33.8631592,28.2048492,44.8734131,47.0004425
			c11.0111084,18.7954865,15.1855469,42.9555969,5.4489746,62.4422913
			c-8.3765869,16.7637939-25.8254395,28.201355-31.9449463,45.9130554
			c-5.697876,16.4899597-0.3067627,34.5982971-1.3955078,52.0102234
			c-2.4748535,39.6262207-40.3520508,70.7596436-79.8134766,75.1408386
			c-39.4604492,4.3811035-78.6102295-12.9989319-110.0256348-37.2776794
			c-31.4144287-24.2797546-56.8405151-55.2775574-84.5814819-83.6812744
			c-13.9259033-14.2584534-28.6414185-28.1063232-38.9714966-45.1506042
			c-10.3289795-17.0434875-15.8609009-38.1965942-9.6391602-57.1305542
			c10.7786865-32.8020782,45.9623413-32.5111389,64.8382568-56.1492767
			C1017.3696289,147.446228,1024.137085,121.03302,1061.6931152,109.707962z"/>
		<g>
			
				<path fill="none" stroke="#333333" stroke-width="11" stroke-linecap="round" stroke-linejoin="round" stroke-miterlimit="10" d="
				M1174.0625,453.9926758c33.9725342-3.7702637,66.7102051-27.3947144,76.755249-59.1714783
				c-15.1231689,15.5942078-36.3424072,26.1526794-58.0773926,28.5661011
				c-39.4605713,4.3811035-78.6103516-12.9989319-110.0257568-37.278595
				c-31.4143066-24.2788696-56.8404541-55.2766418-84.5814209-83.6803589
				c-13.9249878-14.2585754-28.6415405-28.1072388-38.9714355-45.1506042
				c-9.0443115-14.9227753-14.4083252-32.9956055-11.427002-49.9712067
				c-7.2713013,5.6306915-13.3832397,12.7736053-16.8899536,23.4469299
				c-6.2226563,18.9340668-0.6907349,40.0871735,9.6382446,57.130661
				c10.3291626,17.0444031,25.0457153,30.8930664,38.9713745,45.1496887
				c27.7410889,28.4046326,53.1671753,59.4024353,84.581604,83.6821899
				C1095.451416,440.994751,1134.6011963,458.3747864,1174.0625,453.9926758z"/>
		</g>
		<path fill="none" stroke="#333333" stroke-width="11" stroke-linecap="round" stroke-linejoin="round" stroke-miterlimit="10" d="
			M1199.0806885,286.4666748c1.8352051-6.1773376-4.5567627-13.1499634-10.8699951-11.8583984
			c-6.3131104,1.29245-9.451416,10.2163696-5.3366699,15.1758118c4.1138916,4.9595642,13.4639893,3.5226135,15.8991699-2.4430542"/>
		<path fill="none" stroke="#333333" stroke-width="11" stroke-linecap="round" stroke-linejoin="round" stroke-miterlimit="10" d="
			M1059.4135742,283.2419128c1.8352051-6.1773071-4.5568848-13.1508484-10.8699951-11.8583984
			c-6.3140869,1.2916565-9.4523926,10.2156067-5.3376465,15.1750488c4.1147461,4.9594116,13.4648438,3.5224915,15.9000244-2.4431763
			"/>
		<path fill="none" stroke="#333333" stroke-width="11" stroke-linecap="round" stroke-linejoin="round" stroke-miterlimit="10" d="
			M1106.5820313,177.5019073c3.2647705-10.9874878-8.1051025-23.3913422-19.3353271-21.0926208
			c-11.2293701,2.2977142-16.8123779,18.171402-9.4931641,26.9935303c7.3190918,8.8212128,23.949707,6.2661133,28.2817383-4.3470154
			"/>
		<path fill="none" stroke="#333333" stroke-width="11" stroke-linecap="round" stroke-linejoin="round" stroke-miterlimit="10" d="
			M1196.3734131,375.259613c3.2647705-10.9874573-8.1051025-23.3913269-19.3354492-21.0935059
			c-11.2293701,2.2986145-16.8122559,18.1723022-9.493042,26.9944153c7.3182373,8.8213501,23.949707,6.2661438,28.2817383-4.3470154
			"/>
		<path fill="none" stroke="#333333" stroke-width="11" stroke-linecap="round" stroke-linejoin="round" stroke-miterlimit="10" d="
			M1257.9835205,251.2326965c1.4985352,8.899292,1.1162109,18.0944214-1.557251,26.7358398"/>
		<path fill="none" stroke="#333333" stroke-width="11" stroke-linecap="round" stroke-linejoin="round" stroke-miterlimit="10" d="
			M1235.1040039,205.1498871c6.7562256,8.4773254,12.590332,17.7046661,17.1572266,27.5418854"/>
		<path fill="none" stroke="#333333" stroke-width="11" stroke-linecap="round" stroke-linejoin="round" stroke-miterlimit="10" d="
			M1082.5223389,125.6745758c53.59729,7.2747345,101.6844482,27.1988068,140.291626,65.7402496"/>
	</g>
	<path fill="none" stroke="#333333" stroke-width="11" stroke-linecap="round" stroke-linejoin="round" stroke-miterlimit="10" d="
		M1185.2426758,423.4171448c150.7138672-39.164093,7.3096924,16.31427,9.9488525,24.8457947"/>
	<path fill="none" stroke="#333333" stroke-width="11" stroke-linecap="round" stroke-linejoin="round" stroke-miterlimit="10" d="
		M1153.1350098,420.1764221c4.2277832,11.8528748,9.1464844,23.4585266,14.723999,34.7388306"/>
	<path fill="none" stroke="#333333" stroke-width="11" stroke-linecap="round" stroke-linejoin="round" stroke-miterlimit="10" d="
		M1119.8730469,409.4633789c5.9158936,13.4948425,11.8310547,26.9906921,17.7459717,40.4856567"/>
	<path fill="none" stroke="#333333" stroke-width="11" stroke-linecap="round" stroke-linejoin="round" stroke-miterlimit="10" d="
		M1090.1159668,397.1651611c3.5415039,15.0742188,9.2532959,29.6356812,16.9057617,43.0972595"/>
	<path fill="none" stroke="#333333" stroke-width="11" stroke-linecap="round" stroke-linejoin="round" stroke-miterlimit="10" d="
		M1061.7363281,369.5593872c2.3743896,17.1165161,5.9279785,34.0696716,10.6264648,50.6987305"/>
	<path fill="none" stroke="#333333" stroke-width="11" stroke-linecap="round" stroke-linejoin="round" stroke-miterlimit="10" d="
		M1033.5743408,340.1113586c0.7429199,16.5594788,2.2832031,33.0830078,4.6157227,49.493866"/>
	<path fill="none" stroke="#333333" stroke-width="11" stroke-linecap="round" stroke-linejoin="round" stroke-miterlimit="10" d="
		M1010.5516968,312.8626404c0.2600098,15.8997498,0.519043,31.7996521,0.7790527,47.6994324"/>
	<path fill="none" stroke="#333333" stroke-width="11" stroke-linecap="round" stroke-linejoin="round" stroke-miterlimit="10" d="
		M987.6272583,291.2131348c-1.0061646,15.1924744-2.0114136,30.3848267-3.0175781,45.5772705"/>
	<path fill="none" stroke="#333333" stroke-width="11" stroke-linecap="round" stroke-linejoin="round" stroke-miterlimit="10" d="
		M964.1450195,268.7902527c-1.0112915,15.1010132-2.022583,30.2020264-3.0339355,45.3030701"/>
	<path fill="none" stroke="#333333" stroke-width="11" stroke-linecap="round" stroke-linejoin="round" stroke-miterlimit="10" d="
		M949.2207642,240.6178741c-3.1213379,15.3020935-5.1356812,30.830307-6.022583,46.4221039"/>
</g>
<g>
	<path fill="none" stroke="#333333" stroke-width="13" stroke-linecap="round" stroke-linejoin="round" stroke-miterlimit="10" d="
		M385.0771484,790.2724609L159.7066803,490.7285767c-11.603653-15.4224854,0.4669952-37.313446,19.7023773-35.7322693
		l387.3463135,31.8491516c20.3740845,1.6750793,31.8660889,24.203064,21.2606812,41.680481L430.5713501,788.0043335
		C420.4777832,804.6391602,396.7755432,805.8209839,385.0771484,790.2724609z"/>
	<path fill="#222221" stroke="#333333" stroke-miterlimit="10" d="M385.9975891,738.8563232
		c-0.7131958-2.4602051,0.7148438-5.0497437,3.1902466-5.7849121c2.4753723-0.734375,5.0598755,0.6640625,5.7722168,3.1234131
		c0.7131653,2.460144-0.7148743,5.0497437-3.1902466,5.7849121
		C389.2944336,742.7140503,386.7098999,741.3156128,385.9975891,738.8563232z"/>
	<path fill="#222221" stroke="#333333" stroke-miterlimit="10" d="M423.289032,726.1773682
		c-0.7123413-2.4592896,0.7156982-5.0497437,3.1911011-5.7840576c2.4745178-0.7351685,5.059021,0.663269,5.7722168,3.1234131
		c0.7131653,2.4592896-0.7157288,5.0497437-3.1902466,5.7840576
		C426.5867004,730.0359497,424.0021973,728.6375122,423.289032,726.1773682z"/>
	<path fill="#222221" stroke="#333333" stroke-miterlimit="10" d="M401.6349487,719.6589966
		c1.8256531-1.7960815,4.7832642-1.7706909,6.6063843,0.0574951c1.8230896,1.828186,1.8214111,4.7663574-0.0042419,6.5632324
		c-1.8247986,1.796936-4.7824097,1.7715454-6.6055298-0.0566406
		C399.8084412,724.3948364,399.8101501,721.4558716,401.6349487,719.6589966z"/>
	<path fill="#222221" stroke="#333333" stroke-miterlimit="10" d="M177.2534637,473.3112488
		c2.1961975-1.3172302,5.0649719-0.5964355,6.4075623,1.6090698c1.3417511,2.2055054,0.64888,5.0615845-1.5473328,6.3788147
		c-2.1961975,1.3163757-5.0649567,0.5964355-6.4075623-1.6091003
		C174.3643951,477.4845276,175.057251,474.6284485,177.2534637,473.3112488z"/>
	<path fill="#222221" stroke="#333333" stroke-miterlimit="10" d="M199.8051453,483.5333862
		c2.2029724,1.3062439,2.9330597,4.1724548,1.6302338,6.4016418c-1.3019867,2.2292175-4.143692,2.9770813-6.3466644,1.6708679
		c-2.2029572-1.3062439-2.9330597-4.1724548-1.6302185-6.4016418
		C194.7604828,482.9750366,197.6021729,482.2271729,199.8051453,483.5333862z"/>
	<path fill="#222221" stroke="#333333" stroke-miterlimit="10" d="M412.4255981,749.0877686
		c-0.7131653-2.460144,0.7148743-5.0497437,3.1902466-5.7849121c2.4754028-0.734314,5.059906,0.6641235,5.7722168,3.1234131
		c0.7131958,2.460144-0.7148438,5.0497437-3.1902466,5.7849121
		C415.7224426,752.9463501,413.1379395,751.5479126,412.4255981,749.0877686z"/>
	<path fill="#222221" stroke="#333333" stroke-miterlimit="10" d="M396.9303589,767.1674805
		c-0.7131653-2.460144,0.7148743-5.0496826,3.1902466-5.7849121c2.4754028-0.734314,5.059906,0.6641235,5.7722168,3.1234131
		c0.7131958,2.4602051-0.7148438,5.0497437-3.1902161,5.7849121
		C400.2272034,771.026062,397.6427002,769.6276855,396.9303589,767.1674805z"/>
	<path fill="#222221" stroke="#333333" stroke-miterlimit="10" d="M523.6722412,528.4083252
		c-0.7123413-2.460144,0.7156982-5.0497437,3.1911011-5.7849121c2.4753418-0.734314,5.059021,0.663269,5.7722168,3.1234131
		c0.7131348,2.460144-0.7149048,5.0497437-3.1902466,5.7849121
		C526.9699097,532.2660522,524.385376,530.8676758,523.6722412,528.4083252z"/>
	<path fill="#222221" stroke="#333333" stroke-miterlimit="10" d="M560.9645386,515.7294312
		c-0.7131958-2.4592896,0.7156982-5.0497437,3.1902466-5.7840881c2.4753418-0.7351685,5.0598755,0.663269,5.7730713,3.1234436
		c0.7131348,2.4592896-0.7157593,5.0497437-3.1902466,5.7840576
		C564.262207,519.5880127,561.6776733,518.1895752,560.9645386,515.7294312z"/>
	<path fill="#222221" stroke="#333333" stroke-miterlimit="10" d="M539.3104248,509.2110291
		c1.8256836-1.796051,4.7824097-1.7706604,6.6055298,0.0575256c1.8239746,1.828186,1.8222656,4.7663574-0.0033569,6.5632324
		c-1.8248291,1.796875-4.7824097,1.7706909-6.6055298-0.0575562
		C537.4839478,513.9460449,537.4855957,511.0079346,539.3104248,509.2110291z"/>
	<path fill="#222221" stroke="#333333" stroke-miterlimit="10" d="M550.1002197,538.6398315
		c-0.7122803-2.4602051,0.7157593-5.0497437,3.1911011-5.7849121c2.4745483-0.734375,5.059082,0.6640625,5.7722168,3.1234131
		c0.7131958,2.460144-0.7148438,5.0497437-3.1902466,5.7849121
		C553.3979492,542.4975586,550.8134155,541.0991211,550.1002197,538.6398315z"/>
	<path fill="#222221" stroke="#333333" stroke-miterlimit="10" d="M534.6049805,556.7195435
		c-0.7122803-2.460144,0.7157593-5.0497437,3.1911011-5.7849121c2.4745483-0.734314,5.059082,0.6641235,5.7722168,3.1234131
		c0.7131958,2.460144-0.7148438,5.0497437-3.1902466,5.7849121
		C537.90271,560.5772705,535.3181763,559.178894,534.6049805,556.7195435z"/>
	<path fill="none" stroke="#333333" stroke-width="13" stroke-linecap="round" stroke-linejoin="round" stroke-miterlimit="10" d="
		M237.6084137,545.1691895c-5.6681671-6.5411987-11.3836975-13.0410156-17.1466217-19.4984741"/>
	<path fill="none" stroke="#333333" stroke-width="13" stroke-linecap="round" stroke-linejoin="round" stroke-miterlimit="10" d="
		M264.2733154,576.6503296c-4.8263855-5.8314209-9.6908569-11.6323853-14.5900116-17.4038086"/>
	<path fill="none" stroke="#333333" stroke-width="13" stroke-linecap="round" stroke-linejoin="round" stroke-miterlimit="10" d="
		M362.2521973,706.5452271c-27.8416748-40.5730591-57.3229065-80.0184326-88.3751526-118.1896973"/>
	<path fill="none" stroke="#333333" stroke-width="13" stroke-linecap="round" stroke-linejoin="round" stroke-miterlimit="10" d="
		M270.6986389,480.7872925c-10.4767761-1.0422668-20.954422-2.0836792-31.4312286-3.1250916"/>
	<path fill="none" stroke="#333333" stroke-width="13" stroke-linecap="round" stroke-linejoin="round" stroke-miterlimit="10" d="
		M372.8491211,490.940918c-27.5024414-2.7333984-55.0040283-5.4676514-82.5064697-8.2010498"/>
	<path fill="none" stroke="#333333" stroke-width="13" stroke-linecap="round" stroke-linejoin="round" stroke-miterlimit="10" d="
		M490.7156372,502.657959c-15.7160339-1.562561-31.4312134-3.1242676-47.1472778-4.6867981"/>
</g>
<g>
	<g>
		<path fill="none" stroke="#333333" stroke-width="10" stroke-linecap="round" stroke-linejoin="round" stroke-miterlimit="10" d="
			M891.84021,1109.668457c-3.520752-152.9361572,5.5413208-306.1602783,27.0635986-457.6158447
			c97.486084,116.1972046,196.4888916,237.5162964,293.973877,353.713501
			C1100.4892578,1003.9350586,975.2507935,1034.3223877,891.84021,1109.668457z"/>
		<path fill="none" stroke="#333333" stroke-width="10" stroke-linecap="round" stroke-linejoin="round" stroke-miterlimit="10" d="
			M1212.8776855,1005.7661133c0,0-135.8183594,98.4377441-321.0374756,103.9023438"/>
	</g>
	<g>
		<path fill="#222221" stroke="#333333" stroke-miterlimit="10" d="M1004.4487305,1007.3540039
			c0.6976318,2.5626221-0.8267822,5.2248535-3.4057617,5.9454346c-2.5790405,0.7205811-5.2368774-0.7720947-5.9344482-3.3357544
			c-0.6986694-2.562561,0.8256836-5.2247925,3.4058228-5.9453735
			C1001.0933228,1003.2977295,1003.750061,1004.7903442,1004.4487305,1007.3540039z"/>
		<path fill="#222221" stroke="#333333" stroke-miterlimit="10" d="M966.0123901,978.1057129
			c-0.833374,2.5384521-3.5678711,3.9423828-6.1063843,3.1364136c-2.5395508-0.8060303-3.9226685-3.5164185-3.0892944-6.0549316
			c0.833374-2.5384521,3.5667725-3.9423828,6.1063843-3.1364136
			C965.4626465,972.8568115,966.8457642,975.5671997,966.0123901,978.1057129z"/>
		<path fill="#222221" stroke="#333333" stroke-miterlimit="10" d="M918.1974487,999.4921875
			c0.6986694,2.5636597-0.8267822,5.2258911-3.4058228,5.9464722c-2.5789795,0.7205811-5.2368164-0.7731323-5.9343872-3.3356934
			c-0.6986694-2.5636597,0.8256836-5.2247925,3.4058228-5.9464722
			C914.842041,995.4359131,917.4987793,996.9296265,918.1974487,999.4921875z"/>
		<path fill="#222221" stroke="#333333" stroke-miterlimit="10" d="M928.0567627,1043.0526123
			c0.6987305,2.5625-0.8256836,5.2247314-3.4057617,5.9453125c-2.5790405,0.7207031-5.2357788-0.7719727-5.9344482-3.3356934
			c-0.6975708-2.5625,0.8267822-5.2247314,3.4058228-5.9453125
			C924.701355,1038.9963379,927.3591919,1040.4888916,928.0567627,1043.0526123z"/>
		<path fill="#222221" stroke="#333333" stroke-miterlimit="10" d="M1098.6878662,983.2056274
			c0.6986084,2.562561-0.8258057,5.2247925-3.4058838,5.9453735c-2.5789795,0.7205811-5.2357178-0.7720337-5.9344482-3.3356934
			c-0.6986084-2.562561,0.8269043-5.2247925,3.4058838-5.9453735
			C1095.3323975,979.1482544,1097.9891357,980.6419678,1098.6878662,983.2056274z"/>
		<path fill="#222221" stroke="#333333" stroke-miterlimit="10" d="M1044.2058105,996.8945923
			c-2.5133057,0.9297485-5.2872314-0.3394775-6.1950684-2.8341675c-0.9089355-2.4946899,0.3909912-5.2719116,2.9042969-6.2005615
			c2.5133057-0.9297485,5.2872314,0.3384399,6.1950684,2.8341675
			C1048.019043,993.1887207,1046.7191162,995.9648438,1044.2058105,996.8945923z"/>
		<path fill="#222221" stroke="#333333" stroke-miterlimit="10" d="M1060.2525635,953.9572754
			c-0.833374,2.5374146-3.5678711,3.9424438-6.1074219,3.1364136c-2.5396729-0.8059692-3.9227295-3.5164185-3.0893555-6.0548706
			s3.5678711-3.9424438,6.1074219-3.1364136S1061.0859375,951.4188232,1060.2525635,953.9572754z"/>
		<path fill="#222221" stroke="#333333" stroke-miterlimit="10" d="M961.6856079,1034.9729004
			c-0.8235474,2.5515137-3.5602417,3.9532471-6.1118774,3.1286621c-2.5526733-0.8234863-3.9533691-3.5601807-3.1298218-6.1118164
			c0.824646-2.5527344,3.5613403-3.9533691,6.112915-3.1298828
			C961.1084595,1029.6845703,962.5101929,1032.4212646,961.6856079,1034.9729004z"/>
		<path fill="#222221" stroke="#333333" stroke-miterlimit="10" d="M1012.4365234,975.343811
			c0.6986694,2.5636597-0.8257446,5.2258911-3.4058228,5.9464722c-2.5789795,0.7205811-5.2357178-0.7731323-5.9343872-3.3356934
			c-0.6987305-2.5637207,0.8267822-5.2258911,3.4057617-5.9464722
			C1009.0811157,971.2874756,1011.7389526,972.78125,1012.4365234,975.343811z"/>
		<path fill="#222221" stroke="#333333" stroke-miterlimit="10" d="M1018.0249023,945.2084351
			c0.6975708,2.5636597-0.8268433,5.2247925-3.4058228,5.9464722c-2.5800781,0.7205811-5.2368164-0.7731323-5.9344482-3.336853
			c-0.6986694-2.562561,0.8257446-5.2247925,3.4047241-5.9453735
			C1014.6694946,941.1520996,1017.3262329,942.645874,1018.0249023,945.2084351z"/>
		<path fill="#222221" stroke="#333333" stroke-miterlimit="10" d="M979.7539063,915.2647095
			c-0.4489746,2.633728-2.9458618,4.4264526-5.576355,4.0048218c-2.6304321-0.4216309-4.3990479-2.8977051-3.9500732-5.5314331
			c0.4490356-2.633728,2.9458618-4.4264526,5.576355-4.0048218
			C978.4342651,910.1538086,980.2028809,912.6309204,979.7539063,915.2647095z"/>
		<path fill="#222221" stroke="#333333" stroke-miterlimit="10" d="M1002.133667,876.6629639
			c-0.4489746,2.633728-2.9458618,4.4264526-5.5762939,4.0048218c-2.6304932-0.4216309-4.3991089-2.897644-3.9500732-5.5314331
			c0.4489746-2.633728,2.9458008-4.4264526,5.5762939-4.0048218
			C1000.8140869,871.552063,1002.5827026,874.0292358,1002.133667,876.6629639z"/>
		<path fill="#222221" stroke="#333333" stroke-miterlimit="10" d="M1012.0444946,837.2825928
			c-0.4490356,2.6337891-2.9458618,4.4264526-5.576355,4.0048828c-2.6304321-0.4216309-4.3990479-2.8977051-3.9500732-5.5314331
			c0.4489746-2.6337891,2.9458618-4.4264526,5.576355-4.0048828
			C1010.7248535,832.1716919,1012.4934692,834.6488647,1012.0444946,837.2825928z"/>
		<path fill="#222221" stroke="#333333" stroke-miterlimit="10" d="M962.2583618,800.6816406
			c-0.4490356,2.6326904-2.9458618,4.4264526-5.576355,4.0048828c-2.6304932-0.4216309-4.3990479-2.8988037-3.9500732-5.5314331
			c0.4489746-2.6337891,2.9458618-4.4275513,5.5762939-4.0059204
			C960.9387207,795.5707397,962.7073364,798.0479126,962.2583618,800.6816406z"/>
		<path fill="#222221" stroke="#333333" stroke-miterlimit="10" d="M964.5361938,848.0355225
			c-0.4490356,2.6337891-2.9458618,4.4275513-5.576355,4.0059814c-2.6304321-0.4216309-4.3990479-2.8988037-3.9500732-5.5314331
			c0.4489746-2.6337891,2.9458618-4.4275513,5.576355-4.0059204
			C963.2165527,842.9257202,964.9851685,845.4028931,964.5361938,848.0355225z"/>
		<path fill="#222221" stroke="#333333" stroke-miterlimit="10" d="M940.7250977,727.4885254
			c-0.4490356,2.6337891-2.9458618,4.4275513-5.576355,4.0059204c-2.6315308-0.4215698-4.4001465-2.8987427-3.9511719-5.5325317
			c0.4500732-2.6326294,2.9458618-4.4264526,5.576355-4.0048218
			C939.4054565,722.3787231,941.1740723,724.855896,940.7250977,727.4885254z"/>
		<path fill="#222221" stroke="#333333" stroke-miterlimit="10" d="M996.9910278,788.3660278
			c1.8572998,1.9197388,1.8266602,4.9937134-0.0690308,6.8652344c-1.8967285,1.871582-4.9389648,1.833252-6.7973633-0.0875854
			c-1.8572998-1.9197388-1.8266602-4.9926147,0.0690308-6.8652954
			C992.0903931,786.4068604,995.1326294,786.4462891,996.9910278,788.3660278z"/>
		<path fill="#222221" stroke="#333333" stroke-miterlimit="10" d="M936.0773926,771.989624
			c1.8584595,1.9197388,1.8266602,4.9926758-0.0689697,6.8652954c-1.8956299,1.871582-4.9389648,1.8321533-6.7973633-0.0875854
			c-1.8573608-1.9197388-1.8266602-4.9937744,0.0700684-6.8652954
			C931.1767578,770.0304565,934.2200928,770.0687866,936.0773926,771.989624z"/>
		<path fill="#222221" stroke="#333333" stroke-miterlimit="10" d="M943.4102783,892.9703369
			c-2.4573975,1.0480347-5.3167725-0.0810547-6.3866577-2.5209961c-1.0688477-2.440979,0.0569458-5.2685547,2.5143433-6.3154907
			c2.4574585-1.0480347,5.3167725,0.0810547,6.3856201,2.5209351
			C946.9924316,889.0958252,945.8677368,891.9223022,943.4102783,892.9703369z"/>
		<path fill="#222221" stroke="#333333" stroke-miterlimit="10" d="M930.7266846,836.9376221
			c-2.4574585,1.0480347-5.3167725-0.0809937-6.3856201-2.5220337c-1.0699463-2.4398804,0.0558472-5.2675171,2.5133057-6.3144531
			c2.4573975-1.0479736,5.3167725,0.0810547,6.3856201,2.5209961
			C934.3098755,833.0620117,933.1841431,835.8896484,930.7266846,836.9376221z"/>
		<path fill="#222221" stroke="#333333" stroke-miterlimit="10" d="M967.4294434,772.3609009
			c-2.4573975,1.0480347-5.3156738-0.0810547-6.3855591-2.5209961c-1.0688477-2.440979,0.0569458-5.2685547,2.5143433-6.3154907
			c2.4574585-1.0480347,5.3167725,0.0810547,6.3856201,2.5209351
			C971.0126953,768.4863892,969.8880005,771.3139648,967.4294434,772.3609009z"/>
		<path fill="#222221" stroke="#333333" stroke-miterlimit="10" d="M931.7736206,937.3476563
			c0.6975708,2.5626221-0.8268433,5.2248535-3.4058228,5.9454346s-5.2368164-0.7720947-5.9344482-3.3357544
			c-0.6986694-2.562561,0.8257446-5.2247925,3.4047241-5.9453735
			C928.4181519,933.2913818,931.0749512,934.7839966,931.7736206,937.3476563z"/>
		<path fill="#222221" stroke="#333333" stroke-miterlimit="10" d="M1112.263916,921.0600586
			c0.6987305,2.562561-0.8267822,5.2247925-3.4057617,5.9453735c-2.5789795,0.7216797-5.2357178-0.7720947-5.9344482-3.3357544
			c-0.6987305-2.562561,0.8267822-5.2247925,3.4057617-5.9453735
			C1108.9085693,917.0037231,1111.5653076,918.4974365,1112.263916,921.0600586z"/>
		<path fill="#222221" stroke="#333333" stroke-miterlimit="10" d="M1151.2073975,967.5367432
			c0.6986084,2.562561-0.8258057,5.2247925-3.4058838,5.9453735c-2.5789795,0.7205811-5.2357178-0.7731323-5.9344482-3.3357544
			c-0.6986084-2.5636597,0.8269043-5.2247925,3.4058838-5.9464722
			C1147.8519287,963.4793091,1150.5097656,964.9730835,1151.2073975,967.5367432z"/>
		<path fill="#222221" stroke="#333333" stroke-miterlimit="10" d="M1073.8287354,891.8117065
			c-0.833374,2.5384521-3.5678711,3.9423828-6.1075439,3.1364136c-2.5395508-0.8049316-3.9226074-3.5164185-3.0892334-6.0549316
			c0.833374-2.5373535,3.5678711-3.9423828,6.1074219-3.1364136
			C1073.2789307,886.5628052,1074.6621094,889.2731934,1073.8287354,891.8117065z"/>
		<path fill="#222221" stroke="#333333" stroke-miterlimit="10" d="M1026.1878662,914.7006836
			c-0.1248779,2.6535034-2.3950195,4.7166748-5.0714722,4.6082764c-2.675354-0.1084595-4.7440186-2.3479614-4.6192017-5.0014038
			c0.1248779-2.6534424,2.3950195-4.7166748,5.0714722-4.6082764
			C1024.2440186,909.8077393,1026.3127441,912.0472412,1026.1878662,914.7006836z"/>
		<path fill="#222221" stroke="#333333" stroke-miterlimit="10" d="M1047.5765381,858.5453491
			c-0.1247559,2.6535034-2.3961182,4.7166748-5.0714111,4.6082764c-2.675415-0.1083984-4.7440186-2.3479614-4.6192627-5.0014038
			c0.1248779-2.6534424,2.3950195-4.7166748,5.0715332-4.6082153
			C1045.6328125,853.6524048,1047.701416,855.8919067,1047.5765381,858.5453491z"/>
	</g>
	<path fill="none" stroke="#333333" stroke-width="10" stroke-linecap="round" stroke-linejoin="round" stroke-miterlimit="10" d="
		M937.8668213,1107.8648682c4.2085571-13.8927002,8.4170532-27.7841797,12.6256104-41.6768799"/>
	<path fill="none" stroke="#333333" stroke-width="10" stroke-linecap="round" stroke-linejoin="round" stroke-miterlimit="10" d="
		M964.7869873,1101.7749023c2.3829346-17.6740723,7.7106934-34.9473877,15.6973267-50.8933105"/>
	<path fill="none" stroke="#333333" stroke-width="10" stroke-linecap="round" stroke-linejoin="round" stroke-miterlimit="10" d="
		M1004.3885498,1094.9873047c2.3720093-19.5028076,4.7440186-39.0057373,7.1149292-58.508667"/>
	<path fill="none" stroke="#333333" stroke-width="10" stroke-linecap="round" stroke-linejoin="round" stroke-miterlimit="10" d="
		M1035.3463135,1085.637207c5.279541-21.486084,10.559082-42.97229,15.8375244-64.4573364"/>
	<path fill="none" stroke="#333333" stroke-width="10" stroke-linecap="round" stroke-linejoin="round" stroke-miterlimit="10" d="
		M1067.5592041,1077.5268555c3.7036133-20.1369629,7.4073486-40.2728271,11.1109619-60.4087524"/>
	<path fill="none" stroke="#333333" stroke-width="10" stroke-linecap="round" stroke-linejoin="round" stroke-miterlimit="10" d="
		M1093.4761963,1068.3388672c4.6114502-17.5678711,9.2219238-35.1357422,13.8334961-52.7035522"/>
	<path fill="none" stroke="#333333" stroke-width="10" stroke-linecap="round" stroke-linejoin="round" stroke-miterlimit="10" d="
		M1121.0303955,1054.8503418c3.458374-15.1750488,6.9178467-30.3500977,10.3773193-45.5250854"/>
	<path fill="none" stroke="#333333" stroke-width="10" stroke-linecap="round" stroke-linejoin="round" stroke-miterlimit="10" d="
		M1152.3342285,1039.4442139c2.0128174-10.1966553,4.0256348-20.3932495,6.0395508-30.5888062"/>
</g>
<g>
	<path fill="none" stroke="#333333" stroke-width="10" stroke-linecap="round" stroke-linejoin="round" stroke-miterlimit="10" d="
		M400.7149353,1292.6488037c-48.2893982,21.2426758-104.6551208-0.6833496-125.8978271-48.9727783
		c-21.2427063-48.2883301,0.6833801-104.6551514,48.9727783-125.8978271
		c48.2883606-21.2416992,104.6551514,0.6833496,125.8978577,48.9727783
		C470.9293823,1215.0404053,449.004364,1271.4061279,400.7149353,1292.6488037z"/>
	<path fill="none" stroke="#333333" stroke-width="10" stroke-linecap="round" stroke-linejoin="round" stroke-miterlimit="10" d="
		M410.7655945,1155.3999023c8.2290039,8.4648438,14.4447021,18.8892822,17.4825134,30.3288574"/>
	<path fill="none" stroke="#333333" stroke-width="10" stroke-linecap="round" stroke-linejoin="round" stroke-miterlimit="10" d="
		M369.7006531,1134.1151123c8.5259094,1.1845703,16.7907104,4.0159912,24.26474,8.2836914"/>
	<path fill="none" stroke="#333333" stroke-width="10" stroke-linecap="round" stroke-linejoin="round" stroke-miterlimit="10" d="
		M288.6879578,1198.2316895c2.6861267-33.1717529,29.8328552-59.8583984,62.4792786-64.1671143"/>
	<path fill="#222221" stroke="#333333" stroke-miterlimit="10" d="M399.6683044,1263.5267334
		c2.0417175,1.2897949,2.6513672,4.0117188,1.3635864,6.0777588c-1.2877808,2.065918-3.9865723,2.6934814-6.0272217,1.4035645
		c-2.0406799-1.2908936-2.6513977-4.0129395-1.3636169-6.0788574
		C394.9288635,1262.8632813,397.6276245,1262.2357178,399.6683044,1263.5267334z"/>
	<path fill="#222221" stroke="#333333" stroke-miterlimit="10" d="M367.9400635,1266.5718994
		c2.0406799,1.2908936,2.6513977,4.0118408,1.3625488,6.0777588c-1.2877808,2.065918-3.9855042,2.6945801-6.0272217,1.4035645
		c-2.0406799-1.2908936-2.6513977-4.0118408-1.3636169-6.0777588
		C363.199585,1265.9095459,365.8983459,1265.2808838,367.9400635,1266.5718994z"/>
	<path fill="#222221" stroke="#333333" stroke-miterlimit="10" d="M386.1944275,1249.1483154
		c1.5510254,1.8510742,1.3025208,4.6289063-0.5538635,6.2041016c-1.8563843,1.5753174-4.6172791,1.3509521-6.168335-0.5001221
		c-1.5499573-1.8521729-1.3025208-4.6300049,0.5538635-6.2052002
		C381.8825073,1247.072876,384.6444397,1247.2961426,386.1944275,1249.1483154z"/>
	<path fill="#222221" stroke="#333333" stroke-miterlimit="10" d="M361.8401794,1247.5499268
		c1.4341431,1.942749,1.0161133,4.7004395-0.9329224,6.1588135c-1.9490662,1.458374-4.6920471,1.0655518-6.1262207-0.8770752
		c-1.4341431-1.942749-1.0161133-4.7005615,0.9329529-6.1589355
		C357.6630249,1245.2143555,360.4060364,1245.6071777,361.8401794,1247.5499268z"/>
	<path fill="#222221" stroke="#333333" stroke-miterlimit="10" d="M337.3269348,1259.6328125
		c2.0417175,1.2908936,2.6513977,4.0118408,1.3636169,6.0777588c-1.2878113,2.065918-3.9865723,2.6945801-6.0272217,1.4035645
		c-2.0406799-1.2908936-2.6513977-4.0118408-1.3636169-6.0777588S335.2862854,1258.3417969,337.3269348,1259.6328125z"/>
	<path fill="#222221" stroke="#333333" stroke-miterlimit="10" d="M333.9142456,1236.6411133
		c2.0417175,1.2908936,2.6513977,4.0128174,1.3636169,6.0787354c-1.2878113,2.06604-3.9865723,2.6936035-6.0272217,1.4025879
		c-2.0406799-1.289917-2.6513977-4.0118408-1.3636169-6.0777588S331.8735962,1235.3511963,333.9142456,1236.6411133z"/>
	<path fill="#222221" stroke="#333333" stroke-miterlimit="10" d="M310.1728516,1237.2834473
		c2.0406494,1.2908936,2.6513672,4.0117188,1.3635864,6.0777588c-1.2877808,2.065918-3.9865723,2.694458-6.0272217,1.4035645
		c-2.0417175-1.2908936-2.6513977-4.0118408-1.3636169-6.0777588
		C305.4334106,1236.6210938,308.1321716,1235.9924316,310.1728516,1237.2834473z"/>
</g>
<g>
	<path fill="none" stroke="#333333" stroke-width="10" stroke-linecap="round" stroke-linejoin="round" stroke-miterlimit="10" d="
		M608.5740967,1513.00354c-48.2894287,21.2427979-104.6551514-0.6833496-125.8978577-48.9727783
		c-21.2427063-48.2883301,0.6833801-104.6551514,48.9728088-125.8978271
		c48.2883301-21.2415771,104.6550903,0.6833496,125.8978271,48.9727783
		C678.7885132,1435.3951416,656.8634644,1491.7608643,608.5740967,1513.00354z"/>
	<path fill="none" stroke="#333333" stroke-width="10" stroke-linecap="round" stroke-linejoin="round" stroke-miterlimit="10" d="
		M618.6246948,1375.7546387c8.2290039,8.4649658,14.4447021,18.8894043,17.4825439,30.3288574"/>
	<path fill="none" stroke="#333333" stroke-width="10" stroke-linecap="round" stroke-linejoin="round" stroke-miterlimit="10" d="
		M577.5597534,1354.4698486c8.5259399,1.1845703,16.7907104,4.0161133,24.2647705,8.2838135"/>
	<path fill="none" stroke="#333333" stroke-width="10" stroke-linecap="round" stroke-linejoin="round" stroke-miterlimit="10" d="
		M496.5470581,1418.5865479c2.6861572-33.171875,29.8328857-59.8583984,62.4793091-64.1672363"/>
	<path fill="#222221" stroke="#333333" stroke-miterlimit="10" d="M607.5274048,1483.8814697
		c2.041748,1.289917,2.6513672,4.0118408,1.3635864,6.0777588s-3.9865112,2.6934814-6.0272217,1.4035645
		c-2.0406494-1.2908936-2.6513672-4.0128174-1.3635864-6.0787354S605.4867554,1482.5905762,607.5274048,1483.8814697z"/>
	<path fill="#222221" stroke="#333333" stroke-miterlimit="10" d="M575.7991943,1486.9266357
		c2.0406494,1.2910156,2.6513672,4.0118408,1.3625488,6.0777588c-1.2877808,2.06604-3.9855347,2.6945801-6.0272217,1.4036865
		c-2.0406494-1.2910156-2.6514282-4.0118408-1.3635864-6.0777588
		C571.0587158,1486.2644043,573.7574463,1485.6357422,575.7991943,1486.9266357z"/>
	<path fill="#222221" stroke="#333333" stroke-miterlimit="10" d="M594.0535278,1469.5030518
		c1.5510254,1.8511963,1.3025513,4.6289063-0.553833,6.2042236c-1.8563843,1.5751953-4.6173096,1.3509521-6.168335-0.5002441
		c-1.5499878-1.8521729-1.3025513-4.6298828,0.553894-6.2052002
		C589.7416382,1467.4277344,592.5036011,1467.6508789,594.0535278,1469.5030518z"/>
	<path fill="#222221" stroke="#333333" stroke-miterlimit="10" d="M569.6992798,1467.9046631
		c1.4342041,1.942749,1.0161743,4.7005615-0.9329224,6.1588135c-1.9490356,1.458374-4.6920166,1.0656738-6.1262207-0.8770752
		c-1.4341431-1.942749-1.0161133-4.7004395,0.9329834-6.1588135
		C565.5221558,1465.5692139,568.2651367,1465.9619141,569.6992798,1467.9046631z"/>
	<path fill="#222221" stroke="#333333" stroke-miterlimit="10" d="M545.1860352,1479.9875488
		c2.041748,1.2910156,2.6514282,4.0118408,1.3636475,6.0777588s-3.9865723,2.6945801-6.0272217,1.4036865
		c-2.0407104-1.2910156-2.6514282-4.0118408-1.3636475-6.0777588
		C540.4465942,1479.3251953,543.1453857,1478.6966553,545.1860352,1479.9875488z"/>
	<path fill="#222221" stroke="#333333" stroke-miterlimit="10" d="M541.7733765,1456.9958496
		c2.041687,1.2910156,2.6513672,4.0129395,1.3635864,6.0788574s-3.9865723,2.6934814-6.0272217,1.4025879
		c-2.0406494-1.289917-2.6513672-4.0118408-1.3635864-6.0777588
		C537.0339355,1456.3334961,539.7327271,1455.7059326,541.7733765,1456.9958496z"/>
	<path fill="#222221" stroke="#333333" stroke-miterlimit="10" d="M518.0319824,1457.6381836
		c2.0406494,1.2908936,2.6513672,4.0118408,1.3635864,6.0777588s-3.9865723,2.6945801-6.0272217,1.4036865
		c-2.0417175-1.2910156-2.6513977-4.0118408-1.3635864-6.0778809
		C513.2925415,1456.9758301,515.991272,1456.34729,518.0319824,1457.6381836z"/>
</g>
</svg>
