<?xml version="1.0" encoding="utf-8"?>
<!-- Generator: Adobe Illustrator 24.0.3, SVG Export Plug-In . SVG Version: 6.00 Build 0)  -->
<svg version="1.1" id="Слой_1" xmlns="http://www.w3.org/2000/svg" xmlns:xlink="http://www.w3.org/1999/xlink" x="0px" y="0px"
	 viewBox="0 0 1456.1999512 2437.8999023" style="enable-background:new 0 0 1456.1999512 2437.8999023;" xml:space="preserve">
<g id="Кальян">
	<g>
		<path style="fill:#1C1C1A;" d="M992,1925.0999756c-1.7999878-2.8000488-3.7000122-5.5999756-5.7000122-8.1999512
			c-8.5999756-11.3000488-19-20.5-30.2000122-28.9000244c-1.2000122-0.0999756-2.5-0.1999512-3.7000122-0.3000488
			c8,12.3000488,14.5999756,25.5,18.7999878,39.5C978.0999756,1926.5999756,985.0999756,1925.9000244,992,1925.0999756z"/>
		<path style="fill:#1C1C1A;" d="M855.5,2078.3000488c119.5999756,0,214.4000244-53.5999756,214.4000244-122.3000488
			c0-16.5-15.5999756-38.1999512-28.6999512-48.9000244c-0.1999512-0.1999512-0.3000488-0.5-0.5-0.6999512
			c-3.6999512-4.3000488-15.3000488-8.1999512-32.5999756-11.5999756c4.9000244,8.1999512,9,16.8000488,12.0999756,25.8000488
			c5.6999512-1.3000488,11.3000488-2.9000244,16.6999512-5.1999512c-5.1999512,2.8000488-10.5999756,4.8000488-16.2000122,6.5
			c2.5999756,7.9000244,4.499939,16.0999756,5.2999878,24.5999756c1.5,15.1999512-0.1999512,31-6.4000244,45
			c-6.0999756,13.9000244-15.4000244,25.5-27.2000122,35.0999756c-13.7000122,11.0999756-29.5,18.4000244-45.9000244,24.6999512
			c21-12.4000244,41.0999756-27.0999756,52.5999756-49.3000488c7-13.5999756,9.0999756-29.1999512,6.4000244-44.1999512
			c-1.9000244-10.5999756-6.0999756-20.5999756-11.5999756-29.8000488c-6,1.0999756-12,2-18.0999756,2.8000488
			c-1.0999756,0.1999512-2.2999878,0.3000488-3.4000244,0.4000244c1,3.6999512,1.7999878,7.5,2.5,11.4000244
			c1.2999878,7.9000244,1.2999878,15.5999756,0.5999756,23.5999756c-1.2000122-6.8000488-2.7000122-13.4000244-5.5999756-19.8000488
			c-2.2000122-4.9000244-4.7999878-9.5-7.5999756-14C942.5,1934.7000732,922.5,1936.2000732,902.5999756,1937
			c-49.7000122,2-99.7999878,1.1999512-149.2999878-4.4000244c-24.0999756-2.6999512-49-6-71.7000122-14.9000244
			c20.5,6,42,8,63.2999878,9.6999512c24.5,2,49,3,73.5,3.5c47,1,94.0999756,0.5,141-3c-0.7000122-1-1.2999878-2-2.0999756-3
			c-7.9000244-11.0999756-18-21-28.5-29.5999756c-4.4000244-3.5999756-9.0999756-6.9000244-13.9000244-10.0999756
			c-18.4000244-0.8000488-38-1.3000488-58.4000244-1.3000488c-52,0-99.0999756,3.3000488-132.7999878,8.1999512
			c1.2000122-3,2.4000244-6.0999756,3.5-9.1999512c2.7999878-8.1999512,5-16.5999756,5.5999756-25.3000488
			c0,0.4000244-0.9000244,1.0999756-1.0999756,1.5c-0.5999756,0.8000488-1.0999756,1.5999756-1.5999756,2.4000244
			c-1.2999878,2-2.5,4.0999756-3.5,6.1999512C724.3999634,1872.0998535,722.5,1876.5998535,721,1881.2998047
			c-1.2999878,3.8000488-2.2999878,7.8000488-3.0999756,11.8000488c-5.5999756,0.9000244-10.7000122,1.8000488-15.4000244,2.8000488
			c0-0.0999756,0.0999756-0.1999512,0.0999756-0.1999512C704.5,1889.3999023,706.3999634,1882.5999756,706.3999634,1876
			c0,0.4000244-1.2999878,1.8000488-1.5,2.0999756c-4.0999756,6-7.2000122,12.6999512-9.5999756,19.5
			c-12.4000244,3-20.5999756,6.1999512-23.2999878,9.5l0,0c-15.0999756,11.4000244-30.9000244,32.4000244-30.9000244,49
			C641,2024.6999512,735.7999878,2078.3000488,855.5,2078.3000488z M736.2000122,1941.8000488
			c6.7999878,0,12.2999878,5.5,12.2999878,12.3000488s-5.5,12.3000488-12.2999878,12.3000488s-12.2999878-5.5-12.2999878-12.3000488
			S729.4000244,1941.8000488,736.2000122,1941.8000488z M690.0999756,1934.8000488c10.5999756,0,19.2000122,13.5,19.2000122,30
			c0,16.5999756-8.5999756,30-19.2000122,30s-19.2000122-13.5-19.2000122-30
			C670.9000244,1948.3000488,679.5,1934.8000488,690.0999756,1934.8000488z"/>
		<path style="fill:#1C1C1A;" d="M704.9000244,1878C705.7999878,1876.6999512,704,1879.3000488,704.9000244,1878L704.9000244,1878z"
			/>
		<path style="fill:#1C1C1A;" d="M741.2000122,1883.0999756c1.2000122-1.9000244,2.2999878-3.8000488,3.2999878-5.8000488
			c2.4000244-4.5,4.5-9,6.4000244-13.6999512c2-4.6999512,3.7000122-9.5,5.2000122-14.5
			c1-3.5999756,1.5-7.1999512,2.2999878-10.8000488c-0.2999878,1.1999512-2.2999878,2.8000488-3,3.8000488
			c-1.2999878,1.8000488-2.5999756,3.6999512-3.7000122,5.5999756c-2.5999756,4.3000488-4.7999878,8.8000488-6.7999878,13.5
			c-2,4.8000488-3.7000122,9.8000488-4.7999878,14.9000244c-0.5,2.0999756-0.9000244,4.3000488-1.2000122,6.4000244
			c-0.0999756,0.8000488-0.2000122,1.6999512-0.2999878,2.5c0,0.1999512,0.0999756,2-0.0999756,2.1999512
			C739.5,1886.8000488,740.7000122,1884,741.2000122,1883.0999756z"/>
		<path style="fill:#1C1C1A;" d="M765.2000122,1864.5c1.2999878-1.9000244,2.5999756-3.9000244,3.9000244-5.9000244
			c2.7000122-4.3000488,5.0999756-8.8000488,7.2999878-13.3000488c2.2999878-4.5999756,4.4000244-9.3000488,6.0999756-14.0999756
			c0.7999878-2.0999756,1.5-4.1999512,2-6.3000488c0.2000122-0.5999756,0.7000122-4.5,1.0999756-4.6999512
			c-0.5999756-0.0999756-2.7999878,3.0999756-3.2999878,3.6999512c-1.5,1.9000244-3,3.8000488-4.2999878,5.8000488
			c-2.9000244,4.1999512-5.5,8.6999512-7.7000122,13.3000488c-4,8.1999512-6.5999756,16.5999756-8.0999756,25.5
			C763,1868.3000488,764.7000122,1865.1999512,765.2000122,1864.5z"/>
		<path style="fill:#1C1C1A;" d="M790.5,1847.4000244c1.5-1.8000488,2.9000244-3.6999512,4.2999878-5.5999756
			c3-4.1999512,5.7000122-8.5,8.2999878-12.9000244c2.5999756-4.5,5.0999756-9.0999756,7.2000122-13.9000244
			c0.4000244-0.8000488,4.4000244-11.1999512,4-11.3000488c-1.2999878,0.5999756-2.5999756,2.4000244-3.5999756,3.5
			c-1.5999756,1.6999512-3.2000122,3.5999756-4.7000122,5.4000244c-3.2000122,4-6,8.3000488-8.5999756,12.6999512
			c-2.5999756,4.5-4.9000244,9.1999512-6.7999878,14c-0.7999878,2.1999512-1.5999756,4.4000244-2.2000122,6.5999756
			c-0.2999878,1.1999512-1.5,3.9000244-1.0999756,5C788.5,1850.4000244,789.7000122,1848.4000244,790.5,1847.4000244z"/>
		<path style="fill:#1C1C1A;" d="M831.2999878,1813.5999756c3-4.5,5.7999878-9.0999756,8.2999878-13.9000244
			c1.0999756-2.0999756,2.0999756-4.3000488,3.0999756-6.5c0.4000244-0.9000244,0.7999878-1.9000244,1.0999756-2.8000488
			c0.0999756-0.3000488,0.2000122-1.4000244,0.5-1.5999756c-0.4000244-0.1999512-3.5999756,3.0999756-4.0999756,3.5
			c-1.7999878,1.6999512-3.5,3.4000244-5.0999756,5.1999512c-3.5,3.9000244-6.5999756,8-9.5,12.4000244
			c-2.9000244,4.3000488-5.4000244,8.8000488-7.5999756,13.5c-0.4000244,0.9000244-4.2999878,11.4000244-4.0999756,11.4000244
			C814.9000244,1835.8000488,830.2000122,1815.1999512,831.2999878,1813.5999756z"/>
		<path style="fill:#1C1C1A;" d="M875.5999756,1776c-0.0999756,0-0.2000122,0.1999512-0.2999878,0.3000488
			C875.5,1776.0999756,875.5999756,1776,875.5999756,1776z"/>
		<path style="fill:#1C1C1A;" d="M842,1820.5c-0.0999756-0.3000488,3.4000244-3,3.9000244-3.5
			c1.7000122-1.5999756,3.4000244-3.3000488,5-5.0999756c3.5999756-3.9000244,7-8,10.2999878-12.1999512
			c3.2999878-4.3000488,6.4000244-8.6999512,9.0999756-13.3000488c1.2000122-2,2.4000244-4.0999756,3.4000244-6.1999512
			c0.2999878-0.5999756,1-3.0999756,1.5999756-4c-0.5,0.4000244-1.5,1-1.5999756,1.0999756
			c-0.7999878,0.5999756-1.5999756,1.3000488-2.4000244,1.9000244c-1.9000244,1.5-3.7000122,3.1999512-5.4000244,4.9000244
			c-3.7000122,3.5999756-7.0999756,7.5-10.2999878,11.5999756c-3.2999878,4.3000488-6.2000122,8.8000488-8.7999878,13.5
			c-1.0999756,2.0999756-2.0999756,4.1999512-3,6.3000488C843.4000244,1816.4000244,841.5999756,1819.6999512,842,1820.5z"/>
		<path style="fill:#1C1C1A;" d="M871.2000122,1807.8000488c0.0999756-0.4000244,1.5-1.0999756,1.7999878-1.3000488
			c0.7999878-0.5999756,1.5999756-1.1999512,2.2999878-1.9000244c1.7999878-1.5,3.5999756-3.0999756,5.4000244-4.8000488
			c3.9000244-3.6999512,7.5999756-7.5999756,11.2000122-11.5999756c3.5999756-4.0999756,7-8.3000488,10.0999756-12.8000488
			c2.2000122-3.1999512,4.7000122-6.5999756,6-10.3000488c-1.4000244,1.0999756-3.0999756,2-4.5999756,3
			c-2.0999756,1.5-4.0999756,3.0999756-6,4.8000488c-4,3.4000244-7.7000122,7.1999512-11.0999756,11.0999756
			c-3.5,4.0999756-6.7999878,8.4000244-9.7000122,13C876.2000122,1797.8000488,870.9000244,1807.6999512,871.2000122,1807.8000488z"
			/>
		<path style="fill:#1C1C1A;" d="M1345.5,2179.1000977c-2-8.8000488-7.9000244-14.8999023-13.1999512-13.6999512
			c-2.0999756,0.5-3.8000488,2-4.9000244,4.3000488c-1.6999512,3.3000488-5,5.3999023-8.5999756,5.1000977
			c-11.5-0.6999512-26,0-36.9000244,1.1000977c-4.9000244-4.1999512-11.1999512-6.8999023-18.1999512-7.3000488
			c-11-0.5-20.9000244,5-26.5999756,13.6000977l-144.9000244,23.3999023
			c-4.8000488-3.8000488-10.6999512-6.1000977-17.1999512-6.3999023c-10.5999756-0.5-20.1999512,4.6000977-26,12.6999512
			c-4.5999756-3.3999023-10.3000488-5.5-16.4000244-5.8000488c-12.7000122-0.6000977-23.9000244,6.8000488-28.9000244,17.6999512
			c-68,6.6999512-132.7999878,10-192.7999878,10c-174,0-308.2999878-27.5-366.8999939-79.1000977
			c-19.2999878-17-29.1000061-36-29.1000061-56.3999023c0-74.4000244,76.1000061-123.3000488,205.6000366-181.6999512
			c-8.5999756,15.0999756-13,30.9000244-13,47.0999756c0,40,26.5,77.1999512,74.5,104.7999268
			c11.7999878,6.8000488,24.5,12.8000488,38.0999756,17.8999023l-34.0999756,25.3000488
			c-6.2000122,4.6000977-9.2000122,11.8000488-8.0999756,19.1999512
			c1.2000122,7.8000488,6.5999756,14.3999023,14.2999878,17.1999512c36.4000244,13.1000977,92.9000244,20,163.3999634,20
			c68.4000244,0,122.4000244-3.3999023,163.7000122-20.1000977c7.6000366-3.1000977,12.999939-9.8000488,13.999939-17.6000977
			c0.9000244-7.1999512-2.0999756-14.1999512-8.0999756-18.6000977l-34.2000122-25.3000488
			c13.5-5.1999512,26.2999878-11.1999512,37.999939-17.8999023c48-27.5999756,74.5-64.8000488,74.5-104.8000488
			c0-19.8000488-6.5-39-19.3000488-57.0999756L1084,1906.3997803c-0.4000244-0.5-0.6999512-1.0999756-1.0999756-1.5
			c-13.9000244-19.3000488-32.3000488-32.5999756-51.6999512-46.5999756c-31-22.4000244-62.7999878-45.4000244-80.0999756-96
			c24.2999878-13.5,48.5-28.1999512,74.0999756-43.8000488c17-10.4000244,34.5-21.0999756,52.5-31.6999512
			c208.8000488-122.5,235-234.5999756,236.5999756-277.0999756c1.3000488-34.9000244-11.3000488-64.0999756-34.5-80.3000488
			c-52.4000244-36.3000488-119.0999756-19.0999756-171.5999756,13.1999512c-1.5-0.3000488-3-0.5-4.5999756-0.5
			c-11.5,0-20.9000244,9.3000488-20.9000244,20.9000244v0.0999756c-4.0999756-0.5-12.8000488-2.9000244-16.1999512,0
			l-71.2999878,59.0999756c-7.0999756-1.3000488-14-0.0999756-19.2000122,4.3000488
			c-13,10.8000488-27.7000122,35-46.9000244,60.8000488c-10.4000244-9-23.2000122-16.0999756-37.5999756-20.5999756
			c4.5999756-4.8000488,7.4000244-11.1999512,7.4000244-18.4000244v-217c0-7.1999512-2.7999878-13.6999512-7.4000244-18.4000244
			c28-6,47.4000244-18.9000244,47.4000244-33.8000488c0-7.5999756-5-14.6999512-13.7000122-20.5999756h43.2999878
			c23.7999878,0,45.2999878-8.3000488,54.2000122-21l16.1000366-22.8000488c3.6999512-5.1999512-0.0999756-12.5-6.5-12.5
			H884.9000244l-5.5-18.8000488c15.7999878-6.3000488,26.5999756-18.6999512,26.5999756-33
			c0-11.5999756-7.0999756-22-18.2999878-28.9000244c18.5999756-6.9000244,34-21.2000122,42-40.0999756l9.0999756-21.5H772.0999756
			l9.0999756,21.5c8.0999756,18.9000244,23.4000244,33.2000122,42,40.0999756
			c-11.2000122,6.9000244-18.2999878,17.3000488-18.2999878,28.9000244c0,14.1999512,10.5999756,26.5,26.2000122,32.8000488
			l-5.2999878,19H678.4000244c-6.4000244,0-10.0999756,7.0999756-6.5,12.4000244l15.5,22.5999756
			c8.7999878,12.8000488,30.4000244,21.1999512,54.4000244,21.1999512h44c-8.5999756,5.9000244-13.7000122,13-13.7000122,20.5999756
			c0,14.9000244,19.4000244,27.8000488,47.4000244,33.8000488c-4.5999756,4.8000488-7.4000244,11.3000488-7.4000244,18.4000244v217
			c0,7.0999756,2.7999878,13.5999756,7.4000244,18.4000244c-14.4000244,4.5-27.2000122,11.5999756-37.7000122,20.5999756
			c-20.2000122-26.8000488-33.9000244-50.0999756-46.7999878-60.8000488c-10.9000244-9-29.2999878-4.9000244-41.0999756,9.3000488
			c-11.7999878,14.1999512-12.5999756,33.0999756-1.7000122,42.0999756c13.2000122,11,40.7000122,21,69.2999878,35.1999512
			c-4.7999878,9.6999512-7.5,20.3000488-7.5,31.4000244c0,14,4.2999878,27.3000488,11.7000122,38.9000244
			c-13.7999878,8.4000244-25.5999756,17.4000244-34.7000122,25.0999756c-12,10.0999756-12,28.5,0,38.6999512
			c9.5,8.0999756,21.9000244,17.5,36.5999756,26.3000488h-5.9000244c-7.7000122,0-13.9000244,6.1999512-13.9000244,13.9000244v17.5
			c0,7.6999512,6.2000122,13.9000244,13.9000244,13.9000244h8.0999756
			c-11.0999756,79.9000244-48.5999756,109.5-86.0999756,136.5999756
			c-186.7999878,79.4000244-299.8999939,136.3000488-299.8999939,243.0001221c0,29.6999512,13.2999878,56.5,39.6000061,79.6000977
			c64.5,56.8000488,204.2000122,87,386.7999878,87c61.2000122,0,127.2000122-3.3999023,196.8999634-10.3000488
			c5.2000122,6.8000488,13.2999878,11.3999023,22.5,11.8000488c10.5999756,0.5,20.1999512-4.6000977,26-12.6999512
			c4.5999756,3.3999023,10.3000488,5.5,16.4000244,5.8000488c9.3000488,0.3999023,17.6999512-3.3999023,23.5-9.6999512
			l152.1999512-24.5c3.9000244,2.1000977,8.3000488,3.3999023,13,3.6999512c13.5999756,0.6000977,25.5-7.8000488,29.8000488-20
			c10.0999756-3.6999512,22.9000244-9,32.5999756-14.3999023c3.1999512-1.8000488,7.0999756-1.3000488,10,0.8999023
			c2,1.5,4.1999512,2.1999512,6.3000488,1.8000488C1344.8000488,2196,1347.5,2187.8999023,1345.5,2179.1000977z
			 M1014.5999756,2125.8000488C1015.5,2126.5,1015.7999878,2127.1000977,1015.6999512,2128
			c-0.0999756,1.1000977-1,2.6999512-3.0999756,3.5c-41,16.6000977-99.7000122,18.8000488-157.0999756,18.8000488
			c-68.5,0-122.9000244-6.6000977-157.4000244-19c-1.7999878-0.6999512-2.7000122-2-2.7999878-3.1000977
			c-0.0999756-1,0.2000122-1.8000488,1.0999756-2.5l43.9000244-32.5c3,0.8999023,6,1.8000488,9,2.6000977
			c-17.7000122,13-39.7999878,27.3999023-28.5,33.5c6.7999878,3.6999512,34.4000244,8.5,63.4000244,10.8999023
			c5.9000244,0.6000977,11.9000244,1.1000977,17.7999878,1.6000977c22.5,1.6999512,45.0999756,2.6000977,67.7000122,2.5
			c16.4000244-0.1000977,32.7999878-0.3999023,49.2000122-1.8000488
			c-7.0999756,0.1000977-14.2000122-0.1000977-21.2999878-0.3999023c-37.9000244-1.3999023-75.5999756-5.8000488-113-12.1000977
			c-10.7999878-1.8000488-14.5999756-15.6000977-6.0999756-22.6000977c1.7000122-1.3999023,3.7000122-2.6999512,5.9000244-3.8000488
			c9.9000244,1.6999512,20,3,30.2999878,4c-4.4000244,2-7,4.3999023-7,6.8999023
			c0,7.6000977,22.9000244,13.6999512,51.0999756,13.6999512c28.2000122,0,51.0999756-6.1000977,51.0999756-13.6999512
			c0-2.6999512-3-5.3000488-8.2000122-7.3999023c24.2000122-2.6000977,47.4000244-7.3999023,69-14l3.0999756,2.3000488
			c-6.2000122,2.5-14,5.3999023-21.7999878,8.1999512c-18.2000122,6.5-36.7000122,12.3000488-36.7000122,12.3000488
			s19.2999878-1.5,38.5999756-3.6999512c9.7000122-1.1000977,19.4000244-2.3999023,26.7000122-3.6000977
			c3.7000122-0.6000977,6.7999878-1.1999512,8.9000244-1.6000977L1014.5999756,2125.8000488z M1233.5,1319.5
			c18.6999512,3.3000488,38,11.5,51.0999756,25.5999756c13.4000244,14.5,19.0999756,34.9000244,20.0999756,54.1999512
			c1,20-2.9000244,39.9000244-9.6999512,58.6999512c-6.8000488,18.8000488-16.9000244,35.9000244-28.5999756,52.0999756
			c17.0999756-30.5,31.1999512-63.5999756,32.0999756-99.0999756c0.5-19.0999756-2.9000244-39.0999756-13.5-55.1999512
			c-10.4000244-15.8000488-28.4000244-25.5-46.1999512-30.6999512c-17.5999756-5.1999512-36.0999756-5.9000244-54.3000488-3.8000488
			C1200.5999756,1317.5,1217.1999512,1316.5999756,1233.5,1319.5z M1099.6999512,1350.3000488
			c-0.4000244,1.4000244-0.5999756,2.9000244-0.5999756,4.4000244c0,8.3000488,6.5999756,15.4000244,14.9000244,16
			c-5.4000244,2.5999756-12.0999756,0.9000244-15.6999512-4
			C1094.6999512,1361.6999512,1095.3000488,1354.5999756,1099.6999512,1350.3000488z M1026.4000244,1459.8000488L1098.5,1400
			c3.5999756-3,2-12.3000488,2-16.5999756c0.6999512,0.0999756,1.4000244,0.1999512,2,0.1999512l0.0999756,0.0999756
			l0.0999756-0.0999756c0.3000488,0,0.5,0,0.8000488,0c9.0999756,0,16.9000244-5.9000244,19.6999512-14
			c32.3000488-20,92.0999756-47.4000244,139-15c14.4000244,10,22.1999512,29.5999756,21.3000488,53.6999512
			c-1.0999756,29.1999512-20.3000488,133.5999756-221.4000244,251.5999756c-18.1999512,10.6999512-35.9000244,21.5-53,31.9000244
			c-22.7999878,13.9000244-44.5,27.0999756-66,39.3000488c-0.7999878-4.0999756-1.5-8.3000488-2.0999756-12.6999512h8.0999756
			C956.7999878,1718.4000244,963,1712.2000732,963,1704.5V1687c0-7.6999512-6.2000122-13.9000244-13.9000244-13.9000244h-5.9000244
			c14.5999756-8.6999512,27.0999756-18.1999512,36.5999756-26.3000488c12-10.0999756,12-28.5,0-38.6999512
			c-9.0999756-7.6999512-20.9000244-16.6999512-34.7000122-25.0999756c7.5-11.5999756,11.7000122-24.8000488,11.7000122-38.9000244
			c0-11.0999756-2.7000122-21.6999512-7.5-31.4000244C977.8999023,1498.5,1005.3999023,1488.5,1018.5999146,1477.5
			C1023.9000244,1473.5,1026.4000244,1467,1026.4000244,1459.8000488z M825.2999878,1281.0999756
			c0.2999878,8.9000244,0.5,17.8000488,0.7000122,26.6999512c0.9000244,35.5999756,1,71.3000488,0.4000244,106.9000244
			c-0.0999756,4.5999756-0.2000122,9.1999512-0.2999878,13.6999512c-0.0999756,4.4000244,0.9000244,8.4000244,2.4000244,12.5
			c2.7000122,7.0999756,6.4000244,14.4000244,11.5999756,20.0999756c-5.2000122-4.4000244-9.2999878-10.1999512-12.5-16.1999512
			c-1.9000244-3.4000244-3.5999756-7.1999512-4.5999756-11c-0.7000122-2.8000488-0.5999756-5.6999512-0.7000122-8.5999756
			c-0.7999878-18-1.4000244-35.9000244-1.7999878-53.9000244c-0.4000244-18.4000244-0.5999756-36.9000244-0.7000122-55.3000488
			c-0.0999756-18.3000488-0.5-36.8000488,0.5-55c0.5-9.3000488,1.7999878-18.8000488,5.5-27.5
			c3.0999756-7.3000488,8-13,14.2999878-17.6999512c-4.9000244,4.6999512-8.7999878,9.9000244-11.2000122,16.3000488
			c-2.7999878,7.4000244-3.7999878,15.4000244-4.0999756,23.1999512C824.5,1263.8000488,825,1272.5,825.2999878,1281.0999756z
			 M845.4000244,1487.9000244c7.7999878,0,14.2000122,6.3000488,14.2000122,14.1999512
			c0,7.8000488-6.2999878,14.1999512-14.2000122,14.1999512c-7.7999878,0-14.2000122-6.3000488-14.2000122-14.1999512
			C831.2999878,1494.1999512,837.5999756,1487.9000244,845.4000244,1487.9000244z M901.5999756,1615.1999512
			c32.9000244-3.0999756,38.7999878-18.0999756,38.7999878-18.0999756c11.0999756,6.3000488,32.0999756,20.5,27.5,27.9000244
			c-10.9000244,17.6999512-95.2000122,7.5-106.2999878,1.9000244
			C850.4000244,1621.5,879.4000244,1617.4000244,901.5999756,1615.1999512z M859.7999878,1218.3000488
			c13.7000122,5.4000244,23.5,20.0999756,23.5,37.4000244v167.8000488c0,17.3000488-9.7999878,32-23.5,37.4000244
			c5.0999756-6.9000244,8.0999756-15.6999512,8.0999756-25.4000244v-191.8000488
			C867.9000244,1234.0999756,864.9000244,1225.1999512,859.7999878,1218.3000488z M904.5,1682.5
			c21.0999756,0,38.2000122,2.9000244,38.2000122,6.5s-17.0999756,6.5-38.2000122,6.5
			c-21.0999756,0-38.2000122-2.9000244-38.2000122-6.5C866.2000122,1685.5,883.4000244,1682.5,904.5,1682.5z M989.5,1431.1999512
			c-4,7.0999756,0.5,15.5999756,5.2000122,21.3000488c5.5999756,6.8000488,12.7000122,10,21,12.0999756
			C1006.5,1468.5,996,1464.2999268,989.9000244,1457C984.5999756,1450.8000488,979.4000244,1435.6999512,989.5,1431.1999512z
			 M955.4000244,1465.0999756C961.6000366,1456.5,968.5,1447.7999268,976.7000122,1441c0,0.3000488-0.0999756,0.6999512-0.0999756,1
			c-3.9000244,9.5999756-9.7999878,18.5999756-15.7999878,26.9000244c-6.2999878,8.8000488-13.4000244,17.6999512-21.7999878,24.5
			C942.7999878,1483.4000244,949.0999756,1473.9000244,955.4000244,1465.0999756z M920.7999878,1499.8000488
			c15.7999878,15.9000244,21.2999878,36.0999756,12.2999878,45S904,1548,888.1999512,1532.1000977
			c-15.7999878-15.9000244-21.2999878-36.0999756-12.2999878-45
			C884.9000244,1478.1999512,905,1483.9000244,920.7999878,1499.8000488z M881.5999756,1180.3000488
			c-19.9000244,0-36-4.4000244-36-9.9000244s16.0999756-9.9000244,36-9.9000244s36,4.4000244,36,9.9000244
			C917.7000122,1175.9000244,901.5,1180.3000488,881.5999756,1180.3000488z M870.2000122,1030.3000488
			c5.4000244-4.4000244,14.2000122-2.5,19.5999756,4.3000488c5.4000244,6.6999512,5.4000244,15.6999512,0,20.0999756
			s-14.2000122,2.5-19.5999756-4.3000488C864.7999878,1043.5999756,864.7999878,1034.5999756,870.2000122,1030.3000488z
			 M790.0999756,968.2000122c7.4000244,9.0999756,13.5,19.0999756,21.9000244,27.4000244
			c4.7000122,4.5999756,9.9000244,8.5999756,15.4000244,12c4.7999878,3,9.9000244,5.2999878,14.7999878,8.0999756
			C815.9000244,1014.5999756,795.5,993.2000122,790.0999756,968.2000122z M815.2000122,1055.3000488
			c-3.2999878-13.0999756,6-26.3000488,18.7000122-29.4000244c-3.7999878,3.5-7.5,6.9000244-9.7999878,11.6999512
			c-2.5,5.1999512-3.5999756,11.3000488-2.2000122,17c1.0999756,4.5,3.4000244,8.5999756,6.5,12.0999756
			c3.5,3.8000488,7.7000122,6.5,11.7999878,9.5999756C828.2000122,1074.5999756,818.2000122,1067.1999512,815.2000122,1055.3000488z
			 M841.0999756,1102.3000488L834.5,1101.7000732l4.9000244-16.5999756L841.0999756,1102.3000488z M761.4000244,1149.8000488
			c-10.9000244-0.0999756-22,0.5999756-32.7999878-1.3000488c-11-1.8000488-21.2999878-6.4000244-29.5-14.0999756
			c-7.4000244-7-12.2000122-15.6999512-17.2000122-24.5c6.2999878,6,11.2999878,13.0999756,18,18.6999512
			c7.5999756,6.4000244,16.7000122,10.5999756,26.5,12.6999512c10.2999878,2.0999756,20.9000244,1.6999512,31.4000244,1.8000488
			c11.2000122,0.1999512,22.5,0.3000488,33.7000122,0.4000244c44.7000122,0.5,89.4000244,1,134.1000366,2.1999512
			c18.4000244,0.5,36.9000244,1,55.2999878,1.5999756c-38.2999878,1.0999756-76.5,1.6999512-114.7999878,2.0999756
			c-23.4000244,0.1999512-46.9000244,0.3000488-70.2999878,0.3000488
			C784.2000122,1150,772.7999878,1149.9000244,761.4000244,1149.8000488z M791.5999756,1193.8000488
			C786,1189.7000732,780.5,1183,782.5999756,1175.5c1.7999878-6.4000244,8.0999756-10.1999512,14.0999756-12.1999512
			c-3.5999756,3.4000244-8.2000122,7.3000488-9.0999756,12.4000244
			c-1.2000122,6.8000488,6.0999756,11.8000488,11.2000122,14.8000488c10.2000122,6.0999756,21.7000122,9.1999512,32.5,13.9000244
			C817.9000244,1205.1999512,802.5999756,1201.9000244,791.5999756,1193.8000488z M735.0999756,1442.1999512
			C741.5999756,1450,774.2999878,1490,774.2999878,1490l-3.0999756,3.5c0,0-27.5999756-21.6999512-46-37.9000244
			C706.9000244,1439.5,723.2000122,1427.9000244,735.0999756,1442.1999512z M729.5999756,1490.8000488
			c-11.5-5.8000488-23.2000122-12.1999512-33.0999756-20.5c12.5,3.0999756,24.5999756,8.8000488,36.0999756,14.5999756
			c11.5,5.8000488,23.2000122,12.1999512,33.0999756,20.5C753.2000122,1502.3000488,741,1496.5999756,729.5999756,1490.8000488z
			 M767,1528.5c4-18.3000488,18-33.5,34.2000122-42.1999512c7.7999878-4.1999512,16-6.9000244,24.5999756-8.8000488
			c-6,3.3000488-12.0999756,6.1999512-17.7999878,9.9000244c-7.2999878,4.8000488-14,10.0999756-20,16.4000244
			c-11.9000244,12.5-18,29.6999512-18,46.8000488c0,7.6999512,1.0999756,15.0999756,2.0999756,22.8000488
			c-3.0999756-7.0999756-5.2000122-14.1999512-6.2999878-21.8000488C764.5999756,1543.9000244,765.4000244,1536.1999512,767,1528.5z
			 M744.7999878,1643.5c-6.5-6-11.5999756-14.1999512-7.4000244-23c3.9000244-8.0999756,12.4000244-13.5,19.7999878-17.9000244
			c8-4.6999512,16.5-8.5,25.0999756-11.6999512c-5.2999878,3.9000244-10.7999878,7.5-16.0999756,11.3000488
			c-7,5-14.5999756,10-20.0999756,16.6999512c-2.5999756,3.1999512-4.7000122,7-3.4000244,11.3000488
			c1.2000122,3.9000244,4.2999878,7,7.2000122,9.6999512c6.2999878,6.0999756,13.7000122,11,20.9000244,16
			c6.2000122,4.4000244,12.5,8.5999756,18.5,13.0999756c-6.9000244-2.8000488-13.7000122-6-20.2999878-9.5
			C760.5,1655,751.9000244,1650,744.7999878,1643.5z M768.9000244,1709.3000488
			c-0.9000244-0.5999756-2.0999756-1.1999512-3-2.1999512c-0.5-0.5-1-1-1.5-1.4000244
			c-0.5-0.5-0.9000244-1.1999512-1.2999878-1.8000488c-0.5-0.5999756-0.7999878-1.3000488-1.0999756-2
			s-0.7000122-1.4000244-0.9000244-2.1999512c-0.2000122-0.8000488-0.5-1.5999756-0.5999756-2.4000244
			s-0.0999756-1.6999512-0.2000122-2.5l0.2999878-2.5c0.0999756-0.8000488,0.5-1.5999756,0.7000122-2.4000244
			s0.7000122-1.5,1.0999756-2.1999512l0.5999756-1c0.2000122-0.3000488,0.5-0.5999756,0.7000122-0.9000244
			c0.5-0.5999756,1-1.1999512,1.5-1.5999756c0.5999756-0.4000244,1.0999756-0.9000244,1.7000122-1.3000488
			c1.0999756-0.8000488,2.2999878-1.3000488,3.2999878-1.8000488c1.0999756-0.4000244,2.0999756-0.6999512,3-0.9000244
			c0.9000244-0.3000488,1.5999756-0.1999512,2.2000122-0.3000488c1.2999878-0.0999756,2-0.0999756,2-0.0999756
			s-0.5,0.5-1.5,1.3000488c-0.5,0.4000244-1.2000122,0.8000488-1.7000122,1.4000244
			c-0.5999756,0.5-1.2000122,1.0999756-1.9000244,1.8000488c-0.5999756,0.6999512-1.4000244,1.4000244-2,2.1999512
			c-0.2999878,0.4000244-0.5999756,0.8000488-0.9000244,1.1999512c-0.2999878,0.4000244-0.5,0.9000244-0.7999878,1.4000244
			c-0.2999878,0.4000244-0.5,0.9000244-0.7000122,1.4000244s-0.4000244,0.9000244-0.5,1.5c-0.0999756,0.5-0.2999878,1-0.2999878,1.5
			S767,1694.5,767,1695l0.0999756,1.5999756c0,0.5,0.2000122,1,0.2999878,1.5999756c0,0.5,0.2999878,1,0.4000244,1.5
			c0.2000122,0.5,0.2999878,1,0.5999756,1.5c0.2000122,0.5,0.4000244,1,0.7000122,1.5s0.5,0.9000244,0.7999878,1.4000244
			c0.5,1,1.2000122,1.6999512,1.7000122,2.5c0.5999756,0.8000488,1.2000122,1.4000244,1.7000122,2.0999756
			s1,1.1999512,1.4000244,1.5999756c0.7999878,0.9000244,1.2999878,1.5,1.2999878,1.5s-0.7000122-0.0999756-2-0.4000244
			c-0.5999756-0.1999512-1.4000244-0.3000488-2.2000122-0.6999512
			C770.9000244,1710.1999512,769.9000244,1709.9000244,768.9000244,1709.3000488z M641.0999756,1916.9000244l0.5-0.6999512
			c0.2000122-0.3000488,0.5-0.6999512,0.7999878-1.0999756c12.2999878-17,29.5-29.4000244,47.7000122-42.5999756
			c40.5-29.1999512,85.5-61.8000488,97.7000122-153.9000244h13.5c-0.5999756,4.1999512-1.2000122,8.4000244-2.0999756,12.5
			c-3.9000244,19.5999756-9.7999878,38.8000488-17.9000244,57.0999756
			c-3.9000244,8.6999512-8.2999878,17.4000244-13.7000122,25.3000488c-4.4000244,6.4000244-9.0999756,12.0999756-14.5,17.5999756
			c7.7999878-5.4000244,15-11.3000488,21.5-18.3000488C799.0999756,1786.1000977,816.7999878,1753,828,1718.6000977h95.2000122
			c2.0999756,16.3000488,5.2999878,30.6999512,9.2999878,43.5c-0.7000122,0.5-1.5,1-2.2999878,1.5999756
			c-4.2999878,3.3000488-8.4000244,6.9000244-12.2000122,10.8000488c-3.7000122,3.8000488-7.0999756,7.8000488-10.2000122,12
			c-1.4000244,2-2.7999878,4-4,6.1999512c-0.7000122,1.3000488-1.2999878,3.4000244-2.2999878,4.5
			c0.9000244-1.1999512,3.2000122-2.0999756,4.4000244-3c2-1.5,4-3,5.9000244-4.5999756
			c4-3.3000488,7.9000244-6.9000244,11.5999756-10.5c3.7999878-3.8000488,7.4000244-7.6999512,10.7000122-11.8000488
			c19.0999756,56.4000244,54.2999878,82,86.7000122,105.3000488C1039,1885.7000732,1056.2000732,1898.2000732,1068.5,1915.3000488
			c0.3000488,0.4000244,0.5999756,0.8000488,0.9000244,1.3000488l0.1999512,0.3000488
			c10.6999512,15,16.0999756,30.8000488,16.0999756,46.8000488c0,33.4000244-23.3000488,65.1999512-65.5999756,89.5
			c-43.9000244,25.1999512-102.4000244,39.1000977-164.7000122,39.1000977
			c-62.4000244,0-120.9000244-13.8999023-164.7000122-39.1000977c-42.2999878-24.3000488-65.5999756-56.0999756-65.5999756-89.5
			C625.0999756,1947.5,630.5,1931.8000488,641.0999756,1916.9000244z M614,2232.1000977
			c-35.4000244-5-70.5999756-12.8000488-104.2999878-24.6999512c-16.8999939-6-33.3999939-13.1999512-49-22
			c-14.3999939-8.1000977-28.2000122-17.8999023-39.2999878-30.1999512
			c-11.6000061-12.8000488-18.7999878-28.5-20.7000122-45.6999512c-1.8999939-17.5,1.5-35,8.2000122-51.1999512
			c12.1000061-29.4000244,35.2999878-53.8000488,62.2999878-70.0999756c2-1.1999512,4.1000061-2.4000244,6.1000061-3.5999756
			c-24.5,16.5999756-45.7999878,37.4000244-59.1000061,64.1000977c-14.6000061,29.6000977-18.5,66.8000488,1.8999939,94.8000488
			c9.5,13,22.7000122,23.1000977,36.2999878,31.6000977c14.5,9.1000977,30,16.3999023,46,22.6999512
			c32.8000183,12.8999023,67.1000061,21.6999512,101.6999817,28.1999512c31.5999756,6,63.4000244,9.8000488,95.4000244,12.6999512
			c2.2999878,0.1999512,4.5999756,0.3999023,6.7999878,0.6000977C675.5,2238.6999512,644.5999756,2236.3999023,614,2232.1000977z
			 M1044.0999756,2239.6999512c-4.5,3.3000488-11.6999512,1.1999512-16.1999512-4.6999512c-4.5-6-4.5-13.5,0-16.8999023
			c4.5-3.3000488,11.6999512-1.1999512,16.1999512,4.6999512C1048.5,2228.8000488,1048.5,2236.3999023,1044.0999756,2239.6999512z
			 M1085.5999756,2231.6000977c-4.5,3.3000488-11.6999512,1.1999512-16.1999512-4.6999512c-4.5-6-4.5-13.5,0-16.8999023
			c4.5-3.3000488,11.6999512-1.1999512,16.1999512,4.6999512S1090.0999756,2228.3000488,1085.5999756,2231.6000977z
			 M1189.5,2205.8000488c-20.6999512,3.8999023-41.5999756,6.8999023-62.5,8.8000488
			c-7.1999512,0.6999512-14.4000244,1.3000488-21.5999756,1.5c15.5-4.6000977,31.5-7.6999512,47.3000488-10.6999512
			c20.6999512-3.8999023,41.5999756-6.8999023,62.5-8.8000488c7.1999512-0.6999512,14.3000488-1.3000488,21.5-1.5
			C1221.4000244,2199.8000488,1205.4000244,2202.8000488,1189.5,2205.8000488z M1277.5,2202
			c-4.5,3.3000488-11.6999512,1.1999512-16.1999512-4.6999512c-4.5-6-4.5-13.5,0-16.8999023S1273,2179.2001953,1277.5,2185.1000977
			C1282,2191.1000977,1282,2198.6000977,1277.5,2202z M1307.0999756,2185.8000488
			c-5.3000488,0.3000488-11.3000488-0.1000977-16.0999756-2.3999023c4.5999756-2.8000488,10.4000244-3.8999023,15.6999512-4.1999512
			C1312,2178.9001465,1318,2179.300293,1322.7999268,2181.6000977
			C1318.1999512,2184.3999023,1312.4000244,2185.5,1307.0999756,2185.8000488z M1336.4000244,2182.3999023
			c-2,0.5-4.3000488-1.6000977-5-4.6000977c-0.6999512-3.1000977,0.3000488-5.8999023,2.3000488-6.3999023
			s4.3000488,1.6000977,5,4.6000977C1339.4000244,2179.1000977,1338.4000244,2182,1336.4000244,2182.3999023z"/>
	</g>
	<g>
		<path style="fill:#1C1C1A;" d="M723,871c-1.0999756-1.0999756-1.7999878-2.4000244-2.2000122-4
			c-0.2999878-1.5-0.2000122-3.0999756,0.4000244-4.5999756c0.7999878-2,2.2000122-3.4000244,4.2000122-4.2999878
			c2-0.9000244,4-0.9000244,6-0.0999756c0.7999878,0.2999878,1.5,0.7000122,2.0999756,1.2999878l-9.2000122,22.9000244
			c-0.2000122,0-0.2999878,0-0.5,0c-0.7000122,0-1.4000244-0.0999756-2-0.4000244c-1.4000244-0.5-2.2999878-1.5-2.9000244-2.7999878
			s-0.5999756-2.7000122,0-4c0.4000244-0.9000244,0.9000244-1.7000122,1.7000122-2.2999878s1.7000122-0.9000244,2.5999756-1
			c0.2000122,0,0.4000244,0,0.5999756,0C723.5999756,871.5,723.2999878,871.2999878,723,871z M723.2999878,881.5999756
			l3.4000244-8.5l-1.0999756-0.5c-1-0.4000244-2.0999756-0.2999878-3.0999756,0.2000122
			c-1.0999756,0.5999756-1.9000244,1.4000244-2.2999878,2.5999756c-0.5,1.2000122-0.5,2.4000244-0.0999756,3.5
			s1.0999756,1.9000244,2.0999756,2.2999878C722.5,881.5,722.9000244,881.5999756,723.2999878,881.5999756z
			 M731.2000122,858.7000122C729.5,858,727.7999878,858.1000366,726.1000366,858.9000244s-3,2.2000122-3.7000122,4
			c-0.7000122,1.9000244-0.7999878,3.7000122-0.0999756,5.5s1.9000244,3,3.5,3.7000122l1.0999756,0.5l5.4000244-13.2999878
			C732,859.0999756,731.5999756,858.9000244,731.2000122,858.7000122z"/>
		<path style="fill:#1C1C1A;" d="M721.5999756,855.0999756L716.5,852.6999512l-0.2000122-0.7999878l6.5999756,3.0999756
			l-10.5,22.5999756l-6.5999756-3.0999756L706.5,874.1999512l5.0999756,2.4000244l3.5999756-7.7999878l-4.4000244-2
			l0.5999756-0.4000244l4,1.9000244L721.5999756,855.0999756z"/>
		<path style="fill:#1C1C1A;" d="M709,848.7999878L708.7999878,848l6.5,3.4000244l-11.7000122,22L702.5,872.8000488
			l11.4000244-21.4000244L709,848.7999878z"/>
		<path style="fill:#1C1C1A;" d="M698.5999756,859.5l0.5999756-17.4000244l1.2000122,0.7000122l-0.5,15.2000122l7-11.2000122
			l1,0.7000122l-13.2000122,21.0999756l-1-0.7000122l4.9000244-7.7999878l-11,4L687,863.6999512L698.5999756,859.5z"/>
		<path style="fill:#1C1C1A;" d="M676.7999878,856.7000122L687.5,832.7999878l0.9000244,0.7999878l-4,8.7999878l5.7000122,4.5999756
			l7.7999878-5.7000122l0.5,0.4000244l-20.2999878,14.5999756L676.7999878,856.7000122z M689.7000122,847.5l-5.4000244-4.4000244
			l-5.5999756,12.2999878L689.7000122,847.5z"/>
		<path style="fill:#1C1C1A;" d="M677.2999878,821L677.5,820.2000122l4.2000122,6L661.4000244,840.5l-0.7000122-1L680.5,825.5
			L677.2999878,821z"/>
		<path style="fill:#1C1C1A;" d="M654.2999878,827.4000244c-1.7999878-1.4000244-3.2000122-3.2000122-4-5.2999878
			c-0.9000244-2.0999756-1.0999756-4.2999878-0.7999878-6.5999756s1.2000122-4.2999878,2.5999756-6.0999756
			c1.4000244-1.7999878,3.2000122-3.0999756,5.2999878-4s4.2999878-1.0999756,6.5999756-0.7999878
			s4.2999878,1.2000122,6.0999756,2.5999756c1.7999878,1.4000244,3.0999756,3.2000122,4,5.2999878
			s1.0999756,4.4000244,0.7999878,6.5999756c-0.2999878,2.2999878-1.2000122,4.2999878-2.5999756,6.0999756
			c-1.4000244,1.7999878-3.2000122,3.0999756-5.2999878,4S662.6999512,830.4000244,660.3999634,830
			C658.2000122,829.5999756,656.2000122,828.7999878,654.2999878,827.4000244z M671.7000122,809.7000122
			C670.5,808,668.9000244,806.7000122,667,805.9000244s-3.9000244-1.0999756-6-0.7999878s-4,1.0999756-5.5999756,2.4000244
			s-3,3-3.7999878,5c-0.9000244,2-1.2000122,4.0999756-1,6.2999878c0.2000122,2.0999756,1,4,2.2000122,5.7000122
			s2.7999878,3,4.7000122,3.7999878s3.9000244,1.0999756,6,0.7000122c2.0999756-0.2999878,3.9000244-1.0999756,5.5999756-2.5
			s3-3,3.7999878-5c0.9000244-2,1.2000122-4.0999756,1-6.2999878
			C673.5999756,813.2999878,672.9000244,811.4000244,671.7000122,809.7000122z"/>
		<path style="fill:#1C1C1A;" d="M645.9000244,790.4000244v-0.5999756l20.0999756,1
			c1.4000244,0.0999756,2.5999756,0.5999756,3.5,1.7000122c0.9000244,1.0999756,1.4000244,2.2999878,1.2999878,3.7000122
			c0,0.9000244-0.2999878,1.7999878-0.7999878,2.5c-0.5,0.7999878-1.0999756,1.4000244-2,1.7999878
			c-0.7999878,0.4000244-1.7000122,0.5999756-2.5999756,0.5999756l-20.0999756-1l0.0999756-1.2000122l20.0999756,1
			c1.2000122,0.0999756,2.2999878-0.2999878,3.2999878-1.0999756c0.9000244-0.7999878,1.4000244-1.7999878,1.5-2.9000244
			c0.0999756-1.2000122-0.2999878-2.2000122-1.2000122-3C668.2999878,792,667.1999512,791.6000366,666,791.5
			L645.9000244,790.4000244z"/>
		<path style="fill:#1C1C1A;" d="M651.2999878,773.0999756l0.2000122-0.5L674.5,782l-0.0999756,0.4000244h-0.5l-22.7999878,0.5
			L670.9000244,791l-0.2000122,0.5999756l-23-9.4000244l0.0999756-0.4000244h0.5l22.7999878-0.5L651.2999878,773.0999756z"/>
		<path style="fill:#1C1C1A;" d="M679.4000244,765.7000122h-0.7999878L682.7000122,761.5L686.5,765.2999878v0.5999756
			c-0.0999756,1.0999756-0.4000244,2.0999756-0.7000122,3c-0.5999756,1.7000122-1.5999756,3.0999756-2.9000244,4.4000244
			c-1.5999756,1.5999756-3.5,2.7999878-5.7000122,3.4000244c-2.2000122,0.5999756-4.4000244,0.5999756-6.5999756,0
			C668.3999634,776.1000366,666.5,775,664.7999878,773.4000244c-1.2000122-1.2000122-2.2000122-2.5999756-2.7999878-4.2000122
			c-0.7000122-1.5999756-1-3.2000122-1-4.7999878s0.2999878-3.2000122,0.9000244-4.7999878s1.5999756-3,2.7999878-4.2999878
			c2.2000122-2.2000122,4.9000244-3.5,8-3.7999878l0.0999756,1.2000122c-3.0999756,0.2000122-5.7999878,1.5-7.9000244,3.7000122
			c-2.2000122,2.2000122-3.2000122,4.9000244-3.2000122,7.9000244c0,2.0999756,0.5999756,4,1.7000122,5.7999878
			c1.0999756,1.7999878,2.5999756,3.2000122,4.5,4.2000122s3.9000244,1.5,6.0999756,1.5
			c2.7000122,0,5.0999756-0.7999878,7.2999878-2.2999878c2.0999756-1.5,3.5999756-3.5,4.2999878-5.7999878
			c0.2000122-0.4000244,0.2999878-0.9000244,0.4000244-1.5l-3.5-3.5L679.4000244,765.7000122z"/>
		<path style="fill:#1C1C1A;" d="M689.7999878,766.4000244l4.5999756-3.0999756l0.7999878,0.2000122l-6.0999756,4.0999756
			l-13.7999878-20.7000122l6.0999756-4.0999756l-0.0999756,0.7999878l-4.5999756,3.0999756L681.5,753.7999878l4-2.7000122v0.7000122
			l-3.7000122,2.5L689.7999878,766.4000244z"/>
		<path style="fill:#1C1C1A;" d="M701.9000244,743c1.5999756-0.0999756,3,0.2000122,4.4000244,1
			s2.4000244,1.9000244,3.2000122,3.2999878c1,1.9000244,1.0999756,3.9000244,0.5,6
			c-0.7000122,2.0999756-2,3.5999756-3.9000244,4.5999756c-0.7000122,0.4000244-1.5,0.5999756-2.4000244,0.7999878l-11.2000122-22
			c0.0999756-0.2000122,0.2000122-0.2999878,0.2999878-0.4000244c0.5-0.5,1-0.9000244,1.5999756-1.2999878
			c1.2999878-0.7000122,2.5999756-0.7999878,4-0.2999878s2.4000244,1.2999878,3.0999756,2.5999756
			c0.4000244,0.9000244,0.5999756,1.7999878,0.5999756,2.7999878c-0.0999756,1-0.4000244,1.9000244-1,2.5999756
			c-0.0999756,0.2000122-0.2000122,0.2999878-0.2999878,0.5C701.0999756,743.0999756,701.5,743.0999756,701.9000244,743z
			 M693.7000122,736.2999878l4.0999756,8.0999756l1.0999756-0.5999756c1-0.5,1.5999756-1.2999878,1.9000244-2.5
			c0.2999878-1.2000122,0.0999756-2.2999878-0.4000244-3.5c-0.5999756-1.0999756-1.4000244-1.9000244-2.5999756-2.4000244
			c-1.0999756-0.5-2.2000122-0.4000244-3.2000122,0.0999756C694.2999878,735.7000122,694,736,693.7000122,736.2999878z
			 M705.7999878,757.2999878c1.5999756-0.7999878,2.7000122-2.2000122,3.2000122-4s0.2999878-3.7000122-0.5999756-5.5
			c-0.9000244-1.7999878-2.2999878-3-4.0999756-3.7000122s-3.5-0.5999756-5.0999756,0.2000122l-1.0999756,0.5999756l6.5,12.7999878
			C705,757.7000122,705.4000244,757.5,705.7999878,757.2999878z"/>
		<path style="fill:#1C1C1A;" d="M714.9000244,752.4000244L720,750l0.7000122,0.2999878l-6.5999756,3.0999756l-10.5999756-22.5
			l6.5999756-3.0999756l-0.2000122,0.7999878l-5,2.4000244L708.5,738.7999878l4.4000244-2.0999756l-0.0999756,0.7000122
			l-4,1.9000244L714.9000244,752.4000244z"/>
		<path style="fill:#1C1C1A;" d="M727.9000244,746.4000244l0.7000122,0.4000244l-6.7000122,3l-10.2999878-22.7000122l1.0999756-0.5
			l10,22.0999756L727.9000244,746.4000244z"/>
		<path style="fill:#1C1C1A;" d="M725.2000122,731.7000122l14.0999756,10.2000122L738,742.5l-12.2999878-8.9000244l5.4000244,12
			l-1.0999756,0.5l-10.0999756-22.7000122l1.0999756-0.5l3.7999878,8.4000244L727.6000366,720l0.7000122-0.2999878
			L725.2000122,731.7000122z"/>
		<path style="fill:#1C1C1A;" d="M736.7999878,715.4000244L753.5,735.6000366l-1.0999756,0.5l-6.0999756-7.4000244
			l-6.7000122,3.0999756l1.5999756,9.5l-0.5999756,0.2999878l-4.2000122-24.7000122L736.7999878,715.4000244z M739.4000244,731
			l6.2999878-2.9000244l-8.5999756-10.4000244L739.4000244,731z"/>
	</g>
	<g>
		<path style="fill:#1C1C1A;" d="M878.9000244,876.2000122c-0.5-1.5-0.5999756-3-0.2000122-4.5
			c0.4000244-1.5,1.2000122-2.9000244,2.4000244-4c1.5999756-1.5,3.5-2.0999756,5.5999756-2
			c2.2000122,0.0999756,4,0.9000244,5.4000244,2.5c0.5999756,0.5999756,1,1.2999878,1.4000244,2.0999756L875.2000122,887
			c-0.2000122,0-0.2999878-0.0999756-0.5-0.2000122C874.1000366,886.5,873.5,886.0999756,873.1000366,885.5999756
			c-1-1.0999756-1.4000244-2.2999878-1.4000244-3.7999878c0.0999756-1.4000244,0.7000122-2.7000122,1.7000122-3.7000122
			c0.7000122-0.7000122,1.5999756-1.0999756,2.5-1.2999878s1.9000244-0.0999756,2.7999878,0.2000122
			c0.2000122,0.0999756,0.4000244,0.0999756,0.5,0.2000122C879.2000122,877,879,876.5999756,878.9000244,876.2000122z
			 M874.5999756,885.9000244l6.7000122-6.0999756L880.5,878.9000244c-0.7000122-0.7999878-1.7000122-1.2000122-2.9000244-1.2000122
			s-2.2999878,0.5-3.2000122,1.2999878c-0.9000244,0.9000244-1.5,1.9000244-1.5999756,3.0999756
			c-0.0999756,1.2000122,0.2000122,2.2000122,0.9000244,3C873.9000244,885.5,874.2000122,885.7999878,874.5999756,885.9000244z
			 M891.5999756,868.7000122c-1.2000122-1.2999878-2.7999878-2-4.7000122-2s-3.5999756,0.7000122-5.0999756,2
			c-1.5,1.4000244-2.2999878,3-2.5,4.9000244s0.4000244,3.5,1.5999756,4.9000244l0.7999878,0.9000244l10.5999756-9.7000122
			C892.0999756,869.2999878,891.9000244,869,891.5999756,868.7000122z"/>
		<path style="fill:#1C1C1A;" d="M887.2999878,862.9000244l-0.9000244-5.5l0.5-0.5999756l1.2000122,7.2000122l-24.5,4.2000122
			l-1.2000122-7.2000122l0.7000122,0.4000244l0.9000244,5.5l8.4000244-1.4000244l-0.7999878-4.7999878l0.7000122,0.2999878
			l0.7000122,4.4000244L887.2999878,862.9000244z"/>
		<path style="fill:#1C1C1A;" d="M887.9000244,850.9000244L888.6000366,850.5l-1.7000122,7.0999756l-24.2000122-5.7000122
			L863,850.6999512l23.5999756,5.5999756L887.9000244,850.9000244z"/>
		<path style="fill:#1C1C1A;" d="M876,842.0999756l17.4000244-0.7000122l-0.7000122,1.2000122L877.5,843.1999512
			l11.7000122,6.0999756l-0.5999756,1.0999756l-22-11.5999756l0.5999756-1.0999756l8.2000122,4.2999878l-4.7999878-10.7000122
			l0.4000244-0.7000122L876,842.0999756z"/>
		<path style="fill:#1C1C1A;" d="M879.5999756,818.7000122L902.6999512,831l-0.7999878,0.9000244l-8.5-4.5999756l-5,5.4000244
			l5.0999756,8.2000122l-0.4000244,0.5l-13.2999878-21.2999878L879.5999756,818.7000122z M888,832.0999756L892.7999878,827
			l-11.9000244-6.4000244L888,832.0999756z"/>
		<path style="fill:#1C1C1A;" d="M915.4000244,821.2000122l0.7999878,0.2000122l-6,4.2000122l-14.2999878-20.4000244l1-0.7000122
			l13.9000244,19.9000244L915.4000244,821.2000122z"/>
		<path style="fill:#1C1C1A;" d="M906.0999756,799.7999878c1-2,2.5-3.7000122,4.5-5c1.9000244-1.2999878,4-2,6.2999878-2.0999756
			s4.4000244,0.2999878,6.5,1.4000244c2,1,3.7000122,2.5,5,4.4000244s2,4,2.0999756,6.2999878s-0.2999878,4.4000244-1.4000244,6.5
			c-1,2-2.5,3.7000122-4.4000244,5s-4.0999756,2-6.2999878,2.0999756c-2.2999878,0.0999756-4.4000244-0.2999878-6.5-1.4000244
			c-2-1-3.7000122-2.5-4.9000244-4.4000244c-1.2999878-1.9000244-2-4-2.0999756-6.2999878
			C904.5999756,804,905.0999756,801.7999878,906.0999756,799.7999878z M926.7000122,813.5
			c1.4000244-1.5,2.4000244-3.2999878,2.7999878-5.4000244s0.2999878-4.0999756-0.4000244-6
			c-0.7000122-2-1.9000244-3.7000122-3.5-5.0999756c-1.5999756-1.4000244-3.5-2.2999878-5.7000122-2.7999878
			s-4.2999878-0.4000244-6.2999878,0.2999878c-2,0.5999756-3.7999878,1.7000122-5.2000122,3.2000122
			S905.999939,801,905.5999756,803.1000366s-0.2999878,4.0999756,0.4000244,6c0.7000122,2,1.9000244,3.7000122,3.5,5.0999756
			S913,816.5,915.2000122,817S919.5,817.4000244,921.5,816.7000122C923.5,816.0999756,925.2999878,815,926.7000122,813.5z"/>
		<path style="fill:#1C1C1A;" d="M930.4000244,782l0.5-0.2999878l11.5,16.5999756
			c0.7999878,1.2000122,1.0999756,2.4000244,0.7999878,3.7999878s-1,2.5-2.0999756,3.2999878
			c-0.7000122,0.5-1.5999756,0.7999878-2.5,0.9000244c-0.9000244,0.0999756-1.7999878-0.0999756-2.5999756-0.5
			s-1.5-1-2.0999756-1.7000122l-11.5-16.5l1-0.7000122l11.5,16.5c0.7000122,1,1.7000122,1.7000122,2.7999878,1.9000244
			c1.2000122,0.2999878,2.2999878,0.0999756,3.2000122-0.5999756c1-0.7000122,1.5-1.5999756,1.7000122-2.7999878
			s-0.0999756-2.2999878-0.7999878-3.2999878L930.4000244,782z"/>
		<path style="fill:#1C1C1A;" d="M939.2000122,775.2000122l0.5-0.4000244L955,794.3999634l-0.2999878,0.2000122
			l-0.4000244-0.2000122l-20-10.9000244L947.5,800.2999268l-0.5,0.4000244l-15.2999878-19.5999756L932,780.8999634
			l0.4000244,0.2000122l20,10.9000244L939.2000122,775.2000122z"/>
		<path style="fill:#1C1C1A;" d="M963.5999756,775.7999878h-0.7999878l4-4.2000122l3.9000244,3.7000122v0.5999756
			c-0.0999756,1.0999756-0.2999878,2.0999756-0.7000122,3c-0.5999756,1.7000122-1.5,3.2000122-2.7999878,4.5
			c-1.5999756,1.7000122-3.5,2.7999878-5.7000122,3.5c-2.2000122,0.5999756-4.4000244,0.7000122-6.5999756,0.2000122
			c-2.2000122-0.5-4.2000122-1.5999756-5.7999878-3.2000122c-1.2999878-1.2000122-2.2000122-2.5999756-2.9000244-4.2000122
			c-0.7000122-1.5999756-1-3.2000122-1.0999756-4.7999878c0-1.5999756,0.2999878-3.2000122,0.9000244-4.9000244
			c0.5999756-1.5999756,1.5-3.0999756,2.7000122-4.2999878c2.2000122-2.2999878,4.7999878-3.5999756,7.9000244-3.9000244
			l0.0999756,1.2000122c-3.0999756,0.2999878-5.7999878,1.5999756-7.9000244,3.9000244
			c-2.0999756,2.2999878-3.2000122,4.9000244-3.0999756,8c0.0999756,2.0999756,0.5999756,4,1.7999878,5.7999878
			c1.0999756,1.7999878,2.7000122,3.0999756,4.5999756,4.0999756c1.9000244,1,3.9000244,1.5,6.2000122,1.4000244
			c2.7000122-0.0999756,5.0999756-0.9000244,7.2000122-2.5c2.0999756-1.5999756,3.5-3.5,4.2000122-5.9000244
			c0.2000122-0.4000244,0.2999878-0.9000244,0.4000244-1.5l-3.5999756-3.4000244L963.5999756,775.7999878z"/>
		<path style="fill:#1C1C1A;" d="M975.2000122,771.5l2.9000244-4.7999878l0.7999878-0.0999756l-3.7999878,6.2000122l-21.2000122-13
			l3.7999878-6.2000122L958,754.3000488l-2.9000244,4.7999878l7.2999878,4.5l2.5-4.0999756l0.2999878,0.7000122
			l-2.2999878,3.7999878L975.2000122,771.5z"/>
		<path style="fill:#1C1C1A;" d="M958.2999878,711.5999756c-0.5999756-1.4000244-0.7999878-2.9000244-0.5999756-4.5
			C958,705.5,958.6000366,704.1999512,959.7999878,703c1.5-1.5999756,3.2999878-2.4000244,5.5-2.5s4,0.5999756,5.5999756,2.0999756
			c0.5999756,0.5999756,1.0999756,1.2000122,1.5,2L955.499939,722.5c-0.2000122,0-0.2999878-0.0999756-0.5-0.2000122
			c-0.7000122-0.2999878-1.2000122-0.5999756-1.7000122-1.0999756c-1.0999756-1-1.5999756-2.2000122-1.5999756-3.7000122
			s0.5-2.7000122,1.5-3.7999878c0.7000122-0.7000122,1.5-1.2000122,2.4000244-1.5s1.9000244-0.2999878,2.7999878,0
			c0.2000122,0,0.4000244,0.0999756,0.5,0.2000122C958.7000122,712.2000122,958.5,711.9000244,958.2999878,711.5999756z
			 M954.7000122,721.5l6.2000122-6.5999756L960,714.1000366c-0.7999878-0.7999878-1.7999878-1.0999756-3-1
			s-2.2000122,0.5999756-3.0999756,1.5999756c-0.9000244,0.9000244-1.2999878,2-1.4000244,3.2000122
			c0,1.2000122,0.2999878,2.2000122,1.0999756,2.9000244C954,721.2000122,954.4000244,721.4000244,954.7000122,721.5z
			 M970.5,703.0999756c-1.2999878-1.2999878-2.9000244-1.7999878-4.9000244-1.7000122
			c-1.9000244,0.0999756-3.5999756,0.9000244-4.9000244,2.4000244c-1.4000244,1.5-2.0999756,3.0999756-2.0999756,5.0999756
			c0,1.9000244,0.5999756,3.5,1.9000244,4.7999878l0.9000244,0.7999878l9.9000244-10.5
			C971,703.7000122,970.7999878,703.4000244,970.5,703.0999756z"/>
		<path style="fill:#1C1C1A;" d="M961.4000244,695.5L957,692v-0.7999878l5.7000122,4.5l-15.5,19.5l-5.7000122-4.5L942.2999878,710.5
			l4.4000244,3.5L952,707.2999878l-3.7999878-3l0.7000122-0.2000122l3.5,2.7999878L961.4000244,695.5z"/>
		<path style="fill:#1C1C1A;" d="M949.2999878,686.4000244l-0.0999756-0.7999878l5.9000244,4.2999878l-14.5,20.2000122l-1-0.7000122
			l14.0999756-19.7000122L949.2999878,686.4000244z"/>
		<path style="fill:#1C1C1A;" d="M938,696.2000122l1-17.4000244l1.2000122,0.7999878l-0.9000244,15.2000122l7.2999878-11
			l1,0.7000122l-13.7000122,20.7999878l-1-0.7000122l5.0999756-7.7000122l-11.0999756,3.7000122l-0.5999756-0.4000244
			L938,696.2000122z"/>
		<path style="fill:#1C1C1A;" d="M917.9000244,695.4000244l7.5-25.0999756l1,0.5999756l-2.7999878,9.2000122l6.2999878,3.9000244
			l7-6.5999756L937.5,677.7000732L919.2000122,695L917.9000244,695.4000244z M929.4000244,684.5L923.5,680.7999878l-3.9000244,13
			L929.4000244,684.5z"/>
		<path style="fill:#1C1C1A;" d="M910.2999878,662.0999756l-0.0999756-0.7999878L916.5,665.0999756l-12.7999878,21.2999878
			l-1.0999756-0.5999756l12.5-20.7999878L910.2999878,662.0999756z"/>
		<path style="fill:#1C1C1A;" d="M894.9000244,679.5999756C892.6000366,679.5,890.5,678.8999634,888.5,677.6999512
			s-3.5-2.7999878-4.5999756-4.7999878s-1.5999756-4.2000122-1.5-6.4000244c0-2.2999878,0.7000122-4.4000244,1.9000244-6.4000244
			s2.7999878-3.5,4.7999878-4.5999756s4.2000122-1.5999756,6.4000244-1.5c2.2999878,0,4.4000244,0.7000122,6.4000244,1.9000244
			s3.5,2.7999878,4.5999756,4.7999878s1.5999756,4.2000122,1.5,6.4000244
			C907.9000854,669.3999634,907.3000488,671.5,906.1000366,673.5s-2.7999878,3.5-4.7999878,4.5999756
			C899.2999878,679.0999756,897.2000122,679.5999756,894.9000244,679.5999756z M898.4000244,655.0999756
			c-2-0.5999756-4-0.7000122-6-0.2000122s-3.7999878,1.5-5.2999878,2.9000244c-1.5,1.5-2.5,3.2999878-3.0999756,5.2999878
			c-0.5999756,2.0999756-0.5999756,4.2000122-0.0999756,6.2999878c0.5,2.2000122,1.5,4,2.9000244,5.5999756
			s3.2000122,2.7000122,5.2000122,3.2999878s4,0.7000122,6.0999756,0.2000122c2-0.5,3.7999878-1.5,5.2999878-3
			s2.5-3.2999878,3.0999756-5.2999878c0.5999756-2.0999756,0.5999756-4.2000122,0.0999756-6.2999878
			c-0.5-2.2000122-1.5-4-2.9000244-5.5999756C902.0999756,656.9000244,900.4000244,655.7999878,898.4000244,655.0999756z"/>
		<path style="fill:#1C1C1A;" d="M867.9000244,663.9000244l-0.5-0.2999878l11.2999878-16.7000122
			C879.5,645.7000122,880.6000366,645,882,644.8000488c1.4000244-0.2999878,2.7000122,0,3.7999878,0.7999878
			c0.7999878,0.5,1.2999878,1.2000122,1.7000122,2s0.5999756,1.7000122,0.5,2.5999756s-0.2999878,1.7999878-0.9000244,2.5
			l-11.2999878,16.5999756l-1-0.7000122L886.0999756,652c0.7000122-1,1-2.0999756,0.7999878-3.2999878
			s-0.7999878-2.0999756-1.7000122-2.7999878c-1-0.7000122-2-0.9000244-3.2000122-0.5999756
			c-1.2000122,0.2999878-2.0999756,0.9000244-2.7999878,1.9000244L867.9000244,663.9000244z"/>
		<path style="fill:#1C1C1A;" d="M857.5999756,656.2000122l-0.5-0.2999878l15.0999756-19.7999878l0.2999878,0.2000122
			l-0.0999756,0.5l-5.5,22.0999756l12.9000244-17l0.5,0.4000244l-15.0999756,19.7999878l-0.2999878-0.2000122l0.0999756-0.5
			l5.5-22.0999756L857.5999756,656.2000122z"/>
		<path style="fill:#1C1C1A;" d="M855.0999756,630L855,630.7999878l-4.0999756-4.2000122l3.9000244-3.7999878l0.5999756,0.0999756
			c1.0999756,0.0999756,2,0.4000244,3,0.7999878c1.7000122,0.7000122,3.0999756,1.5999756,4.4000244,2.9000244
			c1.5999756,1.5999756,2.7000122,3.5999756,3.2999878,5.7999878s0.5,4.4000244-0.0999756,6.5999756
			c-0.5999756,2.2000122-1.7000122,4.0999756-3.4000244,5.7000122c-1.2000122,1.2000122-2.7000122,2.0999756-4.2999878,2.7999878
			s-3.2000122,0.9000244-4.7999878,0.9000244s-3.2000122-0.4000244-4.7999878-1s-3-1.5999756-4.2000122-2.7999878
			c-2.2000122-2.2000122-3.4000244-4.9000244-3.5999756-8L842.1000977,636.5c0.2000122,3.0999756,1.4000244,5.7999878,3.5999756,8
			c2.2000122,2.2000122,4.7999878,3.2999878,7.9000244,3.4000244c2.0999756,0,4.0999756-0.5,5.7999878-1.5999756
			c1.7999878-1.0999756,3.2000122-2.5999756,4.2999878-4.4000244s1.5999756-3.9000244,1.5999756-6.0999756
			c0-2.7000122-0.7000122-5.0999756-2.2000122-7.2999878s-3.4000244-3.5999756-5.7999878-4.4000244
			c-0.4000244-0.2000122-0.9000244-0.2999878-1.5-0.4000244l-3.5,3.5L855.0999756,630z"/>
		<path style="fill:#1C1C1A;" d="M856,619.9000244l-2.7999878-4.7999878L853.5,614.4000244l3.5999756,6.2999878L835.5,633
			l-3.5999756-6.2999878l0.7999878,0.0999756L835.5,631.5999756l7.4000244-4.2000122L840.5,623.1999512l0.7000122,0.0999756
			l2.2000122,3.7999878L856,619.9000244z"/>
	</g>
</g>
<g>
	<path style="fill:#1C1C1A;" d="M823,559.7000122c1.2999878-0.7999878,2.7999878-1.2000122,4.4000244-1.0999756
		c1.5999756,0.0999756,3,0.5999756,4.2999878,1.5c1.7000122,1.2999878,2.7999878,3,3.0999756,5.0999756
		S834.7000122,569.2999878,833.3999634,571c-0.5,0.7000122-1.0999756,1.2999878-1.7999878,1.7000122l-19.9000244-14.5
		c0-0.2000122,0-0.2999878,0.0999756-0.5c0.2000122-0.7000122,0.5-1.2999878,0.7999878-1.7999878
		c0.9000244-1.2000122,2-1.9000244,3.4000244-2.0999756c1.4000244-0.2000122,2.7000122,0.0999756,3.9000244,1
		c0.7999878,0.5999756,1.4000244,1.2999878,1.7999878,2.2000122s0.5,1.7999878,0.2999878,2.7999878
		c0,0.2000122-0.0999756,0.4000244-0.0999756,0.5999756C822.2999878,560.2000122,822.5999756,560,823,559.7000122z
		 M812.5999756,557.5L820,562.9000244l0.7000122-1C821.2999878,561,821.5,560,821.2999878,558.8000488
		c-0.2999878-1.2000122-0.9000244-2.0999756-2-2.9000244c-1-0.7999878-2.2000122-1.0999756-3.4000244-1
		s-2.0999756,0.5999756-2.7999878,1.5C812.9000244,556.7000122,812.7000122,557.0999756,812.5999756,557.5z
		 M832.9000244,570.7000122c1.0999756-1.5,1.4000244-3.2000122,1-5c-0.4000244-1.9000244-1.4000244-3.4000244-3-4.5999756
		c-1.5999756-1.2000122-3.4000244-1.7000122-5.2999878-1.4000244c-1.9000244,0.2000122-3.4000244,1.0999756-4.5,2.5l-0.7000122,1
		l11.5999756,8.5C832.4000244,571.4000244,832.7000122,571.0999756,832.9000244,570.7000122z"/>
	<path style="fill:#1C1C1A;" d="M839,561.5999756L842.2000122,557L843,556.9000244l-4.2000122,6l-20.5-14.0999756l4.2000122-6
		l0.2000122,0.7999878L819.5,548.2000122l7.0999756,4.9000244l2.7999878-4l0.2999878,0.7000122l-2.5,3.5999756L839,561.5999756z"/>
	<path style="fill:#1C1C1A;" d="M847.2000122,549.2999878L848,549.2000122l-4,6.0999756l-20.9000244-13.5l0.7000122-1
		L844.2000122,554L847.2000122,549.2999878z"/>
	<path style="fill:#1C1C1A;" d="M836.9000244,538.5l17.4000244,0.0999756l-0.7000122,1.2000122l-15.2000122-0.0999756
		l11.4000244,6.7000122L849.2000732,547.5l-21.4000244-12.5999756l0.5999756-1.0999756l7.9000244,4.7000122l-4.2999878-10.9000244
		l0.4000244-0.7000122L836.9000244,538.5z"/>
	<path style="fill:#1C1C1A;" d="M836.2000122,518.5999756L861.9000244,523.5l-0.5,1.0999756l-9.5-1.7999878l-3.2000122,6.5999756
		L856,535.6999512l-0.2999878,0.5999756l-19-16.4000244L836.2000122,518.5999756z M848.2000122,529l3-6.2999878l-13.2999878-2.5
		L848.2000122,529z"/>
	<path style="fill:#1C1C1A;" d="M867.2000122,503.2999878l0.7000122-0.3999939l-1.5,7.2000122L842.1000366,505l0.2999878-1.2000122
		l23.7000122,5L867.2000122,503.2999878z"/>
	<path style="fill:#1C1C1A;" d="M845.7000122,497.2999878C844.2999878,495.5,843.4000244,493.5,843,491.1999817
		c-0.4000244-2.2999878-0.0999756-4.5,0.7000122-6.6000061s2.0999756-3.8999939,3.9000244-5.3999939
		c1.7999878-1.3999939,3.7999878-2.2999878,6.0999756-2.7000122c2.2999878-0.3999939,4.5-0.1000061,6.5999756,0.7000122
		s3.9000244,2.1000061,5.4000244,3.8999939c1.4000244,1.7999878,2.2999878,3.7999878,2.7000122,6.1000061
		c0.4000244,2.2999878,0.0999756,4.5-0.7000122,6.6000061s-2.0999756,3.8999939-3.9000244,5.3999939
		C862,500.5999756,860,501.4999695,857.7000122,501.8999939c-2.2999878,0.3999939-4.5,0.1000061-6.5999756-0.7000122
		C849,500.3999939,847.2000122,499.1000061,845.7000122,497.2999878z M866.5999756,484.1000061
		c-0.7999878-1.8999939-2-3.5-3.7000122-4.7999878c-1.7000122-1.2000122-3.5999756-1.8999939-5.7000122-2.1000061
		c-2.0999756-0.2000122-4.0999756,0.2000122-6,1.1000061s-3.5999756,2.2000122-4.9000244,4
		c-1.2999878,1.7999878-2.0999756,3.7999878-2.4000244,5.8999939c-0.2999878,2.1000061,0,4.1000061,0.7999878,6.1000061
		c0.7999878,1.8999939,2,3.5,3.7000122,4.7999878c1.7000122,1.2000122,3.5999756,1.8999939,5.7000122,2.1000061
		c2.0999756,0.2000122,4.0999756-0.2000122,6-1.1000061s3.5999756-2.2000122,4.9000244-4
		c1.2999878-1.7999878,2.0999756-3.7000122,2.4000244-5.8999939S867.4000244,486,866.5999756,484.1000061z"/>
	<path style="fill:#1C1C1A;" d="M833.2000122,476.7000122l-0.4000244-0.3999939L847,462.0000305c1-1,2.2000122-1.5,3.5999756-1.5
		c1.4000244,0,2.5999756,0.5,3.5999756,1.5c0.5999756,0.6000061,1.0999756,1.3999939,1.2999878,2.2999878
		s0.2999878,1.7999878,0,2.7000122c-0.2000122,0.8999939-0.7000122,1.7000122-1.2999878,2.2999878l-14.0999756,14.2999878
		l-0.9000244-0.8999939l14.0999756-14.2999878c0.9000244-0.8999939,1.2999878-1.8999939,1.4000244-3.2000122
		c0-1.2000122-0.4000244-2.2000122-1.2000122-3S851.5999146,461,850.499939,461c-1.2000122,0-2.2000122,0.5-3.0999756,1.3999939
		L833.2000122,476.7000122z"/>
	<path style="fill:#1C1C1A;" d="M824.7999878,470.2000122l-0.5-0.3999939L839.5,450.1000061l0.2999878,0.2000122l-0.0999756,0.5
		l-5.5999756,22.1000061l13.0999756-16.8999939l0.5,0.3999939L832.5,476.1000366l-0.2999878-0.2000122l0.0999756-0.5
		l5.5999756-22.1000061L824.7999878,470.2000122z"/>
	<path style="fill:#1C1C1A;" d="M820.5999756,446l0.0999756,0.7999878L815.8999634,443.5l3.0999756-4.3999939L819.5999146,439
		c1.0999756-0.1000061,2.0999756,0,3.0999756,0.2000122c1.7999878,0.2999878,3.4000244,1,4.9000244,2.1000061
		c1.9000244,1.2999878,3.2999878,3,4.2999878,5.1000061s1.4000244,4.2000122,1.2000122,6.5
		s-0.9000244,4.3999939-2.2999878,6.2999878c-1,1.3999939-2.2000122,2.6000061-3.7000122,3.5s-3,1.5-4.5999756,1.7999878
		s-3.2000122,0.2999878-4.9000244-0.1000061c-1.7000122-0.2999878-3.2999878-1-4.7000122-2
		c-2.5999756-1.7999878-4.2999878-4.2000122-5.0999756-7.2000122l1.2000122-0.2999878c0.7999878,3,2.5,5.3999939,5,7.2000122
		c2.5999756,1.7000122,5.4000244,2.2999878,8.4000244,1.7999878c2.0999756-0.3999939,3.9000244-1.2999878,5.4000244-2.7000122
		c1.5999756-1.3999939,2.7000122-3.1000061,3.4000244-5.1000061s0.7999878-4.1000061,0.4000244-6.2999878
		c-0.5-2.7000122-1.7000122-4.8999939-3.5999756-6.7000122c-1.9000244-1.7999878-4-2.8999939-6.5-3.2000122
		c-0.5-0.1000061-1-0.1000061-1.5999756-0.2000122l-2.7999878,4.1000061L820.5999756,446z"/>
	<path style="fill:#1C1C1A;" d="M818,435.8999939l-4.5-3.2000122l-0.0999756-0.7999878l5.9000244,4.2000122l-14.5,20.2000122
		l-5.9000244-4.2000122l0.7999878-0.2000122l4.5,3.2000122l5-7l-4-2.7999878l0.7000122-0.2000122L809.5,447.7000122L818,435.8999939
		z"/>
	<path style="fill:#1C1C1A;" d="M771.7999878,412.6000061c-0.4000244-1.5-0.2999878-3,0.2000122-4.5
		s1.4000244-2.7000122,2.7000122-3.7000122c1.7000122-1.2999878,3.7000122-1.7999878,5.7999878-1.5
		s3.9000244,1.2999878,5.2000122,3.1000061c0.5,0.7000122,0.9000244,1.3999939,1.0999756,2.2000122L767,422.8999939
		c-0.2000122-0.1000061-0.2999878-0.1000061-0.5-0.2000122c-0.5999756-0.3999939-1.0999756-0.7999878-1.5-1.3999939
		c-0.9000244-1.2000122-1.2000122-2.5-1-3.8999939s0.9000244-2.6000061,2.0999756-3.5
		c0.7999878-0.6000061,1.7000122-0.8999939,2.5999756-1c1-0.1000061,1.9000244,0.1000061,2.7999878,0.5
		c0.2000122,0.1000061,0.2999878,0.2000122,0.5,0.2999878C772,413.2999878,771.9000244,412.8999939,771.7999878,412.6000061z
		 M766.5,421.7999878l7.2999878-5.3999939l-0.7000122-1C772.3999634,414.5,771.5,414,770.2999878,413.8999939
		s-2.2999878,0.2000122-3.4000244,1s-1.7000122,1.7000122-1.9000244,2.8999939
		C764.6999512,419,764.8999634,420,765.5999146,420.8999939C765.7999878,421.2999878,766.0999756,421.5,766.5,421.7999878z
		 M785.2000122,406.2999878c-1.0999756-1.5-2.5999756-2.2999878-4.5-2.5s-3.7000122,0.2999878-5.2999878,1.5
		s-2.5999756,2.7000122-3,4.6000061s0,3.6000061,1.0999756,5l0.7000122,1l11.5-8.6000061
		C785.7000122,407,785.5,406.7000122,785.2000122,406.2999878z"/>
	<path style="fill:#1C1C1A;" d="M779.2000122,398.3999939l-2.7999878-4.7999878l0.2999878-0.7000122l3.5999756,6.2999878
		l-21.5999756,12.3999939l-3.5999756-6.2999878l0.7999878,0.1000061l2.7999878,4.7999878l7.4000244-4.2999878l-2.4000244-4.2000122
		l0.7000122,0.1000061l2.2000122,3.7999878L779.2000122,398.3999939z"/>
	<path style="fill:#1C1C1A;" d="M773,386.1000061l0.4000244-0.7000122l2.9000244,6.7000122l-22.7999878,10L753,401
		l22.2000122-9.7000122L773,386.1000061z"/>
	<path style="fill:#1C1C1A;" d="M758.0999756,387.6000061l12-12.6000061L770.5,376.2999878l-10.5,11l12.5999756-3.7000122
		l0.2999878,1.2000122l-23.9000244,7l-0.2999878-1.2000122l8.7999878-2.6000061l-10.9000244-4.2999878l-0.2000122-0.7000122
		L758.0999756,387.6000061z"/>
	<path style="fill:#1C1C1A;" d="M743.9000244,370.2000122l24.2000122-9.7999878l0.2000122,1.2000122l-8.9000244,3.6000061
		l0.9000244,7.2999878l9.5999756,1.2999878L770,374.4000244l-24.7999878-3.5L743.9000244,370.2000122z M759.7000122,372.3999939
		L758.7999878,365.5l-12.5,5.1000061L759.7000122,372.3999939z"/>
	<path style="fill:#1C1C1A;" d="M768.4000244,344.3999939L769.1000366,344l-0.5999756,7.2999878l-24.7999878-2.2000122
		l0.0999756-1.2000122l24.2000122,2.1000061L768.4000244,344.3999939z"/>
	<path style="fill:#1C1C1A;" d="M746.2999878,336.2999878c-0.7000122-2.2000122-0.9000244-4.3999939-0.4000244-6.7000122
		c0.5-2.2999878,1.5-4.2999878,3-5.8999939c1.5-1.7000122,3.4000244-2.8999939,5.5-3.6000061
		c2.2000122-0.7000122,4.4000244-0.8999939,6.5999756-0.3999939c2.2999878,0.5,4.2999878,1.5,5.9000244,3
		s2.9000244,3.3999939,3.5999756,5.5c0.7000122,2.2000122,0.9000244,4.3999939,0.4000244,6.6000061
		c-0.5,2.2999878-1.5,4.2999878-3,6s-3.4000244,2.8999939-5.5,3.6000061
		c-2.2000122,0.7000122-4.4000244,0.7999878-6.5999756,0.3999939c-2.2999878-0.5-4.2999878-1.5-6-3
		C748.2000122,340.2999878,747,338.5,746.2999878,336.2999878z M770.5,331.2999878
		c-0.0999756-2.1000061-0.7000122-4-1.7999878-5.7999878s-2.7000122-3.1000061-4.5999756-4
		c-1.9000244-0.8999939-3.9000244-1.2999878-6-1.1000061c-2.0999756,0.2000122-4.0999756,0.8999939-6,2.1000061
		s-3.2999878,2.7999878-4.2999878,4.7000122c-1,1.8999939-1.4000244,3.8999939-1.4000244,6
		c0.0999756,2.1000061,0.7000122,4,1.7999878,5.7999878s2.7000122,3.1000061,4.5999756,4
		c1.9000244,0.8999939,3.9000244,1.2000122,6,1.1000061c2.0999756-0.2000122,4.0999756-0.8999939,6-2.1000061
		s3.2999878-2.7999878,4.2999878-4.7000122C770.0999756,335.3999939,770.5999756,333.3999939,770.5,331.2999878z"/>
	<path style="fill:#1C1C1A;" d="M754.9000244,303.3999939l0.2000122-0.5l18.5,7.8999939
		c1.2999878,0.6000061,2.2000122,1.5,2.7000122,2.7999878s0.5,2.6000061,0,3.8999939
		c-0.4000244,0.7999878-0.9000244,1.5-1.5999756,2.1000061c-0.7000122,0.5-1.5999756,0.8999939-2.5,1
		s-1.7999878,0-2.7000122-0.3999939l-18.5-7.8999939l0.5-1.1000061l18.5,7.8999939c1.0999756,0.5,2.2999878,0.5,3.4000244,0.1000061
		c1.0999756-0.3999939,1.9000244-1.1000061,2.4000244-2.2000122s0.5-2.2000122,0-3.2999878
		c-0.5-1.1000061-1.2999878-1.8999939-2.4000244-2.3999939L754.9000244,303.3999939z"/>
	<path style="fill:#1C1C1A;" d="M761.9000244,291l0.2999878-0.5l21.4000244,12.7000122L783.4000244,303.5l-0.5-0.1000061
		L760.3000488,300.5l18.4000244,10.8999939l-0.2999878,0.5L757,299.3999939l0.2000122-0.2999878h0.5L780.2999878,302
		L761.9000244,291z"/>
	<path style="fill:#1C1C1A;" d="M788.2999878,285.8999939H787.5L791.4000244,281.5L795.5,285.1000061v0.6000061
		c-0.0999756,1.1000061-0.2999878,2.1000061-0.5999756,3c-0.5,1.7000122-1.4000244,3.2000122-2.5999756,4.6000061
		c-1.5,1.7000122-3.4000244,3-5.5,3.7000122c-2.2000122,0.7000122-4.4000244,0.8999939-6.5999756,0.3999939
		c-2.2000122-0.3999939-4.2000122-1.3999939-6-3c-1.2999878-1.1000061-2.2999878-2.5-3.0999756-4
		c-0.7000122-1.6000061-1.2000122-3.1000061-1.2999878-4.7999878c-0.0999756-1.6000061,0.0999756-3.2000122,0.7000122-4.8999939
		s1.4000244-3.1000061,2.5-4.3999939c2.0999756-2.3999939,4.7000122-3.7999878,7.7000122-4.2000122l0.2000122,1.2000122
		c-3.0999756,0.3999939-5.7000122,1.7999878-7.7000122,4.2000122c-2,2.3999939-3,5-2.7999878,8.1000061
		c0.0999756,2.1000061,0.7999878,4,2,5.7000122s2.7999878,3,4.7000122,3.8999939s4,1.2999878,6.2000122,1.2000122
		c2.7000122-0.2000122,5.0999756-1.1000061,7.0999756-2.7999878c2-1.7000122,3.4000244-3.7000122,4-6.1000061
		c0.0999756-0.5,0.2999878-1,0.2999878-1.5l-3.7000122-3.2999878L788.2999878,285.8999939z"/>
	<path style="fill:#1C1C1A;" d="M798.7000122,285.5L803,281.8999939L803.7999878,282l-5.5999756,4.7000122l-16-19.1000061
		l5.5999756-4.7000122v0.7999878L783.5,267.2999878l5.5,6.6000061l3.7000122-3.1000061L792.7999878,271.5l-3.4000244,2.7999878
		L798.7000122,285.5z"/>
	<path style="fill:#1C1C1A;" d="M816.5999756,256.2000122C818.1999512,256,819.5999756,256.3000183,821,257
		c1.4000244,0.7000122,2.5,1.7999878,3.2999878,3.2000122c1.0999756,1.8999939,1.2999878,3.8999939,0.7000122,6
		s-1.7999878,3.7000122-3.7000122,4.7000122c-0.7000122,0.3999939-1.5,0.7000122-2.2999878,0.7999878l-12-21.5
		c0.0999756-0.1999969,0.2000122-0.3000031,0.2999878-0.3999939c0.4000244-0.5,1-1,1.5-1.3000031
		c1.2999878-0.6999969,2.5999756-0.8999939,4-0.5s2.4000244,1.1999969,3.2000122,2.5
		c0.5,0.8999939,0.7000122,1.8000031,0.7000122,2.8000031s-0.2999878,1.8999939-0.9000244,2.7000122
		c-0.0999756,0.2000122-0.2000122,0.2999878-0.2999878,0.5
		C815.7999878,256.3999939,816.2000122,256.2999878,816.5999756,256.2000122z M808.0999756,249.8000031L812.5,257.7999878
		l1.0999756-0.6000061c1-0.5,1.5999756-1.3999939,1.7999878-2.6000061c0.2000122-1.1999969,0.0999756-2.3000031-0.5999756-3.5
		s-1.5-1.8999939-2.5999756-2.3000031C811.1000366,248.3999786,810,248.4999695,809,248.9999695
		C808.7000122,249.1999969,808.4000244,249.5,808.0999756,249.8000031z M821,270.3999939
		c1.5999756-0.8999939,2.5999756-2.2999878,3.0999756-4.1000061c0.4000244-1.8999939,0.2000122-3.7000122-0.7999878-5.3999939
		c-1-1.7999878-2.4000244-2.8999939-4.2000122-3.5s-3.5-0.5-5.0999756,0.3999939l-1.0999756,0.6000061l7,12.5
		C820.2000122,270.7999878,820.5999756,270.6000061,821,270.3999939z"/>
	<path style="fill:#1C1C1A;" d="M829.9000244,265.1000061l5-2.5l0.7000122,0.2999878l-6.5,3.2999878L817.7999878,244l6.5-3.3000031
		L824.0999756,241.5l-5,2.5L823,251.6999969L827.2999878,249.5l-0.0999756,0.6999969l-4,2L829.9000244,265.1000061z"/>
	<path style="fill:#1C1C1A;" d="M842.7000122,258.8999939l0.7000122,0.2999878l-6.5999756,3.1000061l-10.7000122-22.5l1.0999756-0.5
		l10.4000244,21.8999939L842.7000122,258.8999939z"/>
	<path style="fill:#1C1C1A;" d="M839.7000122,244.3000031l14.2999878,10l-1.2999878,0.6000061l-12.5-8.6999969l5.5999756,11.8999939
		l-1.0999756,0.5l-10.5-22.5l1.0999756-0.5L839.2000122,244l2.5999756-11.3999939L842.5,232.3000031L839.7000122,244.3000031z"/>
	<path style="fill:#1C1C1A;" d="M850.9000244,227.6999969l17.4000244,19.5l-1.0999756,0.6000061l-6.4000244-7.1999969
		l-6.5999756,3.3000031l2,9.3999939l-0.5999756,0.3000031l-5.0999756-24.5L850.9000244,227.6999969z M854.2000122,243.1999969
		l6.2000122-3.1000061l-9-10.1000061L854.2000122,243.1999969z"/>
</g>
</svg>
