<?xml version="1.0" encoding="utf-8"?>
<!-- Generator: Adobe Illustrator 23.1.0, SVG Export Plug-In . SVG Version: 6.00 Build 0)  -->
<svg version="1.1" id="Слой_1" opacity="0.5" xmlns="http://www.w3.org/2000/svg" xmlns:xlink="http://www.w3.org/1999/xlink"
	 x="0px" y="0px" viewBox="0 0 700 1552.7" style="enable-background:new 0 0 700 1552.7;" xml:space="preserve">
<style type="text/css">
	.st0{fill:#333333;}
	.st1{fill:none;stroke:#333333;stroke-width:5;stroke-linecap:round;stroke-linejoin:round;stroke-miterlimit:10;}
</style>
<g>
	<path class="st0" d="M308.5,592.3c0,0-2.9,8.4-10.3,13.1c-5.3,3.3-11.3,5.1-17.3,6.2c5.6,0.9,16.7,0.3,31.8-6.1
		c5.8-2.4,14.8-9.8,15.7-13.1c0.9-3.4,1-6.7,1-6.7C320.3,599.1,308.5,592.3,308.5,592.3z"/>
	<path class="st0" d="M287.7,593.1c6.4,0.7,12.1-4,12.8-10.4l13.1-134.3c0.7-6.4-4-12.1-10.4-12.8l0,0c-6.4-0.7-12.1,4-12.8,10.4
		l-13.1,134.3C276.6,586.8,281.3,592.5,287.7,593.1L287.7,593.1z M282.2,578.6l13-132.1c0.3-2.6,2.5-4.5,5.2-4.2s4.5,2.5,4.2,5.2
		l-13,132.1c-0.3,2.6-2.5,4.5-5.2,4.2C283.9,583.5,282,581.1,282.2,578.6z"/>
	<path class="st0" d="M269.4,433.2L269.4,433.2c-6.6-0.7-12.5,3.8-13.8,10.1l0,0c0.9-9.4,4.2-12.2,8.5-15
		c-10.6-2.3-19.2-4.7-26.4-7.1c5.6,3.7,11,11.5,9.7,24.5l-12.7,129.5c-0.8,8.8-7.8,19.8-15.4,19.1c-0.4,0-0.7-0.1-1-0.1
		c13.1,5.4,27.4,8.4,40.9,8.1c0,0-11.5-0.8-16.4-5.5c-5.7-5.5-5.1-12.3-3.8-20.8c0.4,9.9,2.3,12,8.2,15.9c0.5,0.4,0.9,0.7,1.4,0.9
		l0,0l0,0c1.5,0.8,3.1,1.3,4.9,1.5l0,0c7,0.7,13.3-4.4,14-11.5l13.3-135.4C281.6,440.1,276.4,433.8,269.4,433.2z M259.6,587.9
		c-1.6,1.3-3.6,2.1-5.7,1.9c-4.6-0.5-8-5.3-7.4-10.7l13-132.3c0.6-5.4,4.7-9.5,9.4-9c2.1,0.2,3.9,1.3,5.3,2.9c-4.1,1-7.4,5.2-8,10.3
		l-12.3,125.2C253.3,581.4,255.8,586,259.6,587.9z"/>
	<path class="st0" d="M264.5,628.5c-2.2,0-4.3-0.1-6.5-0.2c-2.2-0.1-4.3-0.3-6.5-0.4c-4.3-0.3-8.6-0.8-13.1-1.3
		c4,1.8,8.4,2.9,12.8,3.7c2.2,0.4,4.4,0.7,6.6,0.9c1.1,0.1,2.3,0.2,3.3,0.3c1.1,0.1,2.3,0.1,3.3,0.2c4.4,0.1,8.9-0.1,13.3-0.8
		s8.8-1.6,12.9-3.5c-4.4,0.7-8.7,0.9-13.1,1.1C273.2,628.6,268.8,628.6,264.5,628.5z"/>
	<path class="st0" d="M251.3,413c3,0.5,5.9,0.7,5.9,0.7l-0.1-8.4c0-4.1,0.6-8.2,1.7-12.1l2.1-7l-10.7-1.6c0,0-2.4,5.7-3.7,12.7
		c-0.9,5.7-0.8,14.4-0.8,14.4S247.5,412.4,251.3,413z"/>
	<path class="st0" d="M363.1,442.1c-0.9-7.6-2-15.5-0.5-21.9c0.8-3.3,1.7-6.7,2.7-10.2c4.7-16.8,10-35.9-1.2-48.7
		c-9.3-10.6-29.1-13.1-45.1-14.9c-6.8-0.8-12.6-1.5-16.1-2.7c-1.6-0.6-4.8-2.1-8.5-3.9c-10.4-5.2-26.9-13.1-42.6-16
		c-1.2-1.1-2.8-2-4.5-2.3c-1.6-0.4-3.3-0.3-4.8,0.3c-4.3-4.5-8.6-3.7-10.4-3c-2.3,0.8-4.7,2.9-6,5.3l-0.2,0.4l-0.4-0.1
		c-2.1-0.3-4.1,0.4-5.9,1.8c-1.8,1.4-3,3.3-3.4,5.4l-0.1,0.4l-0.3,0.1c-2,0.6-3.6,2-4.5,4c-1.2,2.6-1.2,5.5,0.1,7.8l0.1,0.2
		l-0.1,0.3c-0.4,1.2-0.8,2.4-1,3.8c-6.9,2.8-11.2,6.6-11.7,11.4l-5.3,21.6c-1.4,5.8-2.5,11.7-3.5,17.7c-1.5,0.8-6.8,3.1-15.7-0.7
		c-1-0.5-2.2-0.9-3.4-1.5c-13-5.7-36.9-16.5-54.4,13.1c-1.3,2.2-2.4,4.5-3.6,6.9c-3.3-1.4-6.4-2.3-9.6-2.9c-3.7-0.7-6.9-0.7-10-0.2
		c-3.8,0.7-6.8,2.7-8.8,4.5c-1.8,1.5-3.2,3.3-4.6,5c-0.7,0.8-1.3,1.7-2.1,2.4c-1,1.1-2.1,2.3-3,3.6c-1,1.2-2.1,2.4-3.2,3.7l-1.4,1.6
		c-1.6,1.8-3.3,3.6-4.9,5.4c-1.3,1.4-2.7,2.7-4.1,4c-1,1-2.2,2.1-3.2,3.1c-2.3,2.3-4.6,4.8-6.6,6.9c-2.2,2.3-4.4,4.2-6.6,5.9
		c-2.8,2.3-5.4,3.8-8,4.8c-2.3,0.9-5.3,1-8,1.1h-1.2c-1.1,0-2.3,0.1-3.4,0.2c-2.4,0.2-4.8,0.3-7.1,0.2c-2.4-0.1-5-0.2-7.4-0.2
		c-5.1-0.1-10.2-0.7-15.2-1.1l-1.4-0.2c-12.3-1.3-24-3.3-33.9-5.2c-1.9-0.4-3.7-0.7-5.5-1c-4-0.8-8.3-1.6-12.4-2.3c0,0,0,0-0.1,0
		c-0.3-0.3-0.7-0.5-0.9-0.6c-1.9-0.8-3.9,0.2-4.7,2l0,0c-6.9,17-7.5,76.5-5.3,101.1c0.5,4.9,0.9,8.2,1.6,9.9
		c0.1,0.4,0.3,0.7,0.6,0.9c0.7,0.8,1.5,1.1,2.4,1.2c0.5,0.1,1,0,1.5-0.2c0.3-0.1,0.5-0.2,0.8-0.4c1.1-0.1,2.3-0.2,3.5-0.4
		c0.7-0.1,1.3-0.2,2-0.2c1.1-0.1,2.2-0.2,3.3-0.3c2.8-0.3,5.7-0.6,8.6-0.8l2.9-0.2c3.8-0.2,7.9-0.5,11.8-0.8c2.3-0.2,4.8-0.6,7-0.8
		c3.1-0.4,6.3-0.8,9.4-1c3-0.2,6-0.6,8.9-0.9c1.8-0.2,3.6-0.5,5.4-0.6c14-1.4,25.3-2.3,35.7-2.6c2.8-0.1,5.8-0.1,8.8,0.2
		c1.2,0.1,2.5,0.2,3.8,0.2c2.5,0.1,4.9,0.2,7.2,0.6c2.3,0.3,4.7,0.8,7.1,1.5c0.9,0.2,1.8,0.5,2.7,0.7c2,0.5,4,0.8,6.1,1.3
		c1.4,0.3,2.8,0.6,4.1,0.9c2,0.5,3.9,0.9,5.9,1.5c1.4,0.4,2.9,0.8,4.3,1.1c3.6,0.8,7.1,1.4,9.8,1.8c3.8,0.5,7.4,0.4,11-0.3l2.4-0.5
		c2.3-0.5,4.8-0.9,7.2-1.2l1.9-0.3c1.3-0.2,2.6-0.4,3.8-0.6c0.4-0.1,0.8-0.2,1.3-0.3c0.7-0.2,1.4-0.4,1.9-0.3l0,0
		c1,0.1,2.2,0.6,3.3,0.9c2,0.8,4.1,1.6,6.7,1.2c0.8-0.1,1.6-0.4,2.3-0.7c10.3,7.3,21.2,11.4,30.3,13c0.6,0.8,1.1,1.4,1.9,2
		c1.6,1.3,3.8,2.3,6.1,2.4c0.7,1.2,1.4,2.4,2.2,3.6c-2.3,25.7,25.3,45.3,70.7,49.8c45.3,4.4,76.3-9.4,79-35
		c5.4-5.3,8.4-11.3,9.1-17.5l10.9-110.7c1.4,0,2.9-0.3,4.3-0.8C366.6,470.6,364.8,455.4,363.1,442.1z M149.8,548.3
		c-0.6,0.2-1.2,0.2-1.9,0.2c-3-0.2-8.2-1.9-10.2-2.4c-1.6-0.5-3.4-0.9-5-1.1c-0.8-0.1-1.8,0-2.6,0c-0.8,0.1-1.9,0.3-2.5,0.2
		c-0.3,0-0.7-0.1-0.9-0.2c-0.1,0-0.2,0-0.3-0.1c-0.2,0-0.5-0.1-0.7-0.2c-0.1,0-0.3-0.1-0.4-0.1c-0.2-0.1-0.5-0.1-0.7-0.2
		c-0.1,0-0.3-0.1-0.4-0.1s-0.3-0.1-0.4-0.1c-0.2-0.1-0.4-0.1-0.5-0.2c0.1,0,0.1,0.1,0.2,0.1h-0.1c-0.8-0.3-1.4-0.6-1.9-1
		c0.1,0.1,0.2,0.1,0.3,0.2c-0.5-0.3-0.8-0.7-1.2-1.1c-0.2-0.2-0.4-0.4-0.5-0.6l0,0c-0.3-0.4-0.7-0.8-0.9-1.1
		c-2.2-2.6-4.4-5.4-5.7-8.5c-0.6-1.2-0.4-2.9-0.3-4.2c0.2-2.4,1-4.8,2.1-7c0.5-0.9,0.8-2.1,1.7-2.7c0.8-0.6,1.9-0.9,2.8-1
		c2.2,0,4.3,0.5,6.4,0.8c1.5,0.2,3,0.3,4.4,0.7c1.4,0.3,2.7,0.9,4.1,1.3c1.4,0.4,2.9,0.6,4.4,0.7c0.3,0,3.9,0.4,3.9,0.4
		c-0.4,0.6-2.7,0.3-3.3,0.4c-1.5,0-3.1,0.1-4.6-0.1c-1.9-0.2-3.7-0.9-5.5-1.3c-1.6-0.4-3.3-0.7-5-0.9c-1.4-0.2-4-0.8-5.4-0.1
		c-1.1,0.7-2,1.9-2.5,3.1c-1.9,3.5-2.4,6.8-1.4,10.5c0.6,2.2,2,4.2,3.4,5.9c0.3,0.4,2.8,2.8,2.9,2.6s-1.1-2.5-1.3-2.9
		c-0.3-0.7-0.5-1.4-0.6-2.1c-0.3-1.3-0.3-2.6-0.5-4c-0.1-1,0-2.1,0.1-3.1c0.2-1.3,0.5-2.5,1-3.8c0.1-0.2,0.8-2.2,0.8-2.2
		c0.3-0.1-0.2,1.2-0.2,1.3c-0.2,0.7-0.4,1.3-0.6,2c-0.2,0.8-0.5,1.8-0.5,2.7c0,1.4,0.2,3,0.6,4.3c1.7-1.1,3.4-2.1,5.3-2.7
		c1.2-0.4,2.7,0.1,4,0.3c2,0.2,4.1-0.2,5.9,0.7c0.8,0.5,1.8,0.9,2.6,1.5c0.4,0.3,0.8,0.6,1,0.9c0.4,0.4,0.7,0.5,0.9,0.6
		c0.2,0.1,0.7,1,0.8,1.3c0.4,0.6,0.5,1.1,0.7,1.7c0.4,1.2,0.8,2.5,1.5,3.7c0.6,1,1.3,2.1,2.2,2.9c0.2,0.2,1.8,2.1,2.3,1.8
		c-0.2,0.2-2.5-4.4-2.7-5.1c-0.4-1.3-0.4-2.2-0.4-3.5c0.1-2.3,0-4,0.8-6.1c0.6-1.7,1.1-2,2.7-2.5c1.3-0.6,2.5-1.2,3.9-0.8
		c0.7,0.2,1.6,0.4,2,1c0.3,0.5,0.2,1.5,0.3,2c0.2,1.6,0.4,3.3,0.1,4.9c-0.1,0.8-0.5,1.7-0.8,2.4c-0.1,0.2-1.4,2.3-1.5,2.3
		c0.2,0.3,2.5-2.8,2.7-3c0.7-1.1,0.8-2.3,1-3.5c0.3-1.8,0.4-3.7,0.5-5.4c0-0.9,0.1-1.9-0.1-2.8c-0.1-0.4-0.3-1.9-0.6-2.1
		c1.6,0.8,0.9,3.4,2.1,4.2c0.7,0.6,1.6,0.9,2,1.9c0.2,0.6,0.1,1.2,0.2,1.8c0.1,1.6,0.4,3.4,0.2,5c-0.1,0.8-0.4,1.4-0.7,2.2
		c-0.1,0.2-0.5,1.7-0.7,1.7c0.4,0,1.1-1.8,1.2-2.1c0.5-0.9,0.8-1.9,0.9-3c0.4-2,0.8-3.8,0.9-5.8c0.1-2.3-0.5-4.3-2.3-5.7
		c-1-0.8-2.3-1.3-3.5-1.8c-0.7-0.3-2.8-1-3.5-0.5c0,0.1,0.1,0.1,0.2,0.1c0,0-3.9,0.1-4.1,0.4c0.2-0.6,1.9-0.9,2.3-1
		c0.8-0.2,1.7-0.5,2.4-0.5c1.7,0,3.5,0.9,5.1,1.4c1.5,0.5,2.3,0.8,3.5,2c0.8,0.8,1,1.3,1.3,2.4c0.8,3.5,1,7.1,1.1,10.6
		c0,1.3-0.3,2-1,3.2c-1,1.7-2.2,3.7-3.7,4.9s-3.5,2-5.3,2.4c-0.9,0.3-1.9,0.6-2.8,0.8c-0.3,0.1-1,0.2-1.6,0.3
		C149.9,548.3,149.9,548.3,149.8,548.3z M115.5,489.3c2.5,0.2,4.8,0.4,7.3,0.2c1.1-0.1,2.3-0.2,3.3-0.4c0.7-0.1,0.6-0.2,1,0.3
		c0.4,0.4,0.7,0.8,0.9,1.2c-3.4,0.2-6.7,0-10,0.1c-1.5,0-3.5-0.1-4.7,0.8c-1.2,0.8-2.3,1.9-3.1,3.1c-1.2,1.6-1.6,3.9-1.8,5.9
		c-0.2,2.2-0.2,4.1,0.7,6.1c0.7,1.6,2,4.1,3.8,4.5c1.6,0.3,0.7-2.3,0.6-3.1c-0.3-2-0.6-3.8-0.6-5.8c0-1.1,0.2-2.3,0.5-3.4
		c0.2-0.8,0.4-2.3,1-3c0,0-0.2,0.5-0.1,0.6c0.1,1.1-0.7,3-0.7,4.5c0.1,1.7,0.1,3.6,0.6,5.2c1.6-2,3.6-3.6,6-4.3
		c0.8-0.3,1.7-0.6,2.5-0.6c1.2,0,2.5,0.3,3.8,0.4c3.7,0.2,7.4-0.2,11.2,0.2c1.2,0.2,2.3,0.4,3.5,0.8c1,0.5,2.3,0.7,2.9,1.6
		c0.8,1.1,1.4,2.3,2.1,3.6c0.5,0.8,0.9,1.6,1.4,2.4c0.3,0.5,0.9,2.3,1.7,2.3c0.1,0,0-0.7-0.1-0.9c-0.3-1.2-0.5-3.6-0.5-3.8
		c-0.1-2,0.1-3.9,0.5-5.9c0.4-1.8,0.6-3.7,1.1-5.4c0.1-0.5,1.2-3.2,1.2-3.2c0.3,0,0,1.4-0.1,1.5c-0.3,0.9-0.3,1.9-0.3,2.8
		c0,1.7,0.2,3.5,0.3,5.2c0.1,1.5,0.4,2.9,0.5,4.4c0,0.4,0.3,3.8,1.4,4.9v-0.5c0.1,0,0.1,0.1,0.2,0.1c0.1-0.3-0.3-1.4-0.4-1.8
		c-0.1-0.8-0.2-1.7-0.2-2.4c0-2.1,0.7-3.9,0.9-5.9c0.2-1.7,0.3-3.4,0.8-5.2c0.1-0.5,1-4.3,1.2-4.3c0.3,0,0,2.6,0,2.8
		c-0.1,0.6-0.5,2.1,0,2.3c0.4,0.2,1.2-0.3,1.7-0.3c0.4,0,0.6,0,0.9,0.2c1.2,0.5,2.4,1.3,3.7,1.7c0.5,0.2,0.7,0,1,0.4
		c0.6,0.6,0.8,1.5,0.9,2.2c0.4,1.4,0.2,2.9-0.1,4.4s-0.8,2.9-1.5,4.3c-0.2,0.5-1.1,3.6-1.8,4c0.8-0.4,2.2-3.3,2.6-3.9
		c0.8-1.2,1.4-2.5,1.9-3.9c1.2-3.1,1-6.6,0.2-9.8c-0.4-1.3-1.1-2.1-2.1-3c-1.2-1.3-2.5-2.8-4.2-3.7c-1.3-0.7-3.2-0.7-4.6-0.8
		c-1.3-0.1-2.6-0.1-3.9,0c0.4-0.8,0.1-1.4,1-1.5c1.1-0.2,2.3,0,3.4,0.1c1,0.1,2.1,0.3,3,0.6c0.4,0.1,0.8,0.2,1.1,0.3
		c0.9,0.3,1.5,0.7,1.5,0.7s4.1,2.8,4.5,3.1c1.3,1,1.9,2.1,2.4,3.6c1.3,3.3,1.9,6.9,1.5,10.4c-0.5,3.5-1.8,6.9-2.6,10.2
		c-0.4,1.5-0.7,3.4-2.1,4.2c-1.1,0.6-2.1,0.9-3.1,0.4c-1.4-0.8-2.8-1.7-4.4-2.3c-1.4-0.6-3.1-0.6-4.6-0.7c-3.2-0.1-6.4-0.1-9.6,0.1
		c-1.5,0.1-2.9,0.2-4.4-0.1c-2-0.4-3.8-1-5.7-1.6c-3.5-1-7.3-1.1-10.9-1.7c-3.7-0.6-7.8-0.6-11-2.8c-2.8-2-4.7-5.9-4.5-9.4
		c0.1-2.8,0.9-6.1,2.4-8.5C109.9,491.6,112.8,489,115.5,489.3z M114.5,480.9c-0.1,0.1,0.8,1.9,0.9,2c0.3,0.6,0.6,1.1,0.9,1.6
		c0.9,1,2.3,0.9,3.6,1c1.2,0,2.5-0.1,3.8-0.2c1-0.1,1,0.1,1.5,1c-2.4,0.2-5.1,0.8-7.5,0.4c-1.7-0.3-2.3-0.9-2.6-2.4
		C114.8,483.3,114.4,482,114.5,480.9z M142.3,472.9c0.8,0.4,1.8,0.7,2.7,0.7c0.6,0,1.1-0.1,1.7-0.3c0.3-0.1,0.8-0.6,1.1-0.7
		c0.1,0,1.7,9.3,1.8,10.1c0.1,1.5,0.3,3.3-0.1,4.7c-0.4,1.3-2.1,2.2-3.4,2.4c-3.2,0.7-6.1,0-8.4-2.3c-1.3-1.2-2.3-2.5-2.6-4.4
		c-0.2-1.3-0.2-2.7-0.2-4c0.1-2.3,0.6-4.4,1.3-6.5c0.3-0.8,0.6-1.5,1.1-2.2c0.5-0.6,0.4-0.6,0.9-0.4c0.7,0.3,1.2,0.9,1.8,1.3
		C140.7,472.1,141.5,472.5,142.3,472.9z M141.2,468.4c0.1-0.4,0.7-1.5,1-1.7c0.5-0.3,1.8-0.1,2.3,0c2.3,0.2,2.9,2,3,4.1
		c0,0.6,0,0.7-0.6,0.9c-0.8,0.5-1.9,0.3-2.7,0C142.8,471.5,140.7,470.1,141.2,468.4z M145.1,427.5c1.8-0.8,3.6-1.9,5.4-2.5
		c0.9-0.4,8.2-1.5,8.2-1.3c-0.1-0.6-2-0.9-2.3-1c-1.2-0.5-2.5-0.9-3.8-1.2c-2.1-0.6-4.4-1.1-6.6-0.8c0.9-0.7,1.9-1.2,2.8-1.7
		c1.1,0.3,2.2,0.6,3.3,0.8c1.7,0.4,3.5,0.8,5.1,1.4c3.8,1.3,6.9,3.8,10,6.4c1.7,1.5,2.8,2.7,4,4.7c1,1.7,1.9,3.6,2.5,5.4
		c1.4,4.4,2,9.5-0.9,13.3c-1.1,1.4-3.3,3.2-5.1,3.7c-0.9,0.2-2.2,0.1-3.1,0.2c-0.6,0-1,0-1.6-0.1c-0.3-0.1-2.3-0.4-2.3-0.7
		c-0.1-0.5,3.3-0.3,3.8-0.4c1.5-0.1,3.1-0.3,4.4-1.1c2-1.3,4.7-3.8,4.8-6.5c0.1-1.4-0.2-3-0.4-4.3c-0.2-1.5-0.5-3-1.1-4.4
		c-0.8-1.8-2.2-3.3-3.5-4.7c-0.8-0.8-1.6-1.6-2.5-2.3c-0.6-0.5-1.4-1.5-2.1-1.8c-0.1,0,0.1,0.6,0,0.6c0.1,0.2,0.4,0.6,0.6,0.7
		c0.6,0.8,1.2,1.5,1.8,2.3c1.9,2.7,3.7,5.7,4.4,9.1c0.2,0.9,0.6,2.3,0.3,3.3c-0.4,1.3-2.5,2.1-3.8,2.3c-0.6,0.1-1.6,0-2.2,0.2
		c-0.4,0.2-0.3,0.3-0.5,0.8c-0.2,0.6-0.3,1.2-0.5,1.8c-0.1,0.3-0.5,1.1-0.5,1.4c0-0.2,0.3-1,0.1-1.1l-0.3,1c-0.1,0,0-0.3,0-0.3
		c-0.2-0.7,0.2-2.3,0.2-3.3c0-2.1-0.4-4.1-1-6.1c-0.6-1.7-1.1-3.4-1.6-5c-0.3-0.9-0.6-1.9-0.9-2.7c-0.1-0.3-0.3-1.3-0.6-1.5
		c-0.7-0.5-0.1,2-0.1,2.3c0.3,1.3,0.6,2.5,0.9,3.8c0.7,2.3,0.8,5.1,0.3,7.5c-0.4-0.1-0.7-0.2-1-0.3c-0.1,0-1-0.7-1.1-0.7
		s-0.9,3.3-0.8,3.5c-0.1-0.6,0.2-1.5,0.2-2.1c0-1.1,0-2.3-0.1-3.4c-0.2-2.7-0.5-5.4-1.1-8.1c-0.5-1.9-0.3-2.9,0.8-4.6
		c0.6-0.8,1.2-1.8,2-2.4c0.4-0.3,0.8-0.5,1.1-0.7c0.2-0.1,0.4-0.1,0.6-0.3l0.2-0.6c-0.4,0-3.8,0-4.3,0.2c0.1-0.1,0.1-0.1,0.1-0.1
		c-0.8-0.4-2.2,0.4-3,0.6c-1.7,0.4-3.4,0.5-5.1,0.8c-1.3,0.3-2.6,0.7-3.9,0.9c-0.3,0.1-2.4,0.8-2.6,0.5
		C142.3,428.8,144.9,427.5,145.1,427.5z M160,483c-0.7-1-1.1-2.1-1.5-3.2c-0.6-1.9-0.8-3.8-1.1-5.8c-0.3-1.8-0.8-4.2-0.1-6
		c0.2-0.6,0.6-1.5,1-1.9c0.2-0.1,0.6-0.1,0.8-0.2c0.4-0.2,0.7-0.8,1.1-1c2.4-0.9,3.1,3.8,3.6,5c0.6,1.9,0.4,4.1,0.4,6
		c0,1.2,0.1,2.5,0.2,3.8c0,0.4,0,0.8-0.1,1c0,0.1-0.4,0.5-0.4,0.5c0,0.4,0.8-0.8,0.8-0.9c0.3-0.8,0.6-1.5,0.8-2.3
		c0.5-1.3,0.6-2.7,0.6-4.1c0-1.3,0.3-2.4,0.5-3.7c0.2-0.8-0.3-1.3,0.1-2.1s1-2.2,2-1.5s2.1,2.3,2.5,3.4c0.4,0.7,0.8,1.4,1,2.2
		c0.3,1,0.3,2.4,0.5,3.5c0.2,1.3,0.5,2.8,0.4,4.2c-0.1,0.7-0.3,1.3-0.6,1.9c-0.2,0.5-0.4,0.9-0.7,1.4c-0.2,0.3-0.8,0.9-0.8,1.3
		c0-0.1,1.1-1.3,1.2-1.4c0.3-0.5,0.9-1.9,1.4-2.1l0.1,0.6c0.3-0.6,0.5-1.7,0.6-2.3c0.2-0.9,0.3-1.9,0.4-2.8c0.1-1.7,0.3-3.2,0.2-4.9
		c-0.2-1.6-0.5-2.8-1.2-4.3c-0.9-2-1.4-4-3.1-5.5c-2.3-2.2-5.4-3.6-8.5-4c-1.7-0.3-3.4-0.3-5.1-0.4c-0.7-0.1-1.2-0.1-2-0.1
		c-0.4,0-2.2,0.6-2.3,0.4c-0.1-0.1,0.2-1.2,0.3-1.3c0.3-0.3,1-0.3,1.4-0.4c1.1-0.2,2.3-0.5,3.4-0.5c2.3,0,4.6,0.8,6.9,1.1
		c0.9,0.1,1.8-0.1,2.5,0.3c1,0.5,2,1.3,2.9,2.1c1.6,1.3,2.9,2.7,3.8,4.6c1.2,2.4,2.3,5,3,7.6c0.8,2.7,0.4,5.7,0,8.4
		c-0.3,2.5-1.9,5.4-3.4,7.4c-0.8,1-1.9,2.1-2.8,2.9c-0.8,0.8-2.2,2.1-3.3,1.4c-2.5-1.5-4.3-4-7.2-5c-1.6-0.6-3.3-0.8-5-1
		c-1.3-0.2-2.7-0.8-4-0.3c0-0.5-0.1-0.9,0-1.4c0.2-0.3,2.2,0.1,2.4,0.2c1.1,0.1,2.2,0.2,3.3,0.3c0.8,0.1,1.4,0.3,2.2,0.3
		c0.4,0,1.9,0.4,2,0C161.1,484.4,160.2,483.3,160,483z M169,536.1c0-3.3-0.9-6.8-1.7-9.8l-0.3-1.1c-0.1-0.4-0.2-0.7-0.3-1
		c0.5-0.3,0.9-0.8,1.4-1.4c0.4-0.6,0.8-1.2,0.9-1.8l0.1-0.3c1-2.3,1.9-4.4,2.4-6.9l0.1-0.3c0.6-2.3,1.1-4.8,1.4-7.2
		c0.2-2.7,0-5.3-0.7-8.3c-0.1-0.3-0.1-0.6-0.2-0.8c-0.1-0.6-0.3-1.1-0.4-1.7c0-0.1-0.1-0.3-0.1-0.4c0.2-0.1,0.4-0.2,0.5-0.3
		c1-0.6,1.9-1.4,2.5-2.1c2-2,3.8-4.8,4.9-7.4c2.3-5.8,2.5-12.3,0.7-17.6c-0.9-2.6-2.2-5.9-4.3-8.8c-0.8-1.1-1.8-2.1-2.7-3l0,0
		c1.9-1.6,4-3.8,4.9-6.7c1-3.4,0.4-6.9-0.3-10.1l-0.1-0.5c-0.4-2.2-1.1-4.2-2.3-6.3c3.2,3.8,6.3,8.4,9.5,13.6l-9.2,96
		c-2.3,2.8-5.7,5.5-9.8,5.6c-0.4,0-1.1-0.1-2-0.4c0.5-0.6,1-1,1.5-1.6c0.9-1.1,1.4-2.3,1.9-3.4c0.2-0.4,0.3-0.8,0.5-1.2
		C168.6,539.3,169,537.8,169,536.1z M120.6,411.7c15.4-26.1,35.4-17.2,48.5-11.3c1.2,0.6,2.4,1.1,3.6,1.5c4.6,2,8.5,2.5,11.6,2.3
		c-0.9,2.8-0.8,6.1,0.1,8.6c0.3-1.3,1.9-3.5,4.5-5.8l-1.5,14.6c-3.2,0-3.3,2.3-3.4,8.5c-1.7-2.6-3.6-5.7-2.1-10.6c0,0-5.6-0.7-9.1-1
		c-3.8-2.8-11.6-6.7-19.6-5.4c-1.1,0-2.3,0.1-3.4,0.4c-5.4,1.1-10,5-13.9,11.2l0,0l-4.1-1.7c1-1.8,1.7-2.8,3-4.4
		c2.7-3.3,5.9-6.2,9.9-7.8c0.9-0.5,2-0.8,3-1l1.5-0.4c0.5-0.1,1-0.1,1.6-0.2c2.2-0.3,4.3-0.3,6.5,0c4.4,0.5,8.7,1.8,13.1,3.4
		c-3.8-2.6-8-4.7-12.6-5.8c-4.6-1-9.7-1-14.3,0.8c-4.7,1.7-8.5,5-11.5,8.7c-1.3,1.8-2.5,3.6-3.6,5.4c-4-1.6-8.3-3.3-10.8-4.4
		C118.7,415.3,119.6,413.4,120.6,411.7z M-59.9,460.2c0.8,0.2,1.7,0.2,2.3,0.3c2.5,0.5,5.2,1,7.7,1.5c3.8,0.7,7.4,1.4,11.2,2.2
		c3.5,0.8,6.9,1,10.4,1.6c7.1,1.1,14.3,2.1,21.5,2.9c5.8,0.7,11.6,1.5,17.5,1.5c3,0,6,0.3,9.1,0.3c3.5,0,7-0.2,10.5-0.4
		c3.4-0.2,6.9-0.5,10-1.8c1.6-0.7,3.1-1.7,4.5-2.7c0.2-0.1,2.8-2.2,2.7-2.3c0.3,0.2-2.5,3.1-2.7,3.4c-1.3,1.3-2.8,2.1-4.3,3
		c-3.1,1.9-6.9,2.6-10.5,3.1c-3.9,0.5-7.9,0.3-11.8,0.1c-3.5-0.1-6.9-0.3-10.4-0.6c-4.8-0.4-9.6-0.9-14.3-1.6
		c-3.5-0.5-6.9-0.7-10.3-1.3c-2.7-0.5-7.3-1.1-10-1.4c-4.7-0.4-9.3-1.6-13.9-2.3c-3.8-0.7-7.6-1.2-11.4-1.8
		c-2.7-0.4-5.7-0.5-8.4-1.1C-60.5,461.9-60.2,461-59.9,460.2z M131.1,563.6c-1.8-0.3-3.6-0.6-5.3-1c-1.5-0.5-3.1-0.9-4.7-1.1
		c-0.8-0.1-10.9-0.3-10.9-0.3s8.4,2.2,8.3,2.3c-0.3,0.3-1.2,0.3-1.5,0.4c-0.9,0.2-1.8,0.4-2.7,0.5c-1.7,0.3-3.5,0.6-5.2,0.9
		c-2,0.4-4,0.8-6.1,0.9c-1.6,0.1-3.2-0.2-4.8-0.5c-3.5-0.5-7-0.8-10.4-1.6c-1.7-0.4-3.3-1-4.9-1.5c-1.9-0.6-3.8-0.9-5.8-1.4
		c-4-1.1-8.2-1.6-12.3-2.4c-3.2-0.7-6.5-1.3-9.7-1.7c-3.4-0.4-6.8-0.6-10.1-0.8c-3.2-0.3-6.3-0.5-9.5-0.3
		c-13.9,0.7-27.7,2.3-41.5,3.6c-11.6,1.1-23.3,1.7-34.9,2.8c-3.8,0.4-7.7,0.9-11.6,0.9c-1.6,0-3.2-0.1-4.8,0
		c-1.2,0.2-2.4,0.4-3.7,0.6c-0.5,0.1-1.7,0.1-2.7,0.3c-2.2-11.9-2.8-55,0.1-83.4c0.6,0.2,1.2,0.2,1.6,0.3c1.9,0.5,3.7,1,5.6,1.4
		c4.1,0.7,8.2,1.2,12.3,1.8c4.3,0.6,8.6,1,12.9,1.8c2.4,0.5,5,0.7,7.5,0.8c3.1,0.2,6.2,0.7,9.3,1c2.7,0.4,5.4,0.5,8.3,0.5
		c1.5,0,3.1,0,4.6,0c0.4,0,1.7,0.2,2-0.1c-0.1,0.1-2.5-0.6-2.7-0.6c-1.7-0.4-3.3-0.8-5-1.2c-3.8-1-7.8-2-11.6-2.8
		c-2.5-0.6-5-1.1-7.5-1.8c-1.4-0.4-2.8-0.8-4.3-1.2c-0.2,0-2.6-0.9-2.6-0.8c0.3-0.3,3.1,0.6,3.5,0.7c1.3,0.3,2.6,0.6,3.9,0.8
		c3.7,0.5,7.3,0.8,10.9,1.1c6,0.7,11.9,2.3,17.9,2.6c2.6,0.1,5.3,0.1,7.8,0c3.3-0.1,6.8-0.5,10-0.1c1,0.1,2.1,0.3,3,0.5
		c0.7,0.1,1.2,0.4,1.8,0.8c2.8,2.1,5.4,4.1,7.3,6.9c2.5,3.7,4.4,7.9,5.5,12.2c0.5,2,0.8,3.9,1,5.9c0.1,0.8,0.3,1.6,0.4,2.3
		c0.1,0.3,0.1,1.2,0.3,1.4c0.2,0.1,0-0.7,0-0.7c0-0.7,0-1.2,0.1-1.9c0.1-1.4,0.4-2.8,0.6-4.1c0.2-2.2,0-4.2-0.2-6.4
		c-0.1-1.6-0.8-3-1.1-4.6c-0.3-1.1-0.5-2.3-0.7-3.4c-0.1-0.3-0.5-1.8-0.3-2.1c-0.1,0.1,0.8,1.9,0.8,2c0.4,0.8,0.7,1.7,1,2.5
		c0.8,2,1.9,3.8,2.7,5.7c1.4,3.2,2.5,6.6,3.2,10c0.6,3.1,0.3,6.1,0.6,9.2c0.1,1.4,0.5,2.8,0.3,4.2c-0.2,2-0.5,3.9-0.3,5.9
		c0.3,2.3,0.9,4.4,1.7,6.6c0.2,0.7,0.5,1.2,0.8,1.9c0.1,0.2,0.5,2.2,0.6,2.2c0.4-0.2,0.3-1.7,0.2-2.1c0-1-0.2-2-0.4-3
		c-0.4-2.1-0.3-3.9-0.2-6c0.3-4.3,1-8.5,1.4-12.9c0.2-2.3,0.5-4.2-0.3-6.4c-0.8-2.1-1.3-4.1-2.2-6.1c-1.3-3.1-2.8-6.2-3.5-9.5
		c-0.5-2.2-1-4.4-1.3-6.6c-0.2-1.2-0.4-2.4-0.3-3.7c0-0.5,0.3-2.3,0.9-2.3c-0.4,0,1.1,7.4,1.3,8.1c0.8,2.9,1.4,5.7,2.5,8.5
		c1.4,3.8,3.4,7.3,4.1,11.3c0.8,3.9-0.3,7.9-0.4,11.9c-0.1,3.9-0.1,7.9-0.1,11.8c0,1.4,0.1,2.7,0.5,4c0.5,1.8,1,3.5,1.6,5.3
		c0.5,1.4,0.8,2.8,1.2,4.2c0.3,0.7,0.7,1.3,0.9,2c0.1,0.2,0.4,1.4,0.5,1.4c0.7,0.2,0.6-2,0.6-2.1c0.1-1.1,0.2-2.3,0.5-3.4
		c0.3-1,0.7-2.3,1.3-3.1c0.2-0.3,0.9-1.2,1.3-1.2c0.6-0.1,1.6,0.4,2.2,0.5c1.1,0.1,2.3,0,3.3-0.2c0.5-0.1,4.1-1.2,3.8-1.6
		c0,0-2.1,0.7-2.3,0.7c-0.7,0.1-1.2,0.1-1.9,0c-1.2-0.2-2.3-0.8-3.4-1.4c-0.7-0.4-1.3-0.7-1.9-1c-0.5-0.4-1.8-2.2-2.3-2.1
		c0.1,0.1,0.1,0.2,0,0.2c-0.1-0.1-1.4-1.7-1.4-1.7c0.1-0.2,4.1,2.5,4.5,2.8c2,1.2,3.8,1.2,6.1,0.7c2.3-0.6,4.6-2,6.7-3.3
		c1-0.8,2.1-1.5,3.1-2.3c0.4-0.3,1.8-1.6,2-1.6c-0.3,0-0.8,0.5-0.9,0.6c-0.5,0.3-0.9,0.5-1.3,0.8c-1.1,0.6-2.3,1.1-3.4,1.6
		c-1.5,0.8-2.7,1.1-4.3,1.3c-2.3,0.3-4.6,0.1-6.7-1.3c-0.9-0.7-1.8-1.6-2.5-2.5c-0.2-0.2-1.6-1.9-1.4-2.2c-0.1,0.2,2.3,2.3,2.6,2.4
		c0.8,0.6,1.6,1,2.5,1.3c0.3-1.1,0.1-2.3,0.1-3.4c0-1.4,0.4-2.8,0.8-4.2c0.3-0.9,0.9-1.7,1.6-2.3c0.2-0.2,2.2-2.3,2.2-2.3
		c-1.3-0.8-2.7-1.2-4-2.2c-0.7-0.8-1.6-1.8-2.5-2.7c-0.8-0.8-1.7-1.8-2.4-2.7c-0.3-0.3-0.9-1.4-1.2-1.5c0.7,0.4,1.3,1.3,1.9,1.8
		c0.8,0.7,1.6,1.3,2.4,2c1.9,1.3,3.8,2.3,6,3c1.5,0.7,3.1,0.9,4.7,0.9c1.2,0,2.3-0.3,3.5-0.5c0.3-0.1,2.9-0.9,3-0.8
		c-0.7-0.5-2.4-0.3-3.2-0.4c-1.3-0.1-2.5-0.3-3.7-1c-1.3-0.8-2.4-1.8-3.3-3.1c-0.7-0.9-1.4-2.5-1-3.7c0.1-0.2,4,0.6,4.5,0.6
		c0.1,0,1-0.4,1-0.3c-0.1-0.1-2.3-0.8-2.5-0.8c-1.4-0.7-2.6-1.4-3.8-2.4c-1.3-1.1-2.5-2.4-3.7-3.8c-0.1-0.2-2.1-3-1.8-3.1
		c0.3,0,1.4,1.2,1.6,1.4c0.7,0.6,1.3,1.1,2,1.6c1.2,0.9,2.6,1.7,3.9,2.4c1.8,0.9,3.8,1.5,5.8,1.8c1,0.2,2.1,0.2,3.1,0.2
		c0.6,0,2.3,0.2,2.6-0.2c0,0-1.8-0.5-2-0.5c-0.9-0.3-2-0.6-2.9-0.9c-1.4-0.6-2.7-1.4-3.9-2.3c-2.4-1.7-5.1-3.6-6-6.6
		c-0.8-2.6-1-5.3-0.4-8c0.7-2.9,1.5-5.9,3.1-8.4c-0.1,0.2,8.6,5.4,9.5,5.9c2.1,0.9,4.2,1.6,6.5,2.1c1,0.2,2.1,0.4,3.1,0.5
		c0.3,0,1.5,0.4,1.7,0.1c0,0.1-1.9-0.5-2-0.6c-0.7-0.2-1.5-0.8-1.9-1c-2-1-4-1.5-5.9-2.8c-2.2-1.6-4.3-3.6-6.2-5.5
		c-1.9-1.9-3.8-4.2-4.6-6.8c-0.7-1.9-1-4-1.3-6c0.9,3.4,2.8,6.9,5.5,9.2c1.1,0.9,2.3,1.8,3.6,2.6c0.8,0.6,2.2,1.3,3,1.8
		c0.4,0.2,0.8,0.4,1.1,0.4c-0.3,0-1.3-1.2-1.5-1.4c-0.7-0.6-1.2-1.1-1.8-1.8c-1.1-1.1-2.1-2.3-3-3.6c-1.4-1.8-1.5-4.8-0.7-6.9
		c0.6-1.4,1.4-2.6,2.2-3.9c0.4-0.6,0.7-1.1,1-1.6s1-1,1.2-1.6c0.1-0.6-0.8-1.9-0.9-2.4c-0.6-1.4-0.9-2.8-1.4-4.3
		c0.8,0.6,1.3,1.8,1.8,2.5s1,1.3,1.6,1.9c1.3,1.4,2.8,2.5,4.4,3.6c1.9,1.2,3.8,2.5,5.7,3.5c0.7,0.3,1.3,0.5,2,0.8
		c0.4,0.2,0.8,0.3,1.2,0.4c0.2,0.1,0.9,0.1,1,0.2c-0.3-0.3-0.9-0.5-1.3-0.8c-0.6-0.4-1-0.8-1.6-1.1c-1.2-0.8-2.4-1.6-3.6-2.6
		s-2.3-2.1-3.3-3.3c-0.9-1-1.4-1.5-0.6-2.7c0.4-0.5,0.7-1,1-1.5c0.3-0.4,0.8-0.7,1-1c0.3-0.6-0.7-1.8-1-2.4c-0.4-0.8-0.8-1.6-1-2.4
		c-0.1-0.4-0.8-1.2-0.8-1.5s0.6,0.5,0.6,0.4c0.4,0.5,0.7,0.9,0.9,1.4c0.5,0.7,0.9,1.4,1.5,2.1c1.2,1.5,2.7,2.8,4.2,4s3.2,2.3,5,3.3
		c0.8,0.4,1.5,0.7,2.3,0.9c0,0,1.7,0.6,1.3,0.1c0,0.1-0.6-0.1-0.6-0.1c-0.6-0.3-1.1-0.8-1.6-1.2c-1-0.9-2.1-1.9-3.1-2.8
		c-1.5-1.3-3.2-2.6-3.9-4.5c-0.4-0.9-0.8-2.3-0.8-3.5c0-0.9,0.6-1.9,0.3-2.7c-0.5-1.7-2-3.2-3-4.7c1.8,1.3,3.8,2.3,5.7,3.4
		c1.3,0.8,2.6,1.4,4,2.1c0.5,0.2,2.2,1.4,2.7,1.2c-0.2,0.1-2.6-2.3-2.8-2.5c-1-0.9-2.8-2-2.3-3.6c0.1-0.4,0.6-0.8,0.7-1.2
		c0.1-0.5-0.3-0.8-0.5-1.3c-0.3-0.8-0.5-1.7-0.6-2.5c-0.1-0.4-0.5-2.3-0.2-2.6c-0.1,0.1,0.5,1.9,0.5,2c0.3,0.9,0.8,1.9,1.2,2.7
		c0.7,1.1,1.2,2.2,2.1,3.1c1.2,1.4,2.7,2.6,3.9,4c0.3,0.4,2.3,3.6,2.6,3.6c-0.1,0-1.2-2.9-1.4-3.1c-0.5-0.9-1-1.9-1.6-2.7
		c-1.1-1.7-3.2-3.9-3-6.1c0.1-0.6,0.6-1.5,1-1.1c0.4,0.3,0.6,1.2,0.8,1.6c0.3,0.6,0.7,1.2,1.1,1.7c0.5,0.7,0.9,1.2,1.5,1.8
		c0.1,0.1,0.8,1.1,1.1,1.3c-0.5-0.4-1.6-3.4-1.7-3.8c-0.5-1.3-0.8-2.7-1.1-4c-0.2-0.8-0.9-7.9-0.2-8c-0.2,0,0.7,3.3,0.7,3.6
		c0.1,0.5,0.5,3.4,0.9,3.6c0.1,0,0-1.8,0-1.9c0-0.6,0.2-1,0.4-1.5c0.3-0.8,0.8-2.7,1.6-3.1c0.2-0.1,0.4,0.1,0.5,0
		c0.2-0.1,0.4-0.3,0.6-0.5c0.5-0.4,0.9-0.7,1.6-0.8c1.1-0.3,2.3-0.1,3.4-0.1c1.8,0,3.5-0.4,5.2,0.1c0.7,0.2,1.4,0.4,2.1,0.3
		c0.1,0,0.1-0.3,0.2-0.3c0.3-0.1,0.6,0.1,0.8,0c0.3,0,0.6-0.2,0.8-0.3c-4.3-1-8.1-3.6-12.4-4.5c-3.9-0.9-8.4-1.7-12.4-0.7
		c-3.6,0.9-6.5,4.5-8.8,7.1c-2.4,2.7-5,5.4-6.8,8.6c-2,3.7-1.9,8.2-1.6,12.2c-0.8-1.2-1.3-2.5-1.6-4c-0.2-0.8-0.3-1.7-0.2-2.5
		c0-0.2,0.3-2.2,0.2-2.2c0,0-5.6,5.7-6.2,6.3c-2.2,2.1-4.1,4.1-6,6.4c-2.2,2.5-4.3,5-6.3,7.6c-2,2.7-2.8,5.6-2.7,8.9
		c0.1,2,0.3,4,0.8,5.9c0.1,0.3,0.6,3,0.8,3.5c-0.3-0.3-0.9-2.2-1-2.3c-0.6-1.4-1-2.7-1.4-4.1c-0.1-0.5-0.8-4.9-0.6-4.9
		c-0.5,0-1.2,3.2-1.3,3.7c-0.4,1.9-0.6,3.8-0.7,5.8c-0.2,3.1,0,6.1,0.7,9.1c0.7,3.2,1.4,6.4,2.4,9.6c0.6,1.9,1.1,3.7,1.9,5.4
		c0.1,0.2,1.3,3.2,1.1,3.3c-0.1,0-0.9-1.7-0.9-1.8c-0.4-0.8-0.8-1.5-1.1-2.3c-0.8-1.9-1.5-3.8-2.1-5.8c-1.3-4.2-2.5-8.4-3.2-12.9
		c-1-7.3,0.5-15.3,5.2-21.1c2.2-2.7,4.7-5.2,6.8-8c2-2.6,4.5-4.7,6.9-7c2.6-2.7,5.1-5.5,7.5-8.4c2.2-2.4,4.1-5,6.3-7.4
		c2.3-2.6,4.4-5.7,7.2-7.9c3.1-2.3,6.2-3.7,10-3.6c4.4,0.2,8.9,0.7,13.1,2.6c4.1,2.1,8.4,3.8,12.8,5.4c5.1,2,10.1,3.9,15.3,5.7
		c1.4,0.6,2.8,1.1,4.1,1.9c2.7,1.4,5.5,3.1,7.1,5.8c1.7,2.7,1.7,5.5,1.8,8.6c0.1,4-2,7.6-2.2,11.6c-0.3,5.4,0.2,11.1,0.2,16.6
		c0,0.8,0,1.7,0,2.5l-0.1,1.3c-0.6-0.5-0.4-2.6-0.5-3.3c-0.3-1.2-0.6-2.6-0.8-3.9c-0.3-1.7-0.4-3.9-1.4-5.4
		c-0.8-1.2-2.4-1.3-3.8-1.5c-1.8-0.2-3.4,0.5-5.1,1c-1.8,0.6-3.5,1.6-4.4,3.3c-0.8,1.6-0.9,3.5-1,5.3c0,0.5-0.6,5.7-0.5,5.7
		c0-0.1-0.1-0.1-0.1-0.2c0.1,0,0.2,4.3,0.3,4.3c-0.8,0.1-1-8.8-1-9.9c0-1.6,0.4-3.2,0.9-4.7c0.6-1.6,1.7-2.6,2.8-3.8
		c0,0-0.1,0-0.2,0c0-0.1,0.7-0.8,0.7-0.8c-0.9,0.1-2.4,2-3,2.5c-0.7,0.7-1.2,1.4-1.8,2.2c-0.1,0.1-1,1.6-1,1.6
		c-0.7-0.9-0.8-2.7-1-3.9c-0.3-1.4-0.7-2.5-0.1-3.8c0.7-1.6,1.5-3.3,2.9-4.3c1.6-1.1,3.7-1.9,5.5-2.4c0.1,0,1.4-0.3,1.4-0.5
		c-0.1-0.4-1.8,0.1-2,0.1c-1.4,0.2-2.7,0.5-4,0.8c-1.6,0.6-3.2,1.2-4.7,2.1c-0.8,0.5-1.5,0.9-2.3,1.5c-0.3,0.2-1.8,1.3-1.8,1.5
		c0-0.4,1.1-1.7,1.3-2.1c0.5-0.7,0.9-1.2,1.5-1.8c0.5-0.5,1.6-1,1.9-1.6c0.2-0.4,0-0.8,0-1.2c-0.2-2.9-0.2-5.7-0.5-8.6
		c-1.2,0.8-2.5,1.4-3.6,2.3c-1.3,1.1-2.4,2.5-3.6,3.8c-1.1,1.4-1.6,3.5-2.2,5.2c-0.7,2.2-0.3,4.7,0.2,6.9c0.5,2.3,1.2,4.6,2.3,6.8
		c0.9,2.1,1.9,4.1,2.9,6.2s2.3,3.9,3.7,5.9c1.4,2,2.6,4,4.5,5.6c2.1,1.8,4.9,2.9,7.6,3.1c1.5,0.1,3.1-0.1,4.6-0.5
		c0.8-0.2,1.4-0.7,2.2-0.8c0,0.1,0,0.1,0,0.2c0.2,0,0.3-0.3,0.5-0.4c0.2,0-0.5,0.5-0.6,0.6c-0.4,0.3-0.8,0.6-1.3,0.8
		c-0.8,0.4-1.5,0.8-2.3,1c-1.1,0.3-2.4,0.4-3.7,0.4s-2.4-0.2-3.6-0.6c-0.8-0.3-2.7-1.4-2.8-1.5c-1.5-0.8-2.9-2.7-3.9-4.1
		c-0.7-0.8-1.3-1.7-1.9-2.6c-3.2-5.1-5.7-10.1-8-15.7c-1.7-4.3-2.1-8.6-0.8-13.1c1.1-4,4.1-7.3,7.5-9.8c2.2-1.5,4.3-3,6.7-4.1
		c0.4-0.2,6.1-2.5,6.1-2.3c0-0.4-6.1,1-6.6,1.1c-1.1,0.3-2.2,0.8-3.3,1.1c-0.5,0.2-0.9,0.4-1.5,0.6c-0.5,0.2-0.9,0.7-1.4,0.8
		c-0.6,0.2-0.3,0.3-0.9,0s-0.8-0.7-1.3-0.9c-0.6-0.3-0.3-0.4-0.8,0.1c-0.4,0.3-0.7,0.8-1,1.1c-0.8,0.9-1.4,2-2,3
		c-0.6,1.1-1.1,2.3-1.5,3.5c0,0.1-0.6,1.5-0.6,1.5c-0.2-0.3,0.1-1.2,0.2-1.4c0.1-0.8,0.3-1.6,0.5-2.3c0.2-1,0.5-2.2,0.8-3.2
		c0.7-1.7,2-3,3.2-4.3c0.7-0.8,8.3-5.5,8.4-5.3c-0.2-0.3-4.7,1.3-5.2,1.5c-1.9,0.7-3.6,1.8-5.5,2.3s-3.7,0.5-5.2-0.8
		c-0.8-0.7-1.1-1.5-1.5-2.3c-0.1-0.2-0.8-1.7-0.9-1.7c0.1,0-0.6,6.7-0.6,6.9c-0.1,1.4,0.1,2.8,0.4,4.1c0.2,0.8,0.3,1.7,0.3,2.5
		c0,0.3-0.3,2.3-0.2,2.3c-0.3-0.3-0.3-1.4-0.4-1.8c-0.2-0.8-0.4-1.5-0.5-2.3c-0.3-1-0.4-2.2-0.5-3.3c-0.3-2.2-0.3-4.5-1.1-6.5
		c-0.2,3.4-1.7,7-4.3,9.3c-0.5,0.5-1.4,0.8-1.2,1.5c0.1,0.6,1.1,1.3,1.5,1.7c0.8,0.8,1.6,1.4,2.3,2.3c0.3,0.3,0.9,1.1,1,1.5
		c0-0.3-2.6-1.4-3-1.6c-1.2-0.6-2.5-1.1-3.8-1.5c-2.1-0.6-4.3-1-6.6-1c5.1,0.8,9.2,4,12.9,7.4c1.9,1.8,3.6,3.2,3.5,6
		c0,1,0.1,2.9-1.3,2.7c-0.5-0.1-3.8-1.6-3.8-1.7c-0.1,0.3,1.3,1.5,1.6,1.8c0.8,0.8,1.4,1.8,2,2.8c0.2,0.4,1.3,2,1.1,2.3
		c-0.2,0.5-0.5-0.1-0.8-0.5c-1.3-1.4-2.7-2.5-4-3.9c-0.7-0.7-1.2-1.4-1.8-2.2c-0.2-0.3-0.7-1.5-1-1.7c0.1,0,0.6,1.7,0.7,1.9
		c0.4,0.9,0.8,2,1.3,2.9c0.8,1.7,2.3,3,3.1,4.8c0.8,1.7,1.1,3.6,1.6,5.4c0.1,0.4,0.7,2.2,0.3,2.4c-0.3,0.2-2,0-2.3,0
		c-1.7,0.1-3.6,0.3-5.1-0.8c-0.7-0.5-1.4-1.1-2.1-1.7c-1.3-1.1-2.5-2.3-3.9-3.3c-0.9-0.7-2.1-1.2-2.9-1.7l-1.3-0.8
		c0,0.3,1.7,1.3,1.9,1.6c0.8,0.8,1.6,1.8,2.3,2.7c1.1,1.5,1.8,3.4,3.1,4.7c1.5,1.5,3.3,1.4,5.2,2.2c2.2,0.8,1.3,2.5-0.1,3.7
		c-1.7,1.4-3.2,2.6-3.8,4.9c-0.7,2.1-1.1,4.2-1.7,6.3c-0.4,1.2-0.8,2.3-0.9,3.6c-0.2,1.3-0.2,1.9-1,3c-1.7,2-3.9,3.6-6,5.1
		c-1.9,1.4-4,2.3-6.2,3.4c-0.9,0.6-2,1-3,1.4c-0.2,0.1-2.6,0.8-2.5,0.9c0.7,0.6,3.3-0.6,4-0.8c1.7-0.3,3.4-0.7,5-1.3
		c2.6-0.9,5.1-2.4,7.7-3.5c1.1-0.5,2.1-1,3.1-1.7c0.4-0.2,2.3-1.8,2.6-1.6c0.2,0.1-3.6,3.7-3.8,3.8c-1.7,1.4-3.5,2.6-5.4,3.8
		c-1.4,0.8-2.8,1.7-4.2,2.4c-0.7,0.3-3.7,2.5-3.8,2.3c0.2,0.2,1.3-0.2,1.6-0.3c0.8-0.1,1.6-0.3,2.3-0.4c1.1-0.2,2.2-0.4,3.3-0.7
		c0.5-0.1,4-1.6,4.2-1.5c0.2,0.2-0.5,2.2-0.6,2.4c-0.3,1.1-1,1.8-1.8,3.2c-0.8,1.6-2.1,3.1-3.3,4.5c-1.2,1.4-2.1,3-3.2,4.4
		c-0.8,1.1-2.2,2-3.1,3c-0.7,0.7-5.9,6.7-5.4,7.1c-0.1-0.1,3.7-3.3,3.9-3.4c1.7-1.3,3.5-2.3,5.2-3.7c0.8-0.6,7.8-6.5,7.4-6.8
		c0.3,0.2-4.8,6.6-5.3,7c-0.8,0.9-1.7,1.9-2.7,2.7c-0.8,0.7-1.9,1.4-2.4,2.3c-0.6,1-0.7,2.3-1,3.4c-0.3,1-0.8,2.1-0.9,3.2
		c-0.2,1.1-0.3,2.2-0.8,3.2c-0.4,0.6-0.7,1.1-0.9,1.8c-0.1,0.3-0.4,1.6-0.7,1.8c2.4-1.6,4.7-3.3,6.2-5.9c0.8-1.6,1.3-3.5,2.4-4.9
		c0.9-1,1.8-2.2,2.8-3.1c1.7-1.6,3.3-3.4,5.1-5c1.3-1.2,2.5-2.4,3.9-3.6c0.5-0.4,1.5-1.5,2.1-1.4c-0.6-0.1-2.3,2.6-2.5,3
		c-1.1,1.5-2.4,2.8-3.6,4.4c-0.8,1.2-1.6,2.5-2.3,3.8c-0.4,0.7-0.7,1.3-1,2.1c-0.1,0.3-0.6,0.8-0.5,1.1c0-0.2,1.1-1.1,1.3-1.3
		c0.7-0.7,1.3-1.3,2.1-2c1.5-1.4,3.2-2.8,5.2-3.7c1-0.4,2.3-0.5,3.3,0c1.1,0.6,1.6,1.4,2.3,2.5c0.9,1.5,1.9,3.1,3.3,4.1
		c1.4,1.1,3,1.9,4.5,2.8c4.5,7.1,9.7,13.1,15.1,17.8C131.4,563.7,131.3,563.6,131.1,563.6z M175.8,577.4c-0.6,0.3-1.2,0.6-2.1,0.4
		c-1-0.2-2.3-0.8-3.2-1.9c-1-1.1-1.9-2.5-2.5-4c-0.7-1.6-1.1-3.3-1.5-5c-0.4,1.8-0.8,3.6-0.8,5.4c0,1.5,0.1,3,0.4,4.6
		c-7-1.5-15-4.7-22.8-9.8c-3.3-2.6-5.6-4.1-8.4-7.8c-1.6-2.1-3-5.2-3.7-7.7c-0.2-0.7-0.9-2.3-0.6-2.8c0.4-0.6,2.5,0.3,3.2,0.3
		c2.5,0.2,5.9,0.8,8.4,1.3c0.8,0.2,7.8,1.6,10.1,1.8c4.6,3.3,9.2,6.2,13.4,8.4c0.5-1.9,3.7-7.8,7-10c2.3-1.3,4.4-3.1,6-5
		C178,555.4,176.6,570.6,175.8,577.4z M203.5,359.8c0.2-2.3,2.3-4.6,6.2-6.5c-0.1,0.4-0.1,0.8-0.2,1.1c-0.4,3.5,0.5,6.5,2.9,9.2
		c1.3,1.7,3.8,3.5,7,5.2c7.2,3.8,18.7,7.1,35.8,10.9c7.1,2.8,9.3,6.8,12.2,12.2c2.3,4.1,5,9.2,10.7,14.6l0.1,0.1v0.2
		c0.6,3.3,3.3,5.7,6.6,6.1c0.5,0.1,1,0.1,1.5,0h0.2l0.2,0.1c5.4,3.6,9.8,6,13.4,7.9c-9.6,0.3-19.2-0.2-27.4-1.1
		c-42.3-4.9-53.6-15-53.6-15s3.6,1.8,5.8,2.3c0.1-2.3,0.8-9.9,2.3-16.8c0.8-3.5,2.8-8.6,3.8-11.2c-2.7-0.9-5.3-1.9-7.4-2.7
		c-4.7,7.1-6.7,23.5-7,26.8c-2-1-3.9-2.6-5.9-4.1c0.2-1.9,0.8-8.2,2.4-14.6c0.9-3.6,3.5-9,4.3-10.7c-8.6-3.9-10.3-6.5-11.7-8.3
		c-1.8-2.2-2.3-5.3-2.3-5.3l0,0L203.5,359.8z M196.7,415.2c0.2-2.1,2-7.7,6-7.5c6,0.6,6.8,10.5,7,12.5c-4.2-13.6-10.7-4.8-12.1,9.3
		l-12,122.9c-0.6,6.2,0.2,13,4.7,13.4c4.6,0.5,6.5-4.5,6.5-4.5s-2.1,7.1-7.2,6.7c-3.6-0.4-7.7-2.5-6.7-13.4L196.7,415.2z M209.7,425
		c-0.4,10.9-1.1,21.8-1.9,32.7s-1.8,21.8-2.7,32.6l-1.6,16.2c-0.6,5.4-1.1,10.9-1.8,16.2c-1.2,10.8-2.6,21.7-4.3,32.5
		c0.4-10.9,1.1-21.8,1.9-32.7c0.4-5.4,0.8-10.9,1.3-16.3l1.5-16.3c1-10.9,2.2-21.7,3.5-32.6C206.7,446.6,208.1,435.8,209.7,425z
		 M304.4,623.1c-1.3,3.4-8.8,7.2-12.3,8.2c-11.3,3.1-25.1,3.7-42.3,2C226,631,211,626,199.7,617.6c-2.3-1.6-6.4-5.4-6.3-8.3
		c0,0,0,0,0-0.1c0.1-1,1.2-1.6,2.1-1c12.6,7.9,30.9,14,55.2,16.4c21.7,2.1,39.3,0.4,52.8-3.8C304.4,620.8,304.8,622.2,304.4,623.1z
		 M332.6,586.5c-0.5,4.9-2.8,9.7-6.8,13.9l-1.5,1.4c-6.4,5.9-15.6,10.3-26.9,13c-0.1,0-0.2,0.1-0.3,0.1c-2.2,0.5-4.5,0.9-6.9,1.3
		c-0.1,0-0.1,0-0.2,0c-0.8,0.1-1.6,0.3-2.4,0.4l0,0c-2.4,0.4-5,0.6-7.6,0.8c-0.1,0-0.2,0-0.3,0c-1.7,0.1-3.4,0.2-5.1,0.3h-0.1
		c-0.8,0-1.6,0.1-2.3,0.1c-0.4,0-0.8,0-1,0c-1.1,0-2.3,0-3.4,0c-0.7,0-1.2,0-1.9,0c-0.6,0-1.2,0-1.8,0c-0.8,0-1.7-0.1-2.5-0.1
		c-0.4,0-0.8,0-1.2-0.1c-1.2-0.1-2.5-0.2-3.8-0.2c-0.4,0-0.8-0.1-1.1-0.1c-1.3-0.1-2.7-0.2-4.1-0.4c-1.4-0.1-2.7-0.3-4.1-0.5
		c-0.4,0-0.8-0.1-1.1-0.1c-1.3-0.2-2.5-0.4-3.8-0.5c-0.4-0.1-0.8-0.1-1.2-0.2c-0.8-0.1-1.7-0.3-2.4-0.4c-0.6-0.1-1.2-0.2-1.8-0.3
		c-0.7-0.1-1.2-0.2-1.8-0.4c-1.1-0.2-2.3-0.5-3.4-0.7c-0.4-0.1-0.7-0.2-1-0.2c-0.8-0.2-1.6-0.4-2.3-0.6c0,0,0,0-0.1,0
		c-1.7-0.4-3.4-0.8-5-1.3c-0.1,0-0.2-0.1-0.3-0.1c-3.4-0.9-6.6-2-9.7-3.1h-0.1c-2.3-0.8-4.4-1.7-6.5-2.6c-0.1,0-0.2-0.1-0.2-0.1
		c-10.6-4.8-18.8-10.9-23.9-18l-1.2-1.7c-0.9-1.4-1.7-2.9-2.3-4.4c0.4-0.4,0.7-0.8,0.8-1.3c0.1-0.3,0.1-0.7,0.2-1
		c0.1,0.7,0.1,1,0.1,1s13.5,19.2,42.4,27.4c33.9,9.6,49.8,1.4,49.8,1.4c-35.8-2-74.5-9.8-91.4-38.5c0.2-1.8,0.4-3.8,0.6-5.7
		c6.1,10,15.7,18.2,27,24.4c-4.6-5-4.4-12.5-4.8-16.1c1.3,4.7,4.9,12.8,11.7,13.4c6.6,0.7,13.2-7.1,14.1-15.6L241.9,448
		c1.7-17.3-8.3-24.1-14-24.7c-3.7-0.4-6.5,0.8-8.4,4.1c1.7-5.4,5.9-9.1,11.3-8.8c-21.6-8.4-26-16.9-30-23.2
		c8.7,10.3,25.8,23.6,69.9,28.6c16.4,1.9,28.5,1.9,37.7,1.1c1.8,1,3.2,2.1,4.2,3.3c0.8,0.8,2.2,4.2,4.1,8.9c0.3,0.7,0.6,1.3,0.8,2.1
		c0.2,3.1-0.3,5.8,0.9,8.4c0.8,1.7,2.2,3.4,3.7,4.8l-11.8,121c-0.5,5,2.7,9.4,7.2,9.8l0,0c3.1,0.3,6-1.4,7.6-4
		c0.8-1.2,1.2-2.6,1.4-4.1l10.2-103.7c2.2,1.9,4.4,3.3,6.8,4L332.6,586.5z M221.1,576c0,0-2.4,2.3-6.5,0.7c-5-2.1-6.8-8.3-6-16
		L220.8,436c0.6-5.4,4.6-7.4,9-5.9c3,1,3.1,2.8,4.1,4.8c-5.8,0.2-6.1,1.9-7.5,16l-11.3,114.6C214.2,576.3,221.1,576,221.1,576z
		 M314.1,574.5l11.5-118.1c1.2,2.2,2.4,4.2,3.8,6.3l-11.5,117.1C315.3,579.3,313.8,577.6,314.1,574.5z M351,471.2
		c-9.3,3.1-17.5-8.9-23.7-21.2c-3.3-0.7-5.6-3.7-5.3-7c0.1-0.9,0.4-1.8,0.8-2.5c-0.8-1.7-1.4-3.2-2-4.7c-0.8-2.1-1.7-3.8-2.3-5.4
		c-2.3-0.5-4-2.6-3.8-5.1c0-0.3,0.1-0.5,0.2-0.8c-2.3-2.2-5.2-3.7-9.4-5.8c-4.4-2.3-10-5.2-17.5-10.1c-0.7,0.3-1.3,0.4-2.1,0.3
		c-2.5-0.3-4.3-2.4-4.1-4.9c-5.6-5-8.3-9.8-10.5-14.1c-3-5.6-5.9-10.9-14.8-14.4c-0.1,0-0.2-0.1-0.3-0.1
		c-36.2-7.9-43.2-13.8-42.3-20.4c0.5-4,1.3-7.7,2.4-10.9l2.4-1.4l-2.8-0.8l-0.1-0.1c-0.9-0.7-1.1-2.4-0.4-3.9
		c0.4-0.8,1.4-2.2,3.3-1.6c0.1,0,0.1,0,0.2,0l4.4,2.2l-2.3-4.2c0-0.1,0-0.2-0.1-0.3c-0.6-1.3,0.2-3.2,1.6-4.4
		c0.7-0.5,2.4-1.6,4.4-0.1c0,0,0.1,0,0.1,0.1l4.3,3.9l-1.7-5.4V328c-0.1-1.2,1.5-4,4-5c2-0.8,3.8,0.1,5.2,1.4
		c-0.6,0.7-0.9,1.4-1.2,2.2c-0.2,0.7-0.4,1.4-0.5,2.2c-0.4,0-0.8,0.1-1.1,0.3c-1,0.5-1.7,1.4-2,2.3s-0.2,2,0.1,2.8
		c0.4-0.8,0.7-1.7,1-2.3c0.4-0.7,0.9-1.1,1.5-1.5c0.6-0.3,1.3-0.4,2.1-0.3c0.8,0.1,1.5,0.4,2.3,0.8c-0.4-0.8-1.1-1.6-2.1-2
		c-0.3-0.1-0.7-0.2-1-0.3c0.3-0.5,0.7-0.8,1-1.3c0.8-0.8,1.5-1.4,2.3-1.9c1.6-0.9,3.5-1.1,5.3-0.7c1.8,0.4,3.5,1.3,4.8,2.7
		s2.1,3.3,2,5.7c0.8-0.9,1.1-2.2,1.2-3.5c0-0.3,0-0.6,0-0.8c14,3.2,28.4,10.2,37.9,14.9c4.1,2,7,3.5,8.9,4.1c3.9,1.3,10,2.1,17,2.9
		c15.1,1.9,34,4.1,42.2,13.4c9.7,11,4.9,28.1,0.3,44.6c-1,3.7-2,7-2.7,10.4c-1.7,7.1-0.7,15.5,0.4,23.5
		C360.2,456,361.8,467.5,351,471.2z"/>
	<path class="st0" d="M309.4,372.8c0.8,1.1,0.9,2.5,0.7,3.8s-1,2.3-1.9,2.9c-0.9,0.8-2,0.9-3.1,0.9s-2.3-0.4-3.5-0.8l-1.6-0.7
		l-0.3,1.7c-0.1,0.7-0.5,1.2-1.1,1.7s-1.4,0.8-2.3,0.8c-0.8,0.1-1.7,0.1-2.4-0.2c-0.8-0.3-1.4-0.8-1.8-1.4l-0.7-1.1l-0.8,0.8
		c-0.5,0.4-1.1,0.8-1.8,0.9c-0.7,0.2-1.4,0.2-2.1,0s-1.3-0.6-1.8-1.1c-0.5-0.6-0.7-1.4-0.8-2.2c-0.2,0.8-0.3,1.7,0.1,2.5s1,1.6,2,2
		c0.8,0.5,1.9,0.6,2.8,0.5c0.6,0,1.1-0.2,1.7-0.4c0.6,0.8,1.3,1.5,2.3,1.9c1.2,0.6,2.5,0.8,3.8,0.7c1.2-0.1,2.5-0.6,3.7-1.3
		c0.7-0.5,1.3-1.2,1.7-2c1,0.3,2.1,0.4,3.2,0.4c1.6-0.1,3.3-0.8,4.4-2s1.8-2.7,1.8-4.3C311.3,375.1,310.7,373.5,309.4,372.8z"/>
	<path class="st0" d="M344.1,382.3c1.4,0.8,3,1.4,4.7,1.7c1.1,0.1,2.3,0,3.4-0.4s2.2-1.2,2.8-2.2c0.7-0.9,1-2.1,1.1-3.1
		s0-2.2-0.3-3.2s-0.9-2-1.7-2.6c-0.8-0.7-1.9-1-2.8-0.8c1.9,0.6,2.7,2.3,2.9,3.8c0.2,1.6-0.3,3.4-1.2,4.4c-0.9,1-2.3,1.4-3.8,1.2
		c-1.5-0.2-3.1-0.9-4.7-1.8l-1.2-0.7l-0.7,1.1c-0.6,0.9-1.3,1.6-2.3,2.1c-0.9,0.5-2.1,0.7-3.3,0.5c-1.1-0.1-2.3-0.6-3.2-1.3
		c-0.9-0.8-1.7-1.9-2-3.2c-0.2,1.3,0.2,2.8,1.1,3.9c0.7,0.8,1.5,1.5,2.4,2c0,0.5-0.1,0.9-0.3,1.3c-0.3,0.7-0.7,1.2-1.2,1.7
		c-0.6,0.5-1.2,0.8-2,1s-1.6,0.3-2.4,0.2c0.8,0.3,1.6,0.5,2.5,0.5c0.8,0,1.8-0.2,2.7-0.6c0.8-0.4,1.7-1,2.3-1.8
		c0.4-0.5,0.8-1.1,0.9-1.7c1,0.1,2.2,0,3.2-0.3C342.3,383.7,343.3,383,344.1,382.3z"/>
	<path class="st0" d="M354.1,414c-0.4-0.3-0.7-0.7-1-0.9c-0.4-0.2-0.8-0.5-1.2-0.6c-0.5-0.1-0.8-0.2-1.2-0.2
		c1.2,1.1,2.1,2.3,2.2,3.5c0.2,1.2-0.2,2.3-0.8,3.4c-0.7,0.9-1.6,1.7-2.8,2c-1.2,0.3-2.7,0.1-4.3-0.2c1,1.3,2.6,2.3,4.5,2.4
		s3.9-0.9,5-2.6c1.1-1.6,1.4-3.8,0.6-5.6C354.6,414.8,354.4,414.4,354.1,414z"/>
	<path class="st0" d="M346.9,443.1c-1.4-0.1-2.6,0.9-2.8,2.3c-0.2,1.4,0.9,2.6,2.3,2.8c1.4,0.1,2.6-0.9,2.8-2.3
		C349.4,444.5,348.3,443.2,346.9,443.1z"/>
	<path class="st0" d="M330.8,425c0.2-2.1-1.3-3.9-3.4-4.1s-3.9,1.3-4.1,3.4s1.3,3.9,3.4,4.1S330.6,427.1,330.8,425z"/>
	<circle class="st0" cx="337.1" cy="446.8" r="2.1"/>
	<path class="st0" d="M339.8,454c-1.9-0.2-3.6,1.2-3.8,3.1c-0.2,1.9,1.2,3.6,3.1,3.8c1.9,0.2,3.6-1.2,3.8-3.1
		C343.1,455.9,341.7,454.2,339.8,454z"/>
	<path class="st0" d="M343.9,462.4c-1-0.1-2,0.7-2.2,1.8c-0.1,1,0.7,2,1.8,2.2c1,0.1,2-0.7,2.2-1.8
		C345.7,463.4,344.9,462.4,343.9,462.4z"/>
	<circle class="st0" cx="326.2" cy="433.5" r="1.5"/>
	<path class="st0" d="M319.8,423.2c-1.2-0.1-2.3,0.8-2.4,2s0.8,2.3,2,2.4s2.3-0.8,2.4-2C321.8,424.4,321,423.3,319.8,423.2z"/>
	<path class="st0" d="M316.1,414.7c-1.2-0.1-2.3,0.8-2.3,2s0.8,2.3,2,2.3c1.2,0.1,2.3-0.8,2.3-2
		C318.2,415.9,317.3,414.8,316.1,414.7z"/>
	<circle class="st0" cx="311.9" cy="408.4" r="2.6"/>
	<circle class="st0" cx="304" cy="413.4" r="2.1"/>
	<path class="st0" d="M294.3,404.9c-1-0.1-2.1,0.7-2.2,1.8c-0.1,1,0.7,2.1,1.8,2.2c1.1,0.1,2.1-0.7,2.2-1.8
		C296.2,405.9,295.5,405,294.3,404.9z"/>
	<circle class="st0" cx="286.8" cy="403.8" r="2.3"/>
	<path class="st0" d="M288.2,395.6c0.2-1.5-0.9-2.8-2.4-3s-2.8,0.9-3,2.4s0.9,2.8,2.4,3S288,397.1,288.2,395.6z"/>
	<path class="st0" d="M329,439.9c-2-0.2-3.7,1.2-3.8,3.2c-0.2,2,1.2,3.7,3.2,3.8c2,0.2,3.7-1.2,3.8-3.2
		C332.3,441.9,330.9,440.2,329,439.9z"/>
	<path class="st0" d="M288.9,357c0.6-1.5,0.7-3.4-0.1-5.1c-0.7-1.7-2.3-3-3.9-3.8c-1.8-0.7-3.7-0.8-5.5-0.2
		c-1.1,0.4-2.3,0.9-3.2,1.8c-0.5-0.6-1-1-1.7-1.4c-1.2-0.8-2.7-0.9-4.1-0.8c-1.3,0.2-2.7,0.8-3.7,1.8s-1.3,2.5-0.8,3.7
		c0.1-1.2,0.8-2.2,1.6-2.7c0.8-0.6,1.9-0.8,2.9-0.7c1,0.1,1.9,0.4,2.6,0.9c0.8,0.6,1.2,1.3,1.6,2.2l0.9,2.4l1.5-2.3
		c0.7-1,1.7-1.8,3-2.3c1.2-0.5,2.6-0.5,3.9-0.2s2.5,1,3.4,2.2C288.3,353.9,288.7,355.4,288.9,357z"/>
	<path class="st0" d="M232.7,340.7c-1.6-0.7-3.5-0.8-5.3-0.4c-1.8,0.5-3.5,1.8-4.2,3.5c-0.7,1.7-0.8,3.5-0.2,5
		c0.7-1.5,1.2-2.8,2.1-3.8c0.8-0.9,1.9-1.5,3-1.9c1.2-0.3,2.5-0.4,3.8-0.3c1.4,0.1,2.8,0.5,4.3,1
		C235.7,342.5,234.3,341.3,232.7,340.7z"/>
	<path class="st0" d="M163.6,449.5c0.1-0.2,0.1-0.3,0-0.5C163.6,449.1,163.6,449.7,163.6,449.5z"/>
	<path class="st0" d="M163.7,448.8C163.8,448.6,163.7,448.6,163.7,448.8L163.7,448.8z"/>
	<path class="st0" d="M54.1,475.6c0.1-0.1,0-0.2-0.1-0.2C54,475.4,54.1,475.7,54.1,475.6z"/>
	<path class="st0" d="M36.9,542.5c-3.1-0.1-6-0.1-9.1,0.1c-3.8,0.2-7.4,0.6-11.1,1.3c-3.5,0.7-6.9,1.2-10.3,1.5
		c-1.5,0.1-3,0.1-4.5,0.1c-0.8,0-1.5,0.1-2.3,0.1c-0.2,0-1.2-0.1-1.4,0.1l0.2,0.1c3.8,1.1,7.5,1.1,11.5,1c3.7-0.1,7.2-0.1,10.9-0.6
		c4-0.6,8.1-0.6,12.1-1c2-0.2,4-0.7,6-1.1c0.5-0.1,5.5-1.1,5.5-1.6c-0.1-0.1-0.2-0.1-0.3-0.1C42.1,542.6,39.2,542.6,36.9,542.5z"/>
	<path class="st0" d="M53.7,474.2C53.7,474,53.7,474.1,53.7,474.2L53.7,474.2z"/>
	<path class="st0" d="M137.6,446.7c2.6-0.6,5.2-1.4,7.9-1.1c2,0.3,3.8,1.1,5.8,0.9c-1.5-1.9-4.3-3-6.8-2.6c-1.2,0.2-2.3,0.7-3.5,1.1
		c-0.7,0.3-1.3,0.6-2,0.9C138.9,446,138,446.6,137.6,446.7L137.6,446.7z"/>
	<path class="st0" d="M8.4,513.3c3.5-0.6,6.9-1.6,10.3-2.2c2-0.3,3.8-0.7,5.8-0.9c1-0.2,2-0.3,3-0.4c0.6-0.1,1.2,0,1.8-0.2
		c-0.8,0.1-2.1-0.1-2.7-0.2c-1.5,0-3-0.1-4.4-0.1c-2.3,0-4.7,0-7,0c-6.5-0.2-13,0.8-19.4,1.2c-5.8,0.4-11.7,0.3-17.6,0.8
		c-6,0.6-11.9,1-17.9,1.4c-3.7,0.2-7.4,0.5-11.1,0.5c-1.7,0-3.3,0.1-5,0.2c-0.9,0-1.8,0.1-2.7,0.1c-0.4,0-1.9-0.2-2.1,0.1
		c0,0,0.9,0.3,1,0.3c1.5,0.4,3.1,0.2,4.6,0.4c0.7,0.1,1.2,0.2,1.9,0.3c3.6,0.4,7.2,0.6,10.8,0.8c3.7,0.3,7.4,0.5,11.1,0.3
		c3-0.2,5.9-0.6,8.8-0.9c5.4-0.7,10.9-0.2,16.2-0.2C-1.3,514.6,3.6,514.1,8.4,513.3z"/>
	<path class="st0" d="M21.1,525.3L21.1,525.3C21,525.2,21,525.2,21.1,525.3z"/>
	<path class="st0" d="M-45.8,507c3.2-0.3,6.4,0.3,9.6,0.6c4.6,0.3,9.2,0.4,13.7,0.5c5.1,0.1,10.1,0,15.1-0.5
		c2.1-0.2,4.1-0.5,6.2-0.7c0.3,0,3.4-0.3,3.4-0.5c0,0.3-6.3-0.2-6.7-0.2c-3.8-0.3-7.6-0.6-11.5-0.6c-4.1,0-8.2,0.5-12.3,0.6
		c-3.8,0.1-7.8,0.3-11.6,0.4c-1.7,0-3.4,0-5.1,0.1c-0.3,0-1.7,0.5-1.7,0.5C-46.4,507.1-46,507-45.8,507z"/>
	<path class="st0" d="M15.7,527.5c1.9-0.3,3.7-0.8,5.5-1c1.1-0.1,2.2-0.2,3.3-0.4c0.4-0.1,2.3-0.3,2.4-0.7c0,0.1-4.9,0.2-5.7-0.2
		l0.1,0.1c-0.2,0.2-2.4-0.2-2.9-0.2c-0.9,0-1.9,0-2.8,0c-1.4,0.1-2.8,0.2-4.3,0c-2.3-0.3-4.9-0.7-7.2-0.6
		c-5.1,0.3-10.2,0.8-15.3,0.9c-0.8,0-10.1,0.6-10.1,0.5c0,0.1,1.4,0.1,1.4,0.1c2.8,0.1,5.6,0.5,8.4,0.8c3.1,0.3,6.2,0.3,9.3,0.3
		c3.7,0.1,7.3,0.4,11.1,0.7C11.1,528,13.2,527.9,15.7,527.5z"/>
</g>
<g>
	<path class="st0" d="M453.3,706.2c0,0,2.8,7.6,9.8,11.6c4.9,2.9,10.4,4.3,15.9,5.2c-5.2,1-15.1,0.7-29-4.7
		c-5.4-2.1-13.7-8.5-14.6-11.5s-1.1-6-1.1-6C442.8,712.7,453.3,706.2,453.3,706.2z"/>
	<path class="st0" d="M472.3,706.4c-5.8,0.8-11.1-3.4-11.8-9.2l-15.3-121.5c-0.8-5.8,3.4-11.1,9.2-11.8l0,0
		c5.8-0.8,11.1,3.4,11.8,9.2l15.3,121.5C482.1,700.3,478,705.6,472.3,706.4L472.3,706.4z M476.8,693l-15-119.5
		c-0.3-2.3-2.4-4-4.8-3.8s-4,2.4-3.8,4.8l15,119.5c0.3,2.3,2.4,4,4.8,3.8C475.4,697.4,477,695.4,476.8,693z"/>
	<path class="st0" d="M484.8,560.7L484.8,560.7c5.9-0.8,11.5,3.1,12.8,8.8l0,0c-1-8.5-4.1-11-8.2-13.4c9.6-2.3,17.4-4.8,23.8-7.1
		c-5,3.5-9.7,10.8-8.2,22.4l14.7,117.2c1,8,7.5,17.8,14.5,16.9c0.3,0,0.7-0.1,0.9-0.2c-11.7,5.3-24.7,8.3-36.9,8.4
		c0,0,10.3-0.9,14.7-5.4c5.1-5.2,4.2-11.3,2.9-19.1c-0.1,8.9-1.8,11-7,14.6c-0.4,0.3-0.8,0.7-1.3,0.8l0,0l0,0
		c-1.3,0.8-2.8,1.3-4.4,1.5l0,0c-6.4,0.8-12.2-3.8-13-10l-15.4-122.5C473.9,567.3,478.5,561.5,484.8,560.7z M497.6,700.9
		c1.5,1.1,3.3,1.8,5.3,1.5c4.2-0.6,7.1-5,6.5-9.9l-15.1-119.7c-0.7-4.9-4.5-8.4-8.7-8c-1.9,0.3-3.6,1.3-4.7,2.8
		c3.8,0.8,6.9,4.5,7.5,9.1l14.3,113.4C503.1,694.8,501,699.1,497.6,700.9z"/>
	<path class="st0" d="M494.1,737.9c2-0.1,3.9-0.2,5.9-0.4c2-0.1,3.9-0.4,5.9-0.5c3.9-0.4,7.9-0.9,11.8-1.5
		c-3.7,1.7-7.5,2.9-11.5,3.7c-2,0.5-3.9,0.8-6,0.9c-1,0.2-2,0.2-3,0.3s-2,0.2-3,0.2c-4,0.2-8.1,0.1-12.1-0.4s-8.1-1.2-11.7-2.8
		c4,0.5,7.9,0.7,11.9,0.7C486.2,738.2,490.2,738.1,494.1,737.9z"/>
	<path class="st0" d="M500.7,542c-2.7,0.6-5.4,0.8-5.4,0.8l-0.1-7.6c-0.1-3.8-0.7-7.4-1.8-11l-2.1-6.4l9.7-1.7c0,0,2.3,5.1,3.7,11.5
		c1,5.2,1,13,1,13S504.2,541.3,500.7,542z"/>
	<path class="st0" d="M400.1,571.2c0.7-6.9,1.4-14.2-0.2-19.9c-0.8-2.9-1.7-6-2.7-9.2c-4.7-15.1-10-32.3-0.1-44.2
		c8.2-9.9,26.1-12.5,40.5-14.6c6.1-0.9,11.5-1.7,14.6-2.9c1.4-0.6,4.2-2.1,7.6-3.8c9.4-4.9,24-12.6,38.2-15.6c1.1-1,2.5-1.9,4-2.3
		c1.4-0.4,2.9-0.4,4.4,0.1c3.8-4.2,7.8-3.5,9.4-3c2.2,0.8,4.3,2.5,5.5,4.7l0.2,0.3l0.4-0.1c1.9-0.3,3.8,0.2,5.4,1.4
		c1.7,1.2,2.8,2.9,3.2,4.9l0.1,0.3l0.3,0.1c1.8,0.5,3.3,1.7,4.2,3.6c1.2,2.3,1.2,5.1,0.1,7l-0.1,0.2l0.1,0.2c0.4,1.1,0.8,2.3,1,3.4
		c6.3,2.3,10.2,5.6,10.9,10l5.4,19.4c1.4,5.3,2.6,10.5,3.6,15.9c1.4,0.8,6.2,2.6,14.2-0.9c0.9-0.4,2-0.9,3.1-1.4
		c11.5-5.5,33.1-15.9,49.7,10.5c1.2,2,2.3,4,3.4,6.2c2.9-1.3,5.7-2.3,8.6-2.9c3.3-0.7,6.2-0.8,9-0.4c3.5,0.6,6.2,2.3,8.1,3.8
		c1.7,1.3,3,2.9,4.3,4.4c0.7,0.8,1.2,1.5,1.9,2.2c1,1,2,2.1,2.8,3.2c0.9,1.1,2,2.2,2.9,3.3l1.3,1.4c1.5,1.6,3,3.2,4.6,4.7
		c1.2,1.2,2.5,2.4,3.8,3.6c1,0.8,2,1.8,2.9,2.7c2.2,2.1,4.3,4.2,6.2,6.1c2,2.1,4.1,3.7,6.1,5.2c2.5,2,4.9,3.3,7.4,4.1
		c2.2,0.8,4.8,0.8,7.3,0.8h1.1c1,0,2.1,0,3.1,0.1c2.3,0.1,4.3,0.1,6.5,0c2.3-0.1,4.5-0.3,6.8-0.4c4.6-0.2,9.3-0.8,13.8-1.4l1.3-0.2
		c11.1-1.5,21.7-3.6,30.6-5.5c1.7-0.4,3.3-0.8,5-1c3.7-0.8,7.4-1.6,11.2-2.3c0,0,0,0,0.1,0c0.3-0.2,0.6-0.5,0.8-0.6
		c1.7-0.8,3.6,0,4.3,1.7l0,0c6.7,15.2,8.7,69.3,7.3,91.6c-0.3,4.4-0.7,7.4-1.2,9c-0.1,0.3-0.3,0.7-0.5,0.8c-0.6,0.7-1.3,1.1-2.2,1.2
		c-0.5,0.1-0.9,0-1.4-0.1c-0.3-0.1-0.5-0.2-0.7-0.3c-1,0-2.2-0.1-3.1-0.2c-0.7-0.1-1.2-0.1-1.8-0.2c-1-0.1-2-0.1-3-0.2
		c-2.5-0.2-5.3-0.4-7.8-0.5l-2.6-0.1c-3.5-0.1-7.1-0.2-10.7-0.5c-2.2-0.2-4.3-0.4-6.5-0.6c-2.8-0.3-5.7-0.6-8.5-0.8
		c-2.7-0.1-5.4-0.4-8.1-0.6c-1.7-0.2-3.3-0.3-5-0.4c-12.8-0.9-23.1-1.4-32.5-1.5c-2.5,0-5.3,0.1-8,0.4c-1.1,0.1-2.3,0.2-3.5,0.3
		c-2.3,0.2-4.4,0.4-6.6,0.7c-2.2,0.4-4.2,0.9-6.5,1.5c-0.8,0.2-1.6,0.5-2.4,0.7c-1.8,0.5-3.7,0.9-5.4,1.3c-1.2,0.3-2.5,0.6-3.8,0.9
		c-1.8,0.5-3.6,0.9-5.3,1.5c-1.3,0.4-2.6,0.8-3.9,1.1c-3.2,0.8-6.4,1.4-8.8,1.8c-3.4,0.6-6.7,0.6-10,0.1l-2.3-0.4
		c-2.2-0.4-4.4-0.7-6.6-0.9l-1.7-0.2c-1.2-0.2-2.3-0.3-3.6-0.5c-0.4-0.1-0.8-0.1-1.2-0.2c-0.7-0.1-1.3-0.3-1.7-0.2l0,0
		c-0.9,0.1-2,0.6-3,0.9c-1.8,0.8-3.8,1.5-6,1.2c-0.8-0.1-1.4-0.3-2.2-0.6c-9.2,6.9-19,10.8-27.2,12.5c-0.5,0.7-1,1.3-1.7,1.9
		c-1.4,1.2-3.4,2.1-5.4,2.3c-0.6,1.1-1.2,2.3-1.9,3.3c2.8,23.3-21.9,41.7-62.9,46.9c-41,5.1-69.5-6.6-72.6-29.9
		c-5.1-4.6-8-10-8.6-15.6l-12.6-100.2c-1.3,0-2.6-0.2-3.9-0.6C397.5,597.2,398.8,583.4,400.1,571.2z M596.2,662.2
		c0.6,0.1,1.1,0.2,1.7,0.1c2.7-0.3,7.4-1.9,9.2-2.4c1.5-0.5,3-0.9,4.5-1.1c0.8-0.1,1.6-0.1,2.4,0c0.7,0,1.7,0.3,2.3,0.1
		c0.3,0,0.6-0.1,0.8-0.2c0.1,0,0.2,0,0.3-0.1c0.2,0,0.4-0.1,0.7-0.2c0.1,0,0.2-0.1,0.4-0.1c0.2-0.1,0.4-0.1,0.6-0.2
		c0.1,0,0.3-0.1,0.4-0.1c0.1,0,0.2-0.1,0.3-0.1c0.2-0.1,0.3-0.1,0.5-0.2l-0.1,0.1h0.1c0.8-0.3,1.2-0.6,1.7-1c-0.1,0-0.2,0.1-0.3,0.2
		c0.4-0.3,0.8-0.7,1.1-1c0.2-0.2,0.3-0.4,0.5-0.6l0,0c0.3-0.4,0.6-0.7,0.8-1c2-2.4,3.8-5,5-7.9c0.5-1.1,0.3-2.6,0.2-3.8
		c-0.2-2.3-1-4.3-2.1-6.3c-0.4-0.8-0.8-1.9-1.6-2.3c-0.8-0.5-1.8-0.8-2.5-0.8c-1.9,0-3.8,0.6-5.7,0.8c-1.3,0.2-2.7,0.4-4,0.8
		c-1.3,0.3-2.4,0.9-3.8,1.3c-1.3,0.4-2.6,0.6-3.9,0.7c-0.3,0-3.6,0.5-3.6,0.5c0.4,0.5,2.4,0.2,3,0.2c1.4,0,2.8,0,4.1-0.2
		c1.7-0.2,3.3-0.9,5-1.3c1.5-0.4,3-0.8,4.4-1c1.3-0.3,3.6-0.9,4.8-0.2c1,0.6,1.8,1.7,2.4,2.7c1.8,3.1,2.3,6,1.5,9.5
		c-0.5,2-1.7,3.8-2.9,5.4c-0.3,0.4-2.4,2.6-2.6,2.4c-0.1-0.2,0.9-2.3,1.1-2.7c0.2-0.7,0.4-1.2,0.5-1.9c0.2-1.2,0.2-2.4,0.3-3.7
		c0.1-0.9,0-1.9-0.2-2.8c-0.3-1.1-0.6-2.3-1-3.4c-0.1-0.2-0.8-1.9-0.8-1.9c-0.3-0.1,0.2,1.1,0.2,1.2c0.2,0.6,0.4,1.2,0.6,1.8
		c0.2,0.8,0.5,1.7,0.5,2.4c0.1,1.2-0.1,2.8-0.4,3.9c-1.5-0.9-3.1-1.8-4.9-2.3c-1.1-0.4-2.4,0.2-3.7,0.4c-1.8,0.2-3.8-0.1-5.4,0.8
		c-0.8,0.4-1.6,0.8-2.3,1.4c-0.4,0.3-0.7,0.6-0.9,0.8c-0.3,0.3-0.6,0.4-0.8,0.6c-0.2,0.1-0.6,0.9-0.8,1.2c-0.3,0.5-0.4,1-0.6,1.6
		c-0.4,1.1-0.7,2.3-1.2,3.4c-0.5,0.9-1.1,1.9-1.9,2.7c-0.2,0.2-1.6,1.9-2,1.7c0.2,0.1,2.3-4.1,2.3-4.7c0.3-1.1,0.3-2,0.2-3.2
		c-0.2-2-0.1-3.7-0.8-5.5c-0.6-1.5-1-1.7-2.5-2.3c-1.2-0.5-2.3-1-3.6-0.6c-0.6,0.2-1.5,0.4-1.8,0.9s-0.2,1.3-0.2,1.8
		c-0.1,1.5-0.3,3,0,4.4c0.1,0.8,0.5,1.5,0.8,2.3c0.1,0.1,1.3,2.1,1.4,2c-0.2,0.3-2.4-2.5-2.5-2.7c-0.7-0.9-0.8-2-1-3.2
		c-0.3-1.6-0.5-3.3-0.6-5c-0.1-0.8-0.1-1.7,0-2.5c0-0.4,0.2-1.7,0.5-1.9c-1.4,0.7-0.8,3.1-1.8,3.9c-0.6,0.6-1.4,0.8-1.7,1.8
		c-0.2,0.5-0.1,1.1-0.1,1.6c-0.1,1.5-0.2,3.1,0,4.5c0.1,0.7,0.4,1.3,0.7,2c0.1,0.2,0.5,1.5,0.7,1.5c-0.4,0-1-1.6-1.2-1.9
		c-0.5-0.8-0.8-1.7-0.9-2.6c-0.4-1.8-0.9-3.5-1-5.3c-0.1-2.1,0.3-3.9,1.9-5.3c0.9-0.8,2.1-1.2,3.1-1.7c0.7-0.3,2.5-1,3.2-0.5
		c0,0.1-0.1,0.1-0.1,0.1s3.6,0,3.8,0.3c-0.2-0.5-1.7-0.8-2.2-0.9c-0.7-0.2-1.5-0.4-2.3-0.4c-1.5,0.1-3.2,0.9-4.5,1.4
		s-2.2,0.8-3.1,1.9c-0.7,0.8-0.9,1.2-1.1,2.3c-0.7,3.1-0.8,6.5-0.8,9.7c0,1.2,0.3,1.8,1,2.9c0.9,1.5,2.1,3.3,3.5,4.4
		c1.3,1,3.2,1.7,4.9,2.1c0.8,0.2,1.7,0.5,2.6,0.8c0.3,0.1,0.9,0.1,1.4,0.2C596,662.2,596.1,662.2,596.2,662.2z M625.9,607.8
		c-2.3,0.3-4.3,0.5-6.7,0.3c-1-0.1-2-0.1-3-0.3c-0.7-0.1-0.6-0.1-0.9,0.3c-0.3,0.4-0.6,0.8-0.8,1.1c3.1,0.1,6.1-0.2,9.1-0.2
		c1.3,0,3.1-0.2,4.3,0.6c1.1,0.7,2.1,1.7,2.9,2.7c1.1,1.4,1.5,3.6,1.7,5.4c0.3,1.9,0.3,3.8-0.4,5.5c-0.6,1.5-1.7,3.8-3.4,4.2
		c-1.4,0.3-0.7-2.1-0.6-2.8c0.2-1.8,0.5-3.5,0.4-5.4c0-1-0.3-2.1-0.6-3c-0.2-0.8-0.4-2.1-0.9-2.6l0.1,0.5c0,1,0.7,2.7,0.7,4
		c0,1.5,0,3.2-0.4,4.7c-1.5-1.8-3.4-3.1-5.6-3.8c-0.8-0.2-1.6-0.5-2.3-0.5c-1.1,0.1-2.3,0.4-3.4,0.5c-3.4,0.3-6.8,0-10.1,0.5
		c-1.1,0.2-2.1,0.4-3.1,0.8c-0.9,0.5-2.1,0.7-2.6,1.5c-0.7,1-1.2,2.2-1.8,3.3c-0.4,0.8-0.8,1.5-1.2,2.3c-0.3,0.5-0.8,2.1-1.5,2.1
		c-0.1,0,0-0.6,0-0.8c0.2-1.1,0.3-3.3,0.3-3.5c0-1.8-0.2-3.6-0.6-5.4c-0.4-1.6-0.6-3.3-1.1-4.9c-0.1-0.4-1.2-2.9-1.2-2.9
		c-0.3,0,0.1,1.3,0.1,1.4c0.3,0.8,0.4,1.7,0.4,2.5c0,1.6,0,3.2-0.1,4.7c-0.1,1.3-0.3,2.6-0.3,4c0,0.4-0.1,3.5-1.2,4.5
		c0,0,0-0.5,0-0.4c-0.1,0-0.1,0.1-0.1,0.1c-0.1-0.3,0.3-1.3,0.3-1.7c0.1-0.8,0.1-1.5,0.1-2.3c0-1.9-0.7-3.6-0.9-5.4
		c-0.3-1.6-0.4-3.1-0.8-4.6c-0.1-0.4-1-3.8-1.2-3.8c-0.3,0,0,2.4,0.1,2.5c0.1,0.6,0.5,1.8,0,2.1c-0.4,0.2-1.1-0.2-1.5-0.2
		s-0.5,0.1-0.8,0.2c-1,0.5-2.2,1.2-3.3,1.6c-0.5,0.2-0.6,0-0.9,0.4c-0.5,0.5-0.7,1.4-0.8,2c-0.3,1.3-0.1,2.6,0.2,3.9
		c0.3,1.4,0.8,2.6,1.5,3.9c0.2,0.5,1.1,3.2,1.7,3.6c-0.8-0.3-2.1-2.9-2.4-3.5c-0.8-1.1-1.3-2.3-1.8-3.5c-1.1-2.8-1.1-5.9-0.4-8.8
		c0.3-1.1,0.9-1.9,1.8-2.8c1.1-1.2,2.2-2.6,3.8-3.5c1.2-0.7,2.8-0.7,4.1-0.8c1.1-0.1,2.3-0.1,3.6-0.1c-0.4-0.8-0.1-1.2-1-1.3
		c-1-0.1-2.1,0.1-3.1,0.2c-0.9,0.1-1.9,0.3-2.7,0.6c-0.3,0.1-0.7,0.2-0.9,0.3c-0.8,0.3-1.3,0.7-1.3,0.7s-3.7,2.6-4,2.9
		c-1.2,0.9-1.6,1.9-2.2,3.3c-1,3-1.6,6.4-1,9.5c0.5,3.2,1.8,6.1,2.6,9.2c0.4,1.4,0.7,3,2.1,3.8c1,0.6,1.9,0.8,2.8,0.2
		c1.3-0.8,2.5-1.6,3.9-2.2c1.3-0.6,2.8-0.6,4.1-0.7c2.9-0.2,5.7-0.3,8.6-0.2c1.4,0,2.6,0.1,3.9-0.2c1.8-0.4,3.4-1,5.2-1.6
		c3.1-1,6.6-1.2,9.9-1.8s7-0.8,9.9-2.8c2.5-1.9,4.1-5.4,3.8-8.6c-0.2-2.5-1-5.5-2.4-7.7C630.9,609.8,628.4,607.5,625.9,607.8z
		 M626.6,600.3c0.1,0.1-0.8,1.7-0.8,1.8c-0.3,0.6-0.5,1-0.8,1.5c-0.8,0.9-2.1,0.9-3.2,1s-2.3,0-3.4-0.1c-0.9-0.1-0.9,0.1-1.4,0.9
		c2.2,0.1,4.7,0.6,6.9,0.2c1.5-0.3,2-0.8,2.3-2.3C626.3,602.4,626.7,601.1,626.6,600.3z M601.2,593.6c-0.8,0.4-1.6,0.7-2.4,0.7
		c-0.6,0-1,0-1.6-0.2c-0.3-0.1-0.8-0.5-1-0.6c-0.1,0-1.3,8.5-1.3,9.2c-0.1,1.3-0.2,2.9,0.2,4.2c0.4,1.2,1.9,1.9,3.2,2.2
		c2.9,0.5,5.5-0.2,7.6-2.3c1.1-1.1,2.1-2.3,2.3-4c0.2-1.2,0.2-2.4,0.1-3.7c-0.2-2.1-0.6-3.9-1.4-5.8c-0.3-0.7-0.6-1.3-1-1.9
		c-0.4-0.6-0.4-0.6-0.8-0.3c-0.6,0.3-1,0.8-1.6,1.2C602.6,592.9,601.8,593.2,601.2,593.6z M602,589.6c-0.1-0.3-0.7-1.3-1-1.5
		c-0.5-0.2-1.6,0-2,0c-2.1,0.3-2.6,1.9-2.6,3.8c0,0.6,0,0.6,0.6,0.8c0.8,0.4,1.7,0.2,2.4,0C600.6,592.3,602.5,591.1,602,589.6z
		 M597.5,552.5c-1.6-0.8-3.3-1.6-5-2.2c-0.8-0.3-7.4-1.1-7.4-0.9c0-0.5,1.8-0.8,2.2-1c1.1-0.5,2.3-0.8,3.4-1.2
		c1.9-0.6,3.9-1.1,6-0.9c-0.8-0.6-1.7-1-2.6-1.4c-0.9,0.3-2,0.6-2.9,0.8c-1.6,0.4-3.1,0.8-4.6,1.4c-3.5,1.3-6.2,3.6-8.9,6
		c-1.5,1.4-2.5,2.5-3.5,4.3c-0.8,1.6-1.6,3.3-2.2,5c-1.2,4-1.5,8.6,1.2,12.1c1,1.3,3,2.8,4.7,3.2c0.8,0.2,2,0.1,2.8,0.1
		c0.5,0,0.9,0,1.5-0.1c0.3-0.1,2.1-0.4,2.1-0.7c0.1-0.4-3-0.2-3.5-0.2c-1.3-0.1-2.8-0.2-4-0.9c-1.8-1.1-4.3-3.4-4.5-5.7
		c-0.1-1.2,0.1-2.7,0.2-3.9c0.2-1.4,0.3-2.7,0.9-4c0.8-1.6,1.9-3.1,3.1-4.4c0.7-0.8,1.4-1.5,2.2-2.2c0.6-0.5,1.2-1.4,1.9-1.7
		c0.1,0,0,0.6,0,0.5c-0.1,0.2-0.4,0.5-0.5,0.7c-0.6,0.8-1,1.4-1.5,2.2c-1.7,2.5-3.2,5.4-3.8,8.4c-0.2,0.8-0.4,2.2-0.2,3
		c0.4,1.1,2.3,1.8,3.4,2c0.6,0.1,1.5-0.1,2,0.2c0.4,0.1,0.3,0.3,0.4,0.7c0.2,0.6,0.3,1,0.5,1.6c0.1,0.3,0.5,1,0.5,1.2
		c0-0.2-0.3-0.9-0.1-1c0,0,0.3,0.8,0.3,0.9c0.1,0,0-0.3,0-0.3c0.2-0.6-0.3-2.1-0.3-3c0-1.9,0.2-3.8,0.8-5.5c0.5-1.5,0.9-3.1,1.3-4.6
		c0.3-0.8,0.5-1.7,0.8-2.5c0.1-0.2,0.2-1.2,0.5-1.4c0.7-0.5,0.2,1.8,0.1,2.1c-0.2,1.2-0.5,2.3-0.8,3.5c-0.6,2.2-0.6,4.6-0.1,6.9
		c0.3-0.1,0.6-0.2,0.9-0.3c0.1,0,0.9-0.6,0.9-0.6c0.1,0,0.9,3,0.8,3.1c0.1-0.5-0.2-1.4-0.2-1.9c0-1,0-2.1,0-3.1
		c0.1-2.4,0.3-4.9,0.8-7.3c0.4-1.7,0.2-2.7-0.8-4.1c-0.6-0.8-1.1-1.6-1.9-2.2c-0.3-0.3-0.7-0.4-1-0.6c-0.2-0.1-0.4-0.1-0.5-0.3
		l-0.2-0.5c0.3,0,3.5-0.1,3.9,0.1c-0.1,0-0.1-0.1-0.1-0.1c0.7-0.3,2,0.3,2.7,0.4c1.5,0.3,3.1,0.4,4.6,0.7c1.2,0.3,2.3,0.6,3.6,0.8
		c0.3,0.1,2.3,0.7,2.4,0.4C599.9,553.7,597.6,552.6,597.5,552.5z M585.3,603.3c0.6-0.9,1-1.9,1.3-2.9c0.5-1.7,0.7-3.6,0.8-5.3
		c0.2-1.7,0.6-3.8,0-5.4c-0.2-0.5-0.6-1.4-1-1.7c-0.2-0.1-0.5-0.1-0.7-0.2c-0.4-0.2-0.7-0.8-1-0.8c-2.3-0.8-2.7,3.5-3.1,4.6
		c-0.5,1.7-0.3,3.8-0.2,5.5c0,1.1-0.1,2.3,0,3.4c0,0.3,0,0.7,0.1,0.9c0,0.1,0.4,0.4,0.4,0.5c0,0.3-0.8-0.8-0.8-0.8
		c-0.3-0.7-0.6-1.3-0.8-2c-0.4-1.2-0.6-2.4-0.7-3.7c-0.1-1.1-0.3-2.2-0.6-3.3c-0.2-0.8,0.2-1.2-0.2-1.9s-0.9-1.9-1.8-1.3
		c-0.9,0.7-1.8,2.2-2.3,3.2c-0.3,0.7-0.8,1.3-0.9,2c-0.3,0.9-0.2,2.2-0.4,3.2c-0.1,1.2-0.4,2.6-0.2,3.8c0.1,0.6,0.3,1.2,0.6,1.7
		c0.2,0.5,0.4,0.8,0.7,1.3c0.2,0.3,0.7,0.8,0.7,1.2c0-0.1-1-1.1-1.1-1.2c-0.3-0.4-0.9-1.7-1.3-1.9v0.6c-0.3-0.5-0.5-1.5-0.6-2.1
		c-0.2-0.8-0.3-1.7-0.4-2.5c-0.1-1.5-0.4-2.9-0.3-4.4c0.1-1.5,0.4-2.5,0.9-3.9c0.8-1.9,1.2-3.7,2.6-5.1c2.1-2.1,4.8-3.4,7.6-3.8
		c1.5-0.3,3-0.4,4.6-0.5c0.6-0.1,1.1-0.2,1.8-0.1c0.3,0,2,0.5,2.2,0.3c0.1-0.1-0.2-1-0.3-1.1c-0.2-0.3-0.9-0.3-1.3-0.3
		c-1-0.2-2.1-0.4-3.1-0.4c-2.2,0-4.1,0.8-6.2,1.2c-0.8,0.1-1.6-0.1-2.3,0.3c-0.9,0.5-1.8,1.3-2.6,2c-1.4,1.2-2.5,2.5-3.3,4.2
		c-1,2.3-2,4.6-2.5,7c-0.6,2.5-0.2,5.2,0.2,7.7c0.4,2.3,1.9,4.9,3.2,6.7c0.8,0.9,1.7,1.9,2.6,2.5c0.8,0.7,2.1,1.8,3,1.2
		c2.3-1.4,3.8-3.8,6.5-4.7c1.5-0.6,2.9-0.8,4.5-1.1c1.1-0.2,2.4-0.8,3.7-0.3c0-0.5,0-0.8,0-1.3c-0.2-0.2-2,0.2-2.2,0.2
		c-1,0.1-2,0.2-3,0.3c-0.7,0.1-1.3,0.3-2,0.3c-0.4,0-1.7,0.4-1.8,0.1C584.4,604.6,585.2,603.5,585.3,603.3z M578.4,651.5
		c-0.1-3,0.7-6.1,1.3-8.8l0.3-1c0.1-0.3,0.2-0.7,0.2-0.9c-0.4-0.3-0.9-0.7-1.3-1.2c-0.4-0.6-0.7-1.1-0.9-1.6l-0.1-0.2
		c-1-2-1.8-3.9-2.4-6.2l-0.1-0.3c-0.6-2.1-1.2-4.3-1.4-6.6c-0.3-2.4-0.2-4.8,0.4-7.5c0.1-0.3,0.1-0.5,0.1-0.8c0.1-0.6,0.2-1,0.3-1.6
		c0-0.1,0.1-0.3,0.1-0.4c-0.2-0.1-0.3-0.1-0.5-0.2c-0.9-0.6-1.7-1.2-2.3-1.8c-1.9-1.7-3.7-4.2-4.6-6.7c-2.2-5.2-2.5-11.2-1-15.9
		c0.8-2.3,1.9-5.4,3.7-8.2c0.8-1,1.6-2,2.3-2.8l0,0c-1.7-1.4-3.8-3.4-4.6-5.9c-1-3.1-0.5-6.3,0-9.2l0.1-0.4c0.3-2,0.9-3.8,1.9-5.7
		c-2.7,3.6-5.5,7.8-8.3,12.6l11,86.8c2.3,2.5,5.3,4.9,9,4.9c0.4,0,1-0.1,1.8-0.4c-0.5-0.5-0.9-0.9-1.4-1.4c-0.9-1-1.4-2.1-1.8-3
		c-0.2-0.4-0.3-0.7-0.5-1C578.8,654.6,578.5,653.2,578.4,651.5z M619.3,537.6c-14.6-23.3-32.5-14.7-44.3-9c-1.1,0.6-2.2,1-3.2,1.5
		c-4.1,1.9-7.7,2.4-10.5,2.4c0.9,2.5,0.8,5.5,0.1,7.8c-0.3-1.2-1.8-3.1-4.2-5.2l1.7,13.1c2.8-0.1,3,2.1,3.3,7.7
		c1.4-2.4,3.1-5.3,1.6-9.7c0,0,5.1-0.8,8.3-1.2c3.3-2.6,10.3-6.3,17.7-5.4c1,0,2.1,0.1,3.1,0.3c4.9,0.9,9.2,4.2,12.9,9.8l0,0
		l3.7-1.6c-0.9-1.6-1.6-2.5-2.8-3.9c-2.5-2.9-5.5-5.4-9.1-6.9c-0.8-0.4-1.8-0.6-2.7-0.8l-1.4-0.3c-0.5-0.1-0.9-0.1-1.4-0.2
		c-2-0.2-3.9-0.1-5.9,0.2c-3.9,0.6-7.9,1.9-11.7,3.4c3.4-2.4,7.1-4.4,11.3-5.5c4.1-1,8.7-1.2,13,0.3c4.2,1.4,7.9,4.3,10.6,7.7
		c1.3,1.5,2.3,3.2,3.4,4.9c3.7-1.5,7.4-3.2,9.7-4.3C621.2,540.8,620.2,539.2,619.3,537.6z M784.3,577.1c-0.8,0.2-1.6,0.2-2,0.3
		c-2.3,0.5-4.6,1.1-6.9,1.6c-3.4,0.7-6.7,1.4-10,2.3c-3.1,0.8-6.3,1.1-9.4,1.7c-6.5,1.2-12.9,2.3-19.4,3.2
		c-5.3,0.8-10.5,1.6-15.9,1.8c-2.7,0.1-5.4,0.4-8.3,0.6c-3.2,0.1-6.4,0-9.5-0.1s-6.3-0.3-9.2-1.4c-1.5-0.6-2.8-1.4-4.1-2.3
		c-0.2-0.1-2.5-1.9-2.5-2c-0.2,0.2,2.3,2.7,2.5,3c1.2,1.1,2.6,1.9,4,2.6c2.9,1.7,6.3,2.3,9.6,2.5c3.6,0.4,7.1,0,10.7-0.2
		c3.2-0.2,6.3-0.5,9.5-0.8c4.3-0.5,8.6-1,12.9-1.8c3.1-0.6,6.3-0.8,9.4-1.4c2.5-0.5,6.6-1.2,9.1-1.5c4.2-0.5,8.4-1.7,12.5-2.4
		c3.4-0.7,6.9-1.3,10.2-1.9c2.4-0.5,5.2-0.6,7.6-1.2C784.8,578.6,784.6,577.8,784.3,577.1z M613.6,675.7c1.6-0.3,3.2-0.6,4.8-1.1
		c1.4-0.5,2.7-0.9,4.2-1.1c0.8-0.1,9.9-0.6,9.9-0.5c0,0-7.5,2.2-7.5,2.3c0.2,0.2,1.1,0.3,1.4,0.3c0.8,0.2,1.6,0.3,2.4,0.4
		c1.6,0.2,3.1,0.5,4.7,0.7c1.9,0.3,3.7,0.7,5.5,0.8c1.4,0.1,2.9-0.3,4.3-0.6c3.1-0.6,6.4-0.8,9.4-1.7c1.5-0.5,2.9-1,4.4-1.5
		c1.7-0.6,3.5-0.9,5.2-1.5c3.7-1.1,7.4-1.6,11.1-2.4c2.9-0.7,5.8-1.4,8.7-1.8c3-0.5,6.1-0.7,9.2-1c2.8-0.4,5.7-0.6,8.5-0.5
		c12.6,0.3,25.2,1.3,37.7,2.2c10.6,0.8,21.1,1,31.7,1.7c3.5,0.3,7,0.7,10.5,0.6c1.4,0,2.9-0.2,4.3-0.1c1.1,0.1,2.3,0.3,3.4,0.5
		c0.4,0.1,1.6,0.1,2.4,0.2c1.7-10.9,1.1-49.9-2.2-75.6c-0.5,0.2-1.1,0.2-1.4,0.3c-1.7,0.5-3.3,1-5.1,1.4c-3.7,0.7-7.4,1.3-11.2,2
		s-7.8,1.1-11.6,2c-2.3,0.5-4.5,0.8-6.8,0.9c-2.8,0.3-5.5,0.8-8.4,1.2c-2.4,0.4-5,0.6-7.4,0.7c-1.4,0-2.8,0.1-4.1,0.1
		c-0.4,0-1.5,0.3-1.8,0c0.1,0.1,2.3-0.6,2.4-0.7c1.5-0.4,3-0.8,4.4-1.2c3.5-1,6.9-2,10.5-2.8c2.3-0.6,4.5-1.1,6.8-1.8
		c1.3-0.4,2.5-0.8,3.8-1.2c0.1,0,2.3-0.9,2.4-0.8c-0.3-0.3-2.8,0.6-3.1,0.7c-1.2,0.3-2.3,0.6-3.6,0.8c-3.3,0.6-6.6,0.8-9.9,1.3
		c-5.4,0.8-10.7,2.4-16.2,2.8c-2.3,0.2-4.7,0.2-7.1,0.2c-3,0-6.1-0.3-9.1,0.2c-0.9,0.1-1.9,0.3-2.7,0.5c-0.6,0.1-1.1,0.4-1.6,0.8
		c-2.4,1.9-4.8,3.8-6.5,6.5c-2.2,3.4-3.8,7.2-4.7,11.3c-0.4,1.8-0.6,3.6-0.8,5.4c-0.1,0.8-0.2,1.4-0.3,2.2c0,0.3,0,1.1-0.2,1.2
		s0-0.6,0-0.6c0-0.6,0-1.1-0.1-1.7c-0.1-1.2-0.5-2.5-0.6-3.8c-0.2-2-0.1-3.8,0-5.8c0.1-1.4,0.7-2.8,0.9-4.2c0.2-1,0.4-2.1,0.5-3.1
		c0-0.3,0.4-1.7,0.2-1.9c0.1,0.1-0.7,1.8-0.8,1.9c-0.3,0.8-0.6,1.6-0.9,2.3c-0.8,1.8-1.6,3.5-2.3,5.3c-1.2,2.9-2.2,6-2.6,9.1
		c-0.5,2.8-0.1,5.5-0.3,8.4c-0.1,1.2-0.3,2.5-0.2,3.8c0.2,1.8,0.6,3.6,0.4,5.4c-0.2,2.1-0.8,4-1.3,6c-0.2,0.6-0.5,1.1-0.7,1.7
		c-0.1,0.1-0.4,2-0.5,2c-0.4-0.2-0.3-1.6-0.3-1.9c0-0.9,0.1-1.8,0.3-2.7c0.3-1.9,0.2-3.6,0-5.4c-0.4-3.8-1.1-7.7-1.6-11.6
		c-0.3-2.1-0.6-3.8,0.1-5.8c0.7-1.9,1.1-3.8,1.8-5.6c1.1-2.9,2.4-5.6,2.9-8.7c0.4-2,0.8-3.9,1-6c0.1-1,0.3-2.3,0.2-3.3
		c0-0.5-0.3-2.1-0.8-2.1c0.4,0-0.8,6.8-1,7.3c-0.6,2.7-1.1,5.3-2.1,7.9c-1.2,3.4-2.9,6.8-3.5,10.3c-0.7,3.6,0.5,7.2,0.7,10.8
		s0.3,7.1,0.4,10.7c0.1,1.2,0,2.4-0.3,3.7c-0.4,1.7-0.8,3.2-1.3,4.8c-0.4,1.2-0.6,2.6-1,3.8c-0.2,0.7-0.6,1.2-0.8,1.8
		c-0.1,0.2-0.3,1.3-0.4,1.3c-0.6,0.2-0.6-1.8-0.6-1.9c-0.1-1-0.2-2.1-0.5-3.1c-0.3-0.9-0.7-2-1.3-2.8c-0.2-0.3-0.8-1-1.2-1.1
		c-0.5-0.1-1.4,0.4-2,0.5c-1,0.1-2.1,0-3,0c-0.4,0-3.8-1-3.5-1.3c0,0,1.9,0.5,2.1,0.6c0.6,0.1,1.1,0.1,1.7-0.1
		c1.1-0.3,2.1-0.8,3.1-1.4c0.6-0.3,1.2-0.6,1.7-1c0.4-0.3,1.6-2,2-2c0,0.1,0,0.1,0,0.2c0.1-0.1,1.2-1.6,1.2-1.6
		c-0.1-0.1-3.7,2.4-4,2.6c-1.8,1.1-3.5,1.2-5.5,0.8c-2.2-0.5-4.2-1.7-6.1-2.8c-0.9-0.7-1.9-1.3-2.8-2c-0.4-0.3-1.6-1.4-1.9-1.4
		c0.3,0,0.7,0.4,0.8,0.5c0.4,0.2,0.8,0.5,1.2,0.7c1,0.5,2.1,0.9,3.1,1.4c1.4,0.7,2.4,0.9,4,1.1c2.2,0.2,4.2,0,6-1.3
		c0.8-0.7,1.6-1.5,2.2-2.4c0.2-0.2,1.4-1.8,1.2-2c0.1,0.2-2.1,2.1-2.3,2.3c-0.8,0.6-1.5,0.9-2.3,1.3c-0.3-1-0.1-2-0.2-3
		c-0.1-1.3-0.5-2.5-0.8-3.8c-0.3-0.8-0.8-1.5-1.5-2.2c-0.2-0.2-2.1-2-2.1-2c1.1-0.8,2.4-1.1,3.6-2.1c0.9-0.8,1.8-1.6,2.6-2.5
		c0.8-0.8,1.4-1.7,2.2-2.5c0.3-0.3,0.8-1.3,1-1.4c-0.6,0.4-1.1,1.2-1.6,1.7c-0.7,0.7-1.4,1.2-2.2,1.8c-1.6,1.2-3.5,2.1-5.4,2.9
		c-1.4,0.6-2.7,0.9-4.2,0.9c-1,0-2.2-0.2-3.2-0.4c-0.3,0-2.6-0.8-2.7-0.8c0.6-0.5,2.2-0.4,2.9-0.4c1.2-0.1,2.3-0.4,3.3-1
		c1.1-0.8,2.2-1.7,2.9-2.9c0.6-0.9,1.2-2.3,0.8-3.4c-0.1-0.1-3.7,0.7-4,0.6c-0.1,0-0.9-0.3-0.9-0.3c0-0.1,2.1-0.8,2.3-0.8
		c1.2-0.7,2.3-1.4,3.4-2.3c1.2-1,2.3-2.3,3.2-3.6c0.1-0.2,1.8-2.8,1.6-2.8c-0.3,0-1.2,1.1-1.4,1.3c-0.6,0.5-1.1,1-1.8,1.5
		c-1.1,0.8-2.3,1.6-3.6,2.3c-1.6,0.9-3.5,1.4-5.3,1.8c-0.9,0.2-1.9,0.2-2.8,0.3c-0.5,0-2,0.2-2.4-0.1c0,0,1.6-0.5,1.8-0.5
		c0.8-0.3,1.8-0.6,2.5-0.9c1.2-0.6,2.4-1.3,3.5-2.2c2.2-1.6,4.5-3.4,5.3-6.1c0.7-2.4,0.8-4.8,0.2-7.2c-0.7-2.6-1.5-5.4-3-7.6
		c0.1,0.2-7.7,5.2-8.4,5.6c-1.8,0.9-3.8,1.6-5.8,2c-0.9,0.2-1.9,0.4-2.7,0.6c-0.3,0-1.4,0.4-1.6,0.2c0,0,1.7-0.5,1.8-0.6
		c0.6-0.2,1.3-0.8,1.7-0.9c1.7-0.9,3.7-1.5,5.3-2.7c2-1.5,3.8-3.3,5.4-5.2c1.6-1.8,3.3-3.9,3.9-6.2c0.6-1.7,0.8-3.7,1-5.4
		c-0.8,3.1-2.3,6.4-4.8,8.5c-1,0.9-2.1,1.7-3.2,2.5c-0.8,0.5-1.9,1.3-2.7,1.7c-0.4,0.2-0.8,0.4-1,0.3c0.2,0,1.2-1.1,1.4-1.3
		c0.6-0.6,1.1-1,1.6-1.6c0.9-1,1.9-2.2,2.6-3.3c1.2-1.7,1.2-4.3,0.5-6.2c-0.6-1.2-1.3-2.3-2.1-3.5c-0.3-0.5-0.7-1-0.9-1.5
		c-0.3-0.4-1-0.9-1.1-1.4s0.7-1.7,0.8-2.2c0.5-1.3,0.8-2.6,1.2-3.9c-0.8,0.5-1.1,1.6-1.6,2.3c-0.4,0.7-0.8,1.2-1.4,1.8
		c-1.1,1.3-2.5,2.3-3.9,3.3c-1.6,1.1-3.3,2.4-5.2,3.3c-0.6,0.3-1.1,0.5-1.8,0.7c-0.4,0.2-0.8,0.3-1.1,0.4c-0.2,0.1-0.8,0.1-0.9,0.2
		c0.3-0.3,0.8-0.5,1.1-0.7c0.5-0.3,0.9-0.7,1.4-1c1-0.8,2.2-1.5,3.2-2.4s2-2,2.9-3c0.8-1,1.3-1.4,0.5-2.5c-0.3-0.5-0.7-0.9-0.9-1.3
		c-0.3-0.3-0.8-0.6-0.9-0.8c-0.3-0.5,0.6-1.6,0.8-2.3c0.4-0.8,0.7-1.5,0.8-2.3c0.1-0.4,0.8-1.1,0.8-1.3c0-0.3-0.6,0.5-0.5,0.4
		c-0.3,0.4-0.6,0.8-0.8,1.3c-0.4,0.7-0.8,1.3-1.3,1.9c-1.1,1.4-2.4,2.6-3.8,3.8c-1.3,1.1-2.8,2.3-4.4,3.1c-0.7,0.4-1.3,0.7-2,0.9
		c0,0-1.5,0.6-1.2,0.1c0,0.1,0.5-0.1,0.6-0.1c0.5-0.3,0.9-0.8,1.4-1.1c0.9-0.8,1.9-1.8,2.7-2.6c1.3-1.2,2.8-2.4,3.5-4.2
		c0.4-0.9,0.6-2.2,0.6-3.1c0-0.8-0.6-1.7-0.4-2.4c0.4-1.6,1.7-3,2.6-4.3c-1.6,1.2-3.4,2.3-5.2,3.3c-1.2,0.7-2.3,1.3-3.6,2
		c-0.4,0.2-1.9,1.3-2.4,1.1c0.2,0,2.3-2.2,2.5-2.3c0.9-0.8,2.5-1.8,2.1-3.3c-0.1-0.4-0.6-0.8-0.7-1.1c-0.1-0.5,0.3-0.8,0.4-1.2
		c0.3-0.8,0.4-1.5,0.5-2.3c0-0.3,0.4-2.2,0.1-2.3c0.1,0.1-0.4,1.7-0.4,1.8c-0.3,0.8-0.6,1.7-1,2.4c-0.6,1-1,2-1.8,2.8
		c-1.1,1.3-2.4,2.4-3.5,3.8c-0.3,0.3-2.1,3.3-2.3,3.3c0.1,0,1-2.6,1.2-2.9c0.4-0.8,0.8-1.7,1.4-2.5c0.9-1.5,2.8-3.7,2.5-5.6
		c-0.1-0.5-0.6-1.4-1-1c-0.3,0.3-0.5,1.1-0.7,1.5c-0.3,0.6-0.6,1.1-0.9,1.6c-0.4,0.6-0.8,1.1-1.3,1.6c-0.1,0.1-0.8,1-1,1.2
		c0.4-0.4,1.3-3.1,1.5-3.4c0.4-1.2,0.7-2.4,0.9-3.7c0.2-0.8,0.7-7.2,0-7.2c0.2,0-0.5,3-0.6,3.3c-0.1,0.5-0.4,3.1-0.8,3.2
		c0,0,0-1.6,0-1.7c0-0.5-0.2-0.9-0.4-1.3c-0.3-0.8-0.8-2.4-1.5-2.8c-0.2-0.1-0.3,0.1-0.4,0c-0.2-0.1-0.4-0.3-0.6-0.4
		c-0.5-0.4-0.9-0.6-1.5-0.7c-1-0.2-2.1,0-3.1,0c-1.6,0-3.2-0.2-4.7,0.2c-0.7,0.2-1.2,0.4-1.9,0.3c-0.1,0-0.1-0.2-0.2-0.3
		c-0.3-0.1-0.5,0.1-0.8,0c-0.3,0-0.6-0.2-0.8-0.2c3.8-1,7.2-3.4,11.1-4.4c3.5-0.9,7.6-1.7,11.2-0.9c3.3,0.8,6,3.9,8.2,6.2
		c2.3,2.3,4.7,4.8,6.3,7.7c1.9,3.3,2,7.3,1.8,11c0.7-1.1,1.1-2.3,1.3-3.7c0.1-0.8,0.2-1.6,0.2-2.3c0-0.2-0.3-1.9-0.3-2
		c0,0,5.3,5.1,5.7,5.5c2,1.8,3.8,3.7,5.6,5.6c2.1,2.3,4,4.4,5.9,6.8s2.7,5,2.7,8.1c0,1.8-0.2,3.7-0.6,5.4c-0.1,0.3-0.4,2.8-0.7,3.1
		c0.3-0.3,0.8-2,0.8-2.2c0.5-1.2,0.8-2.5,1.1-3.8c0.1-0.5,0.6-4.4,0.4-4.4c0.4,0,1.2,2.8,1.3,3.3c0.5,1.7,0.6,3.5,0.8,5.3
		c0.3,2.7,0.1,5.5-0.4,8.3c-0.5,2.9-1.1,5.8-2,8.7c-0.5,1.7-0.9,3.4-1.6,5c-0.1,0.2-1.1,3-0.9,3c0.1,0,0.8-1.6,0.8-1.7
		c0.4-0.7,0.7-1.4,0.9-2.1c0.8-1.7,1.3-3.5,1.8-5.4c1-3.8,2.1-7.7,2.5-11.7c0.8-6.7-0.8-13.9-5.3-19.1c-2.1-2.4-4.4-4.6-6.4-7
		c-1.9-2.3-4.2-4.1-6.4-6.2c-2.4-2.3-4.7-4.9-7-7.4c-2-2.2-3.8-4.4-5.9-6.6c-2.2-2.3-4.1-5.1-6.8-6.9c-2.8-2.1-5.7-3.2-9.2-2.9
		c-4,0.3-8.1,0.8-11.7,2.7c-3.7,2-7.6,3.6-11.5,5.3c-4.6,1.9-9.1,3.8-13.7,5.6c-1.3,0.5-2.5,1.1-3.8,1.8c-2.4,1.4-5,2.9-6.4,5.4
		s-1.4,5.1-1.4,7.9c0,3.7,2,6.9,2.3,10.5c0.4,5,0.1,10,0.3,15c0,0.8,0,1.5,0.1,2.3l0.1,1.1c0.5-0.5,0.3-2.3,0.4-3
		c0.2-1.1,0.5-2.3,0.6-3.6c0.2-1.5,0.2-3.6,1.1-4.9c0.8-1.1,2.2-1.3,3.5-1.4c1.6-0.2,3.1,0.4,4.7,0.8c1.7,0.5,3.2,1.3,4.1,2.9
		c0.8,1.4,0.9,3.2,1,4.7c0,0.4,0.7,5.2,0.7,5.3c0-0.1,0.1-0.1,0.1-0.2c-0.1,0-0.1,3.9-0.1,3.9c0.8,0,0.8-8.1,0.8-8.9
		c0-1.4-0.5-2.9-1-4.2c-0.6-1.5-1.6-2.3-2.6-3.5h0.1c0-0.1-0.6-0.8-0.6-0.8c0.9,0,2.3,1.7,2.8,2.3c0.6,0.6,1.1,1.2,1.7,2
		c0.1,0.1,0.9,1.4,0.9,1.4c0.6-0.9,0.7-2.5,0.8-3.6c0.2-1.3,0.5-2.3,0-3.5c-0.6-1.4-1.4-3-2.7-3.8c-1.5-0.9-3.4-1.6-5.1-2.1
		c-0.1,0-1.3-0.2-1.3-0.4c0.1-0.3,1.6,0,1.8,0.1c1.2,0.2,2.5,0.4,3.8,0.7c1.5,0.5,2.9,1,4.2,1.8c0.8,0.4,1.4,0.8,2.1,1.3
		c0.3,0.2,1.7,1.1,1.7,1.3c0-0.4-1-1.5-1.2-1.8c-0.5-0.6-0.8-1.1-1.4-1.6c-0.5-0.4-1.5-0.8-1.8-1.4c-0.2-0.3,0-0.8,0-1.1
		c0.1-2.6,0-5.3,0.3-7.9c1.1,0.7,2.3,1.2,3.3,2.1c1.2,1,2.3,2.2,3.3,3.4c1,1.2,1.6,3.1,2.1,4.7c0.7,2,0.4,4.2,0,6.2
		c-0.4,2.2-0.9,4.2-1.9,6.2c-0.8,1.9-1.6,3.8-2.5,5.7s-2,3.7-3.2,5.4c-1.2,1.8-2.3,3.8-3.9,5.3c-1.9,1.7-4.3,2.7-6.8,3
		c-1.4,0.1-2.8,0-4.2-0.4c-0.8-0.2-1.3-0.6-2-0.8v0.1c-0.1,0-0.3-0.3-0.4-0.3c-0.1,0,0.5,0.5,0.5,0.5c0.4,0.3,0.8,0.5,1.2,0.7
		c0.7,0.4,1.4,0.7,2.2,0.8c1,0.3,2.3,0.3,3.3,0.3s2.3-0.2,3.3-0.6c0.8-0.3,2.4-1.4,2.5-1.4c1.3-0.7,2.5-2.6,3.5-3.8
		c0.6-0.8,1.1-1.6,1.6-2.4c2.7-4.7,5-9.3,6.9-14.4c1.4-3.9,1.7-7.9,0.4-12c-1.1-3.7-3.9-6.6-7-8.6c-2-1.3-4-2.6-6.1-3.6
		c-0.4-0.2-5.6-2.2-5.6-2c0-0.4,5.5,0.8,6,0.9c1,0.3,2,0.7,3,0.9c0.5,0.2,0.9,0.3,1.3,0.5c0.5,0.2,0.8,0.6,1.3,0.8
		c0.5,0.2,0.3,0.3,0.8,0c0.5-0.2,0.8-0.7,1.2-0.9c0.6-0.3,0.2-0.4,0.8,0.1c0.4,0.3,0.7,0.7,0.9,0.9c0.8,0.8,1.3,1.7,1.9,2.7
		c0.6,1,1,2.1,1.5,3.2c0,0.1,0.6,1.4,0.6,1.3c0.2-0.3-0.1-1-0.2-1.3c-0.2-0.7-0.3-1.4-0.5-2.1c-0.2-0.9-0.5-2-0.8-2.9
		c-0.6-1.5-1.9-2.7-3-3.8c-0.7-0.7-7.6-4.8-7.8-4.6c0.2-0.3,4.3,1.1,4.7,1.2c1.7,0.6,3.3,1.5,5.1,2c1.7,0.4,3.3,0.4,4.7-0.9
		c0.7-0.7,0.9-1.4,1.3-2.2c0.1-0.2,0.7-1.6,0.8-1.6c-0.1,0,0.7,6,0.7,6.3c0.1,1.2,0,2.5-0.2,3.8c-0.1,0.8-0.2,1.5-0.2,2.3
		c0,0.2,0.3,2.1,0.3,2.2c0.3-0.3,0.3-1.3,0.3-1.6c0.1-0.7,0.3-1.4,0.4-2.1c0.2-0.9,0.3-2,0.4-3c0.2-2,0.1-4,0.8-5.9
		c0.3,3.1,1.7,6.4,4.1,8.4c0.5,0.4,1.3,0.7,1.2,1.3s-0.9,1.2-1.3,1.6c-0.7,0.8-1.4,1.3-2,2.1c-0.3,0.3-0.8,1-0.9,1.4
		c0-0.3,2.3-1.3,2.6-1.5c1.1-0.6,2.3-1,3.4-1.4c1.9-0.6,3.9-1,5.9-1.1c-4.6,0.8-8.3,3.8-11.5,7.1c-1.7,1.7-3.2,3-3,5.5
		c0.1,0.9,0,2.6,1.2,2.4c0.4-0.1,3.5-1.6,3.5-1.7c0.1,0.2-1.2,1.4-1.4,1.7c-0.7,0.8-1.2,1.7-1.8,2.6c-0.2,0.4-1.1,1.9-0.9,2.2
		c0.2,0.5,0.5-0.1,0.8-0.5c1.1-1.3,2.4-2.3,3.6-3.8c0.6-0.7,1.1-1.3,1.6-2c0.2-0.3,0.6-1.4,0.8-1.5c-0.1,0-0.5,1.6-0.6,1.7
		c-0.4,0.9-0.7,1.8-1.1,2.7c-0.8,1.5-2,2.8-2.6,4.4c-0.8,1.6-0.9,3.3-1.3,5c-0.1,0.3-0.6,2-0.2,2.3c0.3,0.2,1.8-0.1,2.1-0.1
		c1.5,0,3.2,0.2,4.6-0.8c0.7-0.5,1.2-1.1,1.8-1.6c1.2-1,2.3-2.2,3.6-3.1c0.8-0.7,1.9-1.1,2.6-1.6c0,0,1.1-0.8,1.1-0.7
		c0,0.2-1.5,1.2-1.7,1.5c-0.8,0.8-1.4,1.6-2.1,2.5c-0.9,1.4-1.6,3.1-2.7,4.3c-1.3,1.4-2.9,1.4-4.6,2.1c-2,0.8-1.1,2.3,0.1,3.4
		c1.5,1.2,2.9,2.3,3.6,4.3c0.7,1.9,1.1,3.8,1.7,5.7c0.4,1.1,0.8,2.2,0.9,3.3c0.2,1.2,0.2,1.8,1,2.6c1.6,1.7,3.7,3.1,5.5,4.5
		c1.8,1.3,3.8,2,5.7,2.9c0.9,0.5,1.8,0.9,2.7,1.2c0.2,0.1,2.3,0.8,2.3,0.8c-0.6,0.5-3-0.5-3.7-0.6c-1.5-0.3-3.1-0.6-4.5-1
		c-2.4-0.8-4.6-2.1-7-2.9c-1-0.4-1.9-0.8-2.8-1.4c-0.3-0.2-2.1-1.6-2.4-1.4c-0.2,0.1,3.3,3.2,3.6,3.4c1.6,1.2,3.3,2.3,5,3.3
		c1.3,0.8,2.6,1.5,3.9,2.2c0.6,0.3,3.4,2.2,3.6,2c-0.2,0.2-1.2-0.2-1.4-0.2c-0.8-0.1-1.4-0.2-2.2-0.3c-1-0.2-2-0.3-3-0.6
		c-0.5-0.1-3.8-1.4-3.8-1.2c-0.2,0.2,0.5,2,0.6,2.3c0.3,1,0.9,1.6,1.7,2.9c0.8,1.5,2,2.7,3.1,4c1.1,1.2,2,2.6,3,3.9
		c0.8,1,2,1.8,2.9,2.6c0.6,0.6,5.5,5.9,5,6.4c0.1-0.1-3.4-2.8-3.7-3c-1.6-1.1-3.2-2.1-4.8-3.2c-0.7-0.5-7.2-5.7-6.9-6
		c-0.2,0.2,4.5,5.8,4.9,6.3c0.8,0.8,1.6,1.7,2.5,2.4c0.8,0.7,1.8,1.2,2.3,2.1c0.5,0.9,0.7,2.1,1,3.1c0.3,0.9,0.8,1.9,0.9,2.9
		c0.2,1,0.3,2,0.8,2.8c0.4,0.6,0.7,1,0.9,1.6c0.1,0.3,0.4,1.4,0.7,1.6c-2.3-1.4-4.4-2.8-5.7-5.3c-0.8-1.4-1.2-3.2-2.3-4.3
		c-0.8-0.9-1.7-1.9-2.6-2.7c-1.6-1.4-3.1-3-4.7-4.3c-1.2-1-2.3-2.2-3.7-3.1c-0.5-0.3-1.4-1.3-1.9-1.2c0.6-0.1,2.2,2.3,2.3,2.6
		c1,1.3,2.3,2.5,3.4,3.8c0.8,1,1.5,2.3,2.1,3.5c0.3,0.6,0.7,1.2,0.9,1.8c0.1,0.3,0.5,0.8,0.5,0.9c0-0.2-1.1-1-1.2-1.1
		c-0.7-0.6-1.2-1.1-1.9-1.7c-1.4-1.2-2.9-2.5-4.7-3.2c-0.9-0.4-2.1-0.4-2.9,0.1c-1,0.5-1.4,1.3-2.1,2.3c-0.8,1.3-1.6,2.8-2.8,3.8
		s-2.7,1.8-4,2.7c-3.8,6.6-8.4,12-13.2,16.5C613.3,675.7,613.5,675.7,613.6,675.7z M573.4,689.3c0.5,0.3,1.1,0.5,1.9,0.3
		c0.9-0.2,2-0.8,2.9-1.8c0.8-1,1.6-2.3,2.2-3.8c0.6-1.4,0.9-3,1.2-4.6c0.4,1.6,0.8,3.2,0.8,4.9c0.1,1.3,0,2.7-0.3,4.1
		c6.3-1.6,13.5-4.6,20.5-9.5c2.9-2.4,5.1-3.8,7.4-7.2c1.4-2,2.5-4.7,3.1-7c0.1-0.6,0.8-2.2,0.4-2.5c-0.4-0.5-2.3,0.3-2.9,0.4
		c-2.3,0.3-5.4,0.8-7.6,1.4c-0.7,0.2-7,1.6-9.1,1.9c-4,3.1-8.3,5.8-11.9,7.9c-0.5-1.7-3.5-7-6.7-8.9c-2.2-1.1-4-2.7-5.6-4.3
		C570.7,669.4,572.4,683.2,573.4,689.3z M542.9,492.6c-0.3-2.2-2.3-4-5.7-5.7c0.1,0.4,0.1,0.7,0.2,1c0.5,3.2-0.2,5.9-2.3,8.4
		c-1.1,1.6-3.3,3.2-6.3,4.9c-6.5,3.6-16.8,6.9-32.2,10.8c-6.4,2.8-8.3,6.4-10.8,11.4c-1.9,3.8-4.3,8.5-9.3,13.4l-0.1,0.1v0.2
		c-0.5,3-2.8,5.3-5.8,5.6c-0.5,0.1-0.9,0.1-1.4,0H469l-0.2,0.1c-4.7,3.3-8.7,5.7-11.9,7.5c8.7,0,17.4-0.7,24.9-1.7
		c38.3-5.5,48.3-14.9,48.3-14.9s-3.2,1.7-5.3,2.2c-0.2-2.1-1-8.9-2.5-15.2c-0.8-3.1-2.7-7.8-3.8-10c2.4-0.9,4.7-1.8,6.7-2.6
		c4.4,6.4,6.7,21.1,7,24c1.8-0.9,3.6-2.4,5.3-3.9c-0.2-1.7-0.9-7.3-2.6-13.1c-0.9-3.2-3.4-8.1-4.1-9.6c7.7-3.8,9.2-6.1,10.4-7.8
		c1.6-2.1,1.9-4.8,1.9-4.8l0,0L542.9,492.6z M550.4,542.6c-0.3-1.9-2-6.9-5.6-6.7c-5.4,0.7-5.9,9.7-6,11.5
		c3.5-12.5,9.6-4.7,11.2,8.1l14,111.3c0.7,5.5,0.1,11.7-3.9,12.3c-4.1,0.6-6-3.9-6-3.9s2.1,6.5,6.7,5.8c3.2-0.4,6.9-2.4,5.7-12.4
		L550.4,542.6z M538.7,551.8c0.7,9.9,1.5,19.7,2.5,29.6c1,9.9,2.2,19.7,3.3,29.5l1.9,14.7c0.7,4.9,1.3,9.9,2.1,14.7
		c1.4,9.8,2.9,19.6,4.7,29.3c-0.7-9.9-1.5-19.7-2.5-29.6c-0.5-4.9-1-9.9-1.6-14.7l-1.8-14.7c-1.2-9.9-2.5-19.6-3.9-29.4
		C542,571.4,540.5,561.6,538.7,551.8z M457.8,734c1.3,3,8.3,6.4,11.4,7.1c10.2,2.5,22.8,2.7,38.5,0.8c21.6-2.7,35-7.6,45.2-15.5
		c2-1.5,5.6-5.1,5.4-7.6c0,0,0,0,0-0.1c-0.1-0.9-1.1-1.4-1.9-0.9c-11.3,7.4-27.7,13.4-49.7,16.2c-19.6,2.4-35.7,1.3-48-2.2
		C457.8,731.9,457.4,733.1,457.8,734z M431.2,701.4c0.6,4.4,2.7,8.6,6.5,12.4l1.4,1.2c5.9,5.3,14.4,9,24.7,11.1c0.1,0,0.2,0,0.3,0.1
		c2,0.4,4,0.8,6.2,1c0.1,0,0.1,0,0.2,0c0.8,0.1,1.4,0.2,2.2,0.3l0,0c2.3,0.3,4.5,0.5,6.9,0.6c0.1,0,0.2,0,0.3,0
		c1.5,0.1,3.1,0.1,4.6,0.1h0.1c0.8,0,1.4,0,2.2,0c0.3,0,0.7,0,0.9,0c1,0,2.1,0,3.1-0.1c0.6,0,1.1,0,1.7-0.1c0.6,0,1-0.1,1.6-0.1
		c0.8,0,1.5-0.1,2.3-0.2c0.4,0,0.8,0,1.1-0.1c1.1-0.1,2.3-0.2,3.5-0.3c0.4,0,0.7-0.1,1-0.1c1.2-0.1,2.4-0.3,3.8-0.4
		c1.2-0.2,2.5-0.4,3.8-0.6c0.4-0.1,0.7-0.1,1-0.2c1.1-0.2,2.3-0.4,3.4-0.6c0.4-0.1,0.8-0.1,1-0.2c0.8-0.1,1.5-0.3,2.3-0.5
		c0.6-0.1,1-0.2,1.6-0.3s1.1-0.3,1.7-0.4c1-0.2,2.1-0.5,3-0.7c0.3-0.1,0.7-0.2,0.9-0.2c0.8-0.2,1.4-0.4,2.1-0.6c0,0,0,0,0.1,0
		c1.5-0.4,3-0.8,4.5-1.3c0.1,0,0.2-0.1,0.3-0.1c3-0.9,5.9-2,8.6-3h0.1c2.1-0.8,3.9-1.7,5.8-2.5c0.1,0,0.1-0.1,0.2-0.1
		c9.5-4.6,16.8-10.3,21.2-16.9l1-1.6c0.8-1.3,1.4-2.7,2-4c-0.4-0.3-0.6-0.8-0.7-1.2c-0.1-0.3-0.1-0.6-0.2-0.9c0,0.6-0.1,0.9-0.1,0.9
		s-11.8,17.7-37.8,25.9c-30.5,9.6-45.2,2.5-45.2,2.5c32.4-2.7,67.3-10.7,81.9-37.2c-0.2-1.6-0.5-3.4-0.7-5.2
		c-5.3,9.2-13.8,16.9-23.9,22.9c4-4.6,3.7-11.5,3.9-14.8c-1.1,4.3-4.1,11.7-10.3,12.5c-5.9,0.8-12.2-6.2-13.1-13.8L510,573.3
		c-2-15.7,6.9-22.1,12.1-22.7c3.4-0.4,5.9,0.6,7.7,3.6c-1.6-4.9-5.5-8.2-10.4-7.8c19.4-8.3,23.2-16,26.7-21.8
		c-7.6,9.6-22.8,22-62.7,27.7c-14.8,2.2-25.9,2.3-34.2,2c-1.6,1-2.9,2-3.8,3.1c-0.7,0.8-1.9,3.9-3.6,8.2c-0.3,0.6-0.5,1.2-0.8,1.9
		c-0.1,2.8,0.4,5.3-0.7,7.7c-0.7,1.5-1.9,3.1-3.2,4.4L451,689c0.6,4.5-2.3,8.5-6.3,9.1l0,0c-2.8,0.4-5.4-1.1-7-3.5
		c-0.7-1-1.1-2.3-1.3-3.8L424.6,597c-1.9,1.8-3.8,3.1-6,3.8L431.2,701.4z M532.2,689.2c0,0,2.3,2,5.9,0.4c4.5-2,6-7.6,5.1-14.6
		L529,562.2c-0.7-4.9-4.4-6.6-8.4-5.2c-2.7,1-2.8,2.6-3.6,4.4c5.3,0.1,5.6,1.6,7.2,14.4l13.1,103.7
		C538.5,689.3,532.2,689.2,532.2,689.2z M447.8,690.1l-13.4-106.8c-1,2-2.2,3.9-3.3,5.7l13.3,105.9
		C446.8,694.5,448.1,692.9,447.8,690.1z M411.7,597.3c8.4,2.6,15.7-8.5,20.9-19.9c3-0.7,5-3.5,4.6-6.6c-0.1-0.8-0.4-1.6-0.8-2.3
		c0.6-1.5,1.2-2.9,1.7-4.3c0.8-1.9,1.4-3.6,2-5c2.2-0.5,3.6-2.5,3.3-4.7c0-0.2-0.1-0.5-0.2-0.7c2-2.1,4.6-3.5,8.4-5.5
		c3.9-2.2,8.9-4.9,15.6-9.7c0.6,0.2,1.2,0.3,1.9,0.2c2.3-0.3,3.8-2.3,3.7-4.6c5-4.7,7.2-9.1,9.2-13.1c2.6-5.2,5.1-10,13.1-13.4
		c0.1,0,0.2-0.1,0.2-0.1c32.7-8.1,38.8-13.6,37.9-19.5c-0.6-3.7-1.4-6.9-2.5-9.8l-2.3-1.2l2.5-0.8l0.1-0.1c0.8-0.6,0.9-2.3,0.2-3.6
		c-0.4-0.8-1.3-2-3-1.4H528l-3.9,2.1l2.1-3.9c0-0.1,0-0.2,0-0.2c0.5-1.2-0.2-2.9-1.6-3.9c-0.7-0.5-2.3-1.3-4,0c0,0-0.1,0-0.1,0.1
		l-3.8,3.7l1.4-5V464c0.1-1.1-1.5-3.7-3.8-4.4c-1.9-0.6-3.4,0.2-4.7,1.4c0.5,0.6,0.8,1.3,1.1,2c0.2,0.7,0.4,1.3,0.5,1.9
		c0.4,0,0.8,0.1,1,0.3c0.9,0.4,1.5,1.2,1.8,2.2c0.3,0.8,0.3,1.8,0,2.5c-0.4-0.8-0.7-1.5-1-2.1c-0.4-0.6-0.8-1-1.4-1.3
		s-1.2-0.3-1.9-0.2c-0.7,0.1-1.4,0.4-2.2,0.8c0.3-0.8,0.9-1.5,1.8-1.8c0.3-0.1,0.6-0.2,0.9-0.3c-0.3-0.4-0.6-0.8-0.9-1.1
		c-0.7-0.7-1.4-1.2-2.2-1.7c-1.5-0.8-3.1-0.9-4.8-0.5c-1.6,0.4-3.2,1.3-4.3,2.6c-1.1,1.3-1.8,3-1.7,5.3c-0.7-0.8-1.1-2-1.1-3.1
		c0-0.3,0-0.6,0-0.8c-12.7,3.2-25.5,10-34.1,14.5c-3.7,2-6.4,3.3-8.1,3.9c-3.6,1.3-9,2.2-15.4,3.1c-13.7,2.1-30.8,4.6-37.9,13.2
		c-8.4,10.2-3.8,25.5,0.8,40.5c1,3.3,2,6.3,2.7,9.4c1.7,6.5,0.9,14,0.3,21.3C402.9,583.7,401.9,594.2,411.7,597.3z"/>
	<path class="st0" d="M447,507c-0.8,1-0.8,2.3-0.5,3.4s0.9,2.1,1.8,2.6c0.8,0.7,1.9,0.8,2.9,0.8s2.1-0.4,3.1-0.8l1.5-0.7l0.3,1.6
		c0.1,0.6,0.5,1.1,1,1.5c0.6,0.4,1.3,0.7,2.1,0.8c0.8,0.1,1.5,0,2.3-0.3c0.7-0.3,1.2-0.8,1.6-1.3l0.6-1l0.8,0.7
		c0.5,0.4,1,0.7,1.6,0.8c0.6,0.2,1.2,0.2,1.9,0c0.7-0.2,1.1-0.5,1.6-1c0.4-0.6,0.6-1.2,0.7-2c0.2,0.8,0.3,1.5,0,2.3
		c-0.3,0.8-0.9,1.4-1.7,1.9c-0.8,0.4-1.7,0.6-2.5,0.5c-0.5,0-1-0.1-1.5-0.3c-0.5,0.8-1.1,1.4-2,1.8c-1,0.6-2.3,0.8-3.4,0.7
		s-2.3-0.5-3.3-1.1c-0.7-0.5-1.2-1-1.6-1.8c-0.9,0.3-1.9,0.5-2.8,0.4c-1.5,0-3-0.7-4-1.7s-1.7-2.4-1.7-3.8
		C445.4,509.2,445.9,507.7,447,507z"/>
	<path class="st0" d="M415.7,516.4c-1.2,0.8-2.6,1.4-4.2,1.6c-0.9,0.2-2.1,0.1-3.1-0.3s-2-1-2.5-1.9c-0.7-0.8-0.9-1.9-1.1-2.8
		c-0.2-0.9-0.1-2,0.2-2.9c0.3-0.9,0.8-1.8,1.5-2.4s1.7-0.9,2.5-0.8c-1.7,0.6-2.4,2.1-2.5,3.6s0.4,3,1.2,3.9c0.8,0.9,2.2,1.2,3.5,1
		c1.4-0.3,2.8-0.9,4.2-1.7l1-0.7l0.7,0.9c0.6,0.8,1.3,1.4,2.2,1.9c0.8,0.4,2,0.6,3,0.4s2.1-0.6,2.9-1.3c0.8-0.8,1.5-1.7,1.7-2.9
		c0.2,1.2-0.1,2.5-0.9,3.7c-0.6,0.8-1.3,1.4-2.2,1.8c0,0.4,0.1,0.8,0.3,1.2c0.3,0.6,0.7,1.1,1.1,1.5c0.5,0.5,1.1,0.8,1.9,0.9
		c0.7,0.2,1.5,0.2,2.3,0.1c-0.8,0.3-1.5,0.5-2.3,0.6c-0.8,0-1.7-0.1-2.4-0.5c-0.8-0.4-1.5-0.9-2.1-1.6c-0.4-0.5-0.7-0.9-0.9-1.5
		c-0.9,0.1-2,0.1-2.9-0.2C417.4,517.7,416.5,517.1,415.7,516.4z"/>
	<path class="st0" d="M407.5,545.5c0.3-0.3,0.6-0.7,0.9-0.8s0.7-0.4,1.1-0.5s0.8-0.2,1.1-0.2c-1.1,1-1.8,2.2-1.9,3.3
		c-0.1,1.1,0.2,2.2,0.8,3c0.6,0.8,1.5,1.5,2.5,1.7c1.1,0.3,2.4,0,3.9-0.3c-0.9,1.2-2.3,2.2-4,2.3c-1.7,0.2-3.6-0.8-4.6-2.3
		c-1-1.4-1.3-3.5-0.7-5.1C407,546.3,407.2,545.8,407.5,545.5z"/>
	<path class="st0" d="M414.8,571.6c1.3-0.2,2.4,0.8,2.6,2.1s-0.8,2.4-2.1,2.6c-1.3,0.2-2.4-0.8-2.6-2.1
		C412.5,573,413.5,571.8,414.8,571.6z"/>
	<path class="st0" d="M429,554.8c-0.3-1.9,1.1-3.6,3-3.8c1.9-0.3,3.6,1.1,3.8,3c0.3,1.9-1.1,3.6-3,3.8S429.2,556.7,429,554.8z"/>
	<circle class="st0" cx="423.8" cy="574.8" r="1.9"/>
	<path class="st0" d="M421.5,581.4c1.7-0.2,3.3,1,3.5,2.7c0.2,1.7-1,3.3-2.7,3.5c-1.7,0.2-3.3-1-3.5-2.7
		C418.6,583.2,419.8,581.6,421.5,581.4z"/>
	<path class="st0" d="M418,589.1c0.9-0.1,1.9,0.6,2,1.5c0.1,0.9-0.6,1.9-1.5,2c-0.9,0.1-1.9-0.6-2-1.5
		C416.3,590,417.1,589.2,418,589.1z"/>
	<circle class="st0" cx="433.3" cy="562.4" r="1.4"/>
	<path class="st0" d="M438.9,553c1.1-0.1,2.2,0.7,2.3,1.8c0.1,1.1-0.7,2.2-1.8,2.3s-2.2-0.7-2.3-1.8C437,554.1,437.8,553,438.9,553z
		"/>
	<path class="st0" d="M441.9,545.2c1.1-0.1,2.1,0.7,2.3,1.7c0.2,1-0.7,2.1-1.7,2.3c-1.1,0.1-2.1-0.7-2.3-1.7
		C440.1,546.3,440.9,545.3,441.9,545.2z"/>
	<circle class="st0" cx="445.7" cy="539.2" r="2.4"/>
	<circle class="st0" cx="452.9" cy="543.8" r="1.9"/>
	<path class="st0" d="M461.5,535.7c0.9-0.1,1.9,0.6,2,1.5s-0.6,1.9-1.5,2s-1.9-0.6-2-1.5C459.8,536.7,460.5,535.9,461.5,535.7z"/>
	<circle class="st0" cx="468.2" cy="534.6" r="2.2"/>
	<path class="st0" d="M466.8,527.1c-0.2-1.4,0.8-2.6,2.2-2.8c1.4-0.2,2.6,0.8,2.8,2.2c0.2,1.4-0.8,2.6-2.2,2.8
		C468.2,529.5,467,528.5,466.8,527.1z"/>
	<path class="st0" d="M430.9,568.4c1.8-0.2,3.4,1,3.6,2.8c0.2,1.8-1,3.4-2.8,3.6s-3.4-1-3.6-2.8S429.2,568.6,430.9,568.4z"/>
	<path class="st0" d="M465.2,492.2c-0.6-1.4-0.7-3-0.1-4.6s2-2.8,3.5-3.5c1.6-0.7,3.4-0.8,5-0.3c1,0.3,2.1,0.8,2.9,1.6
		c0.4-0.5,0.9-0.9,1.5-1.3c1.1-0.8,2.4-0.9,3.7-0.8s2.4,0.6,3.3,1.5c0.9,0.8,1.2,2.3,0.8,3.3c-0.1-1.1-0.8-2-1.5-2.4
		c-0.8-0.5-1.8-0.7-2.6-0.5c-0.9,0.1-1.7,0.5-2.3,0.9c-0.7,0.5-1.1,1.2-1.4,2l-0.8,2.3l-1.4-2.1c-0.7-0.9-1.6-1.6-2.7-2
		s-2.3-0.4-3.6-0.1c-1.1,0.3-2.3,1-3,2.1C465.7,489.3,465.3,490.7,465.2,492.2z"/>
	<path class="st0" d="M515.8,475.9c1.4-0.7,3.1-0.8,4.7-0.5s3.2,1.5,3.8,3c0.8,1.5,0.8,3.1,0.3,4.5c-0.7-1.4-1.2-2.5-2-3.4
		c-0.8-0.8-1.7-1.3-2.8-1.6c-1-0.3-2.3-0.3-3.5-0.1s-2.5,0.5-3.8,1C513.2,477.6,514.4,476.5,515.8,475.9z"/>
	<path class="st0" d="M581.2,572.9c-0.1-0.1-0.1-0.3,0-0.4C581.3,572.6,581.3,573.1,581.2,572.9z"/>
	<path class="st0" d="M581.1,572.3C581,572.2,581.1,572.2,581.1,572.3L581.1,572.3z"/>
	<path class="st0" d="M681.2,593.9c-0.1-0.1,0-0.2,0-0.2C681.3,593.7,681.2,594,681.2,593.9z"/>
	<path class="st0" d="M698.4,654.2c2.7-0.2,5.4-0.3,8.3-0.2c3.4,0.1,6.8,0.4,10,0.9c3.2,0.6,6.2,0.9,9.4,1c1.3,0,2.7,0,4,0
		c0.7,0,1.4,0,2.1,0c0.2,0,1.1-0.1,1.3,0.1l-0.2,0.1c-3.4,1.1-6.9,1.2-10.4,1.2c-3.4,0-6.6,0.1-9.9-0.3c-3.7-0.4-7.3-0.3-11-0.6
		c-1.8-0.2-3.7-0.5-5.4-0.8c-0.5-0.1-5.1-0.9-5.1-1.3c0.1-0.1,0.2-0.1,0.3-0.1C693.8,654.4,696.4,654.4,698.4,654.2z"/>
	<path class="st0" d="M681.5,592.6C681.5,592.5,681.5,592.6,681.5,592.6L681.5,592.6z"/>
	<path class="st0" d="M604.7,569.8c-2.3-0.5-4.7-1.2-7.1-0.8c-1.8,0.3-3.4,1.1-5.3,1c1.3-1.7,3.8-2.9,6-2.6c1.1,0.2,2.2,0.5,3.2,0.9
		c0.7,0.3,1.2,0.5,1.9,0.8C603.6,569.2,604.4,569.7,604.7,569.8L604.7,569.8z"/>
	<path class="st0" d="M723.7,627c-3.2-0.4-6.2-1.2-9.4-1.7c-1.8-0.2-3.6-0.5-5.4-0.8c-0.9-0.1-1.8-0.2-2.7-0.3c-0.5,0-1.1,0-1.7-0.1
		c0.7,0.1,1.9-0.2,2.4-0.2c1.3-0.1,2.7-0.1,4-0.2c2.2-0.1,4.2-0.1,6.4-0.2c5.9-0.4,11.8,0.4,17.7,0.6c5.4,0.2,10.6,0,16,0.4
		s10.9,0.7,16.3,0.8c3.4,0.1,6.7,0.2,10,0.2c1.5,0,3,0,4.5,0.1c0.8,0,1.7,0,2.4,0c0.3,0,1.7-0.2,1.9,0c0,0-0.8,0.3-0.9,0.3
		c-1.4,0.4-2.8,0.3-4.1,0.5c-0.6,0.1-1.1,0.3-1.7,0.3c-3.3,0.4-6.6,0.7-9.8,0.9c-3.3,0.3-6.7,0.7-10,0.6c-2.7-0.1-5.4-0.4-8.1-0.7
		c-4.9-0.5-9.9,0.1-14.7,0.2C732.5,627.9,728,627.5,723.7,627z"/>
	<path class="st0" d="M712.3,638.1L712.3,638.1C712.5,638,712.4,638,712.3,638.1z"/>
	<path class="st0" d="M772.7,619.9c-2.9-0.2-5.8,0.5-8.6,0.8c-4.1,0.4-8.3,0.6-12.5,0.8c-4.6,0.3-9.2,0.3-13.8-0.1
		c-1.9-0.1-3.8-0.3-5.6-0.5c-0.2,0-3-0.2-3.1-0.4c0,0.3,5.7-0.4,6.1-0.4c3.5-0.4,6.9-0.7,10.3-0.8c3.8-0.1,7.4,0.2,11.2,0.2
		c3.6,0,7,0,10.6,0c1.5,0,3.1-0.1,4.6-0.1c0.2,0,1.6,0.4,1.5,0.4C773.2,620,772.8,619.9,772.7,619.9z"/>
	<path class="st0" d="M717.4,640.1c-1.7-0.2-3.3-0.7-5-0.8c-1-0.1-2-0.1-3-0.3c-0.3-0.1-2.2-0.2-2.3-0.6c0,0.1,4.4,0,5.3-0.4
		l-0.1,0.1c0.2,0.2,2.3-0.2,2.6-0.2c0.8-0.1,1.7-0.1,2.6-0.1c1.3,0,2.6,0.1,3.8-0.1c2.2-0.3,4.4-0.8,6.6-0.8
		c4.6,0.1,9.3,0.5,13.9,0.5c0.8,0,9.2,0.2,9.2,0.2c0,0.1-1.2,0.2-1.3,0.2c-2.5,0.2-5.1,0.6-7.6,0.8c-2.8,0.3-5.6,0.4-8.4,0.5
		c-3.4,0.2-6.7,0.5-10,0.8C721.5,640.4,719.6,640.3,717.4,640.1z"/>
</g>
<g>
	<g>
		<g>
			<path class="st1" d="M373.2,1189.6c-2.9-12,0.5-24.9,6.8-35.6c6.7-11.2,15.6-21,25.5-29.6c7.1-6.2,15.1-13.7,25.1-14.4
				c7.8-0.5,13.7,4.1,19.3,8.8c10.7,8.9,25.5,11.1,34.7,22c6.1,7.3,8.6,17.2,8.2,26.7c-1.7,34.1-39.5,68.2-74.1,65.8
				c-10.8-0.7-18.3-9.5-26-16.2C384,1209.8,376,1200.9,373.2,1189.6z"/>
			<path class="st1" d="M426.2,1112.6c20.3,13.5,47.8,31.8,66.3,47.7"/>
			<path class="st1" d="M417,1115.6c20.3,13.5,57.1,39.2,75.5,55.1l34.5,85.2"/>
			<path class="st1" d="M410.5,1120.2c20.3,13.5,61.8,43.5,80.2,59.4"/>
			<path class="st1" d="M405.4,1125.5c20.3,13.5,64.2,45.8,82.6,61.7"/>
			<path class="st1" d="M399.6,1130c20.3,13.5,66.7,47.9,85.1,63.8"/>
			<path class="st1" d="M394.6,1135.2c20.3,13.5,66.7,47.9,85.1,63.8"/>
			<path class="st1" d="M389.9,1140c20.3,13.5,66.7,47.9,85.1,63.8"/>
			<path class="st1" d="M384.8,1145.4c20.3,13.5,66.7,47.9,85.1,63.8"/>
			<path class="st1" d="M381.8,1151.3c20.3,13.5,65.1,46.7,83.5,62.6"/>
			<path class="st1" d="M378.4,1157.1c20.3,13.5,63.8,45.7,82.2,61.6l9.2,53.1"/>
			<path class="st1" d="M375.4,1164c20.3,13.5,61.8,44.2,80.2,60.1"/>
			<path class="st1" d="M373.1,1171.3c20.3,13.5,56.5,40.3,74.9,56.2"/>
			<path class="st1" d="M372.3,1178.3c20.3,13.5,51.1,35.9,69.5,51.8"/>
			<path class="st1" d="M373,1188.6c20.3,13.5,42.1,27.9,60.5,43.8"/>
			<path class="st1" d="M378.1,1201.1c20.3,13.5,27.8,16.5,46.2,32.4"/>
		</g>
		<path class="st1" d="M370.6,1185.2c-22.1,1.2-44.4,0.9-66.4-0.8c-8.6-0.7-17.6-1.7-25-6.2c-12.8-7.8-17.7-25.3-13.4-39.7
			s16.2-25.7,29.7-32.2s28.7-8.8,43.6-10.1c11.4-1,23.9-1.2,33.1,5.9c6,4.5,9.6,11.6,11.4,18.9s3.4,15.6,3.5,23.2"/>
		<path class="st1" d="M266.6,1135.5c24.4-13.7,67.8-39.5,67.6-39.3"/>
		<path class="st1" d="M265.4,1147.7c27.8-17.2,55.7-34.3,83.5-51.5"/>
		<path class="st1" d="M265.8,1158.8c32.6-20.4,65.3-40.8,97.9-61.2"/>
		<path class="st1" d="M270.5,1169.1c35.6-19.9,69.5-42.8,101.2-68.5"/>
		<path class="st1" d="M279.9,1178c0.1,0,0.3,0,0.4,0c34.7-21.2,66.9-43,98.2-69"/>
		<path class="st1" d="M293.7,1181.9c29.9-20.1,59.7-40.1,89.6-60.2"/>
		<path class="st1" d="M306.9,1184c27.3-16.3,53.5-34.3,78.5-53.9"/>
		<path class="st1" d="M325.8,1185.5c20.5-11.9,43.2-28.2,61.1-43.8"/>
		<path class="st1" d="M343,1185.7c10-6.7,20.1-13.4,30.1-20.1"/>
		<path class="st1" d="M359.8,1184.8c3.6-3.4,7.3-6.7,10.9-10"/>
		<path class="st1" d="M388,1214.3c-12.7,1.9-25.5,3.8-38.2,5.7c-7.6,1.2-15.3,2.3-21.8,6.3c-8,4.9-13.2,13.5-16.4,22.3
			c-3.3,8.8-5.2,18.1-8.5,26.9c-3.6,9.5-8.9,18.2-12.5,27.7s-5.4,20.3-1.8,29.7c3.6,9.5,14,16.8,23.9,14.3
			c6.1-1.6,14.8-7.9,19.6-12.2"/>
		<path class="st1" d="M293.3,1296.6c-14.2-0.4-25.6-10-34.2-21.4c-11.7-15.5-18-35.5-15.3-54.8s13.5-36.9,30.9-45.5"/>
		<path class="st1" d="M244.4,1213.6c14.2-11.6,29.3-22.3,45.1-31.7"/>
		<path class="st1" d="M242.6,1231.4c21.2-16.4,43-32,65.3-46.9"/>
		<path class="st1" d="M245,1243.6c27.2-18.2,53.4-37.8,78.6-58.7"/>
		<path class="st1" d="M251.1,1258.4c29.6-24.5,59.2-49,88.8-73.5"/>
		<path class="st1" d="M257.9,1273.4c32.4-29.1,64.9-58.1,97.3-87.3"/>
		<path class="st1" d="M270.5,1284.9c15.6-13.7,30.5-28.2,44.5-43.4"/>
		<path class="st1" d="M341.9,1220.6c11.3-10.7,22-22,31.9-33.8"/>
		<path class="st1" d="M366.2,1217.2c4.7-5,9.5-10,14.2-15"/>
		<path class="st1" d="M280.7,1293.4c8.8-9,17.5-18,26.3-26.8"/>
		<path class="st1" d="M344.4,1350.1c3.2-12.7,9.6-24.3,14.1-36.5c5-13.6,7.9-28.5,17.5-39.4c7.5-8.4,18.3-13.4,29.4-15.2
			c11.1-1.8,22.6-0.7,33.6,1.5c13.2,2.7,26.9,7.4,35.2,18c7.6,9.7,9.2,22.9,7.1,35.1c-2.1,12.1-7.7,23.3-13.7,34
			c-11.1,20.1-25.2,40.7-46.8,48.4c-20.2,7-41.7,1.1-61-5.9C342.5,1383.7,340.2,1367.4,344.4,1350.1z"/>
		<path class="st1" d="M341.6,1371.1c-6.6,0.3-12-6-13.2-12.4c-1.2-6.5,0.7-13.1,2.6-19.4c5-16.6,10-33.2,15-49.9
			c2.8-9.2,5.9-18.9,13.3-24.9s21.4-6.3,25.4,2.4"/>
		<path class="st1" d="M404.3,1259c-4-9.2-3.1-20.4,2.4-28.8"/>
		<path class="st1" d="M482.4,1292.3c14.1,1.4,28.7-5.4,36.8-17.1c10.8-15.7,9.1-36.5,11.9-55.4c2.5-16.9,8.7-34.7,2-50.2
			c-6.6-15.1-25.9-23.2-41.2-17.4"/>
		<path class="st1" d="M315.4,1240c27.2-7.8,49.9-14.8,77.1-22.7"/>
		<path class="st1" d="M311,1251.1c29.6-10.1,59.6-18.9,89.9-26.5"/>
		<path class="st1" d="M308.9,1260.9c31.6-11.7,63.9-21.6,96.7-29.6"/>
		<path class="st1" d="M304.1,1271.8c32.7-10.6,65.4-21.2,98.2-31.8"/>
		<path class="st1" d="M299,1284.9c19.2-5.7,41.8-13,60.3-20.4"/>
		<path class="st1" d="M373.2,1259.4c8.9-2.6,17.9-5.1,26.8-7.6"/>
		<path class="st1" d="M294,1297c18.3-6,36.6-12,54.9-18"/>
		<path class="st1" d="M288.7,1310.5c18.1-8.1,36.7-15.2,55.7-21.2"/>
		<path class="st1" d="M287.5,1323.1c18.7-7.7,37.2-15.9,55.4-24.6"/>
		<path class="st1" d="M289.3,1334.4c16.4-6.6,32.4-13.7,48.4-21.2"/>
		<path class="st1" d="M299.4,1343.5c11.6-5.2,23-10.3,34.6-15.5"/>
		<path class="st1" d="M349.3,1277c8.8-5,17.6-9.9,26.4-14.8"/>
		<path class="st1" d="M346.8,1289c9.3-4.9,18.7-9.8,27.9-14.7"/>
		<path class="st1" d="M343.3,1298.9c7.8-3.6,15.6-7.2,23.6-10.8"/>
		<path class="st1" d="M339.3,1310.7c9-4.7,15.7-8.2,24.6-12.9"/>
		<path class="st1" d="M336.7,1322.9c7.5-2.9,15-6,22.5-8.9"/>
		<path class="st1" d="M331.3,1335c7.6-4.2,15.5-7.8,23.6-10.8"/>
		<path class="st1" d="M328.1,1347.8c6.7-3.4,13.2-6.8,19.9-10.2"/>
		<path class="st1" d="M328.9,1359.2c5.4-2.8,10.8-5.4,16.2-8.2"/>
		<line class="st1" x1="410.4" y1="1231.2" x2="415.5" y2="1258.1"/>
		<line class="st1" x1="418.6" y1="1233.5" x2="423.5" y2="1258.1"/>
		<line class="st1" x1="427.4" y1="1233.6" x2="432.4" y2="1259.4"/>
		<line class="st1" x1="437.1" y1="1231.5" x2="442.2" y2="1261.1"/>
		<path class="st1" d="M445.5,1228.7c-0.7,0.3,5.2,34.8,5.2,34.8"/>
		<line class="st1" x1="452.2" y1="1225.5" x2="459.4" y2="1266.8"/>
		<line class="st1" x1="467.9" y1="1214.4" x2="484.8" y2="1292.5"/>
		<line class="st1" x1="474.5" y1="1208" x2="495.1" y2="1291.4"/>
		<line class="st1" x1="482" y1="1198.9" x2="504.3" y2="1288"/>
		<line class="st1" x1="486.6" y1="1190.3" x2="513.6" y2="1281.7"/>
		<line class="st1" x1="490.8" y1="1177.3" x2="521.4" y2="1271.8"/>
		<line class="st1" x1="491.8" y1="1152.2" x2="529.4" y2="1236.3"/>
		<path class="st1" d="M521.4,1185.5"/>
		<line class="st1" x1="498.1" y1="1149.9" x2="531.1" y2="1219.9"/>
		<line class="st1" x1="534" y1="1204.1" x2="510.7" y2="1151.3"/>
		<line class="st1" x1="355.2" y1="1387.9" x2="437.1" y2="1259.4"/>
		<line class="st1" x1="347.9" y1="1381.6" x2="425.7" y2="1259.4"/>
		<line class="st1" x1="342.9" y1="1369.4" x2="413" y2="1259.4"/>
		<line class="st1" x1="344.4" y1="1350.1" x2="401.8" y2="1259.4"/>
		<line class="st1" x1="365.9" y1="1392.1" x2="448.1" y2="1263.1"/>
		<line class="st1" x1="375.3" y1="1394.6" x2="457.1" y2="1266.2"/>
		<line class="st1" x1="384.8" y1="1397.2" x2="465.1" y2="1271.3"/>
		<line class="st1" x1="397.1" y1="1399.1" x2="473.3" y2="1279.4"/>
		<line class="st1" x1="412.4" y1="1398.1" x2="479.7" y2="1288.2"/>
		<line class="st1" x1="424.4" y1="1394.6" x2="482" y2="1304.1"/>
	</g>
	<g>
		<g>
			<path class="st1" d="M537.5,1416.6h-301c-10.3,0-18.8-8.4-18.8-18.8v-301c0-10.3,8.4-18.8,18.8-18.8h301
				c10.3,0,18.8,8.4,18.8,18.8v301C556.2,1408.2,547.8,1416.6,537.5,1416.6z"/>
			<path class="st1" d="M346.5,1383.2h-59.1c-19.9,0-36.1-16.2-36.1-36.1v-83.9"/>
			<path class="st1" d="M522.8,1269.7v77.4c0,19.9-16.2,36.1-36.1,36.1h-45"/>
			<path class="st1" d="M442.2,1111.6h44.4c19.9,0,36.1,16.2,36.1,36.1v9.4"/>
			<line class="st1" x1="380.5" y1="1111.6" x2="421.1" y2="1111.6"/>
			<path class="st1" d="M251.3,1197.3v-49.6c0-19.9,16.2-36.1,36.1-36.1"/>
		</g>
		<path class="st1" d="M234.5,1141.6c0.4-14.4,3.6-26.6,13.8-37.5c13.1-14,32.5-9.2,49.6-9.2"/>
		<path class="st1" d="M235,1171.6c0-6-0.3-12.1-0.4-18.1"/>
		<path class="st1" d="M235,1196.3c0-5.2,0-10.5,0-15.8"/>
		<g>
			<path class="st1" d="M539.4,1170.3c0-5.6,0-11.2,0-16.8"/>
			<path class="st1" d="M539.3,1189.5c0-4,0.1-8.1,0.1-12.1"/>
			<path class="st1" d="M539,1251.7c0-18.4,0.1-36.8,0.2-55.2"/>
			<path class="st1" d="M539.4,1356.9c-0.1-16.7-0.2-33.3-0.3-50"/>
		</g>
		<g>
			<path class="st1" d="M302,1402.5c-5.6,0-11.2,0-16.8,0"/>
			<path class="st1" d="M321.2,1402.6c-4,0-8.1-0.1-12.1-0.1"/>
			<path class="st1" d="M383.5,1402.7c-18.4,0-36.8-0.1-55.2-0.2"/>
			<path class="st1" d="M488.7,1402.5c-16.7,0.1-33.3,0.2-50,0.3"/>
		</g>
	</g>
</g>
</svg>
