<?xml version="1.0" encoding="utf-8"?>
<!-- Generator: Adobe Illustrator 24.0.3, SVG Export Plug-In . SVG Version: 6.00 Build 0)  -->
<svg version="1.1" id="Слой_1" xmlns="http://www.w3.org/2000/svg" xmlns:xlink="http://www.w3.org/1999/xlink" x="0px" y="0px"
	 viewBox="0 0 1366 2888.8000488" style="enable-background:new 0 0 1366 2888.8000488;" xml:space="preserve">
<g>
	<g>
		<path style="fill:#1C1C1A;" d="M641.9000244,2404.8999023c2.7999878-0.8000488,5.5-1.8999023,8-3.3999023L650,2403.6000977
			c-3.2999878,1.8000488-6.7000122,3.1000977-10.4000244,4c-5.2999878,1.1999512-10.7000122,1.1999512-16.0999756,0.1000977
			c-6.9000244-1.3999023-12.9000244-4.3000488-18.0999756-8.8999023
			c-5.2000122-4.6000977-8.9000244-10.1999512-11.2000122-16.6999512
			c-2.2000122-6.6000977-2.5999756-13.3000488-1.2999878-20.1999512c1.4000244-6.8999023,4.4000244-12.8999023,8.9000244-18.1000977
			c4.5999756-5.1999512,10.0999756-8.8999023,16.7000122-11.1999512c6.5999756-2.3000488,13.2999878-2.6999512,20.2000122-1.3000488
			c9.4000244,1.8999023,17,6.5,22.9000244,13.8999023l-2.9000244,2.3000488
			c-5.9000244-7.6000977-13.4000244-12.1999512-22.7000122-14c-9.2999878-1.6999512-17.7999878,0-25.5,5.1000977
			c-5.2999878,3.5-9.2999878,8.1000977-11.9000244,13.8999023c-2.5999756,5.8000488-3.7000122,11.8999023-3.2000122,18.3999023
			s2.5999756,12.5,6.4000244,18.1999512c4.5999756,6.8000488,10.5999756,11.6000977,18.0999756,14.5
			C627.5,2406.3999023,634.7999878,2406.8999023,641.9000244,2404.8999023z"/>
		<path style="fill:#1C1C1A;" d="M680.7000122,2344.8999023c6.5999756-2.3000488,13.2999878-2.6999512,20.2000122-1.3000488
			s12.9000244,4.3999023,18.0999756,9c5.2000122,4.6000977,8.9000244,10.1999512,11.2000122,16.6999512
			c2.2999878,6.6000977,2.7000122,13.3000488,1.2999878,20.1999512s-4.4000244,12.8999023-9,18.1000977
			c-4.5999756,5.1999512-10.2000122,8.8999023-16.7000122,11.1999512
			c-6.5999756,2.3000488-13.2999878,2.6999512-20.2000122,1.3000488s-13-4.3999023-18.2000122-9
			s-8.9000244-10.1999512-11.2000122-16.6999512c-2.2000122-6.5-2.5999756-13.3000488-1.2999878-20.1999512
			c1.4000244-6.8999023,4.4000244-12.8999023,8.9000244-18.1000977
			C668.5,2350.8999023,674.0999756,2347.1000977,680.7000122,2344.8999023z M696.2999878,2418.3999023
			c6.2999878-0.3000488,12.2000122-2.1000977,17.5-5.6999512c5.2999878-3.5,9.2999878-8.1999512,12-14
			s3.7999878-11.8999023,3.2000122-18.3999023c-0.5-6.5-2.7000122-12.5-6.4000244-18.1000977s-8.5-9.8999023-14.2999878-12.8999023
			S696.5,2345,690.0999756,2345.1999512c-6.4000244,0.3000488-12.2000122,2.1000977-17.5,5.6000977
			s-9.2999878,8.1999512-11.9000244,14c-2.5999756,5.8000488-3.7000122,11.8999023-3.2000122,18.3999023
			s2.7000122,12.5,6.4000244,18.1000977s8.5,9.8999023,14.2999878,12.8999023
			C683.9000244,2417.3000488,690,2418.6000977,696.2999878,2418.3999023z"/>
		<path style="fill:#1C1C1A;" d="M749,2429.6000977l1.0999756,2.1000977l-21.7999878-4.3999023l14.7999878-74.1000977
			l3.5999756,0.6999512l-14.5,72.3000488L749,2429.6000977z"/>
		<path style="fill:#1C1C1A;" d="M791.7000122,2361.6999512l5.0999756,79.3999023l-3.5999756-0.6999512l-1.7999878-29.3000488
			L769.5,2406.6999512L756.5,2433l-1.9000244-0.3999023l33.7000122-68.1999512L791.7000122,2361.6999512z M770.4000244,2405
			l20.7999878,4.1999512l-2.5999756-41L770.4000244,2405z"/>
	</g>
	<g>
		<path style="fill:#1C1C1A;" d="M729.2999878,2462.8000488c2.2999878-0.1999512,4.7000122-0.1000977,7.0999756,0.5
			c6,1.3999023,10.7000122,4.8000488,14,10.1000977s4.2000122,11,2.7999878,17
			c-1.0999756,4.6000977-3.2999878,8.3999023-6.7999878,11.5c-3.4000244,3.1000977-7.4000244,5-11.7999878,5.6999512l13.2000122,33
			L744.5,2539.8000488l-12.9000244-32c-1.9000244,0.1000977-3.7000122-0.1000977-5.5999756-0.6000977
			c-1.0999756-0.3000488-2.2999878-0.6000977-3.4000244-1.1000977l-6.4000244,27l-3.4000244-0.8000488L729.2999878,2462.8000488z
			 M723.0999756,2504.3999023c1,0.5,2.0999756,0.8999023,3.2999878,1.1999512
			c5.0999756,1.1999512,9.9000244,0.3000488,14.5-2.8000488s7.5-7.5,8.9000244-13.1000977
			c0.7000122-2.8000488,0.7999878-5.5,0.4000244-8.1999512c-0.4000244-2.6999512-1.2000122-5.1999512-2.4000244-7.3999023
			s-2.9000244-4.1000977-4.9000244-5.6999512c-2.0999756-1.6000977-4.2999878-2.6999512-6.7999878-3.3000488
			c-1.2000122-0.3000488-2.4000244-0.5-3.5-0.5L723.0999756,2504.3999023z"/>
		<path style="fill:#1C1C1A;" d="M755.7999878,2540.8000488L771.3999634,2544.5l1,2l-20.4000244-4.8000488l16.5-69.6000977
			l20.4000244,4.8000488l-1.7999878,1.3999023L771.5,2474.5998535l-5.7000122,24l13.5999756,3.1999512l-1.5999756,1.3999023
			l-12.4000244-2.8999023L755.7999878,2540.8000488z"/>
		<path style="fill:#1C1C1A;" d="M823.0999756,2495c3.5,5.6999512,5.2999878,11.8000488,5.5,18.3999023
			c0.2000122,6.5-1.2999878,12.6999512-4.4000244,18.5c-3.0999756,5.8000488-7.5,10.3999023-13.0999756,13.8999023
			c-4.7999878,3-10,4.6999512-15.4000244,5.3000488c-5.5,0.6000977-10.7000122,0-15.7999878-1.8000488
			c-1.2000122-0.3999023-2.2999878-0.8999023-3.2999878-1.3000488l16.7000122-70.5
			c1.0999756,0.1000977,2.2999878,0.1999512,3.5,0.3999023c5.4000244,0.6999512,10.2999878,2.5,15,5.5
			C816.2999878,2486.3999023,820.0999756,2490.1999512,823.0999756,2495z M783.5,2548.6000977
			c5.7999878,1.3999023,11.5999756,1.1000977,17.2999878-0.6999512c5.7000122-1.8999023,10.7000122-5.1000977,14.7999878-9.6000977
			c4.0999756-4.6000977,6.9000244-9.8999023,8.4000244-16.1999512c1.0999756-4.6000977,1.2999878-9.1999512,0.5999756-13.8000488
			s-2.2000122-8.8000488-4.2999878-12.5c-2.2000122-3.6999512-5-7-8.5999756-9.8000488s-7.5999756-4.6999512-11.9000244-5.6999512
			c-1.0999756-0.3000488-2.2999878-0.5-3.5-0.6000977l-16.0999756,68
			C781.2000122,2547.8999023,782.2999878,2548.3000488,783.5,2548.6000977z"/>
		<path style="fill:#1C1C1A;" d="M873.5999756,2527.1000977c3.5999756,2.6000977,6.2999878,6.1000977,7.9000244,10.3000488
			c1.5999756,4.1999512,1.9000244,8.6999512,0.7999878,13.1999512c-1.4000244,6-4.7999878,10.6999512-10.0999756,14
			s-11,4.1999512-17,2.8000488c-2.4000244-0.6000977-4.5-1.5-6.5999756-2.6999512l16.4000244-69
			c0.5-0.1999512,1-0.3000488,1.5-0.3000488c2-0.3000488,3.9000244-0.1999512,5.7999878,0.1999512
			c4.0999756,1,7.2000122,3.1999512,9.4000244,6.8000488s2.7999878,7.3999023,1.7999878,11.5
			c-0.7000122,2.8000488-2,5.1000977-3.9000244,7.1999512c-2,2-4.2999878,3.3000488-7,4
			c-0.5,0.1999512-1.0999756,0.3000488-1.5999756,0.3999023
			C871.7999878,2525.8000488,872.7000122,2526.3999023,873.5999756,2527.1000977z M855.5,2565.6000977
			c5.0999756,1.1999512,9.9000244,0.3000488,14.5-2.8000488s7.5-7.5,8.7999878-13.1000977s0.7000122-10.8000488-2-15.6000977
			s-6.5999756-7.8000488-11.7000122-9l-3.4000244-0.8000488l-9.5,40.1999512
			C853.2000122,2564.8999023,854.2999878,2565.3000488,855.5,2565.6000977z M868.2000122,2497.1000977l-6,25.5l3.4000244,0.8000488
			c3.0999756,0.6999512,6,0.1000977,8.9000244-1.8999023c2.7999878-2,4.7000122-4.8000488,5.5-8.3999023
			c0.9000244-3.6000977,0.5-6.8999023-1.0999756-10s-4-5-7-5.6999512C870.5,2497,869.4000244,2496.8999023,868.2000122,2497.1000977
			z"/>
		<path style="fill:#1C1C1A;" d="M925.0999756,2509.3000488l1.5999756,0.3999023l-13.4000244,56.3999023
			c-0.9000244,4-3.0999756,7-6.5999756,9.1000977S899.499939,2577.8999023,895.5999756,2577
			c-2.5999756-0.6000977-4.7999878-1.8000488-6.7000122-3.6000977s-3.2999878-4-4-6.5
			c-0.7999878-2.5-0.9000244-5.1000977-0.2000122-7.6999512l13.2999878-56.3000488l3.4000244,0.8000488L888.0999756,2560
			c-0.7999878,3.5-0.4000244,6.8000488,1.2999878,9.8000488s4.2000122,4.8999023,7.4000244,5.6999512
			c3.2999878,0.8000488,6.4000244,0.1999512,9.2000122-1.6999512c2.9000244-1.8999023,4.7000122-4.6000977,5.5999756-8.1000977
			L925.0999756,2509.3000488z"/>
		<path style="fill:#1C1C1A;" d="M933.7000122,2583l1,2l-20.4000244-4.8000488l16.5-69.6000977l3.4000244,0.8000488
			l-16.0999756,67.8999023L933.7000122,2583z"/>
		<path style="fill:#1C1C1A;" d="M958.2999878,2588.8000488l1,2L938.8999634,2586l16.5-69.6000977l3.4000244,0.8000488
			l-16.0999756,67.8999023L958.2999878,2588.8000488z"/>
	</g>
	<g>
		<path style="fill:#1C1C1A;" d="M584.2999878,2541.1000977l-15.5999756-3.6999512l-5.7000122,24l13.5999756,3.1999512L575,2566
			l-12.4000244-2.8999023l-10,42.1999512L549.1999512,2604.5l16.5-69.6000977l20.4000244,4.8000488L584.2999878,2541.1000977z"/>
		<path style="fill:#1C1C1A;" d="M597.0999756,2541.1000977l2.2000122,75.1999512L595.8999634,2615.5l-0.7999878-27.6999512
			l-20.5-4.8999023L561.5,2607.3000488l-1.7999878-0.3999023l34.2000122-63.3999023L597.0999756,2541.1000977z M575.5,2581.3000488
			l19.5,4.6000977l-1.0999756-38.8999023L575.5,2581.3000488z"/>
		<path style="fill:#1C1C1A;" d="M646.9000244,2554.1000977L648.5,2554.5l-16.5,69.6000977l-1.0999756-0.3000488L630.7000122,2622.5
			l-11.5-64.5L605,2617.6999512l-1.7000122-0.3999023l16.5-69.6000977L620.8999634,2548l0.2999878,1.3999023l11.5,64.5
			L646.9000244,2554.1000977z"/>
		<path style="fill:#1C1C1A;" d="M654.0999756,2555.8000488l27.2000122,6.3999023L679.5,2563.5998535l-11.2000122-2.6999512
			l-16.0999756,67.8999023l-3.4000244-0.8000488l16.0999756-67.8999023l-12.7000122-3L654.0999756,2555.8000488z"/>
		<path style="fill:#1C1C1A;" d="M696.4000244,2564.6999512l2.2000122,75.1999512l-3.4000244-0.8000488l-0.7999878-27.6999512
			l-20.5-4.8999023l-13.0999756,24.3999023L659.000061,2630.5l34.2000122-63.3999023L696.4000244,2564.6999512z
			 M674.7000122,2604.8999023l19.5,4.6000977l-1.0999756-38.8999023L674.7000122,2604.8999023z"/>
	</g>
	<g>
		<path style="fill:#1C1C1A;" d="M659.5999756,2702.6000977C660.2999878,2706,660.1999512,2709.8000488,659.1999512,2714
			c-1,3.8999023-3.2999878,7-6.7000122,9.1000977c-3.5,2.1000977-7.2000122,2.6999512-11.0999756,1.8000488
			c-2.5999756-0.6000977-4.7999878-1.8000488-6.7000122-3.5c-1.9000244-1.8000488-3.2000122-3.8000488-4-6.1999512
			c-0.5-1.3000488-0.7000122-2.6999512-0.7999878-4l3.7000122-2.6000977c-0.5,2.6000977-0.4000244,5,0.5,7.3999023
			c1.2999878,3.8999023,3.9000244,6.3000488,7.5999756,7.1999512c3,0.6999512,5.9000244,0.1000977,8.5999756-1.8000488
			c2.7000122-1.8999023,4.5-4.6999512,5.4000244-8.1000977c0-0.1000977,0.0999756-0.3000488,0.0999756-0.6000977
			c0.0999756-0.3000488,0.2000122-0.6000977,0.2000122-0.8999023c0.0999756-0.3000488,0.0999756-0.6000977,0.2000122-1
			c0.0999756-0.3999023,0.2000122-0.8000488,0.2000122-1.3000488s0.0999756-1,0.0999756-1.5c0-0.6000977,0-1.1999512,0-1.8000488
			c-0.0999756-0.6999512-0.0999756-1.3000488-0.2000122-2c-0.4000244-2.3999023-1.2000122-4.6000977-2.2000122-6.6000977
			s-2.2000122-3.8000488-3.5-5.3000488s-2.5999756-3.1000977-3.9000244-4.5s-2.5-3.3000488-3.7000122-5.3000488
			c-1.2000122-2.1000977-2-4.3999023-2.5-6.8000488c-0.7999878-3.5-0.7000122-7.3000488,0.4000244-11.3999023
			c1-3.8999023,3.2000122-7,6.7000122-9.1000977s7.2000122-2.6999512,11.0999756-1.8000488
			c2.5999756,0.6000977,4.7999878,1.8000488,6.5999756,3.5c1.9000244,1.8000488,3.2000122,3.8000488,4.0999756,6.1999512
			c0.4000244,1.3000488,0.7000122,2.6000977,0.7999878,4l-3.7000122,2.6000977c0.5-2.6000977,0.4000244-5-0.5-7.3999023
			c-1.4000244-3.8999023-4-6.3999023-7.5999756-7.1999512c-3-0.6999512-5.9000244-0.1000977-8.5999756,1.8000488
			c-2.7000122,1.8999023-4.5,4.6999512-5.2999878,8.1000977c0,0.1000977-0.0999756,0.3000488-0.2000122,0.6999512
			s-0.2000122,0.6999512-0.2999878,1s-0.0999756,0.6999512-0.2000122,1.3000488
			c-0.0999756,0.6000977-0.0999756,1.1999512-0.0999756,1.6999512c0,0.6000977,0,1.1999512,0,2s0.0999756,1.5,0.2000122,2.3000488
			c0.4000244,2,1,3.8999023,1.7000122,5.6999512c0.7999878,1.8000488,1.7000122,3.3000488,2.5999756,4.6000977
			c1,1.3000488,2,2.6000977,3.2000122,3.8999023c1.0999756,1.3999023,2.2000122,2.6999512,3.2000122,4
			s2,2.8000488,2.9000244,4.6000977C658.5,2698.6000977,659.2000122,2700.5,659.5999756,2702.6000977z"/>
		<path style="fill:#1C1C1A;" d="M697.7000122,2669.1999512c3.2999878,5.3000488,4.2000122,11,2.7999878,17.1000977
			s-4.7999878,10.8000488-10.0999756,14c-5.2999878,3.3000488-11,4.1999512-17,2.8000488
			C672.3000488,2702.8000488,671.1000366,2702.5,670,2702l-6.4000244,27l-3.4000244-0.8000488l16.5-69.6000977
			c2.4000244-0.1999512,4.7999878,0,7.0999756,0.5C689.7999878,2660.5,694.5,2663.8999023,697.7000122,2669.1999512z
			 M688.2000122,2698.5c4.5999756-3.1000977,7.5-7.5,8.7999878-13.1000977s0.7000122-10.8000488-2-15.6000977
			s-6.5999756-7.8000488-11.7000122-9c-1.2000122-0.3000488-2.4000244-0.5-3.5-0.5l-9.5,39.8999023
			c1,0.5,2.0999756,0.8999023,3.2999878,1.1999512C678.7999878,2702.6000977,683.7000122,2701.6000977,688.2000122,2698.5z"/>
		<path style="fill:#1C1C1A;" d="M709.5,2666.3999023c2.2999878-0.1999512,4.7000122-0.1000977,7.0999756,0.5
			c6,1.3999023,10.7000122,4.8000488,14,10.1000977s4.2000122,11,2.7999878,17
			c-1.0999756,4.6000977-3.2999878,8.3999023-6.7999878,11.5c-3.4000244,3.1000977-7.4000244,5-11.7999878,5.6999512l13.2000122,33
			l-3.2999878-0.8000488l-12.9000244-32c-1.9000244,0.1000977-3.7000122-0.1000977-5.5999756-0.6000977
			c-1.0999756-0.3000488-2.2999878-0.6000977-3.4000244-1.1000977l-6.4000244,27l-3.4000244-0.8000488L709.5,2666.3999023z
			 M703.2000122,2707.8999023c1,0.5,2.0999756,0.8999023,3.2999878,1.1999512
			c5.0999756,1.1999512,9.9000244,0.3000488,14.5-2.8000488s7.5-7.5,8.9000244-13.1000977
			c0.7000122-2.8000488,0.7999878-5.5,0.4000244-8.1999512c-0.4000244-2.6999512-1.2000122-5.1999512-2.4000244-7.3999023
			S725,2673.4997559,723,2671.8999023c-2.0999756-1.6000977-4.2999878-2.6999512-6.7999878-3.3000488
			c-1.2000122-0.3000488-2.4000244-0.5-3.5-0.5L703.2000122,2707.8999023z"/>
		<path style="fill:#1C1C1A;" d="M732.0999756,2745.1999512l16.5-69.6000977L752,2676.3999023L735.5,2746L732.0999756,2745.1999512z
			"/>
		<path style="fill:#1C1C1A;" d="M757.5999756,2677.8000488l27.2000122,6.3999023L783,2685.5998535l-11.2000122-2.6999512
			l-16.0999756,67.8999023l-3.4000244-0.8000488l16.0999756-67.8999023l-12.7000122-3L757.5999756,2677.8000488z"/>
		<path style="fill:#1C1C1A;" d="M776.2000122,2753.8999023l15.5999756,3.6999512l1,2l-20.4000244-4.8000488l16.5-69.6000977
			l20.4000244,4.8000488L807.5,2691.3996582l-15.5999756-3.6999512l-5.7000122,24l13.5999756,3.1999512l-1.5999756,1.3999023
			l-12.4000244-2.8999023L776.2000122,2753.8999023z"/>
	</g>
	<g>
		<path style="fill:#1C1C1A;" d="M809.5,210c-1,2.5,0.0999756,4.3000031,1.7999878,5.3000031
			c1.4000244,1.5,3.5,2,5.5999756,0.3999939c11.2999878-8.5,22.7000122-21.3999939,21.2000122-36.6999969
			c-1.4000244-15.3000031-41.4000244-48.6000061-13.7999878-59.4000015c5.0999756-2,4.7999878-10-1.2999878-10
			c-19.2000122,0.0999985-38.9000244,6.5999985-40.0999756,28.5999985C781.4000244,167.5,822.5999756,178,809.5,210z
			 M802.7000122,159.1000061c-13.5999756-16-9.9000244-29.6000061,3.0999756-35.6999969
			c-2.0999756,4.8000031-2.4000244,10.5-0.5,17.5c2,7.3000031,6.5999756,13.8000031,11.0999756,19.6999969
			c9.7999878,13,12.9000244,24.8000031,5.7999878,35.8999939c-0.0999756-6.6999969-1.7000122-13.5-4.7999878-19.1999969
			C813.5,170,807.9000244,165.1999969,802.7000122,159.1000061z"/>
		<path style="fill:#1C1C1A;" d="M874.5,207.6000061c-1,2.5,0.0999756,4.3000031,1.7999878,5.3000031
			c1.4000244,1.5,3.5,2,5.5999756,0.3999939c13.4000244-10.1000061,26.9000244-25.5,25.2000122-43.5
			c-1.9000244-19.1999969-51.7000122-59.0999985-15.9000244-73c5.0999756-2,4.7999878-10-1.2999878-10
			c-22.7999878,0.0999985-45.9000244,7.5999985-47.5,33.5999985C840.0999756,155.8999939,890.5999756,168.1000061,874.5,207.6000061
			z M864.5,146.3000031c-17.9000244-21-11.7000122-38.9000015,6.7000122-46c-3.5999756,6-4.2999878,13.5999985-1.7000122,22.9000015
			C871.9000244,131.8000031,877.4000244,139.5,882.7000122,146.5c13.0999756,17.1999969,16.4000244,32.8999939,5.2000122,47.5
			c0.4000244-9-1.5-18.3000031-5.7000122-26C877.4000244,159.3999939,870.7000122,153.6000061,864.5,146.3000031z"/>
		<path style="fill:#1C1C1A;" d="M1031.1999512,263.8999939c-11.5999756-8.3000031-24.2000122-9.3000031-35.5-3.5
			c-0.0999756-15-5-26.5-18.2000122-29.6000061c-0.2000122-0.1000061-0.4000244,0-0.7000122,0
			c-0.2000122,0-0.4000244-0.1000061-0.7000122-0.1999969c-82.0999756-2.6999969-167.3999634-6.8000031-249.3999634,0.3000031
			c-27.5999756,2.3999939-24.9000244,19.1999969-22.9000244,44C705.8999023,301,711.0999146,327.1000061,722.0999146,351
			c7,15.1000061,16.2999878,28,27.2000122,38.7000122c-24,2.3999939-66.9000244,10.8999939-66.2999878,34.7000122
			c0.4000244,18,32.5999756,24.2999878,45.5,26.2999878c5.2000122,0.7999878,10.4000244,1.3999939,15.5999756,2
			c14.5999756,33.2999878,69.5,27.1000061,98.7000122,27.5c25.9000244,0.3999939,54.5,1.3999939,80-3.8999939
			c15.5999756-3.2999878,23-14.1000061,32.0999756-26.2000122c19.4000244-2.2000122,50.2000122-6.2000122,57.5999756-21.5
			C1023.6998901,405.5,963.0998535,395.5,937.1998901,392.7000122c2.5-2.2999878,4.7999878-4.7999878,7.0999756-7.2999878
			c0.5,0.2000122,1.0999756,0.2999878,1.7999878,0.2999878c40.2000122-1.7000122,96.1999512-27.8999939,100.9000244-73.1000061
			C1048.9000244,295.3999939,1045.8000488,274.2999878,1031.1999512,263.8999939z M988.9000244,301.3999939
			c3.7999878-1.5,9.7000122-3.8999939,13.7999878-2.3999939c5.4000244,1.8999939,7.5,7.6000061,6.5,12.7999878
			C1007.9000244,318.8999939,1001.5,325.8999939,995.9000244,330c-6.2000122,4.3999939-15.2999878,9.3999939-23.5,11.1000061
			c5.2999878-11.3999939,11.0999756-25.3999939,15.5-39.6000061C988.2999878,301.5,988.5999756,301.5,988.9000244,301.3999939z
			 M898.5,468.3999939C883.0999756,469.5,867.5999756,470,852.0999756,470c-22.5999756,0-79.4000244,5.3999939-96-16.3999939
			c25.5,1.7999878,51.5,1.5,76.7000122,1.8999939c35.7999878,0.7000122,71.7000122,0.2999878,107.2999878-4
			C929,463,916.9000244,467,898.5,468.3999939z M927.7000122,401.7000122C944.6000366,402.5,961.2000122,406,977.4000244,411
			c5.2999878,1.6000061,18,4.1000061,21.4000244,8.2999878c7.4000244,9.2999878-21.7000122,15.7999878-27.7999878,17.2000122
			c-43.2000122,9.7999878-89.2999878,9.6000061-133.2999878,8.8999939c-20.7999878-0.2999878-41.7000122-0.8999939-62.5-1.7000122
			c-20.2999878-0.7999878-53.2999878,1.6000061-71.0999756-10.7000122c-23.9000244-16.6000061,11.5999756-25.6000061,24.7000122-29
			c10-2.6000061,20.4000244-4.6000061,30.7000122-5c0.2000122,0,0.2999878-0.1000061,0.5-0.1000061
			c21,16.2999878,46.7999878,25.7999878,75.4000244,28.2000122c34.9000244,2.8999939,66-6.2999878,91.2000122-25.7000122
			C927,401.5,927.2999878,401.7000122,927.7000122,401.7000122z M928.9000244,386.8999939
			C884.6000366,429,806.6000366,427.6999817,761,387.6000061C740.9000244,369.8999939,728.5999756,345.5,721.5999756,320
			c-4.0999756-14.7999878-6.5-29.8999939-7.7000122-45.2000122c-0.4000244-5.1000061-2.2999878-15.3999939-1-20.3999939
			c4.5999756-17.3000031,22-13.6999969,34.2000122-14c76-1.8999939,152-2.1999969,228,0.1999969
			c21.0999756,5.8000031,0.5999756,64.5999908-3.7000122,76.9000092
			C962.4000244,343.1000061,948.7000122,368.1000061,928.9000244,386.8999939z M1019.2999878,343.7000122
			C1001.5999756,361.5,977.7000122,372.1000061,953,374.6000061c3-3.8999939,5.9000244-8,8.5-12.3999939
			c1.5-2.5,3.5-6.1000061,5.7000122-10.2999878c0.0999756,0,0.2000122,0.1000061,0.2999878,0.1000061
			c18.4000244-0.6000061,41.2000122-14.7999878,49.2000122-31.2999878c3.7999878-7.7999878,4-17.3999939-1.4000244-24.6000061
			c-5.9000244-7.8999939-15.4000244-8.3999939-24-6.1000061c1.5-5.7999878,2.7000122-11.6000061,3.4000244-17.1000061
			c19.4000244-16.3999939,39.7000122,3.7000122,41.8999634,23.7000122
			C1038.8000488,316,1032.6999512,330.2000122,1019.2999878,343.7000122z"/>
		<path style="fill:#1C1C1A;" d="M735.4000244,267.5c-0.5-6.5-10.7000122-6.5-10.0999756,0
			c2.0999756,26,10,50.2000122,23.9000244,72.2999878c3.5,5.5,12.2999878,0.3999939,8.7999878-5.1000061
			C745,314.1000061,737.4000244,291.7000122,735.4000244,267.5z"/>
		<path style="fill:#1C1C1A;" d="M763.7000122,351.6000061c-6.5,0-6.5,10.1000061,0,10.1000061
			S770.2000122,351.6000061,763.7000122,351.6000061z"/>
	</g>
	<g>
		<path style="fill:#1C1C1A;" d="M479.7000122,825C456.4000244,782.0999756,390.5,756.2999878,343.6000061,758.5999756
			C322.8999939,757.3999634,298.3000183,774.1999512,287,791c-13.3999939,20-5.1000061,44.5,4.2999878,64.5
			C313.5,902.7999878,368.3999939,943,422.8999939,928.0999756C467,916,503.7999878,869.2000122,479.7000122,825z M343,768
			c35-1.7000122,73.2999878,12.7999878,101.3999939,32.9000244C462.7999878,814,479.6999817,833.5,479,857.6000366
			c-0.3999939,15.2999878-9.1000061,27.4000244-19.8999939,37.2999878c-26.7000122,16.5-73.6000061,1.5-97.8999939-14.7000122
			c-26.5-17.5999756-64.8999939-41.2000122-68.7999878-75.2999878C299.6000061,784.7999878,322.2999878,766.7000122,343,768z
			 M322,884.5999756c-13-14.4000244-24.3999939-32.7000122-29.7000122-51.7999878
			c15.5,25.5,46.3999939,45.7999878,69.2999878,59.0999756c19,11,49.1000061,21.2000122,75,19.4000244
			C398.1000061,931.9000244,350.8999939,916.5999756,322,884.5999756z"/>
		<path style="fill:#1C1C1A;" d="M313.6000061,786.2999878
			C313.6000061,786.2999878,313.6000061,786.4000244,313.6000061,786.2999878c0,1,0.3999939,2,1.3999939,2.9000244l0,0
			c11.3999939,17.5,25.5,30.2999878,44.5,39.4000244c31.2999878,14.9000244,63,21.5999756,82.5,53.4000244
			c3.2000122,5.2000122,10.3999939,1.5,8.3999939-4.2000122c-8.3999939-23.9000244-20.2999878-45.0999756-44.6000061-55
			c-30.5-12.5-58-17.0999756-83.8999939-39.9000244C321.6999817,782.7000122,321.5,782.7000122,321.1999817,782.5
			c-0.1000061,0-0.1000061-0.0999756-0.2000122-0.0999756c-0.5-0.2999878-0.8999939-0.5-1.3999939-0.5999756
			c-0.2000122-0.0999756-0.3999939-0.0999756-0.7000122-0.0999756c-0.2999878,0-0.6000061-0.0999756-0.8999939,0
			c-2.2999878,0.2000122-4.2999878,1.7000122-4.5,3.7999878
			C313.7000122,785.7999878,313.6000061,786.0999756,313.6000061,786.2999878z M374.3999939,822.7000122
			C386.6999817,826.4000244,401,829.1000366,412,836.1000366c7.3999939,4.5999756,13,11.2000122,17.6000061,18.5
			c-20-15.9000244-45-24-67.3000183-36.0999756C366.2999878,820,370.2999878,821.5,374.3999939,822.7000122z"/>
		<path style="fill:#1C1C1A;" d="M456.8999939,839.7999878C459,845.5,467.5,841.2000122,465.2999878,835.5999756
			c-3.8999939-10.4000244-10.7000122-18.9000244-19.6000061-25.4000244
			c-4.8999939-3.5999756-10.1000061,4.2999878-5.2000122,7.9000244C448.2000122,823.7000122,453.5,831,456.8999939,839.7999878z"/>
		<path style="fill:#1C1C1A;" d="M461.7000122,850.2000122c-0.1000061,0-0.2000122,0.0999756-0.2999878,0.0999756
			c-5.3999939,2.7000122-1.2999878,11.0999756,4.2000122,8.4000244c0.1000061,0,0.2000122-0.0999756,0.2999878-0.0999756
			C471.2999878,856,467.1000061,847.5,461.7000122,850.2000122z"/>
		<path style="fill:#1C1C1A;" d="M611,790.2999878c-20.2000122-1.2000122-48.5999756,8.2999878-60.0999756,25.4000244
			c-30.2000122,36-49.6000061,104-29.5999756,148.5c20.5999756,45.7999878,80.2000122,45,116.5,17.2000122
			c44.9000244-34.4000244,46-102.2999878,21.9000244-148.7000122C649.5999756,813.2000122,635,791.7000122,611,790.2999878z
			 M547.7999878,983.4000244C528.3999634,969.5,522.7999878,944,523.5999756,921.6000366
			c1.2000122-34.7000122,12.5999756-73.7000122,35.2000122-100.5999756c11.5-17.2000122,39.5-24.5,60.0999756-18.0999756
			c24.7999878,23.7000122,20.4000244,68.7000122,18.2999878,100.5
			c-1.9000244,29.2000122-18.2999878,75.5999756-47.7000122,86.7999878
			C575.0999756,992.7999878,560.2999878,992.2999878,547.7999878,983.4000244z M616.0999756,982.2000122
			c17.0999756-19.4000244,27.0999756-49.5999756,30-71.4000244c3.4000244-26.2000122,5.7999878-63.2000122-5-91
			C653.0999756,835.5999756,661,856,664.3999634,874.8999634C671.9000244,917.4000244,656,964.0999756,616.0999756,982.2000122z"/>
		<path style="fill:#1C1C1A;" d="M580.5,969.5999756c-16.7999878-55.2000122,30.5999756-101.9000244,14.7000122-157.7999878
			C595.2000122,811.5999756,595,811.5,595,811.3999634c-0.0999756-0.4000244-0.2999878-0.7999878-0.5999756-1.0999756
			c-0.0999756-0.0999756-0.2000122-0.2999878-0.2999878-0.4000244c-0.4000244-0.4000244-0.7999878-0.7000122-1.2999878-1
			c0,0-0.0999756,0-0.0999756-0.0999756c-1.9000244-1-4.2999878-0.7999878-5.7000122,0.7000122
			c-0.7999878,0.7000122-1.2000122,1.7000122-1.2000122,3c-0.7999878,30.2999878-15.4000244,59-24.5999756,87.5999756
			c-8.5,26.5999756-3.2000122,48.5999756,10.4000244,72.5C574.0999756,976.9000244,582.0999756,975,580.5,969.5999756z
			 M567.5999756,911.5c2.2000122-9.4000244,6.2999878-18.4000244,9-27.7000122
			c3.5999756-12.2000122,8.0999756-23.5999756,11.7999878-35.2000122
			c-3.2999878,30.7000122-18.5999756,59.7000122-20.5999756,90.5999756
			C565.7999878,930.4000244,565.2999878,921.2999878,567.5999756,911.5z"/>
		<path style="fill:#1C1C1A;" d="M611.7999878,931.0999756c-1.7000122,13.2000122-8.9000244,24.4000244-16.7000122,34.7999878
			c-3.5999756,4.9000244,4.2999878,10,7.9000244,5.2000122c8.7999878-11.9000244,16.2999878-24.5,18.2000122-39.4000244
			C622,925.7000122,612.5999756,925.0999756,611.7999878,931.0999756z"/>
		<path style="fill:#1C1C1A;" d="M616.0999756,912.9000244c-5.4000244,2.7000122-1.2999878,11.0999756,4.2000122,8.4000244
			C625.7000122,918.5999756,621.5,910.2000122,616.0999756,912.9000244z"/>
		<path style="fill:#1C1C1A;" d="M446.2999878,1013.5999756C440.8999939,1016.2999878,445,1024.6999512,450.5,1022
			C455.7999878,1019.2999878,451.7000122,1010.9000244,446.2999878,1013.5999756z"/>
		<path style="fill:#1C1C1A;" d="M428,979.7000122c-0.1000061-0.2999878-0.2999878-0.5-0.3999939-0.7999878
			C424.8999939,973.5,416.5,977.6000366,419.2000122,983.1000366c0.1000061,0.2999878,0.2999878,0.5,0.3999939,0.7999878
			C422.2999878,989.2999878,430.7000122,985.2000122,428,979.7000122z"/>
		<path style="fill:#1C1C1A;" d="M464.2000122,943.0999756c-5.3999939,2.7000122-1.2999878,11.0999756,4.2000122,8.4000244
			C473.7999878,948.7999878,469.7000122,940.4000244,464.2000122,943.0999756z"/>
		<path style="fill:#1C1C1A;" d="M472.7999878,990.2999878c0.1000061,0.2999878,0.2999878,0.5,0.3999939,0.7999878
			c2.7000122,5.4000244,11.1000061,1.2999878,8.3999939-4.2000122c-0.1000061-0.2999878-0.2999878-0.5-0.3999939-0.7999878
			C478.5,980.7000122,470.1000061,984.9000244,472.7999878,990.2999878z"/>
		<path style="fill:#1C1C1A;" d="M448.2999878,978.9000244C442.8999939,981.6000366,447,990,452.5,987.3000488
			C457.8999939,984.5999756,453.7000122,976.2000122,448.2999878,978.9000244z"/>
		<path style="fill:#1C1C1A;" d="M438,938.7000122c-0.2999878,0.0999756-0.5,0.2999878-0.7999878,0.4000244
			c-5.3999939,2.7000122-1.2999878,11.0999756,4.2000122,8.4000244c0.2999878-0.0999756,0.5-0.2999878,0.7999878-0.4000244
			C447.6000061,944.5,443.5,936,438,938.7000122z"/>
		<path style="fill:#1C1C1A;" d="M486.2000122,946.5999756c-5.3999939,2.7000122-1.2999878,11.0999756,4.2000122,8.4000244
			C495.7999878,952.2999878,491.7000122,943.9000244,486.2000122,946.5999756z"/>
		<path style="fill:#1C1C1A;" d="M506.5,991.4000244c-5.3999939,2.7000122-1.2999878,11.0999756,4.2000122,8.4000244
			C516.0999756,997.2000122,511.8999939,988.7000122,506.5,991.4000244z"/>
		<path style="fill:#1C1C1A;" d="M520.0999756,788.7999878c5.4000244-2.7000122,1.2999878-11.0999756-4.2000122-8.4000244
			C510.5,783.0999756,514.7000122,791.5,520.0999756,788.7999878z"/>
		<path style="fill:#1C1C1A;" d="M485.8999939,758.5999756c5.3999939-2.7000122,1.2999878-11.0999756-4.2000122-8.4000244
			C476.2999878,752.7999878,480.5,761.2999878,485.8999939,758.5999756z"/>
		<path style="fill:#1C1C1A;" d="M510.5,734.2000122c5.4000244-2.7000122,1.2999878-11.0999756-4.2000122-8.4000244
			C500.8999939,728.4000244,505.1000061,736.7999878,510.5,734.2000122z"/>
		<path style="fill:#1C1C1A;" d="M568.5999756,738.5999756C574,735.8999634,569.8999634,727.5,564.3999634,730.1999512
			C559,732.7999878,563.2000122,741.2999878,568.5999756,738.5999756z"/>
		<path style="fill:#1C1C1A;" d="M547.4000244,784c5.4000244-2.7000122,1.2999878-11.0999756-4.2000122-8.4000244
			C537.7999878,778.2999878,542,786.7000122,547.4000244,784z"/>
		<path style="fill:#1C1C1A;" d="M538,757.4000244c0.2000122-0.7000122,0.5-1.4000244,0.7000122-2.0999756
			c1.9000244-5.7000122-7-8.7999878-8.9000244-3c-0.2000122,0.7000122-0.5,1.4000244-0.7000122,2.0999756
			C527.0999756,760.2000122,536.0999756,763.2000122,538,757.4000244z"/>
		<path style="fill:#1C1C1A;" d="M542,727.2999878c5.4000244-2.7000122,1.2999878-11.0999756-4.2000122-8.4000244
			C532.4000244,721.5,536.5999756,730,542,727.2999878z"/>
		<path style="fill:#1C1C1A;" d="M598,755.5c5.4000244-2.7000122,1.2999878-11.0999756-4.2000122-8.4000244
			C588.4000244,749.7000122,592.5,758.2000122,598,755.5z"/>
		<path style="fill:#1C1C1A;" d="M578.2999878,786.2000122c5.4000244-2.7000122,1.2999878-11.0999756-4.2000122-8.4000244
			C568.7000122,780.5,572.7999878,788.9000244,578.2999878,786.2000122z"/>
	</g>
	<g>
		<path style="fill:#1C1C1A;" d="M1104.692749,1454.6929932c2.6999512-23.9000244,5.3000488-47.9000244,6.3000488-71.9000244
			c1-23.0999756,3.5999756-52.5999756-8.8000488-73.4000244c-15.8000488-26.5999756-47.6999512-28.0999756-74.4000244-20.1999512
			c-1.5999756-0.6999512-3.1999512-1.4000244-4.7999268-2c12.6999512-11.0999756,34.3999023-25.6999512,12.9000244-39
			c-10.7000732-6.5999756-26-9.9000244-37.7000122-14.3000488c-18.0999756-6.6999512-36.2999878-13.1999512-54.5-19.9000244
			c-41.5-15.1999512-82.5999756-31.0999756-124.0999756-46.5c-7.5-2.8000488-21-9.0999756-25.7999878,1.6999512
			c-4.7000122,10.5,9.2999878,24.9000244,15,36.4000244c-3.2000122-0.8000488-6.2999878-1.4000244-9.2999878-1.5
			c-2.2999878-0.0999756-4.4000244,1.1999512-5.2999878,3.4000244c-6,14.9000244-13.2999878,30.1999512-17,45.8000488
			c-0.5,2.3000488-0.2000122,4.5999756,1.7999878,6c1.7000122,1.1999512,3.5999756,2.3000488,5.5999756,3.3000488
			c-30.4000244,29.1999512-57.0999756,61.5999756-83,94.6999512c-15,19.1999512-45.2999878,53.5999756-26.5999756,79.5999756
			c15.2000122,21.0999756,51.7000122,31.5999756,74.7000122,40.5c29.9000244,11.5,60.7999878,20.3000488,90.7000122,31.6999512
			c27.9000244,10.5999756,55.2999878,22.5,83.5,32.3000488c14.4000244,5,35,12.1999512,50.0999756,6.1999512
			c25.0999756-10.0999756,23.4000244-54.5,25.2000122-75.0999756c3.7000122-44.1999512,3.2000122-88.5,2.7999878-132.8000488
			c3.0999756,0.8000488,6.2999878,1.4000244,9.2999878,1.8000488c0.5999756,0.1999512,1.2000122,0.3000488,1.9000244,0.1999512
			c0.2999878,0,0.5999756,0,0.9000244,0c17.7999268-4.5,38.5999756-8.4000244,42.9998779,12.5
			c2.0999756,9.6999512,2.6999512,19.8000488,3.5,29.6999512c2,25.3000488,2.5,50.6999512,3,76.0999756
			c0.1999512,8.6999512-3.5999756,30.5999756,1,38.9000244c5.0999756,9.1999512,25.0999756,7.6999512,31.5999756,0.1999512
			C1104.4926758,1489.3930664,1103.3927002,1465.8930664,1104.692749,1454.6929932z M833.3927612,1183.7930908
			c7.9000244,3,15.7000122,5.9000244,23.5999756,8.9000244c25.5,9.5999756,51,19.1999512,76.5,28.5999756
			c22.5999756,8.3000488,45.4000244,16.4000244,68,24.9000244c6.5999756,2.5,23.3999634,5.4000244,27.999939,10.5999756
			c7.5999756,8.5999756-10.8999634,19.9000244-17.0999146,26c-32.2000122-12.6999512-65.5999756-22.4000244-97.7000122-35.5
			c-22-9.1999512-44.4000244-17.6999512-66.7000122-26.1999512c-7.9000244-3-17.4000244-7.8000488-26.9000244-11.5
			c-1.2999878-7.6999512-8.0999756-14-8.9000244-20.6999512
			C809.8927612,1169.5930176,825.3927612,1180.7930908,833.3927612,1183.7930908z M991.0927734,1434.6929932
			c-1,25.9000244,4.5,98.5999756-29.2999878,103.8000488c-16.2000122,2.5-35.0999756-7.0999756-49.7000122-12.5999756
			c-21.0999756-8-42-16.5999756-63.0999756-24.6999512c-45.5-17.5999756-93.5-29.3000488-137.2000122-51.5999756
			c-22.7000122-11.5999756-38.2000122-29.9000244-23-56.6999512c8.2000122-14.5,19.5-27.4000244,29.9000244-40.4000244
			c23.5999756-29.6999512,47.9000244-58.5999756,75.5-84.6999512c0.2999878-0.3000488,0.5-0.5999756,0.7000122-1
			c8.4000244,2.9000244,17.4000244,5.0999756,24.5999756,7.6999512c25.0999756,9,50.2000122,18,75,27.5999756
			c23.2999878,9,46.9000244,17.3000488,70.5999756,25.0999756c8.4000244,2.8000488,17.4000244,6.4000244,26.5,9.5
			C991.9927979,1369.3930664,992.3927612,1402.0930176,991.0927734,1434.6929932z M936.7927856,1306.6929932
			c-26.7999878-9.3000488-53.0999756-19.9000244-79.7000122-29.5999756c-22.9000244-8.3000488-45.9000244-16.5-68.7999878-25l0,0
			c1.5-4.1999512,3-8.5,4.5999756-12.6999512c2.2000122-5.8000488,4.5-17.6999512,8.4000244-24.4000244
			c1,0.0999756,2.4000244,0.3000488,4.2000122,1.4000244c2.9000244,1.8000488,7.2999878,2.5999756,10.5,3.6999512
			c11.2999878,4.0999756,22.5999756,8.4000244,33.7999878,12.6999512c20.5,7.8000488,41.0999756,15.6999512,61.4000244,24.1999512
			c28.7999878,11.8000488,58.7999878,20.4000244,87.9000244,31.5c3.7999878,1.5,18,4.4000244,20.5,8.1999512
			c1.7000122,2.5999756-0.7999878,8.9000244-2.7000122,14.9000244c-1.5999756,4.9000244-3,10.6999512-5.2000122,15.5
			c-0.7000122,1.5-0.7999878,2.4000244-0.7999878,3.0999756c-0.5999756-0.1999512-1.4000244-0.3000488-2.5999756-0.4000244
			C986.0927734,1328.8930664,957.4927979,1313.8930664,936.7927856,1306.6929932z M1074.692749,1494.8930664
			c-2.0999756-2.4000244-0.3000488-14.0999756-0.4000244-17.3000488c-0.6999512-36.5-0.5999756-73.3000488-4.6999512-109.5999756
			c-1.0999756-9.5-1.3000488-23.3000488-7.1999512-31.4000244c-8.8000488-12.1999512-25.5-10.6999512-39.5999146-7.6999512
			c3.7999878-9.5999756,6.2000122-20.5999756,8.8999634-30.0999756c23.9000244-6.5,53.3000488-4.8000488,64.1999512,21.5
			c6.5999756,15.8000488,5.3000488,34.6999512,4.9000244,51.5c-0.4000244,16.9000244-1.9000244,33.6999512-3.4000244,50.5
			c-1.8000488,19.0999756-1.4000244,41.5-7,60C1088.8927002,1487.5930176,1081.7927246,1502.8930664,1074.692749,1494.8930664z"/>
		<path style="fill:#1C1C1A;" d="M896.1928101,1372.6929932c-18.5999756-1.4000244-37.5-0.3000488-55.9000244-3.5999756
			c-30.4000244-5.5-50.2000122-25-70.2999878-47.1999512c-1.7999878-2-4.2000122-2.0999756-6.0999756-1.1999512
			c-0.4000244,0.0999756-0.7000122,0.4000244-1.0999756,0.5999756c-0.0999756,0.0999756-0.2999878,0.1999512-0.4000244,0.3000488
			c-0.2000122,0.1999512-0.5,0.3000488-0.7000122,0.5c-22.7000122,25.1999512-86.2000122,82.6999512-39.5999756,112.5
			c29.7999878,19.0999756,69.4000244,25.9000244,102.4000244,37.4000244
			c36.2000122,12.5999756,74.5,35.3000488,112.7000122,40.6999512c19.5999756,2.8000488,30.2999878-5.4000244,34.7000122-24.5999756
			c4.9000244-21.6999512,9.2999878-60.5-2.5999756-80.8000488
			C954.7927856,1382.0930176,922.8927612,1374.7930908,896.1928101,1372.6929932z"/>
	</g>
	<g>
		<g>
			<g>
				<path style="fill:#1C1C1A;" d="M679.7999878,1795c2.0999756,3.5999756,3,8.3000488,2.2000122,12.4000244
					c-1.4000244,7.4000244-6.5,13.1999512-11.5999756,18.5C624.5,1873.5999756,567,1909.3000488,503.9000244,1929.3000488
					c-5.5,1.8000488-11,3.3000488-16.7000122,2.5C481.3000183,1931,476,1927.9000244,470.8000183,1922.4000244l-4.6000061-4.6999512
					l0,0c-4.2999878-4.5-9.2000122-9.5-12-15.8000488c-3.2999878-7.4000244-2.8999939-15.4000244,1-20.9000244
					c4.7999878-6.8000488,13.6000061-8.5,20.6000061-9.9000244c42.1000061-8.4000244,82.6000061-24.8000488,121.8000183-40.6999512
					c18.2000122-7.4000244,38.9000244-15.6999512,53.2999878-30.8000488l0.9000244-0.9000244
					c4.7999878-5.0999756,10.7999878-11.4000244,18.7000122-10.3000488c3.4000244,0.5,6.5,2.4000244,8.5999756,5.5
					C679.2999878,1794.1999512,679.5999756,1794.5999756,679.7999878,1795z M470.2000122,1913.6999512L474.9000244,1918.5
					c4.2999878,4.5999756,8.6000061,7.0999756,13.2000122,7.8000488c4.6000061,0.5999756,9.3999939-0.6999512,14.2999878-2.3000488
					c62.2000122-19.6999512,118.9000244-55,164.2000122-102c4.5-4.6999512,9-9.6999512,10.0999756-15.6999512
					c0.5999756-3.0999756-0.2000122-6.8000488-2-9.4000244c-0.9000244-1.3000488-2.5-2.9000244-4.9000244-3.1999512
					c-5.0999756-0.6999512-9.5999756,4-13.9000244,8.5999756l-0.9000244,0.9000244
					c-15.2000122,16-36.5,24.5999756-55.2000122,32.1999512c-39.4000244,16-80.2000122,32.5-122.7999878,41
					c-6.3999939,1.3000488-13.6000061,2.6999512-17.2000122,7.6999512c-2.7999878,3.8000488-2.8999939,9.9000244-0.5,15.4000244
					C461.7000122,1904.9000244,466,1909.4000244,470.2000122,1913.6999512L470.2000122,1913.6999512z"/>
			</g>
			<g>
				<path style="fill:#1C1C1A;" d="M665.2999878,1784.3000488C666.5,1786.4000244,667.5,1788.6000977,668,1791.1000977
					c0.2999878,1.5-0.7000122,2.9000244-2.2000122,3.1999512s-2.9000244-0.6999512-3.2000122-2.1999512
					c-0.9000244-4.4000244-3.9000244-8.0999756-6.9000244-11.5999756c-5.0999756-5.9000244-14-7-20.5-6.0999756
					c-7,1-13.7000122,4-20.2999878,7c-0.7999878,0.4000244-1.5999756,0.6999512-2.5,1.0999756
					c-37.5999756,16.6999512-79.0999756,26.0999756-120.2000122,27.1999512h-1.7000122
					c-8.7999878,0.1999512-17.7999878,0.4000244-25,4.6999512c-8.5,5.1999512-13.7000122,16.5999756-13.1000061,29
					c0.5,11.8000488,5.2999878,23,9.8999939,33.8000488c0.6000061,1.4000244-0.1000061,3-1.5,3.5999756s-3-0.0999756-3.6000061-1.5
					c-4.6000061-10.8000488-9.7000122-22.9000244-10.2999878-35.6999512c-0.6000061-14.5,5.6000061-27.8000488,15.7999878-34
					c8.3999939-5.0999756,18.2000122-5.3000488,27.7000122-5.5h1.6000061
					c40.4000244-1.0999756,81.2000122-10.3000488,118.0999756-26.6999512
					c0.7999878-0.4000244,1.5999756-0.6999512,2.4000244-1.0999756c6.9000244-3.0999756,14-6.3000488,21.7999878-7.4000244
					c10.2999878-1.5,19.7999878,1.5,25.4000244,7.9000244
					C661.7000122,1779.0999756,663.7000122,1781.5999756,665.2999878,1784.3000488z"/>
			</g>
			<g>
				<path style="fill:#1C1C1A;" d="M627.4000244,1748c4.4000244,7.5,5.9000244,16.5999756,3.5,25
					c-0.4000244,1.5-2,2.3000488-3.4000244,1.9000244c-1.5-0.4000244-2.2999878-2-1.9000244-3.4000244
					c3.7999878-12.6999512-4.2000122-28.0999756-16.7000122-32.3000488c-5.7000122-1.9000244-12.5-2.0999756-21.2000122-0.5
					c-15.9000244,2.9000244-31.0999756,9.8000488-45.7999878,16.5c-9.9000244,4.5-20.0999756,9.0999756-30.6000061,12.5999756
					c-16.1000061,5.3000488-32.7999878,8-49.7999878,7.9000244h-1.7000122c-4.1000061,0-8-0.0999756-11.6000061,1
					c-3.1000061,0.9000244-7.1000061,3.4000244-8,7.1999512c-0.6000061,2.5999756,0.2999878,5.9000244,2.6000061,9.6999512
					c4.7000122,7.6999512,12,13.6999512,20.5,16.9000244c1.3999939,0.5,2.2000122,2.0999756,1.6000061,3.5999756
					c-0.5,1.4000244-2.1000061,2.1999512-3.6000061,1.5999756c-9.6000061-3.5999756-17.8999939-10.4000244-23.2999878-19.1999512
					c-3.2000122-5.0999756-4.2000122-9.6999512-3.2999878-13.8000488c1.3999939-6.1999512,7-9.9000244,11.7999878-11.3000488
					c4.3999939-1.3000488,8.8999939-1.3000488,13.2999878-1.1999512h1.6000061c16.2999878,0.0999756,32.5-2.5,48-7.5999756
					c10.2000122-3.4000244,20.2999878-8,30-12.4000244c15-6.8000488,30.5-13.8000488,47.0999756-16.9000244
					c9.7000122-1.8000488,17.4000244-1.5999756,24,0.6999512C617.7000122,1736.3000488,623.5999756,1741.5999756,627.4000244,1748z"
					/>
			</g>
			<g>
				<path style="fill:#1C1C1A;" d="M615,1733.5999756l0.0999756,0.0999756c0.2000122,0.5,0.5,1,0.7999878,1.5
					c0.2999878,0.5999756,0.5999756,1.0999756,0.9000244,1.6999512c0.7000122,1.4000244,0.2000122,3-1.2000122,3.6999512
					s-3,0.1999512-3.7000122-1.1999512c-0.2000122-0.5-0.5-1-0.7999878-1.5s-0.5999756-1-0.7999878-1.5
					c-6-9.1999512-16.2000122-15.1999512-25.2000122-20.5999756c-5.2000122-3.0999756-10.7000122-6.3000488-16.5-7.9000244
					c-12.7000122-3.3000488-26,1.5999756-39,6.3000488c-2.4000244,0.9000244-4.9000244,1.8000488-7.4000244,2.5999756
					c-19.5,6.6999512-39.7999878,9.8000488-60.3999939,9.1999512c-1.2000122,0-2.5-0.0999756-3.7000122-0.0999756
					c-5-0.1999512-9.7000122-0.4000244-14.2999878,0.3000488c-4.3999939,0.5999756-10.6000061,2.3000488-14.6000061,7
					c-4.7000122,5.3000488-5.6000061,14.1999512-2.5,22.5c2.8999939,7.6999512,8.3999939,14,14.7000122,20.8000488
					c1,1.0999756,1,2.9000244-0.2000122,3.9000244c-1.1000061,1-2.8999939,1-3.8999939-0.1999512
					c-6.5-7-12.6000061-14-15.7999878-22.5999756c-3.8999939-10.1999512-2.5-21.1999512,3.5-28
					c5.2000122-5.9000244,12.7000122-8.0999756,18-8.8000488c5.1000061-0.6999512,10.2999878-0.5,15.2999878-0.3000488
					c1.2000122,0,2.3999939,0.0999756,3.7000122,0.0999756c19.8999939,0.5999756,39.6000061-2.4000244,58.5000305-8.9000244
					c2.4000244-0.8000488,4.9000244-1.6999512,7.2999878-2.5999756c13.7000122-5,27.9000244-10.1999512,42.2000122-6.5
					c6.5999756,1.6999512,12.4000244,5.0999756,17.9000244,8.5c9.5999756,5.6999512,20.4000244,12.0999756,27,22.5
					C615,1733.5999756,615,1733.5999756,615,1733.5999756z"/>
			</g>
			<g>
				<path style="fill:#1C1C1A;" d="M559.0999756,1702.3000488c0.5999756,1.0999756,0.5,2.4000244-0.4000244,3.3000488
					c-1.0999756,1.0999756-2.7999878,1.0999756-3.9000244,0l-21.0999756-21.1999512
					c-10.4000244-10.4000244-21.0999756-21.1999512-31.7999878-31.5999756c-4.7999878-4.6999512-9.7000122-9-15.2999878-9.8000488
					c-5.2000122-0.6999512-11.1000061,1.5-18.1000061,6.8000488
					c-19.3999939,14.9000244-32.1000061,38.3000488-34.1000061,62.5999756l-0.1000061,1.4000244
					c-0.5,6.4000244-1.1000061,13.6999512-6.3999939,18.3000488c-0.5,0.4000244-0.7999878,1.8000488-1,2.9000244
					l-0.1000061,0.3000488c-0.2999878,1.5-1.7999878,2.5-3.2999878,2.0999756c-1.5-0.3000488-2.5-1.8000488-2.1000061-3.3000488
					l0.1000061-0.3000488c0.3999939-1.8000488,0.8999939-4.1999512,2.7999878-5.9000244
					c3.6000061-3.1999512,4.1000061-9,4.5-14.5999756l0.1000061-1.4000244
					c2.1000061-25.9000244,15.7000122-50.6999512,36.2000122-66.5999756
					c8.2000122-6.3000488,15.3999939-8.9000244,22.2000122-7.9000244c7.2999878,1,12.8999939,5.9000244,18.3999939,11.3000488
					c10.8000183,10.4000244,21.4999695,21.1999512,31.8999939,31.5999756l21.2000122,21.1999512
					C558.9000244,1702,559,1702.1999512,559.0999756,1702.3000488z"/>
			</g>
			<g>
				<path style="fill:#1C1C1A;" d="M551.5999756,1701.8000488c0.5999756,1.0999756,0.5,2.5-0.4000244,3.4000244
					c-1.0999756,1.0999756-2.7999878,1.0999756-3.9000244,0c-9.5-9.6999512-19.7999878-19.6999512-32-26.5999756
					c-13.1000061-7.5-26.8999939-10.0999756-38.8999939-7.5c-4.5,1-8.2000122,2.5999756-11,4.9000244
					c-3.1000061,2.5999756-5.1000061,6-5.3999939,9.5c-0.2999878,3.4000244,1,7.4000244,3.7999878,11.0999756
					c5.2000122,7,14,12,24.7999878,14.0999756c10,1.9000244,20.3999939,1.1999512,30.5,0.5999756
					c1.5-0.0999756,2.7999878,1.0999756,2.9000244,2.5999756c0.0999756,1.5-1.0999756,2.8000488-2.5999756,2.9000244
					c-10.3999939,0.6999512-21.2000122,1.3000488-31.8999939-0.6999512
					c-12.2000122-2.3000488-22.2000122-8.0999756-28.2000122-16.1999512c-2.5-3.4000244-5.3999939-8.6999512-4.7999878-14.9000244
					c0.3999939-4.9000244,3.2000122-9.6999512,7.3999939-13.1999512c3.3999939-2.8000488,7.8999939-4.8000488,13.2999878-6
					c13.2999878-2.9000244,28.5-0.0999756,42.7999878,8.0999756c12.7999878,7.1999512,23.4000244,17.5999756,33.2000122,27.5
					C551.2999878,1701.5,551.4000244,1701.5999756,551.5999756,1701.8000488z"/>
			</g>
			<g>
				<path style="fill:#1C1C1A;" d="M485.2000122,1710.3000488c0.2999878,0.5999756,0.5,1.3000488,0.2999878,2
					c-0.2999878,1.5-1.7999878,2.4000244-3.2999878,2.0999756c-1.1000061-0.3000488-2.2000122-0.5-3.2999878-0.6999512
					l-0.2999878-0.0999756c-2.2999878-0.5-4.2000122-1.0999756-5.7999878-1.9000244c-6.2000122-3.1999512-13.5-4.5-20.5-3.6999512
					s-13.7000122,3.8000488-19.1000061,8.3000488c-1.2000122,1-2.8999939,0.9000244-3.8999939-0.3000488
					c-1-1.1999512-0.7999878-2.9000244,0.2999878-3.9000244c6.2000122-5.1999512,14-8.5999756,22-9.5999756
					c8-0.9000244,16.3999939,0.5999756,23.6000061,4.3000488c1.2000122,0.5999756,2.6000061,1.0999756,4.3999939,1.4000244
					l0.2999878,0.0999756c1.2000122,0.1999512,2.2999878,0.5,3.5,0.6999512
					C484.2999878,1709.0999756,484.8999939,1709.5999756,485.2000122,1710.3000488z"/>
			</g>
			<g>
				<path style="fill:#1C1C1A;" d="M486.3999939,1711.0999756c0.2999878,0.4000244,0.3999939,1,0.3999939,1.5
					c-0.1000061,1.5-1.3999939,2.6999512-2.8999939,2.5999756l-1.2000122-0.0999756
					c-1.5-0.0999756-2.7000122-1.4000244-2.6000061-2.9000244s1.3999939-2.6999512,2.8999939-2.5999756l1.2000122,0.0999756
					C485.2000122,1709.8000488,486,1710.3000488,486.3999939,1711.0999756z"/>
			</g>
			<g>
				<path style="fill:#1C1C1A;" d="M677.9000244,1932.1999512c2.2000122,3.8000488,1.5,9.4000244,1,14
					c-0.2000122,1.4000244-0.2999878,2.6999512-0.4000244,3.6999512l-0.7000122,19c-0.2000122,4.4000244-0.2999878,9-1.7999878,13.5
					c-3,8.9000244-10.5999756,15.3000488-16.7000122,20.4000244c-6.9000244,5.6999512-14,11.6999512-22.4000244,15.5999756
					c-9.7000122,4.5-19.7000122,5.4000244-28,2.4000244c-10.0999756-3.5999756-17-13.3000488-16.2999878-23
					c0.5999756-8.6999512,6.5999756-15.5,12.7000122-21.6999512c5.0999756-5.1999512,10.2000122-10.5,15.2000122-15.5
					c7.7999878-7.9000244,15.9000244-16.0999756,25.4000244-22.4000244c8-5.3000488,19.0999756-11.4000244,26.4000244-9.9000244
					c2.2999878,0.5,4.2000122,1.6999512,5.4000244,3.5999756C677.7999878,1932,677.7999878,1932.0999756,677.9000244,1932.1999512z
					 M672.2999878,1968.6999512l0.7000122-19c0-1.1999512,0.2000122-2.5999756,0.4000244-4.1999512
					c0.4000244-3.5999756,1-8.5999756-0.4000244-10.6999512c-0.4000244-0.5999756-1-1-1.9000244-1.1999512
					c-4-0.8000488-12.5,2.6999512-22.2000122,9.0999756c-9.0999756,6-16.9000244,14-24.5,21.6999512
					c-5,5-10.0999756,10.1999512-15.2000122,15.5c-5.5999756,5.6999512-10.5999756,11.4000244-11.0999756,18.1999512
					c-0.5,7.0999756,4.9000244,14.5999756,12.7000122,17.4000244c6.9000244,2.5,15.4000244,1.6999512,23.7999878-2.1999512
					C642.3999634,2009.7000732,649.1999512,2004,655.7999878,1998.5c5.5999756-4.5999756,12.5-10.4000244,15-17.9000244
					C672,1976.9000244,672.2000122,1972.6999512,672.2999878,1968.6999512L672.2999878,1968.6999512z"/>
			</g>
			<g>
				<path style="fill:#1C1C1A;" d="M678.2999878,1820.5c3.2999878,5.6999512,5.0999756,13.1999512,5.2999878,22.1999512
					c0.0999756,3.0999756,0,6.3000488-0.0999756,9.4000244c-0.2000122,6.4000244-0.2999878,12.5,0.7999878,18.5
					c0.5999756,3.3000488,1.5999756,6.5,2.7000122,9.9000244c1,3.0999756,2,6.3000488,2.7000122,9.5
					c3.4000244,15.9000244-1.2999878,33.1999512-12.2999878,45.1999512c-1,1.0999756-2.7999878,1.1999512-3.9000244,0.1999512
					c-1.0999756-1-1.2000122-2.8000488-0.2000122-3.9000244c9.7999878-10.6999512,13.9000244-26.1999512,10.9000244-40.4000244
					c-0.5999756-3-1.5999756-5.9000244-2.5-9c-1.0999756-3.4000244-2.2000122-6.9000244-2.9000244-10.5
					c-1.2999878-6.5999756-1.0999756-13.3000488-0.9000244-19.6999512c0.0999756-3,0.2000122-6.0999756,0.0999756-9.0999756
					c-0.2000122-11.0999756-3-19.1999512-8.2000122-24.1999512c-1.0999756-1.0999756-1.0999756-2.8000488-0.0999756-3.9000244
					c1.0999756-1.0999756,2.7999878-1.0999756,3.9000244-0.0999756C675.4000244,1816.3000488,677,1818.3000488,678.2999878,1820.5z"
					/>
			</g>
			<g>
				<path style="fill:#1C1C1A;" d="M676.9000244,1932.5c0,0.0999756,0.0999756,0.0999756,0.0999756,0.1999512
					c0.7000122,1.4000244,0.0999756,3-1.2000122,3.6999512c-0.0999756,0.0999756-0.2000122,0.0999756-0.2999878,0.1999512
					c0.5-0.0999756,1-0.0999756,1.5999756,0c1.4000244,0.5,2.2000122,2,1.7999878,3.5
					c-2.7000122,8.1999512-8.2000122,15.0999756-13,21.1999512c-5.7000122,7.0999756-11.5,14.5-18.5999756,20.5999756
					c-1.7000122,1.5-3.5999756,3-5.9000244,3.9000244c-2.7999878,1.1999512-5.7000122,1.1999512-8.2000122,0.1999512
					c-4.2999878-1.8000488-6.7000122-7-5.5999756-12.0999756c1-4.5999756,4.2000122-8.0999756,6.5999756-10.3000488
					c4.0999756-3.8000488,8.9000244-6.9000244,13.5-9.8000488c5.7999878-3.6999512,11.2999878-7.1999512,15.5999756-12.1999512
					c0.7000122-0.8000488,1.2999878-1.5999756,2-2.5c2.2999878-2.9000244,4.5999756-5.9000244,8.2000122-7.6999512
					C674.5999756,1930.8000488,676.2000122,1931.1999512,676.9000244,1932.5z M633.4000244,1979.4000244
					c0.4000244,0.6999512,1,1.3000488,1.7000122,1.5999756c1.0999756,0.4000244,2.5,0.4000244,3.9000244-0.1999512
					c1.5999756-0.5999756,3-1.8000488,4.4000244-3c6.7000122-5.8000488,12.4000244-13,17.9000244-19.9000244
					c4.7999878-6,9.7000122-12.3000488,12.0999756-19.5c0.0999756-0.3000488,0.2000122-0.5,0.4000244-0.8000488
					c-1.5999756,1.3000488-3,3.0999756-4.5,5c-0.7000122,0.9000244-1.4000244,1.8000488-2.2000122,2.6999512
					c-4.7999878,5.5-10.9000244,9.4000244-16.7999878,13.1999512c-4.5999756,2.9000244-9,5.6999512-12.7000122,9.1999512
					c-2.9000244,2.6999512-4.4000244,5-4.9000244,7.4000244C632.5,1976.4000244,632.7000122,1978.0999756,633.4000244,1979.4000244z
					"/>
			</g>
			<g>
				<path style="fill:#1C1C1A;" d="M684.0999756,1922.4000244C684.7999878,1923.5,684.5,1925,683.5,1925.9000244
					c-1.2000122,1-2.9000244,0.8000488-3.9000244-0.3000488c-2-2.4000244-4.0999756-2.8000488-8.2999878-3.3000488
					s-8.5,0.4000244-12.5999756,1.4000244c-25.4000244,6.1999512-48.7999878,20.5-66,40.1999512
					c-3.4000244,4-7.7000122,9.3000488-9.9000244,15.5c-2.2000122,6-2.0999756,12.0999756,0.0999756,16.8000488
					c2.5,5.0999756,7.9000244,8.5,12.7999878,7.9000244c1.5-0.1999512,2.9000244,0.9000244,3,2.5
					c0.2000122,1.5-0.9000244,2.9000244-2.5,3c-7.2999878,0.8000488-14.9000244-3.8000488-18.4000244-11
					c-2.9000244-6.0999756-3-13.8000488-0.2999878-21.0999756c2.5999756-7,7.2000122-12.9000244,11-17.1999512
					c17.9000244-20.5999756,42.4000244-35.4000244,68.9000244-41.9000244c4.5-1.0999756,9.4000244-2.0999756,14.5-1.5
					c4.7000122,0.5,8.5999756,1.1999512,11.9000244,5.1999512C684,1922.0999756,684.0999756,1922.1999512,684.0999756,1922.4000244z
					"/>
			</g>
			<g>
				<path style="fill:#1C1C1A;" d="M629.5999756,1860c0.5999756,1,0.5,2.1999512-0.2999878,3.1999512
					c-0.2000122,0.3000488-0.4000244,0.5-0.5999756,0.8000488c-0.2999878,0.5-0.7000122,1-1.2999878,1.5999756
					c-21.5,22.5999756-45.9000244,42.4000244-72.5,58.8000488l-1.0999756,0.6999512
					c-3.9000244,2.4000244-7.5999756,4.5999756-10.7000122,7.5c-2.5999756,2.4000244-5.9000244,6.1999512-6.7999878,11.0999756
					c-0.9000244,5.0999756,0.7999878,11,5.2000122,17.6999512c8.5999756,13,22,23.0999756,37,27.5999756
					c1.5,0.4000244,2.2999878,2,1.7999878,3.4000244c-0.4000244,1.5-2,2.3000488-3.4000244,1.8000488
					c-16.2000122-4.9000244-30.7000122-15.8000488-40-29.9000244c-5.2000122-7.9000244-7.2000122-15.1999512-6-21.6999512
					c0.9000244-5,3.9000244-9.9000244,8.5-14.0999756C543,1925.1999512,547,1922.6999512,551,1920.3000488l1.0999756-0.6999512
					c26.2000122-16.1999512,50.2000122-35.5999756,71.4000244-57.9000244c0.2000122-0.3000488,0.5-0.5999756,0.7999878-1
					s0.5-0.8000488,0.9000244-1.1999512c1-1.1999512,2.7000122-1.3000488,3.9000244-0.3000488
					C629.2999878,1859.5,629.5,1859.8000488,629.5999756,1860z"/>
			</g>
			<g>
				<path style="fill:#1C1C1A;" d="M534.9000244,1942.5999756c0.7000122,1.0999756,0.4000244,2.5999756-0.5999756,3.5
					c-7,5.9000244-17.2000122,7.8000488-25.8999939,4.6999512c-5.2000122-1.8000488-9.6000061-5.1999512-13.2000122-8.3000488
					c-3.6000061-3.0999756-7.2999878-6.6999512-8.8999939-11.4000244c-0.5-1.4000244,0.2000122-3,1.7000122-3.5
					c1.3999939-0.5,3,0.1999512,3.5,1.6999512c1.2000122,3.5,4.2999878,6.4000244,7.2999878,9
					c3.2000122,2.8000488,7.1000061,5.8000488,11.5,7.3000488c6.9000244,2.4000244,14.9000244,1,20.5-3.6999512
					c1.2000122-1,2.9000244-0.8000488,3.9000244,0.3000488
					C534.7000122,1942.3000488,534.7999878,1942.4000244,534.9000244,1942.5999756z"/>
			</g>
		</g>
		<g>
			<path style="fill:#1C1C1A;" d="M512.0999756,1685.3000488c0.5999756,1,0.5,2.3000488-0.2999878,3.1999512
				c-1,1.0999756-2.7000122,1.3000488-3.8999939,0.3000488C503.6000061,1685,499.1999817,1682.6000977,495,1681.7000732
				c-4.8999939-1.0999756-9.7999878-0.1999512-13.1000061,2.5c-1.2000122,1-2.8999939,0.8000488-3.8999939-0.4000244
				c-1-1.1999512-0.7999878-2.9000244,0.3999939-3.9000244c4.6000061-3.6999512,11.2000122-5.0999756,17.7999878-3.5999756
				c5.1000061,1.0999756,10.2999878,4,15.2999878,8.4000244
				C511.7000122,1684.8000488,511.8999939,1685.0999756,512.0999756,1685.3000488z"/>
		</g>
		<g>
			<path style="fill:#1C1C1A;" d="M491,1731.8000488c0.2999878,0.4000244,0.3999939,0.9000244,0.3999939,1.5
				c-0.1000061,1.5-1.2999878,2.6999512-2.7999878,2.6999512l-18.2000122-0.5999756C464.7999878,1735.2000732,459,1735,453.5,1736
				c-4.1000061,0.6999512-9.8999939,2.5-14,6.8000488c-1,1.0999756-2.7999878,1.1999512-3.8999939,0.0999756
				c-1.1000061-1-1.2000122-2.8000488-0.1000061-3.9000244c4.1000061-4.3000488,9.8999939-7.1999512,17-8.5
				c6.1000061-1.0999756,12.2000122-0.9000244,18.1000061-0.6999512l18.2000122,0.5999756
				C489.7000122,1730.5,490.6000061,1731.0999756,491,1731.8000488z"/>
		</g>
		<g>
			<path style="fill:#1C1C1A;" d="M512.0999756,1726.5999756c0.0999756,0.0999756,0.2000122,0.3000488,0.2000122,0.5
				c0.5,1.4000244-0.2000122,3-1.7000122,3.5l-10.2000122,3.6999512c-1.3999939,0.5-3-0.1999512-3.5-1.6999512
				s0.2000122-3,1.7000122-3.5l10.2000122-3.6999512C510.1000061,1725,511.3999939,1725.5,512.0999756,1726.5999756z"/>
		</g>
		<g>
			<path style="fill:#1C1C1A;" d="M611.0999756,1756.0999756c0.4000244,0.6999512,0.5,1.5999756,0.2000122,2.4000244
				c-0.5999756,1.4000244-2.2000122,2.0999756-3.5999756,1.5999756C593.1000366,1754.4000244,576,1756.2999268,563,1764.9000244
				c-1.2999878,0.8000488-3,0.5-3.7999878-0.8000488s-0.5-3,0.7999878-3.8000488
				c14.5-9.5999756,33.5-11.6999512,49.7000122-5.3000488
				C610.2999878,1755.1999512,610.7999878,1755.5999756,611.0999756,1756.0999756z"/>
		</g>
		<g>
			<path style="fill:#1C1C1A;" d="M521.4000244,1875.6999512L521.4000244,1875.6999512c0.7999878,1.4000244,0.2999878,3-1,3.8000488
				c-9.5,5.4000244-20.2000122,8.9000244-31,10.3000488c-0.5,0.0999756-0.8999939,0.0999756-1.3999939,0.1999512
				c-2.5,0.3000488-4.8999939,0.5999756-7,1.4000244c-1.8999939,0.8000488-4,2.3000488-4.3999939,4.5
				c-0.2999878,1.5-1.7000122,2.5-3.2000122,2.1999512s-2.5-1.6999512-2.2000122-3.1999512
				c0.7000122-3.6999512,3.6000061-6.9000244,7.7000122-8.5999756c2.7999878-1.0999756,5.6000061-1.5,8.3999939-1.8000488
				c0.5-0.0999756,0.8999939-0.0999756,1.3999939-0.1999512c10.1000061-1.3000488,20.1000061-4.5999756,29-9.5999756
				C519,1873.9000244,520.7000122,1874.4000244,521.4000244,1875.6999512z"/>
		</g>
		<g>
			<path style="fill:#1C1C1A;" d="M544.4000244,1865.3000488c0.7999878,1.3000488,0.2999878,3-1,3.8000488L532,1875.8000488
				c-1.2999878,0.8000488-3,0.3000488-3.7999878-1s-0.2999878-3,1-3.8000488l11.4000244-6.6999512
				C541.9000244,1863.5,543.5999756,1863.9000244,544.4000244,1865.3000488z"/>
		</g>
		<g>
			<path style="fill:#1C1C1A;" d="M561.5999756,1931.4000244c0.0999756,0.1999512,0.2000122,0.3000488,0.2000122,0.5
				c0.5,1.4000244-0.2999878,3-1.7999878,3.5c-5.4000244,1.8000488-9.5999756,7.1999512-10,12.8000488
				c-0.4000244,5.6999512,3,11.5999756,8.0999756,14.0999756C559.5,1963,560,1964.6000977,559.2999878,1966
				c-0.7000122,1.4000244-2.2999878,1.9000244-3.7000122,1.1999512c-7.0999756-3.5-11.7000122-11.5999756-11.0999756-19.5
				C545.0999756,1939.7999268,550.7000122,1932.5,558.2999878,1930
				C559.5999756,1929.8000488,561,1930.3000488,561.5999756,1931.4000244z"/>
		</g>
		<g>
			<path style="fill:#1C1C1A;" d="M616.7000122,1983.5c0.7000122,1.1999512,0.4000244,2.6999512-0.7000122,3.5999756
				c-3,2.3000488-4.7999878,6.0999756-4.5999756,9.8000488c0.0999756,3.9000244,2.2000122,7.9000244,4.0999756,11.3000488
				c0.7000122,1.3000488,0.2000122,3-1.0999756,3.6999512s-3,0.1999512-3.7000122-1.0999756
				c-2-3.8000488-4.5999756-8.5-4.7000122-13.8000488c-0.2000122-5.5,2.4000244-11,6.7999878-14.4000244
				c1.2000122-0.9000244,2.9000244-0.6999512,3.9000244,0.5C616.5,1983.3000488,616.5999756,1983.4000244,616.7000122,1983.5z"/>
		</g>
	</g>
</g>
</svg>
