<?xml version="1.0" encoding="utf-8"?>
<!-- Generator: Adobe Illustrator 23.1.0, SVG Export Plug-In . SVG Version: 6.00 Build 0)  -->
<svg version="1.1" id="Слой_1" xmlns="http://www.w3.org/2000/svg" xmlns:xlink="http://www.w3.org/1999/xlink" x="0px" y="0px"
	 viewBox="0 0 1366 2888.8000488" enable-background="new 0 0 1366 2888.8000488" xml:space="preserve">
<g>
	<path fill="#333333" d="M809.5,210c-1,2.5,0.0999756,4.3000031,1.7999878,5.3000031c1.4000244,1.5,3.5,2,5.5999756,0.3999939
		c11.2999878-8.5,22.7000122-21.3999939,21.2000122-36.6999969c-1.4000244-15.3000031-41.4000244-48.6000061-13.7999878-59.4000015
		c5.0999756-2,4.7999878-10-1.2999878-10c-19.2000122,0.0999985-38.9000244,6.5999985-40.0999756,28.5999985
		C781.4000244,167.5,822.5999756,178,809.5,210z M802.7000122,159.1000061
		c-13.5999756-16-9.9000244-29.6000061,3.0999756-35.6999969c-2.0999756,4.8000031-2.4000244,10.5-0.5,17.5
		c2,7.3000031,6.5999756,13.8000031,11.0999756,19.6999969c9.7999878,13,12.9000244,24.8000031,5.7999878,35.8999939
		c-0.0999756-6.6999969-1.7000122-13.5-4.7999878-19.1999969C813.5,170,807.9000244,165.1999969,802.7000122,159.1000061z"/>
	<path fill="#333333" d="M874.5,207.6000061c-1,2.5,0.0999756,4.3000031,1.7999878,5.3000031
		c1.4000244,1.5,3.5,2,5.5999756,0.3999939c13.4000244-10.1000061,26.9000244-25.5,25.2000122-43.5
		c-1.9000244-19.1999969-51.7000122-59.0999985-15.9000244-73c5.0999756-2,4.7999878-10-1.2999878-10
		c-22.7999878,0.0999985-45.9000244,7.5999985-47.5,33.5999985C840.0999756,155.8999939,890.5999756,168.1000061,874.5,207.6000061z
		 M864.5,146.3000031c-17.9000244-21-11.7000122-38.9000015,6.7000122-46c-3.5999756,6-4.2999878,13.5999985-1.7000122,22.9000015
		C871.9000244,131.8000031,877.4000244,139.5,882.7000122,146.5c13.0999756,17.1999969,16.4000244,32.8999939,5.2000122,47.5
		c0.4000244-9-1.5-18.3000031-5.7000122-26C877.4000244,159.3999939,870.7000122,153.6000061,864.5,146.3000031z"/>
	<path fill="#333333" d="M1031.1999512,263.8999939c-11.5999756-8.3000031-24.2000122-9.3000031-35.5-3.5
		c-0.0999756-15-5-26.5-18.2000122-29.6000061c-0.2000122-0.1000061-0.4000244,0-0.7000122,0
		c-0.2000122,0-0.4000244-0.1000061-0.7000122-0.1999969c-82.0999756-2.6999969-167.3999634-6.8000031-249.3999634,0.3000031
		c-27.5999756,2.3999939-24.9000244,19.1999969-22.9000244,44C705.8999023,301,711.0999146,327.1000061,722.0999146,351
		c7,15.1000061,16.2999878,28,27.2000122,38.7000122c-24,2.3999939-66.9000244,10.8999939-66.2999878,34.7000122
		c0.4000244,18,32.5999756,24.2999878,45.5,26.2999878c5.2000122,0.7999878,10.4000244,1.3999939,15.5999756,2
		c14.5999756,33.2999878,69.5,27.1000061,98.7000122,27.5c25.9000244,0.3999939,54.5,1.3999939,80-3.8999939
		c15.5999756-3.2999878,23-14.1000061,32.0999756-26.2000122c19.4000244-2.2000122,50.2000122-6.2000122,57.5999756-21.5
		C1023.6998901,405.5,963.0998535,395.5,937.1998901,392.7000122c2.5-2.2999878,4.7999878-4.7999878,7.0999756-7.2999878
		c0.5,0.2000122,1.0999756,0.2999878,1.7999878,0.2999878c40.2000122-1.7000122,96.1999512-27.8999939,100.9000244-73.1000061
		C1048.9000244,295.3999939,1045.8000488,274.2999878,1031.1999512,263.8999939z M988.9000244,301.3999939
		c3.7999878-1.5,9.7000122-3.8999939,13.7999878-2.3999939c5.4000244,1.8999939,7.5,7.6000061,6.5,12.7999878
		C1007.9000244,318.8999939,1001.5,325.8999939,995.9000244,330c-6.2000122,4.3999939-15.2999878,9.3999939-23.5,11.1000061
		c5.2999878-11.3999939,11.0999756-25.3999939,15.5-39.6000061C988.2999878,301.5,988.5999756,301.5,988.9000244,301.3999939z
		 M898.5,468.3999939C883.0999756,469.5,867.5999756,470,852.0999756,470c-22.5999756,0-79.4000244,5.3999939-96-16.3999939
		c25.5,1.7999878,51.5,1.5,76.7000122,1.8999939c35.7999878,0.7000122,71.7000122,0.2999878,107.2999878-4
		C929,463,916.9000244,467,898.5,468.3999939z M927.7000122,401.7000122C944.6000366,402.5,961.2000122,406,977.4000244,411
		c5.2999878,1.6000061,18,4.1000061,21.4000244,8.2999878c7.4000244,9.2999878-21.7000122,15.7999878-27.7999878,17.2000122
		c-43.2000122,9.7999878-89.2999878,9.6000061-133.2999878,8.8999939c-20.7999878-0.2999878-41.7000122-0.8999939-62.5-1.7000122
		c-20.2999878-0.7999878-53.2999878,1.6000061-71.0999756-10.7000122c-23.9000244-16.6000061,11.5999756-25.6000061,24.7000122-29
		c10-2.6000061,20.4000244-4.6000061,30.7000122-5c0.2000122,0,0.2999878-0.1000061,0.5-0.1000061
		c21,16.2999878,46.7999878,25.7999878,75.4000244,28.2000122c34.9000244,2.8999939,66-6.2999878,91.2000122-25.7000122
		C927,401.5,927.2999878,401.7000122,927.7000122,401.7000122z M928.9000244,386.8999939
		C884.6000366,429,806.6000366,427.6999817,761,387.6000061C740.9000244,369.8999939,728.5999756,345.5,721.5999756,320
		c-4.0999756-14.7999878-6.5-29.8999939-7.7000122-45.2000122c-0.4000244-5.1000061-2.2999878-15.3999939-1-20.3999939
		c4.5999756-17.3000031,22-13.6999969,34.2000122-14c76-1.8999939,152-2.1999969,228,0.1999969
		c21.0999756,5.8000031,0.5999756,64.5999908-3.7000122,76.9000092
		C962.4000244,343.1000061,948.7000122,368.1000061,928.9000244,386.8999939z M1019.2999878,343.7000122
		C1001.5999756,361.5,977.7000122,372.1000061,953,374.6000061c3-3.8999939,5.9000244-8,8.5-12.3999939
		c1.5-2.5,3.5-6.1000061,5.7000122-10.2999878c0.0999756,0,0.2000122,0.1000061,0.2999878,0.1000061
		c18.4000244-0.6000061,41.2000122-14.7999878,49.2000122-31.2999878c3.7999878-7.7999878,4-17.3999939-1.4000244-24.6000061
		c-5.9000244-7.8999939-15.4000244-8.3999939-24-6.1000061c1.5-5.7999878,2.7000122-11.6000061,3.4000244-17.1000061
		c19.4000244-16.3999939,39.7000122,3.7000122,41.8999634,23.7000122
		C1038.8000488,316,1032.6999512,330.2000122,1019.2999878,343.7000122z"/>
	<path fill="#333333" d="M735.4000244,267.5c-0.5-6.5-10.7000122-6.5-10.0999756,0
		c2.0999756,26,10,50.2000122,23.9000244,72.2999878c3.5,5.5,12.2999878,0.3999939,8.7999878-5.1000061
		C745,314.1000061,737.4000244,291.7000122,735.4000244,267.5z"/>
	<path fill="#333333" d="M763.7000122,351.6000061c-6.5,0-6.5,10.1000061,0,10.1000061
		S770.2000122,351.6000061,763.7000122,351.6000061z"/>
</g>
<g>
	<path fill="#333333" d="M479.7000122,825C456.4000244,782.0999756,390.5,756.2999878,343.6000061,758.5999756
		C322.8999939,757.3999634,298.3000183,774.1999512,287,791c-13.3999939,20-5.1000061,44.5,4.2999878,64.5
		C313.5,902.7999878,368.3999939,943,422.8999939,928.0999756C467,916,503.7999878,869.2000122,479.7000122,825z M343,768
		c35-1.7000122,73.2999878,12.7999878,101.3999939,32.9000244C462.7999878,814,479.6999817,833.5,479,857.6000366
		c-0.3999939,15.2999878-9.1000061,27.4000244-19.8999939,37.2999878c-26.7000122,16.5-73.6000061,1.5-97.8999939-14.7000122
		c-26.5-17.5999756-64.8999939-41.2000122-68.7999878-75.2999878C299.6000061,784.7999878,322.2999878,766.7000122,343,768z
		 M322,884.5999756c-13-14.4000244-24.3999939-32.7000122-29.7000122-51.7999878
		c15.5,25.5,46.3999939,45.7999878,69.2999878,59.0999756c19,11,49.1000061,21.2000122,75,19.4000244
		C398.1000061,931.9000244,350.8999939,916.5999756,322,884.5999756z"/>
	<path fill="#333333" d="M313.6000061,786.2999878C313.6000061,786.2999878,313.6000061,786.4000244,313.6000061,786.2999878
		c0,1,0.3999939,2,1.3999939,2.9000244l0,0c11.3999939,17.5,25.5,30.2999878,44.5,39.4000244
		c31.2999878,14.9000244,63,21.5999756,82.5,53.4000244c3.2000122,5.2000122,10.3999939,1.5,8.3999939-4.2000122
		c-8.3999939-23.9000244-20.2999878-45.0999756-44.6000061-55c-30.5-12.5-58-17.0999756-83.8999939-39.9000244
		C321.6999817,782.7000122,321.5,782.7000122,321.1999817,782.5c-0.1000061,0-0.1000061-0.0999756-0.2000122-0.0999756
		c-0.5-0.2999878-0.8999939-0.5-1.3999939-0.5999756c-0.2000122-0.0999756-0.3999939-0.0999756-0.7000122-0.0999756
		c-0.2999878,0-0.6000061-0.0999756-0.8999939,0c-2.2999878,0.2000122-4.2999878,1.7000122-4.5,3.7999878
		C313.7000122,785.7999878,313.6000061,786.0999756,313.6000061,786.2999878z M374.3999939,822.7000122
		C386.6999817,826.4000244,401,829.1000366,412,836.1000366c7.3999939,4.5999756,13,11.2000122,17.6000061,18.5
		c-20-15.9000244-45-24-67.3000183-36.0999756C366.2999878,820,370.2999878,821.5,374.3999939,822.7000122z"/>
	<path fill="#333333" d="M456.8999939,839.7999878C459,845.5,467.5,841.2000122,465.2999878,835.5999756
		c-3.8999939-10.4000244-10.7000122-18.9000244-19.6000061-25.4000244
		c-4.8999939-3.5999756-10.1000061,4.2999878-5.2000122,7.9000244C448.2000122,823.7000122,453.5,831,456.8999939,839.7999878z"/>
	<path fill="#333333" d="M461.7000122,850.2000122c-0.1000061,0-0.2000122,0.0999756-0.2999878,0.0999756
		c-5.3999939,2.7000122-1.2999878,11.0999756,4.2000122,8.4000244c0.1000061,0,0.2000122-0.0999756,0.2999878-0.0999756
		C471.2999878,856,467.1000061,847.5,461.7000122,850.2000122z"/>
	<path fill="#333333" d="M611,790.2999878c-20.2000122-1.2000122-48.5999756,8.2999878-60.0999756,25.4000244
		c-30.2000122,36-49.6000061,104-29.5999756,148.5c20.5999756,45.7999878,80.2000122,45,116.5,17.2000122
		c44.9000244-34.4000244,46-102.2999878,21.9000244-148.7000122C649.5999756,813.2000122,635,791.7000122,611,790.2999878z
		 M547.7999878,983.4000244C528.3999634,969.5,522.7999878,944,523.5999756,921.6000366
		c1.2000122-34.7000122,12.5999756-73.7000122,35.2000122-100.5999756c11.5-17.2000122,39.5-24.5,60.0999756-18.0999756
		c24.7999878,23.7000122,20.4000244,68.7000122,18.2999878,100.5
		c-1.9000244,29.2000122-18.2999878,75.5999756-47.7000122,86.7999878
		C575.0999756,992.7999878,560.2999878,992.2999878,547.7999878,983.4000244z M616.0999756,982.2000122
		c17.0999756-19.4000244,27.0999756-49.5999756,30-71.4000244c3.4000244-26.2000122,5.7999878-63.2000122-5-91
		C653.0999756,835.5999756,661,856,664.3999634,874.8999634C671.9000244,917.4000244,656,964.0999756,616.0999756,982.2000122z"/>
	<path fill="#333333" d="M580.5,969.5999756c-16.7999878-55.2000122,30.5999756-101.9000244,14.7000122-157.7999878
		C595.2000122,811.5999756,595,811.5,595,811.3999634c-0.0999756-0.4000244-0.2999878-0.7999878-0.5999756-1.0999756
		c-0.0999756-0.0999756-0.2000122-0.2999878-0.2999878-0.4000244c-0.4000244-0.4000244-0.7999878-0.7000122-1.2999878-1
		c0,0-0.0999756,0-0.0999756-0.0999756c-1.9000244-1-4.2999878-0.7999878-5.7000122,0.7000122
		c-0.7999878,0.7000122-1.2000122,1.7000122-1.2000122,3c-0.7999878,30.2999878-15.4000244,59-24.5999756,87.5999756
		c-8.5,26.5999756-3.2000122,48.5999756,10.4000244,72.5C574.0999756,976.9000244,582.0999756,975,580.5,969.5999756z
		 M567.5999756,911.5c2.2000122-9.4000244,6.2999878-18.4000244,9-27.7000122
		c3.5999756-12.2000122,8.0999756-23.5999756,11.7999878-35.2000122
		c-3.2999878,30.7000122-18.5999756,59.7000122-20.5999756,90.5999756
		C565.7999878,930.4000244,565.2999878,921.2999878,567.5999756,911.5z"/>
	<path fill="#333333" d="M611.7999878,931.0999756c-1.7000122,13.2000122-8.9000244,24.4000244-16.7000122,34.7999878
		c-3.5999756,4.9000244,4.2999878,10,7.9000244,5.2000122c8.7999878-11.9000244,16.2999878-24.5,18.2000122-39.4000244
		C622,925.7000122,612.5999756,925.0999756,611.7999878,931.0999756z"/>
	<path fill="#333333" d="M616.0999756,912.9000244c-5.4000244,2.7000122-1.2999878,11.0999756,4.2000122,8.4000244
		C625.7000122,918.5999756,621.5,910.2000122,616.0999756,912.9000244z"/>
	<path fill="#333333" d="M446.2999878,1013.5999756C440.8999939,1016.2999878,445,1024.6999512,450.5,1022
		C455.7999878,1019.2999878,451.7000122,1010.9000244,446.2999878,1013.5999756z"/>
	<path fill="#333333" d="M428,979.7000122c-0.1000061-0.2999878-0.2999878-0.5-0.3999939-0.7999878
		C424.8999939,973.5,416.5,977.6000366,419.2000122,983.1000366c0.1000061,0.2999878,0.2999878,0.5,0.3999939,0.7999878
		C422.2999878,989.2999878,430.7000122,985.2000122,428,979.7000122z"/>
	<path fill="#333333" d="M464.2000122,943.0999756c-5.3999939,2.7000122-1.2999878,11.0999756,4.2000122,8.4000244
		C473.7999878,948.7999878,469.7000122,940.4000244,464.2000122,943.0999756z"/>
	<path fill="#333333" d="M472.7999878,990.2999878c0.1000061,0.2999878,0.2999878,0.5,0.3999939,0.7999878
		c2.7000122,5.4000244,11.1000061,1.2999878,8.3999939-4.2000122c-0.1000061-0.2999878-0.2999878-0.5-0.3999939-0.7999878
		C478.5,980.7000122,470.1000061,984.9000244,472.7999878,990.2999878z"/>
	<path fill="#333333" d="M448.2999878,978.9000244C442.8999939,981.6000366,447,990,452.5,987.3000488
		C457.8999939,984.5999756,453.7000122,976.2000122,448.2999878,978.9000244z"/>
	<path fill="#333333" d="M438,938.7000122c-0.2999878,0.0999756-0.5,0.2999878-0.7999878,0.4000244
		c-5.3999939,2.7000122-1.2999878,11.0999756,4.2000122,8.4000244c0.2999878-0.0999756,0.5-0.2999878,0.7999878-0.4000244
		C447.6000061,944.5,443.5,936,438,938.7000122z"/>
	<path fill="#333333" d="M486.2000122,946.5999756c-5.3999939,2.7000122-1.2999878,11.0999756,4.2000122,8.4000244
		C495.7999878,952.2999878,491.7000122,943.9000244,486.2000122,946.5999756z"/>
	<path fill="#333333" d="M506.5,991.4000244c-5.3999939,2.7000122-1.2999878,11.0999756,4.2000122,8.4000244
		C516.0999756,997.2000122,511.8999939,988.7000122,506.5,991.4000244z"/>
	<path fill="#333333" d="M520.0999756,788.7999878c5.4000244-2.7000122,1.2999878-11.0999756-4.2000122-8.4000244
		C510.5,783.0999756,514.7000122,791.5,520.0999756,788.7999878z"/>
	<path fill="#333333" d="M485.8999939,758.5999756c5.3999939-2.7000122,1.2999878-11.0999756-4.2000122-8.4000244
		C476.2999878,752.7999878,480.5,761.2999878,485.8999939,758.5999756z"/>
	<path fill="#333333" d="M510.5,734.2000122c5.4000244-2.7000122,1.2999878-11.0999756-4.2000122-8.4000244
		C500.8999939,728.4000244,505.1000061,736.7999878,510.5,734.2000122z"/>
	<path fill="#333333" d="M568.5999756,738.5999756C574,735.8999634,569.8999634,727.5,564.3999634,730.1999512
		C559,732.7999878,563.2000122,741.2999878,568.5999756,738.5999756z"/>
	<path fill="#333333" d="M547.4000244,784c5.4000244-2.7000122,1.2999878-11.0999756-4.2000122-8.4000244
		C537.7999878,778.2999878,542,786.7000122,547.4000244,784z"/>
	<path fill="#333333" d="M538,757.4000244c0.2000122-0.7000122,0.5-1.4000244,0.7000122-2.0999756
		c1.9000244-5.7000122-7-8.7999878-8.9000244-3c-0.2000122,0.7000122-0.5,1.4000244-0.7000122,2.0999756
		C527.0999756,760.2000122,536.0999756,763.2000122,538,757.4000244z"/>
	<path fill="#333333" d="M542,727.2999878c5.4000244-2.7000122,1.2999878-11.0999756-4.2000122-8.4000244
		C532.4000244,721.5,536.5999756,730,542,727.2999878z"/>
	<path fill="#333333" d="M598,755.5c5.4000244-2.7000122,1.2999878-11.0999756-4.2000122-8.4000244
		C588.4000244,749.7000122,592.5,758.2000122,598,755.5z"/>
	<path fill="#333333" d="M578.2999878,786.2000122c5.4000244-2.7000122,1.2999878-11.0999756-4.2000122-8.4000244
		C568.7000122,780.5,572.7999878,788.9000244,578.2999878,786.2000122z"/>
</g>
<g>
	<path fill="#333333" d="M1140.0098877,1601.9118652c2.6999512-23.9000244,5.3000488-47.9000244,6.3000488-71.9000244
		c1-23.0999756,3.5999756-52.5999756-8.8000488-73.4000244c-15.8000488-26.5999756-47.6999512-28.0999756-74.4000244-20.1999512
		c-1.5999756-0.6999512-3.1999512-1.4000244-4.7999268-2c12.6999512-11.0999756,34.3999023-25.6999512,12.9000244-39
		c-10.7000732-6.5999756-26-9.9000244-37.6999512-14.3000488c-18.0999756-6.6999512-36.2999878-13.1999512-54.5-19.9000244
		c-41.5-15.1999512-82.5999756-31.0999756-124.0999756-46.5c-7.5-2.8000488-21-9.0999756-25.7999878,1.6999512
		c-4.7000122,10.5,9.2999878,24.9000244,15,36.4000244c-3.2000122-0.8000488-6.2999878-1.4000244-9.2999878-1.5
		c-2.2999878-0.0999756-4.4000244,1.1999512-5.2999878,3.4000244c-6,14.9000244-13.2999878,30.1999512-17,45.8000488
		c-0.5,2.3000488-0.2000122,4.5999756,1.7999878,6c1.7000122,1.1999512,3.5999756,2.3000488,5.5999756,3.3000488
		c-30.4000244,29.1999512-57.0999756,61.5999756-83,94.6999512c-15,19.1999512-45.2999878,53.5999756-26.5999756,79.5999756
		c15.2000122,21.0999756,51.7000122,31.5999756,74.7000122,40.5c29.9000244,11.5,60.7999878,20.3000488,90.7000122,31.6999512
		c27.9000244,10.5999756,55.2999878,22.5,83.5,32.3000488c14.4000244,5,35,12.1999512,50.0999756,6.1999512
		c25.0999756-10.0999756,23.4000244-54.5,25.1999512-75.0999756c3.7000732-44.1999512,3.2000732-88.5,2.8000488-132.8000488
		c3.0999756,0.8000488,6.2999268,1.4000244,9.2999268,1.8000488c0.5999756,0.1999512,1.2000732,0.3000488,1.9000244,0.1999512
		c0.3000488,0,0.5999756,0,0.9000244,0c17.7999268-4.5,38.5999756-8.4000244,42.9998779,12.5
		c2.0999756,9.6999512,2.6999512,19.8000488,3.5,29.6999512c2,25.3000488,2.5,50.6999512,3,76.0999756
		c0.1999512,8.6999512-3.5999756,30.5999756,1,38.9000244c5.0999756,9.1999512,25.0999756,7.6999512,31.5999756,0.1999512
		C1139.8098145,1636.6119385,1138.7098389,1613.1119385,1140.0098877,1601.9118652z M868.7099609,1331.0119629
		c7.9000244,3,15.7000122,5.9000244,23.5999756,8.9000244c25.5,9.5999756,51,19.1999512,76.5,28.5999756
		c22.5999756,8.3000488,45.4000244,16.4000244,68,24.9000244c6.5999756,2.5,23.3999023,5.4000244,27.9998779,10.5999756
		c7.5999756,8.5999756-10.8999023,19.9000244-17.0998535,26c-101.1999512-25.8001709-65.5999756-22.4000244-97.7000122-35.5
		c-22-9.1999512-44.4000244-17.6999512-66.7000122-26.1999512c-7.9000244-3-17.4000244-7.8000488-26.9000244-11.5
		c-1.2999878-7.6999512-8.0999756-14-8.9000244-20.6999512
		C845.2099609,1316.8118896,860.7099609,1328.0119629,868.7099609,1331.0119629z M1026.4099121,1581.9118652
		c-1,25.9000244,4.5,98.5999756-29.2999268,103.8000488c-16.2000122,2.5-35.0999756-7.0999756-49.7000122-12.5999756
		c-21.0999756-8-42-16.5999756-63.0999756-24.6999512c-45.5-17.5999756-93.5-29.3000488-137.2000122-51.5999756
		c-22.7000122-11.5999756-38.2000122-29.9000244-23-56.6999512c8.2000122-14.5,19.5-27.4000244,29.9000244-40.4000244
		c23.5999756-29.6999512,47.9000244-58.5999756,75.5-84.6999512c0.2999878-0.3000488,0.5-0.5999756,0.7000122-1
		c8.4000244,2.9000244,17.4000244,5.0999756,24.5999756,7.6999512c25.0999756,9,50.2000122,18,75,27.5999756
		c23.2999878,9,46.9000244,17.3000488,70.5999756,25.0999756c8.4000244,2.8000488,17.4000244,6.4000244,26.499939,9.5
		C1027.3099365,1516.6119385,1027.7099609,1549.3118896,1026.4099121,1581.9118652z M972.1099854,1453.9118652
		c-26.7999878-9.3000488-53.0999756-19.9000244-79.7000122-29.5999756c-22.9000244-8.3000488-45.9000244-16.5-68.7999878-25l0,0
		c1.5-4.1999512,3-8.5,4.5999756-12.6999512c2.2000122-5.8000488,4.5-17.6999512,8.4000244-24.4000244
		c1,0.0999756,2.4000244,0.3000488,4.2000122,1.4000244c2.9000244,1.8000488,7.2999878,2.5999756,10.5,3.6999512
		c11.2999878,4.0999756,22.5999756,8.4000244,33.7999878,12.6999512c20.5,7.8000488,41.0999756,15.6999512,61.4000244,24.1999512
		c28.7999878,11.8000488,58.7999878,20.4000244,87.9000244,31.5c3.7999268,1.5,18,4.4000244,20.5,8.1999512
		c1.6999512,2.5999756-0.8000488,8.9000244-2.7000732,14.9000244c-1.5999756,4.9000244-3,10.6999512-5.1999512,15.5
		c-0.7000732,1.5-0.8000488,2.4000244-0.8000488,3.0999756c-0.5999756-0.1999512-1.4000244-0.3000488-2.5999756-0.4000244
		C1021.4099731,1476.1119385,992.8099976,1461.1119385,972.1099854,1453.9118652z M1110.0098877,1642.1119385
		c-2.0999756-2.4000244-0.3000488-14.0999756-0.4000244-17.3000488c-0.6999512-36.5-0.5999756-73.3000488-4.6999512-109.5999756
		c-1.0999756-9.5-1.3000488-23.3000488-7.1999512-31.4000244c-8.8000488-12.1999512-25.5-10.6999512-39.5998535-7.6999512
		c3.7999268-9.5999756,6.1999512-20.5999756,8.8999023-30.0999756c23.9000244-6.5,53.3000488-4.8000488,64.1999512,21.5
		c6.5999756,15.8000488,5.3000488,34.6999512,4.9000244,51.5c-0.4000244,16.9000244-1.9000244,33.6999512-3.4000244,50.5
		c-1.8000488,19.0999756-1.4000244,41.5-7,60C1124.2098389,1634.8118896,1117.1098633,1650.1119385,1110.0098877,1642.1119385z"/>
	<path fill="#333333" d="M931.5100098,1519.9118652c-18.5999756-1.4000244-37.5-0.3000488-55.9000244-3.5999756
		c-30.4000244-5.5-50.2000122-25-70.2999878-47.1999512c-1.7999878-2-4.2000122-2.0999756-6.0999756-1.1999512
		c-0.4000244,0.0999756-0.7000122,0.4000244-1.0999756,0.5999756c-0.0999756,0.0999756-0.2999878,0.1999512-0.4000244,0.3000488
		c-0.2000122,0.1999512-0.5,0.3000488-0.7000122,0.5c-22.7000122,25.1999512-86.2000122,82.6999512-39.5999756,112.5
		c29.7999878,19.0999756,69.4000244,25.9000244,102.4000244,37.4000244
		c36.2000122,12.5999756,74.5,35.3000488,112.7000122,40.6999512c19.5999756,2.8000488,30.2999878-5.4000244,34.7000122-24.5999756
		c4.9000244-21.6999512,9.2999878-60.5-2.5999756-80.8000488
		C990.1099854,1529.3118896,958.2099609,1522.0119629,931.5100098,1519.9118652z"/>
</g>
<g>
	<g>
		<g>
			<path fill="#333333" d="M470.7103271,1866.2542725c3.2067566,2.6619873,5.6633911,6.7687988,6.3172913,10.8946533
				c1.2214661,7.4315186-1.5813904,14.6282959-4.5555725,21.3554688
				c-26.7680359,60.5439453-68.5466614,113.7913818-120.9677734,154.2097168
				c-4.5497437,3.5761719-9.2023315,6.8706055-14.8312378,8.072998c-5.8167725,1.270752-11.8583069,0.1755371-18.6285706-3.2087402
				l-5.9324036-2.8383789l0,0c-5.5820007-2.753418-11.8991089-5.770752-16.6890259-10.7293701
				c-5.6367188-5.8204346-8.0032654-13.4727783-6.224884-19.9764404
				c2.1781921-8.0334473,9.8623047-12.6469727,15.9582825-16.3616943
				c36.6698303-22.3225098,69.0942993-51.6118164,100.4689636-79.9857178
				c14.5606689-13.1904297,31.1614075-28.083252,39.5127563-47.2045898l0.5369873-1.1540527
				c2.7609253-6.4364014,6.2378235-14.411377,14.0362549-16.0861816c3.3654175-0.6956787,6.928894,0.0264893,9.9642639,2.2188721
				C469.9663696,1865.6740723,470.3852844,1865.9470215,470.7103271,1866.2542725z M314.4985046,2049.611084l6.0606689,2.8981934
				c5.616272,2.847168,10.5127258,3.7216797,15.0740051,2.8024902c4.5269775-1.0131836,8.5905457-3.8796387,12.6451721-7.0625
				c51.6785278-39.8278809,92.8427734-92.425293,119.2870789-152.1060791
				c2.6162415-5.9576416,5.1296692-12.1972656,4.1062622-18.2108154c-0.4990234-3.1177979-2.5188904-6.3195801-5.1010437-8.1448975
				c-1.2911377-0.9128418-3.3426208-1.8674316-5.7000732-1.326416c-5.0309143,1.0905762-7.6471558,7.0483398-10.1098633,12.8436279
				l-0.5369873,1.1540527c-8.7944641,20.2409668-25.855957,35.6213379-40.8177795,49.1710205
				c-31.5282593,28.536499-64.2002563,58.022583-101.3055115,80.6103516
				c-5.5665894,3.4151611-11.8504944,7.1982422-13.5184326,13.1293945
				c-1.3277283,4.5296631,0.6693115,10.2943115,4.8092346,14.6383057
				C303.4969788,2044.2580566,309.07901,2047.0113525,314.4985046,2049.611084L314.4985046,2049.611084z"/>
		</g>
		<g>
			<path fill="#333333" d="M453.4210205,1861.1730957c1.8471375,1.5614014,3.5407104,3.2854004,4.8674011,5.4625244
				c0.79599,1.3062744,0.3364868,2.9642334-0.9698181,3.7601318c-1.3063049,0.7960205-2.9642639,0.3365479-3.7602539-0.9697266
				c-2.3537598-3.8248291-6.4403076-6.2723389-10.458313-8.5318604c-6.813446-3.7943115-15.5513-1.7768555-21.348938,1.2967529
				c-6.2331238,3.3389893-11.4988098,8.4538574-16.6705627,13.5345459c-0.6143799,0.6500244-1.263092,1.2059326-1.9714661,1.8902588
				c-29.5973206,28.5770264-65.3607178,51.6333008-103.5935364,66.755249l-1.5970154,0.5827637
				c-8.1982727,3.2043457-16.5844116,6.477417-21.8742371,12.9848633c-6.2025146,7.798584-7.179657,20.2904053-2.3654175,31.7335205
				c4.5146179,10.9136963,12.8630066,19.7896729,20.8864441,28.3585205
				c1.0435791,1.1096191,0.9344177,2.8525391-0.1750793,3.8961182c-1.1094971,1.043457-2.8525085,0.9344482-3.8960571-0.1751709
				c-8.023468-8.5688477-16.9621887-18.1875-21.9134827-30.0062256
				c-5.5341187-13.4157715-4.2688599-28.0352783,3.1878662-37.3560791
				c6.1428528-7.6704102,15.2805176-11.2176514,24.1364136-14.6619873l1.5030518-0.5484619
				c37.5752258-14.8820801,72.7495728-37.510498,101.7921448-65.5656738c0.6143799-0.6500244,1.263092-1.2059326,1.8775635-1.855957
				c5.4193115-5.2774658,10.9921875-10.7174072,17.9425354-14.4245605
				c9.1617432-4.9398193,19.1145325-5.3780518,26.5691223-1.2854004
				C448.2566223,1857.5220947,450.9924316,1859.1850586,453.4210205,1861.1730957z"/>
		</g>
		<g>
			<path fill="#333333" d="M405.374054,1840.0640869c6.7043457,5.5372314,11.2328491,13.5716553,11.857666,22.2855225
				c0.1383972,1.5462646-1.0903931,2.8461914-2.5427246,2.9503174c-1.5462341,0.1384277-2.8461914-1.090332-2.9503784-2.5426025
				c-0.7836609-13.2331543-13.5779114-24.9577637-26.7603149-24.6185303
				c-6.0059509,0.1689453-12.4624939,2.3121338-20.0869446,6.7973633
				c-13.9425659,8.1746826-25.8563538,19.8670654-37.3690491,31.2000732
				c-7.7576599,7.6209717-15.7628174,15.4387207-24.4269104,22.3259277
				c-13.3077393,10.4978027-28.0704041,18.7587891-44.0746765,24.4923096l-1.5970154,0.5826416
				c-3.8516083,1.4055176-7.5495758,2.6484375-10.5544128,4.9157715c-2.603653,1.9082031-5.5043335,5.6279297-5.047226,9.5061035
				c0.3275909,2.6480713,2.3042755,5.4396973,5.7675171,8.2209473c7.0547028,5.6223145,15.9691315,8.7564697,25.0511017,8.848999
				c1.4865417-0.0102539,2.7865601,1.2185059,2.7370911,2.833374c0.0101929,1.4865723-1.2186584,2.786499-2.8334351,2.7370605
				c-10.2524109-0.0910645-20.3804932-3.6340332-28.4698334-10.0496826
				c-4.7543488-3.6940918-7.2705841-7.6726074-7.8305511-11.8327637c-0.8101044-6.3041992,3.1822662-11.699707,7.2115173-14.6602783
				c3.6877747-2.7296143,7.9151306-4.2720947,12.08284-5.6864014l1.503067-0.5484619
				c15.3466797-5.4935303,29.6739502-13.4891357,42.4866028-23.5933838
				c8.4165344-6.6904297,16.3277588-14.473877,23.9317932-21.932373
				c11.7602234-11.5299072,23.9215698-23.4189453,38.4531555-32.0214844
				c8.4953003-5.0159912,15.7973633-7.4675293,22.7858582-7.5693359
				C392.2511292,1832.3980713,399.6103821,1835.3543701,405.374054,1840.0640869z"/>
		</g>
		<g>
			<path fill="#333333" d="M388.7891541,1830.7871094l0.1281738,0.0595703c0.359314,0.401123,0.8125,0.7680664,1.2657166,1.1348877
				c0.4874878,0.4608154,0.9406738,0.8277588,1.4282227,1.2884521c1.1375122,1.0753174,1.2162476,2.7497559,0.1409912,3.887207
				s-2.7496948,1.2161865-3.8871765,0.1409912c-0.3592834-0.401123-0.8125-0.7679443-1.265686-1.1348877
				c-0.4532166-0.3668213-0.9064331-0.7337646-1.2657166-1.1348877c-8.7901001-6.5858154-20.4288635-8.7258301-30.7346497-10.713623
				c-5.9475708-1.1296387-12.2113037-2.2504883-18.2083435-1.7652588
				c-13.0617676,1.2532959-23.8762512,10.4155273-34.4775085,19.2871094
				c-1.9460754,1.6680908-3.986084,3.3706055-6.0604248,4.9790039
				c-16.0218811,12.9783936-34.0292358,22.8493652-53.586853,29.3470459
				c-1.1273193,0.411377-2.3828125,0.7630615-3.5101166,1.1744385c-4.7655945,1.526123-9.2494354,2.9492188-13.3307343,5.1837158
				c-3.9277344,2.0718994-9.169342,5.7941895-11.3159027,11.5805664
				c-2.5984497,6.5900879-0.3931274,15.2592773,5.3642273,21.9937744
				c5.363739,6.2393799,12.690094,10.2723389,20.9393921,14.5008545c1.3164673,0.6905518,1.9335022,2.3814697,1.1489868,3.7322998
				c-0.690567,1.3164063-2.3815002,1.9334717-3.7322388,1.1490479c-8.5057068-4.3477783-16.6356506-8.8326416-22.5897217-15.8146973
				c-7.160141-8.2451172-9.6156464-19.0584717-6.3101501-27.5032959c2.8624878-7.3250732,9.1539612-11.9626465,13.892868-14.4370117
				c4.5510712-2.4058838,9.5045471-4.0004883,14.2701416-5.5266113c1.1273041-0.411377,2.2888489-0.7287598,3.5101166-1.1744385
				c18.8999481-6.2578125,36.3780365-15.8289795,51.9048309-28.4139404
				c1.9803467-1.5742188,4.0204163-3.2766113,5.9664612-4.9448242c11.1560059-9.3931885,22.7131958-19.145752,37.4150696-20.5717773
				c6.7828369-0.6655273,13.3969727,0.5404053,19.7292175,1.848999c10.972229,2.0638428,23.3117676,4.3740234,33.0768738,11.8814697
				C388.7891541,1830.7871094,388.7891541,1830.7871094,388.7891541,1830.7871094z"/>
		</g>
		<g>
			<path fill="#333333" d="M325.5466919,1820.5454102c0.9407043,0.8276367,1.2924194,2.083252,0.7554321,3.2373047
				c-0.65625,1.4102783-2.2532654,1.993042-3.6637268,1.336792l-27.0886841-12.6826172
				c-13.3349304-6.2049561-27.0886841-12.6826172-40.7054138-18.78479
				c-6.1202698-2.7697754-12.1974182-5.1296387-17.7323608-3.9615479c-5.1248779,1.125-9.9132996,5.2141113-14.6723785,12.5925293
				c-13.1170349,20.6473389-17.0263214,46.9830322-10.5753937,70.4963379l0.3859558,1.3494873
				c1.7241516,6.1835938,3.6628418,13.2469482,0.2608185,19.3851318c-0.3325806,0.5471191-0.1344757,1.96521,0.0546875,3.0670166
				l0.0089111,0.3161621c0.2323608,1.5119629-0.8339539,2.9655762-2.3802032,3.1040039
				c-1.5119781,0.2322998-2.9655762-0.8341064-3.1039886-2.380249l-0.0089111-0.3161621
				c-0.241272-1.828125-0.594223-4.2540283,0.6078796-6.5023193c2.2849884-4.2402344,0.7664948-9.8602295-0.777359-15.2580566
				l-0.3859558-1.3494873c-6.9054718-25.0506592-2.6306-53.0098877,11.177002-74.9737549
				c5.5436096-8.729248,11.4161224-13.6397705,18.1469269-15.03125c7.2005005-1.5629883,14.1408844,1.1204834,21.1587067,4.3079834
				c13.7106934,6.0678711,27.464447,12.5456543,40.7993774,18.7504883l27.1826782,12.6484375
				C325.256012,1820.3321533,325.4184875,1820.4857178,325.5466919,1820.5454102z"/>
		</g>
		<g>
			<path fill="#333333" d="M318.3297119,1822.6466064c0.9407043,0.8277588,1.3266907,2.177124,0.7897034,3.3311768
				c-0.6562805,1.4104004-2.2532654,1.9931641-3.6637268,1.3369141
				c-12.2494507-5.855835-25.3532715-11.7192383-39.1793823-14.019165
				c-14.8772278-2.5550537-28.7323456-0.2669678-39.1140442,6.2889404
				c-3.8845673,2.4819336-6.8119507,5.2532959-8.6538696,8.3737793c-2.0209351,3.505127-2.7342682,7.3847656-1.81633,10.7755127
				c0.8836823,3.296875,3.476059,6.6088867,7.3747101,9.1248779c7.2844849,4.793335,17.2652435,6.473877,28.1307373,4.7445068
				c10.0454407-1.6429443,19.5753479-5.8656006,28.8577271-9.8914795c1.3748474-0.6080322,3.0074158,0.0736084,3.6155701,1.4483643
				c0.6080933,1.3748779-0.0734863,3.0074463-1.4483337,3.6156006c-9.5299683,4.2225342-19.4699402,8.4884033-30.2072144,10.2774658
				c-12.2492676,2.0212402-23.6315308,0.0006104-32.0446014-5.5518799
				c-3.5140076-2.3370361-8.0550537-6.3217773-9.6167297-12.3518066
				c-1.3039093-4.7402344-0.3188934-10.2092285,2.4268494-14.9368896
				c2.2341766-3.7958984,5.7759552-7.2172852,10.4374542-10.1955566c11.5000763-7.2834473,26.7389832-9.8634033,42.983429-7.0621338
				c14.4925232,2.3760986,28.0153503,8.5123291,40.6151733,14.4532471
				C317.9450378,1822.4676514,318.0733032,1822.5272217,318.3297119,1822.6466064z"/>
		</g>
		<g>
			<path fill="#333333" d="M258.8664551,1853.3928223c0.4874878,0.4608154,0.9153748,1.0499268,0.9674072,1.776001
				c0.2323608,1.5119629-0.8682251,2.871582-2.3802185,3.1038818c-1.1362,0.0952148-2.2380981,0.2844238-3.3399658,0.4737549
				l-0.3160858,0.0089111c-2.3320313,0.3186035-4.3226013,0.4063721-6.099884,0.2032471
				c-6.9212799-0.8808594-14.2246246,0.4002686-20.5262604,3.5513916s-11.5673523,8.2659912-15.0976257,14.3443604
				c-0.7845154,1.3508301-2.4157715,1.8395996-3.7665558,1.0550537c-1.3507385-0.7844238-1.7456055-2.4500732-1.055069-3.7666016
				c4.0418854-7.0101318,10.2037964-12.8779297,17.3763123-16.5596924
				c7.2067719-3.5877686,15.6120148-5.0581055,23.6441498-4.050293c1.332962,0.1523438,2.8195343,0.1420898,4.6133118-0.1929932
				l0.3160858-0.0089111c1.1958466-0.2235107,2.3320313-0.3187256,3.5278931-0.5422363
				C257.6096191,1852.5739746,258.3446655,1852.8380127,258.8664551,1853.3928223z"/>
		</g>
		<g>
			<path fill="#333333" d="M260.2679443,1853.7329102c0.4189453,0.2729492,0.7185669,0.8023682,0.8899536,1.2719727
				c0.4202271,1.4434814-0.3896484,3.0163574-1.8330383,3.4366455l-1.1615906,0.3173828
				c-1.4433899,0.4202881-3.0163422-0.3896484-3.4365692-1.8330078c-0.4202423-1.4434814,0.3896637-3.0163574,1.8330536-3.4366455
				l1.1615601-0.3173828C258.6950684,1852.9230957,259.617981,1853.1185303,260.2679443,1853.7329102z"/>
		</g>
		<g>
			<path fill="#333333" d="M515.9560547,1995.7929688c3.3693848,2.8156738,4.6313477,8.3162842,5.7384644,12.80896
				c0.2920532,1.3837891,0.6437378,2.6391602,0.8925171,3.612915l5.8554077,18.0887451
				c1.3203735,4.2020264,2.8032837,8.5576172,2.9367065,13.2990723c0.232605,9.3892822-4.7130737,18.0067139-8.6953125,24.8885498
				c-4.5280762,7.7199707-9.1411133,15.7902832-15.695343,22.3334961
				c-7.5697632,7.5522461-16.655365,11.8256836-25.480835,11.8525391
				c-10.7220764,0.0803223-20.5291138-6.666748-23.1965637-16.019043
				c-2.4186096-8.378418,0.8868713-16.8232422,4.4920349-24.7385254c3.0085144-6.6330566,5.9827576-13.3603516,8.9658813-19.7713623
				c4.6193542-10.0950928,9.4177856-20.5748291,16.1826172-29.7496338
				c5.6984863-7.7213135,14.0349426-17.2565918,21.4068909-18.3498535c2.3320313-0.3187256,4.5282593,0.1572266,6.3068848,1.5307617
				C515.7935791,1995.6394043,515.8278198,1995.7332764,515.9560547,1995.7929688z M523.2071533,2032.0010986l-5.8554077-18.0887451
				c-0.4113159-1.1273193-0.7033691-2.5109863-1.0639038-4.0826416c-0.8582764-3.519043-2.0085449-8.4217529-4.0436401-9.9145508
				c-0.5814209-0.4265137-1.2821655-0.5965576-2.196228-0.4759521c-4.0318909,0.6196289-10.8171387,6.8212891-17.7355957,16.1585693
				c-6.4918823,8.7558594-11.0770264,18.9449463-15.5770874,28.7835693
				c-2.9831238,6.4108887-5.9916077,13.0441895-8.9658508,19.7712402
				c-3.3068237,7.2741699-6.0499573,14.3427734-4.1887207,20.9020996
				c1.9640808,6.8413086,9.6078491,12.0358887,17.8950806,11.9924316
				c7.3389587-0.0166016,15.0497131-3.6818848,21.6038818-10.2248535
				c6.0933838-6.0556641,10.5274353-13.7414551,14.8422546-21.1706543
				c3.6838989-6.2407227,8.1776733-14.0546875,7.9552612-21.9572754
				C525.7362061,2039.807251,524.484375,2035.7930908,523.2071533,2032.0010986L523.2071533,2032.0010986z"/>
		</g>
		<g>
			<path fill="#333333" d="M478.0423279,1890.7235107c5.0539246,4.2233887,9.3157654,10.6519775,12.5887451,19.0380859
				c1.1565552,2.8779297,2.1596069,5.918335,3.1283264,8.8647461c2.0059509,6.0809326,4.0030518,11.8455811,7.0931091,17.1049805
				c1.6948242,2.8944092,3.7311707,5.5577393,5.9300232,8.3746338c2.0020752,2.5693359,4.0384216,5.2327881,5.7929077,7.9989014
				c8.6444092,13.7712402,10.1593628,31.6340332,3.9393311,46.6777344
				c-0.5623779,1.3760986-2.2190552,2.0870361-3.5952148,1.5246582c-1.3761292-0.5623779-2.0871277-2.2189941-1.5247803-3.5950928
				c5.5383911-13.4110107,4.0767822-29.3774414-3.6090698-41.6887207c-1.59198-2.6125488-3.5254822-4.9941406-5.4336243-7.5977783
				c-2.198822-2.8168945-4.4319763-5.7277832-6.3236084-8.869751c-3.4836121-5.7543945-5.5924377-12.1171875-7.5984192-18.197876
				c-0.9344482-2.852417-1.9031067-5.7989502-3.0254517-8.5828857
				c-3.9928284-10.3588867-9.3997498-17.0083008-15.9986572-19.9228516c-1.4104004-0.65625-1.9931641-2.2532959-1.4308167-3.6293945
				c0.6562805-1.4104004,2.2532959-1.9931641,3.6294861-1.4307861
				C473.8783569,1887.7720947,476.0669556,1889.102417,478.0423279,1890.7235107z"/>
		</g>
		<g>
			<path fill="#333333" d="M515.1195068,1996.4176025c0.0343018,0.0938721,0.1282349,0.0596924,0.1624756,0.1535645
				c1.1375122,1.0751953,1.1223145,2.7839355,0.1409912,3.887085c-0.0596313,0.1281738-0.1536255,0.1624756-0.2132568,0.2906494
				c0.4354248-0.2652588,0.9051514-0.4366455,1.5030518-0.5484619c1.4865723-0.0101318,2.7522583,1.1247559,2.890686,2.6710205
				c0.2744141,8.6286621-2.5270996,16.9959717-4.9452515,24.3717041
				c-2.9208984,8.6237793-5.8328247,17.5635986-10.4116211,25.7277832
				c-1.0828247,1.9919434-2.3534851,4.0522461-4.2056885,5.6862793c-2.2189941,2.0869141-4.9433289,3.0810547-7.6346436,2.9985352
				c-4.6564941-0.217041-8.6936035-4.2790527-9.4084167-9.4472656c-0.6374207-4.6639404,1.1689453-9.0488281,2.669342-11.9383545
				c2.5489502-4.9752197,5.9955444-9.5327148,9.3227234-13.8338623c4.1802979-5.4639893,8.1473083-10.6373291,10.4728088-16.8083496
				c0.3833618-0.9914551,0.67276-1.9486084,1.0218506-3.0340576c1.1665344-3.5128174,2.2988281-7.1193848,5.0637512-10.0443115
				C512.3760986,1995.6090088,514.0162964,1995.4362793,515.1195068,1996.4176025z M490.3318787,2055.3874512
				c0.6157227,0.5202637,1.3850708,0.878418,2.1454773,0.920166c1.1704712-0.0012207,2.4856567-0.4812012,3.5951843-1.5246582
				c1.2973938-1.1120605,2.2012024-2.7194824,3.105072-4.326416c4.3058777-7.7454834,7.1924744-16.4630127,9.9940186-24.8303223
				c2.4524231-7.2818604,4.8959961-14.8798828,4.6824951-22.4663086c-0.0089722-0.3161621,0.0164795-0.5383301,0.1015015-0.8886719
				c-1.057373,1.7696533-1.7556152,3.9404297-2.5133972,6.239502c-0.3490906,1.0854492-0.6981506,2.1708984-1.1412048,3.2905273
				c-2.6238403,6.8121338-7.017395,12.5668945-11.2573242,18.1590576c-3.327179,4.3011475-6.500824,8.4396973-8.7769165,12.9959717
				c-1.7987976,3.5305176-2.4194946,6.2053223-2.0664978,8.6313477
				C488.4580383,2052.8776855,489.2286377,2054.4060059,490.3318787,2055.3874512z"/>
		</g>
		<g>
			<path fill="#333333" d="M518.4210815,1984.4614258c1.034668,0.793457,1.2670288,2.3054199,0.6361694,3.4936523
				c-0.7845459,1.3508301-2.4500732,1.7457275-3.7666016,1.0550537c-2.7015381-1.5690918-4.8114014-1.2249756-8.9283447-0.2550049
				s-7.8478699,3.2895508-11.3566589,5.6343994c-21.7358093,14.5311279-38.8161316,35.9859619-48.2211304,60.3883057
				c-1.822876,4.9230957-4.0455322,11.3762207-3.986969,17.9545898c-0.0099792,6.390625,2.1749878,12.0866699,5.8527832,15.7478027
				c4.0967407,3.934082,10.335083,5.2770996,14.7325134,3.0336914c1.3405762-0.7019043,3.0328369-0.1484375,3.6752014,1.3203125
				c0.7020874,1.3405762,0.1486206,3.0327148-1.3201599,3.6750488c-6.5834351,3.2539063-15.2998962,1.5378418-21.0558777-4.026123
				c-4.8153381-4.7363281-7.5487366-11.9355469-7.5146484-19.71875c0.0429077-7.467041,2.3417969-14.5864258,4.437561-19.9284668
				c9.7540894-25.487915,27.6963806-47.7895508,50.3627014-62.9796143
				c3.8502808-2.5759277,8.1106262-5.1949463,13.1072998-6.3796387c4.5866394-1.1413574,8.4902649-1.8206787,12.9615173,0.8057861
				C518.2243042,1984.2138672,518.352478,1984.2735596,518.4210815,1984.4614258z"/>
		</g>
		<g>
			<path fill="#333333" d="M445.8330688,1944.5241699c0.9064331,0.7336426,1.2238464,1.8952637,0.815094,3.1088867
				c-0.085022,0.3503418-0.2043762,0.6068115-0.2893677,0.9571533c-0.1104126,0.5726318-0.3148193,1.1794434-0.67276,1.9487305
				c-12.4503479,28.6005859-28.5848083,55.5650635-47.951416,80.0897217l-0.793396,1.0345459
				c-2.8410339,3.5915527-5.5626831,6.9265137-7.4808044,10.713501c-1.619751,3.145752-3.4172668,7.8466797-2.5830383,12.7583008
				c0.90271,5.0996094,4.5221863,10.0593262,10.952301,14.8452148
				c12.5351868,9.2641602,28.5854797,14.1589355,44.2192078,13.2443848
				c1.5462646-0.1384277,2.8462219,1.0905762,2.8564453,2.5771484c0.1383972,1.5461426-1.0903931,2.8461914-2.5769958,2.8564453
				c-16.8981628,0.9499512-34.2560425-4.3190918-47.8258972-14.3769531
				c-7.5929871-5.638916-11.9741516-11.810791-13.0749817-18.3283691
				c-0.8684387-5.0056152,0.2701111-10.637207,3.1517029-16.1594238c2.2506409-4.3342285,5.1513062-8.053833,8.0863037-11.6795654
				l0.793396-1.0345459c19.0594482-24.199585,34.9552307-50.651123,47.226593-78.8671875
				c0.085022-0.3503418,0.2640381-0.7349854,0.4087219-1.213623s0.1954651-0.9229736,0.4341736-1.435791
				c0.5280762-1.4699707,2.0907898-2.1467285,3.5608826-1.6187744
				C445.3798828,1944.1572266,445.6706238,1944.3706055,445.8330688,1944.5241699z"/>
		</g>
		<g>
			<path fill="#333333" d="M385.1851196,2054.581543c1.034668,0.793457,1.2670288,2.3054199,0.6361389,3.4936523
				c-4.5534363,7.9421387-13.4841309,13.2233887-22.719696,13.293457
				c-5.5019836,0.0915527-10.8008423-1.5939941-15.2454224-3.2722168c-4.444519-1.6782227-9.1543579-3.791748-12.2685547-7.6586914
				c-0.9496155-1.1437988-0.8404846-2.8867188,0.3972473-3.8706055c1.1437683-0.949707,2.8867798-0.8405762,3.8706665,0.3972168
				c2.3270569,2.8764648,6.2333069,4.5383301,9.9428101,5.9523926c3.9659424,1.5334473,8.65802,3.0148926,13.305603,2.9155273
				c7.3046875-0.1105957,14.3400574-4.1679688,17.9896545-10.5029297c0.7845154-1.3505859,2.4500732-1.7456055,3.7666016-1.0549316
				C384.8944092,2054.3684082,385.0226135,2054.4282227,385.1851196,2054.581543z"/>
		</g>
	</g>
	<g>
		<path fill="#333333" d="M275.5668945,1820.6865234c0.9064331,0.7337646,1.2581482,1.9892578,0.8151245,3.1088867
			c-0.5623779,1.3760986-2.0907898,2.1468506-3.5608521,1.6187744c-5.3421021-2.0958252-10.2981873-2.842041-14.5522156-2.2479248
			c-4.9801788,0.6463623-9.2747803,3.1715088-11.4493408,6.8391113c-0.7845154,1.3508301-2.4500427,1.7457275-3.800827,0.9610596
			c-1.3507385-0.7844238-1.7456207-2.4500732-0.9611206-3.8007813c3.0529938-5.0526123,8.7732086-8.630249,15.4875031-9.4835205
			c5.1680603-0.7148438,11.0470886,0.2269287,17.2524109,2.6463623
			C275.0197754,1820.3538818,275.3104553,1820.5671387,275.5668945,1820.6865234z"/>
	</g>
	<g>
		<path fill="#333333" d="M271.6849976,1871.6020508c0.4189453,0.2729492,0.6842957,0.708374,0.8899536,1.2719727
			c0.4202271,1.4433594-0.2957153,2.9819336-1.704834,3.4962158l-17.3029785,5.6750488
			c-5.3292542,1.7318115-10.8464203,3.5321045-15.6703949,6.3568115
			c-3.6116638,2.0629883-8.4432068,5.7420654-10.8208008,11.1871338c-0.5623474,1.3760986-2.2190094,2.0870361-3.629425,1.4307861
			c-1.3761444-0.5623779-2.0871277-2.2191162-1.4308319-3.6295166c2.3775787-5.4449463,6.8321075-10.1573486,13.0563049-13.8123779
			c5.353363-3.1243896,11.1523285-5.0275879,16.7634277-6.8620605l17.3029785-5.6751709
			C270.018158,1870.8262939,271.0692749,1871.0814209,271.6849976,1871.6020508z"/>
	</g>
	<g>
		<path fill="#333333" d="M289.7240601,1859.4841309c0.1282043,0.0596924,0.290741,0.2133789,0.3592834,0.401123
			c0.9496155,1.1437988,0.8404846,2.8868408-0.3972473,3.8707275l-8.3137207,6.97229
			c-1.1437683,0.949585-2.8867798,0.8404541-3.8706665-0.3972168c-0.9838867-1.237793-0.8404541-2.8868408,0.3972473-3.8707275
			l8.3137207-6.972168C287.296814,1858.666748,288.6894226,1858.6907959,289.7240601,1859.4841309z"/>
	</g>
	<g>
		<path fill="#333333" d="M392.8381653,1853.2607422c0.6157227,0.5203857,1.018158,1.331665,1.0105896,2.1860352
			c-0.0837097,1.520874-1.3468628,2.7269287-2.8334045,2.7370605c-15.669281-0.3498535-31.0820007,7.2966309-40.346344,19.8319092
			c-0.9469604,1.1971436-2.6468506,1.4980469-3.8439941,0.5510254c-1.1971741-0.9470215-1.4980774-2.6468506-0.5510864-3.8439941
			c10.3306885-13.9888916,27.4596863-22.4746094,44.8720093-22.015625
			C391.7781372,1852.6894531,392.3849792,1852.8937988,392.8381653,1853.2607422z"/>
	</g>
	<g>
		<path fill="#333333" d="M349.5704651,1996.3625488L349.5704651,1996.3625488
			c1.2314148,1.0410156,1.3101807,2.7154541,0.3631897,3.9125977c-7.0733337,8.3293457-15.925293,15.2851563-25.5910339,20.3024902
			c-0.4354248,0.2652588-0.8111877,0.4024658-1.2466431,0.6677246c-2.2456665,1.138916-4.3974304,2.2432861-6.0959778,3.7147217
			c-1.5106201,1.402832-2.9692078,3.5318604-2.5908508,5.7355957c0.2323914,1.5119629-0.7400208,2.9312744-2.2520142,3.1636963
			c-1.5119629,0.2322998-2.9312439-0.7399902-3.1636047-2.2519531c-0.6107178-3.7158203,1.0166321-7.7160645,4.2854919-10.7183838
			c2.2532959-1.9931641,4.7465515-3.3288574,7.2740173-4.5704346c0.4354553-0.2653809,0.8112183-0.4024658,1.2466431-0.6677246
			c9.0424194-4.6834717,17.3053589-11.2114258,23.9522095-18.9592285
			C346.6988525,1995.4943848,348.4672546,1995.3813477,349.5704651,1996.3625488z"/>
	</g>
	<g>
		<path fill="#333333" d="M367.611969,1978.7086182c1.1971741,0.9470215,1.3101807,2.7154541,0.3632202,3.9125977
			l-8.4126587,10.2019043c-0.946991,1.1971436-2.7153931,1.3101807-3.9125671,0.3631592
			c-1.1971436-0.9471436-1.3101501-2.7154541-0.3631897-3.9125977l8.4126587-10.2019043
			C364.6464233,1977.8746338,366.3804932,1977.6677246,367.611969,1978.7086182z"/>
	</g>
	<g>
		<path fill="#333333" d="M406.4281616,2034.9078369c0.1624756,0.1535645,0.290741,0.2132568,0.3592834,0.401123
			c0.9496155,1.1437988,0.7465515,2.9211426-0.4911499,3.9050293c-4.4558411,3.5419922-6.550293,10.0543213-5.0064087,15.4522705
			c1.578064,5.4916992,6.7945557,9.8688965,12.4425049,10.4692383c1.5551453,0.1774902,2.5733643,1.5092773,2.3956299,3.0644531
			c-0.1777039,1.5551758-1.5093384,2.5732422-3.0645142,2.3955078c-7.8695679-0.854248-14.9674683-6.8864746-17.1118469-14.5136719
			c-2.1444092-7.6269531,0.6140137-16.4042969,6.8965454-21.3579102
			C404.000885,2034.090332,405.4874878,2034.0802002,406.4281616,2034.9078369z"/>
	</g>
	<g>
		<path fill="#333333" d="M476.0491028,2064.963623c1.0689392,0.887207,1.3013306,2.3991699,0.5764465,3.6218262
			c-2.0298157,3.1889648-2.4181519,7.3757324-0.9619141,10.782959c1.4307861,3.6293945,4.7747498,6.6672363,7.7250977,9.2099609
			c1.103241,0.9814453,1.2162476,2.7497559,0.2349548,3.8527832c-0.9812927,1.1032715-2.7496948,1.2163086-3.8529053,0.2351074
			c-3.181427-2.8842773-7.2349548-6.4082031-9.145752-11.3527832c-2.0732117-5.0981445-1.5160522-11.15625,1.4518433-15.8586426
			c0.8187866-1.2568359,2.484375-1.6516113,3.8351135-0.8671875
			C475.7926941,2064.8442383,475.9208679,2064.9038086,476.0491028,2064.963623z"/>
	</g>
</g>
<g>
	<path fill="#333333" d="M804.1438599,2390.5935059c-58.4260864,16.2756348-101.3220215,45.5090332-95.8104858,65.2944336
		c5.5115356,19.7851563,57.3434448,22.6303711,115.7695923,6.3547363
		c58.4263916-16.2756348,101.3222046-45.5087891,95.8106079-65.2941895
		C914.4020386,2377.1633301,862.5702515,2374.3178711,804.1438599,2390.5935059z M889.7022095,2421.692627
		c-17.1170044,11.6647949-41.4771729,22.2490234-68.5931396,29.8027344
		c-27.1157837,7.5534668-53.4397583,11.0881348-74.1223145,9.9528809
		c-21.1575928-1.1611328-27.390564-6.7041016-27.9059448-8.5541992c-0.5154419-1.8503418,1.9541016-9.8173828,19.4641113-21.7502441
		c17.1168213-11.6650391,41.4769897-22.2492676,68.5928345-29.8027344
		c27.1159058-7.5537109,53.4398804-11.0883789,74.1225586-9.953125c21.1574097,1.1616211,27.390564,6.7041016,27.9059448,8.5544434
		C909.6817017,2401.7924805,907.2119751,2409.7597656,889.7022095,2421.692627z"/>
	<g>
		
			<ellipse transform="matrix(0.9733872 -0.2291668 0.2291668 0.9733872 -528.1647339 248.6053619)" fill="#333333" cx="806.3053589" cy="2398.3527832" rx="29.1340771" ry="29.1340237"/>
	</g>
	<g>
		<path fill="#333333" d="M805.9623413,2391.6560059l-6.569397-1.284668
			c3.8768311-19.8261719,16.6652832-37.6403809,34.2091675-47.6530762
			c9.0664673-5.1745605,19.9508057-8.6633301,32.3516846-10.3703613l0.9130249,6.6311035
			c-11.5513306,1.590332-21.6273804,4.8054199-29.9464111,9.5532227
			C821.0443726,2357.5932617,809.4706421,2373.7148438,805.9623413,2391.6560059z"/>
	</g>
	<g>
		<g>
			<path fill="#333333" d="M958.3433838,2484.3066406l-15.6929932-35.6730957
				c-29.0936279,17.6640625-67.7902222,33.6933594-109.696106,45.3669434
				c-41.9260254,11.6791992-83.3186646,17.9643555-117.3606567,17.8869629l5.0090942,38.6369629
				c35.4263306,0.8239746,78.9822388-5.423584,123.1699219-17.732666
				C887.9273682,2520.4916992,928.4567871,2503.3173828,958.3433838,2484.3066406z"/>
		</g>
		<g>
			<path fill="#333333" d="M857.5535889,2582.213623c46.8264771-13.0444336,89.6658936-31.5864258,120.8648682-52.2724609
				l-17.348938-39.4372559c-30.3469849,19.137207-71.1534424,36.3825684-115.5005493,48.736084
				c-44.378418,12.3625488-88.2104492,18.6948242-124.095459,18.0004883l5.5375977,42.7138672
				C764.4293213,2601.5390625,810.6765137,2595.2719727,857.5535889,2582.213623z"/>
		</g>
		<g>
			<path fill="#333333" d="M981.1497803,2536.1503906c-31.6844482,20.8085938-74.791626,39.4165039-121.7998657,52.5114746
				c-47.0571289,13.1086426-93.5673218,19.4606934-131.4663086,18.0227051l3.2247925,24.873291
				c0,0,52.0404663,16.9719238,138.2019043-7.0297852c86.1615601-24.001709,121.932312-65.4350586,121.932312-65.4350586
				L981.1497803,2536.1503906z"/>
		</g>
		<g>
			<path fill="#333333" d="M919.9134521,2396.9484863c5.5115356,19.7854004-37.3840942,49.0185547-95.8104858,65.2941895
				c-58.4262695,16.2756348-110.2579346,13.4304199-115.7694702-6.3549805l6.3909302,49.2961426
				c33.6032715,0.1923828,74.7088013-6.0087891,116.4335938-17.6318359
				c41.7027588-11.6169434,80.112854-27.5695801,108.7709961-45.1044922L919.9134521,2396.9484863z"/>
		</g>
	</g>
</g>
</svg>
