<?xml version="1.0" encoding="utf-8"?>
<!-- Generator: Adobe Illustrator 24.0.3, SVG Export Plug-In . SVG Version: 6.00 Build 0)  -->
<svg version="1.1" id="Слой_1" xmlns="http://www.w3.org/2000/svg" xmlns:xlink="http://www.w3.org/1999/xlink" x="0px" y="0px"
	 viewBox="0 0 1976.4000244 3801.3000488" style="enable-background:new 0 0 1976.4000244 3801.3000488;" xml:space="preserve">
<g>
	<path style="fill:#1C1C1A;" d="M1854.5,1622.5c0.8000488-100.3000488,3.8000488-200.9000244,2.5-301.1999512
		c-0.6999512-48.5999756-4.5-97.8000488-20.6999512-143.5C1819.2000732,1129.7000732,1776.5,1105.5,1761.2000732,1070.5
		c-23.6999512-54.2999878-22.8000488-146.5999756-31.5-205.5999756
		c-10.3000488-69.4000244-22.0999756-139.2000122-28.0999756-209.2000122
		c6.5-8.2999878,17.9000244-15.0999756,23.0999756-25.9000244C1731.5001221,615.5,1724.9000244,601,1717.0001221,588
		c3.8000488,0.2000122,7.8000488,0.5999756,12.8000488,1.0999756c11.8000488,1.2000122,18.1999512-12.7999878,16.3000488-23.5
		c-4.1999512-24.5999756-11.9000244-59.7000122-31.4000244-75.3999939c-27.6999512-22.3999939-84.0999756-13.7000122-116-14.5
		c-33.0999756-0.7999878-95.8000488-9.8999939-126.6999512,8.8999939c-24.0999756,14.6000061-33.6999512,51.7000122-39.8000488,79
		c-1.4000244,6.2999878,0.0999756,11.5,3,15.5c3.0999756,5.2999878,8.5,8.5999756,15.3000488,7.5999756
		c0.1999512,0,0.5,0,0.6999512-0.0999756c0.5999756-0.0999756,1.1999512,0.0999756,1.8000488-0.0999756
		c2.6999512-0.7999878,5.0999756-1.2000122,7.5999756-1.7000122c-6.3000488,15.0999756-14.0999756,32.4000244-7.1999512,47.2999878
		c3,6.5,8.1999512,12,12.9000244,17c2.8000488,3,5.6999512,5.9000244,8.5,8.9000244
		c0.1999512,0.2000122,0.5999756,0.7000122,1.0999756,1.4000244C1465.0002441,788.4000244,1440.800293,917,1420.800293,1044.5
		c-7.1999512,46-34.8000488,53.4000244-56.5999756,95.4000244
		c-25.5999756,49.3000488-33.9000244,107.9000244-36.0999756,163.9000244
		c-7.5999756,195.1999512-7.1999512,396-0.3000488,591.1999512
		c5.3000488,149.6999512,127.6999512,138.9000244,233.4000244,136.3000488
		c89-2.0999756,272.5999756,33.8000488,290.7000732-104.1999512C1864.8000488,1829.5999756,1853.6999512,1720.8000488,1854.5,1622.5
		z M1716.3000488,1016.5999756c-85.6999512,9.3000488-171.5,11-257.5,4.5C1470.2000732,948.5,1482.5,875.5,1493,802.2999878
		c64.1999512,7.9000244,127.5999756,2.7000122,191.6999512-4.5999756c8.4000244,57.7999878,18,115.5,26.8000488,172.8999634
		C1713.5999756,984.2000122,1714.8000488,1000.2000122,1716.3000488,1016.5999756z M1534.6999512,593
		c16-0.2999878,23.6999512-6,32.0999756-4.9000244c12.5999756,1.5999756,23.4000244,9,36.1999512,8.0999756
		c6.5999756-0.5,25.0999756-8.5,30.5999756-11.7999878c3.3000488,1.5999756,11.6999512,4.0999756,13.5999756,5.0999756
		c4.6999512,2.5,13.0999756,7.9000244,18.5999756,8.7000122c7.5999756,1,11.3000488-0.0999756,15-1.9000244
		c3.4000244,6.4000244,6.9000244,13,11.0999756,18c0.1999512,0.4000244,0.3000488,0.7000122,0.5,1.0999756
		c-0.5999756,0.9000244-1.3000488,1.7999878-1.6999512,2.2000122c-2,2.0999756-4.0999756,4.0999756-6.3000488,6.0999756
		c-0.4000244,0.0999756-0.8000488-0.0999756-1.3000488,0c-61.4000244,12.5-126.5,10.7000122-188.3000488,2.7999878
		c0,0,0,0-0.0999756,0c-3.0999756-3.2999878-6.3000488-6.4000244-9.3000488-8.9000244c0-0.2000122,0-0.2000122,0.0999756-0.4000244
		c0.5999756-1.9000244,1.1999512-3.7000122,1.8000488-5.5c2.9000244-8.4000244,6.3000488-16.5,9.1999512-24.9000244
		C1508.3000488,589.5,1519.9000244,593.2999878,1534.6999512,593z M1509.3000488,664.9000244
		c52.5999756,5.7000122,106.5999756,6,159.0999756-2c2.9000244,32.7999878,6.8000488,65.5,11.1999512,98.0999756
		c-60.5999756,6.7999878-120.6999512,11.2999878-181.5,4.5C1502.5999756,732,1506.4000244,698.4000244,1509.3000488,664.9000244z
		 M1598.6999512,512.9000244c23.5,0.5,56.4000244-3.1000061,78.9000244,4.0999756
		C1695,522.5,1702.9000244,534.0999756,1707.5,548.5999756c-6.3000488-0.7999878-12.4000244-1.0999756-17.5999756,0.5
		c-5.3000488,1.5999756-9.6999512,6.2999878-14.1999512,9.4000244c-1.5999756,1.0999756-2.4000244,2-3.1999512,2.7999878
		c-11-4-23.5999756-14.7999878-35.5-15.0999756c-12.4000244-0.2999878-32.5,13.0999756-38.5999756,13.2000122
		c-4.5,0.0999756-24.0999756-9.9000244-34.5-10.2999878c-11-0.4000244-29.4000244,8-35.0999756,7.5s-23.1999512-13-33.9000244-14.5
		c-5.4000244-0.7000122-11.3000488-0.2999878-17.4000244,0.5999756
		C1502.8000488,505.2999878,1552.5999756,512,1598.6999512,512.9000244z M1822.3000488,1425.3000488
		C1821.4000244,1538.5,1820.4000244,1651.8000488,1819.5,1765c-0.4000244,43.5999756,2.1999512,88.6999512-1.0999756,132.1999512
		c-6.4000244,85.3000488-75.3000488,93.6999512-144.6999512,94.5c-73.5,0.9000244-168.3000488,20.6999512-238.9000244-0.5999756
		c-71.6999512-21.5999756-73.0999756-70.4000244-73.0999756-132.9000244c0-179.4000244-4-359.3000488,0-538.5999756
		c0.6999512-30,2.4000244-59.6999512,8.4000244-89.0999756c11.4000244-56.6999512,41.4000244-83.8000488,69.6999512-127.1999512
		c8.5-13.0999756,11.6999512-29.0999756,13.9000244-45.5c89.0999756,7.0999756,178.0999756,5.4000244,266.9000244-4.5999756
		c2.0999756,13.5,5,26.1999512,9.5,36.9000244c2.1999512,5.4000244,2,10.0999756,5.5,15.3000488
		c15,22.1999512,37.4000244,25.3000488,53.3000488,50.4000244c13,20.5,19.9000244,45.5,25.3000488,69.5
		C1828.5,1289.5,1822.8000488,1359.9000244,1822.3000488,1425.3000488z"/>
	<path style="fill:#1C1C1A;" d="M1584.9000244,1298.1999512c-1.1999512,0-2.0999756,0.5-3.1999512,0.6999512
		c-0.5,0-0.8000488-0.1999512-1.3000488-0.0999756c-234.6999512,36.5-232.6999512,588.4000244,23,549.5
		C1848.1999512,1811.1999512,1835.3000488,1295.6999512,1584.9000244,1298.1999512z M1598.6999512,1809.8000488
		c-211.5999756,22.8000488-204.0999756-439.3000488-12.5-474.3000488
		C1794.3000488,1335.3000488,1799.5999756,1788.0999756,1598.6999512,1809.8000488z"/>
	<path style="fill:#1C1C1A;" d="M1433.8000488,1317.1999512C1440.2000732,1275.2999268,1457,1238.8999023,1484.5,1209.0999756
		c15.5-16.8000488-8.4000244-43.0999756-23.9000244-26.3000488c-31.4000244,34-52.1999512,76.8000488-59.5,124.5
		C1397.5999756,1330.6999512,1430.1999512,1340.6999512,1433.8000488,1317.1999512z"/>
	<path style="fill:#1C1C1A;" d="M1499.9000244,1169.9000244c21.8000488,0,21.8000488-37.1999512,0-37.1999512
		C1478.0999756,1132.8000488,1478,1169.9000244,1499.9000244,1169.9000244z"/>
</g>
<g>
	<path style="fill:#1C1C1A;" d="M954.2000122,3442.8000488c-70.2000122-15.8999023-145-26.6000977-212.6000366-51.5
		c-13.2999878-4.8999023-18.0999756,16.6000977-5,21.3999023c67.5999756,24.8000488,142.5,35.5,212.5999756,51.5
		C963.0999756,3467.3999023,968.0999756,3445.8999023,954.2000122,3442.8000488z"/>
	<path style="fill:#1C1C1A;" d="M1077.8000488,3141.3999023c78.5999756-112.6000977,141-240.5,135.1999512-381.8000488
		c-0.1999512-3.8000488-1.9000244-6.3999023-4.1999512-8.1000977c-1.0999756-1-2.5999756-1.6999512-4.3000488-2.1999512
		c-2-0.6000977-4-1.1000977-5.9000244-1.6000977c10.3000488-42.3999023-9.1999512-84.8999023-56.1999512-84.1000977
		c-0.4000244-66.1000977-91.5999756-96.3999023-130.0999756-43.8000488
		c-28.4000244-34.3000488-92.7000122-38.8000488-117.9000244,0.1000977c-31.0999756-13.3000488-63.7999878,9.3999023-62.2999878,43
		c-1.4000244-0.3000488-2.7999878-0.6000977-4.2000122-0.8999023c-1.9000244-0.3999023-3.5999756-0.3000488-5.0999756,0.1000977
		c-2.7000122,0.5-5.2999878,2.1999512-7,5.3999023c-67.4000244,124.1999512-67.5999756,266.6000977-46.5999756,402.3000488
		c12.4000244,80,4.2000122,138.5-31.2999878,212.3000488C715,3329.5,687,3373,680,3426.3999023
		c-0.7000122,5.1000977,1,9.5,5.5,12.1999512c45.9000244,27.6999512,105.5,33.6999512,157.0999756,46.1000977
		c47.9000244,11.5,98.4000244,27.3999023,148,24.6999512c5.2000122-0.3000488,8.7000122-3.8000488,10.2999878-8.5
		c16.4000244-48.6999512,11.7999878-97.8999023,11.5-148.1999512
		C1011.7999878,3268.5,1030.0999756,3209.6999512,1077.8000488,3141.3999023z M831.4000244,2685.3999023
		c119.7999878,26.1000977,241.4000244,50.3999023,359.5,83.1000977c0.8000488,39-4,78.5-13.1999512,117.1999512
		c-128.0999756-32.8999023-260.4000244-47.1000977-386.4000244-88
		C800.2000122,2758.6000977,813.2999878,2720.5,831.4000244,2685.3999023z M891.2999878,2643
		c5,3.8999023,14.2999878,4.3999023,17.2000122-2.8000488c25.5-35.1999512,56.5-33.6000977,93.2999878,5
		c2.7000122,8.1000977,16.5,11.3000488,20.2000122,2c19.1999512-48.3000488,110.1999512-41.6999512,97.5999756,26
		c-1.1999512,6.3000488,3.6999512,14.6999512,11.1999512,13.5c40,0.1000977,48.3000488,23.5,45.5,55
		c-105.5-28.3000488-213.5-50.5-320.2999878-73.6000977C854,2638.3000488,873.0999756,2631,891.2999878,2643z
		 M952.5999756,3485.8000488c-35.2999878-4.6999512-70.5-14.3999023-105-22.6999512
		c-36.7000122-8.8000488-75.0999756-15.5-111.2999878-26.3000488C701.5,3426.5,700.2999878,3423.6000977,709.8999634,3393
		c6.5-20.8000488,15.5-41,25.7000122-60.1999512c26.2999878-49.8000488,56.0999756-103.1999512,63-160.1000977
		c9.2000122-75.8999023-21-153.6000977-22-229.6000977c-0.5-40.6999512,2.7999878-82.6000977,10.2999878-123.6999512
		c125.7000122,40.6999512,257.6000366,55,385.2999878,87.6999512c-11.3000488,40.8000488-27,80.3999023-45.5999756,117.1999512
		c-34.4000244,67.8999023-95.5999756,124.3000488-120.7000122,196.5
		c-18.7999878,54.1999512-15.5999756,115.1000977-13.7999878,171.5c0.7000122,21.8000488-0.0999756,43.8000488-3.4000244,65.3999023
		C984.2999878,3486.6000977,985.0999756,3490.1999512,952.5999756,3485.8000488z"/>
	<path style="fill:#1C1C1A;" d="M1035.5999756,3103.6999512c4.5999756-9.5,16.9000244-16.6000977,23.8000488-24.8999023
		c6.6999512-8.1000977,12.9000244-16.6999512,18.4000244-25.6999512c13.1999512-21.3000488,22.9000244-44.5,32.5999756-67.5
		c5.5-13-13.9000244-23.5-19.4000244-10.5c-9.6999512,23-19.4000244,46.1999512-32.5999756,67.5
		c-6.6999512,10.8000488-14.3000488,21.1000977-23.1999512,30.1999512
		c-6.5999756,6.8000488-14.7000122,11.6999512-18.9000244,20.3000488
		C1010.0999756,3106,1029.4000244,3116.5,1035.5999756,3103.6999512z"/>
	<path style="fill:#1C1C1A;" d="M1111.3000488,2945.8000488c13.8000488,3.1999512,18.8000488-18.1999512,5-21.3999023
		C1102.5,2921.1999512,1097.5,2942.6000977,1111.3000488,2945.8000488z"/>
</g>
<g>
	<path style="fill:#1C1C1A;" d="M1678.8000488,3519.5c-69.0999756,19.8999023-139.8000488,46.6999512-211,57.5
		c-14,2.1000977-7.8000488,23.3000488,6,21.1999512c71.1999512-10.8999023,141.9000244-37.6000977,211-57.5
		C1698.4000244,3536.6999512,1692.4000244,3515.5,1678.8000488,3519.5z"/>
	<path style="fill:#1C1C1A;" d="M1641.5,3195.8999023c14.5-136.6000977,7.4000244-278.6999512-65.9000244-399.6000977
		c-2-3.1999512-4.6999512-4.6999512-7.5999756-5c-1.5-0.3000488-3.0999756-0.3000488-4.8000488,0.1000977c-2,0.5-4,1-6,1.5
		c-11.4000244-42.1000977-49-69.8999023-89.8000488-46.5c-32.1999512-57.6999512-126.6999512-40.1999512-135.0999756,24.5
		c-41.4000244-16.3000488-99.9000244,10.8000488-103.1999512,57c-33.6999512,3.3999023-51.3000488,39-33.8000488,67.6999512
		c-1.4000244,0.3999023-2.6999512,0.8000488-4.0999756,1.1999512c-1.9000244,0.6000977-3.3000488,1.5-4.5,2.6000977
		c-2.0999756,1.8000488-3.5999756,4.5-3.5999756,8.1000977C1184,3048.8000488,1252.5,3173.6000977,1336.5,3282.3000488
		c49.5,64.1000977,70.5,119.3000488,75.0999756,201c2.9000244,52.5-0.5999756,104.1000977,19,154.1999512
		c1.9000244,4.8000488,5.4000244,7.8000488,10.6999512,8c53.5999756,2.1999512,108.6999512-21.3999023,159.8000488-35.5
		c47.4000244-13.1000977,99.4000244-23.5,141.5-49.8000488c4.4000244-2.8000488,5.8000488-7.5,4.9000244-12.3999023
		c-9.0999756-50.6000977-36.9000244-91.5-61.5-135.3999023
		C1645.0999756,3339.1000977,1632.6999512,3278.6999512,1641.5,3195.8999023z M1205.5999756,2915.3999023
		c117.5-34.8999023,235.8000488-72.3000488,355-100.6999512c19.5999756,33.8000488,34.4000244,70.6999512,45.0999756,109
		c-128.0999756,33.1000977-250.8000488,84.5-380.9000244,109.5
		C1213.5999756,2994.6000977,1206.6999512,2954.8999023,1205.5999756,2915.3999023z M1237.5999756,2849.3999023
		c6.1999512,1,14.5999756-3,13.8000488-10.6999512C1256.7000732,2795.5998535,1284.7000732,2782,1335.5,2798.0998535
		c6.3000488,5.8000488,19.9000244,1.8999023,18.5999756-8c-6.5-51.6000977,76.4000244-89.6999512,98-24.3000488
		c2,6.1000977,10.3000488,11.1000977,16.3000488,6.3999023c35.0999756-19.1999512,53.6999512-2.6999512,66.4000244,26.1999512
		c-106.0999756,26.1000977-211.4000244,58.8999023-316,90.1999512
		C1202.6999512,2863.3000488,1215.9000244,2847.6000977,1237.5999756,2849.3999023z M1698.0999756,3558
		c-33.1999512,12.8999023-68.6999512,21.3999023-103,30.8000488C1558.6999512,3598.9001465,1521.7999268,3611.5,1485,3619.5
		c-35.5,7.6999512-37.9000244,5.8000488-44.3000488-25.6000977c-4.4000244-21.3999023-6.1999512-43.3000488-6.5999756-65.1000977
		c-1-56.3000488-0.5999756-117.3999023-22.0999756-170.6999512c-28.5-70.8999023-92.5-124.3999023-130.0999756-190.5
		c-20.0999756-35.3999023-37.4000244-73.6999512-50.6999512-113.3000488
		c129.6999512-25,252.0999756-76.1999512,379.7999268-109.1999512
		c9.8000488,41.1999512,15.1999512,83.3999023,16.5999756,124.6000977c2.6999512,76.1000977-23.8000488,155-10.9000244,230.3999023
		c9.6999512,56.6000977,41.9000244,108.3999023,70.6999512,156.8999023c11.0999756,18.8000488,21,38.3999023,28.5,58.8999023
		C1726.1999512,3543.3000488,1728.6999512,3546.1000977,1698.0999756,3558z"/>
	<path style="fill:#1C1C1A;" d="M1586.4000244,3183.1999512c-0.5-10.6000977,6.8000488-22.6999512,8.8000488-33.1999512
		c2-10.3000488,3.1999512-20.8999023,3.6999512-31.3999023c1.3000488-25-1.4000244-50-4-74.8000488
		c-1.5-14-23.5-13.8999023-22,0.1999512c2.5999756,24.8000488,5.3000488,49.8999023,4,74.8000488
		C1576.2000732,3131.5,1574.5,3144.1999512,1571.2000732,3156.5c-2.5,9.1999512-7.3000488,17.3000488-6.8000488,26.8999023
		C1565.0999756,3197.5,1587.0999756,3197.3999023,1586.4000244,3183.1999512z"/>
	<path style="fill:#1C1C1A;" d="M1576.5,3008.3999023c13.5999756-3.8999023,7.6999512-25-6-21.1999512
		C1556.9000244,2991.1000977,1562.8000488,3012.3000488,1576.5,3008.3999023z"/>
</g>
</svg>
