<?xml version="1.0" encoding="utf-8"?>
<!-- Generator: Adobe Illustrator 23.1.0, SVG Export Plug-In . SVG Version: 6.00 Build 0)  -->
<svg version="1.1" id="Слой_1" opacity="0.5" xmlns="http://www.w3.org/2000/svg" xmlns:xlink="http://www.w3.org/1999/xlink"
	 x="0px" y="0px" viewBox="0 0 700 1746.9" style="enable-background:new 0 0 700 1746.9;" xml:space="preserve">
<style type="text/css">
	.st0{fill:#333333;}
	.st1{display:none;fill:#333333;}
</style>
<g>
	<g>
		<g>
			<g>
				<g>
					<g>
						<path class="st0" d="M300.9,236.1l-6.5-36.3c0.4-0.1,0.8-0.2,1.2-0.3l0.4-0.1c0.4-0.1,0.9-0.2,1.3-0.3
							c0.8-0.2,1.6-0.4,2.3-0.7c2.4-0.9,4.7-2.3,7-4.4c2.9-2.7,5.1-6.1,6.3-10.1c1.9-6.1,1.3-12-1.7-17.7c-3-5.6-7.6-9.5-13.7-11.3
							L246,139.1c-6.1-1.9-12-1.3-17.7,1.7c-5.6,3-9.5,7.6-11.3,13.7c-1.2,4-1.4,8-0.4,11.9c0.4,1.8,1.1,3.6,2,5.2
							c-0.5,0.2-1.1,0.4-1.6,0.6c-0.4,0.2-0.8,0.3-1.2,0.5c-1.5,0.7-2.9,1.6-4.2,2.6c-3.8,2.9-6.4,6.8-7.8,11.5
							c-1,3.2-1.3,6.4-1,9.5c0.3,3,1.2,5.9,2.7,8.8c3.1,5.8,7.8,9.8,14.1,11.7l34.2,10.5l10.4-33.9l17,5.2l6.4,37l0.4,2.2l13.9,4.3
							L300.9,236.1z M245.3,211.4l-22-6.7c-2.9-0.9-5-2.7-6.5-5.4c-0.4-0.8-0.7-1.7-1-2.5c-0.6-2.1-0.5-4.1,0.1-6.3
							c0.9-3,2.7-5.2,5.5-6.7l0.1,0c2.7-1.5,5.5-1.8,8.4-0.9l22,6.7L245.3,211.4z M255.7,177.6l-19.6-6c-2.7-0.8-4.7-2.5-6-5.1
							c-1.4-2.8-1.6-5.5-0.8-8.2c0.9-2.8,2.6-4.9,5.2-6.3l0.1,0l0.1,0c2.5-1.4,5-1.7,7.8-0.9l19.6,6L255.7,177.6z M287.6,187.3
							l-19.6-6l6.3-20.5l19.6,6c2.8,0.8,4.7,2.5,6,5.1l0,0.1l0,0.1c1.4,2.6,1.6,5.3,0.8,8.1c-0.9,2.8-2.6,4.9-5.3,6.4
							C292.9,187.9,290.3,188.2,287.6,187.3z"/>
					</g>
				</g>
				<g>
					<g>
						<path class="st0" d="M235.6,270.4c-46.2-14.2-72.3-63.3-58.1-109.5c14.2-46.2,63.3-72.3,109.5-58.1s72.3,63.3,58.1,109.5
							S281.8,284.6,235.6,270.4z M283.4,114.7c-39.6-12.2-81.8,10.2-94,49.8s10.2,81.8,49.8,94c39.6,12.2,81.8-10.2,94-49.8
							C345.4,169,323.1,126.9,283.4,114.7z"/>
					</g>
				</g>
			</g>
			<g>
				<g>
					<g>
						<path class="st0" d="M300.9,236.1l-6.5-36.3c0.4-0.1,0.8-0.2,1.2-0.3l0.4-0.1c0.4-0.1,0.9-0.2,1.3-0.3
							c0.8-0.2,1.6-0.4,2.3-0.7c2.4-0.9,4.7-2.3,7-4.4c2.9-2.7,5.1-6.1,6.3-10.1c1.9-6.1,1.3-12-1.7-17.7c-3-5.6-7.6-9.5-13.7-11.3
							L246,139.1c-6.1-1.9-12-1.3-17.7,1.7c-5.6,3-9.5,7.6-11.3,13.7c-1.2,4-1.4,8-0.4,11.9c0.4,1.8,1.1,3.6,2,5.2
							c-0.5,0.2-1.1,0.4-1.6,0.6c-0.4,0.2-0.8,0.3-1.2,0.5c-1.5,0.7-2.9,1.6-4.2,2.6c-3.8,2.9-6.4,6.8-7.8,11.5
							c-1,3.2-1.3,6.4-1,9.5c0.3,3,1.2,5.9,2.7,8.8c3.1,5.8,7.8,9.8,14.1,11.7l34.2,10.5l10.4-33.9l17,5.2l6.4,37l0.4,2.2l13.9,4.3
							L300.9,236.1z M245.3,211.4l-22-6.7c-2.9-0.9-5-2.7-6.5-5.4c-0.4-0.8-0.7-1.7-1-2.5c-0.6-2.1-0.5-4.1,0.1-6.3
							c0.9-3,2.7-5.2,5.5-6.7l0.1,0c2.7-1.5,5.5-1.8,8.4-0.9l22,6.7L245.3,211.4z M255.7,177.6l-19.6-6c-2.7-0.8-4.7-2.5-6-5.1
							c-1.4-2.8-1.6-5.5-0.8-8.2c0.9-2.8,2.6-4.9,5.2-6.3l0.1,0l0.1,0c2.5-1.4,5-1.7,7.8-0.9l19.6,6L255.7,177.6z M287.6,187.3
							l-19.6-6l6.3-20.5l19.6,6c2.8,0.8,4.7,2.5,6,5.1l0,0.1l0,0.1c1.4,2.6,1.6,5.3,0.8,8.1c-0.9,2.8-2.6,4.9-5.3,6.4
							C292.9,187.9,290.3,188.2,287.6,187.3z"/>
					</g>
				</g>
				<g>
					<g>
						<path class="st0" d="M235.6,270.4c-46.2-14.2-72.3-63.3-58.1-109.5c14.2-46.2,63.3-72.3,109.5-58.1s72.3,63.3,58.1,109.5
							S281.8,284.6,235.6,270.4z M283.4,114.7c-39.6-12.2-81.8,10.2-94,49.8s10.2,81.8,49.8,94c39.6,12.2,81.8-10.2,94-49.8
							C345.4,169,323.1,126.9,283.4,114.7z"/>
					</g>
				</g>
			</g>
			<g>
				<g>
					<g>
						<path class="st0" d="M300.9,236.1l-6.5-36.3c0.4-0.1,0.8-0.2,1.2-0.3l0.4-0.1c0.4-0.1,0.9-0.2,1.3-0.3
							c0.8-0.2,1.6-0.4,2.3-0.7c2.4-0.9,4.7-2.3,7-4.4c2.9-2.7,5.1-6.1,6.3-10.1c1.9-6.1,1.3-12-1.7-17.7c-3-5.6-7.6-9.5-13.7-11.3
							L246,139.1c-6.1-1.9-12-1.3-17.7,1.7c-5.6,3-9.5,7.6-11.3,13.7c-1.2,4-1.4,8-0.4,11.9c0.4,1.8,1.1,3.6,2,5.2
							c-0.5,0.2-1.1,0.4-1.6,0.6c-0.4,0.2-0.8,0.3-1.2,0.5c-1.5,0.7-2.9,1.6-4.2,2.6c-3.8,2.9-6.4,6.8-7.8,11.5
							c-1,3.2-1.3,6.4-1,9.5c0.3,3,1.2,5.9,2.7,8.8c3.1,5.8,7.8,9.8,14.1,11.7l34.2,10.5l10.4-33.9l17,5.2l6.4,37l0.4,2.2l13.9,4.3
							L300.9,236.1z M245.3,211.4l-22-6.7c-2.9-0.9-5-2.7-6.5-5.4c-0.4-0.8-0.7-1.7-1-2.5c-0.6-2.1-0.5-4.1,0.1-6.3
							c0.9-3,2.7-5.2,5.5-6.7l0.1,0c2.7-1.5,5.5-1.8,8.4-0.9l22,6.7L245.3,211.4z M255.7,177.6l-19.6-6c-2.7-0.8-4.7-2.5-6-5.1
							c-1.4-2.8-1.6-5.5-0.8-8.2c0.9-2.8,2.6-4.9,5.2-6.3l0.1,0l0.1,0c2.5-1.4,5-1.7,7.8-0.9l19.6,6L255.7,177.6z M287.6,187.3
							l-19.6-6l6.3-20.5l19.6,6c2.8,0.8,4.7,2.5,6,5.1l0,0.1l0,0.1c1.4,2.6,1.6,5.3,0.8,8.1c-0.9,2.8-2.6,4.9-5.3,6.4
							C292.9,187.9,290.3,188.2,287.6,187.3z"/>
					</g>
				</g>
				<g>
					<g>
						<path class="st0" d="M235.6,270.4c-46.2-14.2-72.3-63.3-58.1-109.5c14.2-46.2,63.3-72.3,109.5-58.1s72.3,63.3,58.1,109.5
							S281.8,284.6,235.6,270.4z M283.4,114.7c-39.6-12.2-81.8,10.2-94,49.8s10.2,81.8,49.8,94c39.6,12.2,81.8-10.2,94-49.8
							C345.4,169,323.1,126.9,283.4,114.7z"/>
					</g>
				</g>
			</g>
		</g>
		<g>
			<g>
				<path class="st0" d="M414.4,217.2c0.5,1.8,0.4,3.8-0.2,5.8l-0.2,0.6c-1.1,3.6-3.4,6-6.9,7.2c-3.5,1.2-7.8,0.9-13-0.7l-27.2-8.3
					l12.9-42l26,8c5.2,1.6,8.9,3.8,11.1,6.7c2.2,2.9,2.7,6.1,1.6,9.8l-0.2,0.6c-1.1,3.7-3.4,6.1-6.9,7.2
					C412.9,213.7,413.9,215.4,414.4,217.2z M389.3,194.7l-1.6,5.1l13.1,4c2.3,0.7,3.7,0.3,4.1-1.2l0.2-0.6c0.5-1.5-0.5-2.6-2.8-3.3
					L389.3,194.7z M401.5,217.3c0.5-1.6-0.4-2.7-2.7-3.4l-14.1-4.3l-1.6,5.4l14.1,4.3c2.3,0.7,3.7,0.3,4.2-1.3L401.5,217.3z"/>
				<path class="st0" d="M464.2,230.9c-2.6,1.5-5.9,2-9.9,1.5l7.3,16.5l-0.6,1.9l-14.5-4.5l-7.5-18.1l-4.7-1.4l-4.4,14.5l-12.9-3.9
					l12.9-42l27.3,8.4c5.2,1.6,9,4.1,11.2,7.6c2.2,3.4,2.7,7.4,1.3,11.8l-0.2,0.6C468.7,227,466.9,229.4,464.2,230.9z M437.4,217.2
					l14.1,4.3c2.7,0.8,4.4,0.2,5.1-1.9l0.2-0.6c0.6-2-0.4-3.5-3.2-4.3l-14.1-4.3L437.4,217.2z"/>
				<path class="st0" d="M479.6,254.4c-3.4-3-5.6-6.4-6.8-10.4c-1.1-3.9-1.1-8.1,0.3-12.4l0.1-0.3c1.3-4.3,3.6-7.8,6.7-10.4
					c3.2-2.6,7-4.2,11.5-4.8c4.5-0.6,9.3-0.1,14.5,1.5c5.2,1.6,9.6,3.9,12.9,6.9c3.4,3,5.6,6.5,6.8,10.4c1.1,3.9,1,8.1-0.3,12.4
					l-0.1,0.3c-1.3,4.4-3.6,7.8-6.7,10.4c-3.1,2.6-6.9,4.2-11.4,4.8c-4.5,0.6-9.3,0-14.6-1.6C487.3,259.7,483,257.4,479.6,254.4z
					 M506.6,249.9c2.6-0.9,4.3-3,5.3-6.2l0.2-0.6c2-6.4-1.4-10.9-10-13.6c-4.2-1.3-7.7-1.5-10.3-0.5c-2.7,1-4.5,3-5.5,6.2l-0.2,0.6
					c-1,3.2-0.6,5.9,1,8.1c1.7,2.2,4.6,4,9,5.3C500.5,250.6,504,250.9,506.6,249.9z"/>
			</g>
			<g>
				<path class="st0" d="M414.4,217.2c0.5,1.8,0.4,3.8-0.2,5.8l-0.2,0.6c-1.1,3.6-3.4,6-6.9,7.2c-3.5,1.2-7.8,0.9-13-0.7l-27.2-8.3
					l12.9-42l26,8c5.2,1.6,8.9,3.8,11.1,6.7c2.2,2.9,2.7,6.1,1.6,9.8l-0.2,0.6c-1.1,3.7-3.4,6.1-6.9,7.2
					C412.9,213.7,413.9,215.4,414.4,217.2z M389.3,194.7l-1.6,5.1l13.1,4c2.3,0.7,3.7,0.3,4.1-1.2l0.2-0.6c0.5-1.5-0.5-2.6-2.8-3.3
					L389.3,194.7z M401.5,217.3c0.5-1.6-0.4-2.7-2.7-3.4l-14.1-4.3l-1.6,5.4l14.1,4.3c2.3,0.7,3.7,0.3,4.2-1.3L401.5,217.3z"/>
				<path class="st0" d="M464.2,230.9c-2.6,1.5-5.9,2-9.9,1.5l7.3,16.5l-0.6,1.9l-14.5-4.5l-7.5-18.1l-4.7-1.4l-4.4,14.5l-12.9-3.9
					l12.9-42l27.3,8.4c5.2,1.6,9,4.1,11.2,7.6c2.2,3.4,2.7,7.4,1.3,11.8l-0.2,0.6C468.7,227,466.9,229.4,464.2,230.9z M437.4,217.2
					l14.1,4.3c2.7,0.8,4.4,0.2,5.1-1.9l0.2-0.6c0.6-2-0.4-3.5-3.2-4.3l-14.1-4.3L437.4,217.2z"/>
				<path class="st0" d="M479.6,254.4c-3.4-3-5.6-6.4-6.8-10.4c-1.1-3.9-1.1-8.1,0.3-12.4l0.1-0.3c1.3-4.3,3.6-7.8,6.7-10.4
					c3.2-2.6,7-4.2,11.5-4.8c4.5-0.6,9.3-0.1,14.5,1.5c5.2,1.6,9.6,3.9,12.9,6.9c3.4,3,5.6,6.5,6.8,10.4c1.1,3.9,1,8.1-0.3,12.4
					l-0.1,0.3c-1.3,4.4-3.6,7.8-6.7,10.4c-3.1,2.6-6.9,4.2-11.4,4.8c-4.5,0.6-9.3,0-14.6-1.6C487.3,259.7,483,257.4,479.6,254.4z
					 M506.6,249.9c2.6-0.9,4.3-3,5.3-6.2l0.2-0.6c2-6.4-1.4-10.9-10-13.6c-4.2-1.3-7.7-1.5-10.3-0.5c-2.7,1-4.5,3-5.5,6.2l-0.2,0.6
					c-1,3.2-0.6,5.9,1,8.1c1.7,2.2,4.6,4,9,5.3C500.5,250.6,504,250.9,506.6,249.9z"/>
			</g>
			<g>
				<path class="st0" d="M414.4,217.2c0.5,1.8,0.4,3.8-0.2,5.8l-0.2,0.6c-1.1,3.6-3.4,6-6.9,7.2c-3.5,1.2-7.8,0.9-13-0.7l-27.2-8.3
					l12.9-42l26,8c5.2,1.6,8.9,3.8,11.1,6.7c2.2,2.9,2.7,6.1,1.6,9.8l-0.2,0.6c-1.1,3.7-3.4,6.1-6.9,7.2
					C412.9,213.7,413.9,215.4,414.4,217.2z M389.3,194.7l-1.6,5.1l13.1,4c2.3,0.7,3.7,0.3,4.1-1.2l0.2-0.6c0.5-1.5-0.5-2.6-2.8-3.3
					L389.3,194.7z M401.5,217.3c0.5-1.6-0.4-2.7-2.7-3.4l-14.1-4.3l-1.6,5.4l14.1,4.3c2.3,0.7,3.7,0.3,4.2-1.3L401.5,217.3z"/>
				<path class="st0" d="M464.2,230.9c-2.6,1.5-5.9,2-9.9,1.5l7.3,16.5l-0.6,1.9l-14.5-4.5l-7.5-18.1l-4.7-1.4l-4.4,14.5l-12.9-3.9
					l12.9-42l27.3,8.4c5.2,1.6,9,4.1,11.2,7.6c2.2,3.4,2.7,7.4,1.3,11.8l-0.2,0.6C468.7,227,466.9,229.4,464.2,230.9z M437.4,217.2
					l14.1,4.3c2.7,0.8,4.4,0.2,5.1-1.9l0.2-0.6c0.6-2-0.4-3.5-3.2-4.3l-14.1-4.3L437.4,217.2z"/>
				<path class="st0" d="M479.6,254.4c-3.4-3-5.6-6.4-6.8-10.4c-1.1-3.9-1.1-8.1,0.3-12.4l0.1-0.3c1.3-4.3,3.6-7.8,6.7-10.4
					c3.2-2.6,7-4.2,11.5-4.8c4.5-0.6,9.3-0.1,14.5,1.5c5.2,1.6,9.6,3.9,12.9,6.9c3.4,3,5.6,6.5,6.8,10.4c1.1,3.9,1,8.1-0.3,12.4
					l-0.1,0.3c-1.3,4.4-3.6,7.8-6.7,10.4c-3.1,2.6-6.9,4.2-11.4,4.8c-4.5,0.6-9.3,0-14.6-1.6C487.3,259.7,483,257.4,479.6,254.4z
					 M506.6,249.9c2.6-0.9,4.3-3,5.3-6.2l0.2-0.6c2-6.4-1.4-10.9-10-13.6c-4.2-1.3-7.7-1.5-10.3-0.5c-2.7,1-4.5,3-5.5,6.2l-0.2,0.6
					c-1,3.2-0.6,5.9,1,8.1c1.7,2.2,4.6,4,9,5.3C500.5,250.6,504,250.9,506.6,249.9z"/>
			</g>
		</g>
		<g>
			<g>
				<path class="st0" d="M383.3,252.5c-2,0.9-4.5,1-7.3,0.3l5.8,12.7l-0.2,0.6l-4.7-1.4l-6.2-13.5l-8-2.4l-3.2,10.6l-4.1-1.3
					l8.3-26.9l16.6,5.1c3,0.9,5.2,2.4,6.5,4.4c1.3,2,1.6,4.2,0.8,6.7l-0.2,0.5C386.7,250.1,385.3,251.6,383.3,252.5z M383.4,245.9
					c0.4-1.4,0.2-2.6-0.5-3.6c-0.8-1.1-2.1-1.9-3.9-2.4l-12.4-3.8l-2.8,9.1l12.4,3.8c1.8,0.6,3.3,0.6,4.6,0.2
					c1.2-0.4,2.1-1.4,2.5-2.7L383.4,245.9z"/>
				<path class="st0" d="M395,268.9c-2-1.8-3.3-4-3.9-6.4c-0.6-2.4-0.5-5,0.3-7.8l0.2-0.5c0.8-2.8,2.2-5,4.1-6.7
					c1.9-1.7,4.2-2.7,6.8-3.1c2.7-0.4,5.6-0.1,8.6,0.8c3.1,0.9,5.6,2.3,7.6,4.2c2,1.8,3.3,4,3.9,6.4c0.6,2.5,0.5,5.1-0.3,7.8
					l-0.2,0.5c-0.8,2.8-2.2,5-4.1,6.6c-1.9,1.7-4.2,2.7-6.8,3.1c-2.7,0.4-5.5,0.1-8.6-0.8C399.5,272.1,397,270.7,395,268.9z
					 M412.8,269.2c2.5-1.1,4.2-3.2,5.2-6.3l0.2-0.7c0.9-3.1,0.7-5.8-0.7-8.2c-1.4-2.3-3.9-4.1-7.5-5.1c-3.5-1.1-6.6-1.1-9.1,0.1
					c-2.5,1.1-4.3,3.2-5.2,6.3l-0.2,0.7c-0.9,3.1-0.7,5.8,0.8,8.1c1.5,2.3,3.9,4,7.5,5.1C407.3,270.3,410.3,270.3,412.8,269.2z"/>
				<path class="st0" d="M436.9,253.6l-7.1,23.3l19.8,6.1l-1.1,3.7l-23.9-7.3l8.3-26.9L436.9,253.6z"/>
				<path class="st0" d="M465.1,262.2l-7.1,23.3l19.8,6.1l-1.1,3.7l-23.9-7.3L461,261L465.1,262.2z"/>
				<path class="st0" d="M482.6,295.1c-1.8-2.2-2.2-4.8-1.3-7.7l0.1-0.4l4.1,1.3l-0.1,0.4c-1.1,3.5,1.5,6.2,7.7,8.1
					c2.8,0.8,5,1.2,6.6,0.9c1.7-0.2,2.7-1,3.1-2.4l0.1-0.3c0.4-1.1,0.2-2.2-0.6-3c-0.7-0.9-2.2-1.8-4.5-2.8l-5.9-2.7
					c-2.9-1.3-4.9-2.8-6-4.4c-1.1-1.6-1.4-3.4-0.8-5.4l0.1-0.4c0.7-2.4,2.4-4,4.9-4.7c2.6-0.7,5.8-0.5,9.7,0.7c4.1,1.3,7,3,8.7,5.1
					c1.7,2.1,2.1,4.6,1.2,7.4l-0.1,0.4l-4.1-1.2l0.1-0.4c1-3.3-1.3-5.8-7.1-7.6c-2.6-0.8-4.7-1.1-6.3-0.8c-1.6,0.2-2.6,1-3,2.3
					l-0.1,0.3c-0.3,1-0.1,1.9,0.6,2.7c0.7,0.8,2,1.7,4,2.6l5.9,2.7c3.1,1.4,5.3,2.9,6.4,4.6c1.2,1.6,1.4,3.5,0.7,5.7l-0.1,0.4
					c-0.8,2.5-2.5,4.1-5.1,4.8c-2.6,0.7-6,0.4-10.2-0.9C487.4,299.1,484.4,297.3,482.6,295.1z"/>
			</g>
			<g>
				<path class="st0" d="M383.3,252.5c-2,0.9-4.5,1-7.3,0.3l5.8,12.7l-0.2,0.6l-4.7-1.4l-6.2-13.5l-8-2.4l-3.2,10.6l-4.1-1.3
					l8.3-26.9l16.6,5.1c3,0.9,5.2,2.4,6.5,4.4c1.3,2,1.6,4.2,0.8,6.7l-0.2,0.5C386.7,250.1,385.3,251.6,383.3,252.5z M383.4,245.9
					c0.4-1.4,0.2-2.6-0.5-3.6c-0.8-1.1-2.1-1.9-3.9-2.4l-12.4-3.8l-2.8,9.1l12.4,3.8c1.8,0.6,3.3,0.6,4.6,0.2
					c1.2-0.4,2.1-1.4,2.5-2.7L383.4,245.9z"/>
				<path class="st0" d="M395,268.9c-2-1.8-3.3-4-3.9-6.4c-0.6-2.4-0.5-5,0.3-7.8l0.2-0.5c0.8-2.8,2.2-5,4.1-6.7
					c1.9-1.7,4.2-2.7,6.8-3.1c2.7-0.4,5.6-0.1,8.6,0.8c3.1,0.9,5.6,2.3,7.6,4.2c2,1.8,3.3,4,3.9,6.4c0.6,2.5,0.5,5.1-0.3,7.8
					l-0.2,0.5c-0.8,2.8-2.2,5-4.1,6.6c-1.9,1.7-4.2,2.7-6.8,3.1c-2.7,0.4-5.5,0.1-8.6-0.8C399.5,272.1,397,270.7,395,268.9z
					 M412.8,269.2c2.5-1.1,4.2-3.2,5.2-6.3l0.2-0.7c0.9-3.1,0.7-5.8-0.7-8.2c-1.4-2.3-3.9-4.1-7.5-5.1c-3.5-1.1-6.6-1.1-9.1,0.1
					c-2.5,1.1-4.3,3.2-5.2,6.3l-0.2,0.7c-0.9,3.1-0.7,5.8,0.8,8.1c1.5,2.3,3.9,4,7.5,5.1C407.3,270.3,410.3,270.3,412.8,269.2z"/>
				<path class="st0" d="M436.9,253.6l-7.1,23.3l19.8,6.1l-1.1,3.7l-23.9-7.3l8.3-26.9L436.9,253.6z"/>
				<path class="st0" d="M465.1,262.2l-7.1,23.3l19.8,6.1l-1.1,3.7l-23.9-7.3L461,261L465.1,262.2z"/>
				<path class="st0" d="M482.6,295.1c-1.8-2.2-2.2-4.8-1.3-7.7l0.1-0.4l4.1,1.3l-0.1,0.4c-1.1,3.5,1.5,6.2,7.7,8.1
					c2.8,0.8,5,1.2,6.6,0.9c1.7-0.2,2.7-1,3.1-2.4l0.1-0.3c0.4-1.1,0.2-2.2-0.6-3c-0.7-0.9-2.2-1.8-4.5-2.8l-5.9-2.7
					c-2.9-1.3-4.9-2.8-6-4.4c-1.1-1.6-1.4-3.4-0.8-5.4l0.1-0.4c0.7-2.4,2.4-4,4.9-4.7c2.6-0.7,5.8-0.5,9.7,0.7c4.1,1.3,7,3,8.7,5.1
					c1.7,2.1,2.1,4.6,1.2,7.4l-0.1,0.4l-4.1-1.2l0.1-0.4c1-3.3-1.3-5.8-7.1-7.6c-2.6-0.8-4.7-1.1-6.3-0.8c-1.6,0.2-2.6,1-3,2.3
					l-0.1,0.3c-0.3,1-0.1,1.9,0.6,2.7c0.7,0.8,2,1.7,4,2.6l5.9,2.7c3.1,1.4,5.3,2.9,6.4,4.6c1.2,1.6,1.4,3.5,0.7,5.7l-0.1,0.4
					c-0.8,2.5-2.5,4.1-5.1,4.8c-2.6,0.7-6,0.4-10.2-0.9C487.4,299.1,484.4,297.3,482.6,295.1z"/>
			</g>
			<g>
				<path class="st0" d="M383.3,252.5c-2,0.9-4.5,1-7.3,0.3l5.8,12.7l-0.2,0.6l-4.7-1.4l-6.2-13.5l-8-2.4l-3.2,10.6l-4.1-1.3
					l8.3-26.9l16.6,5.1c3,0.9,5.2,2.4,6.5,4.4c1.3,2,1.6,4.2,0.8,6.7l-0.2,0.5C386.7,250.1,385.3,251.6,383.3,252.5z M383.4,245.9
					c0.4-1.4,0.2-2.6-0.5-3.6c-0.8-1.1-2.1-1.9-3.9-2.4l-12.4-3.8l-2.8,9.1l12.4,3.8c1.8,0.6,3.3,0.6,4.6,0.2
					c1.2-0.4,2.1-1.4,2.5-2.7L383.4,245.9z"/>
				<path class="st0" d="M395,268.9c-2-1.8-3.3-4-3.9-6.4c-0.6-2.4-0.5-5,0.3-7.8l0.2-0.5c0.8-2.8,2.2-5,4.1-6.7
					c1.9-1.7,4.2-2.7,6.8-3.1c2.7-0.4,5.6-0.1,8.6,0.8c3.1,0.9,5.6,2.3,7.6,4.2c2,1.8,3.3,4,3.9,6.4c0.6,2.5,0.5,5.1-0.3,7.8
					l-0.2,0.5c-0.8,2.8-2.2,5-4.1,6.6c-1.9,1.7-4.2,2.7-6.8,3.1c-2.7,0.4-5.5,0.1-8.6-0.8C399.5,272.1,397,270.7,395,268.9z
					 M412.8,269.2c2.5-1.1,4.2-3.2,5.2-6.3l0.2-0.7c0.9-3.1,0.7-5.8-0.7-8.2c-1.4-2.3-3.9-4.1-7.5-5.1c-3.5-1.1-6.6-1.1-9.1,0.1
					c-2.5,1.1-4.3,3.2-5.2,6.3l-0.2,0.7c-0.9,3.1-0.7,5.8,0.8,8.1c1.5,2.3,3.9,4,7.5,5.1C407.3,270.3,410.3,270.3,412.8,269.2z"/>
				<path class="st0" d="M436.9,253.6l-7.1,23.3l19.8,6.1l-1.1,3.7l-23.9-7.3l8.3-26.9L436.9,253.6z"/>
				<path class="st0" d="M465.1,262.2l-7.1,23.3l19.8,6.1l-1.1,3.7l-23.9-7.3L461,261L465.1,262.2z"/>
				<path class="st0" d="M482.6,295.1c-1.8-2.2-2.2-4.8-1.3-7.7l0.1-0.4l4.1,1.3l-0.1,0.4c-1.1,3.5,1.5,6.2,7.7,8.1
					c2.8,0.8,5,1.2,6.6,0.9c1.7-0.2,2.7-1,3.1-2.4l0.1-0.3c0.4-1.1,0.2-2.2-0.6-3c-0.7-0.9-2.2-1.8-4.5-2.8l-5.9-2.7
					c-2.9-1.3-4.9-2.8-6-4.4c-1.1-1.6-1.4-3.4-0.8-5.4l0.1-0.4c0.7-2.4,2.4-4,4.9-4.7c2.6-0.7,5.8-0.5,9.7,0.7c4.1,1.3,7,3,8.7,5.1
					c1.7,2.1,2.1,4.6,1.2,7.4l-0.1,0.4l-4.1-1.2l0.1-0.4c1-3.3-1.3-5.8-7.1-7.6c-2.6-0.8-4.7-1.1-6.3-0.8c-1.6,0.2-2.6,1-3,2.3
					l-0.1,0.3c-0.3,1-0.1,1.9,0.6,2.7c0.7,0.8,2,1.7,4,2.6l5.9,2.7c3.1,1.4,5.3,2.9,6.4,4.6c1.2,1.6,1.4,3.5,0.7,5.7l-0.1,0.4
					c-0.8,2.5-2.5,4.1-5.1,4.8c-2.6,0.7-6,0.4-10.2-0.9C487.4,299.1,484.4,297.3,482.6,295.1z"/>
			</g>
		</g>
	</g>
	<g>
		<g>
			<g>
				<g>
					<path class="st0" d="M300.9,236.1l-6.5-36.3c0.4-0.1,0.8-0.2,1.2-0.3l0.4-0.1c0.4-0.1,0.9-0.2,1.3-0.3c0.8-0.2,1.6-0.4,2.3-0.7
						c2.4-0.9,4.7-2.3,7-4.4c2.9-2.7,5.1-6.1,6.3-10.1c1.9-6.1,1.3-12-1.7-17.7c-3-5.6-7.6-9.5-13.7-11.3L246,139.1
						c-6.1-1.9-12-1.3-17.7,1.7c-5.6,3-9.5,7.6-11.3,13.7c-1.2,4-1.4,8-0.4,11.9c0.4,1.8,1.1,3.6,2,5.2c-0.5,0.2-1.1,0.4-1.6,0.6
						c-0.4,0.2-0.8,0.3-1.2,0.5c-1.5,0.7-2.9,1.6-4.2,2.6c-3.8,2.9-6.4,6.8-7.8,11.5c-1,3.2-1.3,6.4-1,9.5c0.3,3,1.2,5.9,2.7,8.8
						c3.1,5.8,7.8,9.8,14.1,11.7l34.2,10.5l10.4-33.9l17,5.2l6.4,37l0.4,2.2l13.9,4.3L300.9,236.1z M245.3,211.4l-22-6.7
						c-2.9-0.9-5-2.7-6.5-5.4c-0.4-0.8-0.7-1.7-1-2.5c-0.6-2.1-0.5-4.1,0.1-6.3c0.9-3,2.7-5.2,5.5-6.7l0.1,0
						c2.7-1.5,5.5-1.8,8.4-0.9l22,6.7L245.3,211.4z M255.7,177.6l-19.6-6c-2.7-0.8-4.7-2.5-6-5.1c-1.4-2.8-1.6-5.5-0.8-8.2
						c0.9-2.8,2.6-4.9,5.2-6.3l0.1,0l0.1,0c2.5-1.4,5-1.7,7.8-0.9l19.6,6L255.7,177.6z M287.6,187.3l-19.6-6l6.3-20.5l19.6,6
						c2.8,0.8,4.7,2.5,6,5.1l0,0.1l0,0.1c1.4,2.6,1.6,5.3,0.8,8.1c-0.9,2.8-2.6,4.9-5.3,6.4C292.9,187.9,290.3,188.2,287.6,187.3z"
						/>
				</g>
			</g>
			<g>
				<g>
					<path class="st0" d="M235.6,270.4c-46.2-14.2-72.3-63.3-58.1-109.5c14.2-46.2,63.3-72.3,109.5-58.1s72.3,63.3,58.1,109.5
						S281.8,284.6,235.6,270.4z M283.4,114.7c-39.6-12.2-81.8,10.2-94,49.8s10.2,81.8,49.8,94c39.6,12.2,81.8-10.2,94-49.8
						C345.4,169,323.1,126.9,283.4,114.7z"/>
				</g>
			</g>
		</g>
		<g>
			<g>
				<path class="st0" d="M414.4,217.2c0.5,1.8,0.4,3.8-0.2,5.8l-0.2,0.6c-1.1,3.6-3.4,6-6.9,7.2c-3.5,1.2-7.8,0.9-13-0.7l-27.2-8.3
					l12.9-42l26,8c5.2,1.6,8.9,3.8,11.1,6.7c2.2,2.9,2.7,6.1,1.6,9.8l-0.2,0.6c-1.1,3.7-3.4,6.1-6.9,7.2
					C412.9,213.7,413.9,215.4,414.4,217.2z M389.3,194.7l-1.6,5.1l13.1,4c2.3,0.7,3.7,0.3,4.1-1.2l0.2-0.6c0.5-1.5-0.5-2.6-2.8-3.3
					L389.3,194.7z M401.5,217.3c0.5-1.6-0.4-2.7-2.7-3.4l-14.1-4.3l-1.6,5.4l14.1,4.3c2.3,0.7,3.7,0.3,4.2-1.3L401.5,217.3z"/>
				<path class="st0" d="M464.2,230.9c-2.6,1.5-5.9,2-9.9,1.5l7.3,16.5l-0.6,1.9l-14.5-4.5l-7.5-18.1l-4.7-1.4l-4.4,14.5l-12.9-3.9
					l12.9-42l27.3,8.4c5.2,1.6,9,4.1,11.2,7.6c2.2,3.4,2.7,7.4,1.3,11.8l-0.2,0.6C468.7,227,466.9,229.4,464.2,230.9z M437.4,217.2
					l14.1,4.3c2.7,0.8,4.4,0.2,5.1-1.9l0.2-0.6c0.6-2-0.4-3.5-3.2-4.3l-14.1-4.3L437.4,217.2z"/>
				<path class="st0" d="M479.6,254.4c-3.4-3-5.6-6.4-6.8-10.4c-1.1-3.9-1.1-8.1,0.3-12.4l0.1-0.3c1.3-4.3,3.6-7.8,6.7-10.4
					c3.2-2.6,7-4.2,11.5-4.8c4.5-0.6,9.3-0.1,14.5,1.5c5.2,1.6,9.6,3.9,12.9,6.9c3.4,3,5.6,6.5,6.8,10.4c1.1,3.9,1,8.1-0.3,12.4
					l-0.1,0.3c-1.3,4.4-3.6,7.8-6.7,10.4c-3.1,2.6-6.9,4.2-11.4,4.8c-4.5,0.6-9.3,0-14.6-1.6C487.3,259.7,483,257.4,479.6,254.4z
					 M506.6,249.9c2.6-0.9,4.3-3,5.3-6.2l0.2-0.6c2-6.4-1.4-10.9-10-13.6c-4.2-1.3-7.7-1.5-10.3-0.5c-2.7,1-4.5,3-5.5,6.2l-0.2,0.6
					c-1,3.2-0.6,5.9,1,8.1c1.7,2.2,4.6,4,9,5.3C500.5,250.6,504,250.9,506.6,249.9z"/>
			</g>
		</g>
		<g>
			<g>
				<path class="st0" d="M383.3,252.5c-2,0.9-4.5,1-7.3,0.3l5.8,12.7l-0.2,0.6l-4.7-1.4l-6.2-13.5l-8-2.4l-3.2,10.6l-4.1-1.3
					l8.3-26.9l16.6,5.1c3,0.9,5.2,2.4,6.5,4.4c1.3,2,1.6,4.2,0.8,6.7l-0.2,0.5C386.7,250.1,385.3,251.6,383.3,252.5z M383.4,245.9
					c0.4-1.4,0.2-2.6-0.5-3.6c-0.8-1.1-2.1-1.9-3.9-2.4l-12.4-3.8l-2.8,9.1l12.4,3.8c1.8,0.6,3.3,0.6,4.6,0.2
					c1.2-0.4,2.1-1.4,2.5-2.7L383.4,245.9z"/>
				<path class="st0" d="M395,268.9c-2-1.8-3.3-4-3.9-6.4c-0.6-2.4-0.5-5,0.3-7.8l0.2-0.5c0.8-2.8,2.2-5,4.1-6.7
					c1.9-1.7,4.2-2.7,6.8-3.1c2.7-0.4,5.6-0.1,8.6,0.8c3.1,0.9,5.6,2.3,7.6,4.2c2,1.8,3.3,4,3.9,6.4c0.6,2.5,0.5,5.1-0.3,7.8
					l-0.2,0.5c-0.8,2.8-2.2,5-4.1,6.6c-1.9,1.7-4.2,2.7-6.8,3.1c-2.7,0.4-5.5,0.1-8.6-0.8C399.5,272.1,397,270.7,395,268.9z
					 M412.8,269.2c2.5-1.1,4.2-3.2,5.2-6.3l0.2-0.7c0.9-3.1,0.7-5.8-0.7-8.2c-1.4-2.3-3.9-4.1-7.5-5.1c-3.5-1.1-6.6-1.1-9.1,0.1
					c-2.5,1.1-4.3,3.2-5.2,6.3l-0.2,0.7c-0.9,3.1-0.7,5.8,0.8,8.1c1.5,2.3,3.9,4,7.5,5.1C407.3,270.3,410.3,270.3,412.8,269.2z"/>
				<path class="st0" d="M436.9,253.6l-7.1,23.3l19.8,6.1l-1.1,3.7l-23.9-7.3l8.3-26.9L436.9,253.6z"/>
				<path class="st0" d="M465.1,262.2l-7.1,23.3l19.8,6.1l-1.1,3.7l-23.9-7.3L461,261L465.1,262.2z"/>
				<path class="st0" d="M482.6,295.1c-1.8-2.2-2.2-4.8-1.3-7.7l0.1-0.4l4.1,1.3l-0.1,0.4c-1.1,3.5,1.5,6.2,7.7,8.1
					c2.8,0.8,5,1.2,6.6,0.9c1.7-0.2,2.7-1,3.1-2.4l0.1-0.3c0.4-1.1,0.2-2.2-0.6-3c-0.7-0.9-2.2-1.8-4.5-2.8l-5.9-2.7
					c-2.9-1.3-4.9-2.8-6-4.4c-1.1-1.6-1.4-3.4-0.8-5.4l0.1-0.4c0.7-2.4,2.4-4,4.9-4.7c2.6-0.7,5.8-0.5,9.7,0.7c4.1,1.3,7,3,8.7,5.1
					c1.7,2.1,2.1,4.6,1.2,7.4l-0.1,0.4l-4.1-1.2l0.1-0.4c1-3.3-1.3-5.8-7.1-7.6c-2.6-0.8-4.7-1.1-6.3-0.8c-1.6,0.2-2.6,1-3,2.3
					l-0.1,0.3c-0.3,1-0.1,1.9,0.6,2.7c0.7,0.8,2,1.7,4,2.6l5.9,2.7c3.1,1.4,5.3,2.9,6.4,4.6c1.2,1.6,1.4,3.5,0.7,5.7l-0.1,0.4
					c-0.8,2.5-2.5,4.1-5.1,4.8c-2.6,0.7-6,0.4-10.2-0.9C487.4,299.1,484.4,297.3,482.6,295.1z"/>
			</g>
		</g>
	</g>
</g>
<g>
	<path class="st0" d="M437,1518.2c0-1.3,0.6-5.9-0.2-7.4c-2.8-5.2-9.5-4.3-14.3-4.6c-6.4-0.5-12.8-0.3-19.1-0.2
		c-44.2,1.2-88.5,1.2-132.6-0.6c-12.3-0.5-24.6-0.9-36.9-0.8c-6.2,0.1-12.9-1.8-14,6.5c-0.7,5,0.8,10.8,1.2,15.8
		c1.9,23.6,3.9,47.3,7.7,70.7c1.7,10.6,3.8,21.1,6.2,31.6c2.5,10.9,4,28.8,14.1,35.3c9.3,6,27.1,2.8,37.9,2.6c10-0.1,20-0.2,30-0.3
		c21.6-0.1,43.4-0.2,65,0.8c5.4,0.2,11.3,1.1,16.5-0.5c6.7-2,12-8,15.8-13.7c5.6-8.6,5.8-19.5,7.4-29.4c3.6-22.3,8.8-44.3,12-66.6
		C435.2,1544.5,436.8,1531.3,437,1518.2z M242.4,1521.9c-2.4,6.5-3.9,13.2-5.3,20c-0.6,2.9-5,1.5-4.4-1.3c1.4-6.7,2.9-13.5,5.3-20
		C239,1517.8,243.4,1519.1,242.4,1521.9z M254,1534.5c-2,2.7-3.1,5.9-5.1,8.6c-1.8,2.3-5.7-0.1-3.9-2.4c2-2.7,3.1-5.9,5.1-8.6
		C251.9,1529.8,255.8,1532.2,254,1534.5z M376.4,1614.6c-6.6,5.7-15.7,7.7-24.1,9.4c-11.6,2.5-22,2.4-33.8,1.7
		c-10.6-0.6-20.6-0.7-30.2-5.5c-7.6-3.7-15.7-7.8-20.3-15.1c-6.5-10.3-7.4-21.9-3.5-33.5c8-23.9,40.7-29.1,62.5-28.6
		c23.7,1.1,63.7,12.1,62.7,42.7C389.4,1596.8,384.7,1607.3,376.4,1614.6z"/>
	<path class="st1" d="M367.5,1558.7c-11.9-7.9-26.5-10.4-40.6-11c-14.7-0.3-29.3,2.2-42.6,8.7c-14.8,7.2-21.9,25.7-15.2,41
		c9.6,22,36.6,23,57,24.2c18.4,1.1,44.8-1.6,54.8-19.5C390.4,1585,382.4,1568.6,367.5,1558.7z"/>
	<path class="st0" d="M437.4,1502.2c-3.4-1.5-7.3-2.4-11.4-2.9c4.5-18.3,7.9-36.9,10-55.6c0.6-5.4,2.6-13-1.2-17.8
		c-3.3-4.2-9.9-4.4-14.6-5.2c-4.7-0.8-8.1-2.4-11.3,1.4c-0.3,0.3-0.5,0.7-0.7,1c-0.7-2.9-1.8-5.6-3.4-7c-4.1-3.4-14.2-1.6-19-0.9
		c-4.7,0.7-9.9,2.3-11.7,7.2c-1.5,4.2-0.7,10,0.3,14.8c-3.9-1.6-8.7-3-12.5-3.1c0.3-3.7,0.5-7.4,0.8-11.2c0.2-2.5,0.9-5.9-0.7-8.3
		c-2.8-4.3-11.3-4.4-15.8-4.4c-4.7,0-14.5-0.3-18.1,3.4c-3,3-2,9.8-1.5,14.5c-3-0.7-6.1-1-8.5-1.2c-1.3-0.1-2.7-0.2-4.2-0.1
		c-0.2-5.5-0.2-13.2-4.1-16.3c-4.9-4-15.5-1.8-21-1.2c-5.4,0.5-14.9,0.4-19,4.7c-1.7,1.7-2.3,3.7-2.4,6.1
		c-0.1,5.4,1.3,10.4,1.1,15.9c-1.9,0.1-3.8,0.2-5.8,0.3c0-0.1,0-0.2,0-0.3c-0.7-4-0.7-14.4-3.9-17.6c-2.1-2-5-1.7-7.8-1.7
		c-7.4,0-19,0.2-24.9,5.5c-7,6.4-3,19.6-2.4,27.7c1.3,15.8,2.7,31.6,4.2,47.3c0,0.4,0.1,0.7,0.3,1c-6.1,0.1-12.4,0.8-14,7.7
		c-1.1,4.7-0.1,10.2,0.3,14.9c0.6,8.3,1.3,16.5,2,24.8c1.1,12.3,2.3,24.6,3.9,36.8c1.9,14.5,4.4,28.9,7.5,43.2
		c2.7,12.3,4.3,28.5,12.1,38.8c7.8,10.2,20.2,8.7,31.8,8.6c15-0.2,29.9-0.3,44.9-0.5c22.9-0.1,46.1,0.2,69,1.1
		c9.6,0.4,18-0.6,25.2-7.4c6.7-6.3,11.7-14,13.6-23c5.3-24.8,9.3-50.4,13.4-75.4c2.2-13.4,3.9-26.9,4.8-40.4
		C443.1,1520.5,446.1,1506.1,437.4,1502.2z M414,1653.4c-3.7,5.7-9.1,11.7-15.8,13.7c-5.2,1.6-11.1,0.8-16.5,0.5
		c-21.5-1-43.4-1-65-0.8c-10,0.1-20,0.2-30,0.3c-10.8,0.1-28.6,3.4-37.9-2.6c-10-6.5-11.6-24.4-14.1-35.3c-2.4-10.5-4.5-21-6.2-31.6
		c-3.8-23.4-5.8-47.1-7.7-70.7c-0.4-5-1.8-10.8-1.2-15.8c1.1-8.3,7.8-6.4,14-6.5c12.3-0.1,24.6,0.3,36.9,0.8
		c44.1,1.8,88.5,1.8,132.6,0.6c6.4-0.2,12.8-0.3,19.1,0.2c4.9,0.4,11.6-0.5,14.3,4.6c0.8,1.5,0.3,6.2,0.2,7.4
		c-0.2,13.1-1.8,26.3-3.6,39.2c-3.2,22.4-8.4,44.4-12,66.6C419.8,1633.9,419.6,1644.8,414,1653.4z M232.4,1497.7
		c-1.7-17.7-3.3-35.5-4.6-53.2c-0.3-3.4-2-9.3-0.9-12.5c1.8-5.2,6.6-8.6,11.6-9.4c2.4-0.4,9.5-2,12.4-1c6.6,2.2,6.5,9.6,7.3,15.2
		c-5.9,0.5-10.6,2-10.3,9.4c0.4,8.8,3.3,18.4,4.9,27c1.5,8.5,3.1,17.1,4.6,25.6c-8.4-0.3-16.7-0.4-25.1-0.3
		C232.4,1498.3,232.4,1498,232.4,1497.7z M301.3,1413.4c8,1.1,7.7,7.7,8,14.1c-2.1,0.5-4.1,1.2-5.6,2.6c-3.6,3.4-2.9,8-3.1,12.6
		c-0.7,19.1-1.4,38.3-2.1,57.4c-2.1,0-4.3-0.1-6.4-0.1c0.1-0.3,0.1-0.6,0.1-1c-2.8-17.8-4.3-36.5-8.4-54.1
		c-1.6-6.7-5.6-8.4-10.7-8.7c0.2-3.9,0-7.6-0.2-11.5c-0.5-8.4,5.3-9.3,12.2-10.2C290.1,1413.8,296.2,1412.7,301.3,1413.4z
		 M333,1416.5c2.9-2.1,10.8-1.6,14.2-1.5c2.2,0.1,5.2,0.1,7.3,0.9c3.4,1.4,3.4,2.4,3.6,5.9c0.2,4.4-0.6,9.1-0.9,13.5
		c-2,1.4-2.4,4.9-2.9,7c-1.7,7-3.2,14.1-4.8,21.2c-3.4-0.6-6.9-0.7-9.7-0.9c0-6.6-0.1-13.2-0.6-19.8c-0.3-4.6-0.2-8.3-4.1-11.2
		c-1.1-0.8-2.4-1.5-3.9-2C330.9,1425.6,329.6,1418.8,333,1416.5z M379.5,1439.5c-0.8-3.6-1.6-7.5-1.4-11.3c0.3-5.2,2.6-7.3,7.5-8.2
		c3.5-0.7,9.9-1.8,13.5-0.5c3.9,1.4,5.3,7.3,5.5,11.1c-1.2,3.8-1.9,7.8-2.6,11.1c-4,19.3-6.5,39.1-9.6,58.6
		c-5.2,0.2-10.5,0.3-15.7,0.3c3.1-12.5,5.7-25.1,7.7-37.9c1.4-8.6,5-18.1-4.2-22.7c-0.2-0.1-0.5-0.2-0.8-0.4
		C379.5,1439.6,379.5,1439.5,379.5,1439.5z M432.2,1436c0.8,5.7-1.4,13.3-2.2,19c-2.1,14.8-5,29.5-8.6,44c-8.2-0.3-16.9,0.6-24.3,1
		c2-12.5,4.1-25.1,6.1-37.6c1.5-9.3,1.9-34.9,13.8-37.6C424.5,1423.3,431.4,1429.7,432.2,1436z M269.7,1440.9
		c7.1,0.5,9.1,2.1,10.2,8.9c0.8,5.1,1.6,10.3,2.4,15.5c1.8,11.5,3.6,23,5.4,34.5c-4.5-0.1-9.1-0.2-13.6-0.4c-4-0.2-8-0.3-12-0.5
		c-2-10.9-3.9-21.8-5.9-32.7c-0.8-4.7-3.1-10.7-2.8-15.4C254,1441,261.5,1440.3,269.7,1440.9z M339.7,1467.3c3.9,0.2,8,0.4,11.8,1.5
		c5.6,1.7,6.5,6.4,5.8,11.6c-0.9,6.7-2.2,13.3-3.3,19.9c0,0.1,0,0.2,0,0.3c-5.6,0-11.2,0-16.7-0.1
		C338.7,1489.5,339.5,1478.4,339.7,1467.3z M381.3,1453c0.4,7.7-2.6,16.9-4.1,24.5c-1.5,7.7-3.2,15.3-5.1,22.9c0,0.1,0,0.2,0,0.3
		c-4.5,0-9,0-13.5,0c0.9-5.6,1.9-11.3,2.8-16.9c0.6-3.9,1.7-8.1,0.4-11.9c-1.3-3.7-4.3-5.8-7.9-7.1c1.2-6.3,1.5-15.9,4.8-21
		C364.8,1434,380.9,1445.6,381.3,1453z M319.2,1432c8,1,13.3,2.3,15.5,10.9c1.5,5.8,0.6,13.6,0.6,19.5c0,12.8-1,25.5-2.5,38.2
		c-9.9-0.1-19.7-0.2-29.6-0.3c0.4-11.9,0.9-23.9,1.3-35.8c0.2-5.9,0.4-11.8,0.6-17.6c0.1-2.6-0.8-7.4,0.4-9.8c1.4-3,4-4.4,6.9-5
		c0.2,0,0.3,0,0.5-0.1C314.9,1431.6,317.1,1431.7,319.2,1432z"/>
	<path class="st0" d="M327,1543.1c-21.8-0.5-54.5,4.7-62.5,28.6c-3.9,11.5-3,23.1,3.5,33.5c4.6,7.3,12.7,11.4,20.3,15.1
		c9.6,4.7,19.6,4.8,30.2,5.5c11.8,0.7,22.2,0.8,33.8-1.7c8.3-1.8,17.5-3.7,24.1-9.4c8.3-7.3,13-17.8,13.3-28.8
		C390.8,1555.2,350.8,1544.2,327,1543.1z M380.9,1602c-10,17.9-36.3,20.6-54.8,19.5c-20.4-1.2-47.4-2.1-57-24.2
		c-6.7-15.3,0.4-33.8,15.2-41c13.3-6.5,27.9-9,42.6-8.7c14,0.7,28.7,3.1,40.6,11C382.4,1568.6,390.4,1585,380.9,1602z"/>
</g>
<g>
	<path class="st0" d="M525.6,1122.3l-80.8,19l-1.8-7.6l80.8-19l-2.1-8.9l-3.1,0.7l-98,23.1l-107.9,25.4l-8.6,2l-3.1,0.7l4.8,20.2
		c3,12.5,15.6,20.3,28.1,17.4l175.3-41.3c12.5-3,20.4-15.6,17.4-28.1L525.6,1122.3z M328.5,1151.3l76-17.9l0,0L328.5,1151.3z"/>
	<g>
		<path class="st0" d="M534,1124.2l-5.5-23.3c4.9-4.9,7.2-12.2,5.5-19.5c-1.4-5.9-5.1-10.7-10.1-13.4c2.2-2.7,3.2-6.3,2.3-9.9
			c-1.1-4.9-5.2-8.3-9.9-8.8c-11.6-42-54.6-67.7-97.4-57.6l-77.1,18.2c-42.8,10.1-69.8,52.3-61.4,95.1c-3.9,2.6-6,7.4-4.9,12.2
			c0.8,3.6,3.3,6.4,6.4,7.8c-3.2,4.7-4.5,10.7-3.1,16.6c1.7,7.3,7.1,12.8,13.7,15l5.5,23.3c3.9,16.7,20.8,27.1,37.5,23.2l175.3-41.3
			C527.5,1157.8,537.9,1140.9,534,1124.2z M283.1,1115.4c-0.5-2,0.8-3.9,2.7-4.4l30.8-7.2l0,0l-0.9-3.8l0,0l-30.8,7.3
			c-9.9-41.8,16.1-83.7,57.9-93.5l77.1-18.2c41.8-9.9,83.7,16.1,93.5,57.9l-186.7,44l0,0l0.9,3.8h0l186.7-44c2-0.5,3.9,0.8,4.4,2.7
			c0.5,2-0.8,3.9-2.7,4.4c-1.5,0.4-2.9,0.7-4.1,1.1l0,0l-0.1,0c-7.6,2.4-11.6,5.7-15.3,8.6c-4.2,3.4-7.8,6.3-16.4,8.3
			c-1.1,0.3-2.1,0.5-3.1,0.6c-6.7,1.2-10.8,0.3-15.3-0.7c-5.4-1.2-11.5-2.5-21.8-0.1c-1.9,0.5-3.7,1-5.3,1.5
			c-6.9,2.4-10.7,5.5-14.2,8.3c-1,0.8-2,1.6-3,2.3c-3.1,2.3-6.7,4.3-13.1,5.9c-0.1,0-0.2,0-0.3,0.1l-0.1,0l-0.1,0
			c-0.2,0.1-0.5,0.1-0.7,0.2c-0.3,0.1-0.6,0.1-0.9,0.2c-0.1,0-0.2,0-0.2,0c-3.4,0.7-6.2,0.9-8.6,0.7c-2.9-0.1-5.3-0.7-7.9-1.2
			c-5.4-1.2-11.5-2.5-21.8-0.1c-10.4,2.4-15.2,6.4-19.5,9.8c-3.6,2.9-6.8,5.5-13.4,7.5c-0.9,0.3-1.9,0.5-3,0.8
			c-8.7,2-13.2,1-18.4-0.1c-4.6-1-9.7-2.1-17.6-0.9l-0.1,0l0,0c-1.3,0.2-2.7,0.5-4.2,0.8C285.5,1118.6,283.5,1117.4,283.1,1115.4z
			 M286.4,1139.8c-1.4-6.1,1.6-12.3,7.3-14.9c5.9-0.8,9.8,0,13.9,0.9c5,1.1,10.7,2.3,19.9,0.5c0.6-0.1,1.3-0.3,1.9-0.4
			c10.4-2.4,15.2-6.4,19.5-9.8c4.2-3.4,7.8-6.3,16.4-8.3c2.2-0.5,4.1-0.8,5.8-1c0.9-0.1,1.7-0.1,2.5-0.2c0.4,0,0.8,0,1.1,0
			c3.4,0,6.1,0.6,9,1.3c3.5,0.8,7.4,1.6,12.5,1.4c0.7,0,1.5-0.1,2.3-0.2c0.5,0,1.1-0.1,1.6-0.2c1.7-0.2,3.5-0.5,5.4-1l0.1,0
			c2.3-0.5,4.3-1.1,6.1-1.8c6.1-2.2,9.8-5.1,13-7.7c0.1-0.1,0.3-0.2,0.4-0.3c4.2-3.4,7.8-6.3,16.4-8.3c2.2-0.5,4.1-0.8,5.8-1
			c0.9-0.1,1.7-0.1,2.5-0.2c0.4,0,0.8,0,1.1,0c3.4,0,6.1,0.6,9,1.3c3.5,0.8,7.4,1.6,12.5,1.4c0.7,0,1.5-0.1,2.3-0.2
			c0.5,0,1.1-0.1,1.6-0.2c1.7-0.2,3.5-0.5,5.4-1c0.6-0.2,1.3-0.3,1.9-0.5c9.1-2.5,13.6-6.1,17.6-9.3c3.3-2.6,6.3-5.1,11.9-7
			c6.2-0.2,11.7,4,13.2,10.1c1.7,7-2.7,14.1-9.7,15.7l-84,19.8l0,0l-130.6,30.8C295.1,1151.2,288.1,1146.8,286.4,1139.8z
			 M509.9,1157.9l-175.3,41.3c-14.7,3.5-29.3-5.6-32.8-20.3l-5.6-24l228.4-53.8l5.6,24C533.7,1139.8,524.6,1154.4,509.9,1157.9z"/>
		<path class="st0" d="M325.8,1093.6L325.8,1093.6l182.8-43.1c-10.9-37.4-49.5-60.3-87.9-51.2l-77.1,18.2
			c-38.4,9-62.7,46.7-55.8,85.1l26.9-6.3l0,0l0.9,3.8l11-2.6L325.8,1093.6z M450.4,1019.2l1.8,7.6l-11.8,2.8l-1.8-7.6L450.4,1019.2z
			 M427.7,1007.1l1.8,7.6l-11.8,2.8l-1.8-7.6L427.7,1007.1z M412.9,1028l1.8,7.6l-11.8,2.8l-1.8-7.6L412.9,1028z M390.2,1015.9
			l1.8,7.6l-11.8,2.8l-1.8-7.6L390.2,1015.9z M375.3,1036.8l1.8,7.6l-11.8,2.8l-1.8-7.6L375.3,1036.8z M352.6,1024.8l1.8,7.6
			l-11.8,2.8l-1.8-7.6L352.6,1024.8z M337.8,1045.7l1.8,7.6l-11.8,2.8l-1.8-7.6L337.8,1045.7z"/>
	</g>
</g>
<g>
	<polygon class="st0" points="240.4,692.1 240.6,691.9 232.8,688.2 	"/>
	<path class="st0" d="M252.4,701.5c-2.9-0.8-5.8-1.7-8.6-2.6c-0.2-0.1-0.4-0.1-0.5-0.2l0,0.1l-3.1-1.1c0,0,0,0,0,0l-6.8-2.3
		c-16.6-5.9-32.4-13.3-46.5-21.9L169,734c-4.2,14.4,4,29.6,18.4,33.8l75.4,22.2c14.4,4.2,29.6-4,33.8-18.5l8.7-29.4l3.1-10.5
		l5.4-18.2l0.7-2.2c-18.1-0.4-37.1-3.3-55.8-8C256.5,702.6,254.5,702.1,252.4,701.5z M294.4,724.6c0.8-2.7,3.6-4.3,6.4-3.5
		c2.7,0.8,4.3,3.6,3.5,6.4c-8.9,30.3-59,41.3-114.1,25.1c-2.7-0.8-4.3-3.6-3.5-6.4c0.8-2.7,3.6-4.3,6.4-3.5
		C241,756.9,287.4,748.6,294.4,724.6z"/>
	<polygon class="st0" points="247.1,693.6 251.1,696.8 309.9,707.8 313.4,706.2 290.9,702.2 	"/>
	<polygon class="st0" points="337.1,766.8 320.3,753.8 314,748.9 308,769.4 	"/>
	<polygon class="st0" points="321.2,741.5 334.1,734.3 320.2,727.8 317.1,738.3 	"/>
	<path class="st0" d="M307.2,613.5c-1.3,0.4-2.6,0.9-3.9,1.5c-2.5,1-4.9,2.2-7.2,3.5c-0.3,0.1-0.5,0.3-0.8,0.4
		c-0.5,0.3-0.9,0.6-1.4,0.9c-1.6,1-3.1,2-4.6,3c-0.9,0.7-1.8,1.4-2.6,2.1c-1.1,0.9-2.1,1.8-3,2.7c-0.9,0.8-1.7,1.7-2.5,2.5
		c-0.1,0.1-0.3,0.3-0.4,0.4c-1,1.1-1.9,2.2-2.8,3.4c-0.8,1-1.5,1.9-2.2,3c-0.3,0.4-0.6,0.9-0.9,1.3c-0.9,1.3-1.7,2.7-2.5,4.1
		c-0.3,0.6-0.7,1.3-1,1.9c-0.7,1.4-1.4,2.9-2,4.4c-0.3,0.7-0.6,1.3-0.9,2c-0.9,2.2-1.7,4.4-2.4,6.9c-1.1,3.6-2.3,7.1-3.6,10.4
		c-0.4,1.1-0.9,2.1-1.3,3.1c-1,2.2-2,4.4-3,6.5c-0.6,1.1-1.1,2.2-1.7,3.2c-1.1,1.9-2.2,3.8-3.4,5.6c-0.6,0.9-1.2,1.9-1.9,2.8
		c-0.2,0.3-0.5,0.7-0.7,1.1c4.8,1.4,9.7,2.7,14.5,3.8c15.6,3.5,31.5,5.4,47.5,5.4l24.9-84.7l1.8-6.3c-1,0-2.1,0-3.1,0
		c-0.3,0-0.6,0-1,0c-1.1,0-2.3,0.1-3.5,0.2c-0.3,0-0.6,0-0.9,0.1c-1.2,0.1-2.5,0.2-3.7,0.3c-0.3,0-0.5,0-0.8,0.1
		c-1.3,0.1-2.6,0.3-3.9,0.5c-0.2,0-0.5,0.1-0.7,0.1c-1.3,0.2-2.7,0.5-4.1,0.7c-0.2,0-0.5,0.1-0.7,0.2c-1.4,0.3-2.8,0.6-4.1,1
		c-0.2,0.1-0.4,0.1-0.7,0.2c-1.4,0.4-2.8,0.8-4.2,1.3C307.6,613.3,307.4,613.4,307.2,613.5z"/>
	<path class="st0" d="M240,686.8c0.7-0.9,1.4-1.7,2.1-2.6c0.7-0.9,1.4-1.9,2.1-2.9c1-1.5,2-3.2,3-4.9c0.6-1,1.2-2,1.8-3.1
		c1-1.9,1.9-3.9,2.8-6c0.4-1,0.9-1.9,1.3-2.9c1.2-3.1,2.4-6.4,3.4-9.8c0.5-1.6,1.1-3.4,1.8-5.4c2.4-6.7,5.5-12.8,9.2-18.2
		c-0.1-1-0.2-2-0.2-2.8c0-0.3,0-0.5-0.1-0.8c0-0.2,0-0.5-0.1-0.7l0,0c0,0,0,0,0-0.1c0-0.3,0-0.6-0.1-0.9c0-0.2,0-0.4,0-0.7
		c0-0.2,0-0.5,0-0.7c0-0.3,0-0.5,0-0.8c0-0.1,0-0.3,0-0.4c0-0.2,0-0.4,0-0.6c0-0.2,0-0.5,0-0.7c0-0.3,0-0.5,0-0.7c0-0.1,0-0.3,0-0.4
		c0-0.1,0-0.2,0-0.3c0-0.2,0-0.3,0-0.4c0-0.1,0-0.3,0-0.4c0-0.1,0-0.2,0-0.2c0-0.1,0-0.2,0-0.2c0-0.1,0-0.3,0.1-0.4
		c0-0.1,0-0.1,0-0.2c0,0,0-0.1,0-0.1c0-0.2,0.1-0.4,0.1-0.6c0.7-2.5,1.3-4.9,1.7-7.2c0.1-0.5,0.1-0.9,0.2-1.4c0.3-1.5,0.5-3,0.6-4.5
		c0-0.4,0.1-0.8,0.2-1.1c0-0.5,0.1-0.9,0.1-1.4c0.1-1.9,0.2-3.8,0.2-5.6c0-0.4,0-0.8,0-1.2c0-0.8-0.1-1.6-0.2-2.3
		c-0.1-1.9-0.3-3.9-0.6-5.7c-0.1-0.3-0.1-0.6-0.2-0.9c-0.3-1.7-0.7-3.3-1.1-4.9c-0.2-0.7-0.4-1.4-0.6-2c-0.4-1.2-0.8-2.4-1.2-3.6
		c-0.4-0.9-0.7-1.8-1.1-2.8c-0.4-0.9-0.8-1.8-1.3-2.8c-0.6-1.2-1.2-2.4-1.9-3.6c-0.1-0.2-0.2-0.4-0.3-0.5c-0.9-1.5-1.8-2.9-2.7-4.3
		c-0.2-0.3-0.4-0.5-0.5-0.8c-0.9-1.3-1.9-2.6-2.9-3.8c-0.3-0.3-0.5-0.6-0.8-0.9c-1-1.1-1.9-2.3-2.9-3.3c-0.3-0.3-0.6-0.7-1-1
		c-1-1-2-2-3-3c-0.3-0.3-0.7-0.6-1-0.9c-1.5-1.4-3-2.6-4.5-3.8c-0.9-0.7-1.7-1.4-2.6-2.1c-0.5-0.4-1-0.7-1.5-1.1
		c-0.9-0.7-1.8-1.3-2.8-2c-0.5-0.3-0.9-0.6-1.4-0.9c-0.7-0.4-1.3-0.8-1.9-1.3l-37.6,127.7c13.6,8.7,28.2,15.8,43.4,21.3
		C238.7,686.4,239.4,686.6,240,686.8z"/>
	<path class="st0" d="M319.2,549.9c0.8-2.7,3.6-4.3,6.4-3.5c2.7,0.8,4.3,3.6,3.5,6.4c-1.4,4.9-5.1,8.5-9.6,10.1
		c1.1,0.3,2.2,0.7,3.1,1.3c0.2-0.3,0.4-0.5,0.6-0.8c2.2-2.7,5.5-3.9,9-3.4c3.5,0.5,6.4,2.8,7.7,6c0.3,0.6,0.5,1.3,0.7,2
		c0.1,0.3,0.4,0.4,0.5,0.5c0.2,0,0.5,0.1,0.9-0.2c0.5-0.4,1.1-0.8,1.7-1.1c-4.7-15.6-18.2-28.6-37.4-36.1c1.1,1.3,1.6,3,1.1,4.7
		c-0.8,2.7,0.8,5.6,3.5,6.4c2.7,0.8,4.3,3.6,3.5,6.4c-0.3,1-0.9,1.8-1.6,2.5l1.4,2.6C316.4,553.7,318.5,552.2,319.2,549.9z"/>
	<path class="st0" d="M366.7,601.2c-0.7-1.4-1.5-2.6-2.8-3.3l0.4-0.3c3-2.1,4.5-5.7,4.1-9.3c-0.5-3.6-2.9-6.6-6.3-7.8
		c-1.7-0.6-3.3-1.1-4.8-1.4c1.8-5.2,0.5-8.9-0.9-11.1c-0.6-1-1.5-1.8-2.6-2.4c-5.8-21.5-25-38.9-52.1-46.9c-5.1-1.5-10-3.1-14.7-4.6
		l-0.3-0.1c-0.6-2.9-2.5-5.4-5.3-6.7c-1.3-0.6-2.7-0.9-4.1-0.9c0-0.3,0-0.7-0.1-1c-0.3-3.4-2.4-6.4-5.5-7.9
		c-3.2-1.5-6.8-1.3-9.7,0.6c-0.6,0.4-1.2,0.8-1.7,1.2c-0.2,0.2-0.5,0.2-0.7,0.2c-0.2,0-0.5-0.2-0.6-0.7c-1.2-3.2-3-5.9-5-7.6
		c-1.9-1.5-4.4-1.8-6.7-0.9c-2.4,1.1-5.6,3.4-7,8.7c-1.5-0.6-3.1-1.1-4.8-1.6c-3.5-0.9-7.2,0.2-9.6,2.9c-2.5,2.7-3.2,6.6-1.7,10.1
		c-1.5,0.3-2.9,0.9-4.2,1.6c-2.8,1.6-4,5-2.8,7.9c1.1,2.8,3.1,6.6,5.9,11.2l-38.5,131c-0.7,0.1-1.4,0.2-2.1,0.5
		c-2.4,0.9-4.2,2.8-4.9,5.3l-18.6,63.1c-5.8,19.8,5.5,40.7,25.4,46.5l75.4,22.2c17.9,5.3,36.6-3.5,44.4-19.8l46.3-4.1l3.8-1.2
		l1.4-5.3l-1.6-2.1l-24.3-19l17.1-9.6l2.1-0.8l1.4-5.2l-2.4-3l-25.1-11.9l1.9-6.5c0.7-2.5,0.3-5.1-1.3-7.1c-0.4-0.6-1-1.1-1.5-1.5
		l24.9-84.7l3.8-1.7c6.1-2.7,10.7-5.1,13.5-7C367.1,607.5,368,604,366.7,601.2L366.7,601.2z M292.6,538.4c2-1.5,3.7-3.3,4.8-5.2
		c-2.1,8,2.5,16.3,10.5,18.7c1.7,0.5,3.5,0.1,4.7-1l-0.7-1.4l-7-8.7l-0.7-13.7l16.6,5.7l27.2,31.9l-3.1,7.8l-16.5-3.9l-9.7-4.5
		l-3.8-8.7l-1-1.9c-0.4,0-0.8-0.1-1.2-0.2c-2.7-0.8-5.6,0.7-6.4,3.5c-0.8,2.7,0.7,5.6,3.5,6.4c0.9,0.3,1.8,0.4,2.7,0.5
		c-1.3,0.7-2.4,1.5-3.3,2.7c-0.4,0.5-0.7,1-1,1.6c-2.2-5.8-6.5-10.8-12.3-13.7c0.8-1.2,1.4-2.5,1.6-3.9c0.5-3.5-0.7-6.9-3.4-9.2
		c-0.5-0.4-1.1-0.9-1.6-1.3c-0.3-0.2-0.4-0.4-0.4-0.6C292.2,539.1,292.2,538.8,292.6,538.4z M299.7,575.1l0.1,0.7
		c0.1,1,0.1,1.9,0,2.8c-0.1,0.9-0.2,1.8-0.5,2.8c-0.4,1.2-0.8,2.2-1.4,3.2c-0.2,0.3-0.4,0.6-0.6,0.9c-0.4,0.6-0.8,1.1-1.2,1.5
		c-0.1,0.1-0.2,0.2-0.3,0.3c-2.3-1.7-4.9-3-7.8-3.9c-1.4-0.4-2.8-0.7-4.3-0.8c-0.4,0-0.8-0.1-1.2-0.1c-1-0.1-1.9-0.1-2.9,0
		c-0.2,0-0.4,0-0.6,0c-0.9-4.5-2.3-8.8-4-12.8c1.3-0.8,2.6-1.6,3.8-2.5c0.4-0.3,0.8-0.5,1.2-0.8c0.2-0.1,0.4-0.3,0.6-0.4
		c0.2-0.1,0.4-0.3,0.6-0.4c0.5-0.4,1-0.7,1.5-1.1c0.3-0.3,0.7-0.5,1-0.8c0.6-0.5,1.2-0.9,1.8-1.4c0.2-0.2,0.5-0.4,0.7-0.5
		c0.9,0.1,1.8,0.2,2.6,0.5C294.9,564.1,298.9,569.2,299.7,575.1z M280.4,592.6c0.9,0,1.9,0.1,2.8,0.2c0.2,0,0.4,0.1,0.7,0.1
		c0.8,0.2,1.7,0.4,2.5,0.7c0.1,0,0.2,0.1,0.3,0.1c1.9,0.8,3.8,2.1,5.3,3.7l0.3,0.4c0.6,0.6,1.1,1.3,1.5,2c0.2,0.3,0.3,0.6,0.4,0.8
		c0.3,0.6,0.6,1.2,0.8,1.9c0.1,0.3,0.2,0.7,0.3,1c0.2,0.7,0.3,1.4,0.4,2.1c0,0.3,0.1,0.6,0.1,0.9c0,0.1,0,0.2,0,0.3
		c-0.2,0.1-0.4,0.2-0.7,0.3c-0.8,0.4-1.6,0.8-2.4,1.2c-1.4,0.7-2.7,1.5-4,2.3c-4.2,2.5-8.1,5.4-11.6,8.6c0.7-2.5,1.2-4.9,1.7-7.3
		c0.2-0.8,0.3-1.6,0.4-2.5c0.3-1.8,0.5-3.5,0.7-5.2c0.1-1.2,0.2-2.4,0.3-3.5c0.1-1.1,0.1-2.3,0.1-3.4
		C280.5,595.9,280.5,594.2,280.4,592.6z M233.4,515.3c1.3-2.4,1.5-5.2,0.4-7.7c1.1,0.3,2,0.6,2.9,1c2.6,1.1,5.5,1.1,8.1-0.2
		c2.3-1.1,4-3,5-5.3c1.4,3,3.9,5.2,7,6.2c0,0,0,0,0,0c3.4,1,6.9,0.3,9.8-1.8c0.2-0.2,0.4-0.3,0.6-0.4c0,1.2-0.1,2.9-0.8,4.8
		l-2.4,6.8l7.2,0.1c2.2,0,4.2-0.6,5.7-1.9c0,1.1,0,2.1-0.1,3.1c-0.3,2.8,0.6,5.6,2.5,7.7c1.7,1.8,4.1,3,6.5,3.2
		c-2.5,2.2-3.9,5.2-3.9,8.5c0,3.5,1.7,6.7,4.6,8.8c0.2,0.2,0.5,0.4,0.7,0.5c-1.2,0.6-2.5,1.5-4.3,2.9l0,0l-0.1,0.1
		c-0.7,0.5-1.4,1.1-2.3,1.7c-0.9,0.6-1.8,1.4-2.8,2.1c-0.3,0.2-0.6,0.4-0.9,0.6c-0.8,0.6-1.7,1.2-2.5,1.8c-0.3,0.2-0.6,0.4-0.9,0.6
		c-1,0.7-2.1,1.4-3.1,2c-9.9-16.4-25.1-27.8-36.9-34.6c-0.6-0.3-1.2-0.5-1.8-0.7c-0.1,0-0.1-0.1-0.2-0.1c-1.3-2.2-2.3-3.9-3-5.3
		C230.6,518.9,232.3,517.3,233.4,515.3z M344.2,769.6l-41.8,6.8l7.6-31.2L344.2,769.6z M342.3,735.6l-21.1,9.7l-8.3-4l3.9-18.7
		l3.4-0.6L342.3,735.6z M328.6,663.2l-12.3,41.7l-3,1.3l5.5,1c0,0-1.4,7.5-14.3,51.4c-9.3,45-34.9,37.4-34.9,37.4
		s-63.9-12.5-90-26.5c-26.1-14-12.9-45.2-12.9-45.2l16.2-54.9l5.9-3.8l14-47.6l24.3-82.7l2.2-7.3l30.3,24L277,590l-1.9,33.6
		l-8.8,16.5l-7.1,24.1l15.4-36l37.1-23.3l34.7-1.7L328.6,663.2z M353.9,596.4c-0.3,2.3,0.3,4.5,1.5,6.4c-1.2,0.6-2.6,1.4-4.4,2.2
		l1.8-6.1l-6.4-0.4c-1.5-0.1-3.1-0.2-4.8-0.2c-1.3,0-2.5,0-3.7,0c-0.1,0-0.2,0-0.2,0c-12.3,0-22.8,1.8-31.8,4.7c0,0,0-0.1,0-0.1
		c0-0.2-0.1-0.4-0.1-0.6c-0.2-0.8-0.4-1.5-0.7-2.2c-0.1-0.4-0.2-0.9-0.4-1.3c-0.1-0.2-0.1-0.3-0.2-0.5c-0.3-0.8-0.7-1.5-1.1-2.3
		c-0.2-0.4-0.3-0.8-0.5-1.1c0.8-0.8,1.6-1.7,2.3-2.7c0,0,0.1-0.1,0.1-0.1c0.8-1.1,1.5-2.2,2.1-3.3c0.1-0.2,0.3-0.5,0.4-0.7
		c0.6-1.2,1.1-2.5,1.5-3.8c0.4-1.3,0.6-2.5,0.8-3.9c2.3-0.7,4.4-2.3,5.6-4.7c0.4-0.8,0.9-1.6,1.5-2.4c0.7,1.9,2,3.4,3.8,4.6l6,4
		l1.8-7c0.5-2,1.3-3.5,2.1-4.5c0.1,0.2,0.2,0.5,0.3,0.8c1.2,3.4,3.7,5.9,7.1,7c0.8,0.2,1.6,0.3,2.4,0.4c0.4,0,0.8,0,1.2,0
		c0.5,0,0.9,0,1.4-0.1c0.3,0,0.7-0.1,1-0.2c0.5-0.1,1-0.2,1.5-0.4c0.3-0.1,0.6-0.3,0.9-0.4c0.3-0.2,0.7-0.3,1-0.5
		c-0.5,2.5-0.1,5,1.1,7.2c1.4,2.5,3.8,4.2,6.6,4.7c0.9,0.2,1.8,0.4,2.8,0.7C355.6,591.3,354.2,593.7,353.9,596.4z"/>
	<polygon class="st0" points="232.8,688.2 188.7,665.8 197.4,671.5 	"/>
	<polygon class="st0" points="242.1,692.6 247.1,693.6 243.4,690.6 249.6,680.2 240.6,691.9 	"/>
	<polygon class="st0" points="257.4,670.1 259.1,664.2 249.6,680.2 	"/>
</g>
</svg>
