<?xml version="1.0" encoding="utf-8"?>
<!-- Generator: Adobe Illustrator 23.1.0, SVG Export Plug-In . SVG Version: 6.00 Build 0)  -->
<svg version="1.1" id="Слой_1" opacity="0.5" xmlns="http://www.w3.org/2000/svg" xmlns:xlink="http://www.w3.org/1999/xlink"
	 x="0px" y="0px" viewBox="0 0 700 657.7" style="enable-background:new 0 0 700 657.7;" xml:space="preserve">
<style type="text/css">
	.st0{fill:#1C1C1A;}
</style>
<g>
	<path class="st0" d="M279.3,104.1c1.9-0.5,3.7-1.3,5.4-2.3l0.1,1.4c-2.2,1.2-4.5,2.1-7,2.7c-3.6,0.8-7.2,0.8-10.9,0.1
		c-4.7-0.9-8.7-2.9-12.2-6c-3.5-3.1-6-6.9-7.6-11.3c-1.5-4.5-1.8-9-0.9-13.6c0.9-4.7,3-8.7,6-12.2c3.1-3.5,6.8-6,11.3-7.6
		s9-1.8,13.6-0.9c6.3,1.3,11.5,4.4,15.5,9.4l-2,1.6c-4-5.1-9-8.2-15.3-9.5c-6.3-1.1-12,0-17.2,3.4c-3.6,2.4-6.3,5.5-8,9.4
		c-1.8,3.9-2.5,8-2.2,12.4s1.8,8.4,4.3,12.3c3.1,4.6,7.2,7.8,12.2,9.8C269.5,105.1,274.5,105.5,279.3,104.1z"/>
	<path class="st0" d="M305.5,63.6c4.5-1.6,9-1.8,13.6-0.9s8.7,3,12.2,6.1s6,6.9,7.6,11.3c1.6,4.5,1.8,9,0.9,13.6
		c-0.9,4.7-3,8.7-6.1,12.2s-6.9,6-11.3,7.6c-4.5,1.6-9,1.8-13.6,0.9c-4.7-0.9-8.8-3-12.3-6.1s-6-6.9-7.6-11.3
		c-1.5-4.4-1.8-9-0.9-13.6c0.9-4.7,3-8.7,6-12.2C297.2,67.7,301,65.1,305.5,63.6z M316,113.2c4.3-0.2,8.2-1.4,11.8-3.8
		c3.6-2.4,6.3-5.5,8.1-9.5c1.8-3.9,2.6-8,2.2-12.4c-0.3-4.4-1.8-8.4-4.3-12.2c-2.5-3.8-5.7-6.7-9.7-8.7c-3.9-2-8-2.9-12.3-2.8
		c-4.3,0.2-8.2,1.4-11.8,3.8c-3.6,2.4-6.3,5.5-8,9.5c-1.8,3.9-2.5,8-2.2,12.4s1.8,8.4,4.3,12.2s5.7,6.7,9.7,8.7
		C307.6,112.5,311.8,113.4,316,113.2z"/>
	<path class="st0" d="M351.6,120.8l0.7,1.4l-14.7-3l10-50l2.4,0.5l-9.8,48.8L351.6,120.8z"/>
	<path class="st0" d="M380.4,75l3.4,53.6l-2.4-0.5l-1.2-19.8l-14.8-3l-8.8,17.8l-1.3-0.3l22.8-46.1L380.4,75z M366,104.2l14,2.8
		l-1.8-27.7L366,104.2z"/>
</g>
<g>
	<path class="st0" d="M339.1,255.9c1.4-0.8,2.8-1.4,4.5-1.7c4.1-0.9,7.9-0.1,11.5,2.2c3.5,2.3,5.7,5.5,6.6,9.6
		c0.6,3.1,0.4,6.1-0.9,9c-1.2,2.9-3.1,5.2-5.6,6.9l17.5,16.4l-2.2,0.5l-17-15.9c-1.1,0.6-2.3,1-3.6,1.2c-0.8,0.1-1.6,0.3-2.4,0.3
		l3.8,18.4l-2.3,0.5L339.1,255.9z M347.2,283.2c0.8,0,1.5,0,2.4-0.2c3.5-0.7,6.1-2.6,8.1-5.8c1.9-3.2,2.5-6.7,1.7-10.6
		c-0.4-1.9-1.1-3.6-2.1-5.1s-2.2-2.8-3.6-3.8s-2.9-1.7-4.6-2.1s-3.4-0.4-5.1-0.1c-0.8,0.2-1.6,0.4-2.3,0.7L347.2,283.2z"/>
	<path class="st0" d="M377.6,296.1l10.6-2.2l1.2,0.9l-13.9,2.9l-9.7-47.3l13.9-2.9l-0.7,1.4l-10.6,2.2l3.4,16.3l9.2-1.9l-0.6,1.3
		l-8.4,1.8L377.6,296.1z"/>
	<path class="st0" d="M405.7,248.9c3.8,2.5,6.6,5.7,8.6,9.7c2,3.9,2.8,8.1,2.6,12.6c-0.2,4.4-1.6,8.5-4.1,12.2
		c-2.1,3.2-4.8,5.7-7.9,7.6c-3.2,1.9-6.6,3.1-10.2,3.4c-0.8,0.1-1.7,0.1-2.4,0.1l-9.9-47.9c0.7-0.3,1.5-0.5,2.3-0.8
		c3.5-1.1,7-1.4,10.8-0.9C399.1,245.6,402.5,246.8,405.7,248.9z M396.8,293c3.9-0.8,7.4-2.6,10.4-5.4c2.9-2.8,5.1-6.2,6.3-10.1
		c1.2-4,1.4-8,0.5-12.3c-0.6-3.1-1.8-6-3.6-8.6c-1.7-2.6-3.9-4.8-6.2-6.4c-2.4-1.6-5.1-2.9-8.1-3.5c-3-0.7-6-0.7-8.9-0.1
		c-0.8,0.1-1.6,0.3-2.3,0.6l9.5,46.2C395.2,293.2,396,293.2,396.8,293z"/>
	<path class="st0" d="M445.8,254.2c2.9,0.6,5.6,1.9,7.8,4.1c2.2,2.1,3.6,4.8,4.3,7.9c0.9,4.1,0.1,7.9-2.2,11.5
		c-2.3,3.5-5.5,5.7-9.6,6.6c-1.6,0.3-3.2,0.4-4.8,0.2l-9.6-46.9c0.2-0.3,0.5-0.5,0.8-0.6c1.1-0.8,2.3-1.2,3.6-1.5
		c2.8-0.6,5.3-0.1,7.7,1.5c2.4,1.6,3.8,3.7,4.4,6.5c0.4,1.9,0.2,3.7-0.3,5.5c-0.7,1.8-1.7,3.2-3.1,4.4c-0.2,0.3-0.6,0.5-0.9,0.7
		C444.3,253.9,445.1,254,445.8,254.2z M445.7,282.9c3.5-0.7,6.1-2.6,8.1-5.8c1.9-3.2,2.5-6.7,1.7-10.5s-2.7-6.8-5.7-9
		c-3-2.2-6.3-2.9-9.7-2.2l-2.3,0.5l5.6,27.3C444.1,283.1,444.9,283,445.7,282.9z M433.9,237.3l3.6,17.3l2.3-0.5
		c2.1-0.5,3.7-1.6,4.9-3.7c1.1-2,1.5-4.3,1-6.7c-0.5-2.5-1.7-4.4-3.5-5.8c-1.9-1.4-3.9-1.9-5.9-1.5
		C435.3,236.6,434.6,236.9,433.9,237.3z"/>
	<path class="st0" d="M472.3,228.6l1.1-0.2l7.9,38.3c0.6,2.7,0.1,5.2-1.4,7.5s-3.6,3.7-6.3,4.3c-1.8,0.4-3.5,0.3-5.1-0.3
		c-1.7-0.6-3.2-1.5-4.3-2.8c-1.2-1.3-2-2.9-2.3-4.7l-7.9-38.3l2.3-0.5l7.9,38.3c0.5,2.4,1.7,4.3,3.6,5.6c1.9,1.4,4,1.8,6.2,1.4
		c2.2-0.5,4-1.7,5.1-3.7c1.2-2,1.6-4.2,1.1-6.6L472.3,228.6z"/>
	<path class="st0" d="M498.5,271.2l1.2,0.9l-13.9,2.9l-9.7-47.3l2.3-0.5l9.5,46.2L498.5,271.2z"/>
	<path class="st0" d="M515.2,267.8l1.2,0.9l-13.9,2.9l-9.7-47.3l2.3-0.5l9.5,46.2L515.2,267.8z"/>
</g>
<g>
	<path class="st0" d="M247.7,355.2l-9.7-4.8l-7.4,14.9l8.5,4.2l-1.3,0.7l-7.7-3.8l-13,26.3l-2.1-1l21.4-43.3l12.7,6.3L247.7,355.2z"
		/>
	<path class="st0" d="M256.1,357.2l-10,49.8l-2.1-1l3.7-18.3l-12.7-6.3l-12.3,14.1l-1.1-0.5l32.1-36.5L256.1,357.2z M235.8,380.3
		l12.1,6l5.2-25.8L235.8,380.3z"/>
	<path class="st0" d="M286.9,373.3l1,0.5l-21.4,43.3l-0.7-0.4l0.1-0.9l2.2-44.2l-18.4,37.1l-1.1-0.5L270,365l0.7,0.4v1l-2.2,44.2
		L286.9,373.3z"/>
	<path class="st0" d="M291.4,375.5l16.9,8.3l-1.4,0.6l-7-3.5L279,423.2l-2.1-1l20.9-42.2l-7.9-3.9L291.4,375.5z"/>
	<path class="st0" d="M317.8,387.8l-10,49.8l-2.1-1l3.7-18.3l-12.7-6.3l-12.3,14.1l-1.1-0.5l32.1-36.5L317.8,387.8z M297.5,410.9
		l12.1,6l5.2-25.8L297.5,410.9z"/>
</g>
<g>
	<path class="st0" d="M328.9,566.3c0.8,2.2,1.1,4.8,0.8,7.7c-0.3,2.7-1.5,5-3.6,6.7s-4.6,2.5-7.2,2.3c-1.8-0.2-3.4-0.7-4.8-1.7
		s-2.5-2.2-3.3-3.8c-0.5-0.8-0.7-1.7-0.9-2.6l2.2-2.1c-0.1,1.8,0.2,3.4,1,4.9c1.2,2.5,3.2,3.8,5.8,4.1c2.1,0.2,4-0.5,5.6-2
		s2.6-3.6,2.8-5.9c0-0.1,0-0.2,0-0.4s0.1-0.4,0-0.6c0-0.2,0-0.4,0-0.7s0.1-0.6,0-0.9c0-0.3,0-0.7-0.1-1c-0.1-0.4-0.1-0.8-0.2-1.2
		c-0.1-0.5-0.2-0.9-0.3-1.3c-0.5-1.6-1.2-3-2.1-4.2s-1.8-2.3-2.8-3.2s-2-1.8-3-2.6s-2-2-3-3.2c-1-1.3-1.8-2.8-2.3-4.3
		c-0.9-2.3-1.2-4.8-0.8-7.7c0.3-2.7,1.5-5,3.6-6.7s4.6-2.5,7.2-2.3c1.8,0.2,3.4,0.7,4.7,1.7c1.4,1,2.5,2.2,3.3,3.8
		c0.4,0.8,0.7,1.7,0.9,2.6l-2.2,2.1c0.1-1.8-0.2-3.4-1-4.9c-1.3-2.5-3.3-3.9-5.8-4.1c-2.1-0.2-4,0.5-5.6,2s-2.6,3.6-2.8,5.9
		c0,0.1,0,0.2-0.1,0.5c0,0.3-0.1,0.5-0.1,0.7s0,0.5,0,0.9s0,0.8,0.1,1.1c0.1,0.4,0.1,0.8,0.2,1.3s0.2,1,0.4,1.5
		c0.5,1.3,1,2.5,1.7,3.6s1.5,2,2.2,2.8c0.8,0.8,1.6,1.5,2.5,2.3s1.7,1.6,2.5,2.4c0.8,0.8,1.6,1.7,2.4,2.8
		C327.8,563.7,328.4,564.9,328.9,566.3z"/>
	<path class="st0" d="M351.2,540.3c2.7,3.2,3.9,7,3.5,11.2s-2.2,7.7-5.4,10.3c-3.2,2.7-7,3.9-11.1,3.5c-0.8-0.1-1.6-0.2-2.4-0.4
		l-1.7,18.7l-2.3-0.2l4.4-48.1c1.6-0.4,3.2-0.5,4.8-0.3C345.1,535.3,348.5,537.1,351.2,540.3z M347.6,560.8c2.8-2.5,4.3-5.7,4.6-9.6
		c0.3-3.9-0.6-7.3-2.8-10.2c-2.3-3-5.2-4.6-8.7-4.9c-0.8-0.1-1.7-0.1-2.4,0l-2.5,27.6c0.7,0.2,1.5,0.4,2.3,0.5
		C341.7,564.5,344.9,563.3,347.6,560.8z"/>
	<path class="st0" d="M358.8,537.3c1.5-0.4,3.1-0.5,4.8-0.3c4.1,0.4,7.6,2.2,10.3,5.4c2.7,3.2,3.9,7,3.5,11.1
		c-0.3,3.2-1.4,5.9-3.4,8.3c-2,2.4-4.5,4-7.3,4.9l12,20.8l-2.3-0.2l-11.7-20.2c-1.3,0.2-2.5,0.3-3.8,0.1c-0.8-0.1-1.6-0.2-2.4-0.4
		l-1.7,18.7l-2.3-0.2L358.8,537.3z M358.6,565.7c0.7,0.2,1.5,0.4,2.3,0.5c3.5,0.3,6.6-0.7,9.4-3.3c2.8-2.5,4.3-5.7,4.7-9.6
		c0.2-1.9,0-3.8-0.5-5.5c-0.5-1.8-1.3-3.4-2.3-4.7s-2.3-2.5-3.8-3.3c-1.6-0.9-3.1-1.4-4.9-1.6c-0.8-0.1-1.7-0.1-2.4,0L358.6,565.7z"
		/>
	<path class="st0" d="M381.4,587.9l4.4-48.1l2.3,0.2l-4.4,48.1L381.4,587.9z"/>
	<path class="st0" d="M392.1,540.4l18.8,1.7l-1.1,1.1l-7.7-0.7l-4.3,46.9l-2.3-0.2l4.3-46.9l-8.8-0.8L392.1,540.4z"/>
	<path class="st0" d="M411.8,589.5l10.8,1l0.9,1.2l-14.1-1.3l4.4-48.1l14.1,1.3l-1.1,1.1l-10.8-1l-1.5,16.6l9.4,0.8l-0.9,1.1
		l-8.6-0.8L411.8,589.5z"/>
</g>
</svg>
