<?xml version="1.0" encoding="utf-8"?>
<!-- Generator: Adobe Illustrator 23.1.0, SVG Export Plug-In . SVG Version: 6.00 Build 0)  -->
<svg version="1.1" id="Слой_1" xmlns="http://www.w3.org/2000/svg" xmlns:xlink="http://www.w3.org/1999/xlink" x="0px" y="0px"
	 viewBox="0 0 1456.1999512 1233.4516602" enable-background="new 0 0 1456.1999512 1233.4516602" xml:space="preserve">
<g>
	<path fill="#333333" d="M1115.2910156,505.9670715c0.3964844-1.3683472,0.2344971-2.8504639,0.0684814-4.2518311
		c-1.2103271-10.2146301-2.3706055-19.993927-3.4851074-29.3846436c2.8973389,1.4488525,6.0325928,3.0178223,9.4824219,4.7563477
		c1.8094482,0.9116211,4.076416,0.0067139,4.5820313-1.8465881c0.2617188-0.9588318,0.0383301-2.0576782-0.1838379-3.0999451
		c-2.7663574-12.9571228-5.3922119-25.2425232-7.8862305-36.9104004c3.2044678,1.5604858,6.8050537,3.3029175,11,5.3597717
		c1.3964844,0.6844482,3.2590332-0.1670227,3.7659912-1.7375183c0.2624512-0.8130188,0.1447754-1.723175,0.0241699-2.5864868
		c-1.7039795-12.2009277-3.3212891-23.7582092-4.8547363-34.721283c-0.7119141-5.0881348-1.4067383-10.0529175-2.0836182-14.8989563
		c-0.3198242-2.2879028-0.6351318-4.5498047-0.9471436-6.7857971c-0.1201172-0.8626709-0.2838135-6.1699219-0.913208-6.5556946
		c-0.2072754-1.4889221-1.8513184-2.460083-3.2971191-2.0206604c-19.7518311,6.003418-38.5662842,13.7705688-61.2578125,21.192627
		c-2.3269043,0.8050232-2.5950928,3.3048096-0.9311523,4.8147583c3.012085,2.7331543,6.0870361,5.1869812,9.2084961,7.4845581
		c-11.7320557,3.3217468-23.9611816,6.8040771-37.3679199,10.1505737c-2.9117432,0.7792358-3.1152344,3.7197266-0.9156494,5.6321716
		c2.5611572,2.2268982,5.1488037,4.3180237,7.7585449,6.3150635c-9.1894531,3.4220886-18.8005981,7.072998-28.9258423,11.046875
		c-3.7387085,1.4675293-4.5842285,5.3215027-2.2141113,7.593689c13.3458862,12.7964478,28.0092163,21.3947754,42.9275513,31.0546265
		c-0.4333496,0.6734009-0.8575439,1.3518066-1.255127,2.0436707c-1.2543945,2.1820984-15.1420898,26.0117493-15.4681396,25.8317566
		c6.2583008,4.54599,7.7149658,6.1687012,13.4661865,8.38797c-0.5539551-0.3864136,8.8106689-14.9355469,16.8190918-27.3916931
		c13.1950684,8.2107239,24.2755127,12.9346924,47.2867432,23.8341675
		C1111.7526855,510.2495728,1114.5223389,508.6200256,1115.2910156,505.9670715z"/>
	<g>
		<path fill="#333333" d="M1238.5675049,609.192749c6.7049561-12.3504028,7.9316406-24.6004028,5.8673096-38.3999023
			c-0.5279541-3.5293579-2.0889893-6.4943848-2.692749-10.0970459c-0.6619873-3.9506836,2.791748-6.6872559,4.8530273-9.8179321
			c2.8082275-4.2653198,5.1051025-8.9154053,7.213623-13.5630493c3.2836914,12.4528198,3.4572754,24.5297241,1.463501,37.1082764
			c-0.4359131,2.7511597,3.4450684,4.0463867,3.9621582,1.241272c2.8356934-15.3860474,1.7216797-29.6243896-3.0305176-44.5501709
			c0.3753662-1.1149292,0.7108154-2.1970825,1.0740967-3.3179932c2.4648438-7.604187,5.6114502-14.9465332,8.2456055-22.507843
			c1.642334,5.3545532,3.9119873,10.3520813,4.6890869,15.9729919c1.1350098,8.2084351-0.7642822,15.9974365-2.5648193,23.942627
			c-0.7602539,3.3538208,3.1968994,4.2490845,4.3616943,1.0472412c2.8642578-7.8751831,4.4543457-16.2582397,3.4482422-24.7453613
			c-1.0493164-8.8512573-4.8519287-16.78125-7.5095215-25.1744385c2.2286377-10.6838684,4.1149902-21.3998413,5.3626709-32.252655
			c8.708374,8.0431213,13.7042236,16.4657593,17.2188721,27.7817993c0.9672852,3.1137085,5.1663818,1.408844,4.442627-1.7548218
			c-3.1635742-13.826355-10.5401611-23.3681335-21.130127-32.6828918
			c0.0753174-13.7720337-0.6387939-27.3383179-2.4499512-40.986145
			c13.5335693,4.9414673,21.7114258,12.3613892,29.4299316,24.4362793c1.7944336,2.8071899,5.524292-0.0454407,3.9107666-2.9678955
			c-8.0006104-14.4911194-18.6043701-22.2419128-34.3602295-27.3292236
			c-1.647583-6.9917908-3.5720215-13.8543091-5.7525635-20.7000732c5.993042-0.4113159,11.4891357-0.1603088,17.2598877,1.6619873
			c5.255249,1.6594543,9.543457,4.5861511,13.9503174,7.8373718c2.5180664,1.8575439,5.3243408-1.5019531,3.2106934-3.8102722
			c-4.5317383-4.9490356-10.3723145-7.5973511-16.7834473-9.6537476
			c-6.4107666-2.0568237-12.7921143-1.8336792-19.4284668-1.1721497c-0.5909424-1.3643188-1.0523682-2.7866516-1.6799316-4.149231
			c-3.2874756-7.1352234-6.932251-14.0863037-10.713623-20.9636536c14.413208-2.4345398,25.6137695-1.6569824,37.2277832,7.5765991
			c2.5385742,2.0180664,6.3670654-0.2322083,4.1015625-2.6774902
			c-9.4317627-10.1807556-20.0162354-11.9415588-33.4376221-11.7388611
			c-2.1652832,0.0326233-4.2833252,0.752533-6.4249268,1.0536499c-1.5290527,0.2146912-3.0441895,0.5877686-4.5279541,1.0307007
			c-0.0161133,0.0049744-0.0455322,0.0282593-0.0632324,0.0352173
			c-9.8647461-14.7131958-20.7797852-28.3233643-32.6241455-41.4933777
			c5.2160645,0.7387085,10.6264648,0.7592773,15.6480713,2.4292908c7.3343506,2.4393921,12.2957764,7.2910767,17.84375,12.395752
			c2.3417969,2.1544495,5.4372559-1.0284729,3.4436035-3.4978333c-4.9039307-6.0739136-10.4390869-10.8510742-18.0174561-13.5437012
			c-7.9039307-2.8082886-16.6618652-2.6311646-24.9421387-3.712677
			c-7.4866943-6.3478088-15.1274414-12.4716492-23.0203857-18.3009338
			c10.9448242-4.0778503,20.9553223-5.2578735,32.40979-3.1211243c3.1518555,0.5877686,4.8406982-3.7931213,1.6448975-4.6477051
			c-13.965332-3.7346497-25.7454834-0.6964417-38.9422607,4.4099121
			c-10.3684082-6.1759949-20.9608154-11.7671509-31.9257813-16.7980652
			c11.9112549-8.5385437,24.1987305-12.4382324,38.6555176-13.2137604c3.3612061-0.1803894,4.128418-4.7666626,0.640625-4.7895966
			c-17.2929688-0.1139526-30.647583,5.7022095-44.3846436,15.9413452c-6.2907715-2.2594299-12.5906982-4.4369202-19.02771-6.2673035
			c3.5528564-5.3260193,7.626709-10.0525208,12.6418457-14.0154724c4.5667725-3.6087952,9.8284912-6.2243805,15.0738525-8.223877
			c2.9969482-1.1423798,2.8143311-5.3743591-0.5181885-4.7325287c-7.1446533,1.376358-12.8980713,5.4824066-18.6052246,9.8545685
			c-5.7072754,4.3721619-9.7164307,9.938385-13.6160889,15.8913879c-1.3951416-0.2601318-2.7615967-0.6729431-4.1650391-0.9741821
			c-7.3449707-1.5770874-14.7445068-2.6904449-22.2075195-3.3814087
			c7.3220215-13.3187714,15.9869385-23.2597656,30.2025146-28.3596497c3.1066895-1.1143951,4.4139404-5.9227142,1.0716553-4.9835052
			c-18.258667,5.1301422-27.333374,17.1048431-36.6512451,32.8655853
			c-15.3280029-1.255127-30.4086914-1.469162-45.7297363,0.0317535c4.0688477-4.0359192,8.0997314-8.8140259,12.6154785-12.2252502
			c6.5952148-4.981781,13.8685303-7.0892639,21.538208-8.9247894c3.2375488-0.7745819,3.6031494-5.4299622,0.1273193-5.1271362
			c-8.5494385,0.7453461-15.7297363,3.399704-22.8383789,8.4466248c-7.4140625,5.263504-13.418457,12.8703918-19.9700928,19.227356
			c-10.0893555,2.095459-19.9821167,4.5882263-29.7176514,7.9329529
			c4.3599243-11.9754028,10.3508911-22.2052307,19.4102173-30.9602814c2.4927368-2.409317,0.5492554-6.601593-2.223999-4.2602997
			c-12.1210938,10.2331696-17.8266602,22.9309387-23.1513672,37.567749
			c-12.1320801,5.4960022-23.6519165,11.7677612-34.7642822,19.101593
			c0.6266479-15.8223572,5.0505371-29.0486145,13.4264526-42.2471466c1.9472656-3.0681152-1.1044922-6.2869263-3.2973633-3.2284393
			c-10.8742676,15.1659851-14.5324097,30.4853821-14.9552612,48.9928894
			c-5.602356,4.5249329-11.0494995,9.1822205-16.319397,14.1065063c-1.9299316-6.4141846-3.1072998-12.5085754-3.0018311-19.2741394
			c0.0961304-6.1609497,1.5308228-12.4780579,3.2558594-18.2909546c0.9855347-3.3216553-2.5692749-5.1393127-4.0982056-1.9216614
			c-3.2779541,6.899231-4.0135498,14.7281494-4.1985474,22.2911682c-0.1848145,7.5628052,1.7958374,14.1160278,4.0420532,21.1801147
			c-1.0291748,1.1226807-2.1134033,2.1879883-3.1416016,3.3479309c-5.3809204,6.0705566-10.472168,12.4339294-15.470459,18.8047791
			c-5.6356201-14.6527405-6.9899902-28.0092163-1.9110107-42.7023315c1.1101685-3.2115173-1.802124-6.9328308-3.1871338-3.6100769
			c-7.3397827,17.6069641-5.1148682,31.5999756,0.7276001,49.6182251c0.2947998,0.9086304-2.9425659,5.5478516-3.5574951,6.6129456
			c-1.4455566,2.5035706-2.4604492,4.7518005-3.5990601,7.164917c-3.6659546,7.7677917-6.8129272,15.4787292-9.9434204,23.509491
			c-0.8963013,2.2987976-1.5803223,4.3262939-2.5891724,6.942688c-0.5448608,1.4124451-2.4085693,4.3513184-2.1948853,6.2310486
			c-1.5806274-5.3033447-3.7681885-10.2861328-4.4649658-15.894165c-1.0171509-8.1894531,1.0161743-15.9611511,2.8977661-23.869873
			c0.7944946-3.3385925-3.1675415-4.2171631-4.3689575-1.0391541c-2.9552002,7.816864-4.6580811,16.1825867-3.784729,24.6494446
			c0.9105225,8.8302307,4.6165771,16.7101135,7.1286621,25.0971069
			c-2.4057617,10.6229858-4.4785156,21.2876587-5.9031372,32.0983276
			c-8.6022949-8.0994568-13.4755859-16.4959412-16.836853-27.822113c-0.9247437-3.1164856-5.1607666-1.4321594-4.482666,1.7282104
			c2.9632568,13.8130493,10.2189941,23.3640137,20.6745605,32.7413635
			c-0.3010864,13.744812,0.1943359,27.2950134,1.7943726,40.9449768
			c-13.4619751-5.0189514-21.5324707-12.5299377-29.1004028-24.6371765
			c-1.7595825-2.8148804-5.5316772-0.0021057-3.9602051,2.9297485c7.7909546,14.537262,18.3167725,22.4108887,33.9901733,27.5725403
			c1.5471191,6.996582,3.3672485,13.8696899,5.4570313,20.7250061c-5.9929199,0.3744507-11.5093384,0.0582886-17.2636719-1.7940979
			c-5.2402954-1.686676-9.4746094-4.6496277-13.8441162-7.9233704c-2.496582-1.8706055-5.3656616,1.4539795-3.2788696,3.779541
			c4.473877,4.9851379,10.2715454,7.6572876,16.6575928,9.7603149c6.3856812,2.1031189,12.8070679,1.9609375,19.4437866,1.3395691
			c0.5737915,1.3700562,1.0120239,2.7988586,1.6207886,4.1688232c3.1868286,7.1739807,6.7584839,14.1521912,10.444458,21.0741272
			c-14.394043,2.2684326-25.65448,1.4736328-37.1417847-7.8659668c-2.5110474-2.0412598-6.3942261,0.1861572-4.1558228,2.6538696
			c9.3201294,10.2730103,19.9074707,12.0084839,33.2860718,11.9862061c2.157959-0.0032959,4.3266602-0.7250366,6.4633789-0.9942627
			c1.5252686-0.1925049,3.0625-0.5579224,4.5472412-0.9871826c0.0158691-0.0045166,0.0466309-0.0290527,0.0640869-0.0343628
			c9.7110596,14.8338623,20.4949341,28.5469971,32.2379761,41.8272095c-5.206543-0.7642822-10.62146-0.8514404-15.6242676-2.5479736
			c-7.3061523-2.4777222-12.1699219-7.3566284-17.6588745-12.4926758c-2.3170776-2.1677856-5.4533691,1.0043945-3.4896851,3.4856567
			c4.8295898,6.1030884,10.2623291,10.9019165,17.817627,13.6398315c7.8799438,2.8555908,16.6503296,2.7655029,24.927124,3.8949585
			c7.4645386,6.4105225,15.0945435,12.5795288,22.9822998,18.4528198
			c-10.9507446,3.9802246-20.9451294,5.1646118-32.3615723,2.979248c-3.1412964-0.6011353-4.894165,3.7868042-1.7052002,4.6563721
			c13.9370117,3.7994385,25.7310181,0.7533569,38.9430542-4.2550659
			c10.4085693,6.2003174,21.0941162,11.7041626,32.0911255,16.7719116
			c-11.7363892,8.4241943-23.4649658,12.0028076-37.7545776,12.5762939
			c-3.3225098,0.1333618-4.1584473,4.7753296-0.7077026,4.8497314c17.1091309,0.3683472,29.9951172-5.1685791,43.5083008-15.3592529
			c6.1977539,2.2449951,12.4152222,4.4018555,18.7991333,6.0949707c-3.5462646,5.1786499-7.6256104,9.6604614-12.6134033,13.4937744
			c-4.5422974,3.4910889-9.8087769,6.1485596-15.0020752,8.1779785c-2.9673462,1.1596069-2.7585449,5.3526611,0.5454712,4.6766968
			c7.083374-1.4493408,12.8259888-5.5739136,18.5108643-9.795105c5.6847534-4.2211304,9.6387329-9.5455933,13.5619507-15.3092041
			c1.3862305,0.2561646,2.737915,0.671814,4.1340332,0.9744263c7.309082,1.583313,14.6593018,2.7168579,22.0898438,3.4266357
			c-7.2424316,12.8237305-15.7550049,21.8297729-29.604126,26.598877c-3.0268555,1.0419312-4.3149414,5.7619019-1.0615234,4.8835449
			c17.7733154-4.7974243,26.7332764-15.7230835,35.9901123-30.9128418
			c15.2271729,1.4974976,30.1568604,1.9912109,45.4228516,0.6827393
			c-4.1054688,3.9683838-8.1831055,8.6901855-12.7130127,12.0532227c-6.6154785,4.911377-13.8997803,6.9888306-21.5628662,8.7785645
			c-3.2348633,0.7555542-3.6644287,5.4035034-0.1928711,5.1219482c8.5386963-0.6928101,15.7264404-3.3225708,22.8599854-8.3018188
			c7.4399414-5.1932373,13.4916992-12.6846313,20.1177979-18.9360352
			c10.0872803-1.9581299,19.9840088-4.307312,29.7224121-7.5560303
			c-4.5864258,11.9207764-10.7426758,22.1211548-19.9573975,30.7684326
			c-2.5358887,2.3796387-0.6778564,6.6025391,2.1352539,4.2947388
			c12.2966309-10.0866699,18.2017822-22.7734985,23.8012695-37.3533936
			c12.2070313-5.4442749,23.7928467-11.6985474,35.1257324-18.760437
			c-1.2038574,15.7611084-7.5532227,27.218811-17.3540039,39.1618652c-2.2783203,2.7766724,0.3905029,6.3238525,2.9438477,3.546814
			c12.6608887-13.7712402,18.2384033-27.3700562,19.3323975-46.0678711
			c5.6966553-4.4788208,11.0793457-9.2137451,16.5330811-13.9924927c1.6253662,6.0258179,2.4012451,11.3980103,1.7006836,17.7153931
			c-0.6383057,5.7529297-2.5501709,11.5386353-4.7470703,16.9147949c-1.2554932,3.0720215,2.2337646,5.0635376,3.973999,2.1519775
			c3.7313232-6.2423706,5.2069092-13.4454956,6.0025635-20.5858765c0.7960205-7.1408081-0.8498535-13.2120972-2.8282471-19.9306641
			c1.0515137-1.0778198,2.1359863-2.1098022,3.1920166-3.2207031c5.5256348-5.8121948,10.6888428-11.975708,15.7208252-18.192627
			c5.1258545,15.0784912,4.9963379,28.6633301-1.2811279,42.9758911
			C1234.237915,608.5488281,1236.7678223,612.5073242,1238.5675049,609.192749z M1239.5134277,551.4795532
			c-1.6524658,2.1208496-3.2298584,5.5271606-5.8287354,6.6867676s-5.3494873-0.0523071-7.9168701-0.0918579
			c-8.9165039-0.1374512-17.4185791,0.734436-25.3925781,4.4153442c-3.1380615,1.4486084-2.1900635,5.8617554,1.1916504,4.7802734
			c9.2581787-2.9620361,17.9261475-4.1757813,27.6462402-3.3924561
			c-5.7712402,6.6842041-11.7510986,13.1500244-18.1656494,19.2367554
			c-12.0274658-3.0229492-23.5974121-4.1467896-35.7722168-1.9978027c-3.1662598,0.55896-3.30896,5.2505493-0.048584,5.0200195
			c10.6679688-0.7541504,20.5562744-1.0858765,31.013916,1.3612061
			c-7.1422119,5.9228516-14.5367432,11.3540649-22.2825928,16.4661865
			c-11.9255371-2.8341064-23.5705566-4.7074585-35.7935791-3.4405518c-3.220459,0.3335571-3.1685791,4.9779053,0.0628662,5.00354
			c9.9312744,0.0783081,19.5268555,0.2174683,29.2684326,2.4145508
			c-9.5253906,5.0078125-19.3164063,9.3273926-29.3684082,13.1758423c-0.2098389-0.1795654-0.369751-0.4306641-0.6270752-0.5650635
			c-10.5863037-5.5251465-21.2209473-10.2200317-33.0374756-12.0756836
			c-3.2034912-0.5029907-4.3588867,4.0804443-1.2575684,4.9537354c9.6568604,2.7189331,19.0550537,5.3768311,28.0181885,9.9961548
			c-9.5946045,2.5605469-19.3088379,4.2988281-29.1280518,5.7646484c-0.2947998-0.4749756-0.5039063-1.0082397-1.0112305-1.3168945
			c-11.1577148-6.7889404-22.3585205-12.2365723-35.2271729-14.6118774
			c-3.2315674-0.5968018-4.4206543,3.9736328-1.3157959,4.8926392c10.3798828,3.0726929,20.3911133,6.3513184,29.7055664,11.8985596
			c-5.5422363,0.2359619-12.633667,0.1790771-17.8459473,0.0236816c-7.0172119-0.2092896-12.4141846-0.8632813-19.0506592-1.6478271
			c-0.078125-0.0092163-0.0612793-0.0115967-0.1928711-0.0314331c-0.1313477-0.0199585-0.3225098-0.0384521-0.4990234-0.0625
			c-1.2073975-0.1636963-2.4522705-0.3267212-3.6524658-0.5724487
			c-5.2851563-10.0174561-10.4747314-19.3083496-20.0421143-25.7077026
			c-2.8817139-1.9276123-5.2559814,1.9260254-2.6378174,4.1273193c7.1688232,6.0272827,12.5233154,13.0662842,16.7977295,21.4839478
			c-8.1555176-1.1427002-16.1413574-3.0322266-24.135376-4.9849854
			c-3.9886475-11.9420776-8.4864502-22.9297485-16.8430786-32.4885864
			c-2.1730957-2.4858398-5.3601685,0.7739258-3.4884644,3.3876953c6.1248779,8.5516968,11.1881714,17.4517212,14.5699463,27.5301514
			c-8.0330811-2.6618652-15.8765869-5.7806396-23.6275024-9.1734009
			c-4.1437378-11.6310425-8.382019-22.7623901-16.1141968-32.5390015c-2.0377197-2.5761108-5.0783081,0.8686523-3.3892822,3.5241699
			c5.1915894,8.1619873,9.9266968,16.864624,13.2653198,26.1039429
			c-8.7131348-4.6320801-17.1592407-9.6517944-25.3521729-15.1730347c0.0015869-0.2866211,0.0975952-0.5744019,0.0469971-0.8665161
			c-2.0910034-12.0504761-4.1439819-23.9213257-9.3139648-35.0755615c-1.4013672-3.0241089-5.1310425-0.5730591-4.1016846,2.4643555
			c3.2059937,9.4589844,6.105896,19.3969727,7.8271484,29.3806763
			c-7.5390015-6.0253906-14.8356323-12.3047485-21.7522583-19.0535889c0.1496582-0.5547485,0.4091187-1.0631714,0.3179321-1.6610107
			c-2.0084839-13.144043-4.2139282-26.0246582-9.5767212-38.2567749c-1.3466797-3.0714722-5.1724854-0.6508179-4.149292,2.4194946
			c3.4214478,10.2642822,6.3887329,21.0175171,8.1195068,31.8430176
			c-9.4008179-11.1625366-18.112854-22.7184448-26.0115356-35.0074463
			c-0.1784668-0.2772827-0.3847656-0.4450684-0.5692139-0.7382813c-0.1842041-0.2930908-0.3967285-0.619751-0.5976563-0.9344482
			c-0.5505981-0.8607788-1.1123657-1.756958-1.5740967-2.6686401c4.7411499-11.2966919,9.7425537-22.2019958,10.038147-34.5984802
			c0.0880127-3.6932678-4.1311646-2.8799438-4.5582275,0.6654968c-1.170105,9.7080994-4.4088745,19.3493347-8.503479,28.4317017
			c-3.902832-7.7676392-7.4230957-15.6879883-10.3520508-23.88974
			c7.2478027-11.3805847,13.8154907-22.8336487,17.3552246-35.8787231c0.9204712-3.3920898-3.1796875-4.1023254-4.3599854-0.8604431
			c-3.8624268,10.6075134-8.5726318,21.0520325-14.8526001,30.6296997
			c-2.2044678-8.9819946-4.0352173-18.0277405-5.3466797-27.1944885
			c7.2575684-11.3728638,14.3764038-22.7410889,18.7937012-35.5149536c1.1639404-3.366272-2.9960938-3.9726257-4.390686-0.834137
			c-4.2866211,9.6454773-9.2427979,19.6534424-15.0882568,28.6856079
			c-0.3708496-11.1755371-0.1086426-22.3083191,0.7876587-33.4698792c0.2457275-0.1820679,0.5211792-0.2804871,0.7446899-0.5093689
			c9.2064819-9.4254456,18.1725464-19.2028503,25.0874634-30.3414917c1.8746338-3.0198364-1.5508423-5.1928101-3.663208-2.384491
			c-6.5778198,8.743988-13.3869019,17.7275391-21.1277466,25.6397095
			c1.9168091-10.4217224,4.2918701-20.7299805,7.1697388-30.9378662c0.5664673-0.2166443,1.0824585-0.2691956,1.560791-0.7077942
			c10.5213623-9.6412354,20.4220581-19.7886353,28.1789551-31.7187805c1.9483643-2.9967346-1.4916992-5.2115173-3.6400146-2.4199829
			c-7.1811523,9.3318176-14.7501831,18.7199402-23.465271,26.7860107c2.2184448-2.5393066,2.8687134-7.4291992,3.9817505-10.2113647
			c1.7462769-4.3648987,3.3157349-7.8252563,5.288147-11.7232361c3.7064819-7.3258362,7.9433594-13.9176331,12.8922119-20.4238586
			c11.4847412,0.6487122,22.3889771,0.2707825,32.869751-4.5140991c3.1228027-1.4255981,2.1337891-5.9465942-1.234436-4.8248291
			c-9.2227173,3.0716858-17.906189,4.5387878-27.6401978,4.0018616
			c5.7086182-6.8826294,11.5632935-13.5931091,17.8660889-19.9500732
			c12.0632324,2.9196472,23.6738892,4.1156311,35.8516235,1.8625183c3.1669922-0.5858459,3.2438354-5.3617859-0.0206909-5.1116333
			c-10.6817627,0.8184509-20.611084,1.1686401-31.0993652-1.2512207
			c7.0479126-5.9684448,14.3078003-11.5784302,21.9481201-16.7780457
			c11.9539185,2.8314514,23.6133423,4.6764221,35.8446045,3.2806702c3.2229004-0.3679199,3.1083374-5.0870667-0.1321411-5.0760498
			c-9.9589233,0.0331726-19.5856323-0.0505371-29.3566284-2.2406921c9.4348145-5.1508789,19.1651611-9.499176,29.1670532-13.4386292
			c0.2136841,0.1775513,0.3796387,0.4291687,0.6395264,0.560791c10.6897583,5.4252014,21.3927002,10.0239868,33.2550049,11.7991638
			c3.21521,0.4814148,4.324585-4.1906128,1.2034912-5.0308228c-9.7188721-2.6154175-19.1784668-5.1907349-28.2191162-9.7281189
			c9.5863037-2.687561,19.3011475-4.5552673,29.1268311-6.1443787c0.3057861,0.4703369,0.5153809,1.0112305,1.0281982,1.3153076
			c11.2824707,6.6858826,22.5802002,11.992981,35.5085449,14.285553c3.2467041,0.57547,4.4448242-4.0942078,1.3094482-4.9894714
			c-10.4815674-2.9932251-20.5410156-6.0991516-29.9827881-11.5777588
			c5.5795898-0.3174744,12.6914063-0.3313599,17.9466553-0.2634583c7.0748291,0.0918579,12.5063477,0.6188049,19.2042236,1.3277588
			c0.0789795,0.0082703,0.0620117,0.010376,0.1942139,0.0288086s0.3250732,0.0347595,0.5023193,0.0566711
			c1.2156982,0.1501465,2.4686279,0.298584,3.6762695,0.5365906c5.3580322,10.0845947,10.5668945,19.5177612,20.2354736,25.9534607
			c2.9118652,1.9385986,5.2609863-1.9907837,2.6218262-4.2063599c-7.2266846-6.0662537-12.6335449-13.2139282-16.9525146-21.6956177
			c8.2060547,1.110321,16.255249,2.9711304,24.2868652,4.9657898c4.0323486,12.042511,8.565918,23.1604004,17.0273438,32.7732849
			c2.2005615,2.500061,5.3730469-0.8114624,3.4862061-3.4391479c-6.1734619-8.5977783-11.3101807-17.5868225-14.7150879-27.7399292
			c8.0942383,2.7063293,16.0296631,5.8273621,23.8537598,9.2372437
			c4.1105957,11.6887817,8.3380127,22.8061523,16.1064453,32.6113892c2.0471191,2.5836182,5.0822754-0.9232178,3.3800049-3.5749817
			c-5.2331543-8.1507263-9.9517822-16.8423767-13.25354-26.1155701c8.6495361,4.6469421,17.0651855,9.6694946,25.2365723,15.1341553
			c0.0041504,0.2837524-0.0968018,0.5772705-0.0444336,0.8692932c2.1676025,12.0487366,4.3129883,23.8993835,9.5533447,35.0383301
			c1.4206543,3.0198669,5.1408691,0.512085,4.0839844-2.5127869c-3.2915039-9.4200439-6.2564697-19.348877-8.0378418-29.3179932
			c7.5523682,5.978302,14.8830566,12.2040405,21.8388672,18.8846436c-0.1390381,0.5518799-0.4006348,1.0665588-0.3029785,1.6631775
			c2.145752,13.1181641,4.4676514,25.9650269,9.9761963,38.1341858c1.3831787,3.0555115,5.1793213,0.6000671,4.1173096-2.4562378
			c-3.5501709-10.2176819-6.6236572-20.9201355-8.4534912-31.7254333
			c9.4832764,11.0753784,18.3098145,22.5361633,26.3526611,34.7158203c0.1812744,0.2749939,0.3914795,0.4407654,0.5789795,0.7323303
			c0.1872559,0.2914429,0.4042969,0.616333,0.6094971,0.9289246c0.5615234,0.8558044,1.1334229,1.7482605,1.6068115,2.6560669
			c-4.5914307,11.3471985-9.4172363,22.2820129-9.5493164,34.6785889c-0.0391846,3.6929321,4.1809082,2.8333435,4.5527344-0.7121887
			c1.0180664-9.7069702,4.1236572-19.3687439,8.0859375-28.4865112c4.0078125,7.7240601,7.6346436,15.6045532,10.6762695,23.7749329
			c-7.0704346,11.4491882-13.4671631,22.9732666-16.7875977,36.0362549
			c-0.8634033,3.3968201,3.2402344,4.0818481,4.3685303,0.8275757c3.6923828-10.6497498,8.2286377-21.1315613,14.3652344-30.7767639
			c2.3297119,8.9661865,4.2989502,18.0066528,5.7550049,27.1670532
			c-7.074585,11.4480286-13.9864502,22.8788147-18.1986084,35.6954956
			c-1.1101074,3.3773804,3.0645752,3.9587097,4.4049072,0.8061829c4.1201172-9.6896362,8.902832-19.7378845,14.5985107-28.8312073
			c0.5472412,11.182312,0.4703369,22.3334351-0.2380371,33.5231628c-0.2373047,0.1800232-0.5192871,0.2886658-0.7384033,0.519043
			c-9.0317383,9.4993591-17.8289795,19.3755493-24.5435791,30.5587158
			c-1.8203125,3.0318298,1.6243896,5.2110596,3.6923828,2.3860779c6.439209-8.796051,13.0687256-17.8754272,20.6744385-25.8287964
			c-0.7164307,1.0194702-0.5632324,3.236145-0.7220459,4.2565613c-0.2774658,1.7826843-0.5410156,3.1044922-0.8388672,4.6828918
			c-0.5782471,3.0630798-1.1625977,5.9069214-1.8327637,8.9418945c-0.6699219,3.0351257-1.4078369,6.088501-2.1826172,9.1437378
			c-0.3101807,1.2221985-0.3937988,2.6786499-1.1660156,3.7518616c-0.7724609,1.0727844-2.1260986,1.6239929-3.0634766,2.4949036
			c-1.427124,1.3258972-2.842041,2.6202087-4.2071533,3.9747314c-2.7147217,2.6941528-5.4956055,5.418457-8.0078125,8.2817993
			c-5.0142822,5.7157593-9.9686279,11.7680054-13.8112793,18.21521c-1.7939453,3.0092773,1.5653076,5.2456055,3.6807861,2.434021
			c7.0717773-9.3988647,14.4244385-18.8361206,23.0172119-27.020813c-1.1071777,1.2897339-1.3865967,3.7759399-1.8885498,5.1925659
			c-0.7008057,1.977356-1.3133545,3.5439453-2.0170898,5.3058472c-1.177002,2.9449463-2.5549316,5.6245117-3.677124,8.5389404
			c-0.9992676,2.5946045-1.9781494,5.0637207-3.2408447,7.5472412
			C1244.8620605,543.8799438,1242.4970703,547.6503296,1239.5134277,551.4795532z"/>
	</g>
</g>
<path fill="#333333" d="M334.0244446,189.7182922l-5.3166809,1.7923737l2.0282898-4.0913544
	c0.7640076-1.5412292,0.1340942-3.4097137-1.4071045-4.1737976c-1.5411987-0.7638092-3.4096985-0.1338959-4.1736145,1.4070282
	l-4.7949829,9.6722412l-17.0532532,5.7490387l2.4466858-4.9353027c0.7641296-1.5410156,0.1341553-3.4097443-1.4070129-4.1735687
	c-1.5410156-0.7641449-3.409668-0.1339111-4.1737976,1.4070892l-5.2131958,10.5158539l-13.5865479,4.5803528l11.1998901-22.5918732
	c0.7638245-1.5411682,0.1339111-3.4096527-1.4071045-4.1737976c-1.5410767-0.7635956-3.4095764-0.1336823-4.1737976,1.4070892
	l-13.9666138,28.17276l-4.5451965,1.5323029l-7.7085876-6.7888794l13.0562134-26.335968l11.1223755-3.7496033
	c1.6298828-0.549469,2.5058289-2.3164368,1.9563599-3.9463043c-0.549469-1.6298828-2.3164063-2.5058441-3.9462891-1.9563751
	l-5.2198792,1.7597351l7.993042-16.1236572l10.22995-3.448761c1.6298523-0.549469,2.5055847-2.3163452,1.9561157-3.9462128
	c-0.549469-1.6298828-2.3161011-2.5056915-3.9459839-1.9562225l-4.3272705,1.4588318l2.4919434-5.0269623
	c0.7640991-1.5409851,0.1341248-3.4097137-1.4069824-4.1735687c-1.5409851-0.7638855-3.409729-0.1338959-4.1736145,1.4070282
	l-2.4922485,5.0267944l-1.4587402-4.3270416c-0.549469-1.6298828-2.3161621-2.5059204-3.946228-1.9563904
	c-1.6299438,0.5494843-2.5056763,2.3163605-1.9562073,3.9462433l3.4486084,10.2294617l-7.9932861,16.1237488l-1.7597351-5.2199402
	c-0.549469-1.6298676-2.3161621-2.505661-3.9460449-1.956192c-1.630127,0.5495605-2.5059204,2.3161926-1.9564514,3.9460602
	l3.7496948,11.1226044l-12.3148804,24.8405762l-2.2752686-2.0037079l-8.1114349,2.7345581l-1.9572144-5.8056183
	l13.9666901-28.1725311c0.7640686-1.5412445,0.1341553-3.409729-1.4071045-4.1737976
	c-1.5412292-0.7640686-3.4096375-0.1339264-4.1737976,1.4070892l-11.1999512,22.591629l-4.5802612-13.5862732l5.2133942-10.5162048
	c0.7640686-1.5412445,0.1341705-3.409729-1.4070892-4.1737976c-1.5410004-0.7641602-3.4096527-0.1339264-4.1737976,1.4070892
	l-2.4466705,4.9353027l-5.749054-17.0532379l4.7950745-9.6719971c0.7638397-1.5411682,0.1339264-3.4096527-1.4070892-4.1738129
	c-1.5412445-0.7640686-3.4096375-0.1339111-4.1737976,1.4070892l-2.0282745,4.0913544l-1.7924042-5.3167419
	c-0.549469-1.6298676-2.3163452-2.5056-3.9462128-1.956131c-1.6298828,0.549469-2.5056763,2.3161011-1.9562073,3.9459839
	l1.7923889,5.3167267l-4.0913544-2.0282745c-1.5411682-0.7638245-3.4095917-0.1339417-4.1737976,1.4070892
	c-0.7638397,1.5411682-0.1339264,3.4096527,1.4070892,4.1737976l9.6721497,4.794754l5.749054,17.0532532l-4.935318-2.4466705
	c-1.5411682-0.7638245-3.4096527-0.1339264-4.1737976,1.4070892c-0.7640686,1.5412445-0.1341705,3.409729,1.4070892,4.1737976
	l10.5162048,5.2133942l4.580246,13.5862579l-22.5917969-11.1996307c-1.5411682-0.7638245-3.4096527-0.1339264-4.1737976,1.4070892
	c-0.7640686,1.5412445-0.1341705,3.409729,1.4070892,4.1737976l28.1726837,13.9663544l1.9571991,5.8056335l-8.1114197,2.7345428
	l-0.5977631,2.9722748l-24.8408051-12.3147888l-3.7496185-11.1223602c-0.549469-1.6298828-2.3161011-2.5056915-3.9462128-1.956131
	c-1.6298828,0.549469-2.5059204,2.3161774-1.9564514,3.9460602l1.7597504,5.2199249l-16.1235199-7.9934082l-3.4485931-10.2294769
	c-0.549469-1.6298676-2.3161316-2.5059357-3.9463043-1.9563599c-1.6298676,0.549469-2.5055847,2.3163452-1.9561157,3.9462128
	l1.4587402,4.3270416l-5.0267029-2.4919891c-1.5411224-0.7638397-3.4096527-0.1339111-4.1738129,1.4070892
	c-0.7640991,1.5409851-0.1340942,3.4097137,1.4070129,4.1735687l5.0267792,2.492218l-4.3272705,1.4588318
	c-1.6298828,0.549469-2.5056915,2.3161011-1.9562225,3.9459686c0.549469,1.6298828,2.3161926,2.5059204,3.9460602,1.9564514
	l10.2297211-3.4486694l16.123764,7.9933319l-5.219696,1.7596741c-1.6301117,0.5495605-2.5058289,2.3164368-1.9563599,3.9463043
	c0.549469,1.6298828,2.3161774,2.5059204,3.9462891,1.9563751l11.1223602-3.7496033l26.3358917,13.0559692l-2.0249634,10.0702667
	l-4.5452118,1.5323029l-28.17276-13.9665985c-1.5410919-0.7635956-3.4095764-0.1336823-4.1737976,1.4070892
	c-0.7638397,1.541153-0.1339264,3.4096375,1.407074,4.1737976l22.5918884,11.1998749l-13.5865173,4.5803375l-10.5158844-5.2132263
	c-1.5411682-0.7638245-3.4098969-0.1338348-4.1737976,1.4070892c-0.7641602,1.5410004-0.1341705,3.409729,1.4069977,4.1735535
	l4.935379,2.4466553L175.7577362,243.0737l-9.6722412-4.7949982c-1.5409393-0.7641754-3.4094086-0.1340027-4.1737976,1.4070892
	c-0.7637787,1.541153-0.1338654,3.4096375,1.4070892,4.1737976l4.0915985,2.0281982l-5.3166809,1.7923889
	c-1.6299286,0.5494843-2.5059052,2.3164368-1.9564362,3.9463196c0.549469,1.6298676,2.3164368,2.5058289,3.9463654,1.9563446
	l5.3164368-1.7922974l-2.0283661,4.0911102c-0.7637787,1.5411377-0.1338654,3.4096375,1.4070892,4.1737976
	c0.7707825,0.3821411,1.6230927,0.4154968,2.3783264,0.1608887c0.7554626-0.2546692,1.4135132-0.7975159,1.7954712-1.5679626
	l4.7950745-9.6719971l17.0533142-5.7490692l-2.4468079,4.9350891c-0.7640839,1.5412445-0.1341705,3.409729,1.407074,4.1737976
	c0.7707977,0.3821259,1.6228638,0.4155884,2.3783264,0.1608887c0.7552795-0.2546234,1.4135284-0.7975159,1.7954865-1.5679779
	l5.2132263-10.5158691l13.5865173-4.5803375l-11.1999664,22.591629c-0.7638397,1.5411682-0.1339264,3.409668,1.407074,4.1737976
	c0.7707062,0.381897,1.6231079,0.4154968,2.3783264,0.1608887c0.7554779-0.2546692,1.4135284-0.7975159,1.7954865-1.5679626
	l13.9666748-28.1725311l4.5452118-1.5322876l7.7085724,6.7888794l-13.0560455,26.3356476l-11.1223602,3.7496033
	c-1.630127,0.54953-2.5058441,2.3164063-1.9563751,3.9462891s2.3161774,2.5059204,3.9463043,1.9563904l5.219986-1.7597961
	l-7.9933929,16.1237793l-10.22995,3.448761c-1.6298676,0.549469-2.5056763,2.3161011-1.956131,3.946228
	c0.549469,1.6298828,2.3161011,2.5056763,3.9459839,1.9562073l4.3272858-1.4588318l-2.4919891,5.0267029
	c-0.7640076,1.5412292-0.1340179,3.4099731,1.4070892,4.1737976c0.770462,0.381958,1.6228485,0.4155884,2.3783264,0.1608887
	c0.7552185-0.2545776,1.4132843-0.7974243,1.7954712-1.5679626l2.4919891-5.0267029l1.4587402,4.3270264
	c0.549469,1.6298828,2.3161926,2.5059204,3.9460602,1.9564514c1.6301727-0.5495605,2.5058441-2.3164063,1.9563751-3.9462891
	l-3.4485931-10.2294617l7.9930878-16.1236877l1.7596741,5.219696c0.549469,1.6298523,2.3164215,2.5058289,3.9463043,1.9563599
	c1.6301117-0.5495605,2.5058441-2.3164368,1.9563751-3.9462891l-3.749527-11.1221313l12.3147888-24.8408203l2.2753448,2.003952
	l8.1114349-2.7345581l1.9571228,5.8053894l-13.9665985,28.1727753c-0.7640686,1.5412292-0.1341553,3.409729,1.4070892,4.1737976
	c1.5411682,0.7638245,3.4098969,0.1338196,4.1738129-1.4071045l11.1997833-22.5921021l4.5804138,13.5867615l-5.2133789,10.5162048
	c-0.7640686,1.5412292-0.1341553,3.409729,1.407074,4.1737976c1.5411072,0.7635803,3.4095764,0.133667,4.1738281-1.4071045
	l2.4466553-4.9353027l5.7489624,17.053009l-4.7949829,9.6722412c-0.7638245,1.5411682-0.1339111,3.4096375,1.407074,4.1737976
	c1.5412292,0.7638245,3.4099121,0.1338501,4.1737976-1.407074l2.0282898-4.0913696l1.7923279,5.3164978
	c0.54953,1.630127,2.3161621,2.5059204,3.9460449,1.9564514s2.5059204-2.3161926,1.9563904-3.9462891l-1.7923279-5.3164978
	l4.0913391,2.0282898c0.7705688,0.3822021,1.6228638,0.4155579,2.3783264,0.1608887
	c0.755249-0.2546082,1.4132996-0.7974548,1.7955017-1.5679932c0.7638245-1.5411682,0.1339111-3.4096375-1.4071045-4.1737976
	l-9.6722412-4.7949829l-5.749054-17.0532532l4.9353943,2.4468994c0.7706299,0.3816528,1.6230164,0.4152527,2.3782654,0.1606445
	c0.7552185-0.2545776,1.4135132-0.7975159,1.7955627-1.5677185c0.7640686-1.5412598,0.1341553-3.409729-1.4071045-4.1737976
	l-10.5162048-5.2134094l-4.5804138-13.5867462l22.5919495,11.200119c0.770813,0.3821106,1.6228638,0.4155884,2.3783264,0.1608887
	c0.755249-0.2546082,1.4135437-0.7975159,1.7955017-1.5679626c0.7640686-1.5412598,0.1341553-3.409729-1.4071045-4.1737976
	l-28.17276-13.9666138l-1.9571228-5.8053741l8.1114197-2.7345581l0.5976868-2.9725037l24.8408203,12.3147888l3.7495117,11.1221161
	c0.549469,1.6298828,2.3161926,2.5059204,3.9462891,1.9563599c1.6298828-0.549469,2.5056763-2.3163452,1.9562073-3.946228
	l-1.7596741-5.2196808l16.1236877,7.9933319l3.4486084,10.2294922c0.549469,1.6298523,2.3161621,2.5059204,3.946106,1.9564209
	c1.6300659-0.54953,2.5057983-2.3164063,1.9563293-3.9462891l-1.4587708-4.3270264l5.026947,2.4918823
	c0.7705383,0.381958,1.6228638,0.4155884,2.3781433,0.1609497c0.755188-0.2545776,1.4134827-0.7974854,1.7955017-1.5679626
	c0.7640686-1.5409851,0.1340942-3.4096985-1.4071045-4.1737976l-5.0267639-2.4919739l4.327301-1.4588165
	c1.6298523-0.549469,2.5056763-2.3161011,1.9562073-3.9459839c-0.5495605-1.6301117-2.3161926-2.5059204-3.9460754-1.9564514
	l-10.22995,3.448761l-16.1234741-7.9934387l5.2198792-1.7597351c1.6298828-0.549469,2.5058594-2.3164215,1.9563904-3.9463043
	c-0.549469-1.6298676-2.3164368-2.5058441-3.9463196-1.9563751l-11.1225891,3.7496948l-26.3358154-13.0557251l2.0249634-10.070282
	l4.5451965-1.5322876l28.172699,13.9663544c0.7704468,0.381958,1.6228943,0.4155579,2.3783264,0.1608887
	c0.7552185-0.2546082,1.413269-0.7974396,1.7954712-1.5679779c0.7638245-1.5411682,0.1339111-3.4096527-1.407074-4.1737976
	l-22.5917969-11.199646l13.5865479-4.5803528l10.5158386,5.2132568c0.7706909,0.3818665,1.6231079,0.4154968,2.3783264,0.1608887
	c0.7555237-0.254715,1.4135132-0.7975159,1.7954712-1.5679779c0.7640686-1.5412598,0.1341553-3.409729-1.407074-4.1738129
	l-4.9352417-2.4464264l17.0532532-5.749054l9.6721497,4.794754c0.7705383,0.3819427,1.6228638,0.4155884,2.3781433,0.160965
	c0.7554016-0.2546692,1.4134521-0.7975006,1.7954712-1.5679779c0.7640076-1.5412292,0.1341248-3.4097137-1.407074-4.1738129
	l-4.091095-2.0280914l5.3164978-1.7923126c1.6299438-0.5494995,2.5058289-2.3164368,1.9563599-3.9463043
	C337.4212646,190.0447845,335.6543884,189.168808,334.0244446,189.7182922z M261.1785889,232.3286133l-15.3095551,5.1612091
	l-12.1246948-10.6779938l3.1851044-15.8392944l15.3095398-5.1611938l12.1246948,10.6779938L261.1785889,232.3286133z"/>
<path fill="#333333" d="M1286.8916016,899.3354492l-4.5010986-3.3496704l4.5181885-0.6625977
	c1.7020264-0.2496948,2.8792725-1.831543,2.6296387-3.5335083c-0.2497559-1.7019043-1.831665-2.8790894-3.5333252-2.6295166
	l-10.6812744,1.5665283l-14.4371338-10.7440186l5.4501953-0.7993774c1.7019043-0.2493896,2.8791504-1.8314209,2.6293945-3.5332642
	c-0.2493896-1.7019043-1.831543-2.8790283-3.5334473-2.6296387l-11.612915,1.703186l-11.5023193-8.5599365l24.9488525-3.6589966
	c1.7017822-0.2497559,2.8790283-1.831604,2.6296387-3.5335083c-0.25-1.7015991-1.8317871-2.8787842-3.5335693-2.6295776
	l-31.1119385,4.5628662l-3.8479004-2.8635864l1.1907959-10.2026367l29.0834961-4.2651978l9.4161377,7.0073853
	c1.3798828,1.0268555,3.3311768,0.7407227,4.3580322-0.6391602c1.0268555-1.3798218,0.7406006-3.3311157-0.6391602-4.3579712
	l-4.4190674-3.2886963l17.805542-2.6115723l8.6606445,6.4451294c1.3797607,1.0268555,3.3309326,0.7405396,4.3577881-0.6392822
	s0.7407227-3.3307495-0.6391602-4.357666l-3.6633301-2.7263184l5.5512695-0.81427
	c1.7017822-0.2494507,2.8791504-1.8314819,2.6295166-3.5333252c-0.2496338-1.7017212-1.831665-2.8790283-3.5334473-2.6294556
	l-5.5512695,0.8139648l2.7261963-3.663269c1.0268555-1.3798218,0.7408447-3.3309326-0.6391602-4.3579102
	c-1.3798828-1.0269165-3.3309326-0.7406006-4.3577881,0.6392212l-6.4449463,8.6602173l-17.8057861,2.6114502l3.2886963-4.4191895
	c1.0268555-1.3798218,0.7407227-3.3308105-0.6391602-4.357666c-1.3800049-1.0270386-3.3309326-0.7409058-4.3577881,0.6389771
	l-7.0075684,9.4162598l-27.432251,4.0230713l0.3514404-3.0113525l-6.8670654-5.1104736l3.6577148-4.914978l31.1116943-4.5626831
	c1.7020264-0.2496338,2.8792725-1.8314819,2.6296387-3.5335083s-1.831665-2.8790283-3.5335693-2.6295776l-24.9486084,3.6587524
	l8.5598145-11.5020142l11.6132813-1.703186c1.7020264-0.2496338,2.8792725-1.8314819,2.6296387-3.5335083
	c-0.2493896-1.7019043-1.831665-2.8790283-3.5335693-2.6296387l-5.4501953,0.7993164l10.7440186-14.4370728l10.6811523-1.5663452
	c1.7019043-0.2497559,2.8791504-1.831604,2.6296387-3.5335083c-0.2496338-1.7020264-1.831543-2.8790283-3.5334473-2.6295776
	l-4.5181885,0.6625977l3.3497314-4.5010986c1.0268555-1.3798218,0.7404785-3.3309326-0.6394043-4.3577881
	c-1.3797607-1.0268555-3.3306885-0.7407227-4.3575439,0.6390991l-3.3497314,4.5010986l-0.6625977-4.5181885
	c-0.2498779-1.7018433-1.831665-2.8789673-3.5335693-2.6296387c-1.7017822,0.2498169-2.8790283,1.831665-2.6296387,3.5335083
	l1.5667725,10.6811523l-10.7441406,14.4370728l-0.7993164-5.4501953c-0.2497559-1.7018433-1.831543-2.8790283-3.5334473-2.6295776
	c-1.7020264,0.2495728-2.8792725,1.8314209-2.6296387,3.5335083l1.7032471,11.6132813l-8.5598145,11.5020142l-3.6590576-24.9486084
	c-0.2498779-1.7017822-1.831665-2.8790283-3.5335693-2.6295776c-1.7020264,0.2496338-2.8792725,1.8314209-2.6296387,3.5335083
	l4.5631104,31.1116943l-3.6577148,4.914978l-6.8670654-5.1104126l-2.7836914,1.2012329l-4.0231934-27.432373l7.0073242-9.4160767
	c1.0269775-1.3798218,0.7408447-3.3307495-0.6392822-4.3577881c-1.3797607-1.0268555-3.3309326-0.7409058-4.3577881,0.6389771
	l-3.2886963,4.4191284l-2.6112061-17.8057251l6.4448242-8.6602173c1.0268555-1.3798218,0.7409668-3.3309326-0.6391602-4.3579712
	c-1.3798828-1.0268555-3.3309326-0.7405396-4.3577881,0.6392822l-2.7261963,3.663269l-0.8140869-5.5511475
	c-0.2497559-1.7017822-1.831665-2.8790283-3.5334473-2.6296387c-1.7019043,0.2494507-2.8792725,1.831543-2.6295166,3.5333252
	l0.8139648,5.5513306l-3.6634521-2.7263184c-1.3797607-1.0268555-3.3308105-0.7407227-4.357666,0.6390991
	s-0.7408447,3.3309937,0.6390381,4.3578491l8.6602783,6.4450073l2.6114502,17.8059082l-4.4189453-3.2885742
	c-1.3800049-1.0270386-3.3310547-0.7407227-4.3580322,0.6391602c-1.0268555,1.3798218-0.7408447,3.3309937,0.6391602,4.3579712
	l9.4161377,7.0074463l4.2653809,29.083374l-9.4310303,4.0701904l-3.8479004-2.8635864l-4.5629883-31.1119385
	c-0.2498779-1.7015991-1.831665-2.8788452-3.5334473-2.6296387c-1.7017822,0.2498169-2.8790283,1.831665-2.6296387,3.5335083
	l3.6590576,24.9487915l-11.5021973-8.5598755l-1.7032471-11.6129761c-0.2497559-1.7018433-1.8317871-2.8791504-3.5334473-2.6295776
	c-1.7019043,0.2493896-2.8792725,1.8314209-2.6295166,3.5332642l0.7994385,5.4502563l-14.4372559-10.7440796l-1.5665283-10.6813354
	c-0.2492676-1.7018433-1.8312988-2.8788452-3.5334473-2.6295776c-1.7017822,0.2498169-2.8790283,1.831604-2.6296387,3.5335083
	l0.6628418,4.5183105l-4.5009766-3.3496704c-1.3798828-1.0269165-3.3311768-0.7407227-4.3581543,0.6390991
	c-1.0268555,1.3798828-0.7406006,3.3311768,0.6392822,4.3580322l4.5008545,3.3495483l-4.5180664,0.6624146
	c-1.7017822,0.2498169-2.8790283,1.831665-2.6296387,3.5335083c0.1248779,0.8511963,0.5827637,1.5708008,1.222168,2.0466309
	c0.6395264,0.4759521,1.4605713,0.7077637,2.3114014,0.5830078l10.6811523-1.5663452l14.4371338,10.7440796l-5.4500732,0.7990723
	c-1.7020264,0.2496338-2.8792725,1.8314819-2.6296387,3.5335083c0.1248779,0.8511963,0.5825195,1.5706787,1.222168,2.0466309
	c0.6394043,0.4758301,1.4604492,0.7077637,2.3112793,0.5830078l11.6130371-1.703186l11.5021973,8.5599365l-24.9486084,3.6587524
	c-1.7019043,0.2498169-2.8790283,1.831604-2.6296387,3.5335083c0.125,0.8510132,0.5827637,1.5708008,1.222168,2.0466309
	c0.6395264,0.4759521,1.4604492,0.7077637,2.3112793,0.5830078l31.1118164-4.5626831l3.8479004,2.8635864l-1.1906738,10.2026367
	l-29.083252,4.2651367l-9.4161377-7.0073853c-1.3800049-1.0270386-3.3310547-0.7406616-4.3580322,0.6391602
	c-1.0268555,1.3798218-0.7408447,3.3309937,0.6391602,4.3579712l4.4191895,3.2887573l-17.8059082,2.6113892l-8.6605225-6.4451904
	c-1.3798828-1.0268555-3.3308105-0.7407227-4.3577881,0.6393433c-1.0269775,1.3798218-0.7408447,3.3307495,0.6390381,4.357605
	l3.6634521,2.7263184l-5.5511475,0.8141479c-1.7020264,0.2496338-2.8792725,1.831665-2.6296387,3.5335083
	c0.1248779,0.8508301,0.5826416,1.5706787,1.222168,2.0466309c0.6394043,0.4758301,1.4603271,0.7075806,2.3114014,0.5829468
	l5.5511475-0.8140869l-2.7261963,3.663208c-1.0268555,1.3798218-0.7409668,3.3309937,0.638916,4.3578491
	c1.380127,1.0270386,3.3311768,0.7407227,4.3580322-0.6391602l6.4448242-8.6601563l17.8056641-2.6115723l-3.2885742,4.4189453
	c-1.0268555,1.3798218-0.7406006,3.3311157,0.6391602,4.3579712c1.380127,1.0270386,3.3311768,0.7407227,4.3580322-0.6390991
	l7.0072021-9.4158936l27.432373-4.0232544l-0.3514404,3.0115356l6.8670654,5.1104736l-3.6575928,4.9147949l-31.1119385,4.5628662
	c-1.7020264,0.2496338-2.8792725,1.8314819-2.6296387,3.5335083c0.2497559,1.7018433,1.8319092,2.8791504,3.5335693,2.6295776
	l24.9488525-3.6591797l-8.5599365,11.5024414l-11.6134033,1.703186c-1.7020264,0.2496338-2.8791504,1.8314819-2.6296387,3.5335083
	c0.25,1.7016602,1.8317871,2.8788452,3.5335693,2.6296387l5.4501953-0.7993774l-10.7438965,14.4369507l-10.6812744,1.5665283
	c-1.7019043,0.2497559-2.8790283,1.831604-2.6296387,3.5335083c0.2497559,1.7018433,1.8317871,2.8791504,3.5334473,2.6295776
	l4.5181885-0.6625977l-3.3494873,4.5008545c-1.0269775,1.3800659-0.7409668,3.3309937,0.638916,4.3578491
	c1.3798828,1.0269165,3.3309326,0.7409058,4.3580322-0.6390991l3.3494873-4.5009155l0.6627197,4.5181885
	c0.1246338,0.8510132,0.5825195,1.5706787,1.2220459,2.0466309c0.6394043,0.4758301,1.4603271,0.7075806,2.3114014,0.5830078
	c1.7019043-0.2498169,2.8790283-1.831665,2.6296387-3.5335083l-1.5665283-10.6813354l10.7440186-14.4371338l0.7991943,5.4504395
	c0.1251221,0.850769,0.5828857,1.5706177,1.22229,2.0463867c0.6394043,0.4758301,1.4605713,0.7077637,2.3111572,0.5831909
	c1.7021484-0.2495728,2.8792725-1.8314209,2.6296387-3.5335083l-1.703125-11.6132813l8.5599365-11.5024414l3.6589355,24.9490356
	c0.1247559,0.8511963,0.5825195,1.5706177,1.2220459,2.0466309c0.6394043,0.475769,1.4605713,0.7077637,2.3114014,0.5829468
	c1.7020264-0.2496338,2.8792725-1.8314819,2.6296387-3.5335083l-4.5628662-31.1118774l3.6575928-4.9147949l6.8670654,5.1104126
	l2.7836914-1.2014771l4.0233154,27.432373l-7.0073242,9.4158936c-1.0268555,1.3798218-0.7408447,3.3309937,0.6391602,4.3579712
	c1.3798828,1.0269165,3.3310547,0.7406006,4.3579102-0.6392212l3.2884521-4.4189453l2.6114502,17.8058472l-6.4448242,8.6601563
	c-1.0269775,1.3798218-0.7409668,3.3309937,0.638916,4.3579102c1.3800049,1.0269775,3.3310547,0.7406616,4.3579102-0.6392212
	l2.7261963-3.663208l0.8143311,5.5512695c0.1248779,0.8508911,0.5826416,1.5706787,1.2220459,2.0465088
	c0.6392822,0.475769,1.4604492,0.7077637,2.3112793,0.5830078c1.7019043-0.2494507,2.8792725-1.8314819,2.6296387-3.5335083
	l-0.814209-5.5511475l3.6634521,2.7263184c1.3798828,1.0268555,3.3308105,0.7407227,4.357666-0.6390991
	c1.0269775-1.3800659,0.7409668-3.3309937-0.638916-4.3578491l-8.6606445-6.4451904l-2.611084-17.8056641l4.4190674,3.2886353
	c1.3798828,1.0268555,3.3311768,0.7407227,4.3580322-0.6391602c1.0268555-1.3798218,0.7406006-3.3311157-0.6391602-4.3579712
	l-9.4162598-7.0075684l-4.265625-29.0831909l9.4310303-4.0701904l3.8480225,2.8635864l4.5629883,31.1117554
	c0.1247559,0.8508301,0.5826416,1.5706787,1.222168,2.0466309c0.6392822,0.475769,1.4603271,0.7075806,2.3112793,0.5829468
	c1.7019043-0.2497559,2.8791504-1.831604,2.6296387-3.5335083l-3.6590576-24.9485474l11.5021973,8.5599365l1.703125,11.612915
	c0.125,0.8509521,0.5827637,1.5708008,1.222168,2.0466309c0.6395264,0.4760132,1.4604492,0.7077637,2.3112793,0.5829468
	c1.7021484-0.2495728,2.8792725-1.8314209,2.6296387-3.5335083l-0.7994385-5.4499512l14.4371338,10.7440186l1.5666504,10.6810913
	c0.1248779,0.8508911,0.5825195,1.5706787,1.2219238,2.0465088c0.6395264,0.4759521,1.4605713,0.7077637,2.3114014,0.5830078
	c1.7020264-0.2496338,2.8792725-1.8314819,2.6296387-3.5335083l-0.6625977-4.5178833l4.5008545,3.3495483
	c1.3798828,1.0269165,3.3311768,0.7407227,4.3580322-0.6390991
	C1288.5576172,902.3135986,1288.2714844,900.3623657,1286.8916016,899.3354492z M1210.3818359,863.7207031l-12.9609375-9.6454468
	l1.8726807-16.0474243l14.8339844-6.4018555l12.9608154,9.6454468l-1.8726807,16.0474243L1210.3818359,863.7207031z"/>
<path fill="#333333" d="M687.5979614,623.9613037l-4.5010376-3.3496704l4.5181885-0.6625977
	c1.7019653-0.2496948,2.8791504-1.831543,2.6295776-3.5335083c-0.2498169-1.7019043-1.831665-2.8790894-3.5333252-2.6295166
	l-10.6813354,1.5665283l-14.4370728-10.7440186l5.4501953-0.7993774c1.7018433-0.2493896,2.8792114-1.8314209,2.6294556-3.5332642
	c-0.2494507-1.7019043-1.831604-2.8790283-3.5335083-2.6296387l-11.612915,1.703186l-11.5022583-8.5599365l24.9487915-3.6589966
	c1.7018433-0.2497559,2.8790283-1.831604,2.6295776-3.5334473c-0.2498779-1.7016602-1.8317261-2.8788452-3.5334473-2.6296387
	l-31.1119385,4.5628662l-3.8479614-2.8635864l1.1907349-10.2026367l29.0836182-4.2651978l9.4160767,7.0073853
	c1.3798218,1.0268555,3.3311157,0.7407227,4.3580322-0.6391602c1.0268555-1.3798218,0.7406616-3.3311157-0.6391602-4.3579712
	l-4.4191284-3.2886963l17.8056641-2.6115723l8.6605835,6.4451294c1.3798218,1.0268555,3.3309326,0.7405396,4.3577881-0.6392822
	s0.7407227-3.3307495-0.6390991-4.357666l-3.6634521-2.7263184l5.5513306-0.81427
	c1.7018433-0.2494507,2.8792114-1.8314819,2.6294556-3.5333252c-0.2495728-1.7016602-1.831665-2.8790283-3.5333252-2.6294556
	l-5.5513306,0.8139648l2.7261353-3.663208c1.0269165-1.3798828,0.7409058-3.3309937-0.6390991-4.3579712
	c-1.3798828-1.0269165-3.3309326-0.7406006-4.3577881,0.6392212l-6.4448853,8.6602173l-17.8058472,2.6114502l3.2886963-4.4191895
	c1.0268555-1.3798218,0.7407227-3.3308105-0.6390991-4.357666c-1.3800659-1.0269775-3.3309937-0.7409058-4.3578491,0.6389771
	l-7.0075684,9.4162598l-27.432251,4.0230713l0.3513794-3.0113525l-6.8670654-5.1104736l3.6577148-4.914978l31.1117554-4.5626831
	c1.7020874-0.2496338,2.8792725-1.8314819,2.6296387-3.5335083s-1.831604-2.8790283-3.5335083-2.6295776l-24.9486084,3.6587524
	l8.5596924-11.5020142l11.6133423-1.703186c1.7020264-0.2496338,2.8792114-1.8314819,2.6296387-3.5335083
	c-0.2494507-1.7019043-1.831665-2.8790283-3.5335083-2.6296387l-5.4501953,0.7993774l10.7440186-14.4371338l10.6811523-1.5663452
	c1.7018433-0.2497559,2.8790283-1.831604,2.6296387-3.5334778c-0.2496338-1.7020569-1.831604-2.8790588-3.5335083-2.6296387
	l-4.5181885,0.6626587l3.3496704-4.5010986c1.0269165-1.3798523,0.7405396-3.3309326-0.6392822-4.3578186
	c-1.3798218-1.0268555-3.3307495-0.7407227-4.357666,0.6390991l-3.3496704,4.5010986l-0.6626587-4.5181885
	c-0.2497559-1.7018127-1.831543-2.8789978-3.5335083-2.6296082c-1.7018433,0.2497864-2.8790283,1.831604-2.6295776,3.5335083
	l1.5666504,10.6810913l-10.7440186,14.4371033l-0.7993164-5.4501953c-0.2498169-1.7018433-1.831665-2.8790283-3.5335083-2.6295776
	c-1.7020874,0.2496338-2.8792725,1.8314209-2.6296387,3.5335083l1.7032471,11.6132813l-8.5597534,11.5020142l-3.6591797-24.9485474
	c-0.2497559-1.7018433-1.831604-2.8790894-3.5335083-2.6296387c-1.7020264,0.2496338-2.8792114,1.8314819-2.6295776,3.5335083
	l4.5629883,31.1116943l-3.6577148,4.914978l-6.8670044-5.1104126l-2.7836914,1.2012329l-4.0231934-27.432312l7.0073853-9.4161377
	c1.0268555-1.3798218,0.7407227-3.3307495-0.6392822-4.3577881c-1.3798828-1.0268555-3.3309937-0.7408752-4.3578491,0.6389465
	l-3.2886963,4.4191589l-2.6112671-17.8057556l6.4448853-8.6601563c1.0268555-1.3798523,0.7409668-3.3309326-0.6391602-4.3580017
	c-1.3798218-1.0268555-3.3309326-0.7405396-4.3577881,0.6393127l-2.7261353,3.663208l-0.8141479-5.5511169
	c-0.2497559-1.7017822-1.831604-2.8790283-3.5335083-2.6296082c-1.7018433,0.2494507-2.8792114,1.8314819-2.6294556,3.5332947
	l0.8139648,5.5513306l-3.6634521-2.7263184c-1.3798218-1.0268555-3.3307495-0.7407532-4.357605,0.6390991
	c-1.0268555,1.3798218-0.7409058,3.3309631,0.638916,4.3578491l8.6604004,6.4450073l2.6113892,17.8059082l-4.4189453-3.2885742
	c-1.3800049-1.0270081-3.3311157-0.7406921-4.3579712,0.6391602c-1.0268555,1.3798218-0.7409058,3.3309937,0.6391602,4.3579712
	l9.4160767,7.0074463l4.2653809,29.083374l-9.4310303,4.0701904l-3.8479614-2.8635864l-4.5628662-31.1119385
	c-0.249939-1.7015991-1.8317871-2.8788452-3.5335083-2.6296387c-1.7018433,0.2498169-2.8790283,1.831665-2.6296387,3.5335083
	l3.6589966,24.9487915l-11.5021973-8.5598755l-1.703125-11.6129761c-0.2498169-1.7018433-1.8318481-2.8791504-3.5335083-2.6295776
	c-1.7019043,0.2493896-2.8792725,1.8314209-2.6294556,3.5332642l0.7993774,5.4502563l-14.4371948-10.7440796l-1.5665283-10.6813354
	c-0.2493896-1.7018433-1.8314209-2.8788452-3.5335083-2.6296082c-1.7017822,0.2498169-2.8789673,1.8316345-2.6296387,3.5335388
	l0.6629028,4.5183105l-4.5010986-3.3496704c-1.3798828-1.0269165-3.3311768-0.7407227-4.3580322,0.6390991
	c-1.0268555,1.3798828-0.7406616,3.3311768,0.6392212,4.3580322l4.5007935,3.3495483l-4.5180054,0.6624146
	c-1.7017822,0.2498169-2.8789673,1.831665-2.6296387,3.5335083c0.1248779,0.8511963,0.5827637,1.5708008,1.222168,2.0466309
	c0.6395874,0.4759521,1.4605103,0.7077637,2.3113403,0.5830078l10.6811523-1.5663452l14.4371948,10.7440796l-5.4500732,0.7990723
	c-1.7020874,0.2496338-2.8792725,1.8314819-2.6296387,3.5335083c0.1248169,0.8511963,0.5825806,1.5706787,1.2221069,2.0466309
	c0.6394043,0.4758911,1.4605713,0.7077637,2.3114014,0.5830078l11.6129761-1.703186l11.5021973,8.5599365l-24.9486694,3.6587524
	c-1.7018433,0.2498169-2.8790283,1.831604-2.6295776,3.5335083c0.125,0.8510132,0.5827637,1.5708008,1.2221069,2.0466309
	c0.6395874,0.4759521,1.4605103,0.7077637,2.3114014,0.5830078l31.1117554-4.5626831l3.8479004,2.8635864l-1.1907349,10.2026367
	l-29.0831909,4.2651367l-9.4161377-7.0073853c-1.3800049-1.0270386-3.3311157-0.7406616-4.3579712,0.6391602
	s-0.7409058,3.3309937,0.6391602,4.3579712l4.4191895,3.2887573l-17.8059692,2.6113892l-8.6605835-6.4451904
	c-1.3798218-1.0268555-3.3307495-0.7407227-4.3577881,0.6393433c-1.0268555,1.3798218-0.7407227,3.3307495,0.6390991,4.357605
	l3.6634521,2.7263184l-5.5511475,0.8141479c-1.7019653,0.2496338-2.8793335,1.8317261-2.6295776,3.5335083
	c0.1247559,0.8508301,0.5825195,1.5706787,1.2221069,2.0466309c0.6393433,0.4758301,1.4603271,0.7075806,2.3114014,0.5829468
	l5.5510864-0.8140869l-2.7261353,3.663208c-1.0268555,1.3798218-0.7409058,3.3309937,0.638916,4.3578491
	c1.380127,1.0270386,3.3311157,0.7407227,4.3580322-0.6391602l6.4448242-8.6601563l17.8057251-2.6115723l-3.2885742,4.4189453
	c-1.0268555,1.3798218-0.7407227,3.3311157,0.6391602,4.3579712c1.3800049,1.0270386,3.3311157,0.7407227,4.3579712-0.6390991
	l7.0072632-9.4158936l27.432373-4.0232544l-0.3515625,3.0115356l6.8670654,5.1104736l-3.6575317,4.9147949l-31.1119385,4.5628662
	c-1.7020264,0.2496338-2.8792114,1.8314819-2.6295776,3.5335083c0.2497559,1.7018433,1.8317871,2.8791504,3.5335083,2.6296387
	l24.9489136-3.6592407l-8.5600586,11.5024414l-11.6132813,1.703186c-1.7020874,0.2496338-2.8792725,1.8314819-2.6296387,3.5335083
	c0.249939,1.7016602,1.8317871,2.8788452,3.5335083,2.6296387l5.4501953-0.7993164l-10.7438965,14.4368896l-10.6812744,1.5665283
	c-1.7018433,0.2497559-2.8790894,1.831604-2.6296387,3.5335083c0.2498169,1.7018433,1.8317871,2.8791504,3.5335083,2.6295776
	l4.5181885-0.6625977l-3.3495483,4.5008545c-1.0270386,1.3800659-0.7409058,3.3309937,0.638916,4.3578491
	c1.3798828,1.0269165,3.3309937,0.7409058,4.3580322-0.6390991l3.3495483-4.5009155l0.6625977,4.5181885
	c0.1246338,0.8510132,0.5825806,1.5706787,1.222168,2.0466309c0.6393433,0.4758301,1.4603271,0.7076416,2.3113403,0.5830078
	c1.7018433-0.2498169,2.8790283-1.831665,2.6296387-3.5335083l-1.5665283-10.6813354l10.7440186-14.4371338l0.7991943,5.4504395
	c0.1251221,0.850769,0.5829468,1.5706177,1.22229,2.0463867c0.6393433,0.4758301,1.4605103,0.7077637,2.3112183,0.5831909
	c1.7020264-0.2495728,2.8792114-1.8314209,2.6296387-3.5335083l-1.7032471-11.6132813l8.5600586-11.5024414l3.6588135,24.9490356
	c0.1248779,0.8511963,0.5825806,1.5706177,1.222168,2.0466309c0.6393433,0.475769,1.4605103,0.7077637,2.3113403,0.5829468
	c1.7020874-0.2496338,2.8792725-1.8314209,2.6296387-3.5335083l-4.5628662-31.1118774l3.6575317-4.9147949l6.8670654,5.1104126
	l2.7838135-1.201416l4.0232544,27.432312l-7.0072632,9.4158936c-1.0269165,1.3798218-0.7409058,3.3309937,0.6390991,4.3579712
	c1.3798828,1.0269165,3.3309937,0.7406006,4.3578491-0.6392212l3.2885742-4.4189453l2.6113892,17.8058472l-6.4448853,8.6601563
	c-1.0268555,1.3798218-0.7409058,3.3309937,0.6389771,4.3579102c1.3800049,1.0269775,3.3311157,0.7406616,4.3579712-0.6392212
	l2.7261353-3.663208l0.8143311,5.5512695c0.1248779,0.8508911,0.5825806,1.5706787,1.2219849,2.0465088
	c0.6393433,0.475769,1.4605103,0.7077637,2.3114014,0.5830078c1.7018433-0.2494507,2.8791504-1.8314819,2.6295776-3.5335083
	l-0.8141479-5.5511475l3.6634521,2.7263184c1.3798218,1.0268555,3.3307495,0.7407227,4.357605-0.6390991
	c1.0270386-1.3800659,0.7409058-3.3309937-0.638916-4.3578491l-8.6605835-6.4451904l-2.611145-17.8056641l4.4190674,3.2886353
	c1.3798218,1.0268555,3.3311157,0.7407227,4.3580322-0.6391602c1.0268555-1.3798218,0.7406616-3.3311157-0.6391602-4.3579712
	l-9.4163208-7.0075684l-4.2655029-29.0831909l9.4310303-4.0701904l3.8479004,2.8635864l4.5630493,31.1117554
	c0.1248169,0.8508301,0.5826416,1.5706787,1.222168,2.0466309c0.6393433,0.475769,1.4603271,0.7075806,2.3113403,0.5829468
	c1.7018433-0.2497559,2.8790283-1.831604,2.6296387-3.5335083l-3.6591797-24.9485474l11.5022583,8.5599365l1.703125,11.612915
	c0.125,0.8509521,0.5827637,1.5708008,1.2221069,2.0466309c0.6396484,0.4760132,1.4605713,0.7077637,2.3114014,0.5829468
	c1.7020264-0.2495728,2.8792114-1.8314209,2.6296387-3.5335083l-0.7994995-5.4499512l14.4371338,10.7440186l1.5666504,10.6810913
	c0.1248169,0.8508911,0.5825806,1.5706787,1.2219849,2.0465088c0.6395264,0.4759521,1.4604492,0.7077637,2.3113403,0.5830078
	c1.7020264-0.2496338,2.8792114-1.8314819,2.6296387-3.5335083l-0.6626587-4.5178833l4.5009155,3.3495483
	c1.3798828,1.0269165,3.3311157,0.7407227,4.3580322-0.6390991
	C689.2639771,626.9394531,688.9778442,624.9882202,687.5979614,623.9613037z M611.0881348,588.3465576l-12.9608765-9.6454468
	L600,562.6536865l14.8338623-6.4018555l12.9609375,9.6454468l-1.8727417,16.0474243L611.0881348,588.3465576z"/>
<path fill="#333333" d="M267.0866394,1085.0827637l-4.5010376-3.3497314l4.5181885-0.6625977
	c1.7019958-0.2496338,2.8791809-1.831543,2.6296082-3.5335693c-0.2498169-1.7017822-1.831665-2.8790283-3.5333557-2.6295166
	l-10.6813049,1.5665283l-14.4371185-10.7440186l5.4501953-0.7993164c1.701889-0.2493896,2.8792419-1.8314209,2.6294708-3.5333252
	c-0.2494202-1.7019043-1.8316193-2.8790283-3.5335083-2.6295166l-11.6128998,1.703125l-11.5022583-8.5599365l24.9487762-3.6589355
	c1.7018433-0.2498779,2.8790436-1.831665,2.6296234-3.5335693c-0.249939-1.7016602-1.8317719-2.8787842-3.5335083-2.6296387
	l-31.111908,4.5629883l-3.8479309-2.8636475l1.1907196-10.2026367l29.0836029-4.2652588l9.4160767,7.0074463
	c1.379837,1.0268555,3.331131,0.7407227,4.3580017-0.6391602s0.7407074-3.3311768-0.6391449-4.3580322l-4.4190979-3.2885742
	l17.8056335-2.6116943l8.6605835,6.4451904c1.3798523,1.0268555,3.3309326,0.7406006,4.3577881-0.6392822
	c1.026886-1.3798828,0.7407532-3.3308105-0.6390686-4.357666l-3.6634521-2.7263184l5.5513306-0.81427
	c1.7018433-0.2494507,2.8791809-1.8314819,2.6294556-3.5333252c-0.2496033-1.7017212-1.831665-2.8790283-3.5333557-2.6294556
	l-5.5513,0.8139648l2.7261353-3.663269c1.026886-1.3798218,0.7409058-3.3309326-0.6390991-4.3579102
	c-1.3798828-1.0269165-3.3309631-0.7406006-4.3578186,0.6392212l-6.4448853,8.6601563l-17.8058319,2.6115112l3.2887115-4.4191895
	c1.0268707-1.3798218,0.7406921-3.3308105-0.6391449-4.357666c-1.3800354-1.0270386-3.3309784-0.7409058-4.3578491,0.638916
	l-7.0075531,9.4163208l-27.4322052,4.0230713l0.3513641-3.0113525l-6.8670502-5.1104736l3.6576996-4.914978l31.1117554-4.5626831
	c1.7020416-0.2496338,2.8792419-1.8314819,2.6296234-3.5335083s-1.8316193-2.8790283-3.5335083-2.6296387l-24.9486237,3.6588135
	l8.5597382-11.5020142l11.6133118-1.703186c1.7020416-0.2496338,2.8792419-1.8314819,2.6296234-3.5335083
	c-0.2494202-1.7019043-1.8316193-2.8790283-3.5335083-2.6296387l-5.4501953,0.7993164l10.7440338-14.4370728l10.6811523-1.5663452
	c1.7018433-0.2497559,2.8790436-1.831604,2.6296234-3.5335083c-0.2496185-1.7020264-1.8316193-2.8790283-3.5335083-2.6296387
	l-4.5181885,0.6626587l3.3497009-4.5010986c1.0268707-1.3798218,0.7405396-3.3309326-0.6392975-4.3577881
	s-3.3307648-0.7407227-4.3576355,0.6390991l-3.3497009,4.5010986l-0.6626434-4.5181885
	c-0.2497711-1.7018433-1.8315582-2.8789673-3.533493-2.6296387c-1.7018433,0.2498169-2.8790436,1.831665-2.6296234,3.5335083
	l1.5666809,10.6810913l-10.7440491,14.4371338l-0.7993164-5.4501953c-0.2497864-1.7018433-1.8316193-2.8790283-3.5335083-2.6295776
	c-1.7020416,0.2495728-2.8792419,1.8314209-2.6296234,3.5334473l1.7032166,11.6133423l-8.5597382,11.5020142l-3.6591492-24.9486084
	c-0.2497864-1.7017822-1.8316193-2.8790283-3.5335083-2.6295776c-1.7020416,0.2496338-2.8792419,1.8314209-2.6296234,3.5335083
	l4.5630493,31.1116943l-3.6577148,4.914978l-6.8670654-5.1104126l-2.7836304,1.2012329l-4.0232544-27.432373l7.0074158-9.4160767
	c1.0268707-1.3798218,0.7407379-3.3307495-0.6392975-4.3577881c-1.379837-1.0268555-3.3309784-0.7409058-4.3578491,0.638916
	l-3.2887115,4.4191895l-2.6112061-17.8057251l6.4448547-8.6602173c1.0268707-1.3798218,0.7409515-3.3309326-0.6391449-4.3579712
	c-1.379837-1.0268555-3.3309326-0.7405396-4.3577881,0.6392822l-2.7261658,3.663208l-0.8141327-5.5510864
	c-0.2497253-1.7017822-1.8316193-2.8790283-3.533493-2.6296387c-1.7018433,0.2494507-2.8791962,1.831543-2.6294708,3.5333252
	l0.8139801,5.5513306l-3.6634369-2.7263184c-1.379837-1.0268555-3.33078-0.7407227-4.3576508,0.6390991
	c-1.0268555,1.3798218-0.7408905,3.3309937,0.6389465,4.3578491l8.6603699,6.4450073l2.6114197,17.8059082l-4.4189301-3.2885742
	c-1.3800507-1.0270386-3.331131-0.7407227-4.3580017,0.6391602c-1.0268707,1.3798218-0.7408905,3.3309326,0.6391449,4.3579712
	l9.4160919,7.0074463l4.2653809,29.083374l-9.4310303,4.0701904l-3.8479462-2.8636475l-4.5628815-31.1118774
	c-0.2499237-1.7015991-1.8317719-2.8788452-3.5335083-2.6296387c-1.701828,0.2498169-2.8790283,1.831665-2.6296082,3.5335083
	l3.6589966,24.9487915l-11.5022125-8.5598755l-1.7031555-11.6129761c-0.2497864-1.7018433-1.8318329-2.8791504-3.5335083-2.6295776
	c-1.701889,0.2493896-2.8792419,1.8314209-2.6294708,3.5332642l0.7993774,5.4502563l-14.4371643-10.7440796l-1.5665283-10.6813354
	c-0.2493591-1.7018433-1.8314056-2.8788452-3.5335007-2.6295776c-1.7017899,0.2497559-2.8789825,1.831604-2.6296158,3.5334473
	l0.6628494,4.5183716l-4.5010529-3.3496704c-1.3798828-1.0269165-3.3311844-0.7407227-4.3580475,0.6390991
	c-1.0268707,1.3798828-0.7406921,3.3311768,0.6391907,4.3580322l4.5008469,3.3495483l-4.5180359,0.6624146
	c-1.7017899,0.2498169-2.8789825,1.831665-2.6296158,3.5335083c0.1248398,0.8511963,0.5827713,1.5708008,1.2221375,2.0466309
	c0.6395721,0.4759521,1.4605255,0.7077637,2.3113632,0.5830078l10.6811523-1.5663452l14.4371643,10.7440796l-5.4500885,0.7990723
	c-1.7020416,0.2496338-2.8792267,1.8314819-2.6296082,3.5335083c0.1248322,0.8511963,0.58255,1.5706787,1.2221222,2.0466309
	c0.6394196,0.4758301,1.4605408,0.7077637,2.3113708,0.5830078l11.6129608-1.703186l11.5022125,8.5598755l-24.9486237,3.6588135
	c-1.7018433,0.2497559-2.8790436,1.831604-2.6296234,3.5335083c0.1249847,0.8510132,0.5827637,1.5708008,1.2221375,2.0466309
	c0.6395721,0.4759521,1.4605255,0.7077637,2.3113708,0.5830078l31.1117554-4.5626831l3.8479309,2.8635864l-1.1907196,10.2026367
	l-29.0832367,4.2651367l-9.4160919-7.0074463c-1.3800507-1.0269775-3.331131-0.7406006-4.3580017,0.6391602
	c-1.0268707,1.3798828-0.7408905,3.3310547,0.6391449,4.3580322l4.4191895,3.2886963l-17.8059311,2.6114502l-8.6605835-6.4451904
	c-1.379837-1.0268555-3.3307724-0.7407227-4.3577957,0.6392822c-1.0268707,1.3798828-0.7407455,3.3308105,0.6390915,4.357666
	l3.6634369,2.7263184l-5.5511169,0.8140869c-1.7019958,0.2497559-2.8793488,1.8317871-2.6296158,3.5335693
	c0.1247787,0.8508301,0.5825577,1.5706787,1.2221298,2.0466309c0.6393661,0.4758301,1.4603271,0.7076416,2.3113708,0.5830078
	l5.5511169-0.814209l-2.7261581,3.6633301c-1.0268707,1.3797607-0.7408981,3.3309326,0.6389389,4.3577881
	c1.3800888,1.0270996,3.3311386,0.7407227,4.3580017-0.6391602l6.4448624-8.6601563l17.8056793-2.6115723l-3.288559,4.4189453
	c-1.0268555,1.3798828-0.7406769,3.3311768,0.6391602,4.3580322c1.3800354,1.0269775,3.331131,0.7406006,4.3580017-0.6391602
	l7.0072479-9.4158936l27.4323578-4.0233154l-0.351532,3.0115967l6.8670654,5.1104736l-3.6575623,4.9147949l-31.1118927,4.5628662
	c-1.7020416,0.2496338-2.8792419,1.8314209-2.6296234,3.5334473c0.2497711,1.7019043,1.8318176,2.8792725,3.5335083,2.6296387
	l24.9489288-3.6591797l-8.5600433,11.5024414l-11.6133118,1.7032471c-1.7020416,0.2495117-2.8792419,1.8314209-2.6296234,3.5334473
	c0.2499237,1.7016602,1.8317719,2.8787842,3.5335083,2.6296387l5.4501953-0.7993164l-10.7438965,14.4368896l-10.6813049,1.5665283
	c-1.701828,0.2497559-2.8790283,1.831543-2.6296082,3.5334473c0.2498169,1.7019043,1.8318176,2.8792725,3.533493,2.6296387
	l4.5181885-0.6625977l-3.3495331,4.5008545c-1.0270233,1.3800049-0.7409058,3.3310547,0.6389313,4.3579102
	s3.3309784,0.7408447,4.3580017-0.6391602l3.3495483-4.5009766l0.6626434,4.5181885
	c0.1246185,0.8510742,0.58255,1.5706787,1.2221222,2.0466309c0.6393738,0.4758301,1.4603271,0.7076416,2.3113708,0.5830078
	c1.7018433-0.2497559,2.8790436-1.831543,2.6296234-3.5334473l-1.5665283-10.6812744l10.7440338-14.4371338l0.7991791,5.4503174
	c0.1251526,0.8508301,0.5829163,1.5706787,1.22229,2.0465088c0.6393585,0.475708,1.4605255,0.7077637,2.3112183,0.5831299
	c1.7020416-0.2496338,2.8792419-1.8314209,2.6296082-3.5334473l-1.7032013-11.6134033l8.5600433-11.5023193l3.658844,24.9489746
	c0.1248322,0.8511963,0.5825653,1.5706787,1.2221375,2.0466309c0.6393585,0.4758301,1.4605255,0.7077637,2.3113708,0.5830078
	c1.7020416-0.2496338,2.8792419-1.831543,2.6296082-3.5335693l-4.5628815-31.1119385l3.6575623-4.9147949l6.8670654,5.1104736
	l2.783783-1.201416l4.0232391,27.432373l-7.0072479,9.4157715c-1.0268707,1.3798828-0.7409058,3.3310547,0.6391449,4.3580322
	c1.379837,1.0268555,3.3309784,0.7406006,4.3578491-0.6392822l3.2885437-4.4189453l2.6113739,17.8059082l-6.4448547,8.6601563
	c-1.0268707,1.3798828-0.7409058,3.3309326,0.6389771,4.3579102c1.3800049,1.0269775,3.3310852,0.7406006,4.3579559-0.6391602
	l2.7261658-3.6633301l0.8143311,5.5512695c0.1248322,0.8509521,0.5825653,1.5706787,1.2219696,2.0466309
	c0.639328,0.475708,1.4604797,0.7076416,2.3113708,0.5828857c1.7018433-0.2493896,2.8791962-1.8314209,2.6296234-3.5334473
	l-0.8141785-5.5511475l3.6634369,2.7263184c1.379837,1.0268555,3.33078,0.7407227,4.3576355-0.6391602
	c1.0270233-1.3800049,0.7409058-3.3309326-0.6389313-4.3577881l-8.6605835-6.4451904l-2.6111755-17.8056641l4.4190979,3.2886963
	c1.379837,1.0268555,3.331131,0.7406006,4.3580017-0.6391602c1.0268707-1.3798828,0.7406921-3.3311768-0.6391449-4.3580322
	l-9.4162903-7.0075684l-4.2655334-29.083252l9.4310303-4.0701904l3.8479309,2.8636475l4.5630493,31.1116943
	c0.1247864,0.8508301,0.5826111,1.5706787,1.2221222,2.0466309c0.6393738,0.4758301,1.4603271,0.7076416,2.3113708,0.5830078
	c1.7018433-0.2497559,2.8790436-1.831665,2.6296234-3.5334473l-3.6591492-24.9486084l11.5022583,8.5599365l1.7031097,11.612915
	c0.1249847,0.8509521,0.5827637,1.5708008,1.2221375,2.0466309c0.6396179,0.4759521,1.4605255,0.7077637,2.3113708,0.5830078
	c1.7020416-0.2496338,2.8792419-1.831543,2.6296082-3.5335693l-0.7994843-5.4499512l14.4371338,10.7440186l1.5666656,10.6811523
	c0.1248474,0.8508301,0.5825653,1.5705566,1.2219849,2.0465088c0.6395264,0.4758301,1.4604645,0.7076416,2.3113556,0.5828857
	c1.7019958-0.2496338,2.8792114-1.8314209,2.6296387-3.5334473l-0.6626587-4.5178223l4.5009155,3.3494873
	c1.3798828,1.0269775,3.3311157,0.7407227,4.3580017-0.6391602
	C268.752655,1088.0609131,268.4665222,1086.1096191,267.0866394,1085.0827637z M190.5768433,1049.4678955l-12.960907-9.6453857
	l1.872757-16.0474243l14.8338928-6.4018555l12.960907,9.6454468l-1.872757,16.0474854L190.5768433,1049.4678955z"/>
<g>
	<g>
		<path fill="#333333" d="M524.9146118,971.3189697c4.6908569-12.3687744,11.6259766-22.9714355,20.1693726-31.7157593
			c5.5343018-5.664856,12.0120239-10.3250122,18.8256836-14.3612671l13.0132446-7.7088013
			c24.3546143-14.4275513,34.2233887-45.5582886,20.9561768-70.5643311
			c-14.1641846-26.6985474-47.5651855-35.8796997-73.2688599-20.6530151l-14.2227478,8.425354
			c-6.7602844,4.0048218-13.9022827,7.4220581-21.4658203,9.5586548
			c-11.8465881,3.3470459-24.5665588,4.3588257-37.7618103,2.515686c-2.000946-0.2784424-4.0027771-0.6153564-6.0022583-1.0049438
			l-12.3044128,7.2893677c-4.970459,2.9442139,8.4066162,34.713501,29.8781738,70.9591064
			s42.906311,63.241272,47.8768311,60.2967529l12.304657-7.2889404
			C523.5311279,975.125061,524.1984253,973.2091064,524.9146118,971.3189697z"/>
	</g>
	<path fill="#333333" d="M681.7266846,984.6836548c-2.6450195-10.4901123-2.958252-20.8463745-1.322998-30.7097168
		c1.0588379-6.3894653,3.2211914-12.546814,5.9003296-18.4429321l5.1171875-11.2614746
		c9.5769043-21.0759888,1.6207275-46.571167-18.9824219-57.1279907
		c-21.9966431-11.2716675-48.6920166-1.7914429-58.7992554,20.4519653l-5.5928955,12.3078613
		c-2.6582642,5.8504028-5.8475952,11.4854736-9.9190063,16.4588623
		c-6.3768921,7.7904053-14.4326172,14.4235229-24.1435547,19.3652344c-1.472229,0.7498779-2.97229,1.4612427-4.4954224,2.1358032
		l-4.8384399,10.6483765c-1.9545288,4.3013916,21.8883667,19.3416748,53.2545166,33.5945435
		c31.3660278,14.2525635,58.3773193,22.3200684,60.3318481,18.0186768l4.838623-10.6479492
		C682.5808716,987.8834229,682.1311035,986.2862549,681.7266846,984.6836548z"/>
	<path fill="#333333" d="M653.2075195,830.6317139L653.2075195,830.6317139
		c-6.4314575,7.4918823-1.8837891,19.1271973,7.9235229,20.2720337l0,0
		c17.2901001,2.0180054,34.8112183-0.2407227,51.0239258-6.5778809l2.7677612-1.0817261
		c8.8371582-3.4541626,13.2010498-13.418396,9.7469482-22.2557373l-4.4784546-11.4580078
		c-3.4542236-8.8371582-13.418457-13.2011108-22.2558594-9.7470093l-2.7675171,1.0817871
		C678.954834,807.2022705,664.5462036,817.4237061,653.2075195,830.6317139z"/>
	<path fill="#333333" d="M599.4543457,826.1522827L599.4543457,826.1522827
		c8.4388428,5.1268311,19.178772-1.2542114,18.7122803-11.1168823l0,0
		c-0.8226318-17.3878784-5.9026489-34.3079224-14.7938232-49.2733765l-1.5177002-2.5544434
		c-4.8463745-8.1575317-15.3880615-10.8415527-23.5455933-5.9952393l-10.5761719,6.2835083
		c-8.1572876,4.8464355-10.8415527,15.3880005-5.9951172,23.5452881l1.5178223,2.5548096
		C572.1470337,804.5612793,584.5772095,817.1143188,599.4543457,826.1522827z"/>
	<path fill="#333333" d="M645.2463379,823.8040771l-17.4454956-7.2800903
		c-1.2924805-0.5393677-2.7775879,0.071167-3.3169556,1.3637085l-13.8751831,33.2503662
		c-0.5393677,1.2924805,0.071228,2.7775269,1.3637085,3.3169556l17.4455566,7.2801514
		c1.2924194,0.5393677,2.7774658-0.071167,3.3167725-1.3637085l13.8752441-33.2505493
		C647.149292,825.8284302,646.5387573,824.3434448,645.2463379,823.8040771z"/>
	<path fill="#333333" d="M566.2224731,809.7679443c0,0-14.9096069-31.6883545-65.612793-30.5240479
		c-2.4584961,0.0563354-3.9093323,2.7888794-2.515686,4.8150635l12.228363,17.7781982l-7.9421387,15.3353882
		c-1.3063049,2.5221558,1.2288818,5.3301392,3.8594666,4.2584839
		C518.2669067,816.5313721,542.3501587,808.34729,566.2224731,809.7679443z"/>
	<path fill="#333333" d="M683.2197876,860.1561279c0,0,32.8026123-12.2657471,68.2772217,23.9796143
		c1.7201538,1.7572632,0.8501587,4.7264404-1.562561,5.2029419l-21.1680908,4.1831665l-5.0266113,16.5223999
		c-0.8267212,2.7174072-4.6021729,2.9563599-5.7364502,0.3521118
		C712.817688,898.4899292,701.2974243,875.8123779,683.2197876,860.1561279z"/>
</g>
<g>
	<path fill="#333333" d="M668.2947388,185.6771851c-11.4641113,4.0156403-22.4815674,8.8166656-33.2141113,14.4673004
		c12.376709,6.2817841,24.8048096,12.4616547,37.2879028,18.5295105
		C671.0113525,207.6746521,669.65271,196.6757507,668.2947388,185.6771851z"/>
	<path fill="#333333" d="M628.1919556,160.8267059c0.9383545,11.3585052,1.8763428,22.7168579,2.8146973,34.0753784
		c11.9746094-6.362854,24.2751465-11.7267609,37.1395874-16.1219177
		c-13.4581299-6.0133972-26.8219604-12.2378387-40.0953979-18.6613007
		C628.1228027,160.3504333,628.1721802,160.5873413,628.1919556,160.8267059z"/>
	<path fill="#333333" d="M607.7870483,333.2536316c-16.2063599,8.1207275-24.9268188,24.7710571-29.2408447,41.6767273
		c-0.111145,0.4349976-0.3081665,0.7747803-0.5241699,1.0878906c23.9014893,3.1846924,46.9364014-0.5275879,65.1412354-17.2513733
		c7.9827271-7.3340454,13.8806152-16.8458557,19.2261353-26.5852966c-0.3150024-0.0482788-0.6283569-0.079071-0.9584961-0.2342529
		C646.5318604,324.9421387,622.6843872,325.7889099,607.7870483,333.2536316z"/>
	<path fill="#333333" d="M592.1064453,177.8168488c10.7317505,5.7204742,21.5040283,11.3595123,32.3187866,16.9161835
		c-0.8014526-9.7019806-1.6030884-19.4044342-2.4049072-29.1065674
		C611.9949951,169.5611267,602.0245361,173.618988,592.1064453,177.8168488z"/>
	<path fill="#333333" d="M581.2930908,192.2604828c-10.7592773,22.6539154-23.2853394,53.0382233-45.9482422,66.5839691
		c-20.6065063,12.3179626-37.0624695-2.9175873-58.1245422-2.8617401
		c-14.8612061,0.0393219-32.0479736,16.3198395-35.6289673,30.8499908
		c-5.7007751,23.1321106,18.7304077,38.2554626,35.4326782,48.0650635
		c25.0325317,14.7016907,60.6542664,34.0769653,95.1474304,40.2122803c-0.1298218-0.478241-0.1744995-1.0012512-0.0202637-1.6047058
		c4.784729-18.7492981,14.805603-37.4535828,32.8413086-46.3746033c17.1728516-8.4925842,42.3068237-9.0568237,59.5111694-0.9684143
		c0.343811,0.1612244,0.5697021,0.3849182,0.8059082,0.6020508c2.1065674-3.958374,4.1711426-7.8954468,6.2906494-11.6790466
		c7.5587769-13.492157,15.1174316-26.9848328,22.6760864-40.4766846
		c5.6450195-10.0760193,11.2895508-20.15271,16.9348755-30.2285767
		c-42.3279419-19.5775299-84.0566406-40.3677063-125.1793823-62.3617706
		C584.4740601,185.4419403,582.9071655,188.8623199,581.2930908,192.2604828z"/>
	<path fill="#333333" d="M612.213562,124.5096664c-0.3980103-0.2461243-0.6868286-0.5496826-0.9286499-0.8686447
		c-2.4830933,5.7196198-4.9411011,11.4513397-7.3782349,17.1917267
		c42.5123901,21.6811371,86.0007324,41.2267761,130.4400635,58.6204376
		c0.6886597,0.2696991,1.0942383,0.6930237,1.3829956,1.1616211c1.8395996-3.2840118,3.6791992-6.5680389,5.5183105-9.85112
		c0.3554077-0.634201,0.7250977-1.2769928,1.1017456-1.925354
		C696.9586792,171.5336609,653.5270996,150.0762939,612.213562,124.5096664z"/>
	<path fill="#333333" d="M744.5604248,161.0410767c-10.4606323-7.7128601-24.409668-12.2093811-35.9591675-18.0590668
		c-28.7913818-14.581192-57.0797729-30.1299057-85.6897583-45.0579224
		c-3.196228,6.7454529-6.2979126,13.5342407-9.3022461,20.3642883c0.5327148-0.0157471,1.0894165,0.0737076,1.6766968,0.4369125
		c41.3762207,25.6043625,84.8758545,47.0909958,130.3419189,64.4088364
		C749.9194946,175.2937927,752.8287964,167.1378326,744.5604248,161.0410767z"/>
	<path fill="#333333" d="M682.4529419,223.6025696c9.9988403,4.8024139,20.0407104,9.5170593,30.1066895,14.1831818
		c1.8460693-10.1984253,1.5856934-19.8317413-0.7885742-29.9275665
		C702.2161865,213.5523376,692.4743652,218.7838898,682.4529419,223.6025696z"/>
	<path fill="#333333" d="M590.826416,171.2879333c10.8720093-4.594101,21.7959595-9.047226,32.7980347-13.3260498
		c-7.454895-3.638031-14.8893433-7.3221283-22.2855225-11.0904236
		C597.8770142,155.0289764,594.3933716,163.1765442,590.826416,171.2879333z"/>
	<path fill="#333333" d="M674.3610229,181.527832c1.5050659,12.1890869,3.0098267,24.378006,4.5147095,36.5658112
		c11.3980103-5.4755859,22.4440918-11.4468536,33.2570801-18.0642548c1.7733154-1.0847168,4.2667847-0.2127686,4.854248,1.8272247
		c2.560791,8.9020233,3.6304932,17.6392975,3.2207642,26.4642181c4.2797852-7.6395264,8.5595703-15.279068,12.8400269-22.9190521
		c-0.5601196,0.0863495-1.1477661,0.0809784-1.7738647-0.1635895
		C712.1221313,197.7415924,693.1580811,189.8216248,674.3610229,181.527832z"/>
</g>
</svg>
