<?xml version="1.0" encoding="utf-8"?>
<!-- Generator: Adobe Illustrator 24.0.3, SVG Export Plug-In . SVG Version: 6.00 Build 0)  -->
<svg version="1.1" id="Слой_1" xmlns="http://www.w3.org/2000/svg" xmlns:xlink="http://www.w3.org/1999/xlink" x="0px" y="0px"
	 viewBox="0 0 1366 1168.1999512" style="enable-background:new 0 0 1366 1168.1999512;" xml:space="preserve">
<g>
	<path style="fill:#1C1C1C;" d="M999,854.5c10.5-13.2000122,27.1999512-31.7000122,26.5-49.7999878
		C1024.5999756,784.1000366,1005.5999756,762.5,991.4000244,749c-32.7999878-31.2999878-89-14.7000122-118.9000244,13.0999756
		C858.2999878,776.5,846.2999878,791,848.7999878,812.3999634c2.0999756,18.7999878,16.7999878,57.9000244,33.0999756,69.2000122
		c14,9.7999878,47.7000122,8.2999878,63.7999878,7.5C970.4000244,888,984,873.2999878,999,854.5z M961.2000122,752.5
		C955,760.2000122,948.9000244,768,942.6000366,775.7000122c-6.4000244,7.7999878-14.5,14.4000244-21,22
		c-5.2000122-0.7000122-10.7999878,0-17.0999756,0.5C892.9000854,799,881.3000488,799.4000244,869.7000732,800.5
		c2.2000122-9.2000122,7-18.2000122,14.9000244-26.2000122C903.4000244,756.7999878,935.0999756,745.5,961.2000122,752.5z
		 M917,870.2000122c-26.7999878-4.9000244-46.4000244-27.5-48.7000122-52.4000244c15-1.9000244,46.2999878-8.7999878,56.5,2.2000122
		c12,12.9000244,16.9000244,33.5,27.0999756,48C941.7000122,871.5999756,930.2000122,872.5999756,917,870.2000122z
		 M967.4000244,860.2999878c-0.0999756-0.0999756-0.0999756-0.2999878-0.2000122-0.4000244
		c-11.7000122-16.2000122-17.4000244-38-30.7000122-53.0999756c5.9000244-6.4000244,12.5999756-12.0999756,18.2000122-18.9000244
		c7.5-9.0999756,14.7000122-18.5999756,22.2999878-27.7000122c0.0999756-0.0999756,0.0999756-0.2000122,0.2000122-0.2999878
		c0.5999756,0.4000244,1.2999878,0.7999878,1.9000244,1.2999878c8.9000244,6.7000122,27,28.5,28.4000244,41
		c1.2999878,11.5-9.4000244,24.5999756-15.5,33C984.5999756,845.5,976.5,854,967.4000244,860.2999878z"/>
	<path style="fill:#1C1C1C;" d="M1095.5999756,932.9000244c-32.4000244-15.5-89.2000122-18.2999878-112.7999878,14.5
		C971.0999756,963.7000122,958,994.1000366,961.3999634,1014.6000366c3.2999878,20.2000122,24.5,33.000061,40.4000244,43.8999634
		c19.5,13.3000488,37.6000366,23.9000244,61.2999878,17.4000244c16-4.4000244,47.8000488-12.1999512,58.8000488-26
		c12.6999512-15.9000244,14.9000244-58,10.9000244-77.0999756C1128.5999756,952.4000244,1113,942.0999756,1095.5999756,932.9000244z
		 M1086.9000244,947.7999878c9,4.7000122,16.0999756,12.2000122,21.1999512,21c-10.4000244,2.2000122-20.5999756,5-30.9000244,7.5
		c-6.5,1.5999756-12.8000488,2.5-18.1999512,5.0999756c-8.5-5.2999878-17.9000244-9.0999756-26.3000488-14.5999756
		c-8.5-5.5999756-16.9000244-11.4000244-25.4000244-17C1030.1999512,935.4000244,1064.8000488,937.2000122,1086.9000244,947.7999878
		z M978.2999878,1011.5999756c-2.5-12.7999878,7.5999756-39,15.7000122-50.2000122c0.2000122,0.2000122,0.2999878,0.4000244,0.5,0.5
		c9.9000244,6.5,19.5,13.2999878,29.4000244,19.7000122c7.5,4.9000244,15.8000488,8.5,23.5,12.9000244
		C1039.5,1012.9000244,1040.5,1035,1034.0999756,1053.9000244c-0.0999756,0.3000488,0,0.5-0.0999756,0.8000488
		c-8.1999512-2.4000244-16.0999756-6.0999756-23.5-11.1999512
		C1001.4000244,1037.3000488,980.9000244,1024.9000244,978.2999878,1011.5999756z M1094.6999512,1045.5
		c-13.8000488,9.1999512-28.9000244,13.0999756-43.8000488,12.3000488
		c5.5999756-17.3000488,4.3000488-37.9000244,11.6999512-54.4000244c4-9,13.9000244-9.0999756,22.6999512-11.2000122
		c9.8000488-2.4000244,19.5-5.0999756,29.4000244-7.0999756C1120.5,1006.9000244,1115.0999756,1031.8000488,1094.6999512,1045.5z"/>
	<path style="fill:#1C1C1C;" d="M1075.5,792.4000244c16.1999512,2.2000122,30.9000244-9.5,34-25.2999878
		c3.1999512-16.5-6.1999512-27.4000244-20.8000488-33.2000122c-1.5999756-0.5999756-3-0.5999756-4.3000488-0.4000244
		c-16.1999512-1-33.0999756,6.5-36.9000244,23.7000122C1043.8000488,774,1059.5,790.2000122,1075.5,792.4000244z
		 M1064.6999512,759.2999878c2.6999512-8.2000122,12.1999512-9.2000122,19.5999756-8.5999756
		c6,2.4000244,9.5999756,6.2000122,8.1999512,13.0999756c-1.4000244,7-7.5,12.5-14.8000488,11.5
		C1070.9000244,774.2999878,1062.1999512,766.9000244,1064.6999512,759.2999878z"/>
	<path style="fill:#1C1C1C;" d="M1135.5,827.7999878c-1.5999756-0.5999756-3-0.5999756-4.3000488-0.4000244
		c-16.1999512-1-33.0999756,6.5-36.9000244,23.7000122c-3.6999512,16.7999878,12.0999756,33,28.0999756,35.2000122
		c16.1999512,2.2000122,30.9000244-9.5,34-25.2999878C1159.5,844.5999756,1150,833.5999756,1135.5,827.7999878z
		 M1139.4000244,857.7000122c-1.4000244,7-7.5,12.5-14.8000488,11.5C1117.6999512,868.2999878,1109,860.7999878,1111.5,853.2999878
		c2.6999512-8.2000122,12.1999512-9.2000122,19.5999756-8.5999756
		C1137.0999756,847.0999756,1140.8000488,850.9000244,1139.4000244,857.7000122z"/>
	<path style="fill:#1C1C1C;" d="M912.5,953.4000244c-1.5999756-0.5999756-3-0.5999756-4.2999878-0.4000244
		C892,952,875.1000366,959.5,871.2999878,976.7000122c-3.7000122,16.7999878,12.0999756,33,28.0999756,35.2000122
		c16.2000122,2.2000122,30.9000244-9.5,34-25.2999878C936.5,970.0999756,927.0999756,959.2000122,912.5,953.4000244z
		 M916.5,983.2999878c-1.4000244,7-7.5,12.5-14.7999878,11.5c-6.9000244-0.9000244-15.5999756-8.4000244-13.0999756-15.9000244
		c2.7000122-8.2000122,12.2000122-9.2000122,19.5999756-8.5999756
		C914.2000122,972.7000122,917.7999878,976.4000244,916.5,983.2999878z"/>
	<path style="fill:#1C1C1C;" d="M1233.1999512,522.2000122c3.0999756,3.0999756,9.1999512,3.5,12.1999512,0
		c10.3000488-12.1000061,20.6999512-24.1000061,30-37c2.3000488-3.2999878,1-7.7000122-1.4000244-10.5
		C1246.0998535,442,1163.1998291,323.3000183,1126.8999023,412.5c-12.3000488,30.2999878-17.5999756,65.5-25.9000244,97.1000061
		c-3.6999512,14.1999817-7.4000244,28.3999939-11.0999756,42.6000061c-102.2999878-0.2000122-204.7000122-2.7999878-307-2.9000244
		c-1.5,0-2.7000122,0.2999878-3.7999878,0.9000244c-3,1-5.2000122,3.5999756-4.7999878,7.7999878
		c11.9000244,128.9000244,26.7999878,257.5,47.2999878,385.2999878
		c5.4000244,33.4000244,11.0999756,66.7999878,17.4000244,100.1000366c3.2999878,17.5,2.9000244,47.3000488,15.5,61.0999756
		c9.5999756,10.5,26.2000122,8.4000244,38.9000244,8.8000488c34.2000122,1,68.2999878,2.0999756,102.5,1.9000244
		c30.2000122-0.0999756,60.2999878-0.6999512,90.499939-0.9000244c17-0.0999756,45,3.8000488,60.8000488-4.5
		c33.5999756-17.5,29.5999756-83.6999512,34.6999512-115.7999878c22.9000244-144.2999878,45.6999512-288.5,68.5999756-432.7999878
		c0.8000488-5.2999878-2.1999512-11.0999756-8.3000488-10.9000244c-28.5,0.9000244-57.0999756,1.4000244-85.5999756,1.7000122
		c7.1999512-27.7999878,15-55.5,23.6999512-82.8999939C1198,486.7000122,1215.6999512,504.3999939,1233.1999512,522.2000122z
		 M1075.6999512,684.5c8.5-38.5,17.9000244-76.7000122,27.6999512-114.9000244c10.3000488,0,20.6999512,0,31-0.0999756
		c-9.5999756,38.7000122-18.5,77.7000122-27.8000488,116.4000244C1096.3000488,685.7999878,1086,685.2999878,1075.6999512,684.5z
		 M1058.4000244,682.7000122C1035.7000732,680.1000366,1013,676.2000122,990.3000488,672
		c-65.0999756-11.7999878-123-13.5-186.7000122,4.5c-4-36.5999756-7.7000122-73.2000122-11.2000122-109.9000244
		c97.7000122,0.2999878,195.5,2.5999756,293.2000732,2.7999878
		C1075.9000244,607.0999756,1066.6999512,644.7999878,1058.4000244,682.7000122z M1178.5,906.2000122
		c-4.4000244,27.7000122-8.8000488,55.5-13.1999512,83.2000122c-4.0999756,25.7000122-3.9000244,59-13.1999512,83.1999512
		c-11.5,30.0999756-38.6999512,24.1999512-65.6999512,24.4000244c-27.5999756,0.1999512-55.1999512,0.6999512-82.7999878,0.9000244
		c-26,0.1999512-52,0.0999756-78-0.6999512c-12.0999756-0.3000488-28.5999756,2-40.4000244-1.5999756
		c-24-7.4000244-21.5999756-15.1999512-25.2999878-34.1999512c-10.5-53.7000122-19.7000122-107.7000122-27.9000244-161.7999878
		c-10.4000244-68.4000244-19-137-26.7000122-205.7999878c85.4000244-24.7999878,158-5.5,243.1000366,6.2000122
		c55.6999512,7.5999756,112.6999512,4.5999756,165.0999756-15.7999878
		C1201.9000244,758.2999878,1190.1999512,832.2999878,1178.5,906.2000122z M1232.0999756,567.7999878
		c-5.0999756,32.2999878-10.1999512,64.5999756-15.4000244,96.9000244
		c-30.4000244,13.5999756-61.3000488,19.5-92.4000244,20.9000244
		c9.3000488-38.7000122,18.0999756-77.5999756,27.8000488-116.2999878
		C1178.8000488,569.0999756,1205.5,568.5999756,1232.0999756,567.7999878z M1138.6999512,552.2000122
		c-10.3000488,0.0999756-20.6999512,0.0999756-31,0.0999756c2.8000488-10.9000244,5.5999756-21.7999878,8.5-32.7000122
		c8.0999756-31.1000061,11.5999756-76,28.1999512-104.1000061c21.6999512-36.7000122,47.5-5.3999939,66.4000244,14.3999939
		c9.6999512,10.2000122,46,40.8999939,45,53.2000122c-0.5,6.2999878-14.1999512,14.7000122-17.4000244,20.7000122
		c-0.4000244-0.7000122-0.6999512-1.2999878-1.3000488-2.2999878
		c-12.4000244-20.1000061-37.6999512-38.1000061-54.5999756-54.7000122
		c-4.8000488-4.7000122-12.4000244-2.2999878-14.4000244,3.7999878C1157,484.1000061,1147.5,518,1138.6999512,552.2000122z"/>
	<path style="fill:#1C1C1C;" d="M812.2999878,622.5999756c2.4000244,10.5,4.2000122,21.0999756,5.9000244,31.7000122
		c1.7999878,10.9000244,18.5,6.2999878,16.5999756-4.5999756c-2-11.9000244-4-23.9000244-6.9000244-35.5999756
		c-0.4000244-1.7000122-2.5-6.0999756-2.0999756-7.7999878c-0.2999878-0.4000244-0.7000122-0.7000122-1-1.0999756
		c1.5999756-0.0999756,3.2000122-0.2999878,4.7999878-0.4000244c6.7000122-0.2999878,13.4000244,0.2000122,20.0999756,1
		c11,1.4000244,10.9000244-15.9000244,0-17.2999878c-12.0999756-1.5-38.0999756-5.4000244-41.4000244,11.7999878
		C807,607.5,810.7000122,615.7000122,812.2999878,622.5999756z"/>
	<path style="fill:#1C1C1C;" d="M876.5999756,608.0999756c11.0999756,0,11.0999756-17.2999878,0-17.2999878
		S865.4000244,608.0999756,876.5999756,608.0999756z"/>
</g>
</svg>
