<?xml version="1.0" encoding="utf-8"?>
<!-- Generator: Adobe Illustrator 23.1.0, SVG Export Plug-In . SVG Version: 6.00 Build 0)  -->
<svg version="1.1" id="Слой_1" opacity="0.7" xmlns="http://www.w3.org/2000/svg" xmlns:xlink="http://www.w3.org/1999/xlink"
	 x="0px" y="0px" viewBox="0 0 700 1171.9" style="enable-background:new 0 0 700 1171.9;" xml:space="preserve">
<style type="text/css">
	.st0{opacity:0.7;}
	.st1{fill:#1C1C1A;}
</style>
<g id="Кальян" class="st0">
	<g>
		<path class="st1" d="M436,950.7c-1-1.5-2-3.1-3.1-4.5c-4.7-6.2-10.4-11.2-16.5-15.8c-0.7-0.1-1.4-0.1-2-0.2
			c4.4,6.7,8,13.9,10.3,21.6C428.4,951.6,432.2,951.2,436,950.7z"/>
		<path class="st1" d="M361.4,1034.5c65.4,0,117.2-29.3,117.2-66.9c0-9-8.5-20.9-15.7-26.7c-0.1-0.1-0.2-0.3-0.3-0.4
			c-2-2.4-8.4-4.5-17.8-6.3c2.7,4.5,4.9,9.2,6.6,14.1c3.1-0.7,6.2-1.6,9.1-2.8c-2.8,1.5-5.8,2.6-8.9,3.6c1.4,4.3,2.5,8.8,2.9,13.4
			c0.8,8.3-0.1,16.9-3.5,24.6c-3.3,7.6-8.4,13.9-14.9,19.2c-7.5,6.1-16.1,10.1-25.1,13.5c11.5-6.8,22.5-14.8,28.8-27
			c3.8-7.4,5-16,3.5-24.2c-1-5.8-3.3-11.3-6.3-16.3c-3.3,0.6-6.6,1.1-9.9,1.5c-0.6,0.1-1.3,0.2-1.9,0.2c0.5,2,1,4.1,1.4,6.2
			c0.7,4.3,0.7,8.5,0.3,12.9c-0.7-3.7-1.5-7.3-3.1-10.8c-1.2-2.7-2.6-5.2-4.2-7.7c-10.8,1.3-21.8,2.1-32.6,2.5
			c-27.2,1.1-54.6,0.7-81.6-2.4c-13.2-1.5-26.8-3.3-39.2-8.1c11.2,3.3,23,4.4,34.6,5.3c13.4,1.1,26.8,1.6,40.2,1.9
			c25.7,0.5,51.4,0.3,77.1-1.6c-0.4-0.5-0.7-1.1-1.1-1.6c-4.3-6.1-9.8-11.5-15.6-16.2c-2.4-2-5-3.8-7.6-5.5
			c-10.1-0.4-20.8-0.7-31.9-0.7c-28.4,0-54.2,1.8-72.6,4.5c0.7-1.6,1.3-3.3,1.9-5c1.5-4.5,2.7-9.1,3.1-13.8c0,0.2-0.5,0.6-0.6,0.8
			c-0.3,0.4-0.6,0.9-0.9,1.3c-0.7,1.1-1.4,2.2-1.9,3.4c-1.2,2.4-2.2,4.9-3.1,7.4c-0.7,2.1-1.3,4.3-1.7,6.5c-3.1,0.5-5.8,1-8.4,1.5
			c0-0.1,0.1-0.1,0.1-0.1c1-3.4,2.1-7.2,2.1-10.8c0,0.2-0.7,1-0.8,1.1c-2.2,3.3-3.9,6.9-5.2,10.7c-6.8,1.6-11.3,3.4-12.7,5.2l0,0
			c-8.3,6.2-16.9,17.7-16.9,26.8C244.1,1005.2,295.9,1034.5,361.4,1034.5z M296.1,959.9c3.7,0,6.7,3,6.7,6.7s-3,6.7-6.7,6.7
			s-6.7-3-6.7-6.7S292.4,959.9,296.1,959.9z M270.9,956c5.8,0,10.5,7.4,10.5,16.4c0,9.1-4.7,16.4-10.5,16.4s-10.5-7.4-10.5-16.4
			S265.1,956,270.9,956z"/>
		<path class="st1" d="M279,925C279.5,924.3,278.5,925.7,279,925L279,925z"/>
		<path class="st1" d="M298.9,927.8c0.7-1,1.3-2.1,1.8-3.2c1.3-2.5,2.5-4.9,3.5-7.5c1.1-2.6,2-5.2,2.8-7.9c0.5-2,0.8-3.9,1.3-5.9
			c-0.2,0.7-1.3,1.5-1.6,2.1c-0.7,1-1.4,2-2,3.1c-1.4,2.4-2.6,4.8-3.7,7.4c-1.1,2.6-2,5.4-2.6,8.1c-0.3,1.1-0.5,2.4-0.7,3.5
			c-0.1,0.4-0.1,0.9-0.2,1.4c0,0.1,0.1,1.1-0.1,1.2C297.9,929.8,298.6,928.3,298.9,927.8z"/>
		<path class="st1" d="M312,917.6c0.7-1,1.4-2.1,2.1-3.2c1.5-2.4,2.8-4.8,4-7.3c1.3-2.5,2.4-5.1,3.3-7.7c0.4-1.1,0.8-2.3,1.1-3.4
			c0.1-0.3,0.4-2.5,0.6-2.6c-0.3-0.1-1.5,1.7-1.8,2c-0.8,1-1.6,2.1-2.4,3.2c-1.6,2.3-3,4.8-4.2,7.3c-2.2,4.5-3.6,9.1-4.4,13.9
			C310.8,919.7,311.7,918,312,917.6z"/>
		<path class="st1" d="M325.8,908.3c0.8-1,1.6-2,2.4-3.1c1.6-2.3,3.1-4.6,4.5-7.1s2.8-5,3.9-7.6c0.2-0.4,2.4-6.1,2.2-6.2
			c-0.7,0.3-1.4,1.3-2,1.9c-0.9,0.9-1.7,2-2.6,3c-1.7,2.2-3.3,4.5-4.7,6.9c-1.4,2.5-2.7,5-3.7,7.7c-0.4,1.2-0.9,2.4-1.2,3.6
			c-0.2,0.7-0.8,2.1-0.6,2.7C324.7,909.9,325.4,908.8,325.8,908.3z"/>
		<path class="st1" d="M348.1,889.8c1.6-2.5,3.2-5,4.5-7.6c0.6-1.1,1.1-2.4,1.7-3.6c0.2-0.5,0.4-1,0.6-1.5c0.1-0.2,0.1-0.8,0.3-0.9
			c-0.2-0.1-2,1.7-2.2,1.9c-1,0.9-1.9,1.9-2.8,2.8c-1.9,2.1-3.6,4.4-5.2,6.8c-1.6,2.4-3,4.8-4.2,7.4c-0.2,0.5-2.4,6.2-2.2,6.2
			C339.2,901.9,347.5,890.7,348.1,889.8z"/>
		<path class="st1" d="M372.3,869.2c-0.1,0-0.1,0.1-0.2,0.2C372.3,869.3,372.3,869.2,372.3,869.2z"/>
		<path class="st1" d="M354,893.6c-0.1-0.2,1.9-1.6,2.1-1.9c0.9-0.9,1.9-1.8,2.7-2.8c2-2.1,3.8-4.4,5.6-6.7c1.8-2.4,3.5-4.8,5-7.3
			c0.7-1.1,1.3-2.2,1.9-3.4c0.2-0.3,0.5-1.7,0.9-2.2c-0.3,0.2-0.8,0.5-0.9,0.6c-0.4,0.3-0.9,0.7-1.3,1c-1,0.8-2,1.7-3,2.7
			c-2,2-3.9,4.1-5.6,6.3c-1.8,2.4-3.4,4.8-4.8,7.4c-0.6,1.1-1.1,2.3-1.6,3.4C354.7,891.3,353.8,893.1,354,893.6z"/>
		<path class="st1" d="M369.9,886.6c0.1-0.2,0.8-0.6,1-0.7c0.4-0.3,0.9-0.7,1.3-1c1-0.8,2-1.7,3-2.6c2.1-2,4.2-4.2,6.1-6.3
			c2-2.2,3.8-4.5,5.5-7c1.2-1.7,2.6-3.6,3.3-5.6c-0.8,0.6-1.7,1.1-2.5,1.6c-1.1,0.8-2.2,1.7-3.3,2.6c-2.2,1.9-4.2,3.9-6.1,6.1
			c-1.9,2.2-3.7,4.6-5.3,7.1C372.7,881.1,369.8,886.6,369.9,886.6z"/>
		<path class="st1" d="M629.2,1089.6c-1.1-4.8-4.3-8.1-7.2-7.5c-1.1,0.3-2.1,1.1-2.7,2.4c-0.9,1.8-2.7,3-4.7,2.8
			c-6.3-0.4-14.2,0-20.2,0.6c-2.7-2.3-6.1-3.8-9.9-4c-6-0.3-11.4,2.7-14.5,7.4l-79.2,12.8c-2.6-2.1-5.8-3.3-9.4-3.5
			c-5.8-0.3-11,2.5-14.2,6.9c-2.5-1.9-5.6-3-9-3.2c-6.9-0.3-13.1,3.7-15.8,9.7c-37.2,3.7-72.6,5.5-105.4,5.5
			c-95.1,0-168.5-15-200.6-43.2c-10.6-9.3-15.9-19.7-15.9-30.8c0-40.7,41.6-67.4,112.4-99.3c-4.7,8.3-7.1,16.9-7.1,25.7
			c0,21.9,14.5,42.2,40.7,57.3c6.5,3.7,13.4,7,20.8,9.8l-18.6,13.8c-3.4,2.5-5,6.5-4.4,10.5c0.7,4.3,3.6,7.9,7.8,9.4
			c19.9,7.2,50.8,10.9,89.3,10.9c37.4,0,66.9-1.9,89.5-11c4.2-1.7,7.1-5.4,7.7-9.6c0.5-3.9-1.1-7.8-4.4-10.2l-18.7-13.8
			c7.4-2.8,14.4-6.1,20.8-9.8c26.2-15.1,40.7-35.4,40.7-57.3c0-10.8-3.6-21.3-10.6-31.2l-0.1-0.2c-0.2-0.3-0.4-0.6-0.6-0.8
			c-7.6-10.6-17.7-17.8-28.3-25.5c-16.9-12.2-34.3-24.8-43.8-52.5c13.3-7.4,26.5-15.4,40.5-23.9c9.3-5.7,18.9-11.5,28.7-17.3
			C597,753.5,611.3,692.2,612.2,669c0.7-19.1-6.2-35-18.9-43.9c-28.6-19.8-65.1-10.4-93.8,7.2c-0.8-0.2-1.6-0.3-2.5-0.3
			c-6.3,0-11.4,5.1-11.4,11.4v0.1c-2.2-0.3-7-1.6-8.9,0l-39,32.3c-3.9-0.7-7.7-0.1-10.5,2.4c-7.1,5.9-15.1,19.1-25.6,33.2
			c-5.7-4.9-12.7-8.8-20.6-11.3c2.5-2.6,4-6.1,4-10.1V571.5c0-3.9-1.5-7.5-4-10.1c15.3-3.3,25.9-10.3,25.9-18.5
			c0-4.2-2.7-8-7.5-11.3h23.7c13,0,24.8-4.5,29.6-11.5l8.8-12.5c2-2.8-0.1-6.8-3.6-6.8h-80.6l-3-10.3c8.6-3.4,14.5-10.2,14.5-18
			c0-6.3-3.9-12-10-15.8c10.2-3.8,18.6-11.6,23-21.9l5-11.8h-91.1l5,11.8c4.4,10.3,12.8,18.1,23,21.9c-6.1,3.8-10,9.5-10,15.8
			c0,7.8,5.8,14.5,14.3,17.9l-2.9,10.4h-80.6c-3.5,0-5.5,3.9-3.6,6.8l8.5,12.4c4.8,7,16.6,11.6,29.7,11.6h24.1
			c-4.7,3.2-7.5,7.1-7.5,11.3c0,8.1,10.6,15.2,25.9,18.5c-2.5,2.6-4,6.2-4,10.1V690c0,3.9,1.5,7.4,4,10.1
			c-7.9,2.5-14.9,6.3-20.6,11.3c-11-14.7-18.5-27.4-25.6-33.2c-6-4.9-16-2.7-22.5,5.1s-6.9,18.1-0.9,23c7.2,6,22.2,11.5,37.9,19.2
			c-2.6,5.3-4.1,11.1-4.1,17.2c0,7.7,2.4,14.9,6.4,21.3c-7.5,4.6-14,9.5-19,13.7c-6.6,5.5-6.6,15.6,0,21.2c5.2,4.4,12,9.6,20,14.4
			H310c-4.2,0-7.6,3.4-7.6,7.6v9.6c0,4.2,3.4,7.6,7.6,7.6h4.4c-6.1,43.7-26.6,59.9-47.1,74.7c-102.1,43.4-163.9,74.5-163.9,132.8
			c0,16.2,7.3,30.9,21.6,43.5c35.3,31.1,111.6,47.6,211.5,47.6c33.5,0,69.5-1.9,107.6-5.6c2.8,3.7,7.3,6.2,12.3,6.5
			c5.8,0.3,11-2.5,14.2-6.9c2.5,1.9,5.6,3,9,3.2c5.1,0.2,9.7-1.9,12.8-5.3l83.2-13.4c2.1,1.1,4.5,1.9,7.1,2
			c7.4,0.3,13.9-4.3,16.3-10.9c5.5-2,12.5-4.9,17.8-7.9c1.7-1,3.9-0.7,5.5,0.5c1.1,0.8,2.3,1.2,3.4,1
			C628.8,1098.8,630.3,1094.4,629.2,1089.6z M448.3,1060.5c0.5,0.4,0.7,0.7,0.6,1.2c-0.1,0.6-0.5,1.5-1.7,1.9
			c-22.4,9.1-54.5,10.3-85.9,10.3c-37.4,0-67.2-3.6-86-10.4c-1-0.4-1.5-1.1-1.5-1.7c-0.1-0.5,0.1-1,0.6-1.4l24-17.8
			c1.6,0.5,3.3,1,4.9,1.4c-9.7,7.1-21.8,15-15.6,18.3c3.7,2,18.8,4.6,34.7,6c3.2,0.3,6.5,0.6,9.7,0.9c12.3,0.9,24.7,1.4,37,1.4
			c9-0.1,17.9-0.2,26.9-1c-3.9,0.1-7.8-0.1-11.6-0.2c-20.7-0.8-41.3-3.2-61.8-6.6c-5.9-1-8-8.5-3.3-12.4c0.9-0.8,2-1.5,3.2-2.1
			c5.4,0.9,10.9,1.6,16.6,2.2c-2.4,1.1-3.8,2.4-3.8,3.8c0,4.2,12.5,7.5,27.9,7.5s27.9-3.3,27.9-7.5c0-1.5-1.6-2.9-4.5-4
			c13.2-1.4,25.9-4,37.7-7.7l1.7,1.3c-3.4,1.4-7.7,3-11.9,4.5c-9.9,3.6-20.1,6.7-20.1,6.7s10.6-0.8,21.1-2c5.3-0.6,10.6-1.3,14.6-2
			c2-0.3,3.7-0.7,4.9-0.9L448.3,1060.5z M568,619.7c10.2,1.8,20.8,6.3,27.9,14c7.3,7.9,10.4,19.1,11,29.6
			c0.5,10.9-1.6,21.8-5.3,32.1s-9.2,19.6-15.6,28.5c9.3-16.7,17.1-34.8,17.5-54.2c0.3-10.4-1.6-21.4-7.4-30.2
			c-5.7-8.6-15.5-13.9-25.3-16.8c-9.6-2.8-19.7-3.2-29.7-2.1C550,618.6,559.1,618.1,568,619.7z M494.9,636.5
			c-0.2,0.8-0.3,1.6-0.3,2.4c0,4.5,3.6,8.4,8.1,8.7c-3,1.4-6.6,0.5-8.6-2.2S492.4,638.9,494.9,636.5z M454.8,696.4l39.4-32.7
			c2-1.6,1.1-6.7,1.1-9.1c0.4,0.1,0.8,0.1,1.1,0.1l0.1,0.1l0.1-0.1c0.2,0,0.3,0,0.4,0c5,0,9.2-3.2,10.8-7.7
			c17.7-10.9,50.3-25.9,76-8.2c7.9,5.5,12.1,16.2,11.6,29.4c-0.6,16-11.1,73-121,137.5c-9.9,5.8-19.6,11.8-29,17.4
			c-12.5,7.6-24.3,14.8-36.1,21.5c-0.4-2.2-0.8-4.5-1.1-6.9h4.4c4.2,0,7.6-3.4,7.6-7.6v-9.6c0-4.2-3.4-7.6-7.6-7.6h-3.2
			c8-4.8,14.8-9.9,20-14.4c6.6-5.5,6.6-15.6,0-21.2c-5-4.2-11.4-9.1-19-13.7c4.1-6.3,6.4-13.6,6.4-21.3c0-6.1-1.5-11.9-4.1-17.2
			c15.6-7.8,30.7-13.2,37.9-19.2C453.4,703.9,454.8,700.3,454.8,696.4z M344.8,598.7c0.2,4.9,0.3,9.7,0.4,14.6
			c0.5,19.5,0.5,39,0.2,58.4c-0.1,2.5-0.1,5-0.2,7.5c-0.1,2.4,0.5,4.6,1.3,6.8c1.5,3.9,3.5,7.9,6.3,11c-2.8-2.4-5.1-5.6-6.8-8.9
			c-1-1.9-2-3.9-2.5-6c-0.4-1.5-0.3-3.1-0.4-4.7c-0.4-9.8-0.8-19.6-1-29.5c-0.2-10.1-0.3-20.2-0.4-30.2s-0.3-20.1,0.3-30.1
			c0.3-5.1,1-10.3,3-15c1.7-4,4.4-7.1,7.8-9.7c-2.7,2.6-4.8,5.4-6.1,8.9c-1.5,4-2.1,8.4-2.2,12.7C344.4,589.2,344.7,594,344.8,598.7
			z M355.8,711.7c4.3,0,7.8,3.4,7.8,7.8c0,4.3-3.4,7.8-7.8,7.8c-4.3,0-7.8-3.4-7.8-7.8C348.1,715.2,351.6,711.7,355.8,711.7z
			 M386.6,781.3c18-1.7,21.2-9.9,21.2-9.9c6.1,3.4,17.5,11.2,15,15.3c-6,9.7-52,4.1-58.1,1C358.6,784.8,374.4,782.5,386.6,781.3z
			 M363.7,564.3c7.5,3,12.8,11,12.8,20.4v91.7c0,9.5-5.4,17.5-12.8,20.4c2.8-3.8,4.4-8.6,4.4-13.9V578.2
			C368.1,573,366.5,568.1,363.7,564.3z M388.1,818.1c11.5,0,20.9,1.6,20.9,3.6s-9.3,3.6-20.9,3.6s-20.9-1.6-20.9-3.6
			C367.2,819.8,376.6,818.1,388.1,818.1z M434.6,680.7c-2.2,3.9,0.3,8.5,2.8,11.6c3.1,3.7,6.9,5.5,11.5,6.6
			c-5,2.1-10.8-0.2-14.1-4.2C431.9,691.4,429.1,683.2,434.6,680.7z M416,699.3c3.4-4.7,7.2-9.5,11.6-13.2c0,0.2-0.1,0.4-0.1,0.5
			c-2.1,5.2-5.4,10.2-8.6,14.7c-3.4,4.8-7.3,9.7-11.9,13.4C409.1,709.3,412.5,704.1,416,699.3z M397.1,718.2
			c8.6,8.7,11.6,19.7,6.7,24.6c-4.9,4.9-15.9,1.7-24.5-6.9c-8.6-8.7-11.6-19.7-6.7-24.6C377.4,706.4,388.4,709.5,397.1,718.2z
			 M375.6,543.6c-10.9,0-19.7-2.4-19.7-5.4s8.8-5.4,19.7-5.4s19.7,2.4,19.7,5.4C395.4,541.2,386.5,543.6,375.6,543.6z M369.4,461.6
			c3-2.4,7.8-1.4,10.7,2.4c3,3.7,3,8.6,0,11s-7.8,1.4-10.7-2.4C366.4,468.8,366.4,463.9,369.4,461.6z M325.6,427.6
			c4,5,7.4,10.4,12,15c2.6,2.5,5.4,4.7,8.4,6.6c2.6,1.6,5.4,2.9,8.1,4.4C339.7,453,328.6,441.3,325.6,427.6z M339.3,475.2
			c-1.8-7.2,3.3-14.4,10.2-16.1c-2.1,1.9-4.1,3.8-5.4,6.4c-1.4,2.8-2,6.2-1.2,9.3c0.6,2.5,1.9,4.7,3.6,6.6c1.9,2.1,4.2,3.6,6.5,5.2
			C346.4,485.8,341,481.7,339.3,475.2z M353.5,500.9l-3.6-0.3l2.7-9.1L353.5,500.9z M309.9,526.9c-6-0.1-12,0.3-17.9-0.7
			c-6-1-11.6-3.5-16.1-7.7c-4-3.8-6.7-8.6-9.4-13.4c3.4,3.3,6.2,7.2,9.8,10.2c4.2,3.5,9.1,5.8,14.5,6.9c5.6,1.1,11.4,0.9,17.2,1
			c6.1,0.1,12.3,0.2,18.4,0.2c24.4,0.3,48.9,0.5,73.3,1.2c10.1,0.3,20.2,0.5,30.2,0.9c-20.9,0.6-41.8,0.9-62.8,1.1
			c-12.8,0.1-25.6,0.2-38.4,0.2C322.4,527,316.1,527,309.9,526.9z M326.4,551c-3.1-2.2-6.1-5.9-4.9-10c1-3.5,4.4-5.6,7.7-6.7
			c-2,1.9-4.5,4-5,6.8c-0.7,3.7,3.3,6.5,6.1,8.1c5.6,3.3,11.9,5,17.8,7.6C340.8,557.2,332.4,555.4,326.4,551z M295.5,686.7
			c3.6,4.3,21.4,26.1,21.4,26.1l-1.7,1.9c0,0-15.1-11.9-25.1-20.7C280.1,685.3,289,678.9,295.5,686.7z M292.5,713.3
			c-6.3-3.2-12.7-6.7-18.1-11.2c6.8,1.7,13.4,4.8,19.7,8c6.3,3.2,12.7,6.7,18.1,11.2C305.4,719.6,298.8,716.5,292.5,713.3z
			 M313,733.9c2.2-10,9.8-18.3,18.7-23.1c4.3-2.3,8.7-3.8,13.4-4.8c-3.3,1.8-6.6,3.4-9.7,5.4c-4,2.6-7.7,5.5-10.9,9
			c-6.5,6.8-9.8,16.2-9.8,25.6c0,4.2,0.6,8.3,1.1,12.5c-1.7-3.9-2.8-7.8-3.4-11.9C311.7,742.3,312.1,738.1,313,733.9z M300.8,796.8
			c-3.6-3.3-6.3-7.8-4-12.6c2.1-4.4,6.8-7.4,10.8-9.8c4.4-2.6,9-4.6,13.7-6.4c-2.9,2.1-5.9,4.1-8.8,6.2c-3.8,2.7-8,5.5-11,9.1
			c-1.4,1.7-2.6,3.8-1.9,6.2c0.7,2.1,2.4,3.8,3.9,5.3c3.4,3.3,7.5,6,11.4,8.7c3.4,2.4,6.8,4.7,10.1,7.2c-3.8-1.5-7.5-3.3-11.1-5.2
			C309.4,803.1,304.7,800.3,300.8,796.8z M314,832.8c-0.5-0.3-1.1-0.7-1.6-1.2c-0.3-0.3-0.5-0.5-0.8-0.8s-0.5-0.7-0.7-1
			c-0.3-0.3-0.4-0.7-0.6-1.1c-0.2-0.4-0.4-0.8-0.5-1.2s-0.3-0.9-0.3-1.3s-0.1-0.9-0.1-1.4l0.2-1.4c0.1-0.4,0.3-0.9,0.4-1.3
			s0.4-0.8,0.6-1.2l0.3-0.5c0.1-0.2,0.3-0.3,0.4-0.5c0.3-0.3,0.5-0.7,0.8-0.9s0.6-0.5,0.9-0.7c0.6-0.4,1.3-0.7,1.8-1
			c0.6-0.2,1.1-0.4,1.6-0.5c0.5-0.2,0.9-0.1,1.2-0.2c0.7-0.1,1.1-0.1,1.1-0.1s-0.3,0.3-0.8,0.7c-0.3,0.2-0.7,0.4-0.9,0.8
			c-0.3,0.3-0.7,0.6-1,1s-0.8,0.8-1.1,1.2c-0.2,0.2-0.3,0.4-0.5,0.7c-0.2,0.2-0.3,0.5-0.4,0.8c-0.2,0.2-0.3,0.5-0.4,0.8
			s-0.2,0.5-0.3,0.8c-0.1,0.3-0.2,0.5-0.2,0.8s-0.1,0.5-0.1,0.8l0.1,0.9c0,0.3,0.1,0.5,0.2,0.9c0,0.3,0.2,0.5,0.2,0.8
			c0.1,0.3,0.2,0.5,0.3,0.8c0.1,0.3,0.2,0.5,0.4,0.8c0.2,0.3,0.3,0.5,0.4,0.8c0.3,0.5,0.7,0.9,0.9,1.4c0.3,0.4,0.7,0.8,0.9,1.1
			s0.5,0.7,0.8,0.9c0.4,0.5,0.7,0.8,0.7,0.8s-0.4-0.1-1.1-0.2c-0.3-0.1-0.8-0.2-1.2-0.4C315.1,833.3,314.6,833.1,314,832.8z
			 M244.1,946.3l0.3-0.4c0.1-0.2,0.3-0.4,0.4-0.6c6.7-9.3,16.1-16.1,26.1-23.3c22.1-16,46.7-33.8,53.4-84.1h7.4
			c-0.3,2.3-0.7,4.6-1.1,6.8c-2.1,10.7-5.4,21.2-9.8,31.2c-2.1,4.8-4.5,9.5-7.5,13.8c-2.4,3.5-5,6.6-7.9,9.6c4.3-3,8.2-6.2,11.8-10
			c13.4-14.6,23.1-32.7,29.2-51.5h52c1.1,8.9,2.9,16.8,5.1,23.8c-0.4,0.3-0.8,0.5-1.3,0.9c-2.4,1.8-4.6,3.8-6.7,5.9
			c-2,2.1-3.9,4.3-5.6,6.6c-0.8,1.1-1.5,2.2-2.2,3.4c-0.4,0.7-0.7,1.9-1.3,2.5c0.5-0.7,1.7-1.1,2.4-1.6c1.1-0.8,2.2-1.6,3.2-2.5
			c2.2-1.8,4.3-3.8,6.3-5.7c2.1-2.1,4-4.2,5.8-6.5c10.4,30.8,29.7,44.8,47.4,57.6c9.9,7.2,19.4,14,26.1,23.3
			c0.2,0.2,0.3,0.4,0.5,0.7l0.1,0.2c5.8,8.2,8.8,16.8,8.8,25.6c0,18.3-12.7,35.6-35.9,48.9c-24,13.8-56,21.4-90,21.4
			c-34.1,0-66.1-7.6-90-21.4c-23.1-13.3-35.9-30.7-35.9-48.9C235.4,963,238.4,954.4,244.1,946.3z M229.3,1118.6
			c-19.4-2.7-38.6-7-57-13.5c-9.2-3.3-18.3-7.2-26.8-12c-7.9-4.4-15.4-9.8-21.5-16.5c-6.3-7-10.3-15.6-11.3-25
			c-1-9.6,0.8-19.1,4.5-28c6.6-16.1,19.3-29.4,34.1-38.3c1.1-0.7,2.2-1.3,3.3-2c-13.4,9.1-25,20.4-32.3,35c-8,16.2-10.1,36.5,1,51.8
			c5.2,7.1,12.4,12.6,19.8,17.3c7.9,5,16.4,9,25.1,12.4c17.9,7.1,36.7,11.9,55.6,15.4c17.3,3.3,34.7,5.4,52.2,6.9
			c1.3,0.1,2.5,0.2,3.7,0.3C263,1122.2,246.1,1120.9,229.3,1118.6z M464.5,1122.7c-2.5,1.8-6.4,0.7-8.9-2.6c-2.5-3.3-2.5-7.4,0-9.2
			c2.5-1.8,6.4-0.7,8.9,2.6C466.9,1116.8,466.9,1120.9,464.5,1122.7z M487.1,1118.3c-2.5,1.8-6.4,0.7-8.9-2.6
			c-2.5-3.3-2.5-7.4,0-9.2c2.5-1.8,6.4-0.7,8.9,2.6C489.6,1112.3,489.6,1116.5,487.1,1118.3z M543.9,1104.2
			c-11.3,2.1-22.7,3.8-34.2,4.8c-3.9,0.4-7.9,0.7-11.8,0.8c8.5-2.5,17.2-4.2,25.9-5.8c11.3-2.1,22.7-3.8,34.2-4.8
			c3.9-0.4,7.8-0.7,11.8-0.8C561.4,1100.9,552.6,1102.5,543.9,1104.2z M592.1,1102.1c-2.5,1.8-6.4,0.7-8.9-2.6
			c-2.5-3.3-2.5-7.4,0-9.2c2.5-1.9,6.4-0.7,8.9,2.6C594.5,1096.2,594.5,1100.3,592.1,1102.1z M608.2,1093.3
			c-2.9,0.2-6.2-0.1-8.8-1.3c2.5-1.5,5.7-2.1,8.6-2.3c2.9-0.2,6.2,0.1,8.8,1.3C614.3,1092.5,611.1,1093.1,608.2,1093.3z
			 M624.3,1091.4c-1.1,0.3-2.4-0.9-2.7-2.5c-0.4-1.7,0.2-3.2,1.3-3.5s2.4,0.9,2.7,2.5C625.9,1089.6,625.3,1091.2,624.3,1091.4z"/>
	</g>
	<g>
		<path class="st1" d="M288.9,374.5c-0.6-0.6-1-1.3-1.2-2.2c-0.2-0.8-0.1-1.7,0.2-2.5c0.4-1.1,1.2-1.9,2.3-2.4
			c1.1-0.5,2.2-0.5,3.3-0.1c0.4,0.2,0.8,0.4,1.1,0.7l-5,12.5c-0.1,0-0.2,0-0.3,0c-0.4,0-0.8-0.1-1.1-0.2c-0.8-0.3-1.3-0.8-1.6-1.5
			c-0.3-0.7-0.3-1.5,0-2.2c0.2-0.5,0.5-0.9,0.9-1.3c0.4-0.3,0.9-0.5,1.4-0.5c0.1,0,0.2,0,0.3,0C289.2,374.8,289.1,374.6,288.9,374.5
			z M289.1,380.3l1.9-4.6l-0.6-0.3c-0.5-0.2-1.1-0.2-1.7,0.1c-0.6,0.3-1,0.8-1.3,1.4c-0.3,0.7-0.3,1.3-0.1,1.9
			c0.2,0.6,0.6,1,1.1,1.3C288.6,380.2,288.9,380.3,289.1,380.3z M293.4,367.8c-0.9-0.4-1.9-0.3-2.8,0.1s-1.6,1.2-2,2.2s-0.4,2-0.1,3
			c0.4,1,1,1.6,1.9,2l0.6,0.3l3-7.3C293.8,368,293.6,367.9,293.4,367.8z"/>
		<path class="st1" d="M288.2,365.8l-2.8-1.3l-0.1-0.4l3.6,1.7l-5.7,12.4l-3.6-1.7l0.4-0.2l2.8,1.3l2-4.3l-2.4-1.1l0.3-0.2l2.2,1
			L288.2,365.8z"/>
		<path class="st1" d="M281.3,362.3l-0.1-0.4l3.6,1.9l-6.4,12l-0.6-0.3l6.2-11.7L281.3,362.3z"/>
		<path class="st1" d="M275.6,368.2l0.3-9.5l0.7,0.4l-0.3,8.3l3.8-6.1l0.5,0.4l-7.2,11.5l-0.5-0.4l2.7-4.3l-6,2.2l-0.3-0.2
			L275.6,368.2z"/>
		<path class="st1" d="M263.7,366.7l5.8-13.1l0.5,0.4l-2.2,4.8l3.1,2.5l4.3-3.1l0.3,0.2l-11.1,8L263.7,366.7z M270.7,361.6l-3-2.4
			l-3.1,6.7L270.7,361.6z"/>
		<path class="st1" d="M263.9,347.2l0.1-0.4l2.3,3.3l-11.1,7.8l-0.4-0.5l10.8-7.7L263.9,347.2z"/>
		<path class="st1" d="M251.4,350.7c-1-0.8-1.7-1.7-2.2-2.9c-0.5-1.1-0.6-2.4-0.4-3.6c0.2-1.3,0.7-2.4,1.4-3.3
			c0.8-1,1.7-1.7,2.9-2.2c1.1-0.5,2.4-0.6,3.6-0.4c1.3,0.2,2.4,0.7,3.3,1.4c1,0.8,1.7,1.7,2.2,2.9c0.5,1.1,0.6,2.4,0.4,3.6
			c-0.2,1.3-0.7,2.4-1.4,3.3c-0.8,1-1.7,1.7-2.9,2.2c-1.1,0.5-2.4,0.7-3.6,0.4C253.5,351.9,252.4,351.4,251.4,350.7z M260.9,341
			c-0.7-0.9-1.5-1.6-2.6-2.1c-1-0.4-2.1-0.6-3.3-0.4s-2.2,0.6-3.1,1.3c-0.9,0.7-1.6,1.6-2.1,2.7s-0.7,2.2-0.5,3.4
			c0.1,1.1,0.5,2.2,1.2,3.1s1.5,1.6,2.6,2.1c1,0.4,2.1,0.6,3.3,0.4c1.1-0.2,2.1-0.6,3.1-1.4s1.6-1.6,2.1-2.7s0.7-2.2,0.5-3.4
			C261.9,342.9,261.5,341.9,260.9,341z"/>
		<path class="st1" d="M246.8,330.4v-0.3l11,0.5c0.8,0.1,1.4,0.3,1.9,0.9s0.8,1.3,0.7,2c0,0.5-0.2,1-0.4,1.4c-0.3,0.4-0.6,0.8-1.1,1
			c-0.4,0.2-0.9,0.3-1.4,0.3l-11-0.5l0.1-0.7l11,0.5c0.7,0.1,1.3-0.2,1.8-0.6s0.8-1,0.8-1.6c0.1-0.7-0.2-1.2-0.7-1.6
			c-0.4-0.5-1-0.7-1.7-0.8L246.8,330.4z"/>
		<path class="st1" d="M249.7,321l0.1-0.3l12.6,5.1l-0.1,0.2H262l-12.5,0.3l10.8,4.4l-0.1,0.3l-12.6-5.1l0.1-0.2h0.3l12.5-0.3
			L249.7,321z"/>
		<path class="st1" d="M265.1,316.9h-0.4l2.2-2.3l2.1,2.1v0.3c-0.1,0.6-0.2,1.1-0.4,1.6c-0.3,0.9-0.9,1.7-1.6,2.4
			c-0.9,0.9-1.9,1.5-3.1,1.9c-1.2,0.3-2.4,0.3-3.6,0s-2.2-0.9-3.2-1.8c-0.7-0.7-1.2-1.4-1.5-2.3c-0.4-0.9-0.5-1.7-0.5-2.6
			s0.2-1.7,0.5-2.6s0.9-1.6,1.5-2.4c1.2-1.2,2.7-1.9,4.4-2.1l0.1,0.7c-1.7,0.1-3.2,0.8-4.3,2c-1.2,1.2-1.7,2.7-1.7,4.3
			c0,1.1,0.3,2.2,0.9,3.2s1.4,1.7,2.5,2.3s2.1,0.8,3.3,0.8c1.5,0,2.8-0.4,4-1.3c1.1-0.8,2-1.9,2.4-3.2c0.1-0.2,0.2-0.5,0.2-0.8
			l-1.9-1.9L265.1,316.9z"/>
		<path class="st1" d="M270.8,317.3l2.5-1.7l0.4,0.1l-3.3,2.2l-7.5-11.3l3.3-2.2l-0.1,0.4l-2.5,1.7l2.6,3.9l2.2-1.5v0.4l-2,1.4
			L270.8,317.3z"/>
		<path class="st1" d="M277.4,304.5c0.9-0.1,1.6,0.1,2.4,0.5s1.3,1,1.7,1.8c0.5,1,0.6,2.1,0.3,3.3c-0.4,1.1-1.1,2-2.1,2.5
			c-0.4,0.2-0.8,0.3-1.3,0.4l-6.1-12c0.1-0.1,0.1-0.2,0.2-0.2c0.3-0.3,0.5-0.5,0.9-0.7c0.7-0.4,1.4-0.4,2.2-0.2
			c0.8,0.3,1.3,0.7,1.7,1.4c0.2,0.5,0.3,1,0.3,1.5c-0.1,0.5-0.2,1-0.5,1.4c-0.1,0.1-0.1,0.2-0.2,0.3
			C276.9,304.6,277.2,304.6,277.4,304.5z M272.9,300.8l2.2,4.4l0.6-0.3c0.5-0.3,0.9-0.7,1-1.4c0.2-0.7,0.1-1.3-0.2-1.9
			c-0.3-0.6-0.8-1-1.4-1.3s-1.2-0.2-1.7,0.1C273.2,300.5,273.1,300.7,272.9,300.8z M279.5,312.3c0.9-0.4,1.5-1.2,1.7-2.2
			c0.3-1,0.2-2-0.3-3s-1.3-1.6-2.2-2c-1-0.4-1.9-0.3-2.8,0.1l-0.6,0.3l3.6,7C279.1,312.5,279.3,312.4,279.5,312.3z"/>
		<path class="st1" d="M284.5,309.7l2.8-1.3l0.4,0.2l-3.6,1.7l-5.8-12.3l3.6-1.7l-0.1,0.4L279,298l2,4.3l2.4-1.1l-0.1,0.4l-2.2,1
			L284.5,309.7z"/>
		<path class="st1" d="M291.6,306.4l0.4,0.2l-3.7,1.6l-5.6-12.4l0.6-0.3l5.5,12.1L291.6,306.4z"/>
		<path class="st1" d="M290.1,298.3l7.7,5.6l-0.7,0.3l-6.7-4.9l3,6.6l-0.6,0.3l-5.5-12.4l0.6-0.3l2.1,4.6l1.5-6.2l0.4-0.2
			L290.1,298.3z"/>
		<path class="st1" d="M296.5,289.4l9.1,11l-0.6,0.3l-3.3-4l-3.7,1.7l0.9,5.2l-0.3,0.2l-2.3-13.5L296.5,289.4z M297.9,298l3.4-1.6
			l-4.7-5.7L297.9,298z"/>
	</g>
	<g>
		<path class="st1" d="M374.1,377.3c-0.3-0.8-0.3-1.6-0.1-2.5c0.2-0.8,0.7-1.6,1.3-2.2c0.9-0.8,1.9-1.1,3.1-1.1
			c1.2,0.1,2.2,0.5,3,1.4c0.3,0.3,0.5,0.7,0.8,1.1l-10,9.1c-0.1,0-0.2-0.1-0.3-0.1c-0.3-0.2-0.7-0.4-0.9-0.7
			c-0.5-0.6-0.8-1.3-0.8-2.1c0.1-0.8,0.4-1.5,0.9-2c0.4-0.4,0.9-0.6,1.4-0.7s1-0.1,1.5,0.1c0.1,0.1,0.2,0.1,0.3,0.1
			C374.3,377.8,374.2,377.5,374.1,377.3z M371.8,382.6l3.7-3.3l-0.4-0.5c-0.4-0.4-0.9-0.7-1.6-0.7s-1.3,0.3-1.7,0.7
			c-0.5,0.5-0.8,1-0.9,1.7s0.1,1.2,0.5,1.6C371.4,382.4,371.6,382.6,371.8,382.6z M381.1,373.2c-0.7-0.7-1.5-1.1-2.6-1.1
			s-2,0.4-2.8,1.1c-0.8,0.8-1.3,1.6-1.4,2.7s0.2,1.9,0.9,2.7l0.4,0.5l5.8-5.3C381.4,373.6,381.3,373.4,381.1,373.2z"/>
		<path class="st1" d="M378.7,370.1l-0.5-3l0.3-0.3l0.7,3.9l-13.4,2.3l-0.7-3.9l0.4,0.2l0.5,3l4.6-0.8l-0.4-2.6l0.4,0.2l0.4,2.4
			L378.7,370.1z"/>
		<path class="st1" d="M379.1,363.5l0.4-0.2l-0.9,3.9l-13.2-3.1l0.2-0.7l12.9,3.1L379.1,363.5z"/>
		<path class="st1" d="M372.6,358.7l9.5-0.4l-0.4,0.7l-8.3,0.3l6.4,3.3l-0.3,0.6l-12-6.3l0.3-0.6l4.5,2.4l-2.6-5.8l0.2-0.4
			L372.6,358.7z"/>
		<path class="st1" d="M374.5,345.9l12.6,6.7l-0.4,0.5l-4.6-2.5l-2.7,3l2.8,4.5l-0.2,0.3l-7.3-11.6L374.5,345.9z M379.1,353.2
			l2.6-2.8l-6.5-3.5L379.1,353.2z"/>
		<path class="st1" d="M394.1,347.3l0.4,0.1l-3.3,2.3l-7.8-11.2l0.5-0.4l7.6,10.9L394.1,347.3z"/>
		<path class="st1" d="M389,335.6c0.5-1.1,1.4-2,2.5-2.7c1-0.7,2.2-1.1,3.4-1.1s2.4,0.2,3.6,0.8c1.1,0.5,2,1.4,2.7,2.4
			s1.1,2.2,1.1,3.4s-0.2,2.4-0.8,3.6c-0.5,1.1-1.4,2-2.4,2.7s-2.2,1.1-3.4,1.1c-1.3,0.1-2.4-0.2-3.6-0.8c-1.1-0.5-2-1.4-2.7-2.4
			s-1.1-2.2-1.1-3.4C388.2,337.9,388.5,336.7,389,335.6z M400.3,343.1c0.8-0.8,1.3-1.8,1.5-3s0.2-2.2-0.2-3.3c-0.4-1.1-1-2-1.9-2.8
			s-1.9-1.3-3.1-1.5s-2.4-0.2-3.4,0.2c-1.1,0.3-2.1,0.9-2.8,1.7c-0.8,0.8-1.3,1.8-1.5,3s-0.2,2.2,0.2,3.3c0.4,1.1,1,2,1.9,2.8
			s1.9,1.3,3.1,1.5c1.2,0.3,2.4,0.2,3.4-0.2C398.5,344.5,399.5,343.9,400.3,343.1z"/>
		<path class="st1" d="M402.3,325.8l0.3-0.2l6.3,9.1c0.4,0.7,0.6,1.3,0.4,2.1c-0.2,0.8-0.5,1.4-1.1,1.8c-0.4,0.3-0.9,0.4-1.4,0.5
			s-1-0.1-1.4-0.3c-0.4-0.2-0.8-0.5-1.1-0.9l-6.3-9l0.5-0.4l6.3,9c0.4,0.5,0.9,0.9,1.5,1c0.7,0.2,1.3,0.1,1.7-0.3
			c0.5-0.4,0.8-0.9,0.9-1.5c0.1-0.7-0.1-1.3-0.4-1.8L402.3,325.8z"/>
		<path class="st1" d="M407.1,322.1l0.3-0.2l8.4,10.7l-0.2,0.1l-0.2-0.1l-10.9-6l7.2,9.2l-0.3,0.2l-8.4-10.7l0.2-0.1l0.2,0.1l10.9,6
			L407.1,322.1z"/>
		<path class="st1" d="M420.4,322.4H420l2.2-2.3l2.1,2v0.3c-0.1,0.6-0.2,1.1-0.4,1.6c-0.3,0.9-0.8,1.7-1.5,2.5
			c-0.9,0.9-1.9,1.5-3.1,1.9c-1.2,0.3-2.4,0.4-3.6,0.1s-2.3-0.9-3.2-1.7c-0.7-0.7-1.2-1.4-1.6-2.3s-0.5-1.7-0.6-2.6
			c0-0.9,0.2-1.7,0.5-2.7c0.3-0.9,0.8-1.7,1.5-2.4c1.2-1.3,2.6-2,4.3-2.1l0.1,0.7c-1.7,0.2-3.2,0.9-4.3,2.1
			c-1.1,1.3-1.7,2.7-1.7,4.4c0.1,1.1,0.3,2.2,1,3.2c0.6,1,1.5,1.7,2.5,2.2s2.1,0.8,3.4,0.8c1.5-0.1,2.8-0.5,3.9-1.4s1.9-1.9,2.3-3.2
			c0.1-0.2,0.2-0.5,0.2-0.8l-2-1.9L420.4,322.4z"/>
		<path class="st1" d="M426.8,320.1l1.6-2.6l0.4-0.1l-2.1,3.4l-11.6-7.1l2.1-3.4l0.2,0.4l-1.6,2.6l4,2.5l1.4-2.2l0.2,0.4l-1.3,2.1
			L426.8,320.1z"/>
		<path class="st1" d="M417.6,287.3c-0.3-0.8-0.4-1.6-0.3-2.5c0.2-0.9,0.5-1.6,1.1-2.2c0.8-0.9,1.8-1.3,3-1.4s2.2,0.3,3.1,1.1
			c0.3,0.3,0.6,0.7,0.8,1.1l-9.2,9.8c-0.1,0-0.2-0.1-0.3-0.1c-0.4-0.2-0.7-0.3-0.9-0.6c-0.6-0.5-0.9-1.2-0.9-2s0.3-1.5,0.8-2.1
			c0.4-0.4,0.8-0.7,1.3-0.8c0.5-0.2,1-0.2,1.5,0c0.1,0,0.2,0.1,0.3,0.1C417.8,287.7,417.7,287.5,417.6,287.3z M415.6,292.8l3.4-3.6
			l-0.5-0.4c-0.4-0.4-1-0.6-1.6-0.5c-0.7,0.1-1.2,0.3-1.7,0.9c-0.5,0.5-0.7,1.1-0.8,1.7c0,0.7,0.2,1.2,0.6,1.6
			C415.2,292.6,415.4,292.7,415.6,292.8z M424.2,282.7c-0.7-0.7-1.6-1-2.7-0.9c-1,0.1-2,0.5-2.7,1.3c-0.8,0.8-1.1,1.7-1.1,2.8
			c0,1,0.3,1.9,1,2.6l0.5,0.4l5.4-5.7C424.5,283,424.4,282.9,424.2,282.7z"/>
		<path class="st1" d="M419.2,278.5l-2.4-1.9v-0.4l3.1,2.5l-8.5,10.7l-3.1-2.5l0.4-0.1l2.4,1.9l2.9-3.7l-2.1-1.6l0.4-0.1l1.9,1.5
			L419.2,278.5z"/>
		<path class="st1" d="M412.6,273.6l-0.1-0.4l3.2,2.4l-7.9,11l-0.5-0.4l7.7-10.8L412.6,273.6z"/>
		<path class="st1" d="M406.5,278.9l0.5-9.5l0.7,0.4l-0.5,8.3l4-6l0.5,0.4l-7.5,11.4l-0.5-0.4l2.8-4.2l-6.1,2l-0.3-0.2L406.5,278.9z
			"/>
		<path class="st1" d="M395.5,278.5l4.1-13.7l0.5,0.3l-1.5,5l3.4,2.1l3.8-3.6l0.3,0.2l-10,9.5L395.5,278.5z M401.8,272.5l-3.2-2
			l-2.1,7.1L401.8,272.5z"/>
		<path class="st1" d="M391.3,260.3l-0.1-0.4l3.4,2.1l-7,11.6l-0.6-0.3l6.8-11.4L391.3,260.3z"/>
		<path class="st1" d="M382.9,269.9c-1.3-0.1-2.4-0.4-3.5-1c-1.1-0.7-1.9-1.5-2.5-2.6s-0.9-2.3-0.8-3.5c0-1.3,0.4-2.4,1-3.5
			s1.5-1.9,2.6-2.5s2.3-0.9,3.5-0.8c1.3,0,2.4,0.4,3.5,1s1.9,1.5,2.5,2.6s0.9,2.3,0.8,3.5c-0.1,1.3-0.4,2.4-1,3.5
			c-0.7,1.1-1.5,1.9-2.6,2.5C385.3,269.6,384.2,269.9,382.9,269.9z M384.8,256.5c-1.1-0.3-2.2-0.4-3.3-0.1c-1.1,0.3-2.1,0.8-2.9,1.6
			c-0.8,0.8-1.4,1.8-1.7,2.9c-0.3,1.1-0.3,2.3-0.1,3.4c0.3,1.2,0.8,2.2,1.6,3.1c0.8,0.9,1.7,1.5,2.8,1.8c1.1,0.3,2.2,0.4,3.3,0.1
			c1.1-0.3,2.1-0.8,2.9-1.6c0.8-0.8,1.4-1.8,1.7-2.9c0.3-1.1,0.3-2.3,0.1-3.4c-0.3-1.2-0.8-2.2-1.6-3.1
			C386.8,257.4,385.9,256.8,384.8,256.5z"/>
		<path class="st1" d="M368.1,261.3l-0.3-0.2l6.2-9.1c0.4-0.7,1-1,1.8-1.1c0.8-0.2,1.5,0,2.1,0.4c0.4,0.3,0.7,0.7,0.9,1.1
			s0.3,0.9,0.3,1.4s-0.2,1-0.5,1.4l-6.2,9.1l-0.5-0.4l6.2-9.1c0.4-0.5,0.5-1.1,0.4-1.8s-0.4-1.1-0.9-1.5s-1.1-0.5-1.7-0.3
			c-0.7,0.2-1.1,0.5-1.5,1L368.1,261.3z"/>
		<path class="st1" d="M362.5,257.1l-0.3-0.2l8.3-10.8l0.2,0.1l-0.1,0.3l-3,12.1l7.1-9.3l0.3,0.2l-8.3,10.8l-0.2-0.1l0.1-0.3l3-12.1
			L362.5,257.1z"/>
		<path class="st1" d="M361.1,242.7l-0.1,0.4l-2.2-2.3l2.1-2.1l0.3,0.1c0.6,0.1,1.1,0.2,1.6,0.4c0.9,0.4,1.7,0.9,2.4,1.6
			c0.9,0.9,1.5,2,1.8,3.2s0.3,2.4-0.1,3.6c-0.3,1.2-0.9,2.2-1.9,3.1c-0.7,0.7-1.5,1.1-2.4,1.5s-1.7,0.5-2.6,0.5s-1.7-0.2-2.6-0.5
			s-1.6-0.9-2.3-1.5c-1.2-1.2-1.9-2.7-2-4.4l0.7-0.1c0.1,1.7,0.8,3.2,2,4.4s2.6,1.8,4.3,1.9c1.1,0,2.2-0.3,3.2-0.9
			c1-0.6,1.7-1.4,2.4-2.4c0.6-1,0.9-2.1,0.9-3.3c0-1.5-0.4-2.8-1.2-4c-0.8-1.2-1.9-2-3.2-2.4c-0.2-0.1-0.5-0.2-0.8-0.2l-1.9,1.9
			L361.1,242.7z"/>
		<path class="st1" d="M361.6,237.2l-1.5-2.6l0.2-0.4l2,3.4l-11.8,6.7l-2-3.4l0.4,0.1l1.5,2.6l4-2.3l-1.3-2.3l0.4,0.1l1.2,2.1
			L361.6,237.2z"/>
	</g>
</g>
<g>
	<path class="st1" d="M343.6,204.3c0.7-0.4,1.5-0.7,2.4-0.6c0.9,0.1,1.6,0.3,2.4,0.8c0.9,0.7,1.5,1.6,1.7,2.8
		c0.2,1.1-0.1,2.2-0.8,3.2c-0.3,0.4-0.6,0.7-1,0.9l-10.9-7.9c0-0.1,0-0.2,0.1-0.3c0.1-0.4,0.3-0.7,0.4-1c0.5-0.7,1.1-1,1.9-1.1
		s1.5,0.1,2.1,0.5c0.4,0.3,0.8,0.7,1,1.2s0.3,1,0.2,1.5c0,0.1-0.1,0.2-0.1,0.3C343.2,204.6,343.4,204.5,343.6,204.3z M337.9,203.1
		l4,3l0.4-0.5c0.3-0.5,0.4-1,0.3-1.7c-0.2-0.7-0.5-1.1-1.1-1.6c-0.5-0.4-1.2-0.6-1.9-0.5c-0.7,0.1-1.1,0.3-1.5,0.8
		C338.1,202.7,338,202.9,337.9,203.1z M349,210.3c0.6-0.8,0.8-1.7,0.5-2.7c-0.2-1-0.8-1.9-1.6-2.5c-0.9-0.7-1.9-0.9-2.9-0.8
		c-1,0.1-1.9,0.6-2.5,1.4l-0.4,0.5l6.3,4.6C348.7,210.7,348.9,210.5,349,210.3z"/>
	<path class="st1" d="M352.3,205.3l1.7-2.5l0.4-0.1l-2.3,3.3l-11.2-7.7l2.3-3.3l0.1,0.4l-1.7,2.5l3.9,2.7l1.5-2.2l0.2,0.4l-1.4,2
		L352.3,205.3z"/>
	<path class="st1" d="M356.8,198.6l0.4-0.1l-2.2,3.3l-11.4-7.4l0.4-0.5l11.2,7.2L356.8,198.6z"/>
	<path class="st1" d="M351.2,192.7l9.5,0.1l-0.4,0.7l-8.3-0.1l6.2,3.7l-0.3,0.6l-11.7-6.9l0.3-0.6l4.3,2.6l-2.4-6l0.2-0.4
		L351.2,192.7z"/>
	<path class="st1" d="M350.8,181.8l14,2.7l-0.3,0.6l-5.2-1l-1.7,3.6l4,3.4l-0.2,0.3l-10.4-9L350.8,181.8z M357.4,187.5l1.6-3.4
		l-7.3-1.4L357.4,187.5z"/>
	<path class="st1" d="M367.8,173.5l0.4-0.2l-0.8,3.9l-13.3-2.8l0.2-0.7l13,2.7L367.8,173.5z"/>
	<path class="st1" d="M356,170.2c-0.8-1-1.3-2.1-1.5-3.3c-0.2-1.3-0.1-2.5,0.4-3.6c0.4-1.1,1.1-2.1,2.1-3c1-0.8,2.1-1.3,3.3-1.5
		c1.3-0.2,2.5-0.1,3.6,0.4c1.1,0.4,2.1,1.1,3,2.1c0.8,1,1.3,2.1,1.5,3.3c0.2,1.3,0.1,2.5-0.4,3.6s-1.1,2.1-2.1,3
		c-1,0.8-2.1,1.3-3.3,1.5c-1.3,0.2-2.5,0.1-3.6-0.4C357.8,171.9,356.8,171.2,356,170.2z M367.4,163c-0.4-1-1.1-1.9-2-2.6
		c-0.9-0.7-2-1-3.1-1.1s-2.2,0.1-3.3,0.6s-2,1.2-2.7,2.2s-1.1,2.1-1.3,3.2c-0.2,1.1,0,2.2,0.4,3.3c0.4,1,1.1,1.9,2,2.6
		c0.9,0.7,2,1,3.1,1.1s2.2-0.1,3.3-0.6s2-1.2,2.7-2.2s1.1-2,1.3-3.2C368,165.1,367.9,164,367.4,163z"/>
	<path class="st1" d="M349.2,158.9l-0.2-0.2l7.8-7.8c0.5-0.5,1.2-0.8,2-0.8s1.4,0.3,2,0.8c0.3,0.3,0.6,0.8,0.7,1.3s0.2,1,0,1.5
		c-0.1,0.5-0.4,0.9-0.7,1.3l-7.7,7.8l-0.5-0.5l7.7-7.8c0.5-0.5,0.7-1,0.8-1.7c0-0.7-0.2-1.2-0.7-1.6c-0.4-0.4-1-0.7-1.6-0.7
		c-0.7,0-1.2,0.3-1.7,0.8L349.2,158.9z"/>
	<path class="st1" d="M344.6,155.4l-0.3-0.2l8.3-10.8l0.2,0.1l-0.1,0.3l-3.1,12.1l7.2-9.2l0.3,0.2l-8.3,10.8l-0.2-0.1l0.1-0.3
		l3.1-12.1L344.6,155.4z"/>
	<path class="st1" d="M342.3,142.1l0.1,0.4l-2.6-1.8l1.7-2.4l0.3-0.1c0.6-0.1,1.1,0,1.7,0.1c1,0.2,1.9,0.5,2.7,1.1
		c1,0.7,1.8,1.6,2.4,2.8c0.5,1.1,0.8,2.3,0.7,3.6c-0.1,1.3-0.5,2.4-1.3,3.4c-0.5,0.8-1.2,1.4-2,1.9s-1.6,0.8-2.5,1s-1.7,0.2-2.7-0.1
		c-0.9-0.2-1.8-0.5-2.6-1.1c-1.4-1-2.4-2.3-2.8-3.9l0.7-0.2c0.4,1.6,1.4,3,2.7,3.9c1.4,0.9,3,1.3,4.6,1c1.1-0.2,2.1-0.7,3-1.5
		s1.5-1.7,1.9-2.8s0.4-2.2,0.2-3.4c-0.3-1.5-0.9-2.7-2-3.7c-1-1-2.2-1.6-3.6-1.7c-0.3-0.1-0.5-0.1-0.9-0.1l-1.5,2.2L342.3,142.1z"/>
	<path class="st1" d="M340.9,136.6l-2.5-1.7l-0.1-0.4l3.2,2.3l-7.9,11l-3.2-2.3l0.4-0.1l2.5,1.7l2.7-3.8l-2.2-1.5l0.4-0.1l2,1.4
		L340.9,136.6z"/>
	<path class="st1" d="M315.6,123.9c-0.2-0.8-0.2-1.6,0.1-2.5c0.3-0.8,0.8-1.5,1.5-2c0.9-0.7,2-1,3.2-0.8c1.1,0.2,2.1,0.7,2.8,1.7
		c0.3,0.4,0.5,0.8,0.6,1.2l-10.8,8c-0.1-0.1-0.2-0.1-0.3-0.1c-0.3-0.2-0.6-0.4-0.8-0.8c-0.5-0.7-0.7-1.4-0.5-2.1s0.5-1.4,1.1-1.9
		c0.4-0.3,0.9-0.5,1.4-0.5c0.5-0.1,1,0.1,1.5,0.3c0.1,0.1,0.2,0.1,0.3,0.2C315.7,124.3,315.7,124.1,315.6,123.9z M312.7,128.9l4-3
		l-0.4-0.5c-0.4-0.5-0.9-0.8-1.5-0.8c-0.7-0.1-1.3,0.1-1.9,0.5s-0.9,0.9-1,1.6c-0.2,0.7-0.1,1.2,0.3,1.7
		C312.3,128.6,312.5,128.8,312.7,128.9z M322.9,120.4c-0.6-0.8-1.4-1.3-2.5-1.4c-1-0.1-2,0.2-2.9,0.8c-0.9,0.7-1.4,1.5-1.6,2.5
		s0,2,0.6,2.7l0.4,0.5l6.3-4.7C323.2,120.8,323.1,120.7,322.9,120.4z"/>
	<path class="st1" d="M319.6,116.1l-1.5-2.6l0.2-0.4l2,3.4l-11.8,6.8l-2-3.4l0.4,0.1l1.5,2.6l4-2.4l-1.3-2.3l0.4,0.1l1.2,2.1
		L319.6,116.1z"/>
	<path class="st1" d="M316.3,109.4l0.2-0.4l1.6,3.7l-12.5,5.5l-0.3-0.6l12.1-5.3L316.3,109.4z"/>
	<path class="st1" d="M308.1,110.2l6.6-6.9l0.2,0.7l-5.7,6l6.9-2l0.2,0.7l-13.1,3.8l-0.2-0.7l4.8-1.4l-6-2.4l-0.1-0.4L308.1,110.2z"
		/>
	<path class="st1" d="M300.3,100.7l13.2-5.4l0.1,0.7l-4.9,2l0.5,4l5.2,0.7l0.1,0.3l-13.6-1.9L300.3,100.7z M309,101.9l-0.5-3.8
		l-6.8,2.8L309,101.9z"/>
	<path class="st1" d="M313.7,86.6l0.4-0.2l-0.3,4l-13.6-1.2l0.1-0.7l13.2,1.1L313.7,86.6z"/>
	<path class="st1" d="M301.7,82.2c-0.4-1.2-0.5-2.4-0.2-3.7c0.3-1.3,0.8-2.4,1.6-3.2c0.8-0.9,1.9-1.6,3-2c1.2-0.4,2.4-0.5,3.6-0.2
		c1.3,0.3,2.4,0.8,3.2,1.6c0.9,0.8,1.6,1.9,2,3c0.4,1.2,0.5,2.4,0.2,3.6c-0.3,1.3-0.8,2.4-1.6,3.3c-0.8,0.9-1.9,1.6-3,2
		c-1.2,0.4-2.4,0.4-3.6,0.2c-1.3-0.3-2.4-0.8-3.3-1.6C302.7,84.4,302,83.4,301.7,82.2z M314.9,79.4c-0.1-1.1-0.4-2.2-1-3.2
		s-1.5-1.7-2.5-2.2s-2.1-0.7-3.3-0.6c-1.1,0.1-2.2,0.5-3.3,1.1s-1.8,1.5-2.4,2.6c-0.5,1-0.8,2.1-0.8,3.3c0.1,1.1,0.4,2.2,1,3.2
		s1.5,1.7,2.5,2.2s2.1,0.7,3.3,0.6c1.1-0.1,2.2-0.5,3.3-1.1s1.8-1.5,2.4-2.6C314.7,81.7,314.9,80.6,314.9,79.4z"/>
	<path class="st1" d="M306.4,64.2l0.1-0.3l10.1,4.3c0.7,0.3,1.2,0.8,1.5,1.5s0.3,1.4,0,2.1c-0.2,0.4-0.5,0.8-0.9,1.1
		c-0.4,0.3-0.9,0.5-1.4,0.5c-0.5,0.1-1,0-1.5-0.2l-10.1-4.3l0.3-0.6l10.1,4.3c0.6,0.3,1.3,0.3,1.9,0.1c0.6-0.2,1-0.6,1.3-1.2
		s0.3-1.2,0-1.8c-0.3-0.6-0.7-1-1.3-1.3L306.4,64.2z"/>
	<path class="st1" d="M310.2,57.4l0.2-0.3l11.7,6.9l-0.1,0.2l-0.3-0.1l-12.4-1.6l10.1,6l-0.2,0.3L307.5,62l0.1-0.2h0.3l12.4,1.6
		L310.2,57.4z"/>
	<path class="st1" d="M324.6,54.6h-0.4l2.1-2.4l2.2,2v0.3c-0.1,0.6-0.2,1.1-0.3,1.6c-0.3,0.9-0.8,1.7-1.4,2.5c-0.8,0.9-1.9,1.6-3,2
		c-1.2,0.4-2.4,0.5-3.6,0.2c-1.2-0.2-2.3-0.8-3.3-1.6c-0.7-0.6-1.3-1.4-1.7-2.2c-0.4-0.9-0.7-1.7-0.7-2.6c-0.1-0.9,0.1-1.7,0.4-2.7
		s0.8-1.7,1.4-2.4c1.1-1.3,2.6-2.1,4.2-2.3l0.1,0.7c-1.7,0.2-3.1,1-4.2,2.3s-1.6,2.7-1.5,4.4c0.1,1.1,0.4,2.2,1.1,3.1
		c0.7,0.9,1.5,1.6,2.6,2.1s2.2,0.7,3.4,0.7c1.5-0.1,2.8-0.6,3.9-1.5s1.9-2,2.2-3.3c0.1-0.3,0.2-0.5,0.2-0.8l-2-1.8L324.6,54.6z"/>
	<path class="st1" d="M330.3,54.4l2.4-2l0.4,0.1l-3.1,2.6l-8.7-10.4l3.1-2.6v0.4l-2.4,2l3,3.6l2-1.7l0.1,0.4l-1.9,1.5L330.3,54.4z"
		/>
	<path class="st1" d="M340.1,38.4c0.9-0.1,1.6,0.1,2.4,0.4c0.8,0.4,1.4,1,1.8,1.7c0.6,1,0.7,2.1,0.4,3.3c-0.3,1.1-1,2-2,2.6
		c-0.4,0.2-0.8,0.4-1.3,0.4L334.8,35c0.1-0.1,0.1-0.2,0.2-0.2c0.2-0.3,0.5-0.5,0.8-0.7c0.7-0.4,1.4-0.5,2.2-0.3
		c0.8,0.2,1.3,0.7,1.7,1.4c0.3,0.5,0.4,1,0.4,1.5s-0.2,1-0.5,1.5c-0.1,0.1-0.1,0.2-0.2,0.3C339.7,38.5,339.9,38.4,340.1,38.4z
		 M335.4,34.9l2.4,4.4l0.6-0.3c0.5-0.3,0.9-0.8,1-1.4c0.1-0.7,0.1-1.3-0.3-1.9c-0.4-0.7-0.8-1-1.4-1.3c-0.6-0.2-1.2-0.2-1.7,0.1
		C335.8,34.6,335.6,34.7,335.4,34.9z M342.5,46.2c0.9-0.5,1.4-1.3,1.7-2.2c0.2-1,0.1-2-0.4-3s-1.3-1.6-2.3-1.9
		c-1-0.3-1.9-0.3-2.8,0.2l-0.6,0.3l3.8,6.8C342.1,46.4,342.3,46.3,342.5,46.2z"/>
	<path class="st1" d="M347.4,43.3l2.7-1.4l0.4,0.2l-3.6,1.8l-6.2-12.1l3.6-1.8l-0.1,0.4l-2.7,1.4l2.1,4.2l2.4-1.2l-0.1,0.4l-2.2,1.1
		L347.4,43.3z"/>
	<path class="st1" d="M354.4,39.9l0.4,0.2l-3.6,1.7l-5.8-12.3l0.6-0.3l5.7,12L354.4,39.9z"/>
	<path class="st1" d="M352.7,31.9l7.8,5.5l-0.7,0.3l-6.8-4.8l3.1,6.5l-0.6,0.3l-5.7-12.3l0.6-0.3l2.1,4.6l1.4-6.2l0.4-0.2
		L352.7,31.9z"/>
	<path class="st1" d="M358.8,22.8l9.5,10.7l-0.6,0.3l-3.5-3.9l-3.6,1.8l1.1,5.1l-0.3,0.2l-2.8-13.4L358.8,22.8z M360.6,31.3l3.4-1.7
		l-4.9-5.5L360.6,31.3z"/>
</g>
</svg>
