<?xml version="1.0" encoding="utf-8"?>
<!-- Generator: Adobe Illustrator 23.1.0, SVG Export Plug-In . SVG Version: 6.00 Build 0)  -->
<svg version="1.1" id="Слой_1" opacity="0.5" xmlns="http://www.w3.org/2000/svg" xmlns:xlink="http://www.w3.org/1999/xlink"
	 x="0px" y="0px" viewBox="0 0 700 1480.4" style="enable-background:new 0 0 700 1480.4;" xml:space="preserve">
<style type="text/css">
	.st0{fill:#333333;}
</style>
<g>
	<path class="st0" d="M423.7,109.2c-0.5,1.4,0.1,2.4,1,2.9c0.8,0.8,1.9,1.1,3.1,0.2c6.2-4.7,12.5-11.8,11.6-20.2
		c-0.8-8.4-22.7-26.7-7.6-32.6c2.8-1.1,2.6-5.5-0.7-5.5c-10.5,0.1-21.4,3.6-22,15.7C408.3,85.9,430.9,91.6,423.7,109.2z M420,81.3
		c-7.5-8.8-5.4-16.3,1.7-19.6c-1.2,2.6-1.3,5.8-0.3,9.6c1.1,4,3.6,7.6,6.1,10.8c5.4,7.1,7.1,13.6,3.2,19.7
		c-0.1-3.7-0.9-7.4-2.6-10.5C425.9,87.2,422.8,84.6,420,81.3z"/>
	<path class="st0" d="M459.4,107.9c-0.5,1.4,0.1,2.4,1,2.9c0.8,0.8,1.9,1.1,3.1,0.2c7.4-5.5,14.8-14,13.8-23.9
		c-1-10.5-28.4-32.5-8.7-40.1c2.8-1.1,2.6-5.5-0.7-5.5c-12.5,0.1-25.2,4.2-26.1,18.5C440.5,79.5,468.3,86.2,459.4,107.9z
		 M453.9,74.2c-9.8-11.5-6.4-21.4,3.7-25.3c-2,3.3-2.4,7.5-0.9,12.6c1.3,4.7,4.3,9,7.2,12.8c7.2,9.4,9,18.1,2.9,26.1
		c0.2-4.9-0.8-10-3.1-14.3C461,81.4,457.3,78.2,453.9,74.2z"/>
	<path class="st0" d="M545.5,138.8c-6.4-4.6-13.3-5.1-19.5-1.9c-0.1-8.2-2.7-14.6-10-16.3c-0.1-0.1-0.2,0-0.4,0
		c-0.1,0-0.2-0.1-0.4-0.1c-45.1-1.5-91.9-3.7-136.9,0.2c-15.2,1.3-13.7,10.5-12.6,24.2c1.2,14.3,4,28.7,10,41.8
		c3.8,8.3,9,15.4,14.9,21.3c-13.2,1.3-36.7,6-36.4,19.1c0.2,9.9,17.9,13.3,25,14.4c2.9,0.4,5.7,0.8,8.6,1.1
		c8,18.3,38.2,14.9,54.2,15.1c14.2,0.2,29.9,0.8,43.9-2.1c8.6-1.8,12.6-7.7,17.6-14.4c10.7-1.2,27.6-3.4,31.6-11.8
		c6.2-12.7-27.1-18.2-41.3-19.7c1.4-1.3,2.6-2.6,3.9-4c0.3,0.1,0.6,0.2,1,0.2c22.1-0.9,52.8-15.3,55.4-40.1
		C555.2,156.1,553.5,144.5,545.5,138.8z M522.2,159.4c2.1-0.8,5.3-2.1,7.6-1.3c3,1,4.1,4.2,3.6,7c-0.7,3.9-4.2,7.7-7.3,10
		c-3.4,2.4-8.4,5.2-12.9,6.1c2.9-6.3,6.1-13.9,8.5-21.7C521.9,159.5,522.1,159.5,522.2,159.4z M472.6,251.1
		c-8.5,0.6-17,0.9-25.5,0.9c-12.4,0-43.6,3-52.7-9c14,1,28.3,0.8,42.1,1c19.7,0.4,39.4,0.2,58.9-2.2
		C489.3,248.1,482.7,250.3,472.6,251.1z M488.6,214.5c9.3,0.4,18.4,2.4,27.3,5.1c2.9,0.9,9.9,2.3,11.8,4.6
		c4.1,5.1-11.9,8.7-15.3,9.4c-23.7,5.4-49,5.3-73.2,4.9c-11.4-0.2-22.9-0.5-34.3-0.9c-11.1-0.4-29.3,0.9-39-5.9
		c-13.1-9.1,6.4-14.1,13.6-15.9c5.5-1.4,11.2-2.5,16.9-2.7c0.1,0,0.2-0.1,0.3-0.1c11.5,9,25.7,14.2,41.4,15.5
		c19.2,1.6,36.2-3.5,50.1-14.1C488.2,214.4,488.4,214.5,488.6,214.5z M489.3,206.3c-24.3,23.1-67.2,22.4-92.2,0.4
		c-11-9.7-17.8-23.1-21.6-37.1c-2.3-8.1-3.6-16.4-4.2-24.8c-0.2-2.8-1.3-8.5-0.5-11.2c2.5-9.5,12.1-7.5,18.8-7.7
		c41.7-1,83.5-1.2,125.2,0.1c11.6,3.2,0.3,35.5-2,42.2C507.7,182.3,500.2,196,489.3,206.3z M538.9,182.6c-9.7,9.8-22.8,15.6-36.4,17
		c1.6-2.1,3.2-4.4,4.7-6.8c0.8-1.4,1.9-3.3,3.1-5.7c0.1,0,0.1,0.1,0.2,0.1c10.1-0.3,22.6-8.1,27-17.2c2.1-4.3,2.2-9.6-0.8-13.5
		c-3.2-4.3-8.5-4.6-13.2-3.3c0.8-3.2,1.5-6.4,1.9-9.4c10.7-9,21.8,2,23,13C549.6,167.4,546.3,175.2,538.9,182.6z"/>
	<path class="st0" d="M383,140.8c-0.3-3.6-5.9-3.6-5.5,0c1.2,14.3,5.5,27.6,13.1,39.7c1.9,3,6.8,0.2,4.8-2.8
		C388.3,166.4,384.1,154.1,383,140.8z"/>
	<path class="st0" d="M398.6,187c-3.6,0-3.6,5.5,0,5.5C402.1,192.5,402.1,187,398.6,187z"/>
</g>
<g>
	<path class="st0" d="M242.6,446.9c-12.8-23.6-49-37.7-74.7-36.5c-11.4-0.7-24.9,8.6-31.1,17.8c-7.4,11-2.8,24.4,2.4,35.4
		c12.2,26,42.3,48,72.3,39.9C235.7,496.9,255.9,471.2,242.6,446.9z M167.6,415.6c19.2-0.9,40.2,7,55.7,18.1
		c10.1,7.2,19.4,17.9,19,31.1c-0.2,8.4-5,15-10.9,20.5c-14.7,9.1-40.4,0.8-53.8-8.1c-14.6-9.7-35.6-22.6-37.8-41.3
		C143.7,424.8,156.2,414.9,167.6,415.6z M156,479.6c-7.1-7.9-13.4-18-16.3-28.4c8.5,14,25.5,25.1,38.1,32.5
		c10.4,6,27,11.6,41.2,10.7C197.8,505.6,171.9,497.2,156,479.6z"/>
	<path class="st0" d="M151.4,425.7L151.4,425.7c0,0.5,0.2,1.1,0.8,1.6l0,0c6.3,9.6,14,16.6,24.4,21.6c17.2,8.2,34.6,11.9,45.3,29.3
		c1.8,2.9,5.7,0.8,4.6-2.3c-4.6-13.1-11.1-24.8-24.5-30.2c-16.7-6.9-31.8-9.4-46.1-21.9c-0.1-0.1-0.2-0.1-0.4-0.2
		c-0.1,0-0.1-0.1-0.1-0.1c-0.3-0.2-0.5-0.3-0.8-0.3c-0.1-0.1-0.2-0.1-0.4-0.1s-0.3-0.1-0.5,0c-1.3,0.1-2.4,0.9-2.5,2.1
		C151.5,425.4,151.4,425.6,151.4,425.7z M184.8,445.6c6.8,2,14.6,3.5,20.6,7.4c4.1,2.5,7.1,6.2,9.7,10.2c-11-8.7-24.7-13.2-37-19.8
		C180.4,444.2,182.6,445,184.8,445.6z"/>
	<path class="st0" d="M230.1,455c1.2,3.1,5.8,0.8,4.6-2.3c-2.1-5.7-5.9-10.4-10.8-13.9c-2.7-2-5.5,2.4-2.9,4.3
		C225.3,446.2,228.2,450.2,230.1,455z"/>
	<path class="st0" d="M232.7,460.7c-0.1,0-0.1,0.1-0.2,0.1c-3,1.5-0.7,6.1,2.3,4.6c0.1,0,0.1-0.1,0.2-0.1
		C238,463.9,235.7,459.3,232.7,460.7z"/>
	<path class="st0" d="M314.7,427.9c-11.1-0.7-26.7,4.6-33,13.9c-16.6,19.8-27.2,57.1-16.3,81.5c11.3,25.1,44,24.7,64,9.4
		c24.7-18.9,25.3-56.2,12-81.7C335.9,440.4,327.9,428.6,314.7,427.9z M280,533.9c-10.7-7.6-13.7-21.6-13.3-33.9
		c0.7-19.1,6.9-40.5,19.3-55.2c6.3-9.4,21.7-13.5,33-9.9c13.6,13,11.2,37.7,10,55.2c-1,16-10,41.5-26.2,47.7
		C295,539.1,286.9,538.8,280,533.9z M317.5,533.2c9.4-10.7,14.9-27.2,16.5-39.2c1.9-14.4,3.2-34.7-2.7-50
		c6.6,8.7,10.9,19.9,12.8,30.3C348.2,497.6,339.4,523.3,317.5,533.2z"/>
	<path class="st0" d="M298,526.3c-9.2-30.3,16.8-56,8.1-86.6c0-0.1-0.1-0.2-0.1-0.2c-0.1-0.2-0.2-0.4-0.3-0.6
		c-0.1-0.1-0.1-0.2-0.2-0.2c-0.2-0.2-0.4-0.4-0.7-0.5c0,0-0.1,0-0.1-0.1c-1-0.5-2.4-0.4-3.1,0.4c-0.4,0.4-0.7,0.9-0.7,1.6
		c-0.4,16.6-8.5,32.4-13.5,48.1c-4.7,14.6-1.8,26.7,5.7,39.8C294.5,530.3,298.9,529.3,298,526.3z M290.9,494.4
		c1.2-5.2,3.5-10.1,4.9-15.2c2-6.7,4.4-13,6.5-19.3c-1.8,16.9-10.2,32.8-11.3,49.7C289.9,504.8,289.6,499.8,290.9,494.4z"/>
	<path class="st0" d="M315.2,505.2c-0.9,7.2-4.9,13.4-9.2,19.1c-2,2.7,2.4,5.5,4.3,2.9c4.8-6.5,9-13.5,10-21.6
		C320.8,502.2,315.6,501.9,315.2,505.2z"/>
	<path class="st0" d="M317.5,495.2c-3,1.5-0.7,6.1,2.3,4.6C322.8,498.3,320.5,493.7,317.5,495.2z"/>
	<path class="st0" d="M224.3,550.5c-3,1.5-0.7,6.1,2.3,4.6C229.5,553.6,227.3,549,224.3,550.5z"/>
	<path class="st0" d="M214.2,531.9c-0.1-0.2-0.2-0.3-0.2-0.4c-1.5-3-6.1-0.7-4.6,2.3c0.1,0.2,0.2,0.3,0.2,0.4
		C211.1,537.1,215.7,534.9,214.2,531.9z"/>
	<path class="st0" d="M234.1,511.8c-3,1.5-0.7,6.1,2.3,4.6C239.4,514.9,237.1,510.3,234.1,511.8z"/>
	<path class="st0" d="M238.8,537.7c0.1,0.2,0.2,0.3,0.2,0.4c1.5,3,6.1,0.7,4.6-2.3c-0.1-0.2-0.2-0.3-0.2-0.4
		C242,532.4,237.4,534.7,238.8,537.7z"/>
	<path class="st0" d="M225.4,531.4c-3,1.5-0.7,6.1,2.3,4.6S228.3,529.9,225.4,531.4z"/>
	<path class="st0" d="M219.7,509.3c-0.2,0.1-0.3,0.2-0.4,0.2c-3,1.5-0.7,6.1,2.3,4.6c0.2-0.1,0.3-0.2,0.4-0.2
		C225,512.5,222.7,507.9,219.7,509.3z"/>
	<path class="st0" d="M246.2,513.7c-3,1.5-0.7,6.1,2.3,4.6S249.2,512.2,246.2,513.7z"/>
	<path class="st0" d="M257.3,538.3c-3,1.5-0.7,6.1,2.3,4.6C262.6,541.5,260.3,536.8,257.3,538.3z"/>
	<path class="st0" d="M264.8,427c3-1.5,0.7-6.1-2.3-4.6S261.8,428.5,264.8,427z"/>
	<path class="st0" d="M246,410.5c3-1.5,0.7-6.1-2.3-4.6C240.8,407.3,243.1,411.9,246,410.5z"/>
	<path class="st0" d="M259.5,397.1c3-1.5,0.7-6.1-2.3-4.6C254.3,393.9,256.6,398.5,259.5,397.1z"/>
	<path class="st0" d="M291.4,399.5c3-1.5,0.7-6.1-2.3-4.6C286.2,396.3,288.5,401,291.4,399.5z"/>
	<path class="st0" d="M279.8,424.4c3-1.5,0.7-6.1-2.3-4.6S276.8,425.9,279.8,424.4z"/>
	<path class="st0" d="M274.6,409.8c0.1-0.4,0.3-0.8,0.4-1.2c1-3.1-3.8-4.8-4.9-1.6c-0.1,0.4-0.3,0.8-0.4,1.2
		C268.7,411.3,273.6,413,274.6,409.8z"/>
	<path class="st0" d="M276.8,393.3c3-1.5,0.7-6.1-2.3-4.6C271.6,390.1,273.9,394.7,276.8,393.3z"/>
	<path class="st0" d="M307.6,408.7c3-1.5,0.7-6.1-2.3-4.6C302.3,405.6,304.6,410.2,307.6,408.7z"/>
	<path class="st0" d="M296.8,425.6c3-1.5,0.7-6.1-2.3-4.6S293.7,427.1,296.8,425.6z"/>
</g>
<g>
	<path class="st0" d="M605.2,873.5c1.5-13.1,2.9-26.3,3.5-39.5c0.5-12.7,2-28.9-4.8-40.3c-8.7-14.6-26.2-15.4-40.9-11.1
		c-0.9-0.4-1.8-0.8-2.6-1.1c7-6.1,18.9-14.1,7.1-21.4c-5.9-3.6-14.3-5.4-20.7-7.9c-9.9-3.7-19.9-7.2-29.9-10.9
		c-22.8-8.3-45.4-17.1-68.1-25.5c-4.1-1.5-11.5-5-14.2,0.9c-2.6,5.8,5.1,13.7,8.2,20c-1.8-0.4-3.5-0.8-5.1-0.8
		c-1.3-0.1-2.4,0.7-2.9,1.9c-3.3,8.2-7.3,16.6-9.3,25.1c-0.3,1.3-0.1,2.5,1,3.3c0.9,0.7,2,1.3,3.1,1.8c-16.7,16-31.4,33.8-45.6,52
		c-8.2,10.5-24.9,29.4-14.6,43.7c8.3,11.6,28.4,17.4,41,22.2c16.4,6.3,33.4,11.1,49.8,17.4c15.3,5.8,30.4,12.4,45.9,17.7
		c7.9,2.7,19.2,6.7,27.5,3.4c13.8-5.5,12.8-29.9,13.8-41.2c2-24.3,1.8-48.6,1.5-72.9c1.7,0.4,3.5,0.8,5.1,1c0.3,0.1,0.7,0.2,1,0.1
		c0.2,0,0.3,0,0.5,0c9.8-2.5,21.2-4.6,23.6,6.9c1.2,5.3,1.5,10.9,1.9,16.3c1.1,13.9,1.4,27.8,1.6,41.8c0.1,4.8-2,16.8,0.5,21.4
		c2.8,5.1,13.8,4.2,17.4,0.1C605.1,892.6,604.5,879.7,605.2,873.5z M456.2,724.8c4.3,1.6,8.6,3.2,13,4.9c14,5.3,28,10.5,42,15.7
		c12.4,4.6,24.9,9,37.3,13.7c3.6,1.4,12.8,3,15.4,5.8c4.2,4.7-6,10.9-9.4,14.3c-55.6-14.2-36-12.3-53.6-19.5
		c-12.1-5.1-24.4-9.7-36.6-14.4c-4.3-1.6-9.6-4.3-14.8-6.3c-0.7-4.2-4.4-7.7-4.9-11.4C443.3,717,451.8,723.1,456.2,724.8z
		 M542.8,862.5c-0.5,14.2,2.5,54.1-16.1,57c-8.9,1.4-19.3-3.9-27.3-6.9c-11.6-4.4-23.1-9.1-34.6-13.6c-25-9.7-51.3-16.1-75.3-28.3
		c-12.5-6.4-21-16.4-12.6-31.1c4.5-8,10.7-15,16.4-22.2c13-16.3,26.3-32.2,41.5-46.5c0.2-0.2,0.3-0.3,0.4-0.5
		c4.6,1.6,9.6,2.8,13.5,4.2c13.8,4.9,27.6,9.9,41.2,15.2c12.8,4.9,25.8,9.5,38.8,13.8c4.6,1.5,9.6,3.5,14.6,5.2
		C543.3,826.7,543.5,844.6,542.8,862.5z M513,792.2c-14.7-5.1-29.2-10.9-43.8-16.3c-12.6-4.6-25.2-9.1-37.8-13.7l0,0
		c0.8-2.3,1.6-4.7,2.5-7c1.2-3.2,2.5-9.7,4.6-13.4c0.5,0.1,1.3,0.2,2.3,0.8c1.6,1,4,1.4,5.8,2c6.2,2.3,12.4,4.6,18.6,7
		c11.3,4.3,22.6,8.6,33.7,13.3c15.8,6.5,32.3,11.2,48.3,17.3c2.1,0.8,9.9,2.4,11.3,4.5c0.9,1.4-0.4,4.9-1.5,8.2
		c-0.9,2.7-1.6,5.9-2.9,8.5c-0.4,0.8-0.4,1.3-0.4,1.7c-0.3-0.1-0.8-0.2-1.4-0.2C540.1,804.4,524.4,796.2,513,792.2z M588.7,895.6
		c-1.2-1.3-0.2-7.7-0.2-9.5c-0.4-20-0.3-40.2-2.6-60.2c-0.6-5.2-0.7-12.8-4-17.2c-4.8-6.7-14-5.9-21.7-4.2
		c2.1-5.3,3.4-11.3,4.9-16.5c13.1-3.6,29.3-2.6,35.3,11.8c3.6,8.7,2.9,19.1,2.7,28.3c-0.2,9.3-1,18.5-1.9,27.7
		c-1,10.5-0.8,22.8-3.8,32.9C596.5,891.6,592.6,900,588.7,895.6z"/>
	<path class="st0" d="M490.7,828.5c-10.2-0.8-20.6-0.2-30.7-2c-16.7-3-27.6-13.7-38.6-25.9c-1-1.1-2.3-1.2-3.3-0.7
		c-0.2,0.1-0.4,0.2-0.6,0.3c-0.1,0.1-0.2,0.1-0.2,0.2c-0.1,0.1-0.3,0.2-0.4,0.3c-12.5,13.8-47.3,45.4-21.7,61.8
		c16.4,10.5,38.1,14.2,56.2,20.5c19.9,6.9,40.9,19.4,61.9,22.3c10.8,1.5,16.6-3,19.1-13.5c2.7-11.9,5.1-33.2-1.4-44.4
		C522.9,833.6,505.4,829.6,490.7,828.5z"/>
</g>
<g>
	<g>
		<g>
			<path class="st0" d="M237.7,1018.7c1.8,1.5,3.1,3.7,3.5,6c0.7,4.1-0.9,8-2.5,11.8c-14.7,33.2-37.6,62.5-66.4,84.7
				c-2.5,2-5.1,3.8-8.1,4.4c-3.2,0.7-6.5,0.1-10.2-1.8l-3.2-1.5l0,0c-3.1-1.5-6.5-3.2-9.2-5.9c-3.1-3.2-4.4-7.4-3.4-11
				c1.2-4.4,5.4-6.9,8.8-9c20.2-12.2,37.9-28.3,55.2-43.9c8-7.2,17.1-15.4,21.7-25.9l0.3-0.7c1.5-3.5,3.4-7.9,7.7-8.8
				c1.9-0.4,3.8,0,5.5,1.2C237.3,1018.4,237.5,1018.5,237.7,1018.7z M151.9,1119.3l3.3,1.6c3.1,1.5,5.8,2,8.3,1.5s4.7-2.1,6.9-3.9
				c28.4-21.9,51-50.7,65.5-83.5c1.4-3.3,2.8-6.7,2.3-10c-0.3-1.7-1.4-3.5-2.8-4.4c-0.7-0.5-1.8-1-3.1-0.7c-2.7,0.6-4.2,3.8-5.5,7
				l-0.3,0.7c-4.8,11.1-14.2,19.5-22.4,27c-17.3,15.6-35.3,31.8-55.6,44.3c-3.1,1.9-6.5,4-7.4,7.2c-0.7,2.5,0.4,5.7,2.6,8
				C145.9,1116.4,148.9,1117.9,151.9,1119.3L151.9,1119.3z"/>
		</g>
		<g>
			<path class="st0" d="M228.2,1015.9c1,0.9,1.9,1.8,2.7,3c0.4,0.7,0.2,1.6-0.5,2.1c-0.7,0.4-1.6,0.2-2.1-0.5
				c-1.3-2.1-3.5-3.5-5.8-4.7c-3.7-2.1-8.6-1-11.7,0.7c-3.4,1.8-6.3,4.7-9.2,7.4c-0.3,0.4-0.7,0.7-1.1,1
				c-16.3,15.7-35.9,28.3-56.9,36.7l-0.9,0.3c-4.5,1.8-9.1,3.6-12,7.1c-3.4,4.3-4,11.1-1.3,17.4c2.5,6,7.1,10.9,11.5,15.6
				c0.5,0.6,0.5,1.6-0.1,2.1s-1.6,0.5-2.1-0.1c-4.4-4.7-9.3-10-12-16.5c-3-7.4-2.4-15.4,1.8-20.5c3.3-4.2,8.4-6.2,13.2-8.1l0.8-0.3
				c20.6-8.2,39.9-20.6,55.9-36c0.3-0.4,0.7-0.7,1-1c3-2.9,6-5.9,9.8-7.9c5.1-2.7,10.5-3,14.6-0.7
				C225.4,1013.9,226.9,1014.8,228.2,1015.9z"/>
		</g>
		<g>
			<path class="st0" d="M201.8,1004.3c3.7,3,6.2,7.5,6.5,12.2c0.1,0.8-0.6,1.5-1.4,1.6c-0.8,0.1-1.5-0.6-1.6-1.4
				c-0.4-7.2-7.5-13.7-14.7-13.5c-3.3,0.1-6.9,1.3-11,3.7c-7.6,4.5-14.2,10.9-20.5,17.1c-4.3,4.2-8.7,8.5-13.4,12.2
				c-7.3,5.8-15.4,10.3-24.2,13.5l-0.9,0.3c-2.1,0.8-4.1,1.4-5.8,2.7c-1.4,1-3,3.1-2.7,5.2c0.2,1.4,1.3,3,3.2,4.5
				c3.9,3.1,8.8,4.8,13.8,4.8c0.8,0,1.5,0.7,1.5,1.5s-0.7,1.5-1.5,1.5c-5.7-0.1-11.2-2-15.6-5.5c-2.6-2-4-4.2-4.3-6.5
				c-0.4-3.5,1.8-6.4,4-8.1c2-1.5,4.3-2.4,6.6-3.1l0.8-0.3c8.4-3,16.3-7.4,23.3-13c4.6-3.7,9-8,13.1-12c6.5-6.3,13.1-12.8,21.1-17.6
				c4.7-2.7,8.7-4.1,12.5-4.2C194.6,1000.1,198.6,1001.7,201.8,1004.3z"/>
		</g>
		<g>
			<path class="st0" d="M192.7,999.2L192.7,999.2c0.3,0.3,0.5,0.5,0.8,0.7c0.3,0.3,0.5,0.4,0.8,0.7c0.6,0.6,0.7,1.5,0.1,2.1
				c-0.6,0.7-1.5,0.7-2.1,0.1c-0.2-0.2-0.4-0.4-0.7-0.6c-0.3-0.2-0.5-0.4-0.7-0.6c-4.8-3.6-11.2-4.8-16.9-5.9c-3.2-0.6-6.7-1.3-10-1
				c-7.2,0.7-13.1,5.7-18.9,10.6c-1,0.9-2.2,1.9-3.3,2.7c-8.8,7.1-18.7,12.5-29.4,16.1c-0.6,0.2-1.3,0.4-1.9,0.7
				c-2.6,0.8-5.1,1.6-7.3,2.9c-2.1,1.2-5.1,3.2-6.2,6.4c-1.4,3.6-0.2,8.4,3,12.1c3,3.4,7,5.7,11.5,8c0.7,0.4,1,1.3,0.6,2
				s-1.3,1-2,0.6c-4.7-2.4-9.1-4.8-12.4-8.7c-4-4.5-5.3-10.5-3.5-15.1c1.6-4,5.1-6.6,7.6-7.9c2.5-1.3,5.2-2.2,7.9-3
				c0.6-0.2,1.3-0.4,1.9-0.7c10.4-3.5,20-8.7,28.5-15.6c1.1-0.9,2.2-1.8,3.3-2.7c6.2-5.2,12.5-10.5,20.5-11.3
				c3.7-0.4,7.4,0.3,10.8,1C180.5,993.8,187.3,995.1,192.7,999.2L192.7,999.2z"/>
		</g>
		<g>
			<path class="st0" d="M158,993.5c0.5,0.4,0.7,1.2,0.4,1.8c-0.4,0.8-1.3,1.1-2,0.7l-14.9-7c-7.3-3.4-14.9-7-22.3-10.3
				c-3.3-1.5-6.7-2.8-9.7-2.2c-2.8,0.6-5.4,2.9-8.1,6.9c-7.2,11.3-9.3,25.8-5.8,38.7l0.2,0.7c0.9,3.4,2,7.2,0.2,10.7
				c-0.2,0.3-0.1,1.1,0.1,1.7v0.2c0.1,0.8-0.4,1.6-1.3,1.7c-0.8,0.1-1.6-0.4-1.7-1.3v-0.2c-0.1-1-0.3-2.4,0.3-3.6
				c1.3-2.3,0.4-5.4-0.4-8.4l-0.2-0.7c-3.8-13.8-1.4-29.1,6.2-41.2c3-4.8,6.3-7.5,9.9-8.2c4-0.9,7.7,0.6,11.6,2.4
				c7.5,3.3,15.1,6.9,22.4,10.3l14.9,6.9C157.8,993.4,157.9,993.5,158,993.5z"/>
		</g>
		<g>
			<path class="st0" d="M154,994.7c0.5,0.4,0.7,1.2,0.4,1.8c-0.4,0.8-1.3,1.1-2,0.7c-6.7-3.2-13.9-6.4-21.5-7.7
				c-8.2-1.4-15.8-0.2-21.5,3.5c-2.1,1.4-3.7,2.9-4.8,4.6c-1.1,1.9-1.5,4.1-1,5.9c0.5,1.8,1.9,3.6,4.1,5c4,2.6,9.5,3.6,15.4,2.6
				c5.5-0.9,10.8-3.2,15.9-5.4c0.8-0.3,1.6,0.1,2,0.8c0.3,0.8-0.1,1.6-0.8,2c-5.2,2.3-10.7,4.7-16.6,5.7c-6.7,1.1-13,0-17.6-3.1
				c-1.9-1.3-4.4-3.5-5.3-6.8c-0.7-2.6-0.2-5.6,1.3-8.2c1.2-2.1,3.2-4,5.7-5.6c6.3-4,14.7-5.4,23.6-3.9c8,1.3,15.4,4.7,22.3,8
				C153.8,994.6,153.9,994.6,154,994.7z"/>
		</g>
		<g>
			<path class="st0" d="M121.4,1011.6c0.3,0.3,0.5,0.5,0.5,1c0.1,0.8-0.5,1.6-1.3,1.7c-0.6,0.1-1.2,0.2-1.8,0.3h-0.2
				c-1.3,0.2-2.4,0.2-3.3,0.1c-3.8-0.5-7.8,0.2-11.3,2s-6.4,4.6-8.3,7.9c-0.4,0.8-1.3,1-2.1,0.6c-0.8-0.4-0.9-1.4-0.6-2.1
				c2.2-3.8,5.6-7.1,9.6-9.1s8.6-2.8,13-2.3c0.7,0.1,1.5,0.1,2.5-0.1h0.2c0.7-0.1,1.3-0.2,1.9-0.3
				C120.7,1011.2,121.1,1011.3,121.4,1011.6z"/>
		</g>
		<g>
			<path class="st0" d="M122.2,1011.8c0.2,0.2,0.4,0.4,0.5,0.7c0.2,0.8-0.2,1.6-1,1.9l-0.7,0.2c-0.8,0.2-1.6-0.2-1.9-1
				c-0.2-0.8,0.2-1.6,1-1.9l0.7-0.2C121.3,1011.3,121.8,1011.4,122.2,1011.8z"/>
		</g>
		<g>
			<path class="st0" d="M262.6,1089.8c1.9,1.5,2.5,4.6,3.1,7c0.2,0.8,0.3,1.4,0.5,2l3.2,9.9c0.7,2.3,1.5,4.7,1.6,7.3
				c0.1,5.2-2.6,9.9-4.8,13.7c-2.5,4.2-5,8.7-8.6,12.2c-4.2,4.2-9.2,6.5-14,6.5c-5.9,0.1-11.3-3.7-12.7-8.8
				c-1.3-4.6,0.5-9.2,2.5-13.6c1.6-3.6,3.3-7.4,4.9-10.9c2.5-5.5,5.2-11.3,8.9-16.3c3.1-4.2,7.7-9.5,11.8-10
				c1.3-0.2,2.5,0.1,3.5,0.8C262.4,1089.7,262.4,1089.8,262.6,1089.8z M266.5,1109.7l-3.2-9.9c-0.2-0.6-0.4-1.4-0.6-2.3
				c-0.5-1.9-1.1-4.6-2.2-5.4c-0.3-0.2-0.7-0.3-1.2-0.3c-2.2,0.3-5.9,3.7-9.7,8.9c-3.6,4.8-6.1,10.4-8.6,15.8
				c-1.6,3.5-3.3,7.1-4.9,10.9c-1.8,4-3.3,7.9-2.3,11.5c1.1,3.7,5.3,6.6,9.8,6.6c4,0,8.2-2,11.9-5.6c3.3-3.3,5.8-7.5,8.1-11.6
				c2-3.4,4.5-7.7,4.4-12.1C267.9,1114,267.2,1111.8,266.5,1109.7L266.5,1109.7z"/>
		</g>
		<g>
			<path class="st0" d="M241.7,1032.1c2.8,2.3,5.1,5.9,6.9,10.4c0.7,1.6,1.2,3.2,1.7,4.9c1.1,3.3,2.2,6.5,3.9,9.4
				c0.9,1.6,2,3.1,3.2,4.6c1.1,1.4,2.2,2.9,3.2,4.4c4.7,7.6,5.6,17.4,2.1,25.6c-0.3,0.8-1.2,1.2-2,0.8s-1.2-1.2-0.8-2
				c3-7.4,2.3-16.1-2-22.9c-0.9-1.4-1.9-2.7-3-4.2c-1.2-1.5-2.4-3.1-3.5-4.9c-1.9-3.2-3.1-6.6-4.2-10c-0.5-1.6-1-3.2-1.6-4.7
				c-2.2-5.7-5.2-9.3-8.8-10.9c-0.8-0.4-1.1-1.3-0.8-2c0.4-0.8,1.3-1.1,2-0.8C239.4,1030.5,240.6,1031.2,241.7,1032.1z"/>
		</g>
		<g>
			<path class="st0" d="M262.1,1090.1c0,0.1,0.1,0.1,0.1,0.1c0.6,0.6,0.6,1.5,0.1,2.1c-0.1,0.1-0.1,0.1-0.1,0.2
				c0.2-0.2,0.5-0.2,0.8-0.3c0.8,0,1.5,0.6,1.6,1.5c0.2,4.7-1.4,9.3-2.7,13.4c-1.6,4.7-3.2,9.7-5.7,14.1c-0.6,1.1-1.3,2.3-2.3,3.1
				c-1.2,1.2-2.7,1.7-4.2,1.6c-2.6-0.1-4.8-2.4-5.2-5.2c-0.3-2.6,0.7-4.9,1.5-6.5c1.4-2.7,3.3-5.2,5.1-7.6c2.3-3,4.4-5.8,5.8-9.2
				c0.2-0.5,0.4-1,0.5-1.6c0.7-1.9,1.3-3.9,2.8-5.5C260.6,1089.7,261.5,1089.6,262.1,1090.1z M248.4,1122.5c0.3,0.3,0.8,0.5,1.2,0.5
				c0.7,0,1.4-0.3,2-0.8c0.7-0.6,1.2-1.5,1.7-2.4c2.4-4.2,4-9.1,5.5-13.6c1.4-4,2.7-8.2,2.6-12.4c0-0.2,0-0.3,0.1-0.5
				c-0.6,1-1,2.1-1.4,3.4c-0.2,0.6-0.4,1.2-0.6,1.8c-1.4,3.7-3.8,6.9-6.2,10c-1.8,2.4-3.6,4.6-4.8,7.1c-1,1.9-1.3,3.4-1.2,4.7
				C247.5,1121.2,247.8,1122,248.4,1122.5z"/>
		</g>
		<g>
			<path class="st0" d="M263.9,1083.6c0.5,0.4,0.7,1.3,0.3,1.9c-0.4,0.8-1.4,0.9-2.1,0.6c-1.5-0.9-2.6-0.7-4.9-0.2s-4.3,1.8-6.3,3.1
				c-11.9,8-21.3,19.8-26.5,33.2c-1,2.7-2.2,6.3-2.2,9.9c0,3.5,1.2,6.6,3.2,8.6c2.3,2.1,5.7,2.9,8.1,1.6c0.7-0.4,1.6-0.1,2,0.7
				c0.4,0.7,0.1,1.6-0.7,2c-3.6,1.8-8.4,0.8-11.6-2.2c-2.6-2.6-4.1-6.5-4.1-10.8c0-4.1,1.3-8,2.4-10.9c5.4-14,15.2-26.2,27.7-34.6
				c2.1-1.4,4.4-2.9,7.2-3.5c2.5-0.6,4.7-1,7.1,0.4C263.8,1083.4,263.9,1083.5,263.9,1083.6z"/>
		</g>
		<g>
			<path class="st0" d="M224,1061.6c0.5,0.4,0.7,1,0.4,1.7c-0.1,0.2-0.1,0.3-0.2,0.5c-0.1,0.3-0.2,0.7-0.4,1
				c-6.9,15.7-15.7,30.5-26.4,44l-0.4,0.5c-1.5,2-3.1,3.8-4.1,5.9c-0.9,1.7-1.9,4.3-1.4,7c0.5,2.8,2.5,5.5,6,8.1
				c6.9,5.1,15.7,7.8,24.3,7.2c0.8-0.1,1.5,0.6,1.6,1.4s-0.6,1.5-1.4,1.6c-9.3,0.5-18.8-2.4-26.2-7.9c-4.2-3.1-6.6-6.5-7.2-10
				c-0.5-2.7,0.2-5.8,1.8-8.9c1.3-2.4,2.9-4.4,4.4-6.4l0.4-0.5c10.5-13.3,19.2-27.8,25.9-43.3c0.1-0.2,0.2-0.4,0.2-0.7
				c0.1-0.3,0.1-0.5,0.2-0.8c0.3-0.8,1.2-1.2,2-0.9C223.8,1061.5,224,1061.6,224,1061.6z"/>
		</g>
		<g>
			<path class="st0" d="M190.7,1122.1c0.5,0.4,0.7,1.3,0.3,1.9c-2.5,4.3-7.4,7.2-12.5,7.3c-3,0.1-5.9-0.9-8.3-1.8
				c-2.4-0.9-5.1-2.1-6.8-4.2c-0.5-0.6-0.4-1.6,0.2-2.1c0.6-0.5,1.6-0.4,2.1,0.2c1.3,1.6,3.4,2.5,5.4,3.3c2.2,0.8,4.8,1.6,7.3,1.6
				c4-0.1,7.9-2.3,9.9-5.8c0.4-0.8,1.4-0.9,2.1-0.6C190.6,1122,190.6,1122,190.7,1122.1z"/>
		</g>
	</g>
	<g>
		<path class="st0" d="M130.6,993.7c0.5,0.4,0.7,1.1,0.4,1.7c-0.3,0.8-1.2,1.2-2,0.9c-2.9-1.2-5.7-1.5-8-1.2
			c-2.7,0.3-5.1,1.8-6.3,3.7c-0.4,0.8-1.4,0.9-2.1,0.5c-0.8-0.4-0.9-1.4-0.5-2.1c1.7-2.8,4.8-4.7,8.5-5.2c2.9-0.4,6,0.1,9.5,1.4
			C130.2,993.5,130.4,993.6,130.6,993.7z"/>
	</g>
	<g>
		<path class="st0" d="M128.4,1021.6c0.2,0.2,0.4,0.4,0.5,0.7c0.2,0.8-0.2,1.6-0.9,1.9l-9.5,3.1c-2.9,0.9-5.9,1.9-8.6,3.5
			c-2,1.2-4.6,3.1-5.9,6.2c-0.3,0.8-1.2,1.2-2,0.8c-0.8-0.3-1.2-1.2-0.8-2c1.3-3,3.7-5.6,7.2-7.6c3-1.7,6.2-2.7,9.2-3.8l9.5-3.1
			C127.5,1021.2,128.1,1021.3,128.4,1021.6z"/>
	</g>
	<g>
		<path class="st0" d="M138.3,1015c0.1,0.1,0.2,0.1,0.2,0.2c0.5,0.6,0.4,1.6-0.2,2.1l-4.6,3.8c-0.6,0.5-1.6,0.4-2.1-0.2
			c-0.5-0.7-0.4-1.6,0.2-2.1l4.6-3.8C137,1014.5,137.7,1014.5,138.3,1015z"/>
	</g>
	<g>
		<path class="st0" d="M194.9,1011.6c0.3,0.3,0.5,0.7,0.5,1.2c-0.1,0.8-0.7,1.5-1.5,1.5c-8.6-0.2-17.1,4-22.1,10.9
			c-0.5,0.7-1.4,0.8-2.1,0.3c-0.7-0.5-0.8-1.4-0.3-2.1c5.7-7.7,15.1-12.4,24.7-12.1C194.4,1011.2,194.7,1011.3,194.9,1011.6z"/>
	</g>
	<g>
		<path class="st0" d="M171.2,1090.1L171.2,1090.1c0.7,0.5,0.7,1.5,0.2,2.1c-3.9,4.6-8.7,8.4-14.1,11.1c-0.2,0.2-0.4,0.2-0.7,0.4
			c-1.2,0.6-2.4,1.2-3.3,2c-0.8,0.8-1.6,1.9-1.4,3.1c0.1,0.8-0.4,1.6-1.3,1.8c-0.8,0.1-1.6-0.4-1.8-1.3c-0.3-2,0.5-4.2,2.4-5.9
			c1.3-1.1,2.6-1.8,4-2.5c0.2-0.2,0.4-0.2,0.7-0.4c4.9-2.6,9.5-6.2,13.2-10.4C169.6,1089.6,170.6,1089.6,171.2,1090.1z"/>
	</g>
	<g>
		<path class="st0" d="M181.1,1080.4c0.7,0.5,0.7,1.5,0.2,2.1l-4.6,5.6c-0.5,0.7-1.5,0.7-2.1,0.2c-0.7-0.5-0.7-1.5-0.2-2.1l4.6-5.6
			C179.4,1080,180.4,1079.9,181.1,1080.4z"/>
	</g>
	<g>
		<path class="st0" d="M202.4,1111.3c0.1,0.1,0.2,0.1,0.2,0.2c0.5,0.6,0.4,1.6-0.3,2.1c-2.5,1.9-3.6,5.5-2.7,8.5
			c0.9,3,3.7,5.4,6.8,5.8c0.9,0.1,1.4,0.8,1.3,1.7c-0.1,0.9-0.8,1.4-1.7,1.3c-4.3-0.5-8.2-3.8-9.4-8s0.3-9,3.8-11.8
			C201.1,1110.8,201.9,1110.8,202.4,1111.3z"/>
	</g>
	<g>
		<path class="st0" d="M240.6,1127.8c0.6,0.5,0.7,1.3,0.3,2c-1.1,1.8-1.3,4.1-0.5,5.9c0.8,2,2.6,3.7,4.2,5.1
			c0.6,0.5,0.7,1.5,0.1,2.1c-0.5,0.6-1.5,0.7-2.1,0.1c-1.8-1.6-4-3.5-5-6.3c-1.2-2.8-0.8-6.2,0.8-8.7c0.4-0.7,1.4-0.9,2.1-0.5
			C240.5,1127.7,240.5,1127.8,240.6,1127.8z"/>
	</g>
</g>
<g>
	<path class="st0" d="M420.8,1306.6c-32.1,9-55.6,25-52.6,35.9s31.5,12.4,63.6,3.5c32.1-9,55.6-25,52.6-35.9
		C481.3,1299.2,452.9,1297.6,420.8,1306.6z M467.8,1323.7c-9.4,6.4-22.8,12.2-37.7,16.4c-14.9,4.2-29.3,6.1-40.7,5.5
		c-11.6-0.7-15-3.7-15.3-4.7s1.1-5.4,10.7-12c9.4-6.4,22.8-12.2,37.7-16.4c14.9-4.2,29.3-6.1,40.7-5.5c11.6,0.7,15,3.7,15.3,4.7
		C478.7,1312.7,477.4,1317.1,467.8,1323.7z"/>
	<g>
		<ellipse class="st0" cx="422" cy="1310.9" rx="16" ry="16"/>
	</g>
	<g>
		<path class="st0" d="M421.8,1307.2l-3.6-0.7c2.1-10.9,9.2-20.6,18.8-26.2c5-2.9,11-4.8,17.8-5.7l0.5,3.6
			c-6.4,0.9-11.9,2.6-16.4,5.3C430,1288.5,423.7,1297.3,421.8,1307.2z"/>
	</g>
	<g>
		<g>
			<path class="st0" d="M505.4,1358l-8.6-19.6c-16,9.7-37.2,18.5-60.2,24.9s-45.7,9.9-64.5,9.8l2.7,21.2c19.4,0.4,43.4-3,67.7-9.7
				C466.8,1377.9,489.1,1368.5,505.4,1358z"/>
		</g>
		<g>
			<path class="st0" d="M450.1,1411.8c25.7-7.1,49.3-17.4,66.4-28.7l-9.5-21.6c-16.6,10.5-39.1,20-63.4,26.7
				c-24.4,6.8-48.4,10.3-68.1,9.9l3,23.4C399,1422.4,424.4,1419,450.1,1411.8z"/>
		</g>
		<g>
			<path class="st0" d="M517.9,1386.5c-17.4,11.4-41.1,21.6-66.9,28.8c-25.9,7.2-51.4,10.7-72.2,9.9l1.8,13.7c0,0,28.6,9.3,75.9-3.8
				s66.9-35.9,66.9-35.9L517.9,1386.5z"/>
		</g>
		<g>
			<path class="st0" d="M484.3,1310.1c3,10.9-20.5,26.9-52.6,35.9s-60.6,7.4-63.6-3.5l3.5,27.1c18.5,0.1,41-3.3,63.9-9.7
				c22.9-6.4,44-15.2,59.7-24.8L484.3,1310.1z"/>
		</g>
	</g>
</g>
</svg>
