<?xml version="1.0" encoding="utf-8"?>
<!-- Generator: Adobe Illustrator 23.1.0, SVG Export Plug-In . SVG Version: 6.00 Build 0)  -->
<svg version="1.1" id="Слой_1" opacity="0.5" xmlns="http://www.w3.org/2000/svg" xmlns:xlink="http://www.w3.org/1999/xlink"
	 x="0px" y="0px" viewBox="0 0 700 1060.5" style="enable-background:new 0 0 700 1060.5;" xml:space="preserve">
<style type="text/css">
	.st0{fill:#1C1C1C;}
	.st1{fill:#1C1C1A;}
</style>
<g>
	<path class="st0" d="M421.7,877.8c4.9-4.2,12.5-9.9,13.5-16.7c1.2-7.7-4.4-17.2-8.7-23.3c-10-14.1-32.2-11.9-45.4-3.7
		c-6.3,4.3-11.9,8.9-12.5,17.1c-0.6,7.2,2.1,22.8,7.4,28.2c4.5,4.7,17.2,6.6,23.3,7.4C408.6,888.2,414.8,883.7,421.7,877.8z
		 M415,836.9c-2.9,2.5-5.7,4.9-8.6,7.4c-3,2.5-6.5,4.3-9.4,6.7c-1.9-0.6-4-0.8-6.4-1.1c-4.4-0.6-8.7-1.2-13.2-1.7
		c1.5-3.3,4-6.3,7.5-8.7C393.1,834.3,405.7,832.4,415,836.9z M389.9,877.7c-9.7-3.8-15.4-13.6-14.4-23.1c5.7,0.4,17.9,0.1,20.9,4.9
		c3.6,5.7,3.9,13.8,6.7,19.9C399.1,880,394.7,879.6,389.9,877.7z M409.5,877.7c-0.1-0.1,0-0.1-0.1-0.2c-3.2-6.9-3.7-15.5-7.6-22.1
		c2.7-1.9,5.6-3.6,8.2-5.7c3.5-2.8,6.8-5.9,10.4-8.7c0.1-0.1,0.1-0.1,0.1-0.1c0.2,0.2,0.4,0.4,0.6,0.6c2.8,3.2,8,12.6,7.6,17.4
		c-0.3,4.4-5.3,8.5-8.2,11.2C417,873.4,413.4,875.9,409.5,877.7z"/>
	<path class="st0" d="M452.2,914c-11-8.1-32-13.3-43.2-2.7c-5.6,5.2-12.6,15.6-12.9,23.6c-0.2,7.8,6.8,14.1,11.9,19.3
		c6.3,6.4,12.3,11.6,21.7,10.9c6.3-0.5,18.8-1.1,23.8-5.5c5.9-5,9.7-20.6,9.6-28C463.1,923.7,458,918.7,452.2,914z M447.9,919
		c3,2.4,5.1,5.7,6.4,9.4c-4.1,0.1-8.1,0.4-12.1,0.6c-2.6,0.1-5,0-7.2,0.6c-2.8-2.6-6-4.7-8.8-7.4c-2.8-2.7-5.5-5.5-8.2-8.2
		C427.5,910.2,440.3,913.4,447.9,919z M402.6,935c0-5,5.7-14,9.5-17.7c0.1,0.1,0.1,0.2,0.2,0.2c3.2,3.1,6.3,6.4,9.6,9.5
		c2.5,2.4,5.3,4.3,7.9,6.5c-4.3,6.3-5.5,14.6-9.2,21.2c-0.1,0.1-0.1,0.2-0.1,0.3c-2.9-1.5-5.6-3.5-8-5.9
		C409.4,946.3,402.6,940.1,402.6,935z M443.7,956.1c-5.8,2.5-11.7,2.8-17.3,1.4c3.3-6.1,4.3-13.9,8.3-19.5c2.2-3.1,5.8-2.4,9.3-2.6
		c3.8-0.2,7.6-0.5,11.5-0.6C456.2,943.5,452.3,952.4,443.7,956.1z"/>
	<path class="st0" d="M454.8,860.1c5.9,2,12.3-1.3,14.5-7c2.4-6-0.3-10.7-5.4-13.9c-0.6-0.3-1.1-0.4-1.6-0.4
		c-6-1.6-12.9,0.1-15.5,6.2C444.3,850.9,449,858.1,454.8,860.1z M453.2,846.9c1.6-2.9,5.2-2.6,8-1.8c2.1,1.3,3.1,3,2.1,5.5
		s-3.7,4.1-6.3,3.2C454.4,853,451.7,849.6,453.2,846.9z"/>
	<path class="st0" d="M474.7,877.6c-0.6-0.3-1.1-0.4-1.6-0.4c-6-1.6-12.9,0.1-15.5,6.2c-2.6,6,2.1,13.2,8,15.2
		c5.9,2,12.3-1.3,14.5-7C482.4,885.6,479.7,880.8,474.7,877.6z M474,889.1c-1,2.5-3.7,4.1-6.3,3.2c-2.5-0.8-5.2-4.3-3.7-6.9
		c1.6-2.9,5.2-2.6,8-1.8C473.9,885,475,886.6,474,889.1z"/>
	<path class="st0" d="M382.3,908.5c-0.6-0.3-1.1-0.4-1.6-0.4c-6-1.6-12.9,0.1-15.5,6.2c-2.6,6,2.1,13.2,8,15.2
		c5.9,2,12.3-1.3,14.5-7C390,916.4,387.3,911.7,382.3,908.5z M381.6,919.9c-1,2.5-3.7,4.1-6.3,3.2c-2.5-0.8-5.2-4.3-3.7-6.9
		c1.6-2.9,5.2-2.6,8-1.8C381.5,915.8,382.6,917.4,381.6,919.9z"/>
	<path class="st0" d="M533.3,770.5c0.9,1.4,3.2,1.9,4.6,0.9c4.7-3.8,9.5-7.5,13.9-11.6c1.1-1.1,0.9-2.8,0.2-4
		c-8.1-14.3-30.5-64.6-50.5-33.9c-6.8,10.4-11.3,23.2-16.7,34.4c-2.4,5.1-4.8,10.1-7.2,15.1c-38.2-7.5-76.3-15.8-114.5-23.3
		c-0.6-0.1-1.1-0.1-1.5,0.1c-1.2,0.2-2.2,0.9-2.3,2.6c-4.8,49.1-8.6,98.2-10.1,147.4c-0.4,12.9-0.7,25.8-0.7,38.6
		c-0.1,6.8-2.3,17.9,1.4,23.9c2.8,4.6,9.2,5,13.9,6.1c12.7,2.8,25.4,5.7,38.1,8.1c11.3,2.1,22.6,4.1,33.9,6.2
		c6.3,1.2,16.5,4.7,23.1,2.7c13.8-4.1,17.1-29.1,21.3-40.8c19-52.3,37.9-104.5,56.9-156.8c0.7-1.9,0-4.3-2.3-4.7
		c-10.7-1.7-21.4-3.6-32.1-5.6c4.7-9.9,9.6-19.7,14.9-29.3C522.6,754.7,528,762.6,533.3,770.5z M462.7,819.7
		c6-13.8,12.3-27.4,18.7-40.9c3.8,0.7,7.7,1.5,11.6,2.2c-6.4,13.8-12.5,27.7-18.8,41.5C470.3,821.8,466.5,820.8,462.7,819.7z
		 M456.3,817.9c-8.3-2.6-16.5-5.7-24.7-8.9c-23.5-9.1-45-13.9-70.1-11.8c1.2-14,2.4-27.9,3.7-41.9c36.5,7.1,72.9,15,109.4,22.2
		C468.4,790.8,462.2,804.3,456.3,817.9z M485.1,910c-3.6,10-7.3,20.1-10.9,30.1c-3.4,9.3-5.7,21.8-10.9,30.1
		c-6.5,10.4-16.2,6.2-26.3,4.4c-10.3-1.9-20.7-3.7-31-5.6c-9.7-1.8-19.4-3.7-29.1-5.9c-4.5-1-10.9-1.3-15-3.5c-8.4-4.5-7-7.2-7-14.6
		c-0.1-20.8,0.4-41.7,1.3-62.5c1.1-26.3,2.8-52.6,4.9-78.9c33.7-3.1,59.5,9.4,90.4,19.9c20.3,6.8,41.8,9.9,62.9,6
		C504.5,856.4,494.8,883.3,485.1,910z M529.6,787.4c-4.2,11.7-8.5,23.4-12.8,35.1c-12.4,2.9-24.3,2.8-36,1.1
		c6.3-13.8,12.4-27.7,18.8-41.5C509.6,784.1,519.6,785.8,529.6,787.4z M495.8,774.9c-3.8-0.7-7.7-1.4-11.6-2.2
		c1.8-3.9,3.7-7.7,5.5-11.6c5.3-11,9.8-27.6,18-36.9c10.7-12.1,18.2,1.4,23.8,10.2c2.9,4.5,14.3,18.6,13,23.1
		c-0.7,2.3-6.3,4.5-8,6.5c-0.1-0.3-0.2-0.6-0.3-0.9c-3.2-8.4-11.4-17-16.5-24.4c-1.4-2.1-4.5-1.8-5.7,0.4
		C507.6,750.8,501.5,762.7,495.8,774.9z"/>
	<path class="st0" d="M368.7,777.6c0.1,4.1,0.1,8.2-0.1,12.3c-0.1,4.2,6.5,3.7,6.5-0.5c0.1-4.6,0.2-9.2,0-13.8
		c0-0.7-0.5-2.5-0.2-3.1c-0.1-0.2-0.2-0.3-0.3-0.5c0.6,0.1,1.2,0.1,1.8,0.2c2.5,0.4,5,1.1,7.5,1.8c4,1.3,5.2-5.2,1.2-6.5
		c-4.4-1.4-13.9-4.8-16.3,1.4C367.8,771.6,368.6,774.9,368.7,777.6z"/>
	<path class="st0" d="M393.8,776.8c4.1,0.8,5.4-5.7,1.2-6.5C390.9,769.6,389.6,776,393.8,776.8z"/>
</g>
<g>
	<path class="st1" d="M231.3,166.2c1.7-0.8,3.3-1.8,4.7-3l0.3,1.3c-1.9,1.5-3.9,2.7-6.1,3.6c-3.3,1.3-6.6,1.9-10.2,1.8
		c-4.5-0.1-8.6-1.4-12.4-3.8c-3.8-2.4-6.7-5.5-8.9-9.4c-2.1-4-3.1-8.2-2.9-12.6c0.1-4.5,1.5-8.6,3.8-12.4c2.4-3.8,5.5-6.7,9.4-8.9
		s8.2-3.1,12.6-2.9c6.1,0.3,11.5,2.4,16,6.4l-1.6,1.8c-4.5-4.2-9.7-6.3-15.8-6.6c-6.1-0.1-11.2,1.8-15.6,5.8c-3,2.8-5.1,6.1-6.1,10
		c-1.1,3.9-1.1,7.9-0.2,12c1,4.1,3,7.6,5.9,10.9c3.6,3.8,7.9,6.2,12.9,7.3C222.3,168.7,227,168.3,231.3,166.2z"/>
	<path class="st1" d="M249.7,124.2c4-2.2,8.2-3.1,12.6-2.9c4.5,0.1,8.6,1.5,12.4,3.8c3.8,2.4,6.7,5.5,8.9,9.4
		c2.2,4,3.1,8.2,2.9,12.6c-0.1,4.5-1.5,8.6-3.8,12.4c-2.4,3.8-5.5,6.7-9.4,8.9c-4,2.2-8.2,3.1-12.6,2.9c-4.5-0.1-8.7-1.5-12.5-3.8
		c-3.8-2.4-6.7-5.5-8.9-9.4c-2.1-3.9-3.1-8.2-2.9-12.6c0.1-4.5,1.5-8.6,3.8-12.4C242.5,129.4,245.7,126.3,249.7,124.2z M267.1,169.1
		c4-0.8,7.5-2.6,10.5-5.4c3-2.8,5.1-6.1,6.1-10.1c1.1-3.9,1.2-7.9,0.2-12c-1-4.1-3-7.6-5.9-10.8c-2.9-3.2-6.4-5.4-10.4-6.7
		c-4-1.3-7.9-1.5-12-0.7c-4,0.8-7.5,2.6-10.5,5.4c-3,2.8-5.1,6.1-6,10.1c-1.1,3.9-1.1,7.9-0.2,12c1,4.1,3,7.6,5.9,10.8
		s6.4,5.4,10.4,6.7C259.1,169.8,263.2,170,267.1,169.1z"/>
	<path class="st1" d="M301.6,170.8l0.9,1.2l-14.2-0.6L290,123l2.3,0.1l-1.7,47.3L301.6,170.8z"/>
	<path class="st1" d="M321.6,123.4l11.4,49.7l-2.3-0.1l-4.2-18.4l-14.3-0.5l-5.5,18l-1.3-0.1l14.3-46.7L321.6,123.4z M312.6,153
		l13.6,0.5l-5.9-25.7L312.6,153z"/>
</g>
<g>
	<path class="st1" d="M310.6,299.4c1.2-1,2.4-1.7,4-2.3c3.7-1.5,7.4-1.3,11.1,0.3c3.6,1.6,6.2,4.3,7.7,8c1,2.8,1.3,5.7,0.5,8.6
		c-0.7,2.9-2.1,5.4-4.2,7.3l18.9,12.7l-2,0.8l-18.4-12.3c-0.9,0.7-2,1.3-3.2,1.7c-0.7,0.2-1.5,0.5-2.2,0.6l6.4,16.7l-2.1,0.8
		L310.6,299.4z M322.4,323.7c0.8-0.1,1.4-0.2,2.2-0.6c3.2-1.2,5.3-3.4,6.7-6.7c1.3-3.3,1.3-6.7,0-10.2c-0.7-1.7-1.6-3.2-2.8-4.5
		c-1.2-1.3-2.5-2.3-4-3c-1.5-0.7-3-1.1-4.6-1.3s-3.2,0.1-4.8,0.7c-0.7,0.3-1.4,0.6-2,1L322.4,323.7z"/>
	<path class="st1" d="M352.9,331.2l9.6-3.7l1.3,0.7l-12.6,4.8l-16.3-42.9l12.6-4.8l-0.4,1.4l-9.6,3.7l5.7,14.8l8.3-3.2l-0.4,1.3
		l-7.6,3L352.9,331.2z"/>
	<path class="st1" d="M372,282.6c3.9,1.8,7.1,4.3,9.5,7.8c2.5,3.3,3.9,7.2,4.4,11.4c0.5,4.2-0.2,8.2-2,12.1
		c-1.5,3.3-3.6,6.1-6.2,8.3c-2.7,2.3-5.7,3.9-9,4.8c-0.7,0.2-1.6,0.4-2.2,0.5L349.8,284c0.6-0.4,1.3-0.7,2-1.1
		c3.1-1.6,6.3-2.4,10-2.5C365.3,280.5,368.7,281.1,372,282.6z M370.4,325.3c3.5-1.3,6.5-3.6,8.9-6.7c2.3-3.1,3.8-6.6,4.4-10.4
		c0.5-3.9,0.1-7.7-1.4-11.6c-1-2.8-2.6-5.3-4.7-7.5c-2-2.2-4.4-3.9-6.8-5c-2.5-1.1-5.2-1.9-8.1-2c-2.9-0.2-5.7,0.3-8.4,1.3
		c-0.7,0.2-1.5,0.5-2.1,0.9l16,41.9C368.9,325.7,369.7,325.6,370.4,325.3z"/>
	<path class="st1" d="M410.4,281.4c2.8,0.1,5.5,0.9,7.9,2.6c2.4,1.6,4.1,3.9,5.2,6.7c1.5,3.7,1.3,7.4-0.3,11.1
		c-1.6,3.6-4.3,6.2-8,7.7c-1.5,0.5-2.9,0.9-4.5,0.9L394.6,268c0.1-0.3,0.4-0.5,0.7-0.7c0.9-0.9,2-1.5,3.1-2c2.5-1,5-0.9,7.4,0.2
		c2.5,1.1,4.1,2.9,5.1,5.4c0.7,1.7,0.8,3.4,0.6,5.2c-0.4,1.8-1.1,3.3-2.2,4.6c-0.1,0.3-0.5,0.6-0.7,0.8
		C409,281.4,409.7,281.3,410.4,281.4z M414.7,308.3c3.2-1.2,5.3-3.4,6.7-6.7c1.3-3.3,1.3-6.7,0-10.1c-1.3-3.4-3.6-6-6.7-7.6
		s-6.4-1.8-9.4-0.6l-2.1,0.8l9.4,24.7C413.2,308.8,414,308.6,414.7,308.3z M396.7,267.4l6,15.7l2.1-0.8c1.9-0.8,3.2-2.1,4-4.2
		c0.7-2,0.7-4.3-0.1-6.4c-0.9-2.3-2.3-3.9-4.2-4.9c-2-1-3.9-1.2-5.8-0.5C397.9,266.5,397.3,266.9,396.7,267.4z"/>
	<path class="st1" d="M431.3,253.4l1-0.4l13.3,34.7c1,2.4,0.9,4.9-0.2,7.2c-1.1,2.4-2.8,4-5.2,5c-1.6,0.7-3.2,0.8-4.8,0.5
		c-1.7-0.3-3.2-0.9-4.5-2c-1.3-1-2.3-2.4-2.9-4.1l-13.3-34.7l2.1-0.8l13.3,34.7c0.8,2.2,2.3,3.8,4.2,4.7c2,1,4,1.1,6,0.4
		c2-0.8,3.5-2.2,4.2-4.3c0.8-2.1,0.9-4.2,0-6.4L431.3,253.4z"/>
	<path class="st1" d="M462.4,289.3l1.3,0.7l-12.6,4.8l-16.3-42.9l2.1-0.8l16,41.9L462.4,289.3z"/>
	<path class="st1" d="M477.6,283.5l1.3,0.7l-12.6,4.8l-16.3-42.9l2.1-0.8l16,41.9L477.6,283.5z"/>
</g>
<g>
	<path class="st1" d="M240.2,406.5l-9.8-3l-4.7,15.1l8.6,2.6l-1.1,0.9l-7.8-2.4l-8.2,26.6l-2.1-0.6l13.4-43.9l12.9,4L240.2,406.5z"
		/>
	<path class="st1" d="M248.4,407.1l-1.7,48.2l-2.1-0.6l0.7-17.7l-12.9-4l-9.4,15.1l-1.1-0.3l24.5-39.1L248.4,407.1z M232.9,431.8
		l12.3,3.8l0.9-25L232.9,431.8z"/>
	<path class="st1" d="M279.7,417.4l1,0.3l-13.4,43.9l-0.7-0.3l0-0.9l-4.7-41.8l-11.6,37.6l-1.1-0.3l13.4-43.8l0.7,0.3l0.2,0.9
		l4.7,41.8L279.7,417.4z"/>
	<path class="st1" d="M284.2,418.8l17.1,5.2l-1.2,0.8l-7.1-2.2l-13.1,42.9l-2.1-0.6l13.1-42.8l-8-2.4L284.2,418.8z"/>
	<path class="st1" d="M310.9,426.3l-1.7,48.2l-2.1-0.6l0.7-17.7l-12.9-4l-9.4,15.1l-1.1-0.3l24.5-39.1L310.9,426.3z M295.4,451.1
		l12.3,3.8l0.9-25L295.4,451.1z"/>
</g>
<g>
	<path class="st1" d="M348.6,591.9c1.1,1.9,1.8,4.3,1.9,7.1c0.1,2.6-0.6,4.9-2.3,6.8c-1.7,1.9-3.9,3-6.4,3.3
		c-1.7,0.1-3.3-0.1-4.8-0.9c-1.5-0.7-2.7-1.7-3.7-3.1c-0.6-0.7-0.9-1.5-1.2-2.3l1.7-2.3c0.2,1.7,0.7,3.2,1.7,4.4
		c1.5,2.2,3.6,3.1,6.1,3c2-0.1,3.7-1.1,4.9-2.7c1.3-1.7,1.9-3.8,1.7-6c0-0.1,0-0.2-0.1-0.4c0-0.2,0-0.4-0.1-0.6
		c0-0.2-0.1-0.4-0.1-0.7c0-0.3,0-0.6-0.1-0.8c0-0.3-0.1-0.7-0.2-0.9c-0.2-0.4-0.2-0.7-0.4-1.1c-0.2-0.5-0.3-0.8-0.5-1.2
		c-0.7-1.4-1.6-2.6-2.6-3.6c-1-1-2-1.9-3.1-2.6s-2.2-1.4-3.2-2c-1.1-0.6-2.2-1.6-3.3-2.5c-1.1-1.1-2.1-2.3-2.8-3.7
		c-1.2-2-1.9-4.3-1.9-7.1c-0.1-2.6,0.6-4.9,2.3-6.8c1.7-1.9,3.9-3,6.4-3.3c1.7-0.1,3.3,0.1,4.7,0.9c1.5,0.7,2.7,1.7,3.7,3.1
		c0.5,0.7,0.9,1.5,1.2,2.3l-1.7,2.3c-0.2-1.7-0.7-3.2-1.7-4.4c-1.6-2.1-3.7-3.2-6.1-3c-2,0.1-3.7,1.1-4.9,2.7
		c-1.3,1.7-1.9,3.8-1.7,6c0,0.1,0,0.2,0,0.5c0,0.3,0,0.5,0,0.7c0,0.2,0.1,0.5,0.1,0.8c0.1,0.4,0.1,0.7,0.3,1
		c0.2,0.4,0.2,0.7,0.4,1.2c0.2,0.5,0.3,0.9,0.6,1.3c0.7,1.1,1.3,2.2,2.1,3.1s1.7,1.6,2.5,2.3c0.9,0.6,1.7,1.2,2.7,1.8
		c1,0.6,1.8,1.2,2.7,1.9c0.9,0.6,1.8,1.3,2.7,2.3C347.2,589.7,348,590.7,348.6,591.9z"/>
	<path class="st1" d="M365.6,564.1c3,2.6,4.7,6,5,10c0.3,4-0.9,7.6-3.5,10.5c-2.6,3-6,4.7-9.9,5c-0.8,0-1.5,0.1-2.3,0l1.3,17.8
		l-2.2,0.2l-3.2-45.8c1.4-0.6,2.9-1,4.5-1C359.1,560.4,362.5,561.6,365.6,564.1z M365.3,583.9c2.2-2.8,3.2-6,2.8-9.7
		c-0.3-3.7-1.7-6.8-4.2-9.1c-2.6-2.5-5.6-3.5-8.9-3.3c-0.8,0-1.6,0.2-2.3,0.4l1.9,26.3c0.7,0.1,1.5,0.1,2.2,0.1
		C360.4,588.3,363.2,586.7,365.3,583.9z"/>
	<path class="st1" d="M372.2,560.2c1.3-0.6,2.8-0.9,4.5-1c3.9-0.3,7.5,0.9,10.5,3.5s4.7,6,5,9.9c0.2,3-0.4,5.7-1.9,8.3
		c-1.5,2.6-3.6,4.4-6.1,5.7l14.4,17.7l-2.2,0.2l-14.1-17.1c-1.2,0.4-2.3,0.7-3.5,0.7c-0.8,0-1.5,0.1-2.3,0l1.3,17.8l-2.2,0.2
		L372.2,560.2z M376.4,586.8c0.7,0.1,1.5,0.1,2.2,0.1c3.3-0.3,6.1-1.7,8.3-4.5c2.2-2.8,3.2-6,2.9-9.7c-0.1-1.8-0.6-3.6-1.3-5.1
		c-0.7-1.6-1.7-3-2.9-4.1c-1.1-1.1-2.5-2-4.1-2.5c-1.6-0.6-3.1-0.8-4.8-0.7c-0.8,0-1.6,0.2-2.2,0.4L376.4,586.8z"/>
	<path class="st1" d="M401.2,604.1l-3.2-45.8l2.2-0.2l3.2,45.8L401.2,604.1z"/>
	<path class="st1" d="M403.9,558l17.9-1.3l-0.9,1.2l-7.3,0.5l3.2,44.6l-2.2,0.2l-3.2-44.6l-8.4,0.6L403.9,558z"/>
	<path class="st1" d="M429.9,601l10.3-0.7l1,1l-13.4,0.9l-3.2-45.8l13.4-0.9l-0.9,1.2l-10.3,0.7l1.1,15.8l8.9-0.7l-0.7,1.2l-8.2,0.6
		L429.9,601z"/>
</g>
</svg>
