<?xml version="1.0" encoding="utf-8"?>
<!-- Generator: Adobe Illustrator 23.1.0, SVG Export Plug-In . SVG Version: 6.00 Build 0)  -->
<svg version="1.1" id="Слой_1" opacity="0.5" xmlns="http://www.w3.org/2000/svg" xmlns:xlink="http://www.w3.org/1999/xlink"
	 x="0px" y="0px" viewBox="0 0 700 1552.7" style="enable-background:new 0 0 700 1552.7;" xml:space="preserve">
<style type="text/css">
	.st0{fill:#333333;}
</style>
<g>
	<path class="st0" d="M298.3,1211.5c0,0-3.1,9-11,14c-5.6,3.5-12,5.4-18.4,6.6c6,1,17.8,0.3,33.9-6.5c6.2-2.6,15.8-10.4,16.7-14
		c1-3.6,1.1-7.1,1.1-7.1C310.8,1218.8,298.3,1211.5,298.3,1211.5z"/>
	<path class="st0" d="M276.1,1212.4c6.8,0.7,12.9-4.3,13.6-11.1l14-143c0.7-6.8-4.3-12.9-11.1-13.6l0,0c-6.8-0.7-12.9,4.3-13.6,11.1
		l-14,143C264.3,1205.6,269.3,1211.7,276.1,1212.4L276.1,1212.4z M270.3,1196.9l13.8-140.7c0.3-2.8,2.7-4.8,5.5-4.5s4.8,2.7,4.5,5.5
		l-13.8,140.7c-0.3,2.8-2.7,4.8-5.5,4.5C272.1,1202.1,270.1,1199.6,270.3,1196.9z"/>
	<path class="st0" d="M256.6,1042L256.6,1042c-7-0.7-13.3,4.1-14.7,10.8l0,0c1-10,4.5-13,9.1-16c-11.3-2.5-20.5-5-28.1-7.6
		c6,3.9,11.7,12.3,10.3,26.1l-13.5,137.9c-0.9,9.4-8.3,21.1-16.4,20.3c-0.4,0-0.7-0.1-1.1-0.1c13.9,5.8,29.2,8.9,43.6,8.6
		c0,0-12.2-0.8-17.5-5.9c-6.1-5.9-5.4-13.1-4.1-22.2c0.4,10.5,2.5,12.8,8.7,16.9c0.5,0.4,1,0.7,1.5,1l0,0l0,0
		c1.6,0.9,3.3,1.4,5.2,1.6l0,0c7.5,0.7,14.2-4.7,14.9-12.3l14.2-144.2C269.6,1049.4,264.1,1042.7,256.6,1042z M246.2,1206.8
		c-1.7,1.4-3.8,2.2-6.1,2c-4.9-0.5-8.5-5.6-7.9-11.4l13.8-140.9c0.6-5.8,5-10.1,10-9.6c2.2,0.2,4.2,1.4,5.6,3.1
		c-4.4,1.1-7.9,5.5-8.5,11L240,1194.4C239.5,1199.9,242.1,1204.8,246.2,1206.8z"/>
	<path class="st0" d="M251.4,1250.1c-2.3,0-4.6-0.1-6.9-0.2c-2.3-0.1-4.6-0.3-6.9-0.4c-4.6-0.3-9.2-0.8-13.9-1.4
		c4.3,1.9,9,3.1,13.6,3.9c2.3,0.4,4.7,0.7,7,1c1.2,0.1,2.4,0.2,3.5,0.3c1.2,0.1,2.4,0.1,3.5,0.2c4.7,0.1,9.5-0.1,14.2-0.8
		c4.7-0.7,9.4-1.7,13.7-3.7c-4.7,0.7-9.3,1-13.9,1.2C260.7,1250.2,256,1250.2,251.4,1250.1z"/>
	<path class="st0" d="M237.4,1020.5c3.2,0.5,6.3,0.7,6.3,0.7l-0.1-8.9c0-4.4,0.6-8.7,1.8-12.9l2.2-7.5l-11.4-1.7
		c0,0-2.6,6.1-3.9,13.5c-1,6.1-0.8,15.3-0.8,15.3S233.3,1019.9,237.4,1020.5z"/>
	<path class="st0" d="M356.4,1051.5c-1-8.1-2.1-16.5-0.5-23.3c0.8-3.5,1.8-7.1,2.9-10.9c5-17.9,10.7-38.2-1.3-51.9
		c-9.9-11.3-31-13.9-48-15.9c-7.2-0.9-13.4-1.6-17.2-2.9c-1.7-0.6-5.1-2.2-9.1-4.2c-11.1-5.5-28.6-14-45.4-17
		c-1.3-1.2-3-2.1-4.8-2.5c-1.7-0.4-3.5-0.3-5.1,0.3c-4.6-4.8-9.2-3.9-11.1-3.2c-2.5,0.9-5,3.1-6.4,5.6l-0.2,0.4l-0.4-0.1
		c-2.2-0.3-4.4,0.4-6.3,1.9c-1.9,1.5-3.2,3.5-3.6,5.8l-0.1,0.4l-0.3,0.1c-2.1,0.6-3.8,2.1-4.8,4.3c-1.3,2.8-1.3,5.9,0.1,8.3l0.1,0.2
		l-0.1,0.3c-0.4,1.3-0.8,2.6-1.1,4c-7.3,3-11.9,7-12.5,12.1l-5.6,23c-1.5,6.2-2.7,12.5-3.7,18.8c-1.6,0.9-7.2,3.3-16.7-0.7
		c-1.1-0.5-2.3-1-3.6-1.6c-13.8-6.1-39.3-17.6-57.9,14c-1.4,2.3-2.6,4.8-3.8,7.4c-3.5-1.5-6.8-2.5-10.2-3.1
		c-3.9-0.7-7.3-0.7-10.6-0.2c-4.1,0.7-7.2,2.9-9.4,4.8c-1.9,1.6-3.4,3.5-4.9,5.3c-0.7,0.9-1.4,1.8-2.2,2.6c-1.1,1.2-2.2,2.5-3.2,3.8
		c-1.1,1.3-2.2,2.6-3.4,3.9l-1.5,1.7c-1.7,1.9-3.5,3.8-5.2,5.7c-1.4,1.5-2.9,2.9-4.4,4.3c-1.1,1.1-2.3,2.2-3.4,3.3
		c-2.5,2.5-4.9,5.1-7,7.4c-2.3,2.4-4.7,4.5-7,6.3c-3,2.4-5.7,4-8.5,5.1c-2.5,1-5.6,1.1-8.5,1.2h-1.3c-1.2,0-2.4,0.1-3.6,0.2
		c-2.6,0.2-5.1,0.3-7.6,0.2c-2.6-0.1-5.3-0.2-7.9-0.2c-5.4-0.1-10.9-0.7-16.2-1.2l-1.5-0.2c-13.1-1.4-25.6-3.5-36.1-5.5
		c-2-0.4-3.9-0.7-5.9-1.1c-4.3-0.8-8.8-1.7-13.2-2.4c0,0,0,0-0.1,0c-0.3-0.3-0.7-0.5-1-0.6c-2-0.8-4.2,0.2-5,2.1l0,0
		c-7.3,18.1-8,81.5-5.6,107.7c0.5,5.2,1,8.7,1.7,10.5c0.1,0.4,0.3,0.7,0.6,1c0.7,0.8,1.6,1.2,2.6,1.3c0.5,0.1,1.1,0,1.6-0.2
		c0.3-0.1,0.5-0.2,0.8-0.4c1.2-0.1,2.5-0.2,3.7-0.4c0.7-0.1,1.4-0.2,2.1-0.2c1.2-0.1,2.3-0.2,3.5-0.3c3-0.3,6.1-0.6,9.2-0.8l3.1-0.2
		c4.1-0.2,8.4-0.5,12.6-0.9c2.5-0.2,5.1-0.6,7.5-0.9c3.3-0.4,6.7-0.9,10-1.1c3.2-0.2,6.4-0.6,9.5-1c1.9-0.2,3.8-0.5,5.8-0.6
		c14.9-1.5,27-2.4,38-2.8c3-0.1,6.2-0.1,9.4,0.2c1.3,0.1,2.7,0.2,4,0.2c2.7,0.1,5.2,0.2,7.7,0.6c2.5,0.3,5,0.9,7.6,1.6
		c1,0.2,1.9,0.5,2.9,0.7c2.1,0.5,4.3,0.9,6.5,1.4c1.5,0.3,3,0.6,4.4,1c2.1,0.5,4.2,1,6.3,1.6c1.5,0.4,3.1,0.8,4.6,1.2
		c3.8,0.9,7.6,1.5,10.4,1.9c4,0.5,7.9,0.4,11.7-0.3l2.6-0.5c2.5-0.5,5.1-1,7.7-1.3l2-0.3c1.4-0.2,2.8-0.4,4.1-0.6
		c0.4-0.1,0.9-0.2,1.4-0.3c0.7-0.2,1.5-0.4,2-0.3l0,0c1.1,0.1,2.3,0.6,3.5,1c2.1,0.8,4.4,1.7,7.1,1.3c0.9-0.1,1.7-0.4,2.5-0.7
		c11,7.8,22.6,12.1,32.3,13.8c0.6,0.8,1.2,1.5,2,2.1c1.7,1.4,4,2.4,6.5,2.6c0.7,1.3,1.5,2.6,2.3,3.8c-2.5,27.4,27,48.2,75.3,53
		c48.3,4.7,81.3-10,84.1-37.3c5.7-5.6,9-12,9.7-18.6l11.6-117.9c1.5,0,3.1-0.3,4.6-0.8C360.2,1081.9,358.2,1065.7,356.4,1051.5z
		 M129.3,1164.6c-0.6,0.2-1.3,0.2-2,0.2c-3.2-0.2-8.7-2-10.9-2.6c-1.7-0.5-3.6-1-5.3-1.2c-0.9-0.1-1.9,0-2.8,0
		c-0.8,0.1-2,0.3-2.7,0.2c-0.3,0-0.7-0.1-1-0.2c-0.1,0-0.2,0-0.3-0.1c-0.2,0-0.5-0.1-0.7-0.2c-0.1,0-0.3-0.1-0.4-0.1
		c-0.2-0.1-0.5-0.1-0.7-0.2c-0.1,0-0.3-0.1-0.4-0.1s-0.3-0.1-0.4-0.1c-0.2-0.1-0.4-0.1-0.5-0.2c0.1,0,0.1,0.1,0.2,0.1h-0.1
		c-0.8-0.3-1.5-0.6-2-1.1c0.1,0.1,0.2,0.1,0.3,0.2c-0.5-0.3-0.9-0.7-1.3-1.2c-0.2-0.2-0.4-0.4-0.5-0.6l0,0c-0.3-0.4-0.7-0.8-1-1.2
		c-2.3-2.8-4.7-5.7-6.1-9.1c-0.6-1.3-0.4-3.1-0.3-4.5c0.2-2.6,1.1-5.1,2.2-7.5c0.5-1,0.9-2.2,1.8-2.9c0.8-0.6,2-1,3-1.1
		c2.3,0,4.6,0.5,6.8,0.8c1.6,0.2,3.2,0.3,4.7,0.7c1.5,0.3,2.9,1,4.4,1.4s3.1,0.6,4.7,0.7c0.3,0,4.2,0.4,4.2,0.4
		c-0.4,0.6-2.9,0.3-3.5,0.4c-1.6,0-3.3,0.1-4.9-0.1c-2-0.2-3.9-1-5.9-1.4c-1.7-0.4-3.5-0.7-5.3-1c-1.5-0.2-4.3-0.9-5.7-0.1
		c-1.2,0.7-2.1,2-2.7,3.3c-2,3.7-2.6,7.2-1.5,11.2c0.6,2.3,2.1,4.5,3.6,6.3c0.3,0.4,3,3,3.1,2.8s-1.2-2.7-1.4-3.1
		c-0.3-0.7-0.5-1.5-0.6-2.2c-0.3-1.4-0.3-2.8-0.5-4.3c-0.1-1.1,0-2.2,0.1-3.3c0.2-1.4,0.5-2.7,1.1-4c0.1-0.2,0.9-2.3,0.9-2.3
		c0.3-0.1-0.2,1.3-0.2,1.4c-0.2,0.7-0.4,1.4-0.6,2.1c-0.2,0.9-0.5,1.9-0.5,2.9c0,1.5,0.2,3.2,0.6,4.6c1.8-1.2,3.6-2.2,5.6-2.9
		c1.3-0.4,2.9,0.1,4.3,0.3c2.1,0.2,4.4-0.2,6.3,0.7c0.9,0.5,1.9,1,2.8,1.6c0.4,0.3,0.8,0.6,1.1,1c0.4,0.4,0.7,0.5,1,0.6
		c0.2,0.1,0.7,1.1,0.9,1.4c0.4,0.6,0.5,1.2,0.7,1.8c0.4,1.3,0.9,2.7,1.6,3.9c0.6,1.1,1.4,2.2,2.3,3.1c0.2,0.2,1.9,2.2,2.4,1.9
		c-0.2,0.2-2.7-4.7-2.9-5.4c-0.4-1.4-0.4-2.3-0.4-3.7c0.1-2.4,0-4.3,0.8-6.5c0.6-1.8,1.2-2.1,2.9-2.7c1.4-0.6,2.7-1.3,4.2-0.8
		c0.7,0.2,1.7,0.4,2.1,1.1c0.3,0.5,0.2,1.6,0.3,2.1c0.2,1.7,0.4,3.5,0.1,5.2c-0.1,0.9-0.5,1.8-0.8,2.6c-0.1,0.2-1.5,2.5-1.6,2.4
		c0.2,0.3,2.7-3,2.9-3.2c0.7-1.2,0.9-2.4,1.1-3.7c0.3-1.9,0.4-3.9,0.5-5.8c0-1,0.1-2-0.1-3c-0.1-0.4-0.3-2-0.6-2.2
		c1.7,0.8,1,3.6,2.2,4.5c0.7,0.6,1.7,1,2.1,2c0.2,0.6,0.1,1.3,0.2,1.9c0.1,1.7,0.4,3.6,0.2,5.3c-0.1,0.8-0.4,1.5-0.7,2.3
		c-0.1,0.2-0.5,1.8-0.7,1.8c0.4,0,1.2-1.9,1.3-2.2c0.5-1,0.8-2,1-3.2c0.4-2.1,0.9-4.1,1-6.2c0.1-2.4-0.5-4.6-2.4-6.1
		c-1.1-0.9-2.4-1.4-3.7-1.9c-0.7-0.3-3-1.1-3.7-0.5c0,0.1,0.1,0.1,0.2,0.1c0,0-4.2,0.1-4.4,0.4c0.2-0.6,2-1,2.5-1.1
		c0.8-0.2,1.8-0.5,2.6-0.5c1.8,0,3.7,1,5.4,1.5c1.6,0.5,2.5,0.9,3.7,2.1c0.8,0.9,1.1,1.4,1.4,2.6c0.8,3.7,1.1,7.6,1.2,11.3
		c0,1.4-0.3,2.1-1.1,3.4c-1.1,1.8-2.3,3.9-3.9,5.2c-1.6,1.3-3.7,2.1-5.6,2.6c-1,0.3-2,0.6-3,0.9c-0.3,0.1-1.1,0.2-1.7,0.3
		C129.4,1164.6,129.4,1164.6,129.3,1164.6z M92.7,1101.8c2.7,0.2,5.1,0.4,7.8,0.2c1.2-0.1,2.4-0.2,3.5-0.4c0.7-0.1,0.6-0.2,1.1,0.3
		c0.4,0.4,0.7,0.9,1,1.3c-3.6,0.2-7.1,0-10.7,0.1c-1.6,0-3.7-0.1-5,0.8s-2.4,2-3.3,3.3c-1.3,1.7-1.7,4.2-1.9,6.3
		c-0.2,2.3-0.2,4.4,0.7,6.5c0.7,1.7,2.1,4.4,4.1,4.8c1.7,0.3,0.7-2.4,0.6-3.3c-0.3-2.1-0.6-4.1-0.6-6.2c0-1.2,0.2-2.4,0.5-3.6
		c0.2-0.9,0.4-2.4,1.1-3.2c0,0-0.2,0.5-0.1,0.6c0.1,1.2-0.7,3.2-0.7,4.8c0.1,1.8,0.1,3.8,0.6,5.5c1.7-2.1,3.8-3.8,6.4-4.6
		c0.8-0.3,1.8-0.6,2.7-0.6c1.3,0,2.7,0.3,4,0.4c3.9,0.2,7.9-0.2,11.9,0.2c1.3,0.2,2.4,0.4,3.7,0.9c1.1,0.5,2.4,0.7,3.1,1.7
		c0.8,1.2,1.5,2.5,2.2,3.8c0.5,0.9,1,1.7,1.5,2.6c0.3,0.5,1,2.4,1.8,2.4c0.1,0,0-0.7-0.1-1c-0.3-1.3-0.5-3.8-0.5-4.1
		c-0.1-2.1,0.1-4.2,0.5-6.3c0.4-1.9,0.6-3.9,1.2-5.7c0.1-0.5,1.3-3.4,1.3-3.4c0.3,0,0,1.5-0.1,1.6c-0.3,1-0.3,2-0.3,3
		c0,1.8,0.2,3.7,0.3,5.5c0.1,1.6,0.4,3.1,0.5,4.7c0,0.4,0.3,4.1,1.5,5.2v-0.5c0.1,0,0.1,0.1,0.2,0.1c0.1-0.3-0.3-1.5-0.4-1.9
		c-0.1-0.9-0.2-1.8-0.2-2.6c0-2.2,0.7-4.2,1-6.3c0.2-1.8,0.3-3.6,0.8-5.5c0.1-0.5,1.1-4.6,1.3-4.6c0.3,0,0,2.8,0,3
		c-0.1,0.6-0.5,2.2,0,2.5c0.4,0.2,1.3-0.3,1.8-0.3c0.4,0,0.6,0,1,0.2c1.3,0.5,2.6,1.4,3.9,1.8c0.5,0.2,0.7,0,1.1,0.4
		c0.6,0.6,0.8,1.6,1,2.3c0.4,1.5,0.2,3.1-0.1,4.7s-0.9,3.1-1.6,4.6c-0.2,0.5-1.2,3.8-1.9,4.3c0.9-0.4,2.3-3.5,2.8-4.2
		c0.8-1.3,1.5-2.7,2-4.2c1.3-3.3,1.1-7,0.2-10.4c-0.4-1.4-1.2-2.2-2.2-3.2c-1.3-1.4-2.7-3-4.5-3.9c-1.4-0.7-3.4-0.7-4.9-0.8
		c-1.4-0.1-2.8-0.1-4.2,0c0.4-0.9,0.1-1.5,1.1-1.6c1.2-0.2,2.4,0,3.6,0.1c1.1,0.1,2.2,0.3,3.2,0.6c0.4,0.1,0.8,0.2,1.2,0.3
		c1,0.3,1.6,0.7,1.6,0.7s4.4,3,4.8,3.3c1.4,1.1,2,2.2,2.6,3.8c1.4,3.5,2,7.4,1.6,11.1c-0.5,3.7-1.9,7.3-2.8,10.9
		c-0.4,1.6-0.7,3.6-2.2,4.5c-1.2,0.6-2.2,1-3.3,0.4c-1.5-0.9-3-1.8-4.7-2.4c-1.5-0.6-3.3-0.6-4.9-0.7c-3.4-0.1-6.8-0.1-10.2,0.1
		c-1.6,0.1-3.1,0.2-4.7-0.1c-2.1-0.4-4-1.1-6.1-1.7c-3.7-1.1-7.8-1.2-11.6-1.8c-3.9-0.6-8.3-0.6-11.7-3c-3-2.1-5-6.3-4.8-10
		c0.1-3,1-6.5,2.6-9.1C86.8,1104.2,89.8,1101.5,92.7,1101.8z M91.6,1092.9c-0.1,0.1,0.9,2,1,2.1c0.3,0.6,0.6,1.2,1,1.7
		c1,1.1,2.4,1,3.8,1.1c1.3,0,2.7-0.1,4-0.2c1.1-0.1,1.1,0.1,1.6,1.1c-2.6,0.2-5.4,0.8-8,0.4c-1.8-0.3-2.4-1-2.8-2.6
		C92,1095.4,91.5,1094,91.6,1092.9z M121.3,1084.3c0.9,0.4,1.9,0.7,2.9,0.7c0.6,0,1.2-0.1,1.8-0.3c0.3-0.1,0.8-0.6,1.2-0.7
		c0.1,0,1.8,9.9,1.9,10.8c0.1,1.6,0.3,3.5-0.1,5c-0.4,1.4-2.2,2.3-3.6,2.6c-3.4,0.7-6.5,0-9-2.4c-1.4-1.3-2.5-2.7-2.8-4.7
		c-0.2-1.4-0.2-2.9-0.2-4.3c0.1-2.4,0.6-4.7,1.4-6.9c0.3-0.8,0.6-1.6,1.2-2.3c0.5-0.6,0.4-0.6,1-0.4c0.7,0.3,1.3,1,1.9,1.4
		C119.6,1083.5,120.4,1083.9,121.3,1084.3z M120.1,1079.5c0.1-0.4,0.7-1.6,1.1-1.8c0.5-0.3,1.9-0.1,2.4,0c2.5,0.2,3.1,2.1,3.2,4.4
		c0,0.6,0,0.7-0.6,1c-0.9,0.5-2,0.3-2.9,0C121.8,1082.8,119.6,1081.3,120.1,1079.5z M124.2,1036c1.9-0.9,3.8-2,5.8-2.7
		c1-0.4,8.7-1.6,8.7-1.4c-0.1-0.6-2.1-1-2.5-1.1c-1.3-0.5-2.7-1-4.1-1.3c-2.2-0.6-4.7-1.2-7-0.9c1-0.7,2-1.3,3-1.8
		c1.2,0.3,2.3,0.6,3.5,0.9c1.8,0.4,3.7,0.9,5.4,1.5c4.1,1.4,7.3,4,10.6,6.8c1.8,1.6,3,2.9,4.3,5c1.1,1.8,2,3.8,2.7,5.8
		c1.5,4.7,2.1,10.1-1,14.2c-1.2,1.5-3.5,3.4-5.4,3.9c-1,0.2-2.3,0.1-3.3,0.2c-0.6,0-1.1,0-1.7-0.1c-0.3-0.1-2.4-0.4-2.5-0.7
		c-0.1-0.5,3.5-0.3,4-0.4c1.6-0.1,3.3-0.3,4.7-1.2c2.1-1.4,5-4.1,5.1-6.9c0.1-1.5-0.2-3.2-0.4-4.6c-0.2-1.6-0.5-3.2-1.2-4.7
		c-0.9-1.9-2.3-3.5-3.7-5c-0.8-0.9-1.7-1.7-2.7-2.5c-0.6-0.5-1.5-1.6-2.2-1.9c-0.1,0,0.1,0.6,0,0.6c0.1,0.2,0.4,0.6,0.6,0.7
		c0.6,0.8,1.3,1.6,1.9,2.5c2,2.9,3.9,6.1,4.7,9.7c0.2,1,0.6,2.5,0.3,3.5c-0.4,1.4-2.7,2.2-4,2.4c-0.6,0.1-1.7,0-2.3,0.2
		c-0.4,0.2-0.3,0.3-0.5,0.8c-0.2,0.6-0.3,1.3-0.5,1.9c-0.1,0.3-0.5,1.2-0.5,1.5c0-0.2,0.3-1.1,0.1-1.2l-0.3,1.1c-0.1,0,0-0.3,0-0.3
		c-0.2-0.7,0.2-2.4,0.2-3.5c0-2.2-0.4-4.4-1.1-6.5c-0.6-1.8-1.2-3.6-1.7-5.3c-0.3-1-0.6-2-1-2.9c-0.1-0.3-0.3-1.4-0.6-1.6
		c-0.7-0.5-0.1,2.1-0.1,2.4c0.3,1.4,0.6,2.7,1,4.1c0.7,2.5,0.8,5.4,0.3,8c-0.4-0.1-0.7-0.2-1.1-0.3c-0.1,0-1.1-0.7-1.2-0.7
		c-0.1,0-1,3.5-0.9,3.7c-0.1-0.6,0.2-1.6,0.2-2.2c0-1.2,0-2.4-0.1-3.6c-0.2-2.9-0.5-5.7-1.2-8.6c-0.5-2-0.3-3.1,0.9-4.9
		c0.6-0.9,1.3-1.9,2.1-2.6c0.4-0.3,0.8-0.5,1.2-0.7c0.2-0.1,0.4-0.1,0.6-0.3l0.2-0.6c-0.4,0-4,0-4.6,0.2c0.1-0.1,0.1-0.1,0.1-0.1
		c-0.8-0.4-2.3,0.4-3.2,0.6c-1.8,0.4-3.6,0.5-5.4,0.9c-1.4,0.3-2.8,0.7-4.2,1c-0.3,0.1-2.6,0.8-2.8,0.5
		C121.3,1037.4,124,1036,124.2,1036z M140.1,1095.1c-0.7-1.1-1.2-2.2-1.6-3.4c-0.6-2-0.9-4.1-1.2-6.2c-0.3-1.9-0.8-4.5-0.1-6.4
		c0.2-0.6,0.6-1.6,1.1-2c0.2-0.1,0.6-0.1,0.8-0.2c0.4-0.2,0.7-0.9,1.2-1.1c2.6-1,3.3,4,3.8,5.3c0.6,2,0.4,4.4,0.4,6.4
		c0,1.3,0.1,2.7,0.2,4c0,0.4,0,0.8-0.1,1.1c0,0.1-0.4,0.5-0.4,0.5c0,0.4,0.8-0.9,0.9-1c0.3-0.8,0.6-1.6,0.9-2.4
		c0.5-1.4,0.6-2.9,0.6-4.4c0-1.4,0.3-2.6,0.5-3.9c0.2-0.8-0.3-1.4,0.1-2.2c0.4-0.8,1.1-2.3,2.1-1.6c1.1,0.7,2.2,2.5,2.7,3.6
		c0.4,0.7,0.9,1.5,1.1,2.3c0.3,1.1,0.3,2.6,0.5,3.7c0.2,1.4,0.5,3,0.4,4.5c-0.1,0.7-0.3,1.4-0.6,2c-0.2,0.5-0.4,1-0.7,1.5
		c-0.2,0.3-0.8,1-0.8,1.4c0-0.1,1.2-1.4,1.3-1.5c0.3-0.5,1-2,1.5-2.2l0.1,0.6c0.3-0.6,0.5-1.8,0.6-2.5c0.2-1,0.3-2,0.4-3
		c0.1-1.8,0.3-3.4,0.2-5.2c-0.2-1.7-0.5-3-1.3-4.6c-1-2.1-1.5-4.3-3.3-5.9c-2.5-2.3-5.7-3.8-9.1-4.3c-1.8-0.3-3.6-0.3-5.4-0.4
		c-0.7-0.1-1.3-0.1-2.1-0.1c-0.4,0-2.3,0.6-2.5,0.4c-0.1-0.1,0.2-1.3,0.3-1.4c0.3-0.3,1.1-0.3,1.5-0.4c1.2-0.2,2.4-0.5,3.6-0.5
		c2.5,0,4.9,0.9,7.4,1.2c1,0.1,1.9-0.1,2.7,0.3c1.1,0.5,2.1,1.4,3.1,2.2c1.7,1.4,3.1,2.9,4,4.9c1.3,2.6,2.4,5.3,3.2,8.1
		c0.8,2.9,0.4,6.1,0,9c-0.3,2.7-2,5.8-3.6,7.9c-0.8,1.1-2,2.2-3,3.1c-0.9,0.8-2.3,2.2-3.5,1.5c-2.7-1.6-4.6-4.3-7.7-5.3
		c-1.7-0.6-3.5-0.9-5.3-1.1c-1.4-0.2-2.9-0.8-4.3-0.3c0-0.5-0.1-1,0-1.5c0.2-0.3,2.3,0.1,2.6,0.2c1.2,0.1,2.3,0.2,3.5,0.3
		c0.8,0.1,1.5,0.3,2.3,0.3c0.4,0,2,0.4,2.1,0C141.3,1096.6,140.3,1095.4,140.1,1095.1z M149.7,1151.6c0-3.5-1-7.2-1.8-10.4l-0.3-1.2
		c-0.1-0.4-0.2-0.7-0.3-1.1c0.5-0.3,1-0.8,1.5-1.5c0.4-0.6,0.8-1.3,1-1.9l0.1-0.3c1.1-2.4,2-4.7,2.6-7.3l0.1-0.3
		c0.6-2.5,1.2-5.1,1.5-7.7c0.2-2.9,0-5.6-0.7-8.8c-0.1-0.3-0.1-0.6-0.2-0.8c-0.1-0.6-0.3-1.2-0.4-1.8c0-0.1-0.1-0.3-0.1-0.4
		c0.2-0.1,0.4-0.2,0.5-0.3c1.1-0.6,2-1.5,2.7-2.2c2.1-2.1,4.1-5.1,5.2-7.9c2.4-6.2,2.7-13.1,0.7-18.7c-1-2.8-2.3-6.3-4.6-9.4
		c-0.9-1.2-1.9-2.2-2.9-3.2l0,0c2-1.7,4.3-4.1,5.2-7.1c1.1-3.6,0.4-7.4-0.3-10.8l-0.1-0.5c-0.4-2.3-1.2-4.5-2.4-6.7
		c3.4,4.1,6.7,8.9,10.1,14.5L157,1158c-2.5,3-6.1,5.9-10.4,6c-0.4,0-1.2-0.1-2.1-0.4c0.5-0.6,1.1-1.1,1.6-1.7c1-1.2,1.5-2.5,2-3.6
		c0.2-0.4,0.3-0.8,0.5-1.3C149.3,1155.1,149.7,1153.5,149.7,1151.6z M98.2,1019.2c16.4-27.8,37.7-18.3,51.7-12
		c1.3,0.6,2.6,1.2,3.8,1.6c4.9,2.1,9.1,2.7,12.4,2.5c-1,3-0.8,6.5,0.1,9.2c0.3-1.4,2-3.7,4.8-6.2l-1.6,15.5c-3.4,0-3.5,2.5-3.6,9.1
		c-1.8-2.8-3.8-6.1-2.2-11.3c0,0-6-0.7-9.7-1.1c-4-3-12.4-7.1-20.9-5.7c-1.2,0-2.4,0.1-3.6,0.4c-5.7,1.2-10.7,5.3-14.8,11.9l0,0
		l-4.4-1.8c1.1-1.9,1.8-3,3.2-4.7c2.9-3.5,6.3-6.6,10.5-8.3c1-0.5,2.1-0.8,3.2-1.1l1.6-0.4c0.5-0.1,1.1-0.1,1.7-0.2
		c2.3-0.3,4.6-0.3,6.9,0c4.7,0.5,9.3,1.9,13.9,3.6c-4-2.8-8.5-5-13.4-6.2c-4.9-1.1-10.3-1.1-15.2,0.8c-5,1.8-9.1,5.3-12.2,9.3
		c-1.4,1.9-2.7,3.8-3.8,5.8c-4.3-1.7-8.8-3.5-11.5-4.7C96.1,1023,97.1,1021,98.2,1019.2z M-94.1,1070.8c0.8,0.2,1.8,0.2,2.4,0.3
		c2.7,0.5,5.5,1.1,8.2,1.6c4,0.7,7.9,1.5,11.9,2.3c3.7,0.8,7.4,1.1,11.1,1.7c7.6,1.2,15.2,2.2,22.9,3.1c6.2,0.7,12.4,1.6,18.6,1.6
		c3.2,0,6.4,0.3,9.7,0.3c3.7,0,7.5-0.2,11.2-0.4c3.6-0.2,7.3-0.5,10.7-1.9c1.7-0.7,3.3-1.8,4.8-2.9c0.2-0.1,3-2.3,2.9-2.4
		c0.3,0.2-2.7,3.3-2.9,3.6c-1.4,1.4-3,2.2-4.6,3.2c-3.3,2-7.3,2.8-11.2,3.3c-4.2,0.5-8.4,0.3-12.6,0.1c-3.7-0.1-7.4-0.3-11.1-0.6
		c-5.1-0.4-10.2-1-15.2-1.7c-3.7-0.5-7.4-0.7-11-1.4c-2.9-0.5-7.8-1.2-10.7-1.5c-5-0.4-9.9-1.7-14.8-2.5c-4-0.7-8.1-1.3-12.1-1.9
		c-2.9-0.4-6.1-0.5-9-1.2C-94.7,1072.6-94.4,1071.7-94.1,1070.8z M109.3,1180.9c-1.9-0.3-3.8-0.6-5.6-1.1c-1.6-0.5-3.3-1-5-1.2
		c-0.9-0.1-11.6-0.3-11.6-0.3s8.9,2.3,8.8,2.4c-0.3,0.3-1.3,0.3-1.6,0.4c-1,0.2-1.9,0.4-2.9,0.5c-1.8,0.3-3.7,0.6-5.5,1
		c-2.1,0.4-4.3,0.9-6.5,1c-1.7,0.1-3.4-0.2-5.1-0.5c-3.7-0.5-7.5-0.8-11.1-1.7c-1.8-0.4-3.5-1.1-5.2-1.6c-2-0.6-4.1-1-6.2-1.5
		c-4.3-1.2-8.7-1.7-13.1-2.6c-3.4-0.7-6.9-1.4-10.3-1.8c-3.6-0.4-7.2-0.6-10.8-0.9c-3.4-0.3-6.7-0.5-10.1-0.3
		c-14.8,0.7-29.5,2.4-44.2,3.8c-12.4,1.2-24.8,1.8-37.2,3c-4.1,0.4-8.2,1-12.4,1c-1.7,0-3.4-0.1-5.1,0c-1.3,0.2-2.6,0.4-3.9,0.6
		c-0.5,0.1-1.8,0.1-2.9,0.3c-2.3-12.7-3-58.6,0.1-88.8c0.6,0.2,1.3,0.2,1.7,0.3c2,0.5,3.9,1.1,6,1.5c4.4,0.7,8.7,1.3,13.1,1.9
		c4.6,0.6,9.2,1.1,13.7,1.9c2.6,0.5,5.3,0.7,8,0.9c3.3,0.2,6.6,0.7,9.9,1.1c2.9,0.4,5.8,0.5,8.8,0.5c1.6,0,3.3,0,4.9,0
		c0.4,0,1.8,0.2,2.1-0.1c-0.1,0.1-2.7-0.6-2.9-0.6c-1.8-0.4-3.5-0.9-5.3-1.3c-4.1-1.1-8.3-2.1-12.4-3c-2.7-0.6-5.3-1.2-8-1.9
		c-1.5-0.4-3-0.8-4.6-1.3c-0.2,0-2.8-1-2.8-0.9c0.3-0.3,3.3,0.6,3.7,0.7c1.4,0.3,2.8,0.6,4.2,0.8c3.9,0.5,7.8,0.8,11.6,1.2
		c6.4,0.7,12.7,2.5,19.1,2.8c2.8,0.1,5.6,0.1,8.3,0c3.5-0.1,7.2-0.5,10.7-0.1c1.1,0.1,2.2,0.3,3.2,0.5c0.7,0.1,1.3,0.4,1.9,0.8
		c3,2.2,5.7,4.4,7.8,7.4c2.7,3.9,4.7,8.4,5.9,13c0.5,2.1,0.8,4.2,1.1,6.3c0.1,0.8,0.3,1.7,0.4,2.5c0.1,0.3,0.1,1.3,0.3,1.5
		c0.2,0.1,0-0.7,0-0.7c0-0.7,0-1.3,0.1-2c0.1-1.5,0.4-3,0.6-4.4c0.2-2.3,0-4.5-0.2-6.8c-0.1-1.7-0.9-3.2-1.2-4.9
		c-0.3-1.2-0.5-2.4-0.7-3.6c-0.1-0.3-0.5-1.9-0.3-2.2c-0.1,0.1,0.8,2,0.9,2.1c0.4,0.9,0.7,1.8,1.1,2.7c0.9,2.1,2,4.1,2.9,6.1
		c1.5,3.4,2.7,7,3.4,10.6c0.6,3.3,0.3,6.5,0.6,9.8c0.1,1.5,0.5,3,0.3,4.5c-0.2,2.1-0.5,4.2-0.3,6.3c0.3,2.4,1,4.7,1.8,7
		c0.2,0.7,0.5,1.3,0.8,2c0.1,0.2,0.5,2.3,0.6,2.3c0.4-0.2,0.3-1.8,0.2-2.2c0-1.1-0.2-2.1-0.4-3.2c-0.4-2.2-0.3-4.2-0.2-6.4
		c0.3-4.6,1.1-9.1,1.5-13.7c0.2-2.4,0.5-4.5-0.3-6.8c-0.8-2.2-1.4-4.4-2.3-6.5c-1.4-3.3-3-6.6-3.7-10.1c-0.5-2.3-1.1-4.7-1.4-7
		c-0.2-1.3-0.4-2.6-0.3-3.9c0-0.5,0.3-2.4,1-2.5c-0.4,0,1.2,7.9,1.4,8.6c0.8,3.1,1.5,6.1,2.7,9.1c1.5,4,3.6,7.8,4.4,12
		c0.9,4.2-0.3,8.4-0.4,12.7c-0.1,4.2-0.1,8.4-0.1,12.6c0,1.5,0.1,2.9,0.5,4.3c0.5,1.9,1.1,3.7,1.7,5.6c0.5,1.5,0.8,3,1.3,4.5
		c0.3,0.7,0.7,1.4,1,2.1c0.1,0.2,0.4,1.5,0.5,1.5c0.7,0.2,0.6-2.1,0.6-2.2c0.1-1.2,0.2-2.5,0.5-3.6s0.7-2.4,1.4-3.3
		c0.2-0.3,1-1.3,1.4-1.3c0.6-0.1,1.7,0.4,2.3,0.5c1.2,0.1,2.4,0,3.5-0.2c0.5-0.1,4.4-1.3,4-1.7c0,0-2.2,0.7-2.4,0.7
		c-0.7,0.1-1.3,0.1-2,0c-1.3-0.2-2.5-0.9-3.6-1.5c-0.7-0.4-1.4-0.7-2-1.1c-0.5-0.4-1.9-2.3-2.4-2.2c0.1,0.1,0.1,0.2,0,0.2
		c-0.1-0.1-1.5-1.8-1.5-1.8c0.1-0.2,4.4,2.7,4.8,3c2.1,1.3,4.1,1.3,6.5,0.7c2.5-0.6,4.9-2.1,7.1-3.5c1.1-0.8,2.2-1.6,3.3-2.4
		c0.4-0.3,1.9-1.7,2.1-1.7c-0.3,0-0.8,0.5-1,0.6c-0.5,0.3-1,0.5-1.4,0.8c-1.2,0.6-2.4,1.2-3.6,1.7c-1.6,0.8-2.9,1.2-4.6,1.4
		c-2.5,0.3-4.9,0.1-7.1-1.4c-1-0.7-1.9-1.7-2.7-2.7c-0.2-0.2-1.7-2-1.5-2.3c-0.1,0.2,2.5,2.4,2.8,2.6c0.8,0.6,1.7,1.1,2.7,1.4
		c0.3-1.2,0.1-2.4,0.1-3.6c0-1.5,0.4-3,0.9-4.5c0.3-1,1-1.8,1.7-2.5c0.2-0.2,2.3-2.4,2.3-2.4c-1.4-0.8-2.9-1.3-4.3-2.3
		C37,1133,36,1132,35,1131c-0.9-0.9-1.8-1.9-2.6-2.9c-0.3-0.3-1-1.5-1.3-1.6c0.7,0.4,1.4,1.4,2,1.9c0.8,0.7,1.7,1.4,2.6,2.1
		c2,1.4,4.1,2.4,6.4,3.2c1.6,0.7,3.3,1,5,1c1.3,0,2.5-0.3,3.7-0.5c0.3-0.1,3.1-1,3.2-0.9c-0.7-0.5-2.6-0.3-3.4-0.4
		c-1.4-0.1-2.7-0.3-3.9-1.1c-1.4-0.8-2.6-1.9-3.5-3.3c-0.7-1-1.5-2.7-1.1-3.9c0.1-0.2,4.3,0.6,4.8,0.6c0.1,0,1.1-0.4,1.1-0.3
		c-0.1-0.1-2.5-0.8-2.7-0.9c-1.5-0.7-2.8-1.5-4-2.6c-1.4-1.2-2.7-2.6-3.9-4c-0.1-0.2-2.2-3.2-1.9-3.3c0.3,0,1.5,1.3,1.7,1.5
		c0.7,0.6,1.4,1.2,2.1,1.7c1.3,1,2.8,1.8,4.2,2.6c1.9,1,4.1,1.6,6.2,1.9c1.1,0.2,2.2,0.2,3.3,0.2c0.6,0,2.4,0.2,2.8-0.2
		c0,0-1.9-0.5-2.1-0.5c-1-0.3-2.1-0.6-3.1-1c-1.5-0.6-2.9-1.5-4.2-2.4c-2.6-1.8-5.4-3.8-6.4-7c-0.9-2.8-1.1-5.6-0.4-8.5
		c0.7-3.1,1.6-6.3,3.3-9c-0.1,0.2,9.2,5.8,10.1,6.3c2.2,1,4.5,1.7,6.9,2.2c1.1,0.2,2.2,0.4,3.3,0.5c0.3,0,1.6,0.4,1.8,0.1
		c0,0.1-2-0.5-2.1-0.6c-0.7-0.2-1.6-0.9-2-1.1c-2.1-1.1-4.3-1.6-6.3-3c-2.3-1.7-4.6-3.8-6.6-5.9c-2-2-4-4.5-4.9-7.2
		c-0.7-2-1.1-4.3-1.4-6.4c1,3.6,3,7.4,5.9,9.8c1.2,1,2.5,1.9,3.8,2.8c0.8,0.6,2.3,1.4,3.2,1.9c0.4,0.2,0.8,0.4,1.2,0.4
		c-0.3,0-1.4-1.3-1.6-1.5c-0.7-0.6-1.3-1.2-1.9-1.9c-1.2-1.2-2.2-2.5-3.2-3.8c-1.5-1.9-1.6-5.1-0.7-7.3c0.6-1.5,1.5-2.8,2.3-4.2
		c0.4-0.6,0.7-1.2,1.1-1.7c0.3-0.5,1.1-1.1,1.3-1.7c0.1-0.6-0.8-2-1-2.6c-0.6-1.5-1-3-1.5-4.6c0.9,0.6,1.4,1.9,1.9,2.7
		c0.5,0.7,1.1,1.4,1.7,2c1.4,1.5,3,2.7,4.7,3.8c2,1.3,4,2.7,6.1,3.7c0.7,0.3,1.4,0.5,2.1,0.8c0.4,0.2,0.9,0.3,1.3,0.4
		c0.2,0.1,1,0.1,1.1,0.2c-0.3-0.3-1-0.5-1.4-0.8c-0.6-0.4-1.1-0.8-1.7-1.2c-1.3-0.9-2.6-1.7-3.8-2.8c-1.3-1.1-2.4-2.2-3.5-3.5
		c-1-1.1-1.5-1.6-0.6-2.9c0.4-0.5,0.7-1.1,1.1-1.6c0.3-0.4,0.9-0.7,1.1-1.1c0.3-0.6-0.7-1.9-1.1-2.6c-0.4-0.8-0.8-1.7-1.1-2.6
		c-0.1-0.4-0.9-1.3-0.9-1.6c0-0.3,0.6,0.5,0.6,0.4c0.4,0.5,0.7,1,1,1.5c0.5,0.7,1,1.5,1.6,2.2c1.3,1.6,2.9,3,4.5,4.3
		c1.6,1.3,3.4,2.5,5.3,3.5c0.8,0.4,1.6,0.7,2.4,1c0,0,1.8,0.6,1.4,0.1c0,0.1-0.6-0.1-0.6-0.1c-0.6-0.3-1.2-0.8-1.7-1.3
		c-1.1-1-2.2-2-3.3-3c-1.6-1.4-3.4-2.8-4.2-4.8c-0.4-1-0.8-2.5-0.8-3.7c0-1,0.6-2,0.3-2.9c-0.5-1.8-2.1-3.4-3.2-5
		c1.9,1.4,4,2.5,6.1,3.6c1.4,0.8,2.8,1.5,4.3,2.2c0.5,0.2,2.3,1.5,2.9,1.3c-0.2,0.1-2.8-2.5-3-2.7c-1.1-1-3-2.1-2.5-3.8
		c0.1-0.4,0.6-0.9,0.7-1.3c0.1-0.5-0.3-0.9-0.5-1.4c-0.3-0.8-0.5-1.8-0.6-2.7c-0.1-0.4-0.5-2.5-0.2-2.8c-0.1,0.1,0.5,2,0.5,2.1
		c0.3,1,0.8,2,1.3,2.9c0.7,1.2,1.3,2.3,2.2,3.3c1.3,1.5,2.9,2.8,4.2,4.3c0.3,0.4,2.5,3.8,2.8,3.8c-0.1,0-1.3-3.1-1.5-3.3
		c-0.5-1-1.1-2-1.7-2.9c-1.2-1.8-3.4-4.2-3.2-6.5c0.1-0.6,0.6-1.6,1.1-1.2c0.4,0.3,0.6,1.3,0.8,1.7c0.3,0.6,0.7,1.3,1.2,1.8
		c0.5,0.7,1,1.3,1.6,1.9c0.1,0.1,0.9,1.2,1.2,1.4c-0.5-0.4-1.7-3.6-1.8-4c-0.5-1.4-0.9-2.9-1.2-4.3c-0.2-0.9-1-8.4-0.2-8.5
		c-0.2,0,0.7,3.5,0.7,3.8c0.1,0.5,0.5,3.6,1,3.8c0.1,0,0-1.9,0-2c0-0.6,0.2-1.1,0.4-1.6c0.3-0.9,0.8-2.9,1.7-3.3
		c0.2-0.1,0.4,0.1,0.5,0c0.2-0.1,0.4-0.3,0.6-0.5c0.5-0.4,1-0.7,1.7-0.8c1.2-0.3,2.4-0.1,3.6-0.1c1.9,0,3.7-0.4,5.5,0.1
		c0.7,0.2,1.5,0.4,2.2,0.3c0.1,0,0.1-0.3,0.2-0.3c0.3-0.1,0.6,0.1,0.9,0c0.3,0,0.6-0.2,0.9-0.3c-4.6-1.1-8.6-3.8-13.2-4.8
		c-4.2-1-9-1.8-13.2-0.7c-3.8,1-6.9,4.8-9.4,7.6c-2.6,2.9-5.3,5.8-7.2,9.2c-2.1,3.9-2,8.7-1.7,13c-0.8-1.3-1.4-2.7-1.7-4.3
		c-0.2-0.9-0.3-1.8-0.2-2.7c0-0.2,0.3-2.3,0.2-2.3c0,0-6,6.1-6.6,6.7c-2.3,2.2-4.4,4.4-6.4,6.8c-2.3,2.7-4.6,5.3-6.7,8.1
		c-2.1,2.9-3,6-2.9,9.5c0.1,2.1,0.3,4.3,0.8,6.3c0.1,0.3,0.6,3.2,0.9,3.7c-0.3-0.3-1-2.3-1.1-2.5c-0.6-1.5-1.1-2.9-1.5-4.4
		c-0.1-0.5-0.8-5.2-0.6-5.2c-0.5,0-1.3,3.4-1.4,3.9c-0.4,2-0.6,4.1-0.7,6.2c-0.2,3.3,0,6.5,0.7,9.7c0.7,3.4,1.5,6.8,2.6,10.2
		c0.6,2,1.2,3.9,2,5.8c0.1,0.2,1.4,3.4,1.2,3.5c-0.1,0-1-1.8-1-1.9c-0.4-0.8-0.8-1.6-1.2-2.4c-0.9-2-1.6-4.1-2.2-6.2
		c-1.4-4.5-2.7-9-3.4-13.7c-1.1-7.8,0.5-16.3,5.5-22.5c2.3-2.9,5-5.5,7.2-8.5c2.1-2.8,4.8-5,7.3-7.5c2.8-2.9,5.4-5.9,8-8.9
		c2.3-2.6,4.4-5.3,6.7-7.9c2.5-2.8,4.7-6.1,7.7-8.4c3.3-2.5,6.6-3.9,10.7-3.8c4.7,0.2,9.5,0.7,13.9,2.8c4.4,2.2,9,4,13.6,5.7
		c5.4,2.1,10.8,4.2,16.3,6.1c1.5,0.6,3,1.2,4.4,2c2.9,1.5,5.9,3.3,7.6,6.2c1.8,2.9,1.8,5.9,1.9,9.2c0.1,4.3-2.1,8.1-2.3,12.4
		c-0.3,5.8,0.2,11.8,0.2,17.7c0,0.9,0,1.8,0,2.7l-0.1,1.4c-0.6-0.5-0.4-2.8-0.5-3.5c-0.3-1.3-0.6-2.8-0.8-4.2
		c-0.3-1.8-0.4-4.2-1.5-5.7c-0.9-1.3-2.6-1.4-4.1-1.6c-1.9-0.2-3.6,0.5-5.4,1.1c-1.9,0.6-3.7,1.7-4.7,3.5c-0.9,1.7-1,3.7-1.1,5.6
		c0,0.5-0.6,6.1-0.5,6.1c0-0.1-0.1-0.1-0.1-0.2c0.1,0,0.2,4.6,0.3,4.6c-0.9,0.1-1.1-9.4-1.1-10.5c0-1.7,0.4-3.4,1-5
		c0.6-1.7,1.8-2.8,3-4.1c0,0-0.1,0-0.2,0c0-0.1,0.7-0.9,0.7-0.9c-1,0.1-2.6,2.1-3.2,2.7c-0.7,0.7-1.3,1.5-1.9,2.3
		c-0.1,0.1-1.1,1.7-1.1,1.7c-0.7-1-0.9-2.9-1.1-4.2c-0.3-1.5-0.7-2.7-0.1-4.1c0.7-1.7,1.6-3.5,3.1-4.6c1.7-1.2,3.9-2,5.9-2.6
		c0.1,0,1.5-0.3,1.5-0.5c-0.1-0.4-1.9,0.1-2.1,0.1c-1.5,0.2-2.9,0.5-4.3,0.9c-1.7,0.6-3.4,1.3-5,2.2c-0.8,0.5-1.6,1-2.4,1.6
		c-0.3,0.2-1.9,1.4-1.9,1.6c0-0.4,1.2-1.8,1.4-2.2c0.5-0.7,1-1.3,1.6-1.9c0.5-0.5,1.7-1.1,2-1.7c0.2-0.4,0-0.9,0-1.3
		c-0.2-3.1-0.2-6.1-0.5-9.2c-1.3,0.8-2.7,1.5-3.8,2.5c-1.4,1.2-2.6,2.7-3.8,4.1c-1.2,1.5-1.7,3.7-2.3,5.5c-0.7,2.3-0.3,5,0.2,7.3
		c0.5,2.5,1.3,4.9,2.4,7.2c1,2.2,2,4.4,3.1,6.6s2.5,4.2,3.9,6.3c1.5,2.1,2.8,4.3,4.8,6c2.2,1.9,5.2,3.1,8.1,3.3
		c1.6,0.1,3.3-0.1,4.9-0.5c0.8-0.2,1.5-0.7,2.3-0.9c0,0.1,0,0.1,0,0.2c0.2,0,0.3-0.3,0.5-0.4c0.2,0-0.5,0.5-0.6,0.6
		c-0.4,0.3-0.9,0.6-1.4,0.8c-0.8,0.4-1.6,0.8-2.5,1.1c-1.2,0.3-2.6,0.4-3.9,0.4s-2.6-0.2-3.8-0.6c-0.9-0.3-2.9-1.5-3-1.6
		c-1.6-0.8-3.1-2.9-4.2-4.4c-0.7-0.9-1.4-1.8-2-2.8c-3.4-5.4-6.1-10.8-8.5-16.7c-1.8-4.6-2.2-9.2-0.9-14c1.2-4.3,4.4-7.8,8-10.4
		c2.3-1.6,4.6-3.2,7.1-4.4c0.4-0.2,6.5-2.7,6.5-2.5c0-0.4-6.5,1.1-7,1.2c-1.2,0.3-2.3,0.8-3.5,1.2c-0.5,0.2-1,0.4-1.6,0.6
		c-0.5,0.2-1,0.7-1.5,0.9c-0.6,0.2-0.3,0.3-1,0c-0.6-0.3-0.9-0.7-1.4-1c-0.6-0.3-0.3-0.4-0.9,0.1c-0.4,0.3-0.7,0.8-1.1,1.2
		c-0.8,1-1.5,2.1-2.1,3.2c-0.6,1.2-1.2,2.5-1.6,3.7c0,0.1-0.6,1.6-0.6,1.6c-0.2-0.3,0.1-1.3,0.2-1.5c0.1-0.8,0.3-1.7,0.5-2.5
		c0.2-1.1,0.5-2.3,0.9-3.4c0.7-1.8,2.1-3.2,3.4-4.6c0.7-0.8,8.8-5.9,9-5.6c-0.2-0.3-5,1.4-5.5,1.6c-2,0.7-3.8,1.9-5.9,2.4
		c-2,0.5-3.9,0.5-5.5-0.9c-0.8-0.7-1.2-1.6-1.6-2.5c-0.1-0.2-0.8-1.8-1-1.8c0.1,0-0.6,7.1-0.6,7.4c-0.1,1.5,0.1,3,0.4,4.4
		c0.2,0.9,0.3,1.8,0.3,2.7c0,0.3-0.3,2.4-0.2,2.5c-0.3-0.3-0.3-1.5-0.4-1.9c-0.2-0.8-0.4-1.6-0.5-2.4c-0.3-1.1-0.4-2.3-0.5-3.5
		c-0.3-2.3-0.3-4.8-1.2-6.9c-0.2,3.6-1.8,7.5-4.6,9.9c-0.5,0.5-1.5,0.8-1.3,1.6c0.1,0.6,1.2,1.4,1.6,1.8c0.8,0.8,1.7,1.5,2.4,2.4
		c0.3,0.3,1,1.2,1.1,1.6c0-0.3-2.8-1.5-3.2-1.7c-1.3-0.6-2.7-1.2-4.1-1.6c-2.2-0.6-4.6-1.1-7-1.1c5.4,0.9,9.8,4.3,13.7,7.9
		c2,1.9,3.8,3.4,3.7,6.4c0,1.1,0.1,3.1-1.4,2.9c-0.5-0.1-4.1-1.7-4.1-1.8c-0.1,0.3,1.4,1.6,1.7,1.9c0.8,0.9,1.5,1.9,2.1,3
		c0.2,0.4,1.4,2.1,1.2,2.5c-0.2,0.5-0.5-0.1-0.9-0.5c-1.4-1.5-2.9-2.7-4.3-4.2c-0.7-0.7-1.3-1.5-1.9-2.3c-0.2-0.3-0.7-1.6-1.1-1.8
		c0.1,0,0.6,1.8,0.7,2c0.4,1,0.9,2.1,1.4,3.1c0.9,1.8,2.4,3.2,3.3,5.1c0.9,1.8,1.2,3.8,1.7,5.8c0.1,0.4,0.7,2.3,0.3,2.6
		c-0.3,0.2-2.1,0-2.5,0c-1.8,0.1-3.8,0.3-5.4-0.8c-0.7-0.5-1.5-1.2-2.2-1.8c-1.4-1.2-2.7-2.4-4.2-3.5c-1-0.7-2.2-1.3-3.1-1.8
		c0,0-1.4-0.9-1.4-0.8c0,0.3,1.8,1.4,2,1.7c0.9,0.9,1.7,1.9,2.5,2.9c1.2,1.6,1.9,3.6,3.3,5c1.6,1.6,3.5,1.5,5.5,2.3
		c2.3,0.9,1.4,2.7-0.1,3.9c-1.8,1.5-3.4,2.8-4.1,5.2c-0.7,2.2-1.2,4.5-1.8,6.7c-0.4,1.3-0.9,2.5-1,3.8c-0.2,1.4-0.2,2-1.1,3.2
		c-1.8,2.1-4.2,3.8-6.4,5.4c-2,1.5-4.3,2.4-6.6,3.6c-1,0.6-2.1,1.1-3.2,1.5c-0.2,0.1-2.8,0.9-2.7,1c0.7,0.6,3.5-0.6,4.3-0.8
		c1.8-0.3,3.6-0.7,5.3-1.4c2.8-1,5.4-2.6,8.2-3.7c1.2-0.5,2.2-1.1,3.3-1.8c0.4-0.2,2.4-1.9,2.8-1.7c0.2,0.1-3.8,3.9-4,4.1
		c-1.8,1.5-3.7,2.8-5.7,4c-1.5,0.9-3,1.8-4.5,2.6c-0.7,0.3-3.9,2.7-4.1,2.5c0.2,0.2,1.4-0.2,1.7-0.3c0.8-0.1,1.7-0.3,2.5-0.4
		c1.2-0.2,2.3-0.4,3.5-0.7c0.5-0.1,4.3-1.7,4.5-1.6c0.2,0.2-0.5,2.3-0.6,2.6c-0.3,1.2-1.1,1.9-1.9,3.4c-0.9,1.7-2.2,3.3-3.5,4.8
		s-2.2,3.2-3.4,4.7c-0.9,1.2-2.3,2.1-3.3,3.2c-0.7,0.7-6.3,7.1-5.7,7.6c-0.1-0.1,3.9-3.5,4.2-3.6c1.8-1.4,3.7-2.5,5.5-3.9
		c0.8-0.6,8.3-6.9,7.9-7.2c0.3,0.2-5.1,7-5.6,7.5c-0.9,1-1.8,2-2.9,2.9c-0.9,0.7-2,1.5-2.6,2.5c-0.6,1.1-0.7,2.5-1.1,3.6
		c-0.3,1.1-0.8,2.2-1,3.4c-0.2,1.2-0.3,2.3-0.9,3.4c-0.4,0.6-0.7,1.2-1,1.9c-0.1,0.3-0.4,1.7-0.7,1.9c2.6-1.7,5-3.5,6.6-6.3
		c0.9-1.7,1.4-3.7,2.6-5.2c1-1.1,1.9-2.3,3-3.3c1.8-1.7,3.5-3.6,5.4-5.3c1.4-1.3,2.7-2.6,4.2-3.8c0.5-0.4,1.6-1.6,2.2-1.5
		c-0.6-0.1-2.4,2.8-2.7,3.2c-1.2,1.6-2.6,3-3.8,4.7c-0.9,1.3-1.7,2.7-2.4,4.1c-0.4,0.7-0.7,1.4-1.1,2.2c-0.1,0.3-0.6,0.9-0.5,1.2
		c0-0.2,1.2-1.2,1.4-1.4c0.7-0.7,1.4-1.4,2.2-2.1c1.6-1.5,3.4-3,5.5-3.9c1.1-0.4,2.4-0.5,3.5,0c1.2,0.6,1.7,1.5,2.5,2.7
		c1,1.6,2,3.3,3.5,4.4c1.5,1.2,3.2,2,4.8,3c4.8,7.6,10.3,13.9,16.1,19C109.7,1181,109.5,1180.9,109.3,1180.9z M156.9,1195.6
		c-0.6,0.3-1.3,0.6-2.2,0.4c-1.1-0.2-2.4-0.9-3.4-2c-1.1-1.2-2-2.7-2.7-4.3c-0.7-1.7-1.2-3.5-1.6-5.3c-0.4,1.9-0.8,3.8-0.8,5.8
		c0,1.6,0.1,3.2,0.4,4.9c-7.5-1.6-16-5-24.3-10.4c-3.5-2.8-6-4.4-9-8.3c-1.7-2.2-3.2-5.5-3.9-8.2c-0.2-0.7-1-2.5-0.6-3
		c0.4-0.6,2.7,0.3,3.4,0.3c2.7,0.2,6.3,0.8,8.9,1.4c0.8,0.2,8.3,1.7,10.8,1.9c4.9,3.5,9.8,6.6,14.3,8.9c0.5-2,3.9-8.3,7.5-10.6
		c2.5-1.4,4.7-3.3,6.4-5.3C159.3,1172.2,157.8,1188.4,156.9,1195.6z M186.4,963.9c0.2-2.5,2.5-4.9,6.6-6.9c-0.1,0.4-0.1,0.8-0.2,1.2
		c-0.4,3.7,0.5,6.9,3.1,9.8c1.4,1.8,4,3.7,7.5,5.5c7.7,4,19.9,7.6,38.1,11.6c7.6,3,9.9,7.2,13,13c2.4,4.4,5.3,9.8,11.4,15.5l0.1,0.1
		v0.2c0.6,3.5,3.5,6.1,7,6.5c0.5,0.1,1.1,0.1,1.6,0h0.2l0.2,0.1c5.7,3.8,10.4,6.4,14.3,8.4c-10.2,0.3-20.4-0.2-29.2-1.2
		c-45.1-5.2-57.1-16-57.1-16s3.8,1.9,6.2,2.4c0.1-2.5,0.9-10.5,2.4-17.9c0.8-3.7,3-9.2,4.1-11.9c-2.9-1-5.6-2-7.9-2.9
		c-5,7.6-7.1,25-7.5,28.5c-2.1-1.1-4.2-2.8-6.3-4.4c0.2-2,0.9-8.7,2.6-15.5c1-3.8,3.7-9.6,4.6-11.4c-9.2-4.2-11-6.9-12.5-8.8
		c-1.9-2.3-2.4-5.6-2.4-5.6l0,0L186.4,963.9z M179.2,1022.9c0.2-2.2,2.1-8.2,6.4-8c6.4,0.6,7.2,11.2,7.5,13.3
		c-4.5-14.5-11.4-5.1-12.9,9.9L167.4,1169c-0.6,6.6,0.2,13.8,5,14.3c4.9,0.5,6.9-4.8,6.9-4.8s-2.2,7.6-7.7,7.1
		c-3.8-0.4-8.2-2.7-7.1-14.3L179.2,1022.9z M193.1,1033.3c-0.4,11.6-1.2,23.2-2,34.8c-0.8,11.6-1.9,23.2-2.9,34.7l-1.7,17.3
		c-0.6,5.8-1.2,11.6-1.9,17.3c-1.3,11.5-2.8,23.1-4.6,34.6c0.4-11.6,1.2-23.2,2-34.8c0.4-5.8,0.9-11.6,1.4-17.4l1.6-17.4
		c1.1-11.6,2.3-23.1,3.7-34.7C189.9,1056.3,191.3,1044.8,193.1,1033.3z M293.9,1244.3c-1.4,3.6-9.4,7.7-13.1,8.7
		c-12,3.3-26.7,3.9-45.1,2.1c-25.4-2.5-41.3-7.8-53.4-16.7c-2.4-1.7-6.8-5.8-6.7-8.8c0,0,0,0,0-0.1c0.1-1.1,1.3-1.7,2.2-1.1
		c13.4,8.4,32.9,14.9,58.8,17.5c23.1,2.2,41.9,0.4,56.2-4C293.9,1241.9,294.3,1243.4,293.9,1244.3z M324,1205.3
		c-0.5,5.2-3,10.3-7.2,14.8l-1.6,1.5c-6.8,6.3-16.6,11-28.7,13.8c-0.1,0-0.2,0.1-0.3,0.1c-2.3,0.5-4.8,1-7.3,1.4c-0.1,0-0.1,0-0.2,0
		c-0.8,0.1-1.7,0.3-2.6,0.4l0,0c-2.6,0.4-5.3,0.6-8.1,0.9c-0.1,0-0.2,0-0.3,0c-1.8,0.1-3.6,0.2-5.4,0.3h-0.1c-0.8,0-1.7,0.1-2.5,0.1
		c-0.4,0-0.8,0-1.1,0c-1.2,0-2.4,0-3.6,0c-0.7,0-1.3,0-2,0c-0.6,0-1.3,0-1.9,0c-0.9,0-1.8-0.1-2.7-0.1c-0.4,0-0.8,0-1.3-0.1
		c-1.3-0.1-2.7-0.2-4-0.2c-0.4,0-0.8-0.1-1.2-0.1c-1.4-0.1-2.9-0.2-4.4-0.4c-1.5-0.1-2.9-0.3-4.4-0.5c-0.4,0-0.8-0.1-1.2-0.1
		c-1.4-0.2-2.7-0.4-4-0.5c-0.4-0.1-0.8-0.1-1.3-0.2c-0.9-0.1-1.8-0.3-2.6-0.4c-0.6-0.1-1.3-0.2-1.9-0.3c-0.7-0.1-1.3-0.2-1.9-0.4
		c-1.2-0.2-2.4-0.5-3.6-0.7c-0.4-0.1-0.7-0.2-1.1-0.2c-0.8-0.2-1.7-0.4-2.5-0.6c0,0,0,0-0.1,0c-1.8-0.4-3.6-0.9-5.3-1.4
		c-0.1,0-0.2-0.1-0.3-0.1c-3.6-1-7-2.1-10.3-3.3h-0.1c-2.4-0.9-4.7-1.8-6.9-2.8c-0.1,0-0.2-0.1-0.2-0.1c-11.3-5.1-20-11.6-25.5-19.2
		l-1.3-1.8c-1-1.5-1.8-3.1-2.4-4.7c0.4-0.4,0.7-0.8,0.8-1.4c0.1-0.3,0.1-0.7,0.2-1.1c0.1,0.7,0.1,1.1,0.1,1.1s14.4,20.5,45.2,29.2
		c36.1,10.2,53,1.5,53,1.5c-38.1-2.1-79.3-10.4-97.3-41c0.2-1.9,0.4-4,0.6-6.1c6.5,10.6,16.7,19.4,28.8,26
		c-4.9-5.3-4.7-13.3-5.1-17.2c1.4,5,5.2,13.6,12.5,14.3c7,0.7,14.1-7.6,15-16.6l12.9-131.3c1.8-18.4-8.8-25.7-14.9-26.3
		c-3.9-0.4-6.9,0.8-9,4.4c1.8-5.8,6.3-9.7,12-9.4c-23-9-27.7-18-32-24.7c9.3,11,27.5,25.1,74.4,30.5c17.5,2,30.4,2,40.2,1.2
		c1.9,1.1,3.4,2.2,4.5,3.5c0.8,0.9,2.3,4.5,4.4,9.5c0.3,0.7,0.6,1.4,0.9,2.2c0.2,3.3-0.3,6.2,1,9c0.8,1.8,2.3,3.6,3.9,5.1
		l-12.6,128.9c-0.5,5.3,2.9,10,7.7,10.4l0,0c3.3,0.3,6.4-1.5,8.1-4.3c0.8-1.3,1.3-2.8,1.5-4.4l10.9-110.5c2.3,2,4.7,3.5,7.2,4.3
		L324,1205.3z M205.2,1194.2c0,0-2.6,2.4-6.9,0.7c-5.3-2.2-7.2-8.8-6.4-17l13-132.8c0.6-5.8,4.9-7.9,9.6-6.3c3.2,1.1,3.3,3,4.4,5.1
		c-6.2,0.2-6.5,2-8,17l-12,122.1C197.8,1194.5,205.2,1194.2,205.2,1194.2z M304.2,1192.6l12.3-125.8c1.3,2.3,2.6,4.5,4,6.7
		l-12.2,124.7C305.5,1197.7,303.9,1195.9,304.2,1192.6z M343.5,1082.5c-9.9,3.3-18.6-9.5-25.2-22.6c-3.5-0.7-6-3.9-5.6-7.5
		c0.1-1,0.4-1.9,0.9-2.7c-0.8-1.8-1.5-3.4-2.1-5c-0.9-2.2-1.8-4.1-2.5-5.8c-2.5-0.5-4.3-2.8-4-5.4c0-0.3,0.1-0.5,0.2-0.8
		c-2.4-2.3-5.5-3.9-10-6.2c-4.7-2.4-10.6-5.5-18.6-10.8c-0.7,0.3-1.4,0.4-2.2,0.3c-2.7-0.3-4.6-2.6-4.4-5.2c-6-5.3-8.8-10.4-11.2-15
		c-3.2-6-6.3-11.6-15.8-15.3c-0.1,0-0.2-0.1-0.3-0.1c-38.6-8.4-46-14.7-45.1-21.7c0.5-4.3,1.4-8.2,2.6-11.6l2.6-1.5l-3-0.9l-0.1-0.1
		c-1-0.7-1.2-2.6-0.4-4.2c0.4-0.9,1.5-2.3,3.5-1.7c0.1,0,0.1,0,0.2,0l4.7,2.3l-2.5-4.5c0-0.1,0-0.2-0.1-0.3
		c-0.6-1.4,0.2-3.4,1.7-4.7c0.7-0.5,2.6-1.7,4.7-0.1c0,0,0.1,0,0.1,0.1l4.6,4.2l-1.8-5.8v-0.1c-0.1-1.3,1.6-4.3,4.3-5.3
		c2.1-0.8,4,0.1,5.5,1.5c-0.6,0.7-1,1.5-1.3,2.3c-0.2,0.7-0.4,1.5-0.5,2.3c-0.4,0-0.8,0.1-1.2,0.3c-1.1,0.5-1.8,1.5-2.1,2.5
		s-0.2,2.1,0.1,3c0.4-0.9,0.7-1.8,1.1-2.5c0.4-0.7,1-1.2,1.6-1.6c0.6-0.3,1.4-0.4,2.2-0.3c0.8,0.1,1.6,0.4,2.5,0.8
		c-0.4-0.9-1.2-1.7-2.2-2.1c-0.3-0.1-0.7-0.2-1.1-0.3c0.3-0.5,0.7-0.9,1.1-1.4c0.8-0.8,1.6-1.5,2.4-2c1.7-1,3.7-1.2,5.6-0.7
		c1.9,0.4,3.7,1.4,5.1,2.9c1.4,1.5,2.2,3.5,2.1,6.1c0.8-1,1.2-2.3,1.3-3.7c0-0.3,0-0.6,0-0.9c14.9,3.4,30.3,10.9,40.4,15.9
		c4.4,2.1,7.5,3.7,9.5,4.4c4.2,1.4,10.6,2.2,18.1,3.1c16.1,2,36.2,4.4,44.9,14.3c10.3,11.7,5.2,29.9,0.3,47.5
		c-1.1,3.9-2.1,7.5-2.9,11.1c-1.8,7.6-0.7,16.5,0.4,25C353.4,1066.3,355,1078.6,343.5,1082.5z"/>
	<path class="st0" d="M299.2,977.7c0.9,1.2,1,2.7,0.7,4s-1.1,2.4-2,3.1c-1,0.8-2.1,1-3.3,1c-1.2,0-2.5-0.4-3.7-0.9l-1.7-0.7
		l-0.3,1.8c-0.1,0.7-0.5,1.3-1.2,1.8c-0.6,0.5-1.5,0.8-2.4,0.9c-0.9,0.1-1.8,0.1-2.6-0.2c-0.8-0.3-1.5-0.8-1.9-1.5l-0.7-1.2
		l-0.9,0.8c-0.5,0.4-1.2,0.8-1.9,1c-0.7,0.2-1.5,0.2-2.2,0s-1.4-0.6-1.9-1.2c-0.5-0.6-0.7-1.5-0.8-2.3c-0.2,0.8-0.3,1.8,0.1,2.7
		s1.1,1.7,2.1,2.1c0.9,0.5,2,0.6,3,0.5c0.6,0,1.2-0.2,1.8-0.4c0.6,0.9,1.4,1.6,2.4,2c1.3,0.6,2.7,0.8,4,0.7s2.7-0.6,3.9-1.4
		c0.7-0.5,1.4-1.3,1.8-2.1c1.1,0.3,2.2,0.4,3.4,0.4c1.7-0.1,3.5-0.8,4.7-2.1s1.9-2.9,1.9-4.6C301.3,980.2,300.6,978.5,299.2,977.7z"
		/>
	<path class="st0" d="M336.2,987.8c1.5,0.8,3.2,1.5,5,1.8c1.2,0.1,2.4,0,3.6-0.4s2.3-1.3,3-2.3s1.1-2.2,1.2-3.3s0-2.3-0.3-3.4
		c-0.3-1.1-1-2.1-1.8-2.8c-0.9-0.7-2-1.1-3-0.9c2,0.6,2.9,2.4,3.1,4.1c0.2,1.7-0.3,3.6-1.3,4.7c-1,1.1-2.4,1.5-4.1,1.3
		c-1.6-0.2-3.3-1-5-1.9l-1.3-0.7l-0.7,1.2c-0.6,1-1.4,1.7-2.5,2.2c-1,0.5-2.2,0.7-3.5,0.5c-1.2-0.1-2.4-0.6-3.4-1.4
		c-1-0.8-1.8-2-2.1-3.4c-0.2,1.4,0.2,3,1.2,4.2c0.7,0.9,1.6,1.6,2.6,2.1c0,0.5-0.1,1-0.3,1.4c-0.3,0.7-0.7,1.3-1.3,1.8
		c-0.6,0.5-1.3,0.9-2.1,1.1c-0.8,0.2-1.7,0.3-2.6,0.2c0.8,0.3,1.7,0.5,2.7,0.5c0.9,0,1.9-0.2,2.9-0.6c0.9-0.4,1.8-1.1,2.4-1.9
		c0.4-0.5,0.8-1.2,1-1.8c1.1,0.1,2.3,0,3.4-0.3C334.3,989.3,335.4,988.6,336.2,987.8z"/>
	<path class="st0" d="M346.9,1021.6c-0.4-0.3-0.7-0.7-1.1-1c-0.4-0.2-0.8-0.5-1.3-0.6s-0.9-0.2-1.3-0.2c1.3,1.2,2.2,2.5,2.3,3.7
		c0.2,1.3-0.2,2.5-0.9,3.6c-0.7,1-1.7,1.8-3,2.1c-1.3,0.3-2.9,0.1-4.6-0.2c1.1,1.4,2.8,2.4,4.8,2.6c2,0.1,4.2-1,5.3-2.8
		c1.2-1.7,1.5-4.1,0.6-6C347.4,1022.5,347.2,1022,346.9,1021.6z"/>
	<path class="st0" d="M339.2,1052.6c-1.5-0.1-2.8,1-3,2.5s1,2.8,2.5,3c1.5,0.1,2.8-1,3-2.5C341.8,1054.1,340.7,1052.7,339.2,1052.6z
		"/>
	<path class="st0" d="M322,1033.3c0.2-2.2-1.4-4.2-3.6-4.4c-2.2-0.2-4.2,1.4-4.4,3.6s1.4,4.2,3.6,4.4
		C319.8,1037.1,321.8,1035.5,322,1033.3z"/>
	<circle class="st0" cx="328.7" cy="1056.5" r="2.2"/>
	<path class="st0" d="M331.6,1064.2c-2-0.2-3.8,1.3-4,3.3s1.3,3.8,3.3,4s3.8-1.3,4-3.3S333.6,1064.4,331.6,1064.2z"/>
	<path class="st0" d="M336,1073.1c-1.1-0.1-2.1,0.7-2.3,1.9c-0.1,1.1,0.7,2.1,1.9,2.3c1.1,0.1,2.1-0.7,2.3-1.9
		C337.9,1074.2,337.1,1073.2,336,1073.1z"/>
	<circle class="st0" cx="317.1" cy="1042.4" r="1.6"/>
	<path class="st0" d="M310.3,1031.4c-1.3-0.1-2.5,0.8-2.6,2.1c-0.1,1.3,0.8,2.5,2.1,2.6c1.3,0.1,2.5-0.8,2.6-2.1
		C312.5,1032.7,311.6,1031.5,310.3,1031.4z"/>
	<path class="st0" d="M306.4,1022.3c-1.3-0.1-2.4,0.8-2.5,2.1s0.8,2.4,2.1,2.5c1.3,0.1,2.4-0.8,2.5-2.1
		C308.6,1023.6,307.7,1022.4,306.4,1022.3z"/>
	<circle class="st0" cx="301.9" cy="1015.6" r="2.8"/>
	<circle class="st0" cx="293.5" cy="1021" r="2.2"/>
	<path class="st0" d="M283.2,1011.9c-1.1-0.1-2.2,0.7-2.3,1.9c-0.1,1.1,0.7,2.2,1.9,2.3s2.2-0.7,2.3-1.9
		C285.2,1013,284.4,1012,283.2,1011.9z"/>
	<circle class="st0" cx="275.2" cy="1010.7" r="2.5"/>
	<path class="st0" d="M276.7,1002c0.2-1.6-1-3-2.6-3.2s-3,1-3.2,2.6s1,3,2.6,3.2S276.5,1003.6,276.7,1002z"/>
	<path class="st0" d="M320.1,1049.2c-2.1-0.2-3.9,1.3-4.1,3.4s1.3,3.9,3.4,4.1s3.9-1.3,4.1-3.4
		C323.6,1051.3,322.1,1049.5,320.1,1049.2z"/>
	<path class="st0" d="M277.4,960.9c0.6-1.6,0.7-3.6-0.1-5.4c-0.7-1.8-2.4-3.2-4.2-4c-1.9-0.7-3.9-0.8-5.9-0.2
		c-1.2,0.4-2.4,1-3.4,1.9c-0.5-0.6-1.1-1.1-1.8-1.5c-1.3-0.8-2.9-1-4.4-0.9c-1.4,0.2-2.9,0.8-3.9,1.9c-1,1.1-1.4,2.7-0.9,3.9
		c0.1-1.3,0.8-2.3,1.7-2.9c0.9-0.6,2-0.8,3.1-0.7s2,0.4,2.8,1s1.3,1.4,1.7,2.3l1,2.6l1.6-2.4c0.7-1.1,1.8-1.9,3.2-2.4
		c1.3-0.5,2.8-0.5,4.2-0.2c1.4,0.3,2.7,1.1,3.6,2.3C276.8,957.6,277.2,959.2,277.4,960.9z"/>
	<path class="st0" d="M217.5,943.5c-1.7-0.7-3.7-0.9-5.6-0.4c-1.9,0.5-3.7,1.9-4.5,3.7s-0.8,3.7-0.2,5.3c0.7-1.6,1.3-3,2.2-4.1
		c0.9-1,2-1.6,3.2-2c1.3-0.3,2.7-0.4,4.1-0.3c1.5,0.1,3,0.5,4.6,1.1C220.7,945.4,219.2,944.2,217.5,943.5z"/>
	<path class="st0" d="M144,1059.4c0.1-0.2,0.1-0.3,0-0.5C143.9,1059,143.9,1059.6,144,1059.4z"/>
	<path class="st0" d="M144.1,1058.7C144.2,1058.5,144.1,1058.5,144.1,1058.7L144.1,1058.7z"/>
	<path class="st0" d="M27.3,1087.2c0.1-0.1,0-0.2-0.1-0.2C27.2,1087,27.3,1087.3,27.3,1087.2z"/>
	<path class="st0" d="M9,1158.5c-3.3-0.1-6.4-0.1-9.7,0.1c-4,0.2-7.9,0.6-11.8,1.4c-3.7,0.7-7.3,1.3-11,1.6
		c-1.6,0.1-3.2,0.1-4.8,0.1c-0.8,0-1.6,0.1-2.4,0.1c-0.2,0-1.3-0.1-1.5,0.1l0.2,0.1c4.1,1.2,8,1.2,12.2,1.1
		c3.9-0.1,7.7-0.1,11.6-0.6c4.3-0.6,8.6-0.6,12.9-1.1c2.1-0.2,4.3-0.7,6.4-1.2c0.5-0.1,5.9-1.2,5.9-1.7c-0.1-0.1-0.2-0.1-0.3-0.1
		C14.5,1158.6,11.5,1158.6,9,1158.5z"/>
	<path class="st0" d="M26.9,1085.7C26.9,1085.5,26.9,1085.6,26.9,1085.7L26.9,1085.7z"/>
	<path class="st0" d="M116.3,1056.4c2.8-0.6,5.5-1.5,8.4-1.2c2.1,0.3,4,1.2,6.2,1c-1.6-2-4.6-3.2-7.2-2.8c-1.3,0.2-2.5,0.7-3.7,1.2
		c-0.7,0.3-1.4,0.6-2.1,1C117.6,1055.7,116.7,1056.3,116.3,1056.4L116.3,1056.4z"/>
	<path class="st0" d="M-21.4,1127.4c3.7-0.6,7.3-1.7,11-2.3c2.1-0.3,4.1-0.7,6.2-1c1.1-0.2,2.1-0.3,3.2-0.4c0.6-0.1,1.3,0,1.9-0.2
		c-0.8,0.1-2.2-0.1-2.9-0.2c-1.6,0-3.2-0.1-4.7-0.1c-2.5,0-5,0-7.5,0c-6.9-0.2-13.8,0.8-20.7,1.3c-6.2,0.4-12.5,0.3-18.7,0.9
		c-6.4,0.6-12.7,1.1-19.1,1.5c-3.9,0.2-7.9,0.5-11.8,0.5c-1.8,0-3.5,0.1-5.3,0.2c-1,0-1.9,0.1-2.9,0.1c-0.4,0-2-0.2-2.2,0.1
		c0,0,1,0.3,1.1,0.3c1.6,0.4,3.3,0.2,4.9,0.4c0.7,0.1,1.3,0.2,2,0.3c3.8,0.4,7.7,0.6,11.5,0.8c3.9,0.3,7.9,0.5,11.8,0.3
		c3.2-0.2,6.3-0.6,9.4-1c5.7-0.7,11.6-0.2,17.3-0.2C-31.7,1128.8-26.5,1128.2-21.4,1127.4z"/>
	<path class="st0" d="M-7.8,1140.1L-7.8,1140.1C-7.9,1140-7.9,1140-7.8,1140.1z"/>
	<path class="st0" d="M-79.1,1120.7c3.4-0.3,6.8,0.3,10.2,0.6c4.9,0.3,9.8,0.4,14.6,0.5c5.4,0.1,10.8,0,16.1-0.5
		c2.2-0.2,4.4-0.5,6.6-0.7c0.3,0,3.6-0.3,3.6-0.5c0,0.3-6.7-0.2-7.1-0.2c-4-0.3-8.1-0.6-12.2-0.6c-4.4,0-8.7,0.5-13.1,0.6
		c-4.1,0.1-8.3,0.3-12.4,0.4c-1.8,0-3.6,0-5.4,0.1c-0.3,0-1.8,0.5-1.8,0.5C-79.7,1120.8-79.3,1120.7-79.1,1120.7z"/>
	<path class="st0" d="M-13.6,1142.5c2-0.3,3.9-0.9,5.9-1.1c1.2-0.1,2.3-0.2,3.5-0.4c0.4-0.1,2.5-0.3,2.6-0.7c0,0.1-5.2,0.2-6.1-0.2
		l0.1,0.1c-0.2,0.2-2.6-0.2-3.1-0.2c-1,0-2,0-3,0c-1.5,0.1-3,0.2-4.6,0c-2.5-0.3-5.2-0.7-7.7-0.6c-5.4,0.3-10.9,0.8-16.3,1
		c-0.9,0-10.8,0.6-10.8,0.5c0,0.1,1.5,0.1,1.5,0.1c3,0.1,6,0.5,9,0.8c3.3,0.3,6.6,0.3,9.9,0.3c3.9,0.1,7.8,0.4,11.8,0.7
		C-18.5,1143-16.2,1142.9-13.6,1142.5z"/>
</g>
<g>
	<path class="st0" d="M452.5,1332.8c0,0,3,8.1,10.4,12.4c5.2,3.1,11.1,4.6,16.9,5.5c-5.5,1.1-16.1,0.7-30.9-5
		c-5.7-2.2-14.6-9.1-15.5-12.3c-1-3.2-1.2-6.4-1.2-6.4C441.3,1339.7,452.5,1332.8,452.5,1332.8z"/>
	<path class="st0" d="M472.7,1333c-6.2,0.8-11.8-3.6-12.6-9.8l-16.3-129.4c-0.8-6.2,3.6-11.8,9.8-12.6l0,0
		c6.2-0.8,11.8,3.6,12.6,9.8l16.3,129.4C483.2,1326.5,478.8,1332.2,472.7,1333L472.7,1333z M477.5,1318.8l-16-127.3
		c-0.3-2.5-2.6-4.3-5.1-4s-4.3,2.6-4,5.1l16,127.3c0.3,2.5,2.6,4.3,5.1,4C476.1,1323.5,477.8,1321.3,477.5,1318.8z"/>
	<path class="st0" d="M486.1,1177.9L486.1,1177.9c6.3-0.8,12.2,3.3,13.6,9.4l0,0c-1.1-9.1-4.4-11.7-8.7-14.3
		c10.2-2.5,18.5-5.1,25.3-7.6c-5.3,3.7-10.3,11.5-8.7,23.9l15.7,124.8c1.1,8.5,8,19,15.4,18c0.3,0,0.7-0.1,1-0.2
		c-12.5,5.6-26.3,8.8-39.3,8.9c0,0,11-1,15.7-5.8c5.4-5.5,4.5-12,3.1-20.3c-0.1,9.5-1.9,11.7-7.5,15.6c-0.4,0.3-0.9,0.7-1.4,0.9l0,0
		l0,0c-1.4,0.8-3,1.4-4.7,1.6l0,0c-6.8,0.9-13-4-13.8-10.7l-16.4-130.5C474.5,1184.9,479.3,1178.7,486.1,1177.9z M499.7,1327.2
		c1.6,1.2,3.5,1.9,5.6,1.6c4.5-0.6,7.6-5.3,6.9-10.5l-16.1-127.5c-0.7-5.2-4.8-9-9.3-8.5c-2,0.3-3.8,1.4-5,3c4,0.9,7.3,4.8,8,9.7
		l15.2,120.8C505.6,1320.7,503.3,1325.3,499.7,1327.2z"/>
	<path class="st0" d="M496,1366.6c2.1-0.1,4.2-0.2,6.3-0.4c2.1-0.1,4.2-0.4,6.3-0.5c4.2-0.4,8.4-1,12.6-1.6c-3.9,1.8-8,3.1-12.2,3.9
		c-2.1,0.5-4.2,0.8-6.4,1c-1.1,0.2-2.1,0.2-3.2,0.3c-1.1,0.1-2.1,0.2-3.2,0.2c-4.3,0.2-8.6,0.1-12.9-0.4s-8.6-1.3-12.5-3
		c4.3,0.5,8.4,0.7,12.7,0.7C487.6,1366.9,491.8,1366.8,496,1366.6z"/>
	<path class="st0" d="M503,1157.9c-2.9,0.6-5.7,0.8-5.7,0.8l-0.1-8.1c-0.1-4-0.7-7.9-1.9-11.7l-2.2-6.8l10.3-1.8
		c0,0,2.5,5.4,3.9,12.2c1.1,5.5,1.1,13.8,1.1,13.8S506.7,1157.2,503,1157.9z"/>
	<path class="st0" d="M395.8,1189c0.7-7.4,1.5-15.1-0.2-21.2c-0.8-3.1-1.8-6.4-2.9-9.8c-5-16.1-10.6-34.4-0.1-47.1
		c8.7-10.5,27.8-13.3,43.1-15.6c6.5-1,12.2-1.8,15.5-3.1c1.5-0.6,4.5-2.2,8.1-4c10-5.2,25.6-13.4,40.7-16.6c1.2-1.1,2.7-2,4.3-2.4
		c1.5-0.4,3.1-0.4,4.7,0.1c4-4.5,8.3-3.7,10-3.2c2.3,0.8,4.6,2.7,5.9,5l0.2,0.3l0.4-0.1c2-0.3,4,0.2,5.8,1.5s3,3.1,3.4,5.2l0.1,0.3
		l0.3,0.1c1.9,0.5,3.5,1.8,4.5,3.8c1.3,2.5,1.3,5.4,0.1,7.5l-0.1,0.2l0.1,0.2c0.4,1.2,0.8,2.4,1.1,3.6c6.7,2.5,10.9,6,11.6,10.7
		l5.7,20.7c1.5,5.6,2.8,11.2,3.8,16.9c1.5,0.8,6.6,2.8,15.1-1c1-0.4,2.1-1,3.3-1.5c12.3-5.9,35.3-16.9,52.9,11.2
		c1.3,2.1,2.5,4.3,3.6,6.6c3.1-1.4,6.1-2.5,9.2-3.1c3.5-0.7,6.6-0.9,9.6-0.4c3.7,0.6,6.6,2.5,8.6,4.1c1.8,1.4,3.2,3.1,4.6,4.7
		c0.7,0.8,1.3,1.6,2,2.3c1.1,1.1,2.1,2.2,3,3.4c1,1.2,2.1,2.3,3.1,3.5l1.4,1.5c1.6,1.7,3.2,3.4,4.9,5c1.3,1.3,2.7,2.6,4.1,3.8
		c1.1,0.9,2.1,1.9,3.1,2.9c2.3,2.2,4.6,4.5,6.6,6.5c2.1,2.2,4.4,3.9,6.5,5.5c2.7,2.1,5.2,3.5,7.9,4.4c2.3,0.8,5.1,0.8,7.8,0.8h1.2
		c1.1,0,2.2,0,3.3,0.1c2.4,0.1,4.6,0.1,6.9,0c2.4-0.1,4.8-0.3,7.2-0.4c4.9-0.2,9.9-0.9,14.7-1.5l1.4-0.2c11.8-1.6,23.1-3.8,32.6-5.9
		c1.8-0.4,3.5-0.8,5.3-1.1c3.9-0.8,7.9-1.7,11.9-2.5c0,0,0,0,0.1,0c0.3-0.2,0.6-0.5,0.9-0.6c1.8-0.8,3.8,0,4.6,1.8l0,0
		c7.1,16.2,9.3,73.8,7.8,97.6c-0.3,4.7-0.7,7.9-1.3,9.6c-0.1,0.3-0.3,0.7-0.5,0.9c-0.6,0.7-1.4,1.2-2.3,1.3c-0.5,0.1-1,0-1.5-0.1
		c-0.3-0.1-0.5-0.2-0.7-0.3c-1.1,0-2.3-0.1-3.3-0.2c-0.7-0.1-1.3-0.1-1.9-0.2c-1.1-0.1-2.1-0.1-3.2-0.2c-2.7-0.2-5.6-0.4-8.3-0.5
		l-2.8-0.1c-3.7-0.1-7.6-0.2-11.4-0.5c-2.3-0.2-4.6-0.4-6.9-0.6c-3-0.3-6.1-0.6-9.1-0.8c-2.9-0.1-5.8-0.4-8.6-0.6
		c-1.8-0.2-3.5-0.3-5.3-0.4c-13.6-1-24.6-1.5-34.6-1.6c-2.7,0-5.6,0.1-8.5,0.4c-1.2,0.1-2.4,0.2-3.7,0.3c-2.4,0.2-4.7,0.4-7,0.7
		c-2.3,0.4-4.5,1-6.9,1.6c-0.9,0.2-1.7,0.5-2.6,0.7c-1.9,0.5-3.9,1-5.8,1.4c-1.3,0.3-2.7,0.6-4,1c-1.9,0.5-3.8,1-5.6,1.6
		c-1.4,0.4-2.8,0.8-4.2,1.2c-3.4,0.9-6.8,1.5-9.4,1.9c-3.6,0.6-7.1,0.6-10.6,0.1l-2.4-0.4c-2.3-0.4-4.7-0.7-7-1l-1.8-0.2
		c-1.3-0.2-2.5-0.3-3.8-0.5c-0.4-0.1-0.8-0.1-1.3-0.2c-0.7-0.1-1.4-0.3-1.8-0.2l0,0c-1,0.1-2.1,0.6-3.2,1c-1.9,0.8-4,1.6-6.4,1.3
		c-0.8-0.1-1.5-0.3-2.3-0.6c-9.8,7.4-20.2,11.5-29,13.3c-0.5,0.7-1.1,1.4-1.8,2c-1.5,1.3-3.6,2.2-5.8,2.5c-0.6,1.2-1.3,2.4-2,3.5
		c3,24.8-23.3,44.4-67,50c-43.7,5.4-74-7-77.3-31.8c-5.4-4.9-8.5-10.6-9.2-16.6l-13.4-106.7c-1.4,0-2.8-0.2-4.2-0.6
		C393.1,1216.7,394.5,1202,395.8,1189z M604.7,1286c0.6,0.1,1.2,0.2,1.8,0.1c2.9-0.3,7.9-2,9.8-2.6c1.6-0.5,3.2-1,4.8-1.2
		c0.8-0.1,1.7-0.1,2.6,0c0.7,0,1.8,0.3,2.4,0.1c0.3,0,0.6-0.1,0.9-0.2c0.1,0,0.2,0,0.3-0.1c0.2,0,0.4-0.1,0.7-0.2
		c0.1,0,0.2-0.1,0.4-0.1c0.2-0.1,0.4-0.1,0.6-0.2c0.1,0,0.3-0.1,0.4-0.1c0.1,0,0.2-0.1,0.3-0.1c0.2-0.1,0.3-0.1,0.5-0.2l-0.1,0.1
		h0.1c0.8-0.3,1.3-0.6,1.8-1.1c-0.1,0-0.2,0.1-0.3,0.2c0.4-0.3,0.8-0.7,1.2-1.1c0.2-0.2,0.3-0.4,0.5-0.6l0,0
		c0.3-0.4,0.6-0.7,0.9-1.1c2.1-2.6,4.1-5.3,5.3-8.4c0.5-1.2,0.3-2.8,0.2-4.1c-0.2-2.4-1.1-4.6-2.2-6.7c-0.4-0.9-0.9-2-1.7-2.5
		s-1.9-0.9-2.7-0.9c-2,0-4.1,0.6-6.1,0.9c-1.4,0.2-2.9,0.4-4.3,0.8c-1.4,0.3-2.6,1-4,1.4s-2.8,0.6-4.2,0.7c-0.3,0-3.8,0.5-3.8,0.5
		c0.4,0.5,2.6,0.2,3.2,0.2c1.5,0,3,0,4.4-0.2c1.8-0.2,3.5-1,5.3-1.4c1.6-0.4,3.2-0.8,4.7-1.1c1.4-0.3,3.8-1,5.1-0.2
		c1.1,0.6,1.9,1.8,2.6,2.9c1.9,3.3,2.5,6.4,1.6,10.1c-0.5,2.1-1.8,4.1-3.1,5.8c-0.3,0.4-2.6,2.8-2.8,2.6c-0.1-0.2,1-2.5,1.2-2.9
		c0.2-0.7,0.4-1.3,0.5-2c0.2-1.3,0.2-2.6,0.3-3.9c0.1-1,0-2-0.2-3c-0.3-1.2-0.6-2.5-1.1-3.6c-0.1-0.2-0.8-2-0.9-2
		c-0.3-0.1,0.2,1.2,0.2,1.3c0.2,0.6,0.4,1.3,0.6,1.9c0.2,0.8,0.5,1.8,0.5,2.6c0.1,1.3-0.1,3-0.4,4.2c-1.6-1-3.3-1.9-5.2-2.5
		c-1.2-0.4-2.6,0.2-3.9,0.4c-1.9,0.2-4-0.1-5.7,0.8c-0.8,0.4-1.7,0.9-2.5,1.5c-0.4,0.3-0.7,0.6-1,0.9s-0.6,0.4-0.9,0.6
		c-0.2,0.1-0.6,1-0.8,1.3c-0.3,0.5-0.4,1.1-0.6,1.7c-0.4,1.2-0.7,2.4-1.3,3.6c-0.5,1-1.2,2-2,2.9c-0.2,0.2-1.7,2-2.1,1.8
		c0.2,0.1,2.4-4.4,2.5-5c0.3-1.2,0.3-2.1,0.2-3.4c-0.2-2.1-0.1-3.9-0.9-5.9c-0.6-1.6-1.1-1.8-2.7-2.4c-1.3-0.5-2.5-1.1-3.8-0.6
		c-0.6,0.2-1.6,0.4-1.9,1c-0.3,0.5-0.2,1.4-0.2,1.9c-0.1,1.6-0.3,3.2,0,4.7c0.1,0.8,0.5,1.6,0.8,2.4c0.1,0.1,1.4,2.2,1.5,2.1
		c-0.2,0.3-2.6-2.7-2.7-2.9c-0.7-1-0.9-2.1-1.1-3.4c-0.3-1.7-0.5-3.5-0.6-5.3c-0.1-0.9-0.1-1.8,0-2.7c0-0.4,0.2-1.8,0.5-2
		c-1.5,0.7-0.9,3.3-1.9,4.2c-0.6,0.6-1.5,0.9-1.8,1.9c-0.2,0.5-0.1,1.2-0.1,1.7c-0.1,1.6-0.2,3.3,0,4.8c0.1,0.7,0.4,1.4,0.7,2.1
		c0.1,0.2,0.5,1.6,0.7,1.6c-0.4,0-1.1-1.7-1.3-2c-0.5-0.9-0.8-1.8-1-2.8c-0.4-1.9-1-3.7-1.1-5.6c-0.1-2.2,0.3-4.2,2-5.6
		c1-0.8,2.2-1.3,3.3-1.8c0.7-0.3,2.7-1.1,3.4-0.5c0,0.1-0.1,0.1-0.1,0.1s3.8,0,4,0.3c-0.2-0.5-1.8-0.8-2.3-1
		c-0.7-0.2-1.6-0.4-2.4-0.4c-1.6,0.1-3.4,1-4.8,1.5c-1.4,0.5-2.3,0.8-3.3,2c-0.7,0.8-1,1.3-1.2,2.4c-0.7,3.3-0.8,6.9-0.8,10.3
		c0,1.3,0.3,1.9,1.1,3.1c1,1.6,2.2,3.5,3.7,4.7c1.4,1.1,3.4,1.8,5.2,2.2c0.9,0.2,1.8,0.5,2.8,0.8c0.3,0.1,1,0.1,1.5,0.2
		C604.5,1286,604.6,1286,604.7,1286z M636.3,1228c-2.4,0.3-4.6,0.5-7.1,0.3c-1.1-0.1-2.1-0.1-3.2-0.3c-0.7-0.1-0.6-0.1-1,0.3
		c-0.3,0.4-0.6,0.8-0.9,1.2c3.3,0.1,6.5-0.2,9.7-0.2c1.4,0,3.3-0.2,4.6,0.6c1.2,0.7,2.2,1.8,3.1,2.9c1.2,1.5,1.6,3.8,1.8,5.7
		c0.3,2,0.3,4-0.4,5.9c-0.6,1.6-1.8,4.1-3.6,4.5c-1.5,0.3-0.7-2.2-0.6-3c0.2-1.9,0.5-3.7,0.4-5.7c0-1.1-0.3-2.2-0.6-3.2
		c-0.2-0.8-0.4-2.2-1-2.8l0.1,0.5c0,1.1,0.7,2.9,0.7,4.3c0,1.6,0,3.4-0.4,5c-1.6-1.9-3.6-3.3-6-4c-0.8-0.2-1.7-0.5-2.4-0.5
		c-1.2,0.1-2.4,0.4-3.6,0.5c-3.6,0.3-7.2,0-10.8,0.5c-1.2,0.2-2.2,0.4-3.3,0.9c-1,0.5-2.2,0.7-2.8,1.6c-0.7,1.1-1.3,2.3-1.9,3.5
		c-0.4,0.8-0.8,1.6-1.3,2.4c-0.3,0.5-0.9,2.2-1.6,2.2c-0.1,0,0-0.6,0-0.9c0.2-1.2,0.3-3.5,0.3-3.7c0-1.9-0.2-3.8-0.6-5.7
		c-0.4-1.7-0.6-3.5-1.2-5.2c-0.1-0.4-1.3-3.1-1.3-3.1c-0.3,0,0.1,1.4,0.1,1.5c0.3,0.9,0.4,1.8,0.4,2.7c0,1.7,0,3.4-0.1,5
		c-0.1,1.4-0.3,2.8-0.3,4.3c0,0.4-0.1,3.7-1.3,4.8c0,0,0-0.5,0-0.4c-0.1,0-0.1,0.1-0.1,0.1c-0.1-0.3,0.3-1.4,0.3-1.8
		c0.1-0.8,0.1-1.6,0.1-2.4c0-2-0.7-3.8-1-5.7c-0.3-1.7-0.4-3.3-0.8-4.9c-0.1-0.4-1.1-4.1-1.3-4.1c-0.3,0,0,2.6,0.1,2.7
		c0.1,0.6,0.5,1.9,0,2.2c-0.4,0.2-1.2-0.2-1.6-0.2c-0.4,0-0.5,0.1-0.9,0.2c-1.1,0.5-2.3,1.3-3.5,1.7c-0.5,0.2-0.6,0-1,0.4
		c-0.5,0.5-0.7,1.5-0.9,2.1c-0.3,1.4-0.1,2.8,0.2,4.2c0.3,1.5,0.9,2.8,1.6,4.2c0.2,0.5,1.2,3.4,1.8,3.8c-0.9-0.3-2.2-3.1-2.6-3.7
		c-0.8-1.2-1.4-2.4-1.9-3.7c-1.2-3-1.2-6.3-0.4-9.4c0.3-1.2,1-2,1.9-3c1.2-1.3,2.3-2.8,4-3.7c1.3-0.7,3-0.7,4.4-0.8
		c1.2-0.1,2.5-0.1,3.8-0.1c-0.4-0.8-0.1-1.3-1.1-1.4c-1.1-0.1-2.2,0.1-3.3,0.2c-1,0.1-2,0.3-2.9,0.6c-0.3,0.1-0.7,0.2-1,0.3
		c-0.9,0.3-1.4,0.7-1.4,0.7s-3.9,2.8-4.3,3.1c-1.3,1-1.7,2-2.3,3.5c-1.1,3.2-1.7,6.8-1.1,10.1c0.5,3.4,1.9,6.5,2.8,9.8
		c0.4,1.5,0.7,3.2,2.2,4c1.1,0.6,2,0.9,3,0.2c1.4-0.8,2.7-1.7,4.2-2.3c1.4-0.6,3-0.6,4.4-0.7c3.1-0.2,6.1-0.3,9.2-0.2
		c1.5,0,2.8,0.1,4.2-0.2c1.9-0.4,3.6-1.1,5.5-1.7c3.3-1.1,7-1.3,10.5-1.9s7.5-0.8,10.5-3c2.7-2,4.4-5.8,4.1-9.2
		c-0.2-2.7-1.1-5.9-2.6-8.2C641.7,1230.1,639,1227.7,636.3,1228z M637.1,1220c0.1,0.1-0.8,1.8-0.9,1.9c-0.3,0.6-0.5,1.1-0.9,1.6
		c-0.9,1-2.2,1-3.4,1.1s-2.4,0-3.6-0.1c-1-0.1-1,0.1-1.5,1c2.3,0.1,5,0.6,7.3,0.2c1.6-0.3,2.1-0.9,2.5-2.5
		C636.8,1222.3,637.2,1220.9,637.1,1220z M610,1212.9c-0.8,0.4-1.7,0.7-2.6,0.7c-0.6,0-1.1,0-1.7-0.2c-0.3-0.1-0.8-0.5-1.1-0.6
		c-0.1,0-1.4,9.1-1.4,9.8c-0.1,1.4-0.2,3.1,0.2,4.5c0.4,1.3,2,2,3.4,2.3c3.1,0.5,5.9-0.2,8.1-2.4c1.2-1.2,2.2-2.5,2.5-4.3
		c0.2-1.3,0.2-2.6,0.1-3.9c-0.2-2.2-0.6-4.2-1.5-6.2c-0.3-0.7-0.6-1.4-1.1-2c-0.4-0.6-0.4-0.6-0.9-0.3c-0.6,0.3-1.1,0.9-1.7,1.3
		C611.5,1212.1,610.7,1212.5,610,1212.9z M610.9,1208.6c-0.1-0.3-0.7-1.4-1.1-1.6c-0.5-0.2-1.7,0-2.1,0c-2.2,0.3-2.8,2-2.8,4.1
		c0,0.6,0,0.6,0.6,0.9c0.8,0.4,1.8,0.2,2.6,0C609.4,1211.5,611.4,1210.2,610.9,1208.6z M606.1,1169.1c-1.7-0.8-3.5-1.7-5.3-2.3
		c-0.9-0.3-7.9-1.2-7.9-1c0-0.5,1.9-0.9,2.3-1.1c1.2-0.5,2.4-0.9,3.6-1.3c2-0.6,4.2-1.2,6.4-1c-0.9-0.6-1.8-1.1-2.8-1.5
		c-1,0.3-2.1,0.6-3.1,0.9c-1.7,0.4-3.3,0.9-4.9,1.5c-3.7,1.4-6.6,3.8-9.5,6.4c-1.6,1.5-2.7,2.7-3.7,4.6c-0.9,1.7-1.7,3.5-2.3,5.3
		c-1.3,4.3-1.6,9.2,1.3,12.9c1.1,1.4,3.2,3,5,3.4c0.9,0.2,2.1,0.1,3,0.1c0.5,0,1,0,1.6-0.1c0.3-0.1,2.2-0.4,2.2-0.7
		c0.1-0.4-3.2-0.2-3.7-0.2c-1.4-0.1-3-0.2-4.3-1c-1.9-1.2-4.6-3.6-4.8-6.1c-0.1-1.3,0.1-2.9,0.2-4.2c0.2-1.5,0.3-2.9,1-4.3
		c0.8-1.7,2-3.3,3.3-4.7c0.7-0.8,1.5-1.6,2.3-2.3c0.6-0.5,1.3-1.5,2-1.8c0.1,0,0,0.6,0,0.5c-0.1,0.2-0.4,0.5-0.5,0.7
		c-0.6,0.8-1.1,1.5-1.6,2.3c-1.8,2.7-3.4,5.7-4,8.9c-0.2,0.9-0.4,2.3-0.2,3.2c0.4,1.2,2.5,1.9,3.6,2.1c0.6,0.1,1.6-0.1,2.1,0.2
		c0.4,0.1,0.3,0.3,0.4,0.7c0.2,0.6,0.3,1.1,0.5,1.7c0.1,0.3,0.5,1.1,0.5,1.3c0-0.2-0.3-1-0.1-1.1c0,0,0.3,0.9,0.3,1
		c0.1,0,0-0.3,0-0.3c0.2-0.6-0.3-2.2-0.3-3.2c0-2,0.2-4,0.8-5.9c0.5-1.6,1-3.3,1.4-4.9c0.3-0.9,0.5-1.8,0.8-2.7
		c0.1-0.2,0.2-1.3,0.5-1.5c0.7-0.5,0.2,1.9,0.1,2.2c-0.2,1.3-0.5,2.5-0.8,3.7c-0.6,2.3-0.6,4.9-0.1,7.3c0.3-0.1,0.6-0.2,1-0.3
		c0.1,0,1-0.6,1-0.6c0.1,0,1,3.2,0.9,3.3c0.1-0.5-0.2-1.5-0.2-2c0-1.1,0-2.2,0-3.3c0.1-2.6,0.3-5.2,0.9-7.8c0.4-1.8,0.2-2.9-0.9-4.4
		c-0.6-0.8-1.2-1.7-2-2.3c-0.3-0.3-0.7-0.4-1.1-0.6c-0.2-0.1-0.4-0.1-0.5-0.3l-0.2-0.5c0.3,0,3.7-0.1,4.2,0.1
		c-0.1,0-0.1-0.1-0.1-0.1c0.7-0.3,2.1,0.3,2.9,0.4c1.6,0.3,3.3,0.4,4.9,0.7c1.3,0.3,2.5,0.6,3.8,0.8c0.3,0.1,2.4,0.7,2.6,0.4
		C608.7,1170.4,606.2,1169.2,606.1,1169.1z M593.1,1223.2c0.6-1,1.1-2,1.4-3.1c0.5-1.8,0.7-3.8,0.9-5.6c0.2-1.8,0.6-4.1,0-5.8
		c-0.2-0.5-0.6-1.5-1.1-1.8c-0.2-0.1-0.5-0.1-0.7-0.2c-0.4-0.2-0.7-0.8-1.1-0.9c-2.4-0.9-2.9,3.7-3.3,4.9c-0.5,1.8-0.3,4-0.2,5.9
		c0,1.2-0.1,2.4,0,3.6c0,0.3,0,0.7,0.1,1c0,0.1,0.4,0.4,0.4,0.5c0,0.3-0.8-0.8-0.8-0.8c-0.3-0.7-0.6-1.4-0.9-2.1
		c-0.4-1.3-0.6-2.6-0.7-3.9c-0.1-1.2-0.3-2.3-0.6-3.5c-0.2-0.8,0.2-1.3-0.2-2s-1-2-1.9-1.4c-1,0.7-1.9,2.3-2.4,3.4
		c-0.3,0.7-0.8,1.4-1,2.1c-0.3,1-0.2,2.3-0.4,3.4c-0.1,1.3-0.4,2.8-0.2,4.1c0.1,0.6,0.3,1.3,0.6,1.8c0.2,0.5,0.4,0.9,0.7,1.4
		c0.2,0.3,0.7,0.9,0.7,1.3c0-0.1-1.1-1.2-1.2-1.3c-0.3-0.4-1-1.8-1.4-2v0.6c-0.3-0.5-0.5-1.6-0.6-2.2c-0.2-0.9-0.3-1.8-0.4-2.7
		c-0.1-1.6-0.4-3.1-0.3-4.7c0.1-1.6,0.4-2.7,1-4.2c0.8-2,1.3-3.9,2.8-5.4c2.2-2.2,5.1-3.6,8.1-4.1c1.6-0.3,3.2-0.4,4.9-0.5
		c0.6-0.1,1.2-0.2,1.9-0.1c0.3,0,2.1,0.5,2.3,0.3c0.1-0.1-0.2-1.1-0.3-1.2c-0.2-0.3-1-0.3-1.4-0.3c-1.1-0.2-2.2-0.4-3.3-0.4
		c-2.3,0-4.4,0.9-6.6,1.3c-0.9,0.1-1.7-0.1-2.5,0.3c-1,0.5-1.9,1.4-2.8,2.1c-1.5,1.3-2.7,2.7-3.5,4.5c-1.1,2.4-2.1,4.9-2.7,7.5
		c-0.6,2.7-0.2,5.5,0.2,8.2c0.4,2.4,2,5.2,3.4,7.1c0.8,1,1.8,2,2.8,2.7c0.9,0.7,2.2,1.9,3.2,1.3c2.5-1.5,4.1-4,6.9-5
		c1.6-0.6,3.1-0.9,4.8-1.2c1.2-0.2,2.6-0.8,3.9-0.3c0-0.5,0-0.9,0-1.4c-0.2-0.2-2.1,0.2-2.3,0.2c-1.1,0.1-2.1,0.2-3.2,0.3
		c-0.7,0.1-1.4,0.3-2.1,0.3c-0.4,0-1.8,0.4-1.9,0.1C592.1,1224.6,593,1223.4,593.1,1223.2z M585.8,1274.6c-0.1-3.2,0.7-6.5,1.4-9.4
		l0.3-1.1c0.1-0.3,0.2-0.7,0.2-1c-0.4-0.3-1-0.7-1.4-1.3c-0.4-0.6-0.7-1.2-1-1.7l-0.1-0.2c-1.1-2.1-1.9-4.2-2.6-6.6l-0.1-0.3
		c-0.6-2.2-1.3-4.6-1.5-7c-0.3-2.6-0.2-5.1,0.4-8c0.1-0.3,0.1-0.5,0.1-0.8c0.1-0.6,0.2-1.1,0.3-1.7c0-0.1,0.1-0.3,0.1-0.4
		c-0.2-0.1-0.3-0.1-0.5-0.2c-1-0.6-1.8-1.3-2.5-1.9c-2-1.8-3.9-4.5-4.9-7.1c-2.3-5.5-2.7-11.9-1.1-16.9c0.8-2.5,2-5.8,3.9-8.7
		c0.8-1.1,1.7-2.1,2.5-3l0,0c-1.8-1.5-4-3.6-4.9-6.3c-1.1-3.3-0.5-6.7,0-9.8l0.1-0.4c0.3-2.1,1-4.1,2-6.1c-2.9,3.8-5.9,8.3-8.8,13.4
		l11.7,92.5c2.4,2.7,5.6,5.2,9.6,5.2c0.4,0,1.1-0.1,1.9-0.4c-0.5-0.5-1-1-1.5-1.5c-1-1.1-1.5-2.2-1.9-3.2c-0.2-0.4-0.3-0.7-0.5-1.1
		C586.2,1277.9,585.9,1276.4,585.8,1274.6z M629.3,1153.2c-15.6-24.8-34.6-15.7-47.2-9.6c-1.2,0.6-2.3,1.1-3.4,1.6
		c-4.4,2-8.2,2.6-11.2,2.6c1,2.7,0.9,5.9,0.1,8.3c-0.3-1.3-1.9-3.3-4.5-5.5l1.8,14c3-0.1,3.2,2.2,3.5,8.2c1.5-2.6,3.3-5.6,1.7-10.3
		c0,0,5.4-0.8,8.8-1.3c3.5-2.8,11-6.7,18.8-5.7c1.1,0,2.2,0.1,3.3,0.3c5.2,1,9.8,4.5,13.7,10.4l0,0l3.9-1.7c-1-1.7-1.7-2.7-3-4.2
		c-2.7-3.1-5.9-5.8-9.7-7.3c-0.9-0.4-1.9-0.6-2.9-0.9l-1.5-0.3c-0.5-0.1-1-0.1-1.5-0.2c-2.1-0.2-4.2-0.1-6.3,0.2
		c-4.2,0.6-8.4,2-12.5,3.6c3.6-2.6,7.6-4.7,12-5.9c4.4-1.1,9.3-1.3,13.8,0.3c4.5,1.5,8.4,4.6,11.3,8.2c1.4,1.6,2.5,3.4,3.6,5.2
		c3.9-1.6,7.9-3.4,10.3-4.6C631.3,1156.7,630.3,1154.9,629.3,1153.2z M805.1,1195.3c-0.8,0.2-1.7,0.2-2.1,0.3
		c-2.5,0.5-4.9,1.2-7.4,1.7c-3.6,0.7-7.1,1.5-10.7,2.4c-3.3,0.8-6.7,1.2-10,1.8c-6.9,1.3-13.7,2.4-20.7,3.4
		c-5.6,0.8-11.2,1.7-16.9,1.9c-2.9,0.1-5.8,0.4-8.8,0.6c-3.4,0.1-6.8,0-10.1-0.1s-6.7-0.3-9.8-1.5c-1.6-0.6-3-1.5-4.4-2.5
		c-0.2-0.1-2.7-2-2.7-2.1c-0.2,0.2,2.5,2.9,2.7,3.2c1.3,1.2,2.8,2,4.3,2.8c3.1,1.8,6.7,2.4,10.2,2.7c3.8,0.4,7.6,0,11.4-0.2
		c3.4-0.2,6.7-0.5,10.1-0.8c4.6-0.5,9.2-1.1,13.7-1.9c3.3-0.6,6.7-0.9,10-1.5c2.7-0.5,7-1.3,9.7-1.6c4.5-0.5,8.9-1.8,13.3-2.6
		c3.6-0.7,7.3-1.4,10.9-2c2.6-0.5,5.5-0.6,8.1-1.3C805.6,1196.9,805.4,1196.1,805.1,1195.3z M623.2,1300.3c1.7-0.3,3.4-0.6,5.1-1.2
		c1.5-0.5,2.9-1,4.5-1.2c0.8-0.1,10.5-0.6,10.5-0.5c0,0-8,2.3-8,2.4c0.2,0.2,1.2,0.3,1.5,0.3c0.9,0.2,1.7,0.3,2.6,0.4
		c1.7,0.2,3.3,0.5,5,0.7c2,0.3,3.9,0.7,5.9,0.8c1.5,0.1,3.1-0.3,4.6-0.6c3.3-0.6,6.8-0.9,10-1.8c1.6-0.5,3.1-1.1,4.7-1.6
		c1.8-0.6,3.7-1,5.5-1.6c3.9-1.2,7.9-1.7,11.8-2.6c3.1-0.7,6.2-1.5,9.3-1.9c3.2-0.5,6.5-0.7,9.8-1.1c3-0.4,6.1-0.6,9.1-0.5
		c13.4,0.3,26.8,1.4,40.2,2.3c11.3,0.8,22.5,1.1,33.8,1.8c3.7,0.3,7.5,0.7,11.2,0.6c1.5,0,3.1-0.2,4.6-0.1c1.2,0.1,2.4,0.3,3.6,0.5
		c0.4,0.1,1.7,0.1,2.6,0.2c1.8-11.6,1.2-53.2-2.3-80.5c-0.5,0.2-1.2,0.2-1.5,0.3c-1.8,0.5-3.5,1.1-5.4,1.5
		c-3.9,0.7-7.9,1.4-11.9,2.1c-4.1,0.7-8.3,1.2-12.4,2.1c-2.4,0.5-4.8,0.8-7.2,1c-3,0.3-5.9,0.8-8.9,1.3c-2.6,0.4-5.3,0.6-7.9,0.7
		c-1.5,0-3,0.1-4.4,0.1c-0.4,0-1.6,0.3-1.9,0c0.1,0.1,2.4-0.6,2.6-0.7c1.6-0.4,3.2-0.9,4.7-1.3c3.7-1.1,7.4-2.1,11.2-3
		c2.4-0.6,4.8-1.2,7.2-1.9c1.4-0.4,2.7-0.8,4.1-1.3c0.1,0,2.5-1,2.6-0.9c-0.3-0.3-3,0.6-3.3,0.7c-1.3,0.3-2.5,0.6-3.8,0.8
		c-3.5,0.6-7,0.9-10.5,1.4c-5.8,0.8-11.4,2.6-17.3,3c-2.5,0.2-5,0.2-7.6,0.2c-3.2,0-6.5-0.3-9.7,0.2c-1,0.1-2,0.3-2.9,0.5
		c-0.6,0.1-1.2,0.4-1.7,0.8c-2.6,2-5.1,4.1-6.9,6.9c-2.3,3.6-4.1,7.7-5,12c-0.4,1.9-0.6,3.8-0.9,5.7c-0.1,0.8-0.2,1.5-0.3,2.3
		c0,0.3,0,1.2-0.2,1.3c-0.2,0.1,0-0.6,0-0.6c0-0.6,0-1.2-0.1-1.8c-0.1-1.3-0.5-2.7-0.6-4c-0.2-2.1-0.1-4.1,0-6.2
		c0.1-1.5,0.7-3,1-4.5c0.2-1.1,0.4-2.2,0.5-3.3c0-0.3,0.4-1.8,0.2-2c0.1,0.1-0.7,1.9-0.8,2c-0.3,0.8-0.6,1.7-1,2.5
		c-0.8,1.9-1.7,3.7-2.5,5.6c-1.3,3.1-2.3,6.4-2.8,9.7c-0.5,3-0.1,5.9-0.3,8.9c-0.1,1.3-0.3,2.7-0.2,4.1c0.2,1.9,0.6,3.8,0.4,5.7
		c-0.2,2.2-0.8,4.3-1.4,6.4c-0.2,0.6-0.5,1.2-0.7,1.8c-0.1,0.1-0.4,2.1-0.5,2.1c-0.4-0.2-0.3-1.7-0.3-2c0-1,0.1-1.9,0.3-2.9
		c0.3-2,0.2-3.8,0-5.8c-0.4-4.1-1.2-8.2-1.7-12.4c-0.3-2.2-0.6-4,0.1-6.2c0.7-2,1.2-4,1.9-6c1.2-3.1,2.6-6,3.1-9.3
		c0.4-2.1,0.9-4.2,1.1-6.4c0.1-1.1,0.3-2.4,0.2-3.5c0-0.5-0.3-2.2-0.9-2.2c0.4,0-0.9,7.2-1.1,7.8c-0.6,2.9-1.2,5.6-2.2,8.4
		c-1.3,3.6-3.1,7.2-3.7,11c-0.7,3.8,0.5,7.7,0.7,11.5s0.3,7.6,0.4,11.4c0.1,1.3,0,2.6-0.3,3.9c-0.4,1.8-0.9,3.4-1.4,5.1
		c-0.4,1.3-0.6,2.8-1.1,4.1c-0.2,0.7-0.6,1.3-0.9,1.9c-0.1,0.2-0.3,1.4-0.4,1.4c-0.6,0.2-0.6-1.9-0.6-2c-0.1-1.1-0.2-2.2-0.5-3.3
		c-0.3-1-0.7-2.1-1.4-3c-0.2-0.3-0.9-1.1-1.3-1.2c-0.5-0.1-1.5,0.4-2.1,0.5c-1.1,0.1-2.2,0-3.2,0c-0.4,0-4-1.1-3.7-1.4
		c0,0,2,0.5,2.2,0.6c0.6,0.1,1.2,0.1,1.8-0.1c1.2-0.3,2.2-0.9,3.3-1.5c0.6-0.3,1.3-0.6,1.8-1.1c0.4-0.3,1.7-2.1,2.1-2.1
		c0,0.1,0,0.1,0,0.2c0.1-0.1,1.3-1.7,1.3-1.7c-0.1-0.1-3.9,2.6-4.3,2.8c-1.9,1.2-3.7,1.3-5.9,0.8c-2.3-0.5-4.5-1.8-6.5-3
		c-1-0.7-2-1.4-3-2.1c-0.4-0.3-1.7-1.5-2-1.5c0.3,0,0.7,0.4,0.9,0.5c0.4,0.2,0.9,0.5,1.3,0.7c1.1,0.5,2.2,1,3.3,1.5
		c1.5,0.7,2.6,1,4.3,1.2c2.3,0.2,4.5,0,6.4-1.4c0.9-0.7,1.7-1.6,2.3-2.6c0.2-0.2,1.5-1.9,1.3-2.1c0.1,0.2-2.2,2.2-2.5,2.4
		c-0.8,0.6-1.6,1-2.4,1.4c-0.3-1.1-0.1-2.1-0.2-3.2c-0.1-1.4-0.5-2.7-0.9-4c-0.3-0.9-0.9-1.6-1.6-2.3c-0.2-0.2-2.2-2.1-2.2-2.1
		c1.2-0.8,2.6-1.2,3.8-2.2c1-0.8,1.9-1.7,2.8-2.7c0.8-0.9,1.5-1.8,2.3-2.7c0.3-0.3,0.8-1.4,1.1-1.5c-0.6,0.4-1.2,1.3-1.7,1.8
		c-0.7,0.7-1.5,1.3-2.3,1.9c-1.7,1.3-3.7,2.2-5.7,3.1c-1.5,0.6-2.9,1-4.5,1c-1.1,0-2.3-0.2-3.4-0.4c-0.3,0-2.8-0.8-2.9-0.8
		c0.6-0.5,2.3-0.4,3.1-0.4c1.3-0.1,2.5-0.4,3.5-1.1c1.2-0.8,2.3-1.8,3.1-3.1c0.6-1,1.3-2.5,0.9-3.6c-0.1-0.1-3.9,0.7-4.3,0.6
		c-0.1,0-1-0.3-1-0.3c0-0.1,2.2-0.8,2.4-0.9c1.3-0.7,2.5-1.5,3.6-2.4c1.3-1.1,2.4-2.4,3.4-3.8c0.1-0.2,1.9-3,1.7-3
		c-0.3,0-1.3,1.2-1.5,1.4c-0.6,0.5-1.2,1.1-1.9,1.6c-1.2,0.9-2.5,1.7-3.8,2.5c-1.7,1-3.7,1.5-5.6,1.9c-1,0.2-2,0.2-3,0.3
		c-0.5,0-2.1,0.2-2.6-0.1c0,0,1.7-0.5,1.9-0.5c0.9-0.3,1.9-0.6,2.7-1c1.3-0.6,2.6-1.4,3.7-2.3c2.3-1.7,4.8-3.6,5.6-6.5
		c0.7-2.6,0.9-5.1,0.2-7.7c-0.7-2.8-1.6-5.7-3.2-8.1c0.1,0.2-8.2,5.5-9,6c-1.9,1-4.1,1.7-6.2,2.1c-1,0.2-2,0.4-2.9,0.6
		c-0.3,0-1.5,0.4-1.7,0.2c0,0,1.8-0.5,1.9-0.6c0.6-0.2,1.4-0.8,1.8-1c1.8-1,3.9-1.6,5.6-2.9c2.1-1.6,4.1-3.5,5.8-5.5
		c1.7-1.9,3.5-4.2,4.2-6.6c0.6-1.8,0.9-3.9,1.1-5.8c-0.8,3.3-2.5,6.8-5.1,9.1c-1.1,1-2.2,1.8-3.4,2.7c-0.8,0.5-2,1.4-2.9,1.8
		c-0.4,0.2-0.8,0.4-1.1,0.3c0.2,0,1.3-1.2,1.5-1.4c0.6-0.6,1.2-1.1,1.7-1.7c1-1.1,2-2.3,2.8-3.5c1.3-1.8,1.3-4.6,0.5-6.6
		c-0.6-1.3-1.4-2.5-2.2-3.7c-0.3-0.5-0.7-1.1-1-1.6c-0.3-0.4-1.1-1-1.2-1.5c-0.1-0.5,0.7-1.8,0.9-2.3c0.5-1.4,0.9-2.8,1.3-4.2
		c-0.8,0.5-1.2,1.7-1.7,2.5c-0.4,0.7-0.9,1.3-1.5,1.9c-1.2,1.4-2.7,2.5-4.2,3.5c-1.7,1.2-3.5,2.6-5.5,3.5c-0.6,0.3-1.2,0.5-1.9,0.7
		c-0.4,0.2-0.8,0.3-1.2,0.4c-0.2,0.1-0.9,0.1-1,0.2c0.3-0.3,0.9-0.5,1.2-0.7c0.5-0.3,1-0.7,1.5-1.1c1.1-0.8,2.3-1.6,3.4-2.6
		c1.1-1,2.1-2.1,3.1-3.2c0.9-1.1,1.4-1.5,0.5-2.7c-0.3-0.5-0.7-1-1-1.4c-0.3-0.3-0.8-0.6-1-0.9c-0.3-0.5,0.6-1.7,0.9-2.4
		c0.4-0.8,0.7-1.6,0.9-2.4c0.1-0.4,0.8-1.2,0.8-1.4c0-0.3-0.6,0.5-0.5,0.4c-0.3,0.4-0.6,0.9-0.9,1.4c-0.4,0.7-0.9,1.4-1.4,2
		c-1.2,1.5-2.6,2.8-4,4.1c-1.4,1.2-3,2.4-4.7,3.3c-0.7,0.4-1.4,0.7-2.1,1c0,0-1.6,0.6-1.3,0.1c0,0.1,0.5-0.1,0.6-0.1
		c0.5-0.3,1-0.8,1.5-1.2c1-0.9,2-1.9,2.9-2.8c1.4-1.3,3-2.6,3.7-4.5c0.4-1,0.6-2.3,0.6-3.3c0-0.9-0.6-1.8-0.4-2.6
		c0.4-1.7,1.8-3.2,2.8-4.6c-1.7,1.3-3.6,2.4-5.5,3.5c-1.3,0.7-2.5,1.4-3.8,2.1c-0.4,0.2-2,1.4-2.6,1.2c0.2,0,2.4-2.3,2.7-2.5
		c1-0.9,2.7-1.9,2.2-3.5c-0.1-0.4-0.6-0.8-0.7-1.2c-0.1-0.5,0.3-0.9,0.4-1.3c0.3-0.8,0.4-1.6,0.5-2.4c0-0.3,0.4-2.3,0.1-2.5
		c0.1,0.1-0.4,1.8-0.4,1.9c-0.3,0.9-0.6,1.8-1.1,2.6c-0.6,1.1-1.1,2.1-1.9,3c-1.2,1.4-2.6,2.6-3.7,4c-0.3,0.3-2.2,3.5-2.4,3.5
		c0.1,0,1.1-2.8,1.3-3.1c0.4-0.9,0.9-1.8,1.5-2.7c1-1.6,3-3.9,2.7-6c-0.1-0.5-0.6-1.5-1.1-1.1c-0.3,0.3-0.5,1.2-0.7,1.6
		c-0.3,0.6-0.6,1.2-1,1.7c-0.4,0.6-0.9,1.2-1.4,1.7c-0.1,0.1-0.8,1.1-1.1,1.3c0.4-0.4,1.4-3.3,1.6-3.6c0.4-1.3,0.7-2.6,1-3.9
		c0.2-0.8,0.7-7.7,0-7.7c0.2,0-0.5,3.2-0.6,3.5c-0.1,0.5-0.4,3.3-0.9,3.4c0,0,0-1.7,0-1.8c0-0.5-0.2-1-0.4-1.4
		c-0.3-0.8-0.8-2.6-1.6-3c-0.2-0.1-0.3,0.1-0.4,0c-0.2-0.1-0.4-0.3-0.6-0.4c-0.5-0.4-1-0.6-1.6-0.7c-1.1-0.2-2.2,0-3.3,0
		c-1.7,0-3.4-0.2-5,0.2c-0.7,0.2-1.3,0.4-2,0.3c-0.1,0-0.1-0.2-0.2-0.3c-0.3-0.1-0.5,0.1-0.8,0c-0.3,0-0.6-0.2-0.9-0.2
		c4.1-1.1,7.7-3.6,11.8-4.7c3.7-1,8.1-1.8,11.9-1c3.5,0.8,6.4,4.2,8.7,6.6c2.4,2.5,5,5.1,6.7,8.2c2,3.5,2.1,7.8,1.9,11.7
		c0.7-1.2,1.2-2.5,1.4-3.9c0.1-0.8,0.2-1.7,0.2-2.5c0-0.2-0.3-2-0.3-2.1c0,0,5.6,5.4,6.1,5.9c2.1,1.9,4.1,3.9,6,6
		c2.2,2.4,4.3,4.7,6.3,7.2c2,2.6,2.9,5.3,2.9,8.6c0,1.9-0.2,3.9-0.6,5.8c-0.1,0.3-0.4,3-0.7,3.3c0.3-0.3,0.9-2.1,0.9-2.3
		c0.5-1.3,0.9-2.7,1.2-4.1c0.1-0.5,0.6-4.7,0.4-4.7c0.4,0,1.3,3,1.4,3.5c0.5,1.8,0.6,3.7,0.8,5.6c0.3,2.9,0.1,5.9-0.4,8.8
		c-0.5,3.1-1.2,6.2-2.1,9.3c-0.5,1.8-1,3.6-1.7,5.3c-0.1,0.2-1.2,3.2-1,3.2c0.1,0,0.8-1.7,0.9-1.8c0.4-0.7,0.7-1.5,1-2.2
		c0.8-1.8,1.4-3.7,1.9-5.7c1.1-4.1,2.2-8.2,2.7-12.5c0.8-7.1-0.8-14.8-5.6-20.3c-2.2-2.6-4.7-4.9-6.8-7.5c-2-2.5-4.5-4.4-6.8-6.6
		c-2.6-2.5-5-5.2-7.5-7.9c-2.1-2.3-4.1-4.7-6.3-7c-2.3-2.5-4.4-5.4-7.2-7.4c-3-2.2-6.1-3.4-9.8-3.1c-4.3,0.3-8.6,0.8-12.5,2.9
		s-8.1,3.8-12.2,5.6c-4.9,2-9.7,4-14.6,6c-1.4,0.5-2.7,1.2-4,1.9c-2.6,1.5-5.3,3.1-6.8,5.8c-1.5,2.7-1.5,5.4-1.5,8.4
		c0,3.9,2.1,7.3,2.4,11.2c0.4,5.3,0.1,10.7,0.3,16c0,0.8,0,1.6,0.1,2.5l0.1,1.2c0.5-0.5,0.3-2.5,0.4-3.2c0.2-1.2,0.5-2.5,0.6-3.8
		c0.2-1.6,0.2-3.8,1.2-5.2c0.8-1.2,2.3-1.4,3.7-1.5c1.7-0.2,3.3,0.4,5,0.9c1.8,0.5,3.4,1.4,4.4,3.1c0.9,1.5,1,3.4,1.1,5
		c0,0.4,0.7,5.5,0.7,5.6c0-0.1,0.1-0.1,0.1-0.2c-0.1,0-0.1,4.2-0.1,4.2c0.8,0,0.8-8.6,0.8-9.5c0-1.5-0.5-3.1-1.1-4.5
		c-0.6-1.6-1.7-2.5-2.8-3.7h0.1c0-0.1-0.6-0.8-0.6-0.8c1,0,2.4,1.8,3,2.4s1.2,1.3,1.8,2.1c0.1,0.1,1,1.5,1,1.5
		c0.6-1,0.7-2.7,0.9-3.8c0.2-1.4,0.5-2.5,0-3.7c-0.6-1.5-1.5-3.2-2.9-4.1c-1.6-1-3.6-1.7-5.4-2.2c-0.1,0-1.4-0.2-1.4-0.4
		c0.1-0.3,1.7,0,1.9,0.1c1.3,0.2,2.7,0.4,4,0.7c1.6,0.5,3.1,1.1,4.5,1.9c0.8,0.4,1.5,0.9,2.2,1.4c0.3,0.2,1.8,1.2,1.8,1.4
		c0-0.4-1.1-1.6-1.3-1.9c-0.5-0.6-0.9-1.2-1.5-1.7c-0.5-0.4-1.6-0.9-1.9-1.5c-0.2-0.3,0-0.8,0-1.2c0.1-2.8,0-5.6,0.3-8.4
		c1.2,0.7,2.5,1.3,3.5,2.2c1.3,1.1,2.5,2.3,3.5,3.6c1.1,1.3,1.7,3.3,2.2,5c0.7,2.1,0.4,4.5,0,6.6c-0.4,2.3-1,4.5-2,6.6
		c-0.9,2-1.7,4.1-2.7,6.1s-2.1,3.9-3.4,5.8c-1.3,1.9-2.5,4-4.2,5.6c-2,1.8-4.6,2.9-7.2,3.2c-1.5,0.1-3,0-4.5-0.4
		c-0.8-0.2-1.4-0.6-2.1-0.8v0.1c-0.1,0-0.3-0.3-0.4-0.3c-0.1,0,0.5,0.5,0.5,0.5c0.4,0.3,0.9,0.5,1.3,0.7c0.7,0.4,1.5,0.7,2.3,0.9
		c1.1,0.3,2.4,0.3,3.5,0.3s2.4-0.2,3.5-0.6c0.8-0.3,2.6-1.5,2.7-1.5c1.4-0.7,2.7-2.8,3.7-4.1c0.6-0.8,1.2-1.7,1.7-2.6
		c2.9-5,5.3-9.9,7.3-15.3c1.5-4.2,1.8-8.4,0.4-12.8c-1.2-3.9-4.2-7-7.5-9.2c-2.1-1.4-4.3-2.8-6.5-3.8c-0.4-0.2-6-2.3-6-2.1
		c0-0.4,5.9,0.8,6.4,1c1.1,0.3,2.1,0.7,3.2,1c0.5,0.2,1,0.3,1.4,0.5c0.5,0.2,0.9,0.6,1.4,0.8c0.5,0.2,0.3,0.3,0.9,0
		c0.5-0.2,0.8-0.7,1.3-1c0.6-0.3,0.2-0.4,0.8,0.1c0.4,0.3,0.7,0.7,1,1c0.8,0.9,1.4,1.8,2,2.9s1.1,2.2,1.6,3.4c0,0.1,0.6,1.5,0.6,1.4
		c0.2-0.3-0.1-1.1-0.2-1.4c-0.2-0.7-0.3-1.5-0.5-2.2c-0.2-1-0.5-2.1-0.9-3.1c-0.6-1.6-2-2.9-3.2-4.1c-0.7-0.7-8.1-5.1-8.3-4.9
		c0.2-0.3,4.6,1.2,5,1.3c1.8,0.6,3.5,1.6,5.4,2.1c1.8,0.4,3.5,0.4,5-1c0.7-0.7,1-1.5,1.4-2.3c0.1-0.2,0.7-1.7,0.9-1.7
		c-0.1,0,0.7,6.4,0.7,6.7c0.1,1.3,0,2.7-0.2,4c-0.1,0.8-0.2,1.6-0.2,2.5c0,0.2,0.3,2.2,0.3,2.3c0.3-0.3,0.3-1.4,0.3-1.7
		c0.1-0.7,0.3-1.5,0.4-2.2c0.2-1,0.3-2.1,0.4-3.2c0.2-2.1,0.1-4.3,0.9-6.3c0.3,3.3,1.8,6.8,4.4,8.9c0.5,0.4,1.4,0.7,1.3,1.4
		c-0.1,0.6-1,1.3-1.4,1.7c-0.7,0.8-1.5,1.4-2.1,2.2c-0.3,0.3-0.9,1.1-1,1.5c0-0.3,2.5-1.4,2.8-1.6c1.2-0.6,2.4-1.1,3.6-1.5
		c2-0.6,4.2-1.1,6.3-1.2c-4.9,0.9-8.8,4.1-12.2,7.6c-1.8,1.8-3.4,3.2-3.2,5.9c0.1,1,0,2.8,1.3,2.6c0.4-0.1,3.7-1.7,3.7-1.8
		c0.1,0.2-1.3,1.5-1.5,1.8c-0.7,0.9-1.3,1.8-1.9,2.8c-0.2,0.4-1.2,2-1,2.3c0.2,0.5,0.5-0.1,0.8-0.5c1.2-1.4,2.6-2.5,3.8-4
		c0.6-0.7,1.2-1.4,1.7-2.1c0.2-0.3,0.6-1.5,0.9-1.6c-0.1,0-0.5,1.7-0.6,1.8c-0.4,1-0.7,1.9-1.2,2.9c-0.8,1.6-2.1,3-2.8,4.7
		c-0.8,1.7-1,3.5-1.4,5.3c-0.1,0.3-0.6,2.1-0.2,2.4c0.3,0.2,1.9-0.1,2.2-0.1c1.6,0,3.4,0.2,4.9-0.9c0.7-0.5,1.3-1.2,1.9-1.7
		c1.3-1.1,2.4-2.3,3.8-3.3c0.9-0.7,2-1.2,2.8-1.7c0,0,1.2-0.8,1.2-0.7c0,0.2-1.6,1.3-1.8,1.6c-0.8,0.8-1.5,1.7-2.2,2.7
		c-1,1.5-1.7,3.3-2.9,4.6c-1.4,1.5-3.1,1.5-4.9,2.2c-2.1,0.9-1.2,2.5,0.1,3.6c1.6,1.3,3.1,2.5,3.8,4.6c0.7,2,1.2,4.1,1.8,6.1
		c0.4,1.2,0.9,2.3,1,3.5c0.2,1.3,0.2,1.9,1.1,2.8c1.7,1.8,3.9,3.3,5.9,4.8c1.9,1.4,4,2.1,6.1,3.1c1,0.5,1.9,1,2.9,1.3
		c0.2,0.1,2.5,0.8,2.5,0.8c-0.6,0.5-3.2-0.5-3.9-0.6c-1.6-0.3-3.3-0.6-4.8-1.1c-2.6-0.8-4.9-2.2-7.5-3.1c-1.1-0.4-2-0.9-3-1.5
		c-0.3-0.2-2.2-1.7-2.6-1.5c-0.2,0.1,3.5,3.4,3.8,3.6c1.7,1.3,3.5,2.4,5.3,3.5c1.4,0.8,2.8,1.6,4.2,2.3c0.6,0.3,3.6,2.3,3.8,2.1
		c-0.2,0.2-1.3-0.2-1.5-0.2c-0.8-0.1-1.5-0.2-2.3-0.3c-1.1-0.2-2.1-0.3-3.2-0.6c-0.5-0.1-4-1.5-4.1-1.3c-0.2,0.2,0.5,2.1,0.6,2.4
		c0.3,1.1,1,1.7,1.8,3.1c0.9,1.6,2.1,2.9,3.3,4.3c1.2,1.3,2.1,2.8,3.2,4.2c0.9,1.1,2.1,1.9,3.1,2.8c0.6,0.6,5.9,6.3,5.3,6.8
		c0.1-0.1-3.6-3-3.9-3.2c-1.7-1.2-3.4-2.2-5.1-3.4c-0.7-0.5-7.7-6.1-7.4-6.4c-0.2,0.2,4.8,6.2,5.2,6.7c0.8,0.9,1.7,1.8,2.7,2.6
		c0.8,0.7,1.9,1.3,2.4,2.2c0.5,1,0.7,2.2,1.1,3.3c0.3,1,0.8,2,1,3.1s0.3,2.1,0.9,3c0.4,0.6,0.7,1.1,1,1.7c0.1,0.3,0.4,1.5,0.7,1.7
		c-2.4-1.5-4.7-3-6.1-5.6c-0.9-1.5-1.3-3.4-2.5-4.6c-0.9-1-1.8-2-2.8-2.9c-1.7-1.5-3.3-3.2-5-4.6c-1.3-1.1-2.5-2.3-3.9-3.3
		c-0.5-0.3-1.5-1.4-2-1.3c0.6-0.1,2.3,2.5,2.5,2.8c1.1,1.4,2.5,2.7,3.6,4.1c0.9,1.1,1.6,2.4,2.2,3.7c0.3,0.6,0.7,1.3,1,1.9
		c0.1,0.3,0.5,0.8,0.5,1c0-0.2-1.2-1.1-1.3-1.2c-0.7-0.6-1.3-1.2-2-1.8c-1.5-1.3-3.1-2.7-5-3.4c-1-0.4-2.2-0.4-3.1,0.1
		c-1.1,0.5-1.5,1.4-2.2,2.5c-0.9,1.4-1.7,3-3,4.1s-2.9,1.9-4.3,2.9c-4.1,7-9,12.8-14.1,17.6C622.9,1300.3,623.1,1300.3,623.2,1300.3
		z M580.4,1314.8c0.5,0.3,1.2,0.5,2,0.3c1-0.2,2.1-0.9,3.1-1.9c0.9-1.1,1.7-2.5,2.3-4s1-3.2,1.3-4.9c0.4,1.7,0.8,3.4,0.9,5.2
		c0.1,1.4,0,2.9-0.3,4.4c6.7-1.7,14.4-4.9,21.8-10.1c3.1-2.6,5.4-4.1,7.9-7.7c1.5-2.1,2.7-5,3.3-7.5c0.1-0.6,0.8-2.3,0.4-2.7
		c-0.4-0.5-2.5,0.3-3.1,0.4c-2.4,0.3-5.7,0.9-8.1,1.5c-0.7,0.2-7.5,1.7-9.7,2c-4.3,3.3-8.8,6.2-12.7,8.4c-0.5-1.8-3.7-7.5-7.1-9.5
		c-2.3-1.2-4.3-2.9-6-4.6C577.6,1293.6,579.4,1308.3,580.4,1314.8z M547.9,1105.3c-0.3-2.3-2.4-4.3-6.1-6.1c0.1,0.4,0.1,0.7,0.2,1.1
		c0.5,3.4-0.2,6.3-2.5,9c-1.2,1.7-3.5,3.4-6.7,5.2c-6.9,3.8-17.9,7.4-34.3,11.5c-6.8,3-8.8,6.8-11.5,12.1c-2,4-4.6,9.1-9.9,14.3
		l-0.1,0.1v0.2c-0.5,3.2-3,5.6-6.2,6c-0.5,0.1-1,0.1-1.5,0h-0.2l-0.2,0.1c-5,3.5-9.3,6.1-12.7,8c9.3,0,18.5-0.7,26.5-1.8
		c40.8-5.9,51.4-15.9,51.4-15.9s-3.4,1.8-5.6,2.3c-0.2-2.2-1.1-9.5-2.7-16.2c-0.8-3.3-2.9-8.3-4-10.7c2.6-1,5-1.9,7.1-2.8
		c4.7,6.8,7.1,22.5,7.5,25.6c1.9-1,3.8-2.6,5.6-4.2c-0.2-1.8-1-7.8-2.8-14c-1-3.4-3.6-8.6-4.4-10.2c8.2-4.1,9.8-6.5,11.1-8.3
		c1.7-2.2,2-5.1,2-5.1l0,0L547.9,1105.3z M555.9,1158.6c-0.3-2-2.1-7.4-6-7.1c-5.8,0.7-6.3,10.3-6.4,12.2c3.7-13.3,10.2-5,11.9,8.6
		l14.9,118.5c0.7,5.9,0.1,12.5-4.2,13.1c-4.4,0.6-6.4-4.2-6.4-4.2s2.2,6.9,7.1,6.2c3.4-0.4,7.4-2.6,6.1-13.2L555.9,1158.6z
		 M543.5,1168.4c0.7,10.5,1.6,21,2.7,31.5c1.1,10.5,2.3,21,3.5,31.4l2,15.7c0.7,5.2,1.4,10.5,2.2,15.7c1.5,10.4,3.1,20.9,5,31.2
		c-0.7-10.5-1.6-21-2.7-31.5c-0.5-5.2-1.1-10.5-1.7-15.7l-1.9-15.7c-1.3-10.5-2.7-20.9-4.2-31.3
		C547,1189.2,545.4,1178.8,543.5,1168.4z M457.3,1362.4c1.4,3.2,8.8,6.8,12.1,7.6c10.9,2.7,24.3,2.9,41,0.8
		c23-2.9,37.3-8.1,48.1-16.5c2.1-1.6,6-5.4,5.8-8.1c0,0,0,0,0-0.1c-0.1-1-1.2-1.5-2-1c-12,7.9-29.5,14.3-52.9,17.3
		c-20.9,2.6-38,1.4-51.1-2.3C457.3,1360.2,456.9,1361.5,457.3,1362.4z M429,1327.7c0.6,4.7,2.9,9.2,6.9,13.2l1.5,1.3
		c6.3,5.6,15.3,9.6,26.3,11.8c0.1,0,0.2,0,0.3,0.1c2.1,0.4,4.3,0.8,6.6,1.1c0.1,0,0.1,0,0.2,0c0.8,0.1,1.5,0.2,2.3,0.3l0,0
		c2.4,0.3,4.8,0.5,7.4,0.6c0.1,0,0.2,0,0.3,0c1.6,0.1,3.3,0.1,4.9,0.1h0.1c0.8,0,1.5,0,2.3,0c0.3,0,0.7,0,1,0c1.1,0,2.2,0,3.3-0.1
		c0.6,0,1.2,0,1.8-0.1c0.6,0,1.1-0.1,1.7-0.1c0.8,0,1.6-0.1,2.4-0.2c0.4,0,0.8,0,1.2-0.1c1.2-0.1,2.4-0.2,3.7-0.3
		c0.4,0,0.7-0.1,1.1-0.1c1.3-0.1,2.6-0.3,4-0.4c1.3-0.2,2.7-0.4,4-0.6c0.4-0.1,0.7-0.1,1.1-0.2c1.2-0.2,2.4-0.4,3.6-0.6
		c0.4-0.1,0.8-0.1,1.1-0.2c0.8-0.1,1.6-0.3,2.4-0.5c0.6-0.1,1.1-0.2,1.7-0.3c0.6-0.1,1.2-0.3,1.8-0.4c1.1-0.2,2.2-0.5,3.2-0.7
		c0.3-0.1,0.7-0.2,1-0.2c0.8-0.2,1.5-0.4,2.2-0.6c0,0,0,0,0.1,0c1.6-0.4,3.2-0.9,4.8-1.4c0.1,0,0.2-0.1,0.3-0.1
		c3.2-1,6.3-2.1,9.2-3.2h0.1c2.2-0.9,4.2-1.8,6.2-2.7c0.1,0,0.1-0.1,0.2-0.1c10.1-4.9,17.9-11,22.6-18l1.1-1.7
		c0.8-1.4,1.5-2.9,2.1-4.3c-0.4-0.3-0.6-0.8-0.7-1.3c-0.1-0.3-0.1-0.6-0.2-1c0,0.6-0.1,1-0.1,1s-12.6,18.9-40.3,27.6
		c-32.5,10.2-48.1,2.7-48.1,2.7c34.5-2.9,71.7-11.4,87.2-39.6c-0.2-1.7-0.5-3.6-0.7-5.5c-5.6,9.8-14.7,18-25.5,24.4
		c4.3-4.9,3.9-12.2,4.2-15.8c-1.2,4.6-4.4,12.5-11,13.3c-6.3,0.8-13-6.6-14-14.7l-15-118.8c-2.1-16.7,7.4-23.5,12.9-24.2
		c3.6-0.4,6.3,0.6,8.2,3.8c-1.7-5.2-5.9-8.7-11.1-8.3c20.7-8.8,24.7-17,28.4-23.2c-8.1,10.2-24.3,23.4-66.8,29.5
		c-15.8,2.3-27.6,2.5-36.4,2.1c-1.7,1.1-3.1,2.1-4,3.3c-0.7,0.9-2,4.2-3.8,8.7c-0.3,0.6-0.5,1.3-0.8,2c-0.1,3,0.4,5.6-0.7,8.2
		c-0.7,1.6-2,3.3-3.4,4.7l14.7,116.6c0.6,4.8-2.4,9.1-6.7,9.7l0,0c-3,0.4-5.8-1.2-7.5-3.7c-0.7-1.1-1.2-2.5-1.4-4l-12.6-100
		c-2,1.9-4.1,3.3-6.4,4.1L429,1327.7z M536.5,1314.7c0,0,2.4,2.1,6.3,0.4c4.8-2.1,6.4-8.1,5.4-15.6l-15.1-120.1
		c-0.7-5.2-4.7-7-8.9-5.5c-2.9,1.1-3,2.8-3.8,4.7c5.6,0.1,6,1.7,7.7,15.3l13.9,110.5C543.3,1314.8,536.5,1314.7,536.5,1314.7z
		 M446.6,1315.7l-14.3-113.8c-1.1,2.1-2.3,4.2-3.5,6.1l14.2,112.8C445.6,1320.4,447,1318.7,446.6,1315.7z M408.2,1216.8
		c9,2.8,16.7-9.1,22.3-21.2c3.2-0.7,5.3-3.7,4.9-7c-0.1-0.9-0.4-1.7-0.8-2.5c0.6-1.6,1.3-3.1,1.8-4.6c0.8-2,1.5-3.8,2.1-5.3
		c2.3-0.5,3.8-2.7,3.5-5c0-0.2-0.1-0.5-0.2-0.7c2.1-2.2,4.9-3.7,8.9-5.9c4.2-2.3,9.5-5.2,16.6-10.3c0.6,0.2,1.3,0.3,2,0.2
		c2.4-0.3,4.1-2.5,3.9-4.9c5.3-5,7.7-9.7,9.8-13.9c2.8-5.5,5.4-10.7,13.9-14.3c0.1,0,0.2-0.1,0.2-0.1c34.8-8.6,41.3-14.5,40.4-20.8
		c-0.6-3.9-1.5-7.4-2.7-10.4l-2.4-1.3l2.7-0.9l0.1-0.1c0.9-0.6,1-2.4,0.2-3.8c-0.4-0.8-1.4-2.1-3.2-1.5h-0.1l-4.2,2.2l2.2-4.2
		c0-0.1,0-0.2,0-0.2c0.5-1.3-0.2-3.1-1.7-4.2c-0.7-0.5-2.4-1.4-4.3,0c0,0-0.1,0-0.1,0.1l-4.1,3.9l1.5-5.3v-0.1
		c0.1-1.2-1.6-3.9-4.1-4.7c-2-0.6-3.6,0.2-5,1.5c0.5,0.6,0.9,1.4,1.2,2.1c0.2,0.7,0.4,1.4,0.5,2c0.4,0,0.8,0.1,1.1,0.3
		c1,0.4,1.6,1.3,1.9,2.3c0.3,0.9,0.3,1.9,0,2.7c-0.4-0.8-0.7-1.6-1.1-2.2c-0.4-0.6-0.9-1.1-1.5-1.4s-1.3-0.3-2-0.2
		c-0.7,0.1-1.5,0.4-2.3,0.8c0.3-0.9,1-1.6,1.9-1.9c0.3-0.1,0.6-0.2,1-0.3c-0.3-0.4-0.6-0.8-1-1.2c-0.7-0.7-1.5-1.3-2.3-1.8
		c-1.6-0.8-3.3-1-5.1-0.5c-1.7,0.4-3.4,1.4-4.6,2.8s-1.9,3.2-1.8,5.6c-0.7-0.9-1.2-2.1-1.2-3.3c0-0.3,0-0.6,0-0.8
		c-13.5,3.4-27.2,10.6-36.3,15.4c-3.9,2.1-6.8,3.5-8.6,4.2c-3.8,1.4-9.6,2.3-16.4,3.3c-14.6,2.2-32.8,4.9-40.4,14.1
		c-9,10.9-4,27.2,0.9,43.1c1.1,3.5,2.1,6.7,2.9,10c1.8,6.9,1,14.9,0.3,22.7C398.8,1202.4,397.8,1213.5,408.2,1216.8z"/>
	<path class="st0" d="M445.8,1120.7c-0.8,1.1-0.8,2.5-0.5,3.6c0.3,1.2,1,2.2,1.9,2.8c0.9,0.7,2,0.9,3.1,0.8c1.1,0,2.2-0.4,3.3-0.9
		l1.6-0.7l0.3,1.7c0.1,0.6,0.5,1.2,1.1,1.6s1.4,0.7,2.2,0.8c0.8,0.1,1.6,0,2.4-0.3c0.7-0.3,1.3-0.8,1.7-1.4l0.6-1.1l0.9,0.7
		c0.5,0.4,1.1,0.7,1.7,0.8c0.6,0.2,1.3,0.2,2,0s1.2-0.5,1.7-1.1c0.4-0.6,0.6-1.3,0.7-2.1c0.2,0.8,0.3,1.6,0,2.5
		c-0.3,0.8-1,1.5-1.8,2c-0.8,0.4-1.8,0.6-2.7,0.5c-0.5,0-1.1-0.1-1.6-0.3c-0.5,0.8-1.2,1.5-2.1,1.9c-1.1,0.6-2.4,0.8-3.6,0.7
		c-1.2-0.1-2.5-0.5-3.5-1.2c-0.7-0.5-1.3-1.1-1.7-1.9c-1,0.3-2,0.5-3,0.4c-1.6,0-3.2-0.7-4.3-1.8c-1.1-1.1-1.8-2.6-1.8-4.1
		C444.1,1123,444.6,1121.4,445.8,1120.7z"/>
	<path class="st0" d="M412.5,1130.7c-1.3,0.8-2.8,1.5-4.5,1.7c-1,0.2-2.2,0.1-3.3-0.3c-1.1-0.4-2.1-1.1-2.7-2c-0.7-0.9-1-2-1.2-3
		s-0.1-2.1,0.2-3.1c0.3-1,0.8-1.9,1.6-2.6c0.8-0.7,1.8-1,2.7-0.9c-1.8,0.6-2.6,2.2-2.7,3.8c-0.1,1.6,0.4,3.2,1.3,4.2
		s2.3,1.3,3.7,1.1c1.5-0.3,3-1,4.5-1.8l1.1-0.7l0.7,1c0.6,0.9,1.4,1.5,2.3,2c0.9,0.4,2.1,0.6,3.2,0.4s2.2-0.6,3.1-1.4
		s1.6-1.8,1.8-3.1c0.2,1.3-0.1,2.7-1,3.9c-0.6,0.8-1.4,1.5-2.3,1.9c0,0.4,0.1,0.9,0.3,1.3c0.3,0.6,0.7,1.2,1.2,1.6
		c0.5,0.5,1.2,0.8,2,1c0.7,0.2,1.6,0.2,2.4,0.1c-0.8,0.3-1.6,0.5-2.4,0.6c-0.9,0-1.8-0.1-2.6-0.5c-0.8-0.4-1.6-1-2.2-1.7
		c-0.4-0.5-0.7-1-1-1.6c-1,0.1-2.1,0.1-3.1-0.2C414.3,1132.1,413.3,1131.4,412.5,1130.7z"/>
	<path class="st0" d="M403.7,1161.7c0.3-0.3,0.6-0.7,1-0.9c0.4-0.2,0.7-0.4,1.2-0.5c0.4-0.1,0.8-0.2,1.2-0.2c-1.2,1.1-1.9,2.3-2,3.5
		s0.2,2.3,0.9,3.2c0.6,0.9,1.6,1.6,2.7,1.8c1.2,0.3,2.6,0,4.2-0.3c-1,1.3-2.4,2.3-4.3,2.4c-1.8,0.2-3.8-0.8-4.9-2.4
		c-1.1-1.5-1.4-3.7-0.7-5.4C403.2,1162.5,403.4,1162,403.7,1161.7z"/>
	<path class="st0" d="M411.5,1189.5c1.4-0.2,2.6,0.8,2.8,2.2s-0.8,2.6-2.2,2.8c-1.4,0.2-2.6-0.8-2.8-2.2
		C409.1,1191,410.1,1189.7,411.5,1189.5z"/>
	<path class="st0" d="M426.6,1171.6c-0.3-2,1.2-3.8,3.2-4.1c2-0.3,3.8,1.2,4.1,3.2c0.3,2-1.2,3.8-3.2,4.1
		C428.7,1175,426.8,1173.6,426.6,1171.6z"/>
	<circle class="st0" cx="421.1" cy="1192.9" r="2"/>
	<path class="st0" d="M418.6,1199.9c1.8-0.2,3.5,1.1,3.7,2.9s-1.1,3.5-2.9,3.7s-3.5-1.1-3.7-2.9
		C415.5,1201.8,416.8,1200.1,418.6,1199.9z"/>
	<path class="st0" d="M414.9,1208.1c1-0.1,2,0.6,2.1,1.6s-0.6,2-1.6,2.1s-2-0.6-2.1-1.6C413.1,1209.1,413.9,1208.2,414.9,1208.1z"/>
	<circle class="st0" cx="431.2" cy="1179.7" r="1.5"/>
	<path class="st0" d="M437.2,1169.6c1.2-0.1,2.3,0.7,2.4,1.9c0.1,1.2-0.7,2.3-1.9,2.4c-1.2,0.1-2.3-0.7-2.4-1.9
		C435.1,1170.8,436,1169.7,437.2,1169.6z"/>
	<path class="st0" d="M440.4,1161.3c1.2-0.1,2.2,0.7,2.4,1.8s-0.7,2.2-1.8,2.4c-1.2,0.1-2.2-0.7-2.4-1.8
		C438.5,1162.5,439.3,1161.4,440.4,1161.3z"/>
	<circle class="st0" cx="444.4" cy="1155" r="2.6"/>
	<circle class="st0" cx="452.1" cy="1159.8" r="2"/>
	<path class="st0" d="M461.2,1151.2c1-0.1,2,0.6,2.1,1.6s-0.6,2-1.6,2.1s-2-0.6-2.1-1.6C459.4,1152.3,460.2,1151.4,461.2,1151.2z"/>
	<circle class="st0" cx="468.4" cy="1150" r="2.3"/>
	<path class="st0" d="M466.9,1142.1c-0.2-1.5,0.8-2.8,2.3-3s2.8,0.8,3,2.3s-0.8,2.8-2.3,3S467.1,1143.6,466.9,1142.1z"/>
	<path class="st0" d="M428.7,1186.1c1.9-0.2,3.6,1.1,3.8,3c0.2,1.9-1.1,3.6-3,3.8s-3.6-1.1-3.8-3
		C425.5,1188,426.8,1186.3,428.7,1186.1z"/>
	<path class="st0" d="M465.2,1104.9c-0.6-1.5-0.7-3.2-0.1-4.9c0.6-1.7,2.1-3,3.7-3.7c1.7-0.7,3.6-0.8,5.3-0.3
		c1.1,0.3,2.2,0.9,3.1,1.7c0.4-0.5,1-1,1.6-1.4c1.2-0.8,2.6-1,3.9-0.9s2.6,0.6,3.5,1.6c1,0.9,1.3,2.4,0.9,3.5
		c-0.1-1.2-0.8-2.1-1.6-2.6c-0.9-0.5-1.9-0.7-2.8-0.5c-1,0.1-1.8,0.5-2.5,1s-1.2,1.3-1.5,2.1l-0.9,2.4l-1.5-2.2
		c-0.7-1-1.7-1.7-2.9-2.1c-1.2-0.4-2.5-0.4-3.8-0.1c-1.2,0.3-2.4,1.1-3.2,2.2C465.7,1101.8,465.3,1103.3,465.2,1104.9z"/>
	<path class="st0" d="M519.1,1087.5c1.5-0.7,3.3-0.9,5-0.5s3.4,1.6,4.1,3.2c0.8,1.6,0.8,3.3,0.3,4.8c-0.7-1.5-1.3-2.7-2.1-3.6
		s-1.8-1.4-3-1.7c-1.1-0.3-2.4-0.3-3.7-0.1c-1.3,0.2-2.7,0.5-4.1,1.1C516.3,1089.3,517.6,1088.2,519.1,1087.5z"/>
	<path class="st0" d="M588.7,1190.8c-0.1-0.1-0.1-0.3,0-0.4C588.8,1190.5,588.8,1191.1,588.7,1190.8z"/>
	<path class="st0" d="M588.6,1190.2C588.5,1190.1,588.6,1190.1,588.6,1190.2L588.6,1190.2z"/>
	<path class="st0" d="M695.3,1213.2c-0.1-0.1,0-0.2,0-0.2C695.4,1213,695.3,1213.3,695.3,1213.2z"/>
	<path class="st0" d="M713.6,1277.4c2.9-0.2,5.8-0.3,8.8-0.2c3.6,0.1,7.2,0.4,10.7,1c3.4,0.6,6.6,1,10,1.1c1.4,0,2.9,0,4.3,0
		c0.7,0,1.5,0,2.2,0c0.2,0,1.2-0.1,1.4,0.1l-0.2,0.1c-3.6,1.2-7.3,1.3-11.1,1.3c-3.6,0-7,0.1-10.5-0.3c-3.9-0.4-7.8-0.3-11.7-0.6
		c-1.9-0.2-3.9-0.5-5.8-0.9c-0.5-0.1-5.4-1-5.4-1.4c0.1-0.1,0.2-0.1,0.3-0.1C708.7,1277.6,711.4,1277.6,713.6,1277.4z"/>
	<path class="st0" d="M695.6,1211.8C695.6,1211.7,695.6,1211.8,695.6,1211.8L695.6,1211.8z"/>
	<path class="st0" d="M613.8,1187.5c-2.5-0.5-5-1.3-7.6-0.8c-1.9,0.3-3.6,1.2-5.6,1.1c1.4-1.8,4.1-3.1,6.4-2.8
		c1.2,0.2,2.3,0.5,3.4,1c0.7,0.3,1.3,0.5,2,0.8C612.6,1186.9,613.4,1187.4,613.8,1187.5L613.8,1187.5z"/>
	<path class="st0" d="M740.5,1248.5c-3.4-0.4-6.6-1.3-10-1.8c-1.9-0.2-3.8-0.5-5.7-0.8c-1-0.1-1.9-0.2-2.9-0.3c-0.5,0-1.2,0-1.8-0.1
		c0.7,0.1,2-0.2,2.6-0.2c1.4-0.1,2.9-0.1,4.3-0.2c2.3-0.1,4.5-0.1,6.8-0.2c6.3-0.4,12.6,0.4,18.8,0.6c5.7,0.2,11.3,0,17,0.4
		c5.8,0.4,11.6,0.7,17.4,0.9c3.6,0.1,7.1,0.2,10.7,0.2c1.6,0,3.2,0,4.8,0.1c0.9,0,1.8,0,2.6,0c0.3,0,1.8-0.2,2,0c0,0-0.9,0.3-1,0.3
		c-1.5,0.4-3,0.3-4.4,0.5c-0.6,0.1-1.2,0.3-1.8,0.3c-3.5,0.4-7,0.7-10.4,1c-3.5,0.3-7.1,0.7-10.7,0.6c-2.9-0.1-5.7-0.4-8.6-0.7
		c-5.2-0.5-10.5,0.1-15.7,0.2C749.9,1249.4,745.1,1249,740.5,1248.5z"/>
	<path class="st0" d="M728.4,1260.3L728.4,1260.3C728.6,1260.2,728.5,1260.2,728.4,1260.3z"/>
	<path class="st0" d="M792.7,1240.9c-3.1-0.2-6.2,0.5-9.2,0.8c-4.4,0.4-8.8,0.6-13.3,0.8c-4.9,0.3-9.8,0.3-14.7-0.1
		c-2-0.1-4-0.3-6-0.5c-0.2,0-3.2-0.2-3.3-0.4c0,0.3,6.1-0.4,6.5-0.4c3.7-0.4,7.3-0.7,11-0.9c4-0.1,7.9,0.2,11.9,0.2
		c3.8,0,7.5,0,11.3,0c1.6,0,3.3-0.1,4.9-0.1c0.2,0,1.7,0.4,1.6,0.4C793.2,1241,792.8,1240.9,792.7,1240.9z"/>
	<path class="st0" d="M733.8,1262.4c-1.8-0.2-3.5-0.7-5.3-0.9c-1.1-0.1-2.1-0.1-3.2-0.3c-0.3-0.1-2.3-0.2-2.4-0.6
		c0,0.1,4.7,0,5.6-0.4l-0.1,0.1c0.2,0.2,2.4-0.2,2.8-0.2c0.9-0.1,1.8-0.1,2.8-0.1c1.4,0,2.8,0.1,4.1-0.1c2.3-0.3,4.7-0.8,7-0.8
		c4.9,0.1,9.9,0.5,14.8,0.5c0.8,0,9.8,0.2,9.8,0.2c0,0.1-1.3,0.2-1.4,0.2c-2.7,0.2-5.4,0.6-8.1,0.9c-3,0.3-6,0.4-9,0.5
		c-3.6,0.2-7.1,0.5-10.7,0.9C738.2,1262.7,736.1,1262.6,733.8,1262.4z"/>
</g>
<g>
	<path class="st0" d="M383.1,566.6c0.3,1.4,1.6,2.4,3.1,2.2l16.9-3.1l-16.5,1.5c-1,0-1.9-0.6-2.1-1.5l-4.1-16.3L383.1,566.6z"/>
	<path class="st0" d="M447.5,485.6h-0.4h-43.3H359V619h44.9h43.6h43.3V485.6H447.5z M360.4,616.9v-51.2l2.5,48.1l36.1,3.1
		L360.4,616.9L360.4,616.9z M402.8,539.1c0.1,0,0.2,0.1,0.2,0.1c0,1.7,0,3.5,0,5.2c-0.7-1.4-2.3-2.4-4-2.1l-17.7,3
		c-1,0.2-1.9,0.7-2.5,1.6c-0.6,0.8-0.8,1.8-0.6,2.8l3,17.7c0.3,1.8,1.9,3.2,3.8,3.2c0.2,0,0.4,0,0.7-0.1l17.6-3l0,0l-18,3.1
		c-2.2,0.4-4.3-1.1-4.7-3.3l-3.7-21.9c-0.4-2.2,1.1-4.3,3.3-4.7l21.9-3.7c0.3-0.1,0.7,0,1,0c0,0.2,0,0.4,0,0.6l-22.9,3.1
		L402.8,539.1z M398.2,546.1c1,0,1.9,0.6,2.1,1.5l2.8,9.8c0,3,0,6.1,0.1,9.1l0,0l-17.7,3c-1.5,0.3-2.9-0.8-3.2-2.3l-3-17.7
		c-0.1-0.7,0-1.5,0.5-2.1c0.4-0.6,1.1-1,1.8-1.1l17.7-3c0.2,0,0.3,0,0.5,0c1.3,0,2.5,1,2.7,2.3l0.6,3.8c0,1.7,0,3.3,0,5l-1.5-7.6
		c-0.3-1.4-1.6-2.4-3.1-2.2l-17.1,2.1L398.2,546.1z M402.6,535.9l-23.3,4c-2.3,0.4-3.9,2.6-3.5,5l4,23.3c0.4,2.3,2.6,3.9,5,3.5
		l18.5-3.2c0,1.7,0,3.5,0,5.2l-17.7,3c-0.5,0.1-1.1,0.1-1.6,0.1c-4.6,0-8.5-3.3-9.3-7.9l-4-23.2c-0.4-2.5,0.1-5,1.6-7
		c1.5-2.1,3.6-3.4,6.1-3.8l23.3-4c0.5-0.1,0.9-0.1,1.4-0.1c0,1.7,0,3.4,0,5.2C402.9,535.9,402.7,535.9,402.6,535.9z M403.1,527
		h-35.7v67.7h36.1c0,1.1,0,2.2,0,3.3h-38.9V488.8h39.1C403.3,497.3,403.1,511.3,403.1,527z M404.2,598c0-1.1,0-2.1,0-3.3h42.9
		c0,1.1,0,2.2,0,3.3H404.2z M404.6,561.9c0-1.2,0-2.5,0-3.7l0.9,5.1c0.1,0.7,0,1.5-0.5,2.1c-0.1,0.2-0.3,0.3-0.4,0.4
		c0-1.1,0-2.2,0-3.3l0.4,1.3L404.6,561.9z M405.9,566c0.6-0.8,0.8-1.8,0.6-2.8l-1.9-11c0-3.9,0-7.9,0-11.9c0.1,0.2,0.2,0.3,0.3,0.4
		l5.5,21.5l-4.2-22.4c-0.2-0.9-0.8-1.6-1.6-2c0-0.1,0-0.3,0-0.4c1.1,0.6,1.9,1.6,2.1,2.8l3.7,21.9c0.4,2.2-1.1,4.3-3.3,4.7l-2.6,0.4
		c0-0.1,0-0.2,0-0.2C405.1,566.8,405.5,566.5,405.9,566z M408,567.7c2.3-0.4,3.9-2.6,3.5-5l-4-23.2c-0.3-1.6-1.4-2.8-2.9-3.3
		c0-1.8,0-3.5,0-5.3c4,0.6,7.3,3.6,8,7.7l4,23.2c0.9,5.1-2.6,10-7.7,10.9l-4.3,0.7c0-1.7,0-3.4,0-5.2L408,567.7z M446.8,551.1
		c0.1,9.1,0.1,18.1,0.2,26.5l-13.5-4.3c-1.1-0.4-1.8-1.6-1.6-2.8l3.2-20.3l-5.1,20.6c-0.4,1.8,0.7,3.5,2.4,4l14.6,3.4
		c0,0.3,0,0.6,0,0.9l-15.8-3.8c-1.8-0.4-2.9-2.3-2.5-4.1l5.1-21.4c0.4-1.5,1.7-2.6,3.3-2.6c0.3,0,0.5,0,0.8,0.1l8.8,2.1
		c0,0.3,0,0.5,0,0.8l-9-2.6L446.8,551.1z M438.2,546c-2.5-0.6-5,1-5.6,3.5l-5.1,21.4c-0.6,2.5,1,5,3.5,5.6l16.1,3.8l0,0l-16.6-4
		c-2.7-0.6-4.3-3.3-3.7-6l6.3-26.5c0.6-2.7,3.3-4.3,6-3.7h0.1l7.6,2.6c0,1.7,0,3.5,0,5.2L438.2,546z M439.1,540.2l7.6,1.8
		c0,0.1,0,0.2,0,0.3L439.1,540.2z M438.5,538.9c-2.8-0.7-5.7,1.1-6.4,3.9l-6.7,28.1c-0.7,2.8,1.1,5.7,3.9,6.4l17.7,4.2
		c0,1.8,0,3.6,0.1,5.3l-18.9-4.5c-2.7-0.6-5-2.3-6.5-4.7s-1.9-5.2-1.3-7.9l6.7-28.1c1.3-5.5,7-9,12.5-7.7l7,1.7c0,1.7,0,3.5,0,5.3
		L438.5,538.9z M446.7,527h-42.1c-0.1-13.3-0.3-26.5-0.6-38.2h43.3C446.9,497.3,446.7,511.3,446.7,527z M448.1,577.9
		c0.1-8.2,0.1-17.1,0.2-26.3l8.6,3.3c1.1,0.4,1.8,1.6,1.6,2.8l-2.6,20.4l4.5-20.7c0.4-1.7-0.7-3.5-2.4-4l-9.7-2.8c0-0.3,0-0.6,0-0.9
		l11,2.6c1.8,0.4,2.9,2.3,2.5,4.1l-5.1,21.4c-0.4,1.8-2.2,2.9-4.1,2.5l-4.5-1.1c0-0.3,0-0.6,0-0.9l4.7,1.1L448.1,577.9z
		 M452.3,581.6c0.4,0.1,0.7,0.1,1.1,0.1c2.2,0,4-1.5,4.5-3.6l5.1-21.4c0.6-2.5-1-5-3.5-5.6l-11.3-2.7c0-1.7,0-3.4,0-5l17.1,5.9
		c1.1,0.4,1.8,1.6,1.6,2.8l-4.1,26.9l6-27.2c0.4-1.8-0.7-3.5-2.4-4l-18.2-5c0-0.1,0-0.2,0-0.4l17.2,4.1c2.7,0.6,4.3,3.3,3.7,6
		l-6.3,26.5c-0.6,2.7-3.3,4.3-6,3.7l-8.8-2.1l0,0L452.3,581.6z M457.4,584c2.8,0.7,5.7-1.1,6.4-3.9l6.7-28.1
		c0.7-2.8-1.1-5.7-3.9-6.4l-18.3-4.4c0-1.8,0-3.5,0-5.3l19.5,4.7c5.6,1.3,9,7,7.7,12.5l-6.7,28.1c-1.1,4.7-5.3,8-10.1,8
		c-0.8,0-1.6-0.1-2.4-0.3l-8.2-2c0-1.7,0-3.5,0.1-5.3L457.4,584z M482.4,594.7V527h-34.2c-0.1-13.3-0.3-26.5-0.6-38.2h37.6V598
		h-37.3c0-1.1,0-2.1,0-3.3H482.4z M489.1,606.6v10.3h-38.8v-0.4l36.4-2.8l2.4-97V606.6z"/>
	<path class="st0" d="M309.2,155.4c0-2.7-2.2-5-5-5h-28.9c-2.7,0-5,2.2-5,5v19.3h38.9V155.4z M279.3,154.7c-1.3,0.1-2.2,1.2-2.2,2.4
		l-0.2,16.1h-3.6v-18.9c0-1,0.8-1.8,1.8-1.9l30.1-0.7L279.3,154.7z"/>
	<path class="st0" d="M309.2,175.9h-38.9V225h38.9V175.9z M276.7,222.1h-3.5v-44.7h3.5V222.1z"/>
	<rect x="237.4" y="396.3" class="st0" width="103.7" height="4.4"/>
	<rect x="237.4" y="548.3" class="st0" width="103.7" height="4.4"/>
	<path class="st0" d="M337,472.3c0-33.2-21.3-60.2-47.5-60.2s-47.5,27-47.5,60.2s21.3,60.2,47.5,60.2S337,505.6,337,472.3z
		 M257.5,511.6v-27.3h-11.2v-21.5h11.2v-26.1h62.3v26.1H331v21.5h-11.2v27.3H257.5z"/>
	<rect x="263.7" y="442.5" class="st0" width="49.6" height="15.9"/>
	<rect x="250.1" y="465.6" class="st0" width="77" height="15.9"/>
	<rect x="263.7" y="486.2" class="st0" width="49.6" height="9.3"/>
	<rect x="268" y="497.9" class="st0" width="40.9" height="7.7"/>
	<path class="st0" d="M312.5,319.3c2.3-19.2,3.4-67.8-5.6-91.1h-34.3c-9,23.2-7.9,71.7-5.6,91l0,0c1.5,15.4-38,18.5-38,41.9v240.2
		c0,4.9,4,8.9,8.9,8.9h103.7c4.9,0,8.9-4,8.9-8.9V361C350.5,337.7,311.2,334.6,312.5,319.3z M276.5,233.6
		c-0.4,2.5-4.5,20.4-4.5,45.5s1.2,37.6,1.9,45.5c-2.6,0-4.7-20.4-4.7-45.5C269.2,254,273.9,233.6,276.5,233.6z M240.7,357.3
		c10.4-15.8,18.7-13.4,30.1-24.7c-1.6,7.9-17.2,13.9-23.1,28.1c-0.9,2.2-1.3,12.7-1.2,28.2h-9.4
		C237.7,371.9,238.8,360.1,240.7,357.3z M237.5,607.5c-3.3-0.7-5.1-4-4.2-7.3c2.4,6.5,95.7,7.3,95.7,7.3S243.1,607.5,237.5,607.5z
		 M238.8,560.4h11.1c0.2,9.7,0.2,18.7,0.3,26.5c0,3.2,72.3,3.5,72.3,6.3l-79-0.9c-2.1,0-3.7-1.6-3.8-3.7
		C239.5,583.5,239.2,573.5,238.8,560.4z M345.6,557.7h-95.8c0,0.1,0,0.1,0,0.2h-11.2c0-0.1,0-0.1,0-0.2h-5.3v-166h3.6
		c0-0.2,0-0.3,0-0.4h9.5c0,0.2,0,0.3,0,0.4h99.2V557.7z M347.2,368.7c-0.6,0.2-1.6-1-2.2-2.8c-0.6-1.7-0.5-3.3,0.1-3.5
		s1.6,1,2.2,2.8C347.9,366.9,347.8,368.5,347.2,368.7z M347,354.3c0.9,2.8,0.9,5.4-0.2,5.7s-2.6-1.7-3.6-4.5
		c-0.9-2.8-0.9-5.4,0.2-5.7C344.4,349.5,346,351.5,347,354.3z"/>
</g>
</svg>
