<?xml version="1.0" encoding="utf-8"?>
<!-- Generator: Adobe Illustrator 24.0.3, SVG Export Plug-In . SVG Version: 6.00 Build 0)  -->
<svg version="1.1" id="Слой_1" xmlns="http://www.w3.org/2000/svg" xmlns:xlink="http://www.w3.org/1999/xlink" x="0px" y="0px"
	 viewBox="0 0 1366 1498" style="enable-background:new 0 0 1366 1498;" xml:space="preserve">
<g>
	<g>
		<path style="fill:#1C1C1C;" d="M420.1000061,624.7000122C418.5,624,417.3999939,622.4000244,417.3999939,620.5
			C417.5,618,419.5,616.0999756,422,616.0999756c20.7999878,0.5,42.3999939,3.0999756,64,7.7000122
			C533.2000122,633.8999634,575.7000122,652.3999634,605.7000122,676c1.9000244,1.5,2.2999878,4.2999878,0.7000122,6.2999878
			c-1.5,1.9000244-4.2999878,2.2999878-6.2999878,0.7999878c-29-22.7999878-70.2000122-40.7000122-116-50.5
			c-21.1000061-4.5-42.1000061-7-62.3999939-7.5C421.2000122,625.0999756,420.6000061,624.9000244,420.1000061,624.7000122z"/>
	</g>
	<g>
		<path style="fill:#1C1C1C;" d="M381.3999939,783.7000122c-63.1000061-27.2999878-101.6999817-69.0999756-93.5-107.5999756
			c7.5-35.2999878,53.2000122-58.2999878,119.1000061-59.9000244c2.5-0.0999756,4.5,1.9000244,4.6000061,4.4000244
			s-1.8999939,4.5-4.3999939,4.5999756C346.5,626.7000122,303.1000061,647.4000244,296.6000061,678
			C287,723,355.5,775.7999878,449.4000244,795.7999878c93.7999878,20,177.9000244-0.2999878,187.5-45.2999878
			c3-13.9000244-1.7999878-29.2999878-13.5999756-44.7000122c-1.5-2-1.2000122-4.7999878,0.7999878-6.2999878
			c1.9000244-1.5,4.7999878-1.2000122,6.2999878,0.7999878c13.5999756,17.5,18.9000244,35.5,15.2999878,52
			C635.1000366,802.0999756,546.2000122,825.5,447.5,804.5
			C423.6000061,799.4000244,401.2000122,792.2000122,381.3999939,783.7000122z"/>
	</g>
	<g>
		<path style="fill:#1C1C1C;" d="M274.2999878,1386.4000244c-53-22.9000244-86.3999939-61.5-78.8999939-96.6999512
			c7.1000061-33.3000488,48.1999969-55.3000488,104.6999817-56.1999512c2.5,0,4.5,1.9000244,4.5,4.4000244
			s-1.8999939,4.5-4.3999939,4.5c-52.1999969,0.8000488-89.8999939,20.0999756-96,49.0999756
			c-8.5,39.8000488,44.5,85,118.1000061,100.6999512c36.1000061,7.6999512,71.6000061,7.0999756,100-1.5999756
			c27.5-8.4000244,44.8999939-23.4000244,48.8999939-42.1999512c6.2000122-28.8000488-20.1000061-61.6999512-67-83.6999512
			c-2.2000122-1.0999756-3.2000122-3.6999512-2.2000122-6c1-2.1999512,3.7000122-3.4000244,6-2.0999756
			c50.7999878,23.9000244,79,60.5999756,71.8999939,93.6999512c-4.7000122,22.0999756-24.2000122,39.5-55,48.9000244
			c-29.7999878,9.1999512-67,9.8000488-104.5,1.8000488C303.8999939,1397.5,288.3999939,1392.5,274.2999878,1386.4000244z"/>
	</g>
	<g>
		<path style="fill:#1C1C1C;" d="M267.7000122,1414.4000244c-18.5-8-34.8000031-18-48-29.5
			c-24.1999969-21.0999756-35-44.9000244-30.3000031-67.0999756l6-28.0999756c0.5-2.4000244,2.8999939-4,5.3000031-3.5
			c2.3999939,0.5,4,2.9000244,3.5,5.3000488l-6,28.0999756c-4,18.8000488,5.6999969,39.5999756,27.3999939,58.5
			c22.3999939,19.5,54.6000061,34.5,90.6999817,42.1999512C389.8999939,1436,456.6999817,1416.4000244,465.1999817,1376.5
			l6-28.1999512c0.5-2.4000244,2.8999939-4,5.2999878-3.5c2.5,0.5,4,2.9000244,3.5,5.3000488l-6,28.1999512
			c-9.5,44.6999512-81.1000061,67.4000244-159.5,50.6999512
			C297.8999939,1425.5999756,282.1000061,1420.5999756,267.7000122,1414.4000244z"/>
	</g>
	<g>
		<path style="fill:#1C1C1C;" d="M400.8999939,1364.0999756c-10.5-4.5999756-19.7999878-20.5-24.5-30
			c-12.2999878-24.6999512-22-60.6999512-15.6000061-78.9000244c4.8999939-13.8000488,22.3999939-38.4000244,41-64.5
			c17.3999939-24.4000244,35.3999939-49.5999756,41.3999939-64.1999512c10.5-25.5,22.6000061-79.5999756,34.2000122-132
			C494.6999817,916.7000122,506,868.7000122,516.5,858.5999756c8.0999756-7.7999878,20.0999756-16.7999878,31.5-15.5
			c5.9000244,0.7000122,10.9000244,4,14.7999878,9.9000244c1.0999756,1.7000122,0.5999756,4-1.0999756,5.2000122
			C560,859.2999878,557.6000366,858.7999878,556.5,857.1000366c-2.5999756-4-5.7000122-6.2000122-9.2999878-6.5999756
			c-6.5999756-0.7999878-15.5999756,4-25.4000244,13.5c-9.5999756,9.2999878-24.2000122,74.5999756-37,132.1000366
			C473.0999756,1048.8000488,461,1103.2000732,450.1999817,1129.3000488c-6.3999939,15.4000244-24.6000061,41-42.2000122,65.6999512
			c-17.5,24.5-35.6000061,49.9000244-40.1000061,62.6999512c-5.5,15.6999512,3.3999939,49.4000244,15.2000122,73
			C390.4999695,1345.5,398.4999695,1355.5999756,404.7999878,1357.5
			c17.1000061,5.4000244,29.7000122-29.9000244,29.7999878-30.3000488c3-6.8000488-6.6000061-21.8000488-15.8999939-36.1999512
			c-1.7999878-2.8000488-3.6000061-5.5999756-5.3999939-8.5c-1.1000061-1.6999512-0.6000061-4.0999756,1.2000122-5.0999756
			c1.7999878-1.0999756,4.1000061-0.5999756,5.1000061,1.1999512C421.3999939,1281.4000244,423.2000122,1284.2999268,425,1287
			c11.2999878,17.5999756,21.1000061,32.8000488,16.5,43c-0.5,1.4000244-14.7999878,42.3000488-39,34.6999512
			C402,1364.5,401.5,1364.3000488,400.8999939,1364.0999756z"/>
	</g>
	<g>
		<path style="fill:#1C1C1C;" d="M408.1000061,1273.6999512c-0.8999939-0.4000244-1.7000122-1-2.2000122-1.9000244
			c-9-16.1999512-12-27.6999512-9.5-37.3000488c4.2999878-16.1999512,19.8999939-27.5999756,39.7999878-42.0999756
			c17-12.4000244,36.2999878-26.5,53.6000061-47.1999512c26.0999756-31.3000488,51.4000244-153.7999878,66.5-226.9000244
			C562.5999756,887.5999146,567.5999756,863.3999023,571,853.5999146c11.5-34.2999878,56.0999756-84.0999756,58-86.2999878
			c1.7000122-1.7999878,4.5-2,6.2999878-0.2999878s2,4.5,0.2999878,6.2999878c-0.5,0.5-45.2000122,50.5999756-56.0999756,83.0999756
			c-3.0999756,9.2999878-8.0999756,33.2999878-14.4000244,63.7000122
			c-16.2999878,78.7999878-40.9000244,197.7999878-68.3999939,230.8999634
			c-18,21.5999756-38.6000061,36.5999756-55.2000122,48.6999512c-18.3999939,13.4000244-32.8999939,24-36.3999939,37.0999756
			c-1.7999878,7,0.8999939,16.8000488,8.6000061,30.5999756c1.2000122,2.0999756,0.3999939,4.9000244-1.7000122,6.0999756
			C410.7999878,1274.1999512,409.2999878,1274.1999512,408.1000061,1273.6999512z"/>
	</g>
	<g>
		<path style="fill:#1C1C1C;" d="M241.1000061,1291c-1.6000061-0.6999512-2.6999969-2.3000488-2.6999969-4.0999756
			c0-11.5999756,15.3000031-21.5,32.9000092-33.0999756C288.6000061,1242.5,308.2000122,1229.6000977,310.4000244,1216.5
			c2.2000122-13.4000244-6.7999878-29-18.1000061-48.6999512c-10.2000122-17.8000488-23-39.9000244-30.6000061-67
			c-11.6999969-41.4000244,14.3999939-160.2000122,31.7000122-238.7000122
			c6.7000122-30.2999878,11.8999939-54.2000122,12.8999939-64c3.2999878-34.2000122-17.2000122-98.2000122-17.3999939-98.7999878
			c-0.7999878-2.4000244,0.5-4.9000244,2.8999939-5.5999756c2.3999939-0.7999878,4.8999939,0.5,5.6000061,2.9000244
			c0.8999939,2.7000122,21.2000122,66.4000244,17.7999878,102.4000244c-1,10.2999878-6.2999878,34.5-13,65.0999756
			c-16,73-42.8999939,195.0999756-31.7999878,234.4000244c7.2999878,26,19.2000122,46.6999512,29.7000122,64.9000244
			c12.2000122,21.3000488,21.8999939,38.0999756,19.2000122,54.5999756c-2.7999878,17-23.2000122,30.4000244-43,43.3000488
			c-13.6000061,8.9000244-28.8999939,18.9000244-28.8999939,25.5999756c0,2.5-2,4.5-4.5,4.5
			C242.3000031,1291.4000244,241.6999969,1291.1999512,241.1000061,1291z"/>
	</g>
	<g>
		<path style="fill:#1C1C1C;" d="M609,791.9000244c-0.7999878-0.4000244-1.5-1-1.9000244-1.9000244
			c-0.9000244-1.9000244,0-4.0999756,1.7999878-4.9000244c3.0999756-1.4000244,4.7999878-3,4.9000244-4.7000122
			c0.4000244-4.2000122-6.0999756-10.2000122-9.2999878-12.5c-1.2999878-0.9000244-1.9000244-2.5-1.4000244-4
			c2.2999878-8.5999756-0.5999756-15.9000244-8.7000122-21.7999878c-1.7000122-1.2000122-2-3.5999756-0.7999878-5.2000122
			c1.2000122-1.7000122,3.5-2.0999756,5.2000122-0.7999878c9.7000122,7.0999756,13.9000244,16.7000122,12,27.2999878
			C614.5999756,766.499939,622,773.5999756,621.2000122,781.0999756c-0.2999878,3.2000122-2.2000122,7.5999756-9.2999878,10.7999878
			C611,792.2999878,609.9000244,792.2999878,609,791.9000244z"/>
	</g>
	<g>
		<path style="fill:#1C1C1C;" d="M307.6000061,731.5c-1.2999878-0.5-2.2000122-1.7999878-2.2999878-3.2999878
			c0-1.2000122-0.8999939-29.2000122,20.5-40.5c14.7000122-7.7999878,25-5,30.1000061-2.4000244
			c2.2999878-3.7000122,6.6000061-9.0999756,13.1000061-11.5c4.8999939-1.7999878,10-1.5999756,15.3999939,0.5
			c3.5-3.7000122,11.5-10.7000122,20.5-10.4000244c4.8999939,0.2000122,9.2000122,2.2999878,12.8999939,6.4000244
			c4.2000122-3,12-7.5999756,20.6000061-6.5999756c5.6000061,0.5999756,10.5,3.5,14.6000061,8.4000244
			c5-3.9000244,15.2000122-10.2999878,26-8.2999878c7.7999878,1.4000244,14.2000122,6.7999878,19.2000122,15.9000244
			c5-2.0999756,14.0000305-4.7999878,21.0000305-0.4000244c4.4000244,2.7000122,7,7.5,7.7999878,14.2999878
			c5-1.7999878,12.7000122-3.5,19.7000122-0.5c0.2000122,0.0999756,0.2999878,0.2000122,0.5,0.2000122
			c5.7999878,2.7000122,9.7999878,8.0999756,12.0999756,16.0999756c5.7000122-3,15.4000244-6.7999878,23.2000122-2.7000122
			c1.7999878,1,2.5,3.2000122,1.5999756,5c-1,1.7999878-3.4000244,2.4000244-5,1.5999756
			c-5.7000122-3.0999756-16.7999878,2.7000122-20.0999756,5.0999756c-1.0999756,0.7000122-2.4000244,0.9000244-3.5999756,0.4000244
			l0,0c-1.2000122-0.5-2-1.5999756-2.2000122-2.7999878c-1.4000244-8.2999878-4.4000244-13.5999756-9-15.7999878
			c-0.0999756-0.0999756-0.2000122-0.0999756-0.2999878-0.2000122c-7.9000244-3.4000244-18.2999878,2.5-18.4000244,2.5999756
			c-1.2000122,0.7000122-2.5999756,0.7000122-3.7999878,0s-1.7999878-1.9000244-1.7999878-3.2999878
			c0.0999756-4.9000244-0.5-11.2000122-4.4000244-13.5999756c-5-3.0999756-14.2000122,0.7000122-17,2.2999878
			c-0.8999939,0.5-2,0.5999756-3,0.2999878s-1.7999878-1-2.2000122-2c-4.1000061-8.9000244-9.2999878-13.9000244-15.3999939-15
			c-11.1000061-2.0999756-22.6000061,8.9000244-22.7999878,9c-0.7999878,0.7999878-1.8999939,1.2000122-3,1
			c-1.1000061-0.0999756-2.1000061-0.7000122-2.7000122-1.7000122c-3.2999878-5.0999756-7.2999878-8-11.7000122-8.5
			c-9-1.0999756-17.7000122,7.0999756-17.7999878,7.2000122c-0.7999878,0.7000122-1.8999939,1.0999756-3,1
			s-2-0.7000122-2.7000122-1.5999756c-2.8999939-4.2000122-6-6.2000122-9.5-6.4000244
			c-6.7999878-0.2000122-14.1000061,7-16.3999939,9.7999878c-1.1000061,1.4000244-2.8999939,1.7999878-4.6000061,1
			c-4.3999939-2.2000122-8.3999939-2.7000122-12.1000061-1.2999878
			C364.5000305,683.3999634,360.7000427,692,360.7000427,692.0999756c-0.5,1.0999756-1.5,2-2.7000122,2.2000122
			s-2.5-0.0999756-3.3999939-1C354.3000488,693,345.9000244,685.5,329.3000488,694.2000122
			c-17.2999878,9.0999756-16.5,33.2999878-16.5,33.5c0.1000061,2.0999756-1.5,3.7999878-3.6000061,3.9000244
			C308.6000061,731.9000244,308.1000061,731.7999878,307.6000061,731.5z"/>
	</g>
	<g>
		<path style="fill:#1C1C1C;" d="M344.8999939,726.5999756C341.1000061,724.8999634,339,720.3999634,340,715.7999878
			c1.1000061-5.2000122,5.7999878-8.7000122,10.3999939-7.7000122c4.7000122,1,7.5,6.0999756,6.3999939,11.2000122
			c-0.6000061,2.7000122-2.1000061,5.0999756-4.2999878,6.5C350.6000061,727,348.5,727.3999634,346.3999939,727
			C345.7999878,727,345.3999939,726.7999878,344.8999939,726.5999756z M350.2999878,712.0999756
			c-0.2000122-0.0999756-0.5-0.2000122-0.7000122-0.2000122c-2.6000061-0.5999756-5.2999878,1.5999756-6,4.7999878
			c-0.7000122,3.0999756,0.7999878,6.2999878,3.5,6.7999878c1.3999939,0.2999878,2.5-0.2000122,3.2999878-0.7000122
			c1.2999878-0.9000244,2.2999878-2.4000244,2.7000122-4.0999756C353.7000122,715.9000244,352.5,713,350.2999878,712.0999756z"/>
	</g>
	<g>
		<path style="fill:#1C1C1C;" d="M376.1000061,717.0999756C371.3000183,715,368.7000122,711.5,369.3999939,708.1999512
			c0.8999939-4.2000122,6.8999939-6.4000244,13.6000061-5c1.2999878,0.2999878,2.5,0.7000122,3.7000122,1.2000122
			c4.7999878,2.0999756,7.3999939,5.5,6.7000122,8.9000244c-0.8999939,4.2000122-6.8999939,6.4000244-13.6000061,5
			C378.5,718,377.2999878,717.5999756,376.1000061,717.0999756z M385.2000122,707.7999878
			c-0.8999939-0.4000244-1.8999939-0.7000122-3-0.9000244c-4.7999878-1-8.7000122,0.2999878-9.1000061,2.0999756
			c-0.3999939,1.9000244,3.2000122,4.7000122,7.5,5.5999756c4.7999878,1,8.7000122-0.2999878,9.1000061-2.0999756
			C390,711.0999756,388.1000061,709.0999756,385.2000122,707.7999878z"/>
	</g>
	<g>
		<path style="fill:#1C1C1C;" d="M424.3999939,727.7000122c-3.7000122-1.5999756-5.5-7.0999756-4.2999878-13.0999756
			c0.6000061-3,2-5.7000122,3.7000122-7.5c2-2.0999756,4.3999939-3,6.6000061-2.5
			c4.3999939,1,6.7999878,6.9000244,5.2999878,13.4000244c-1.3999939,6.5999756-6,11-10.3999939,10.0999756
			C425.1000061,728,424.7999878,727.7999878,424.3999939,727.7000122z M430.1000061,708.2999878
			c-1.2999878-0.2999878-2.3999939,0.2000122-3.5,1.2999878c-1.2999878,1.4000244-2.2999878,3.5-2.7999878,5.7999878
			c-1,4.7999878,0.3999939,8.5,2.5,9c2,0.4000244,4.8999939-2.4000244,5.8999939-7.2000122
			C433.2000122,712.7000122,431.7999878,709.0999756,430.1000061,708.2999878z"/>
	</g>
	<g>
		<path style="fill:#1C1C1C;" d="M482.7999878,734c-5-2.2000122-7.7999878-6.5999756-6.8999939-10.9000244
			C477,718,483.1999817,715,489.6000061,716.3999634c6.7000122,1.4000244,10.7999878,6.7999878,9.7999878,11.7999878
			c-1.1000061,5.0999756-7.2000122,8.0999756-13.7000122,6.7999878
			C484.7000122,734.7000122,483.7000122,734.4000244,482.7999878,734z M491,720.7000122
			c-0.7000122-0.2999878-1.3999939-0.5-2.2000122-0.7000122c-4.3999939-0.9000244-8.7000122,0.7999878-9.2999878,3.9000244
			c-0.6000061,3,2.3999939,6.4000244,6.8999939,7.2999878c4.3999939,0.9000244,8.6000061-0.7999878,9.2999878-3.9000244
			C496.2999878,724.9000244,494.2999878,722.2000122,491,720.7000122z"/>
	</g>
	<g>
		<path style="fill:#1C1C1C;" d="M461.7999878,770.5c-4.7000122-2-7.2999878-7.2999878-6.2000122-12.5
			c1.2999878-6,7-9.9000244,12.7999878-8.7000122c5.7999878,1.2999878,9.3999939,7.2000122,8.1000061,13.0999756
			c-0.6000061,2.9000244-2.2999878,5.4000244-4.7000122,7c-2.3999939,1.5999756-5.2999878,2.2000122-8.1000061,1.5999756
			C463,770.9000244,462.3999939,770.7000122,461.7999878,770.5z M468.7999878,753.4000244
			C468.3999939,753.2000122,468,753.1000366,467.5999756,753c-3.7999878-0.7999878-7.5,1.7999878-8.3999939,5.7999878
			c-0.7999878,3.9000244,1.5,7.9000244,5.2999878,8.7000122c1.7999878,0.4000244,3.7000122,0,5.2000122-1.0999756
			c1.6000061-1.0999756,2.7000122-2.7999878,3.1000061-4.7000122
			C473.6000061,758.2000122,471.8999939,754.7000122,468.7999878,753.4000244z"/>
	</g>
	<g>
		<path style="fill:#1C1C1C;" d="M527.7999878,749.7000122c-4.7000122-2-7.2999878-7.7000122-6.0999756-13.4000244
			c0.7000122-3.4000244,2.7000122-6.2999878,5.4000244-8.0999756c2.2999878-1.5,4.9000244-2,7.5-1.5
			c5.7999878,1.2999878,9.2000122,7.5999756,7.7999878,13.9000244c-0.7000122,3.4000244-2.7000122,6.2999878-5.4000244,8.0999756
			c-2.2999878,1.5-5,2-7.5,1.5C528.9000244,750.0999756,528.2999878,749.9000244,527.7999878,749.7000122z M534.9000244,730.7000122
			c-0.2999878-0.2000122-0.7000122-0.2999878-1.0999756-0.2999878c-1.5999756-0.2999878-3.2000122,0-4.7000122,0.9000244
			c-1.9000244,1.2000122-3.2000122,3.2999878-3.7999878,5.7000122c-0.9000244,4.4000244,1.2999878,8.7000122,5,9.5
			c1.5999756,0.2999878,3.2000122,0,4.7000122-0.9000244c1.9000244-1.2000122,3.2999878-3.2999878,3.7999878-5.7000122
			C539.5999756,736,537.9000244,732,534.9000244,730.7000122z"/>
	</g>
	<g>
		<path style="fill:#1C1C1C;" d="M387.8999939,754.5999756c-4-1.7000122-6.1000061-4.7000122-5.5-7.5
			c0.7999878-3.5999756,5.6000061-5.5,11.2000122-4.2999878s9.2000122,4.9000244,8.5,8.4000244
			c-0.7999878,3.5999756-5.6000061,5.5-11.2000122,4.2999878C389.7999878,755.2999878,388.7999878,755,387.8999939,754.5999756z
			 M395,747.2000122c-0.7000122-0.2999878-1.3999939-0.5-2.2999878-0.7000122
			c-3.7000122-0.7999878-6.5,0.2999878-6.7000122,1.4000244c-0.2000122,1.0999756,2.1000061,3.2000122,5.6000061,4
			c3.7000122,0.7999878,6.5-0.2999878,6.7000122-1.4000244C398.5,749.5999756,397.2999878,748.2000122,395,747.2000122z"/>
	</g>
	<g>
		<path style="fill:#1C1C1C;" d="M426.2000122,785.0999756c-4.5-2-7.1000061-6.4000244-6.2000122-10.7999878
			c1.1000061-5.0999756,6.6000061-8.2999878,12.2999878-7.0999756c5.8999939,1.2000122,9.3999939,6.4000244,8.3999939,11.5
			c-1.1000061,5.0999756-6.7000122,8.2999878-12.2999878,7.0999756
			C427.6000061,785.7000122,426.8999939,785.4000244,426.2000122,785.0999756z M433.1000061,771.4000244
			c-0.5-0.2000122-1-0.4000244-1.5-0.5c-3.7000122-0.7999878-7.2000122,1.0999756-7.8999939,4.2000122
			c-0.6000061,3.0999756,1.7999878,6.2999878,5.5,7.0999756s7.2000122-1.0999756,7.8999939-4.2000122
			C437.6000061,775.4000244,436,772.5999756,433.1000061,771.4000244z"/>
	</g>
	<g>
		<path style="fill:#1C1C1C;" d="M504.7000122,786.2999878c-3.7000122-1.5999756-5.7999878-5.9000244-4.7999878-10.2000122
			c0.5-2.5,2-4.5999756,4-6c1.8999939-1.2000122,4-1.5999756,6.1000061-1.2000122
			c4.6999817,1,7.3000183,5.7999878,6.3000183,10.5999756c-1,4.9000244-5.6000061,8.0999756-10.1000061,7.0999756
			C505.6000061,786.7000122,505.2000122,786.5,504.7000122,786.2999878z M509.8999939,772.9000244
			c-0.2000122-0.0999756-0.5-0.2000122-0.7999878-0.2000122c-1.1000061-0.2000122-2.2999878,0-3.2999878,0.7000122
			C504.6000061,774.2000122,503.7000122,775.5,503.4000244,777c-0.6000061,2.7999878,0.8999939,5.5999756,3.5,6.2000122
			c2.5,0.5,5-1.4000244,5.7000122-4.2999878C513.2000122,776.2999878,512,773.7999878,509.8999939,772.9000244z"/>
	</g>
	<g>
		<g>
			<path style="fill:#1C1C1C;" d="M557,879c-1.2000122-0.5-1.9000244-1.9000244-1.5999756-3.2000122L558,865
				c0.2999878-1.5,1.9000244-2.4000244,3.4000244-2.0999756c1.5,0.2999878,2.4000244,1.9000244,2.0999756,3.4000244
				l-2.5999756,10.9000244C560.5,878.7000732,559,879.6000977,557.5,879.3000488
				C557.2999878,879.2000122,557.0999756,879.0999756,557,879z"/>
		</g>
		<g>
			<path style="fill:#1C1C1C;" d="M420.2999878,1207c-0.2999878-0.0999756-0.6000061-0.3000488-0.7999878-0.5999756
				c-1.1000061-1.0999756-1.1000061-2.9000244,0-4c4-4.0999756,8.6000061-8.5,13.3999939-13.0999756l2.2000122-2.0999756
				c1.1000061-1.0999756,2.8999939-1,3.8999939,0.0999756c1.1000061,1.0999756,1.1000061,2.9000244-0.1000061,4L436.6999817,1193.5
				c-4.7999878,4.5999756-9.2999878,9-13.2999878,13C422.6000061,1207.3000488,421.2999878,1207.5,420.2999878,1207z
				 M446.2999878,1181.6999512c-0.2999878-0.0999756-0.6000061-0.3000488-0.8999939-0.5999756
				c-1.1000061-1.0999756-1.1000061-2.9000244,0-4c5.7999878-5.6999512,10.7000122-10.8000488,15-15.5999756
				c1-1.0999756,2.7999878-1.1999512,4-0.1999512c1.1000061,1,1.2000122,2.8000488,0.2000122,4
				c-4.3999939,4.9000244-9.2999878,10-15.2000122,15.8000488
				C448.5,1181.9000244,447.2999878,1182.0999756,446.2999878,1181.6999512z M470.7000122,1154.9000244
				C470.5,1154.8000488,470.3000183,1154.7000732,470,1154.5c-1.2000122-1-1.3999939-2.6999512-0.3999939-3.9000244
				c4.7999878-6,8.8999939-11.9000244,12.2000122-17.5c0.7999878-1.3000488,2.3999939-1.9000244,3.8999939-1
				c1.2999878,0.8000488,1.7999878,2.5,1,3.8000488c-3.3999939,5.9000244-7.7000122,12-12.6000061,18.1999512
				C473.2000122,1155.0999756,471.7999878,1155.4000244,470.7000122,1154.9000244z M489.3999939,1124
				c-1.3999939-0.5999756-2.1000061-2.1999512-1.5-3.5999756C490,1115.2000732,492.5,1108.3000488,495.1999817,1100.0999756
				c0.5-1.5,2.1000061-2.3000488,3.5-1.8000488s2.2999878,2.0999756,1.7999878,3.5
				c-2.7999878,8.4000244-5.2000122,15.3000488-7.3999939,20.6999512
				C492.6000061,1123.9000244,490.8999939,1124.5999756,489.3999939,1124C489.5,1124,489.3999939,1124,489.3999939,1124z
				 M501.2000122,1089.5999756c-1.2999878-0.5999756-2-2-1.5-3.4000244c2-6.5,4.1000061-13.5,6.2000122-20.8000488
				c0.3999939-1.5,2-2.3000488,3.5-1.9000244c1.6000061,0.4000244,2.2999878,2,1.8999939,3.5
				c-2.1000061,7.3000488-4.2999878,14.4000244-6.2999878,20.9000244c-0.5,1.5-2,2.3000488-3.5,1.8000488
				C501.3999939,1089.6999512,501.2000122,1089.5999756,501.2000122,1089.5999756z M511.5,1054.8000488
				c-1.2999878-0.5-2-2-1.6000061-3.3000488c1.8999939-6.8000488,3.8999939-13.8000488,5.8000183-21
				c0.4000244-1.5,2-2.4000244,3.5-2c1.5,0.5,2.4000244,2,2,3.5c-2,7.1999512-3.9000244,14.1999512-5.7999878,21
				c-0.4000244,1.5-2,2.4000244-3.5,1.9000244C511.7000122,1054.9000244,511.6000061,1054.8000488,511.5,1054.8000488z
				 M521.0999756,1019.7999878c-1.2999878-0.5-1.9000244-1.9000244-1.5999756-3.2999878c1.9000244-7,3.7999878-14,5.5999756-21
				C525.5,994,527,993.0999756,528.5,993.5c1.4000244,0.4000244,2.4000244,1.9000244,2,3.4000244
				c-1.9000244,7-3.7000122,14.0999756-5.5999756,21c-0.4000244,1.5-1.9000244,2.4000244-3.5,2
				C521.4000244,1019.9000244,521.2000122,1019.7999878,521.0999756,1019.7999878z M530.4000244,984.7000122
				c-1.2999878-0.5-2-1.9000244-1.5999756-3.2999878l5.5-21.0999756c0.4000244-1.5,1.9000244-2.4000244,3.4000244-2
				c1.5999756,0.4000244,2.4000244,1.9000244,2,3.4000244l-5.4000244,21.0999756c-0.4000244,1.5-1.9000244,2.4000244-3.4000244,2
				C530.7000122,984.7999878,530.5,984.7000122,530.4000244,984.7000122z M539.5,949.5
				c-1.2000122-0.5-1.9000244-1.9000244-1.5999756-3.2000122l5.2999878-21.0999756c0.4000244-1.5,1.9000244-2.4000244,3.4000244-2
				c1.5999756,0.4000244,2.4000244,1.9000244,2,3.4000244l-5.2999878,21.0999756c-0.4000244,1.5-1.9000244,2.4000244-3.4000244,2
				C539.7000122,949.5999756,539.5999756,949.5999756,539.5,949.5z M548.2999878,914.2999878
				c-1.2000122-0.5-1.9000244-1.9000244-1.5999756-3.2000122c1.9000244-7.9000244,3.7000122-15,5.2000122-21.2000122
				c0.4000244-1.5,1.9000244-2.4000244,3.4000244-2.0999756c1.5,0.2999878,2.4000244,1.9000244,2.0999756,3.4000244
				c-1.5,6.2000122-3.2999878,13.2999878-5.2000122,21.2000122c-0.4000244,1.5-1.9000244,2.4000244-3.4000244,2
				C548.5999756,914.4000244,548.4000244,914.2999878,548.2999878,914.2999878z"/>
		</g>
		<g>
			<path style="fill:#1C1C1C;" d="M405,1227.1999512c-1.2999878-0.5999756-2-2-1.5-3.4000244c1-3,3-6.4000244,6.2000122-10.4000244
				c1-1.1999512,2.7000122-1.4000244,3.8999939-0.5c1.2000122,1,1.3999939,2.6999512,0.5,3.9000244
				c-2.7000122,3.4000244-4.5,6.4000244-5.2000122,8.6999512c-0.5,1.5-2.1000061,2.3000488-3.5,1.8000488
				C405.2000122,1227.1999512,405.1000061,1227.1999512,405,1227.1999512z"/>
		</g>
	</g>
	<g>
		<path style="fill:#1C1C1C;" d="M836.0999756,713.2999878c-1.2000122-0.5-2.4000244-1.2000122-3.4000244-2.0999756
			c-4.2999878-3.5999756-6.0999756-9.5999756-4.9000244-16.7999878c1.0999756-6.5,4.4000244-13.4000244,9.5-19.5
			c10.9000244-13,26.5-17.9000244,35-10.7999878c4.2999878,3.5999756,6.0999756,9.5999756,4.9000244,16.7999878
			c-1.0999756,6.5-4.4000244,13.4000244-9.5,19.5C858,711.9000244,845.0999756,717.2000122,836.0999756,713.2999878z
			 M866,668.9000244c-5-2.0999756-14.9000244,1.2999878-22.9000244,10.7999878c-4.2000122,5-7,10.7000122-7.9000244,15.9000244
			c-0.4000244,2.5999756-0.7000122,7.4000244,2.2999878,9.9000244c4.4000244,3.7000122,15.5,0.7000122,24.4000244-9.9000244
			c4.2000122-5,7-10.7000122,7.9000244-15.9000244c0.4000244-2.5999756,0.7000122-7.4000244-2.2999878-9.9000244
			C867,669.4000244,866.5,669.0999756,866,668.9000244z"/>
	</g>
	<g>
		<path style="fill:#1C1C1C;" d="M346,1251.4000244c-1.6000061-0.6999512-2.5-2.4000244-2.2000122-4.1999512
			C345,1241.6000977,352,1225.7000732,361,1205.4000244c11.5-26,25.7999878-58.3000488,32.1000061-78.9000244
			c13.2000122-42.8000488,56.2999878-187.7999878,56.7000122-254.2999878c0.1000061-24.9000244-11.5-33.7000122-21.5-36.7999878
			c-12.6000061-3.9000244-26.5,0.4000244-29.7000122,5.2000122c-1.1000061,1.7000122-3.5,2.0999756-5.2000122,1
			s-2.2000122-3.5-1-5.2000122c5.2000122-7.7999878,22.6000061-12.9000244,38-8.2000122
			c10.1000061,3.0999756,27,12.9000244,26.7999878,44c-0.3999939,67.4000244-43.7000122,213.2999878-57,256.3999634
			c-6.5,21-20.8999939,53.5999756-32.3999939,79.6999512c-8.1000061,18.3000488-15.7000122,35.5-16.7000122,40.3000488
			c-0.3999939,2-2.3999939,3.3000488-4.3999939,2.9000244C346.5,1251.5999756,346.2999878,1251.5,346,1251.4000244z"/>
	</g>
	<g>
		<path style="fill:#1C1C1C;" d="M302.7000122,1369.9000244c-1.3999939-0.5999756-2.1000061-2.1999512-1.5-3.5999756
			s2.2000122-2.0999756,3.6000061-1.5999756c8.5,3.4000244,15.7999878,4.0999756,19,1.9000244
			c1.2999878-0.9000244,3-0.5999756,3.8999939,0.6999512c0.8999939,1.3000488,0.6000061,3-0.7000122,3.9000244
			C320.2999878,1375.8000488,309,1372.4000244,302.7000122,1369.9000244L302.7000122,1369.9000244z M289.3999939,1363
			c-0.1000061-0.0999756-0.2999878-0.0999756-0.3999939-0.1999512c-8-5.1999512-14-11.0999756-16.7999878-16.5999756
			c-0.7000122-1.4000244-0.1000061-3.0999756,1.2000122-3.8000488c1.3999939-0.6999512,3.1000061-0.1999512,3.7999878,1.1999512
			C279.5,1348.1999512,284.9000244,1353.5,292,1358.0999756c1.2999878,0.8000488,1.7000122,2.5999756,0.7999878,3.9000244
			C292.1000061,1363.0999756,290.7000122,1363.5999756,289.3999939,1363z M329.5,1357.8000488
			c-1.2000122-0.5-1.8999939-1.8000488-1.6000061-3.0999756c1-5.5,2.2000122-12.9000244,3.2999878-22
			c0.2000122-1.5,1.6000061-2.5999756,3.1000061-2.4000244s2.6000061,1.5999756,2.3999939,3.0999756
			c-1.2000122,9.1999512-2.2999878,16.8000488-3.3999939,22.4000244c-0.2999878,1.5-1.7000122,2.5-3.2999878,2.1999512
			C329.8999939,1358,329.7000122,1357.9000244,329.5,1357.8000488z M274.5,1333.0999756c-1.3999939-0.5999756-2-2.0999756-1.5-3.5
			c0.2999878-0.9000244,0.7000122-1.6999512,1.1000061-2.5999756c2.1000061-4.9000244,5.2999878-10.6999512,9.6000061-17.6999512
			C284.5,1308,286.1000061,1307.5,287.6000061,1308.4000244c1.2999878,0.8000488,1.7000122,2.5,0.8999939,3.8000488
			c-4.2000122,6.8000488-7.2000122,12.3000488-9.2000122,17c-0.2999878,0.8000488-0.7000122,1.5999756-1,2.4000244
			c-0.5,1.4000244-2.1000061,2.1999512-3.6000061,1.5999756C274.6000061,1333.0999756,274.5,1333.0999756,274.5,1333.0999756z
			 M334.7000122,1320.6999512c-1.1000061-0.5-1.7999878-1.5999756-1.7000122-2.9000244
			c0.7999878-7.4000244,1.7000122-15,2.3999939-22.3000488c0.2000122-1.5,1.5-2.6999512,3.1000061-2.5
			c1.5,0.1999512,2.7000122,1.5999756,2.5,3.0999756c-0.7000122,7.3000488-1.6000061,14.9000244-2.3999939,22.4000244
			c-0.2000122,1.5-1.6000061,2.6999512-3.1000061,2.5C335.2000122,1320.9000244,334.8999939,1320.9000244,334.7000122,1320.6999512z
			 M293,1300.6999512c-0.1000061-0.0999756-0.2999878-0.1999512-0.5-0.3000488
			c-1.2999878-0.9000244-1.6000061-2.5999756-0.7000122-3.9000244c4.1000061-6.1999512,8.5-12.4000244,12.8999939-18.5
			c0.8999939-1.3000488,2.6000061-1.5999756,3.8999939-0.6999512s1.5,2.5999756,0.7000122,3.9000244
			C305,1287.1999512,300.5999756,1293.3999023,296.5,1299.5C295.7000122,1300.8000488,294.2000122,1301.1999512,293,1300.6999512z
			 M338.6000061,1283.5c-1.1000061-0.5-1.7999878-1.5999756-1.7000122-2.9000244
			c1-9.6999512,1.7999878-17.8000488,2.3999939-22.4000244c0.2000122-1.5,1.6000061-2.5999756,3.1000061-2.4000244
			s2.6000061,1.5999756,2.3999939,3.0999756c-0.6000061,4.5999756-1.3999939,12.5999756-2.3999939,22.3000488
			c-0.2000122,1.5-1.5,2.6999512-3.1000061,2.5C339.1000061,1283.6999512,338.7999878,1283.5999756,338.6000061,1283.5z
			 M314.5,1270.0999756c-0.2000122-0.0999756-0.3999939-0.1999512-0.5-0.3000488
			c-1.2999878-0.9000244-1.6000061-2.5999756-0.7000122-3.9000244c4.6000061-6.5,9.2000122-13.1999512,12.3999939-18.4000244
			c0.7999878-1.3000488,2.6000061-1.6999512,3.8999939-0.9000244c1.2999878,0.8000488,1.7000122,2.5,1,3.8000488
			c-3.2999878,5.4000244-8,12.1999512-12.6000061,18.8000488C317.1000061,1270.1999512,315.7000122,1270.5999756,314.5,1270.0999756
			z M332.7999878,1237.8000488c-1.2999878-0.5-1.8999939-1.9000244-1.6000061-3.3000488
			c1.3999939-5.6999512,2.5-13,3.1000061-21.6999512c0.1000061-1.5999756,1.3999939-2.6999512,3-2.5999756
			c1.5,0.0999756,2.7000122,1.4000244,2.6000061,3c-0.6000061,9.1999512-1.7000122,16.5999756-3.2000122,22.6999512
			c-0.3999939,1.5-1.8999939,2.4000244-3.3999939,2C333.1000061,1237.9000244,332.8999939,1237.8000488,332.7999878,1237.8000488z
			 M336.6000061,1200.6999512c-1-0.4000244-1.7000122-1.5-1.7000122-2.5999756
			C335,1191.5,335,1184.1999512,334.6999817,1175.7999268c0-1.5,1.2000122-2.8000488,2.7000122-2.9000244
			c1.5,0,2.7999878,1.1999512,2.8999939,2.6999512c0.2000122,8.4000244,0.2999878,15.8000488,0.1000061,22.5
			c0,1.5999756-1.2999878,2.8000488-2.8999939,2.8000488
			C337.2999878,1200.9000244,336.8999939,1200.8000488,336.6000061,1200.6999512z M335.8999939,1163.3000488
			c-1-0.4000244-1.7000122-1.3000488-1.7000122-2.4000244c-0.2999878-7.4000244-0.7000122-14.9000244-1-22.4000244
			c-0.1000061-1.5,1.1000061-2.9000244,2.7000122-2.9000244c1.6000061-0.0999756,2.8999939,1.0999756,2.8999939,2.6999512
			c0.3999939,7.5,0.7999878,15,1.1000061,22.4000244c0.1000061,1.5999756-1.1000061,2.9000244-2.7000122,2.9000244
			C336.7000122,1163.5999756,336.2999878,1163.5,335.8999939,1163.3000488z M334.1000061,1126
			c-0.8999939-0.4000244-1.6000061-1.3000488-1.7000122-2.4000244l-0.1000061-1.3000488
			c-0.2999878-5.5999756-0.2000122-12.9000244,0.2999878-21.4000244c0.1000061-1.5999756,1.3999939-2.6999512,2.8999939-2.5999756
			c1.6000061,0.0999756,2.7000122,1.4000244,2.7000122,3c-0.3999939,8.3000488-0.5,15.4000244-0.2000122,20.8000488v1.3000488
			c0.1000061,1.5-1.1000061,2.8000488-2.7000122,2.9000244C334.8999939,1126.1999512,334.5,1126.1999512,334.1000061,1126z
			 M335.3999939,1088.5999756c-1.1000061-0.5-1.7999878-1.5999756-1.7000122-2.8000488
			c0.6000061-7,1.3999939-14.5,2.2999878-22.4000244c0.2000122-1.5,1.6000061-2.5999756,3.1000061-2.5
			c1.6000061,0.1999512,2.6000061,1.5999756,2.5,3.0999756c-0.8999939,7.8000488-1.7000122,15.3000488-2.2000122,22.1999512
			c-0.1000061,1.5999756-1.5,2.6999512-3,2.5999756C335.8999939,1088.8000488,335.6000061,1088.6999512,335.3999939,1088.5999756z
			 M339.5,1051.4000244c-1.1000061-0.5-1.7999878-1.5999756-1.7000122-2.9000244
			c0.8999939-7.1999512,2-14.6999512,3.1000061-22.3000488c0.2000122-1.5,1.7000122-2.5999756,3.2000122-2.4000244
			c1.5,0.2000122,2.6000061,1.6999512,2.3999939,3.1999512c-1.1000061,7.5999756-2.1000061,15-3.1000061,22.1999512
			c-0.2000122,1.5-1.6000061,2.5999756-3.1000061,2.4000244C339.8999939,1051.5999756,339.7000122,1051.5,339.5,1051.4000244z
			 M344.7999878,1014.4000244c-1.2000122-0.5-1.8999939-1.7000122-1.7000122-3
			c1.2000122-7.4000244,2.3999939-14.7999878,3.7000122-22.2000122c0.2999878-1.5,1.7000122-2.5999756,3.2000122-2.2999878
			s2.6000061,1.7000122,2.2999878,3.2000122c-1.2999878,7.4000244-2.5,14.7999878-3.6000061,22.0999756
			c-0.2999878,1.5-1.7000122,2.5999756-3.2000122,2.2999878C345.2000122,1014.5999756,345,1014.5,344.7999878,1014.4000244z
			 M351,977.5c-1.2000122-0.5-1.8999939-1.7999878-1.7000122-3.0999756C350.6999817,967,352.0999756,959.6000366,353.5,952.3000488
			c0.2999878-1.5,1.7999878-2.5,3.2999878-2.2000122c1.6000061,0.2999878,2.5,1.7999878,2.2000122,3.2999878
			c-1.3999939,7.2000122-2.7999878,14.5999756-4.1000061,22c-0.2999878,1.5-1.7000122,2.5-3.2999878,2.2999878
			C351.3999939,977.7000122,351.2000122,977.5999756,351,977.5z M358.1000061,940.7999878
			c-1.2000122-0.5-1.8999939-1.7999878-1.6000061-3.0999756c1.6000061-7.5999756,3.1000061-14.9000244,4.7999878-22
			c0.2999878-1.5,1.7999878-2.5,3.2999878-2.0999756s2.5,1.7999878,2.1000061,3.4000244
			c-1.6000061,7-3.1000061,14.2999878-4.7000122,21.9000244c-0.2999878,1.5-1.7999878,2.5-3.2999878,2.2000122
			C358.5,941,358.2999878,940.9000244,358.1000061,940.7999878z M366.2999878,904.2999878
			c-1.2000122-0.5-1.8999939-1.9000244-1.6000061-3.2000122c1.8999939-7.9000244,3.7999878-15.2000122,5.7000122-21.7999878
			c0.3999939-1.5,2-2.4000244,3.5-1.9000244c1.6000061,0.4000244,2.3999939,2,1.8999939,3.4000244
			c-1.8999939,6.5999756-3.7999878,13.7999878-5.6000061,21.5999756c-0.3999939,1.5-1.8999939,2.4000244-3.3999939,2
			C366.6000061,904.4000244,366.3999939,904.4000244,366.2999878,904.2999878z M376.2999878,868.2999878
			c-1.2999878-0.5999756-2-2.0999756-1.5-3.5c1.5-4.4000244,2.8999939-8.2000122,4.2000122-11.2999878
			c2.2000122-5,4.1000061-8.2999878,6-10c1.1000061-1,2.8999939-0.9000244,4,0.2000122c1,1.0999756,1,2.9000244-0.2000122,4
			c-0.7000122,0.7000122-2.2999878,2.5999756-4.7000122,8.0999756c-1.2999878,2.9000244-2.6000061,6.5999756-4.1000061,10.9000244
			c-0.5,1.5-2.1000061,2.2999878-3.5,1.7999878C376.5,868.4000244,376.3999939,868.2999878,376.2999878,868.2999878z"/>
	</g>
	<g>
		<path style="fill:#1C1C1C;" d="M309.2999878,1199.9000244c-5.5-26.5999756-18-93.1999512-16.1000061-142.5
			C294.0999756,1034.7000732,303.7999878,991,314.0999756,944.6000366
			C326.4999695,888.8000488,343.4999695,812.5,334.7999878,804.7000732c-3.7999878-3.4000244-7.2000122-4.5999756-10.5-3.9000244
			c-6.1000061,1.2999878-10.7999878,9.5-12.1000061,12.5999756c-0.7999878,1.9000244-3,2.7999878-4.8999939,1.9000244l0,0
			c-1.8999939-0.7999878-2.7999878-3-2-4.9000244C305.5999756,809.8000488,311.5999756,796,322.6999817,793.5
			c5.7000122-1.2999878,11.3999939,0.5999756,17.1000061,5.5999756c11.2000122,10,0.5,62.2000122-18.3999939,147.0999756
			c-10.2000122,46-19.8999939,89.5-20.7000122,111.5c-1.7999878,48.5,10.5,114.4000244,15.8999939,140.4000244
			L309.2999878,1199.9000244z"/>
	</g>
	<g>
		<path style="fill:#1C1C1C;" d="M506.8999939,811.0999756c-0.2999878-0.0999756-0.5-0.2999878-0.7000122-0.4000244
			c-1.7000122-1.2000122-2-3.5999756-0.7999878-5.2000122c31.3999939-42.0999756,188.8000183-252.6000366,205.8000183-258.7000122
			c1.4000244-0.5,2.9000244-0.0999756,3.9000244,0.9000244s1.2999878,2.5999756,0.7999878,3.9000244
			C712.2000122,561.5,707.9000244,579.6999512,712.5,586c0.7999878,1.0999756,2.2999878,2.5999756,6.2000122,2.4000244
			c1.5-0.0999756,2.9000244,0.7000122,3.5,2.0999756c0.7000122,1.2999878,0.5,2.9000244-0.5,4.0999756l-181.1000366,215
			c-1.2999878,1.5999756-3.7000122,1.7999878-5.2999878,0.4000244c-1.5999756-1.2999878-1.7999878-3.7000122-0.4000244-5.2999878
			L712,594.5999756c-2.5999756-1.0999756-4.2999878-2.7999878-5.4000244-4.2999878
			c-5.0999756-7-3.5999756-19.4000244-1.4000244-28.9000244C674.4000244,594.2000122,577,721.7999878,511.3999939,809.9000244
			C510.3999939,811.2999878,508.5,811.7000122,506.8999939,811.0999756z"/>
	</g>
	<g>
		<path style="fill:#1C1C1C;" d="M724.7999878,596c-0.7000122-0.2999878-1.5-0.7000122-2.2999878-1.0999756
			c-4-2.2999878-8.5999756-7.5-8-19.5c0.7000122-14.2999878,9.2000122-34.0999756,15.9000244-37
			c1.9000244-0.7999878,4.0999756,0,4.9000244,1.9000244c0.7999878,1.9000244,0,4.0999756-1.9000244,4.9000244
			c-3.0999756,1.7000122-11.2999878,18.2000122-11.5,31.7999878c-0.0999756,4.0999756,0.5999756,9.2999878,4.2999878,11.4000244
			c1.7000122,0.9000244,3,1.4000244,4.0999756,1.5c-2-2.7000122-3.9000244-6.7999878-4.0999756-12.4000244
			c-0.2999878-7.7999878,4.9000244-21.5999756,13-29.9000244c5-5.0999756,10.7000122-7.7000122,16.5-7.5999756
			c2,0,3.7000122,1.7000122,3.7000122,3.7999878s-1.7000122,3.7000122-3.7999878,3.7000122
			c-3.7000122,0-7.4000244,1.7999878-11,5.4000244c-7,7.2000122-11.0999756,19-10.9000244,24.4000244
			c0.2999878,7.5999756,4.9000244,10.5999756,5.0999756,10.7999878c0.9000244,0.5999756,1.5,1.4000244,1.7000122,2.4000244
			s0,2-0.5999756,2.9000244C738.0999756,595.9000244,732.7999878,599.4000244,724.7999878,596z"/>
	</g>
	<g>
		<path style="fill:#1C1C1C;" d="M742.9000244,600.5999756c-2.5999756-1.0999756-4.7000122-2.9000244-6.0999756-5.2000122
			c-2.0999756-3.4000244-3.7000122-9.7000122,0.7000122-20.0999756c10.2999878-24.7999878,33-24.2000122,34-24.0999756
			c2.0999756,0.0999756,3.7000122,1.7999878,3.5999756,3.9000244c-0.0999756,2.0999756-1.7999878,3.7000122-3.9000244,3.5999756
			c-0.9000244,0-18.5-0.2999878-26.7999878,19.5C742,584,741.5,588.7999878,743.2000122,591.6000366
			c1.2999878,2.2000122,3.7000122,2.7999878,5.5,2.9000244c2.0999756,0.2000122,3.5999756,2,3.4000244,4
			c-0.2000122,2.0999756-2,3.5999756-4,3.4000244C746.2000122,601.7000122,744.5,601.2000122,742.9000244,600.5999756z"/>
	</g>
	<g>
		<path style="fill:#1C1C1C;" d="M833.5999756,711.7999878c-0.5-0.2000122-1-0.5999756-1.4000244-1.0999756
			C818.5,694,749.7000122,609.7999878,747,599.5999756c-3-11.7000122,3.9000244-22.2000122,11.2999878-28.2000122
			c12-9.5999756,24-6.2999878,24.5-6.0999756C783.5,565.5,784.0999756,565.8999634,784.5,566.3999634l85.5999756,95.2999878
			c1.4000244,1.5,1.2000122,3.9000244-0.2999878,5.2999878c-1.5,1.4000244-3.9000244,1.2000122-5.2999878-0.2999878
			l-84.7999878-94.4000244c-2.5-0.4000244-9.5-0.7999878-16.7999878,5c-5.5999756,4.5-10.7999878,12.2999878-8.7000122,20.5
			C756.5,605,806.7999878,668,838,706c1.2999878,1.5999756,1.0999756,3.9000244-0.5,5.2999878
			C836.4000244,712.2000122,834.9000244,712.2999878,833.5999756,711.7999878z"/>
	</g>
	<g>
		<path style="fill:#1C1C1C;" d="M419.7999878,705.0999756c-0.2000122-0.0999756-0.3999939-0.2000122-0.6000061-0.2999878
			c-0.8999939-0.5999756-1.5-1.5-1.7000122-2.5999756l-24.2000122-164.2999878
			c-0.2999878-2,1.1000061-3.9000244,3.2000122-4.2000122c2-0.2999878,3.8999939,1.0999756,4.2000122,3.0999756
			l23.6000061,160.1000366L427.5,696l-23.3999939-158.4000244c-0.2999878-2,1.1000061-3.9000244,3.2000122-4.2000122
			c2-0.2999878,3.8999939,1.0999756,4.2000122,3.0999756l23.8999939,161.6000366
			c0.2999878,1.9000244-0.8999939,3.5999756-2.7000122,4.0999756l-10.3999939,3
			C421.5,705.5,420.6000061,705.4000244,419.7999878,705.0999756z"/>
	</g>
	<g>
		<path style="fill:#1C1C1C;" d="M266.2999878,635.0999756c-15.3999939-6.7000122-24.3999939-15.5-25.6999969-25.9000244
			c-4-31.7000122,66.1999969-65.7000122,159.9000092-77.5c93.6000061-11.7999878,170.0999756,3.9000244,174,35.5999756
			c2.7999878,22.5-29.9000244,46-87.3999939,62.7999878c-2,0.5999756-4.1000061-0.5999756-4.6000061-2.5
			c-0.6000061-2,0.5-4.0999756,2.5-4.5999756c51.4000244-15,84.2999878-37,82.0999756-54.7000122
			c-3-23.7000122-70.2999878-41.0999756-165.7000122-29.0999756s-156.3999939,45.5-153.3999939,69.2000122
			c1.8000031,14.5999756,26.7000122,26.0999756,66.5,30.7000122c2.1000061,0.2999878,3.5,2.0999756,3.2999878,4.0999756
			c-0.2000122,2.0999756-2.1000061,3.5-4.1000061,3.2999878
			C294.2999878,644.2000122,278.2999878,640.2999878,266.2999878,635.0999756z"/>
	</g>
	<g>
		<path style="fill:#1C1C1C;" d="M228.3999939,610.5999756c-0.5-0.2000122-1-0.5999756-1.3999939-1
			c-1.3000031-1.5999756-1.1000061-3.9000244,0.3999939-5.2999878L392.6000061,464c1.2000122-1,2.6000061-1.2000122,4.1000061-0.5
			l161.6000366,83.2999878c1.7999878,0.9000244,2.5999756,3.2000122,1.5999756,5s-3.2999878,2.4000244-5,1.5999756
			l-159.3999939-82.2000122L232.3000031,610C231.1999969,610.9000244,229.6999969,611.0999756,228.3999939,610.5999756z"/>
	</g>
	<g>
		<path style="fill:#1C1C1C;" d="M352.7999878,559.2999878L352.7999878,559.2999878c-2-0.9000244-2.7999878-3.0999756-1.8999939-5
			l40.7000122-89c0.5-1.2000122,1.6000061-2,2.8999939-2.1000061c1.2999878-0.2000122,2.5,0.2999878,3.3999939,1.2999878
			L461.5,541.0999756c1.2999878,1.5999756,1.1000061,3.9000244-0.5,5.2999878
			c-1.6000061,1.2999878-3.8999939,1.0999756-5.2999878-0.5l-59.7999878-72l-38.2000122,83.5999756
			C356.7999878,559.2999878,354.7000122,560.0999756,352.7999878,559.2999878z"/>
	</g>
	<g>
		<path style="fill:#1C1C1C;" d="M506.2999878,635.5999756c-0.5-0.2000122-0.8999939-0.5-1.2000122-1l-69.2000122-100.9000244
			c-0.8999939-1.2999878-0.5-3,0.7000122-3.9000244c1.2999878-0.9000244,3-0.5999756,3.8999939,0.7000122l69.1999817,100.9000244
			c0.8999939,1.2999878,0.6000061,3-0.7000122,3.9000244C508.2000122,635.9000244,507.2000122,635.9000244,506.2999878,635.5999756z
			"/>
	</g>
	<g>
		<path style="fill:#1C1C1C;" d="M346.5,632.0999756c-1.2999878-0.5-2-1.9000244-1.6000061-3.2999878l24.2000122-89.0999756
			c0.3999939-1.5,1.8999939-2.4000244,3.3999939-2s2.3999939,1.9000244,2,3.4000244l-24.2000122,89.0999756
			c-0.3999939,1.5-1.8999939,2.4000244-3.3999939,2C346.7000122,632.2000122,346.6000061,632.2000122,346.5,632.0999756z"/>
	</g>
	<g>
		<path style="fill:#1C1C1C;" d="M261.7000122,650.2000122c-0.2000122-0.0999756-0.3999939-0.2000122-0.5-0.2999878
			c-1.2999878-0.9000244-1.5-2.7000122-0.6000061-3.9000244L332,547c0.8999939-1.2999878,2.6000061-1.5,3.8999939-0.5999756
			s1.5,2.7000122,0.6000061,3.9000244l-71.3999939,99C264.2999878,650.2999878,262.8999939,650.7000122,261.7000122,650.2000122z"/>
	</g>
	<g>
		<path style="fill:#1C1C1C;" d="M567.2000122,613c-0.2000122-0.0999756-0.4000244-0.2000122-0.5999756-0.4000244
			l-98.3999939-78.7000122c-1.2000122-1-1.3999939-2.7000122-0.3999939-3.9000244s2.7000122-1.4000244,3.8999939-0.4000244
			l98.3999939,78.7000122c1.2000122,1,1.4000244,2.7000122,0.4000244,3.9000244
			C569.7000122,613.0999756,568.2999878,613.5,567.2000122,613z"/>
	</g>
</g>
<g>
	<path style="fill:#1C1C1C;" d="M1244.1999512,1037.0999756L1277,1048v14l-104.4000244-35.8000488v-16.2999878
		l104.5999756-35.4000244v14.4000244l-32.9000244,11.0999756L1244.1999512,1037.0999756z M1233.6999512,1002.7999878
		l-30.0999756,10.0999756c-6.8000488,2.2999878-13,3.7999878-19.0999756,5.4000244v0.2999878
		c6.1999512,1.5999756,12.5,3.2999878,18.9000244,5.2999878l30.1999512,10.2999878L1233.6999512,1002.7999878z"/>
	<path style="fill:#1C1C1C;" d="M1172.8000488,958.9000244v-13.5L1266,945.7000122l0.0999756-44.5999756h11.3000488
		l-0.1999512,58.0999756L1172.8000488,958.9000244z"/>
	<path style="fill:#1C1C1C;" d="M1274.1999512,819.0999756c2.5,5,4.9000244,14.9000244,4.9000244,27.5999756
		c-0.0999756,29.5-18.6999512,51.5999756-53,51.5c-32.6999512-0.0999756-54.8000488-22.2999878-54.6999512-54.7000122
		c0-13,2.9000244-21.2000122,4.6999512-24.7999878l11,3.2999878c-2.5,5.0999756-4.4000244,12.4000244-4.4000244,21.0999756
		c-0.0999756,24.5,15.5,40.7999878,43,40.9000244c25.5999756,0.0999756,42.0999756-14.5999756,42.0999756-40
		c0-8.2000122-1.6999512-16.5999756-4.3000488-22L1274.1999512,819.0999756z"/>
	<path style="fill:#1C1C1C;" d="M1224.5999756,716c36,0.0999756,55,22,54.9000244,48.7000122
		c-0.0999756,27.5999756-21.5,46.9000244-53.0999756,46.7999878c-33.1999512-0.0999756-54.8000488-20.7999878-54.6999512-48.7000122
		C1171.6999512,734.2999878,1193.5999756,715.9000244,1224.5999756,716z M1226.0999756,797.0999756
		c22.3000488,0.0999756,42.4000244-12,42.4000244-33.2000122c0.0999756-21.4000244-19.5999756-33.5-43.3000488-33.5999756
		c-20.8000488-0.0999756-42.5,10.7000122-42.5999756,33.2000122C1182.5,785.7999878,1203.0999756,797,1226.0999756,797.0999756z"/>
	<path style="fill:#1C1C1C;" d="M1173.5,684.9000244L1217.1999512,685l0.0999756-50.5l-43.6999512-0.0999756v-13.5999756
		l104.5,0.2999878v13.5999756l-49-0.0999756L1229,685l49,0.0999756v13.5l-104.5-0.2999878V684.9000244z"/>
	<path style="fill:#1C1C1C;" d="M1225.1999512,508.1000061c36,0.1000061,55,21.9999695,54.9000244,48.6999817
		C1280,584.3999634,1258.5999756,603.7000122,1227,603.5999756c-33.1999512-0.0999756-54.8000488-20.7999878-54.6999512-48.7000122
		C1172.3000488,526.4000244,1194.1999512,508,1225.1999512,508.1000061z M1226.5999756,589.2000122
		C1248.9000244,589.2999878,1269,577.2000122,1269,556c0.0999756-21.4000244-19.5999756-33.5-43.3000488-33.5999756
		c-20.8000488-0.0999756-42.5,10.7000122-42.5999756,33.2000122
		C1183.0999756,577.9000244,1203.6999512,589.0999756,1226.5999756,589.2000122z"/>
	<path style="fill:#1C1C1C;" d="M1174.0999756,490.5V477l93.1999512,0.2999878l0.0999756-44.6000061h11.3000488L1278.5,490.7999878
		L1174.0999756,490.5z"/>
	<path style="fill:#1C1C1C;" d="M1174.4000244,384.3999939l0.1999512-56.2999878h11.3000488l-0.0999756,42.7999878L1220.5,371
		l0.0999756-39.5h11.1999512l-0.0999756,39.5L1279,371.1000061v13.5L1174.4000244,384.3999939z"/>
	<path style="fill:#1C1C1C;" d="M1176,308.8999939c-1.4000244-6.7999878-2.0999756-16.6000061-2.0999756-25.8999939
		c0-14.3999939,2.6999512-23.7000122,8.5999756-30.1999969c4.6999512-5.3000031,11.8000488-8.1999969,19.9000244-8.1999969
		c13.8000488,0,22.9000244,8.6999969,26.5999756,19.7999878h0.5c2.8000488-8.1000061,10.3000488-12.8000031,21.0999756-15.3000031
		c14.5999756-3.3999939,24.6999512-5.8000031,28.6999512-8v14c-3,1.6999969-11.9000244,3.9999847-25,6.9000092
		c-14.4000244,3.1000061-19.9000244,8.6000061-20.4000244,20.8999939v12.7000122l45.3000488,0.1000061v13.5L1176,308.8999939z
		 M1223.5999756,295.6000061v-13.7999878c0-14.3999939-7.8000488-23.6000061-19.8000488-23.6000061
		c-13.5,0-19.4000244,9.7000122-19.5999756,24c0,6.5,0.5999756,11.2000122,1.1999512,13.2999878L1223.5999756,295.6000061z"/>
	<path style="fill:#1C1C1C;" d="M1230.4000244,171.6000061l-0.0999756,40.6000061L1268,212.3000183l0.0999756-45.3000031h11.3000488
		l-0.1999512,58.8000031l-104.5-0.3000031l0.1999512-56.4000092h11.3000488L1186.1000977,212l33,0.1000061L1219.2000732,171.5
		L1230.4000244,171.6000061z"/>
	<path style="fill:#1C1C1C;" d="M1230.6999512,95.3000031l-0.0999756,40.5999908L1268.2999268,136l0.0999756-45.3000031h11.3000488
		L1279.5,149.5l-104.5-0.3000031l0.1999512-56.4000015H1186.5l-0.0999756,42.9000015l33,0.1000061L1219.5,95.2000046
		L1230.6999512,95.3000031z"/>
</g>
</svg>
