<?xml version="1.0" encoding="utf-8"?>
<!-- Generator: Adobe Illustrator 23.1.0, SVG Export Plug-In . SVG Version: 6.00 Build 0)  -->
<svg version="1.1" id="Слой_1" opacity="0.7" xmlns="http://www.w3.org/2000/svg" xmlns:xlink="http://www.w3.org/1999/xlink"
	 x="0px" y="0px" viewBox="0 0 700 691" style="enable-background:new 0 0 700 691;" xml:space="preserve">
<style type="text/css">
	.st0{fill:#333333;}
</style>
<g>
	<g>
		<g>
			<path class="st0" d="M376.7,237.1c2.2,0.7,4.3,2.2,5.6,4.2c2.2,3.5,2.3,7.7,2.3,11.8c-0.7,36.3-10.4,72.2-28.3,103.8
				c-1.5,2.8-3.2,5.5-5.8,7.2c-2.7,1.9-6,2.6-10.1,2.3l-3.5-0.1l0,0c-3.4-0.2-7.2-0.4-10.8-1.9c-4.1-1.7-6.9-5.1-7.4-8.8
				c-0.6-4.5,2.3-8.5,4.6-11.7c13.9-19.1,23.9-40.8,33.8-61.9c4.6-9.7,9.8-20.8,9.9-32.3v-0.8c0-3.8,0.1-8.6,3.7-11.1
				c1.6-1.1,3.5-1.5,5.5-1C376.2,237,376.4,237,376.7,237.1z M336.7,363.1l3.7,0.2c3.4,0.2,6.1-0.4,8.2-1.8s3.5-3.8,4.8-6.3
				c17.7-31.2,27.3-66.5,28-102.4c0-3.6,0-7.3-1.8-10.1c-0.9-1.5-2.6-2.7-4.3-3c-0.8-0.2-2-0.2-3.1,0.6c-2.3,1.6-2.4,5.1-2.4,8.6
				v0.8c-0.1,12.1-5.5,23.5-10.2,33.6c-9.9,21.1-20.2,43-34,62.4c-2.1,3-4.4,6.2-4,9.5c0.3,2.6,2.6,5.1,5.5,6.4
				C330,362.8,333.4,363,336.7,363.1L336.7,363.1z"/>
		</g>
		<g>
			<path class="st0" d="M366.8,238.2c1.3,0.4,2.4,0.9,3.7,1.7c0.6,0.5,0.8,1.4,0.4,2.1c-0.5,0.6-1.4,0.8-2.1,0.4
				c-2-1.4-4.6-1.9-7.2-2.1c-4.2-0.5-8.3,2.4-10.5,5.2c-2.4,3-4,6.8-5.6,10.4c-0.1,0.5-0.4,0.9-0.6,1.3c-8.9,20.8-22.1,40-38.2,55.9
				l-0.7,0.6c-3.4,3.4-7,6.8-8.3,11.2c-1.5,5.3,0.6,11.8,5.6,16.5c4.6,4.6,10.8,7.3,16.7,9.9c0.7,0.4,1.1,1.3,0.7,2s-1.3,1.1-2,0.7
				c-5.9-2.6-12.5-5.6-17.5-10.5c-5.6-5.7-8.2-13.3-6.3-19.6c1.4-5.2,5.3-9,9-12.6l0.6-0.6c15.8-15.6,28.8-34.5,37.5-54.9
				c0.1-0.5,0.4-0.9,0.5-1.3c1.6-3.8,3.2-7.8,6-11.1c3.7-4.5,8.5-6.8,13.2-6.3C363.5,237.4,365.2,237.7,366.8,238.2z"/>
		</g>
		<g>
			<path class="st0" d="M338,237.7c4.6,1.3,8.6,4.5,10.7,8.7c0.4,0.7,0,1.6-0.7,2s-1.6,0-2-0.7c-3.2-6.5-12.2-9.7-18.8-6.7
				c-3,1.4-5.9,3.9-8.7,7.7c-5.3,7.1-8.9,15.6-12.3,23.7c-2.3,5.5-4.7,11.2-7.6,16.4c-4.5,8.2-10.2,15.5-17.1,21.8l-0.7,0.6
				c-1.6,1.6-3.2,2.9-4.3,4.7c-0.9,1.5-1.6,4-0.5,5.8c0.7,1.2,2.4,2.3,4.7,2.9c4.8,1.3,10,1,14.6-0.9c0.7-0.3,1.7,0.1,2,0.8
				c0.3,0.7-0.1,1.7-0.8,2c-5.3,2.1-11.1,2.5-16.5,1c-3.2-0.8-5.3-2.3-6.5-4.3c-1.7-3.1-0.8-6.6,0.5-9c1.3-2.2,3-3.9,4.9-5.4
				l0.6-0.6c6.6-6,12.2-13.1,16.4-21c2.8-5.2,5.2-10.9,7.4-16.1c3.5-8.3,7.1-16.9,12.6-24.4c3.3-4.3,6.4-7.2,9.9-8.7
				C329.8,236.7,334.1,236.6,338,237.7z"/>
		</g>
		<g>
			<path class="st0" d="M327.7,236.6L327.7,236.6c0.4,0.2,0.7,0.3,1,0.3c0.4,0.2,0.6,0.2,1,0.3c0.8,0.3,1.2,1.1,0.9,1.9
				c-0.3,0.9-1.1,1.2-1.9,0.9c-0.3-0.1-0.5-0.2-0.9-0.3s-0.6-0.2-0.9-0.3c-5.8-1.5-12.2-0.1-17.9,1.1c-3.2,0.7-6.7,1.4-9.6,3
				c-6.4,3.4-9.9,10.3-13.3,17.1c-0.6,1.2-1.3,2.6-2,3.8c-5.4,10-12.4,18.8-20.8,26.2c-0.5,0.4-1,0.9-1.5,1.4
				c-2.1,1.7-4.1,3.5-5.6,5.5c-1.5,1.9-3.5,4.9-3.2,8.3c0.1,3.9,3.1,7.8,7.5,10c4.1,2,8.7,2.5,13.7,2.9c0.8,0.1,1.4,0.8,1.3,1.6
				c-0.1,0.8-0.8,1.4-1.6,1.3c-5.3-0.4-10.2-0.9-14.8-3.2c-5.4-2.6-9-7.6-9.1-12.6c-0.1-4.3,2.1-8.1,3.9-10.2c1.8-2.2,3.9-4,6.1-5.8
				c0.5-0.4,1-0.9,1.5-1.4c8.2-7.3,15.1-15.8,20.2-25.4c0.7-1.3,1.3-2.5,2-3.8c3.7-7.2,7.4-14.5,14.5-18.4c3.3-1.8,6.9-2.6,10.3-3.3
				C314.3,236.3,321.1,234.9,327.7,236.6L327.7,236.6z"/>
		</g>
		<g>
			<path class="st0" d="M293.5,244.8c0.6,0.2,1.1,0.8,1.1,1.5c-0.1,0.9-0.8,1.5-1.6,1.4l-16.4-0.7c-8-0.3-16.4-0.7-24.5-0.8
				c-3.6-0.1-7.3,0-9.8,1.7c-2.3,1.6-3.9,4.8-4.8,9.5c-2.3,13.2,1.4,27.4,9.7,37.9l0.5,0.6c2.1,2.8,4.6,5.9,4.3,9.8
				c-0.1,0.4,0.3,1.1,0.8,1.5l0.1,0.2c0.4,0.7,0.3,1.6-0.5,2.1c-0.7,0.4-1.6,0.3-2.1-0.5l-0.1-0.2c-0.5-0.9-1.2-2.1-1.1-3.4
				c0.3-2.6-1.7-5.1-3.6-7.6l-0.5-0.6c-8.9-11.2-12.6-26.3-10.3-40.4c0.9-5.6,2.9-9.4,5.9-11.4c3.3-2.4,7.3-2.4,11.6-2.3
				c8.2,0.1,16.6,0.5,24.6,0.8l16.4,0.6C293.2,244.8,293.4,244.8,293.5,244.8z"/>
		</g>
		<g>
			<path class="st0" d="M290.2,247.4c0.6,0.2,1.1,0.8,1.1,1.5c-0.1,0.9-0.8,1.5-1.6,1.4c-7.4-0.3-15.3-0.5-22.8,1.2
				c-8.1,1.9-14.6,5.9-18.5,11.6c-1.4,2.1-2.3,4.1-2.6,6.1c-0.3,2.2,0.2,4.4,1.4,5.8c1.2,1.5,3.1,2.6,5.7,3
				c4.7,0.8,10.2-0.4,15.2-3.6c4.7-3,8.7-7.1,12.6-11.1c0.6-0.6,1.5-0.5,2.2,0c0.6,0.6,0.5,1.5,0,2.2c-3.9,4.1-8,8.5-13.1,11.7
				c-5.7,3.6-12,5-17.4,4c-2.3-0.5-5.4-1.5-7.5-4.2c-1.7-2.1-2.4-5.1-2-8.1c0.3-2.4,1.4-4.9,3.1-7.4c4.3-6.1,11.5-10.7,20.2-12.8
				c7.9-1.9,16-1.6,23.7-1.3C290,247.4,290.1,247.4,290.2,247.4z"/>
		</g>
		<g>
			<path class="st0" d="M266.8,275.7c0.4,0.2,0.7,0.3,0.8,0.7c0.4,0.7,0.2,1.7-0.5,2.1c-0.5,0.3-1,0.7-1.5,1l-0.2,0.1
				c-1.1,0.7-2.1,1.1-3,1.4c-3.7,1-7.1,3.2-9.6,6.2s-4.1,6.7-4.6,10.5c-0.1,0.9-0.8,1.4-1.7,1.4c-0.9-0.1-1.4-0.9-1.4-1.7
				c0.6-4.4,2.4-8.7,5.3-12.1c2.9-3.4,6.8-5.9,11.1-7.2c0.7-0.2,1.4-0.5,2.3-1.1l0.2-0.1c0.6-0.4,1.1-0.7,1.6-1
				C266,275.6,266.4,275.5,266.8,275.7z"/>
		</g>
		<g>
			<path class="st0" d="M267.6,275.5c0.3,0.1,0.5,0.2,0.7,0.5c0.5,0.7,0.4,1.6-0.2,2.1l-0.6,0.5c-0.7,0.5-1.6,0.4-2.1-0.2
				c-0.5-0.7-0.4-1.6,0.2-2.1l0.6-0.5C266.5,275.4,267,275.3,267.6,275.5z"/>
		</g>
		<g>
			<path class="st0" d="M427.2,292.9c2.3,0.6,4.1,3.3,5.6,5.2c0.5,0.7,0.8,1.2,1.2,1.6l6.8,7.9c1.5,1.8,3.2,3.7,4.3,6.1
				c2.1,4.8,1.4,10.1,0.9,14.5c-0.7,4.8-1.2,10-3.2,14.6c-2.2,5.5-6,9.6-10.4,11.4c-5.4,2.4-11.9,1-15.1-3.2c-3-3.7-3.1-8.7-3-13.5
				c0.1-3.9,0.2-8.1,0.3-11.9c0.2-6,0.4-12.4,1.9-18.5c1.2-5.1,3.4-11.7,7-13.8c1.1-0.7,2.3-0.9,3.5-0.6
				C427,292.9,427,293,427.2,292.9z M438.6,309.8l-6.8-7.9c-0.4-0.5-0.9-1.1-1.4-1.9c-1.2-1.6-2.8-3.8-4.1-4.1
				c-0.4-0.1-0.8,0-1.2,0.2c-1.9,1.1-4,5.7-5.5,12c-1.5,5.8-1.6,12-1.8,17.9c-0.1,3.8-0.3,7.8-0.3,11.9c-0.1,4.4,0,8.6,2.3,11.5
				c2.4,3,7.4,4,11.6,2.3c3.7-1.6,6.8-5,8.8-9.8c1.8-4.3,2.4-9.2,3-13.8c0.5-3.9,1.2-8.8-0.6-12.9
				C441.5,313.2,440,311.4,438.6,309.8L438.6,309.8z"/>
		</g>
		<g>
			<path class="st0" d="M385.6,247.9c3.5,1,7,3.5,10.4,6.9c1.3,1.2,2.3,2.5,3.5,3.9c2.3,2.6,4.6,5.1,7.2,7.1c1.5,1.1,3,2.1,4.7,3
				c1.6,0.9,3.2,1.8,4.7,2.8c7.3,5.2,11.9,13.9,11.9,22.8c0,0.9-0.6,1.6-1.5,1.5s-1.6-0.6-1.5-1.5c-0.1-8-4.1-15.7-10.7-20.3
				c-1.4-0.9-2.8-1.8-4.4-2.7c-1.7-0.9-3.4-1.9-5.1-3.2c-3-2.2-5.4-4.9-7.8-7.6c-1.1-1.3-2.2-2.6-3.3-3.7c-4.2-4.4-8.4-6.6-12.3-6.6
				c-0.9-0.1-1.5-0.8-1.5-1.5c0.1-0.9,0.8-1.5,1.5-1.5C382.8,247.3,384.2,247.5,385.6,247.9z"/>
		</g>
		<g>
			<path class="st0" d="M426.9,293.4c0,0.1,0.1,0.1,0.1,0.1c0.8,0.3,1.1,1.1,0.9,1.9c-0.1,0.1-0.1,0.1,0,0.2
				c0.1-0.3,0.4-0.4,0.6-0.6c0.7-0.3,1.6,0,2.1,0.8c2,4.3,2.3,9.1,2.7,13.4c0.3,5,0.8,10.2,0.2,15.2c-0.1,1.2-0.3,2.6-0.9,3.7
				c-0.6,1.6-1.8,2.6-3.2,3.1c-2.4,0.9-5.4-0.3-6.8-2.8c-1.3-2.3-1.3-4.8-1.1-6.6c0.2-3,1-6.1,1.8-9c1-3.7,1.8-7.1,1.8-10.7
				c0-0.5,0-1.1-0.2-1.7c-0.1-2-0.3-4.1,0.4-6.2C425.4,293.6,426.1,293.2,426.9,293.4z M426.8,328.6c0.4,0.2,0.9,0.2,1.3,0
				c0.6-0.3,1.2-0.8,1.5-1.5c0.4-0.8,0.5-1.8,0.6-2.9c0.6-4.8,0.2-9.9-0.2-14.7c-0.3-4.2-0.7-8.6-2.4-12.4c-0.1-0.2-0.1-0.3-0.1-0.5
				c-0.2,1.2-0.1,2.3,0,3.7c0,0.6,0.1,1.3,0.1,1.9c0.1,4-0.8,7.8-1.8,11.6c-0.7,2.9-1.5,5.6-1.7,8.4c-0.2,2.1,0.1,3.6,0.7,4.8
				C425.5,327.7,426.1,328.4,426.8,328.6z"/>
		</g>
		<g>
			<path class="st0" d="M426,286.7c0.6,0.2,1.1,0.9,1,1.6c-0.1,0.9-0.9,1.4-1.7,1.4c-1.7-0.2-2.7,0.4-4.6,1.7
				c-1.9,1.4-3.3,3.3-4.6,5.3c-7.9,12-11.9,26.5-11.5,40.9c0.1,2.9,0.4,6.7,1.8,10c1.4,3.2,3.7,5.6,6.3,6.7c2.9,1,6.4,0.5,8.1-1.7
				c0.5-0.6,1.4-0.7,2.1-0.1c0.6,0.5,0.7,1.4,0.1,2.1c-2.6,3.1-7.4,4-11.5,2.5c-3.4-1.4-6.3-4.4-8-8.4c-1.6-3.8-1.9-7.9-2-11
				c-0.5-15,3.8-30,12.1-42.6c1.4-2.1,2.9-4.4,5.3-6c2.1-1.5,3.9-2.7,6.7-2.4C425.9,286.6,426,286.6,426,286.7z"/>
		</g>
		<g>
			<path class="st0" d="M380.7,281.9c0.6,0.2,1,0.6,1,1.4c0,0.2,0,0.3,0,0.5c0,0.3,0.1,0.7,0,1.1c-0.3,17.1-2.6,34.2-7.3,50.8
				l-0.2,0.6c-0.6,2.4-1.4,4.7-1.5,7c-0.2,1.9-0.1,4.7,1.4,7c1.5,2.4,4.4,4.1,8.7,5.1c8.3,2,17.5,1.1,25.2-2.8c0.7-0.4,1.6,0,2,0.7
				s0,1.6-0.7,2c-8.4,4.1-18.3,5.1-27.2,2.9c-5.1-1.2-8.6-3.4-10.5-6.4c-1.5-2.3-2.1-5.4-1.8-8.9c0.3-2.7,1-5.2,1.6-7.6l0.2-0.6
				c4.5-16.3,6.9-33.1,7.1-50c0-0.2,0-0.4-0.1-0.7c0-0.3-0.1-0.5-0.1-0.8c0-0.9,0.6-1.6,1.5-1.6
				C380.5,281.9,380.7,281.9,380.7,281.9z"/>
		</g>
		<g>
			<path class="st0" d="M373.5,350.6c0.6,0.2,1.1,0.9,1,1.6c-0.6,4.9-4,9.5-8.7,11.6c-2.7,1.3-5.8,1.5-8.3,1.6s-5.5,0-7.9-1.2
				c-0.7-0.4-1-1.3-0.6-2s1.3-1,2-0.6c1.8,1,4.1,1,6.3,0.9c2.3-0.1,5-0.4,7.3-1.4c3.6-1.6,6.4-5.2,6.9-9.2c0.1-0.9,0.9-1.4,1.7-1.4
				C373.4,350.6,373.4,350.6,373.5,350.6z"/>
		</g>
	</g>
	<g>
		<path class="st0" d="M268.3,255.6c0.6,0.2,1.1,0.7,1,1.4c0,0.9-0.6,1.6-1.5,1.6c-3.1,0-5.8,0.8-7.8,2c-2.4,1.3-4,3.6-4.4,5.9
			c-0.1,0.9-0.9,1.4-1.7,1.3c-0.9-0.1-1.4-0.9-1.3-1.7c0.5-3.2,2.6-6.2,5.8-8.1c2.5-1.5,5.6-2.2,9.3-2.4
			C267.8,255.6,268.1,255.6,268.3,255.6z"/>
	</g>
	<g>
		<path class="st0" d="M277.1,282.2c0.3,0.1,0.5,0.2,0.7,0.5c0.5,0.7,0.4,1.6-0.1,2.1l-7.6,6.5c-2.3,2-4.7,4-6.6,6.6
			c-1.4,1.9-3,4.6-3,8c0,0.9-0.6,1.6-1.5,1.5c-0.9,0-1.6-0.6-1.5-1.5c0-3.3,1.2-6.6,3.7-9.8c2.1-2.7,4.7-4.9,7-7.1l7.6-6.5
			C276.1,282.2,276.7,282,277.1,282.2z"/>
	</g>
	<g>
		<path class="st0" d="M283.6,272.3c0.1,0.1,0.2,0,0.3,0.1c0.7,0.4,1,1.3,0.6,2l-2.8,5.3c-0.4,0.7-1.3,1-2,0.6c-0.7-0.5-1-1.3-0.6-2
			l2.8-5.3C282.3,272.3,282.9,272,283.6,272.3z"/>
	</g>
	<g>
		<path class="st0" d="M334.5,247.2c0.4,0.2,0.7,0.5,0.9,0.9c0.2,0.8-0.1,1.7-0.8,2c-8,3.2-14.2,10.3-16.1,18.6
			c-0.2,0.8-1,1.3-1.8,1.1c-0.8-0.2-1.3-1-1.1-1.8c2.3-9.3,9.1-17.3,18.1-20.7C333.9,247,334.2,247,334.5,247.2z"/>
	</g>
	<g>
		<path class="st0" d="M343.1,328.7L343.1,328.7c0.8,0.2,1.2,1.1,1,1.9c-1.8,5.8-4.8,11.1-8.7,15.7c-0.1,0.3-0.3,0.3-0.5,0.6
			c-0.9,1-1.7,2-2.3,3.1c-0.4,1-0.7,2.4-0.1,3.4c0.4,0.7,0.3,1.6-0.5,2.2c-0.7,0.4-1.6,0.3-2.2-0.5c-1.1-1.7-1.2-4.1-0.1-6.4
			c0.8-1.5,1.7-2.7,2.7-3.9c0.1-0.3,0.3-0.3,0.5-0.6c3.5-4.3,6.3-9.4,8.1-14.7C341.4,328.9,342.4,328.5,343.1,328.7z"/>
	</g>
	<g>
		<path class="st0" d="M348.5,315.9c0.8,0.2,1.2,1.1,1,1.9l-2.1,6.9c-0.2,0.8-1.1,1.2-1.9,1s-1.2-1.1-1-1.9l2.1-6.9
			C346.8,316.2,347.6,315.7,348.5,315.9z"/>
	</g>
	<g>
		<path class="st0" d="M380.1,336.1c0.1,0.1,0.2,0,0.3,0.1c0.7,0.4,1,1.3,0.5,2.1c-1.6,2.7-1.2,6.5,0.8,8.9s5.5,3.5,8.5,2.7
			c0.9-0.3,1.6,0.2,1.9,1.1s-0.2,1.6-1.1,1.9c-4.2,1.2-9-0.3-11.8-3.7c-2.7-3.4-3.2-8.4-1.1-12.3
			C378.7,336.2,379.4,335.9,380.1,336.1z"/>
	</g>
	<g>
		<path class="st0" d="M421.7,336.5c0.7,0.2,1.1,0.9,1.1,1.7c-0.3,2.1,0.4,4.3,1.8,5.6c1.5,1.5,3.8,2.4,5.9,3.1
			c0.7,0.2,1.2,1.1,0.9,1.9c-0.2,0.7-1.1,1.2-1.9,0.9c-2.3-0.8-5-1.7-7.1-3.9c-2.2-2.1-3.1-5.4-2.6-8.3c0.1-0.8,0.9-1.4,1.7-1.3
			C421.6,336.5,421.6,336.5,421.7,336.5z"/>
	</g>
</g>
<g>
	<path class="st0" d="M485.8,496.9c-35.7,2.9-64.2,15.8-63.8,29s29.6,21.6,65.2,18.7c35.7-2.9,64.2-15.8,63.8-29
		C550.5,502.4,521.5,494,485.8,496.9z M530.2,527.4c-11.4,5.1-26.8,8.7-43.4,10.1c-16.6,1.3-32,0.2-43.8-3.1
		c-11.9-3.5-14.7-7.7-14.7-8.9s2.5-5.9,14.2-11.3c11.4-5.1,26.8-8.7,43.4-10.1c16.6-1.3,32-0.2,43.8,3.1c11.9,3.5,14.7,7.7,14.7,8.9
		C544.3,517.3,542,522,530.2,527.4z"/>
	<g>
		
			<ellipse transform="matrix(0.2174 -0.9761 0.9761 0.2174 -109.9566 867.3093)" class="st0" cx="485.9" cy="502.2" rx="18.8" ry="17"/>
	</g>
	<g>
		<path class="st0" d="M486.6,497.8l-3.5-1.6c4.9-12,14.8-21.5,26.2-25.7c5.9-2.2,12.6-2.9,20-2.4l-0.4,4.2
			c-6.9-0.4-13.1,0.3-18.4,2.2C500,478.3,491.2,487,486.6,497.8z"/>
	</g>
	<g>
		<g>
			<path class="st0" d="M560.6,575.5l-4-24.4c-19.1,7.4-43.4,12.6-68.9,14.7c-25.5,2-50.1,0.7-69.6-3.7l-2.6,24.9
				c20.1,5,45.9,6.6,72.9,4.5C515.4,589.4,540.9,583.7,560.6,575.5z"/>
		</g>
		<g>
			<path class="st0" d="M489.4,624.4c28.5-2.1,55.7-8.5,76.3-17.5l-4.3-27c-20,8.2-45.7,13.9-72.7,16c-27.1,2.2-53,0.6-73.3-4.4
				l-2.9,27.5C433.5,624.7,460.8,626.7,489.4,624.4z"/>
		</g>
		<g>
			<path class="st0" d="M566.3,611.1c-21,9.1-48.3,15.3-76.9,17.5c-28.8,2.3-56.1,0.4-77.6-5.4l-1.6,16.1c0,0,27.4,17.3,79.8,13.2
				c52.5-4.1,78.8-25.7,78.8-25.7L566.3,611.1z"/>
		</g>
		<g>
			<path class="st0" d="M550.9,515.6c0.3,13.2-28.1,26.1-63.8,29s-64.8-5.5-65.2-18.7l-3.3,31.8c19.2,4.4,43.5,5.7,68.9,3.7
				s49.7-7.3,68.4-14.6L550.9,515.6z"/>
		</g>
	</g>
</g>
<g>
	<path class="st0" d="M167.8,65.5c6.6-15.9,15.3-28.8,27.9-38.4c9-6.8,19.4-12,29.2-17.7c3.8-2.2,6.4,1,8.9,3c0.4,0.3,0,2.6-0.7,3.4
		s-2.3,1-3.5,1.1c-19.3,0.3-32,11.9-43,25.6c-5.5,6.8-9.5,14.9-15,23.8c3.7,0.2,5.3,0.2,6.9,0.4c9.1,0.7,16.1,5.2,20.6,12.8
		c4.6,8,0.7,15-4.6,21c-7.8,8.8-16.2,16.8-26.7,22.7c-8.3,4.7-22,2.5-28.8-4c-2.7-2.6-5.6-5-8.1-7.8c-14.2-16.6-11.9-40.1-0.6-54.8
		c8.2-10.7,18.5-13,28.6-2.3C161.8,57.4,164.3,61.1,167.8,65.5z"/>
</g>
</svg>
