<?xml version="1.0" encoding="utf-8"?>
<!-- Generator: Adobe Illustrator 23.1.0, SVG Export Plug-In . SVG Version: 6.00 Build 0)  -->
<svg version="1.1" id="Слой_1" xmlns="http://www.w3.org/2000/svg" xmlns:xlink="http://www.w3.org/1999/xlink" x="0px" y="0px"
	 viewBox="0 0 1366 1168.1999512" enable-background="new 0 0 1366 1168.1999512" xml:space="preserve">
<g>
	<path fill="#1C1C1C" d="M822.7849121,775.8444824c12.8134766-10.9683228,32.7197876-25.9642334,35.4662476-43.8683472
		c3.024353-20.3966064-11.5328979-45.2088623-22.9139404-61.1575928
		c-26.2664795-36.9540405-84.5950317-31.3171387-119.2260132-9.6942749
		c-16.6739502,11.4446411-31.2068481,23.4047852-32.8120117,44.8904419
		c-1.5046387,18.8569336,5.5108032,60.0356445,19.3710327,74.2227173
		c11.8866577,12.2779541,45.2592163,17.1983643,61.2186279,19.4672241
		C788.3490601,803.3104858,804.4907837,791.4574585,822.7849121,775.8444824z M805.0216675,668.5257568
		c-7.5482178,6.3840332-15.0171509,12.8851318-22.6634521,19.2501831
		c-7.7635498,6.4441528-16.9685059,11.3876953-24.7922363,17.6165771
		c-4.9727783-1.6737671-10.6038818-2.0488892-16.8843384-2.7531128
		c-11.5410767-1.4151611-23.0063477-3.2230225-34.6043701-4.3436279
		c3.9053955-8.6156006,10.3256226-16.5415649,19.5998535-22.897583
		C747.4555664,661.7825317,780.7235718,656.7014771,805.0216675,668.5257568z M739.2955322,775.7032471
		c-25.383728-9.8952026-40.3403931-35.8031006-37.8748779-60.6872559
		c15.0880737,0.9801025,47.1286621,0.1433105,55.0566406,12.8786011
		c9.3348389,14.9422607,10.237854,36.0977173,17.5018311,52.2694702
		C763.2814331,781.7636108,751.8005981,780.5637817,739.2955322,775.7032471z M790.6584473,775.5443726
		c-0.0791626-0.1171265-0.0412598-0.3135376-0.1204834-0.4307251c-8.4142456-18.1254272-9.8751221-40.6108398-20.0689697-57.9597778
		c7.007019-5.1644897,14.666626-9.4898682,21.4550171-15.1040649c9.0901489-7.5119019,17.9616699-15.4735107,27.1499634-22.9664917
		c0.1171265-0.0792236,0.1361084-0.1774292,0.2532959-0.2565918c0.5131836,0.5065918,1.1246338,1.0320435,1.6188965,1.6368408
		c7.4673462,8.2667236,21.1029663,33.1045532,20.1062012,45.6431885
		c-0.9052734,11.5377808-13.8961182,22.3699951-21.4788818,29.4602051
		C810.3537598,764.276123,800.7883301,771.085144,790.6584473,775.5443726z"/>
	<path fill="#1C1C1C" d="M902.7574463,871.1466675c-28.8711548-21.3650513-84.1084595-34.8897095-113.5023193-7.1624756
		c-14.579834,13.7844238-33.2090454,41.1472168-33.7598877,61.9199219
		c-0.592041,20.4592285,17.7946777,37.048645,31.3381958,50.7670288
		c16.6227417,16.7578125,32.3831787,30.5990601,56.8858643,28.7131958c16.5441284-1.28479,49.24646-2.9103394,62.6646729-14.3729858
		c15.4857178-13.2019653,25.6325684-54.1200562,25.3286133-73.632019
		C931.4588623,896.5529785,918.0961914,883.4805298,902.7574463,871.1466675z M891.388855,884.1256104
		c7.9449463,6.3220215,13.4931641,15.0327759,16.8310547,24.6404419
		c-10.628479,0.1871338-21.1744385,1.0012207-31.7616577,1.5018311c-6.6855469,0.3378296-13.0419312,0.0263062-18.8369751,1.5546875
		c-7.34021-6.8162842-15.8486328-12.3305664-23.0527344-19.3242188
		c-7.2832642-7.1108398-14.4304199-14.3991089-21.7136841-21.5098877
		C838.0708008,861.1943359,871.7011108,869.5255737,891.388855,884.1256104z M772.6575317,926.1646118
		c-0.0263672-13.0418091,14.8605957-36.8499756,24.9382935-46.3099365c0.1584473,0.234314,0.2186279,0.449646,0.3960571,0.5857544
		c8.4871216,8.2600708,16.6227417,16.7578125,25.1288452,24.9197388
		c6.4342651,6.2338257,13.9006348,11.3430176,20.6260376,17.1239014
		c-11.2472534,16.5671997-14.4579468,38.4555054-24.3272705,55.7982178
		c-0.1550903,0.2756348-0.0948486,0.4909058-0.249939,0.7665405c-7.5957031-3.9120483-14.6503906-9.0435181-20.9484863-15.4547119
		C790.4625244,955.7802734,772.6871948,939.7163696,772.6575317,926.1646118z M880.5125732,981.5311279
		c-15.2947388,6.414917-30.8604126,7.3795166-45.3380737,3.7674561
		c8.7802124-15.9235229,11.4119263-36.3960571,21.8076172-51.1925659
		c5.6347656-8.0777588,15.3739624-6.2977905,24.4124756-6.6902466c10.0773926-0.4972534,20.1134033-1.3080444,30.2130737-1.3936157
		C913.1668701,948.5266113,903.1411133,971.9500732,880.5125732,981.5311279z"/>
	<path fill="#1C1C1C" d="M909.6766357,729.3849487c15.4884033,5.2333374,32.1411133-3.4654541,38.1821899-18.3904419
		c6.2720337-15.5932617-0.8893433-28.0786133-14.1240234-36.5430298c-1.4570923-0.8926392-2.831665-1.1582031-4.1460571-1.2085571
		c-15.7160645-4.0551147-33.7319946,0.1026001-40.7260132,16.2694092
		C882.0429688,705.3052979,894.3845215,724.1895752,909.6766357,729.3849487z M905.3520508,694.8371582
		c4.206543-7.5388794,13.7237549-6.7185059,20.8755493-4.7255249c5.43573,3.4946899,8.2494507,7.9086304,5.5658569,14.4177246
		c-2.7025757,6.6072388-9.7351685,10.8501587-16.7129517,8.4834595
		C908.5939331,710.7409668,901.4556885,701.8248901,905.3520508,694.8371582z"/>
	<path fill="#1C1C1C" d="M961.8713379,775.5245972c-1.4570923-0.8925781-2.831665-1.1582031-4.1460571-1.2084961
		c-15.7160645-4.0551147-33.7319946,0.1026001-40.7260742,16.2693481
		c-6.8198242,15.7930298,5.619873,34.696228,20.9119873,39.8916016
		c15.4884033,5.2333374,32.1411133-3.4654541,38.1821899-18.3904419
		C982.2484131,796.5725708,975.0076904,783.9700317,961.8713379,775.5245972z M960.0282593,805.621521
		c-2.7025757,6.6072998-9.7351685,10.8502197-16.7129517,8.4834595c-6.6040039-2.192627-13.7231445-11.2069092-9.8457031-18.0964355
		c4.206543-7.5388794,13.7236938-6.7185059,20.8755493-4.7255249
		C959.7808838,794.7776489,962.6928711,799.2106323,960.0282593,805.621521z"/>
	<path fill="#1C1C1C" d="M719.0935059,856.5386963c-1.4570923-0.8925781-2.8317261-1.1582031-4.1460571-1.2084961
		c-15.7160645-4.0551147-33.7319946,0.1026001-40.7260132,16.2693481
		c-6.8199463,15.7929688,5.619873,34.696228,20.9119263,39.8916016
		c15.4884644,5.2333984,32.1411133-3.4654541,38.1821899-18.3904419
		C739.489502,877.4884033,732.3280029,865.0031128,719.0935059,856.5386963z M717.3485718,886.654541
		c-2.7025757,6.6072998-9.7351685,10.8501587-16.7128906,8.4834595c-6.6040039-2.192688-13.7231445-11.2069092-9.8457031-18.0964355
		c4.206604-7.5389404,13.7237549-6.7185059,20.8755493-4.7255249
		C717.1012573,875.81073,719.9338989,880.1264648,717.3485718,886.654541z"/>
	<path fill="#1C1C1C" d="M1115.7720947,494.0087891c2.4556885,3.6317749,8.3690186,5.1817627,11.9785156,2.3144226
		c12.4084473-9.926239,24.8959961-19.7353821,36.4743652-30.6368103c2.8843994-2.8037109,2.442627-7.3704834,0.6173096-10.5749207
		c-21.1898193-37.3990784-80.065918-169.6703796-132.6287842-88.9766846
		c-17.8248291,27.4163208-29.7062378,60.9716797-43.8504028,90.4232483
		c-6.3265991,13.2402039-12.6533813,26.4804077-18.9799805,39.7206421
		c-100.4042969-19.6036072-200.4515381-41.58255-300.8748169-61.0880127
		c-1.4727783-0.2845459-2.7078857-0.2176819-3.9017334,0.1627808c-3.1352539,0.4127197-5.7885742,2.5481262-6.1925659,6.7477417
		c-12.7695923,128.8168335-22.5367432,257.9080811-26.6538086,387.2763062
		c-1.0343018,33.8179321-1.7741699,67.692688-1.9058228,101.5831909c-0.079834,17.8082886-6.1259155,46.991272,3.6273193,62.9309692
		c7.4336548,12.1304932,24.1306763,13.2178345,36.5241699,16.0198975
		c33.3892212,7.4699097,66.6612549,15.0189819,100.2781372,21.31073
		c29.6705933,5.6309814,59.3377686,10.7521973,89.0272827,16.2849121
		c16.7102051,3.1269531,43.4619141,12.2679443,60.5496216,7.1160889
		c36.3096924-10.8079834,44.9411011-76.5646362,56.0380859-107.1142578
		c49.8591919-137.3352051,99.6011353-274.5912476,149.4602661-411.9264526
		c1.7910156-5.052002-0.0541992-11.3157959-6.081543-12.2766724c-28.1530762-4.5230713-56.3286133-9.4578247-84.3679199-14.5699463
		c12.3430176-25.9292603,25.2564697-51.6465149,38.9963379-76.898468
		C1087.9460449,452.475708,1101.9667969,473.2120972,1115.7720947,494.0087891z M930.3425293,623.4822998
		c15.6494141-36.1883545,32.1256714-71.911377,48.9945068-107.5585327
		c10.1129761,1.9539795,20.3240356,3.9269409,30.4559937,5.7827759
		c-16.767395,36.1760254-32.9044189,72.7794189-49.3773193,109.0123291
		C950.3218994,628.666687,940.303772,626.2218018,930.3425293,623.4822998z M913.6982422,618.4330444
		c-21.7944946-6.8591309-43.3424683-14.994751-64.8334351-23.4248657
		c-61.6791992-23.935791-118.2052612-36.5890503-184.163269-31.0003662
		c3.0159912-36.6942139,6.3264771-73.3315125,9.852356-110.0290527
		c95.8689575,18.8291016,191.456604,39.6408691,287.3444824,58.3718262
		C945.2224731,547.5258179,929.0374146,582.7958374,913.6982422,618.4330444z M989.2172852,860.6583862
		c-9.5750732,26.3623047-19.1690674,52.8226929-28.7440186,79.1849976
		c-8.901062,24.4555054-15.0220337,57.1887207-28.7440186,79.1849365
		c-17.0014038,27.3717041-42.5881348,16.4187012-69.1358032,11.493042
		c-27.1366577-5.0396729-54.3303223-9.784668-81.4671021-14.8242188
		c-25.5657959-4.736084-51.074646-9.7666626-76.4507446-15.4844971c-11.8233032-2.5900879-28.460022-3.4620361-39.362854-9.2351685
		c-22.1603394-11.8186646-18.3241577-19.0216675-18.352478-38.37854
		c-0.1219482-54.7167969,1.0893555-109.4815063,3.3015137-164.1546631
		c2.7649536-69.1308594,7.335144-138.1165771,12.8269653-207.1279907
		c88.5539551-8.1484375,156.1741333,24.5739136,237.5092163,52.2056885
		c53.2467041,18.0287476,109.7807007,25.8966675,165.0991821,15.8079224
		C1040.2503662,719.8834229,1014.7242432,790.3199463,989.2172852,860.6583862z M1106.0413818,538.5720215
		c-11.1348877,30.7459106-22.2698975,61.4918213-33.5031738,92.218811
		c-32.4279785,7.5858765-63.8861084,7.5167236-94.6869507,2.991394
		c16.4729004-36.2329712,32.4926758-72.7570801,49.3583374-108.9141235
		C1053.4627686,529.7369385,1079.7727051,534.3112183,1106.0413818,538.5720215z M1017.2969971,505.536499
		c-10.132019-1.8558655-20.3430176-3.8287964-30.4560547-5.7828064
		c4.8170166-10.1708984,9.6339722-20.3417664,14.5491333-30.4936829
		c13.8528442-28.9985962,25.8071899-72.4192505,47.4365845-96.8598022
		c28.2681885-31.9168701,47.6618652,3.709259,62.4624023,26.7351685c7.5887451,11.85495,37.4055176,48.8838806,34.090332,60.7708435
		c-1.6861572,6.0907288-16.730835,11.7391968-21.0111084,17.0231628c-0.2598877-0.7631836-0.4405518-1.4091797-0.8400879-2.5048523
		c-8.3616943-22.0874023-29.7873535-44.5601501-43.2313232-64.0647888
		c-3.8212891-5.5252686-11.7385254-4.6106262-14.8594971,0.999176
		C1048.1838379,442.1448364,1032.425293,473.6269836,1017.2969971,505.536499z"/>
	<path fill="#1C1C1C" d="M683.468811,512.7369995c0.364502,10.7646484,0.1208496,21.5136108-0.2208862,32.2436523
		c-0.3005371,11.0435791,16.9688721,9.6951904,17.1711426-1.3672485
		c0.2938843-12.0633545,0.6066895-24.2248535-0.0210571-36.2625122c-0.0702515-1.7450256-1.2973633-6.4634705-0.5820923-8.0567322
		c-0.218689-0.449646-0.5545044-0.8200989-0.7731934-1.2696838c1.5899048,0.2053528,3.1987915,0.3125305,4.7886963,0.5178223
		c6.6352539,0.976532,13.1187744,2.7384949,19.5452881,4.7949829c10.5346069,3.4613953,13.7184448-13.543457,3.2819214-16.9858093
		c-11.5956421-3.7682495-36.383606-12.5298767-42.8867798,3.7317505
		C681.1296387,496.9057922,683.2068481,505.658844,683.468811,512.7369995z"/>
	<path fill="#1C1C1C" d="M749.3519287,510.6986389c10.8983765,2.1057434,14.1803589-14.8800659,3.2819214-16.9858398
		C741.7354736,491.6070251,738.3553467,508.5738831,749.3519287,510.6986389z"/>
</g>
</svg>
