<?xml version="1.0" encoding="utf-8"?>
<!-- Generator: Adobe Illustrator 23.1.0, SVG Export Plug-In . SVG Version: 6.00 Build 0)  -->
<svg version="1.1" id="Слой_1" opacity="0.5" xmlns="http://www.w3.org/2000/svg" xmlns:xlink="http://www.w3.org/1999/xlink"
	 x="0px" y="0px" viewBox="0 0 700 598.6" style="enable-background:new 0 0 700 598.6;" xml:space="preserve">
<style type="text/css">
	.st0{fill:#1C1C1C;}
</style>
<g>
	<path class="st0" d="M415.8,348.2c8.8-7.5,22.4-17.7,24.2-30c2.1-13.9-7.9-30.9-15.7-41.8c-18-25.3-57.8-21.4-81.5-6.6
		c-11.4,7.8-21.3,16-22.4,30.7c-1,12.9,3.8,41,13.2,50.7c8.1,8.4,30.9,11.8,41.8,13.3C392.2,366.9,403.3,358.8,415.8,348.2z
		 M403.6,274.8c-5.2,4.4-10.3,8.8-15.5,13.2c-5.3,4.4-11.6,7.8-16.9,12c-3.4-1.1-7.2-1.4-11.5-1.9c-7.9-1-15.7-2.2-23.7-3
		c2.7-5.9,7.1-11.3,13.4-15.7C364.3,270.2,387,266.7,403.6,274.8z M358.7,348.1c-17.4-6.8-27.6-24.5-25.9-41.5
		c10.3,0.7,32.2,0.1,37.6,8.8c6.4,10.2,7,24.7,12,35.7C375.1,352.2,367.3,351.4,358.7,348.1z M393.8,348c-0.1-0.1,0-0.2-0.1-0.3
		C388,335.3,387,319.9,380,308c4.8-3.5,10-6.5,14.7-10.3c6.2-5.1,12.3-10.6,18.6-15.7c0.1-0.1,0.1-0.1,0.2-0.2
		c0.4,0.3,0.8,0.7,1.1,1.1c5.1,5.7,14.4,22.6,13.7,31.2c-0.6,7.9-9.5,15.3-14.7,20.1C407.3,340.3,400.8,344.9,393.8,348z"/>
	<path class="st0" d="M470.5,413.3c-19.7-14.6-57.5-23.8-77.6-4.9c-10,9.4-22.7,28.1-23.1,42.3c-0.4,14,12.2,25.3,21.4,34.7
		c11.4,11.5,22.1,20.9,38.9,19.6c11.3-0.9,33.7-2,42.8-9.8c10.6-9,17.5-37,17.3-50.3C490.1,430.7,480.9,421.7,470.5,413.3z
		 M462.7,422.2c5.4,4.3,9.2,10.3,11.5,16.8c-7.3,0.1-14.5,0.7-21.7,1c-4.6,0.2-8.9,0-12.9,1.1c-5-4.7-10.8-8.4-15.8-13.2
		c-5-4.9-9.9-9.8-14.8-14.7C426.2,406.5,449.2,412.2,462.7,422.2z M381.5,450.9c0-8.9,10.2-25.2,17-31.7c0.1,0.2,0.1,0.3,0.3,0.4
		c5.8,5.6,11.4,11.5,17.2,17c4.4,4.3,9.5,7.8,14.1,11.7c-7.7,11.3-9.9,26.3-16.6,38.1c-0.1,0.2-0.1,0.3-0.2,0.5
		c-5.2-2.7-10-6.2-14.3-10.6C393.7,471.2,381.5,460.2,381.5,450.9z M455.2,488.8c-10.5,4.4-21.1,5-31,2.6c6-10.9,7.8-24.9,14.9-35
		c3.9-5.5,10.5-4.3,16.7-4.6c6.9-0.3,13.7-0.9,20.7-1C477.6,466.2,470.7,482.2,455.2,488.8z"/>
	<path class="st0" d="M475.2,316.4c10.6,3.6,22-2.4,26.1-12.6c4.3-10.7-0.6-19.2-9.7-25c-1-0.6-1.9-0.8-2.8-0.8
		c-10.7-2.8-23.1,0.1-27.8,11.1C456.3,299.9,464.7,312.9,475.2,316.4z M472.2,292.8c2.9-5.2,9.4-4.6,14.3-3.2
		c3.7,2.4,5.6,5.4,3.8,9.9c-1.8,4.5-6.7,7.4-11.4,5.8C474.4,303.7,469.6,297.6,472.2,292.8z"/>
	<path class="st0" d="M510.9,347.9c-1-0.6-1.9-0.8-2.8-0.8c-10.7-2.8-23.1,0.1-27.8,11.1c-4.7,10.8,3.8,23.7,14.3,27.3
		c10.6,3.6,22-2.4,26.1-12.6C524.8,362.3,519.8,353.7,510.9,347.9z M509.6,368.5c-1.8,4.5-6.7,7.4-11.4,5.8
		c-4.5-1.5-9.4-7.7-6.7-12.4c2.9-5.2,9.4-4.6,14.3-3.2C509.4,361.1,511.4,364.1,509.6,368.5z"/>
	<path class="st0" d="M344.9,403.3c-1-0.6-1.9-0.8-2.8-0.8c-10.7-2.8-23.1,0.1-27.8,11.1c-4.7,10.8,3.8,23.7,14.3,27.3
		c10.6,3.6,22-2.4,26.1-12.6C358.8,417.6,354,409.1,344.9,403.3z M343.7,423.9c-1.8,4.5-6.7,7.4-11.4,5.8c-4.5-1.5-9.4-7.7-6.7-12.4
		c2.9-5.2,9.4-4.6,14.3-3.2C343.5,416.5,345.5,419.4,343.7,423.9z"/>
	<path class="st0" d="M616.1,155.5c1.7,2.5,5.7,3.5,8.2,1.6c8.5-6.8,17-13.5,24.9-20.9c2-1.9,1.7-5,0.4-7.2
		c-14.5-25.6-54.7-116-90.7-60.8c-12.2,18.7-20.3,41.7-30,61.8c-4.3,9.1-8.6,18.1-13,27.2c-68.6-13.4-137-28.4-205.7-41.8
		c-1-0.2-1.9-0.1-2.7,0.1c-2.1,0.3-4,1.7-4.2,4.6c-8.7,88.1-15.4,176.3-18.2,264.7c-0.7,23.1-1.2,46.3-1.3,69.4
		c-0.1,12.2-4.2,32.1,2.5,43c5.1,8.3,16.5,9,25,11c22.8,5.1,45.6,10.3,68.5,14.6c20.3,3.8,40.6,7.3,60.9,11.1
		c11.4,2.1,29.7,8.4,41.4,4.9c24.8-7.4,30.7-52.3,38.3-73.2c34.1-93.9,68.1-187.7,102.2-281.6c1.2-3.5,0-7.7-4.2-8.4
		c-19.2-3.1-38.5-6.5-57.7-10c8.4-17.7,17.3-35.3,26.7-52.6C597,127.1,606.6,141.3,616.1,155.5z M489.3,244
		c10.7-24.7,22-49.2,33.5-73.5c6.9,1.3,13.9,2.7,20.8,4c-11.5,24.7-22.5,49.7-33.8,74.5C503,247.6,496.1,245.9,489.3,244z
		 M477.9,240.6c-14.9-4.7-29.6-10.3-44.3-16c-42.2-16.4-80.8-25-125.9-21.2c2.1-25.1,4.3-50.1,6.7-75.2
		c65.6,12.8,130.9,27,196.5,39.8C499.5,192.1,488.4,216.2,477.9,240.6z M529.6,406.1c-6.5,18-13.1,36.1-19.6,54.1
		c-6.1,16.7-10.3,39.1-19.6,54.1c-11.6,18.7-29.1,11.2-47.3,7.9c-18.5-3.4-37.1-6.7-55.7-10.1c-17.5-3.2-34.9-6.7-52.3-10.6
		c-8.1-1.8-19.5-2.4-26.9-6.3c-15.1-8.1-12.5-13-12.5-26.2c-0.1-37.4,0.7-74.8,2.3-112.2c1.9-47.3,5-94.4,8.8-141.6
		c60.5-5.6,106.8,16.8,162.4,35.7c36.4,12.3,75,17.7,112.9,10.8C564.4,309.9,547,358.1,529.6,406.1z M609.4,186
		c-7.6,21-15.2,42-22.9,63c-22.2,5.2-43.7,5.1-64.7,2c11.3-24.8,22.2-49.7,33.7-74.5C573.5,179.9,591.5,183.1,609.4,186z
		 M548.7,163.4c-6.9-1.3-13.9-2.6-20.8-4c3.3-7,6.6-13.9,9.9-20.8c9.5-19.8,17.6-49.5,32.4-66.2c19.3-21.8,32.6,2.5,42.7,18.3
		c5.2,8.1,25.6,33.4,23.3,41.5c-1.2,4.2-11.4,8-14.4,11.6c-0.2-0.5-0.3-1-0.6-1.7c-5.7-15.1-20.4-30.5-29.6-43.8
		c-2.6-3.8-8-3.2-10.2,0.7C569.9,120.1,559.1,141.6,548.7,163.4z"/>
	<path class="st0" d="M320.6,168.3c0.2,7.4,0.1,14.7-0.2,22c-0.2,7.5,11.6,6.6,11.7-0.9c0.2-8.2,0.4-16.6,0-24.8
		c0-1.2-0.9-4.4-0.4-5.5c-0.1-0.3-0.4-0.6-0.5-0.9c1.1,0.1,2.2,0.2,3.3,0.4c4.5,0.7,9,1.9,13.4,3.3c7.2,2.4,9.4-9.3,2.2-11.6
		c-7.9-2.6-24.9-8.6-29.3,2.6C319,157.5,320.4,163.5,320.6,168.3z"/>
	<path class="st0" d="M365.6,166.9c7.4,1.4,9.7-10.2,2.2-11.6C360.4,153.9,358.1,165.5,365.6,166.9z"/>
</g>
</svg>
