<?xml version="1.0" standalone="no"?>
<!DOCTYPE svg PUBLIC "-//W3C//DTD SVG 1.1//EN" "http://www.w3.org/Graphics/SVG/1.1/DTD/svg11.dtd" >
<svg xmlns="http://www.w3.org/2000/svg" xmlns:xlink="http://www.w3.org/1999/xlink" version="1.1">
<metadata>
Created by FontForge 20170731 at Wed May  9 19:22:24 2018
 By Aleksey,,,
Copyright (c) 2018 by Oleh Lishchuk. All rights reserved.
</metadata>
<defs>
<font id="VinSlabPro-Light" horiz-adv-x="427" >
  <font-face 
    font-family="Vin Slab Pro Light"
    font-weight="350"
    font-stretch="normal"
    units-per-em="1000"
    panose-1="0 0 0 0 0 0 0 0 0 0"
    ascent="800"
    descent="-200"
    x-height="550"
    cap-height="700"
    bbox="-0.666667 -157 994 870"
    underline-thickness="50"
    underline-position="-225"
    unicode-range="U+0020-FB04"
  />
<missing-glyph horiz-adv-x="364" 
d="M33 0v666h265v-666h-265zM66 33h199v600h-199v-600z" />
    <glyph glyph-name="ff" unicode="ff" horiz-adv-x="587" 
d="M235 36v-25q0 -11 -11 -11h-172q-11 0 -11 11v25q0 11 11 11h61v454h-65q-11 0 -11 11v27q0 11 11 11h65v38q0 50 31 81t81 31h27q11 0 11 -11v-27q0 -11 -11 -11h-27q-28 0 -44.5 -17t-16.5 -44v-40h88q11 0 11 -11v-27q0 -11 -11 -11h-88v-454h60q11 0 11 -11zM529 36
v-25q0 -11 -11 -11h-173q-11 0 -11 11v25q0 11 11 11h61v454h-65q-11 0 -11 11v27q0 11 11 11h65v38q0 50 31 81t81 31h27q11 0 11 -11v-27q0 -11 -11 -11h-27q-27 0 -44 -17t-17 -44v-40h88q11 0 11 -11v-27q0 -11 -11 -11h-88v-454h61q11 0 11 -11z" />
    <glyph glyph-name="fi" unicode="fi" horiz-adv-x="543" 
d="M37 512v27q0 11 11 11h65v38q0 50 31 81t81 31h27q11 0 11 -11v-27q0 -11 -11 -11h-27q-28 0 -44.5 -17t-16.5 -44v-40h88q11 0 11 -11v-27q0 -11 -11 -11h-88v-454h60q11 0 11 -11v-25q0 -11 -11 -11h-172q-11 0 -11 11v25q0 11 11 11h61v454h-65q-11 0 -11 11zM525 36
v-25q0 -11 -12 -11h-172q-11 0 -11 11v25q0 11 11 11h61v456h-61q-11 0 -11 11v25q0 11 11 11h101q11 0 11 -11v-492h60q12 0 12 -11zM433 640h-32q-17 0 -17 17v30q0 17 17 17h32q17 0 17 -17v-30q0 -17 -17 -17z" />
    <glyph glyph-name="fl" unicode="fl" horiz-adv-x="538" 
d="M235 36v-25q0 -11 -11 -11h-172q-11 0 -11 11v25q0 11 11 11h61v454h-65q-11 0 -11 11v27q0 11 11 11h65v38q0 50 31 81t81 31h27q11 0 11 -11v-27q0 -11 -11 -11h-27q-28 0 -44.5 -17t-16.5 -44v-40h88q11 0 11 -11v-27q0 -11 -11 -11h-88v-454h60q11 0 11 -11zM520 36
v-25q0 -11 -12 -11h-172q-11 0 -11 11v25q0 11 11 11h61v606h-61q-11 0 -11 11v25q0 11 11 11h101q11 0 11 -11v-642h60q12 0 12 -11z" />
    <glyph glyph-name="ffi" unicode="ffi" horiz-adv-x="837" 
d="M235 36v-25q0 -11 -11 -11h-172q-11 0 -11 11v25q0 11 11 11h61v454h-65q-11 0 -11 11v27q0 11 11 11h65v38q0 50 31 81t81 31h27q11 0 11 -11v-27q0 -11 -11 -11h-27q-28 0 -44.5 -17t-16.5 -44v-40h88q11 0 11 -11v-27q0 -11 -11 -11h-88v-454h60q11 0 11 -11zM529 36
v-25q0 -11 -11 -11h-173q-11 0 -11 11v25q0 11 11 11h61v454h-65q-11 0 -11 11v27q0 11 11 11h65v38q0 50 31 81t81 31h27q11 0 11 -11v-27q0 -11 -11 -11h-27q-27 0 -44 -17t-17 -44v-40h88q11 0 11 -11v-27q0 -11 -11 -11h-88v-454h61q11 0 11 -11zM623 514v25q0 11 12 11
h100q11 0 11 -11v-492h61q11 0 11 -11v-25q0 -11 -11 -11h-172q-12 0 -12 11v25q0 11 12 11h60v456h-60q-12 0 -12 11zM677 657v30q0 17 18 17h32q17 0 17 -17v-30q0 -17 -17 -17h-32q-18 0 -18 17z" />
    <glyph glyph-name="ffl" unicode="ffl" horiz-adv-x="832" 
d="M235 36v-25q0 -11 -11 -11h-172q-11 0 -11 11v25q0 11 11 11h61v454h-65q-11 0 -11 11v27q0 11 11 11h65v38q0 50 31 81t81 31h27q11 0 11 -11v-27q0 -11 -11 -11h-27q-28 0 -44.5 -17t-16.5 -44v-40h88q11 0 11 -11v-27q0 -11 -11 -11h-88v-454h60q11 0 11 -11zM529 36
v-25q0 -11 -11 -11h-173q-11 0 -11 11v25q0 11 11 11h61v454h-65q-11 0 -11 11v27q0 11 11 11h65v38q0 50 31 81t81 31h27q11 0 11 -11v-27q0 -11 -11 -11h-27q-27 0 -44 -17t-17 -44v-40h88q11 0 11 -11v-27q0 -11 -11 -11h-88v-454h61q11 0 11 -11zM813 36v-25
q0 -11 -11 -11h-172q-12 0 -12 11v25q0 11 12 11h60v606h-60q-12 0 -12 11v25q0 11 12 11h100q11 0 11 -11v-642h61q11 0 11 -11z" />
    <glyph glyph-name=".notdef" horiz-adv-x="364" 
d="M33 0v666h265v-666h-265zM66 33h199v600h-199v-600z" />
    <glyph glyph-name=".null" horiz-adv-x="0" 
 />
    <glyph glyph-name="nonmarkingreturn" horiz-adv-x="333" 
 />
    <glyph glyph-name="space" unicode=" " horiz-adv-x="238" 
 />
    <glyph glyph-name="exclam" unicode="!" horiz-adv-x="192" 
d="M72 189l-4 496q0 15 15 15h25q15 0 15 -15l-3 -496q-2 -15 -16 -15h-17q-15 0 -15 15zM60 17v39q0 17 17 17h37q17 0 17 -17v-39q0 -17 -17 -17h-37q-17 0 -17 17z" />
    <glyph glyph-name="quotedbl" unicode="&#x22;" horiz-adv-x="233" 
d="M146 513l-3 178q-2 9 9 9h26q9 0 9 -9l-3 -178q0 -10 -10 -10h-19q-9 0 -9 10zM49 513l-3 178q0 9 9 9h27q9 0 9 -9l-4 -178q0 -10 -9 -10h-19q-10 0 -10 10z" />
    <glyph glyph-name="numbersign" unicode="#" horiz-adv-x="571" 
d="M186 235h159l40 230h-159zM14 202v22q0 11 11 11h116l40 230h-106q-11 0 -11 11v22q0 12 11 12h114l32 179q2 11 13 11h23q11 0 9 -11l-32 -179h159l32 179q2 11 13 11h23q12 0 9 -11l-31 -179h106q11 0 11 -12v-22q0 -11 -11 -11h-114l-41 -230h105q11 0 11 -11v-22
q0 -12 -11 -12h-113l-32 -179q-2 -11 -13 -11h-23q-11 0 -9 11l32 179h-159l-32 -179q-2 -11 -13 -11h-23q-11 0 -9 11l32 179h-108q-11 0 -11 12z" />
    <glyph glyph-name="dollar" unicode="$" horiz-adv-x="392" 
d="M176 -83v79h-17q-53 0 -86 32.5t-33 86.5v70q0 11 12 11h31q11 0 11 -11v-72q0 -29 17 -46t46 -17h76q29 0 46.5 17.5t17.5 45.5v84q0 34 -26 58l-180 161q-43 40 -43 97v72q0 53 32.5 86t85.5 33h10v79q0 11 11 11h22q12 0 12 -11v-79h7q53 0 86 -33t33 -86v-70
q0 -12 -12 -12h-30q-12 0 -12 12v72q0 29 -17.5 46.5t-45.5 17.5h-66q-28 0 -45.5 -17.5t-17.5 -46.5v-73q0 -35 26 -58l180 -162q43 -38 43 -96v-83q0 -54 -33 -86.5t-86 -32.5h-10v-79q0 -11 -12 -11h-22q-11 0 -11 11z" />
    <glyph glyph-name="percent" unicode="%" horiz-adv-x="727" 
d="M109 26l472 674q3 4 7 4q1 0 5 -2l22 -15q7 -5 2 -13l-471 -673q-3 -4 -7 -4t-6 2l-21 15q-7 4 -3 12zM90 594v-167q0 -29 18.5 -47t47.5 -18h18q29 0 47 18t18 47v167q0 29 -18 47t-47 18h-18q-29 0 -47.5 -18t-18.5 -47zM46 430v161q0 50 31 81.5t82 31.5h11
q51 0 82.5 -31.5t31.5 -81.5v-161q0 -51 -31.5 -82t-82.5 -31h-11q-51 0 -82 31t-31 82zM443 110v160q0 51 31 82t82 31h12q50 0 81.5 -31t31.5 -82v-160q0 -51 -31.5 -82.5t-81.5 -31.5h-12q-51 0 -82 31.5t-31 82.5zM488 273v-167q0 -29 18 -47t47 -18h18q29 0 47 18
t18 47v167q0 29 -18 47t-47 18h-18q-29 0 -47 -18t-18 -47z" />
    <glyph glyph-name="ampersand" unicode="&#x26;" horiz-adv-x="460" 
d="M105 287v-172q0 -29 17.5 -46.5t46.5 -17.5h86q28 0 45.5 17.5t17.5 46.5v235h-150q-28 0 -45.5 -17.5t-17.5 -45.5zM247 649h-76q-28 0 -45.5 -17.5t-17.5 -46.5v-119q0 -29 17.5 -46.5t45.5 -17.5h266q11 0 11 -11v-30q0 -11 -11 -11h-65v-234q0 -53 -33 -85.5
t-86 -32.5h-82q-53 0 -86 32.5t-33 85.5v158q0 72 57 103q-54 30 -54 102v105q0 53 32.5 85.5t85.5 32.5h72q53 0 86 -32.5t33 -85.5v-60q0 -11 -12 -11h-30q-12 0 -12 11v61q0 29 -17.5 46.5t-45.5 17.5z" />
    <glyph glyph-name="quotesingle" unicode="'" horiz-adv-x="136" 
d="M49 513l-3 178q0 9 9 9h26q11 0 9 -9l-3 -178q0 -10 -9 -10h-19q-10 0 -10 10z" />
    <glyph glyph-name="parenleft" unicode="(" horiz-adv-x="218" 
d="M177 746l24 -22q6 -7 0 -13l-41 -38q-39 -36 -39 -90v-566q0 -54 39 -90l41 -38q6 -6 0 -13l-24 -22q-3 -3 -6 -3q-4 0 -7 3l-45 43q-51 48 -51 118v570q0 70 51 118l45 43q3 3 7 3q3 0 6 -3z" />
    <glyph glyph-name="parenright" unicode=")" horiz-adv-x="218" 
d="M17 724l24 22q3 3 6 3q4 0 7 -3l45 -43q51 -48 51 -118v-570q0 -70 -51 -118l-45 -43q-3 -3 -7 -3q-3 0 -6 3l-24 22q-7 6 0 13l40 38q40 35 40 90v566q0 55 -40 90l-40 38q-7 7 0 13z" />
    <glyph glyph-name="asterisk" unicode="*" horiz-adv-x="313" 
d="M173 580l104 39q2 1 4 1q5 0 8 -6l8 -26q3 -8 -6 -11l-107 -29l69 -86q6 -8 -1 -13l-22 -16q-4 -2 -6 -2q-4 0 -7 4l-61 93l-60 -93q-3 -5 -7 -5q-2 0 -6 2l-22 17q-7 5 -2 12l70 86l-108 29q-8 3 -5 11l9 26q1 6 7 6h4l104 -39l-6 111q0 9 9 9h27q10 0 8 -9z" />
    <glyph glyph-name="plus" unicode="+" horiz-adv-x="401" 
d="M61 377h115v114q0 12 11 12h27q11 0 11 -12v-114h115q11 0 11 -12v-26q0 -11 -11 -11h-115v-115q0 -11 -11 -11h-27q-11 0 -11 11v115h-115q-11 0 -11 11v26q0 12 11 12z" />
    <glyph glyph-name="comma" unicode="," horiz-adv-x="165" 
d="M40 -91l17 144q2 17 19 17h30q16 0 13 -16l-35 -145q-3 -15 -18 -15h-12q-16 0 -14 15z" />
    <glyph glyph-name="hyphen" unicode="-" horiz-adv-x="280" 
d="M46 292v26q0 10 9 10h170q9 0 9 -10v-26q0 -9 -9 -9h-170q-9 0 -9 9z" />
    <glyph glyph-name="period" unicode="." horiz-adv-x="163" 
d="M46 17v39q0 17 17 17h37q17 0 17 -17v-39q0 -17 -17 -17h-37q-17 0 -17 17z" />
    <glyph glyph-name="slash" unicode="/" horiz-adv-x="362" 
d="M1 -128l318 872q3 6 12 6l25 -10q8 -2 6 -11l-319 -873q-1 -6 -11 -6l-26 10q-8 3 -5 12z" />
    <glyph glyph-name="zero" unicode="0" horiz-adv-x="438" 
d="M112 569v-438q0 -37 22 -59t59 -22h52q37 0 59 22t22 59v438q0 37 -22 59.5t-59 22.5h-52q-37 0 -59 -22.5t-22 -59.5zM58 135v430q0 62 38.5 100.5t100.5 38.5h44q62 0 100.5 -38.5t38.5 -100.5v-430q0 -62 -38.5 -100.5t-100.5 -38.5h-44q-62 0 -100.5 38.5
t-38.5 100.5z" />
    <glyph glyph-name="one" unicode="1" horiz-adv-x="381" 
d="M38 582v34q0 12 10 15l139 65q12 4 21 4h14q11 0 11 -11v-640h111q11 0 11 -11v-27q0 -11 -11 -11h-285q-12 0 -12 11v27q0 11 12 11h121v589l-132 -62q-2 -1 -4 -1q-6 0 -6 7z" />
    <glyph glyph-name="two" unicode="2" horiz-adv-x="391" 
d="M44 526v39q0 62 38 100.5t101 38.5h23q62 0 100 -38.5t38 -100.5v-133q0 -50 -37 -84l-185 -173q-20 -18 -20 -46l-1 -76h207v86q0 11 11 11h27q11 0 11 -11v-128q0 -11 -11 -11h-287q-11 0 -11 11l1 120q0 49 37 84l185 173q20 18 20 46v135q0 37 -22.5 59.5t-58.5 22.5
h-32q-36 0 -58.5 -22.5t-22.5 -59.5v-43q0 -11 -11 -11h-31q-11 0 -11 11z" />
    <glyph glyph-name="three" unicode="3" horiz-adv-x="403" 
d="M216 -4h-41q-62 0 -100.5 38.5t-38.5 100.5v33q0 11 12 11h30q12 0 12 -11v-37q0 -37 22 -59t59 -22h49q37 0 59.5 22t22.5 59v126q0 37 -22.5 59t-59.5 22h-53q-12 0 -12 11v31q0 11 12 11h45q37 0 59.5 22.5t22.5 59.5v95q0 36 -22.5 58.5t-58.5 22.5h-37
q-36 0 -58.5 -22.5t-22.5 -58.5v-38q0 -11 -11 -11h-31q-11 0 -11 11v33q0 63 38 101t100 38h28q63 0 101 -38t38 -101v-84q0 -78 -63 -112q71 -32 71 -116v-116q0 -62 -38 -100.5t-101 -38.5z" />
    <glyph glyph-name="four" unicode="4" horiz-adv-x="420" 
d="M278 164h-243q-11 0 -11 11v18q0 10 4 22l205 475q3 10 15 10h36q12 0 7 -10l-204 -473h191v196q0 11 11 11h31q11 0 11 -11v-196h59q11 0 11 -11v-31q0 -11 -11 -11h-59v-115h66q11 0 11 -11v-27q0 -11 -11 -11h-190q-11 0 -11 11v27q0 11 11 11h71v115z" />
    <glyph glyph-name="five" unicode="5" horiz-adv-x="416" 
d="M47 135v35q0 9 9 9h35q9 0 9 -9v-39q0 -37 22.5 -59t58.5 -22h49q37 0 59 22t22 59v163q0 37 -22 59.5t-59 22.5h-151q-11 0 -11 11v302q0 11 11 11h255q9 0 9 -9v-130q0 -11 -12 -11h-26q-11 0 -11 11v86h-172v-218h103q63 0 101.5 -38.5t38.5 -100.5v-155
q0 -62 -38.5 -100.5t-100.5 -38.5h-41q-62 0 -100 38.5t-38 100.5z" />
    <glyph glyph-name="six" unicode="6" horiz-adv-x="415" 
d="M106 288v-157q0 -37 22 -59t59 -22h49q37 0 59.5 22t22.5 59v157q0 37 -22.5 59.5t-59.5 22.5h-49q-37 0 -59 -22.5t-22 -59.5zM351 528h-30q-12 0 -12 11v30q0 37 -22 59.5t-59 22.5h-41q-37 0 -59 -22.5t-22 -59.5v-171q36 25 85 25h41q62 0 100.5 -38t38.5 -101v-149
q0 -62 -38.5 -100.5t-100.5 -38.5h-41q-62 0 -100 38.5t-38 100.5v430q0 62 38 100.5t100 38.5h33q62 0 100.5 -38.5t38.5 -100.5v-26q0 -11 -12 -11z" />
    <glyph glyph-name="seven" unicode="7" horiz-adv-x="362" 
d="M17 563v126q0 11 11 11h288q11 0 11 -11v-24q0 -13 -4 -22l-127 -372q-4 -8 -4 -21v-239q0 -11 -11 -11h-31q-11 0 -11 11v251q0 13 4 21l125 366h-202v-86q0 -11 -11 -11h-27q-11 0 -11 11z" />
    <glyph glyph-name="eight" unicode="8" horiz-adv-x="418" 
d="M236 349h-54q-37 0 -59 -22.5t-22 -58.5v-139q0 -37 22 -59.5t59 -22.5h53q37 0 59.5 22.5t22.5 59.5v139q0 36 -22.5 58.5t-58.5 22.5zM111 570v-87q0 -36 22.5 -58.5t59.5 -22.5h33q36 0 58.5 22.5t22.5 58.5v87q0 36 -22.5 58.5t-59.5 22.5h-32q-37 0 -59.5 -22.5
t-22.5 -58.5zM48 135v126q0 85 72 117q-62 33 -62 112v73q0 63 38 101t101 38h24q63 0 101 -38t38 -101v-73q0 -79 -62 -112q72 -32 72 -117v-126q0 -62 -38 -100.5t-101 -38.5h-45q-62 0 -100 38.5t-38 100.5z" />
    <glyph glyph-name="nine" unicode="9" horiz-adv-x="413" 
d="M307 417v152q0 37 -22.5 59.5t-59.5 22.5h-47q-36 0 -58.5 -22.5t-22.5 -59.5v-152q0 -37 22.5 -59.5t58.5 -22.5h47q37 0 59.5 22.5t22.5 59.5zM56 173h31q11 0 11 -12v-30q0 -37 22.5 -59t59.5 -22h45q37 0 59.5 22t22.5 59v176q-36 -25 -86 -25h-38q-63 0 -101 38.5
t-38 100.5v144q0 62 38 100.5t101 38.5h38q63 0 101 -38.5t38 -100.5v-430q0 -62 -38 -100.5t-101 -38.5h-37q-63 0 -101 38.5t-38 100.5v26q0 12 11 12z" />
    <glyph glyph-name="colon" unicode=":" horiz-adv-x="164" 
d="M47 494v39q0 17 17 17h37q17 0 17 -17v-39q0 -17 -17 -17h-37q-17 0 -17 17zM46 17v39q0 17 17 17h37q17 0 17 -17v-39q0 -17 -17 -17h-37q-17 0 -17 17z" />
    <glyph glyph-name="semicolon" unicode=";" horiz-adv-x="166" 
d="M49 494v39q0 17 17 17h37q17 0 17 -17v-39q0 -17 -17 -17h-37q-17 0 -17 17zM40 -91l17 144q2 17 19 17h30q16 0 13 -16l-35 -145q-3 -15 -18 -15h-12q-16 0 -14 15z" />
    <glyph glyph-name="less" unicode="&#x3c;" horiz-adv-x="401" 
d="M345 475l-216 -125l216 -124q9 -6 4 -16l-13 -23q-3 -6 -9 -6q-2 0 -6 2l-262 150q-9 7 -9 17t9 17l262 151q2 1 6 1q6 0 9 -6l13 -23q5 -10 -4 -15z" />
    <glyph glyph-name="equal" unicode="=" horiz-adv-x="401" 
d="M50 265v26q0 12 11 12h279q11 0 11 -12v-26q0 -12 -11 -12h-279q-11 0 -11 12zM50 413v27q0 11 11 11h279q11 0 11 -11v-27q0 -11 -11 -11h-279q-11 0 -11 11z" />
    <glyph glyph-name="greater" unicode="&#x3e;" horiz-adv-x="401" 
d="M272 350l-216 125q-9 5 -4 15l13 23q3 6 9 6q4 0 6 -1l261 -151q10 -7 10 -17t-10 -17l-261 -150q-4 -2 -6 -2q-6 0 -9 6l-13 23q-5 10 4 16z" />
    <glyph glyph-name="question" unicode="?" horiz-adv-x="362" 
d="M324 585v-101q0 -57 -39 -101l-60 -69q-23 -26 -23 -61l-1 -68q-2 -11 -12 -11h-27q-11 0 -11 11l-1 67q-2 58 38 101l60 69q22 27 22 61v104q0 29 -17.5 46.5t-45.5 17.5h-59q-28 0 -44.5 -17.5t-16.5 -46.5v-73q0 -11 -11 -11h-31q-11 0 -11 11v71q0 54 31 86.5
t85 32.5h55q53 0 86 -33t33 -86zM141 17v39q0 17 17 17h37q17 0 17 -17v-39q0 -17 -17 -17h-37q-17 0 -17 17z" />
    <glyph glyph-name="at" unicode="@" horiz-adv-x="773" 
d="M479 163v218q-80 63 -132 63q-27 0 -44.5 -17t-17.5 -47v-216q0 -30 17.5 -47t44.5 -17q48 0 132 63zM479 435v40q0 11 12 11h28q12 0 12 -11v-334q0 -24 13.5 -38.5t35.5 -14.5h37q22 0 35.5 14.5t13.5 38.5v272q0 75 -45.5 120.5t-120.5 45.5h-227q-74 0 -119.5 -45.5
t-45.5 -120.5v-282q0 -75 45.5 -120.5t119.5 -45.5h212q12 0 12 -11v-23q0 -11 -12 -11h-212q-95 0 -152.5 58t-57.5 153v282q0 95 57.5 153t152.5 58h227q95 0 153 -58t58 -153v-272q0 -45 -27 -72.5t-71 -27.5h-37q-36 0 -60.5 18.5t-32.5 51.5q-84 -60 -148 -60
q-43 0 -72 32t-29 82v215q0 50 29 81.5t72 31.5q62 0 144 -58z" />
    <glyph glyph-name="A" unicode="A" horiz-adv-x="517" 
d="M172 203h174l-84 369q-2 9 -2 30h-2q0 -21 -2 -30zM358 153h-198l-23 -104h49q11 0 11 -11v-27q0 -11 -11 -11h-165q-11 0 -11 11v27q0 11 11 11h61l152 640q2 11 14 11h22q11 0 14 -11l152 -640h60q11 0 11 -11v-27q0 -11 -11 -11h-163q-12 0 -12 11v27q0 11 12 11h48z
" />
    <glyph glyph-name="B" unicode="B" horiz-adv-x="470" 
d="M370 117v156q0 28 -17.5 45.5t-46.5 17.5h-134v-283h134q28 0 46 17.5t18 46.5zM285 647h-113v-259h113q29 0 46.5 17.5t17.5 45.5v132q0 29 -17.5 46.5t-46.5 17.5zM42 11v27q0 11 11 11h65v602h-65q-11 0 -11 11v27q0 11 11 11h230q54 0 86.5 -32.5t32.5 -85.5v-117
q0 -65 -47 -98q32 -12 50 -40.5t18 -66.5v-142q0 -53 -33 -85.5t-86 -32.5h-251q-11 0 -11 11z" />
    <glyph glyph-name="C" unicode="C" horiz-adv-x="423" 
d="M332 197h31q11 0 11 -12v-70q0 -53 -33 -86t-86 -33h-74q-53 0 -85.5 33t-32.5 86v470q0 53 32.5 86t85.5 33h74q53 0 86 -33t33 -86v-70q0 -12 -11 -12h-31q-12 0 -12 12v72q0 29 -17.5 46.5t-45.5 17.5h-78q-28 0 -45.5 -17.5t-17.5 -46.5v-474q0 -29 17 -46t46 -17h78
q29 0 46 17t17 46v72q0 12 12 12z" />
    <glyph glyph-name="D" unicode="D" horiz-adv-x="490" 
d="M311 647h-139v-594h139q28 0 45.5 17.5t17.5 46.5v466q0 29 -17.5 46.5t-45.5 17.5zM42 11v27q0 11 11 11h65v602h-65q-11 0 -11 11v27q0 11 11 11h256q53 0 86 -32.5t33 -86.5v-462q0 -53 -33 -86t-86 -33h-256q-11 0 -11 11z" />
    <glyph glyph-name="E" unicode="E" 
d="M172 351h144q11 0 11 -11v-31q0 -11 -11 -11h-144v-245h172v86q0 11 11 11h27q11 0 11 -11v-128q0 -11 -11 -11h-329q-11 0 -11 11v27q0 11 11 11h65v602h-65q-11 0 -11 11v27q0 11 11 11h329q11 0 11 -11v-128q0 -11 -11 -11h-27q-11 0 -11 11v86h-172v-296z" />
    <glyph glyph-name="F" unicode="F" horiz-adv-x="414" 
d="M344 567v80h-172v-296h144q11 0 11 -11v-31q0 -11 -11 -11h-144v-249h75q11 0 11 -11v-27q0 -11 -11 -11h-194q-11 0 -11 11v27q0 11 11 11h65v602h-65q-11 0 -11 11v27q0 11 11 11h329q11 0 11 -11v-122q0 -11 -11 -11h-27q-11 0 -11 11z" />
    <glyph glyph-name="G" unicode="G" horiz-adv-x="434" 
d="M215 311v31q0 11 11 11h144q12 0 12 -11v-227q0 -53 -33 -86t-86 -33h-82q-53 0 -85.5 33t-32.5 86v470q0 53 32.5 86t85.5 33h82q53 0 86 -33t33 -86v-70q0 -12 -12 -12h-30q-12 0 -12 12v72q0 29 -17.5 46.5t-45.5 17.5h-86q-28 0 -45.5 -17.5t-17.5 -46.5v-474
q0 -29 17 -46t46 -17h86q29 0 46 17t17 46v187h-102q-11 0 -11 11z" />
    <glyph glyph-name="H" unicode="H" horiz-adv-x="549" 
d="M317 700h179q11 0 11 -11v-27q0 -11 -11 -11h-66v-602h66q11 0 11 -11v-27q0 -11 -11 -11h-179q-12 0 -12 11v27q0 11 12 11h60v249h-205v-249h60q11 0 11 -11v-27q0 -11 -11 -11h-179q-11 0 -11 11v27q0 11 11 11h65v602h-65q-11 0 -11 11v27q0 11 11 11h179
q11 0 11 -11v-27q0 -11 -11 -11h-60v-300h205v300h-60q-12 0 -12 11v27q0 11 12 11z" />
    <glyph glyph-name="I" unicode="I" horiz-adv-x="290" 
d="M42 11v27q0 11 11 11h65v602h-65q-11 0 -11 11v27q0 11 11 11h184q11 0 11 -11v-27q0 -11 -11 -11h-65v-602h65q11 0 11 -11v-27q0 -11 -11 -11h-184q-11 0 -11 11z" />
    <glyph glyph-name="J" unicode="J" horiz-adv-x="408" 
d="M398 689v-27q0 -11 -12 -11h-65v-536q0 -53 -33 -86t-86 -33h-62q-54 0 -86.5 33t-32.5 86v44q0 11 11 11h31q11 0 11 -11v-46q0 -28 17.5 -45.5t46.5 -17.5h66q29 0 46.5 17.5t17.5 45.5v538h-82q-11 0 -11 11v27q0 11 11 11h200q12 0 12 -11z" />
    <glyph glyph-name="K" unicode="K" horiz-adv-x="499" 
d="M232 0h-179q-11 0 -11 11v27q0 11 11 11h65v602h-65q-11 0 -11 11v27q0 11 11 11h179q11 0 11 -11v-27q0 -11 -11 -11h-60v-265h34l154 304q5 10 16 10h89q10 0 10 -11v-27q0 -11 -12 -11h-62l-148 -292l162 -310h63q11 0 11 -11v-27q0 -9 -9 -11h-88q-11 0 -16 10
l-169 323h-35v-284h60q11 0 11 -11v-27q0 -11 -11 -11z" />
    <glyph glyph-name="L" unicode="L" horiz-adv-x="405" 
d="M42 662v27q0 11 11 11h179q11 0 11 -11v-27q0 -11 -11 -11h-60v-597h169v79q0 12 12 12h26q11 0 11 -12v-122q0 -11 -11 -11h-326q-11 0 -11 11v27q0 11 11 11h65v602h-65q-11 0 -11 11z" />
    <glyph glyph-name="M" unicode="M" horiz-adv-x="641" 
d="M42 11v27q0 11 11 11h65v602h-65q-11 0 -11 11v27q0 11 11 11h112q11 0 14 -11l136 -407q4 -12 4 -30h2q0 18 4 30l136 407q3 11 15 11h112q11 0 11 -11v-27q0 -11 -11 -11h-66v-602h66q11 0 11 -11v-27q0 -11 -11 -11h-177q-12 0 -12 11v27q0 11 12 11h60v502q0 14 4 30
l-2 1q-6 -27 -7 -30l-124 -371q-3 -11 -14 -11h-15q-12 0 -15 11l-124 371q-1 4 -3 14.5t-3 15.5l-2 -1q4 -16 4 -30v-502h60q11 0 11 -11v-27q0 -11 -11 -11h-177q-11 0 -11 11z" />
    <glyph glyph-name="N" unicode="N" horiz-adv-x="537" 
d="M53 700h99q11 0 16 -10l212 -528q3 -6 8 -30l2 1q-4 18 -4 30v488h-60q-11 0 -11 11v27q0 11 11 11h179q11 0 11 -11v-27q0 -11 -11 -11h-65v-640q0 -11 -12 -11h-22q-11 0 -16 10l-212 526q-6 14 -8 30h-2q0 -3 2 -14.5t2 -16.5v-486h60q11 0 11 -11v-27q0 -11 -11 -11
h-179q-11 0 -11 11v27q0 11 11 11h65v602h-65q-11 0 -11 11v27q0 11 11 11z" />
    <glyph glyph-name="O" unicode="O" horiz-adv-x="451" 
d="M116 587v-474q0 -29 17 -46t46 -17h93q28 0 45.5 17t17.5 46v474q0 29 -17.5 46.5t-45.5 17.5h-93q-28 0 -45.5 -17.5t-17.5 -46.5zM63 115v470q0 53 32.5 86t85.5 33h89q53 0 86 -33t33 -86v-470q0 -53 -33 -86t-86 -33h-89q-53 0 -85.5 33t-32.5 86z" />
    <glyph glyph-name="P" unicode="P" horiz-adv-x="449" 
d="M292 647h-120v-314h120q28 0 45.5 17.5t17.5 46.5v186q0 29 -17.5 46.5t-45.5 17.5zM247 0h-194q-11 0 -11 11v27q0 11 11 11h65v602h-65q-11 0 -11 11v27q0 11 11 11h236q54 0 86.5 -32.5t32.5 -86.5v-182q0 -54 -32.5 -86.5t-86.5 -32.5h-117v-231h75q11 0 11 -11v-27
q0 -11 -11 -11z" />
    <glyph glyph-name="Q" unicode="Q" horiz-adv-x="451" 
d="M116 587v-472q0 -29 17 -46t46 -17h93q28 0 45.5 17t17.5 46v472q0 29 -17.5 46.5t-45.5 17.5h-93q-28 0 -45.5 -17.5t-17.5 -46.5zM315 -84h30q11 0 11 -11v-27q0 -11 -11 -11h-30q-50 0 -81 31t-31 81v19h-22q-53 0 -85.5 33t-32.5 86v468q0 53 32.5 86t85.5 33h89
q53 0 86 -33t33 -86v-468q0 -53 -33 -86t-86 -33h-16v-21q0 -28 16.5 -44.5t44.5 -16.5z" />
    <glyph glyph-name="R" unicode="R" horiz-adv-x="493" 
d="M292 647h-120v-300h120q28 0 45.5 17.5t17.5 45.5v173q0 29 -17.5 46.5t-45.5 17.5zM364 11l-83 283h-109v-245h60q11 0 11 -11v-27q0 -11 -11 -11h-179q-11 0 -11 11v27q0 11 11 11h65v602h-65q-11 0 -11 11v27q0 11 11 11h236q54 0 86.5 -32.5t32.5 -86.5v-169
q0 -41 -20 -70t-55 -40l76 -253h63q11 0 11 -11v-27q0 -11 -11 -11h-93q-12 0 -15 11z" />
    <glyph glyph-name="S" unicode="S" horiz-adv-x="392" 
d="M48 513v72q0 53 32.5 86t85.5 33h62q53 0 86 -33t33 -86v-70q0 -12 -12 -12h-30q-12 0 -12 12v72q0 29 -17.5 46.5t-45.5 17.5h-66q-28 0 -45.5 -17.5t-17.5 -46.5v-73q0 -35 26 -58l180 -162q43 -38 43 -96v-83q0 -54 -33 -86.5t-86 -32.5h-72q-53 0 -86 32.5t-33 86.5
v70q0 11 12 11h31q11 0 11 -11v-72q0 -29 17 -46t46 -17h76q29 0 46.5 17.5t17.5 45.5v84q0 34 -26 58l-180 161q-43 40 -43 97z" />
    <glyph glyph-name="T" unicode="T" 
d="M24 700h379q11 0 11 -11v-128q0 -11 -11 -11h-26q-12 0 -12 11v86h-125v-598h66q11 0 11 -11v-27q0 -11 -11 -11h-184q-12 0 -12 11v27q0 11 12 11h65v598h-125v-86q0 -11 -11 -11h-27q-11 0 -11 11v128q0 11 11 11z" />
    <glyph glyph-name="U" unicode="U" horiz-adv-x="498" 
d="M284 662v27q0 11 11 11h179q11 0 11 -11v-27q0 -11 -11 -11h-65v-536q0 -53 -33 -86t-86 -33h-82q-53 0 -85.5 33t-32.5 86v536h-66q-11 0 -11 11v27q0 11 11 11h179q12 0 12 -11v-27q0 -11 -12 -11h-60v-538q0 -29 17.5 -46t45.5 -17h86q28 0 45.5 17t17.5 46v538h-60
q-11 0 -11 11z" />
    <glyph glyph-name="V" unicode="V" horiz-adv-x="514" 
d="M432 651l-150 -640q-2 -11 -14 -11h-22q-11 0 -14 11l-150 640h-61q-11 0 -11 11v27q0 11 11 11h165q12 0 12 -11v-27q0 -11 -12 -11h-48l116 -519q2 -9 2 -30h2q0 16 3 30l117 519h-50q-11 0 -11 11v27q0 11 11 11h165q11 0 11 -11v-27q0 -11 -11 -11h-61z" />
    <glyph glyph-name="W" unicode="W" horiz-adv-x="703" 
d="M377 689l91 -547q2 -10 2 -31h2q0 21 2 31l94 509h-53q-11 0 -11 11v27q0 11 11 11h167q11 0 11 -11v-27q0 -11 -11 -11h-60l-127 -640q-2 -11 -13 -11h-21q-11 0 -13 11l-93 535q-2 9 -2 30h-2q0 -21 -2 -30l-93 -535q-2 -11 -13 -11h-21q-12 0 -14 11l-126 640h-61
q-11 0 -11 11v27q0 11 11 11h168q11 0 11 -11v-27q0 -11 -11 -11h-53l93 -509q2 -10 2 -31h2q0 21 2 31l92 547q2 11 13 11h24q11 0 13 -11z" />
    <glyph glyph-name="X" unicode="X" horiz-adv-x="490" 
d="M251 445l86 206h-44q-11 0 -11 11v27q0 11 11 11h163q11 0 11 -11v-27q0 -11 -11 -11h-62l-120 -286l134 -316h61q11 0 11 -11v-27q0 -11 -11 -11h-163q-12 0 -12 11v27q0 11 12 11h44l-99 237q-5 13 -5 29h-2q0 -19 -5 -29l-99 -237h44q12 0 12 -11v-27q0 -11 -12 -11
h-163q-11 0 -11 11v27q0 11 11 11h62l133 316l-121 286h-61q-11 0 -11 11v27q0 11 11 11h163q12 0 12 -11v-27q0 -11 -12 -11h-44l86 -206q5 -10 5 -29h2q0 16 5 29z" />
    <glyph glyph-name="Y" unicode="Y" horiz-adv-x="487" 
d="M249 376l100 275h-42q-12 0 -12 11v27q0 11 12 11h159q11 0 11 -11v-27q0 -11 -11 -11h-62l-134 -369v-233h66q11 0 11 -11v-27q0 -11 -11 -11h-185q-11 0 -11 11v27q0 11 11 11h66v233l-135 369h-61q-11 0 -11 11v27q0 11 11 11h160q11 0 11 -11v-27q0 -11 -11 -11h-43
l100 -275q5 -15 5 -30h2q0 18 4 30z" />
    <glyph glyph-name="Z" unicode="Z" horiz-adv-x="382" 
d="M346 139v-128q0 -11 -11 -11h-287q-11 0 -11 11v31q0 8 4 22l251 583h-200v-86q0 -11 -11 -11h-27q-11 0 -11 11v128q0 11 11 11h285q11 0 11 -11v-31q0 -10 -5 -22l-250 -583h202v86q0 11 11 11h27q11 0 11 -11z" />
    <glyph glyph-name="bracketleft" unicode="[" horiz-adv-x="223" 
d="M203 -150h-126q-9 0 -9 9v882q0 9 9 9h126q10 0 10 -9v-31q0 -9 -10 -9h-82v-802h82q10 0 10 -9v-31q0 -9 -10 -9z" />
    <glyph glyph-name="backslash" unicode="\" horiz-adv-x="362" 
d="M43 744l318 -872q3 -9 -5 -12l-25 -10q-9 0 -12 6l-318 873q-5 9 5 11l25 10q9 0 12 -6z" />
    <glyph glyph-name="bracketright" unicode="]" horiz-adv-x="223" 
d="M146 -150h-127q-9 0 -9 9v31q0 9 9 9h83v802h-83q-9 0 -9 9v31q0 9 9 9h127q9 0 9 -9v-882q0 -9 -9 -9z" />
    <glyph glyph-name="asciicircum" unicode="^" horiz-adv-x="401" 
d="M310 479l-110 162l-110 -163q-6 -4 -9 -4q-4 0 -7 3l-20 18q-8 8 -1 16l125 181q8 8 18 8h9q10 0 18 -8l124 -180q8 -8 -1 -16l-20 -18q-3 -3 -7 -3q-3 0 -9 4z" />
    <glyph glyph-name="underscore" unicode="_" horiz-adv-x="238" 
d="M0 -150v53h238v-53h-238z" />
    <glyph glyph-name="grave" unicode="`" horiz-adv-x="183" 
d="M101 778l43 -73q5 -7 -4 -7h-22q-8 0 -15 7l-63 74q-7 7 3 7h45q8 0 13 -8z" />
    <glyph glyph-name="a" unicode="a" horiz-adv-x="432" 
d="M293 100v161q-81 18 -119 18q-30 0 -49 -18.5t-19 -48.5v-110q0 -28 18 -44t44 -16q44 0 125 58zM344 47h58q11 0 11 -11v-25q0 -11 -11 -11h-98q-11 0 -11 11v35q-82 -53 -136 -53q-43 0 -72.5 30.5t-29.5 79.5v109q0 50 31 81.5t81 31.5q47 0 126 -17v129
q0 31 -17 49.5t-47 18.5h-55q-30 0 -46.5 -18.5t-16.5 -49.5v-26q0 -11 -11 -11h-29q-11 0 -11 11v30q0 51 31 82t81 31h59q51 0 82 -31t31 -82v-394z" />
    <glyph glyph-name="b" unicode="b" horiz-adv-x="430" 
d="M127 445v-340q80 -63 132 -63q27 0 44.5 17t17.5 47v338q0 30 -17.5 47t-44.5 17q-52 0 -132 -63zM4 664v25q0 11 11 11h100q12 0 12 -11v-189q85 57 144 57q43 0 72.5 -31.5t29.5 -81.5v-338q0 -50 -29.5 -81.5t-72.5 -31.5q-59 0 -144 57v-39q0 -11 -12 -11h-28
q-12 0 -12 11v642h-60q-11 0 -11 11z" />
    <glyph glyph-name="c" unicode="c" horiz-adv-x="383" 
d="M170 45h59q28 0 44.5 17t16.5 45v43q0 11 12 11h28q12 0 12 -11v-41q0 -51 -31 -82t-82 -31h-59q-50 0 -81 31t-31 82v332q0 51 31 82t81 31h59q51 0 82 -31t31 -82v-41q0 -11 -12 -11h-28q-12 0 -12 11v43q0 28 -16.5 45t-44.5 17h-59q-28 0 -44.5 -17t-16.5 -45v-336
q0 -28 16.5 -45t44.5 -17z" />
    <glyph glyph-name="d" unicode="d" horiz-adv-x="443" 
d="M303 105v340q-80 63 -132 63q-27 0 -44.5 -17t-17.5 -47v-338q0 -30 17.5 -47t44.5 -17q52 0 132 63zM355 47h58q11 0 11 -11v-25q0 -11 -11 -11h-98q-12 0 -12 11v39q-85 -57 -144 -57q-43 0 -72 31.5t-29 81.5v338q0 50 29 81.5t72 31.5q59 0 144 -57v153h-60
q-11 0 -11 11v25q0 11 11 11h100q12 0 12 -11v-642z" />
    <glyph glyph-name="e" unicode="e" horiz-adv-x="395" 
d="M231 505h-61q-28 0 -44.5 -16.5t-16.5 -43.5v-147h184v147q0 27 -17 43.5t-45 16.5zM333 249h-224v-141q0 -29 16.5 -46t44.5 -17h61q28 0 45 17t17 45v34q0 12 11 12h29q11 0 11 -12v-32q0 -51 -31 -82t-82 -31h-61q-50 0 -81 31t-31 82v332q0 51 31 82t81 31h61
q51 0 82 -30.5t31 -80.5v-183q0 -11 -11 -11z" />
    <glyph glyph-name="f" unicode="f" horiz-adv-x="293" 
d="M235 36v-25q0 -11 -11 -11h-172q-11 0 -11 11v25q0 11 11 11h61v454h-65q-11 0 -11 11v27q0 11 11 11h65v38q0 50 31 81t81 31h27q11 0 11 -11v-27q0 -11 -11 -11h-27q-28 0 -44.5 -17t-16.5 -44v-40h88q11 0 11 -11v-27q0 -11 -11 -11h-88v-454h60q11 0 11 -11z" />
    <glyph glyph-name="g" unicode="g" horiz-adv-x="437" 
d="M303 104v341q-80 63 -132 63q-27 0 -44.5 -17t-17.5 -47v-338q0 -30 17.5 -47t44.5 -17q46 0 132 62zM75 -127v27q0 8 10 8q5 0 8 -1q65 -15 89 -15q50 0 85.5 24.5t35.5 70.5v63q-84 -57 -144 -57q-43 0 -72 31.5t-29 81.5v338q0 50 29 81.5t72 31.5q59 0 144 -57v39
q0 11 12 11h98q11 0 11 -11v-25q0 -11 -11 -11h-58v-520q0 -68 -48.5 -104t-120.5 -36q-26 0 -68.5 7.5t-42.5 22.5z" />
    <glyph glyph-name="h" unicode="h" horiz-adv-x="491" 
d="M473 36v-25q0 -11 -12 -11h-166q-12 0 -12 11v25q0 12 12 12h55v396q0 30 -17.5 47t-44.5 17q-53 0 -133 -63v-397h54q11 0 11 -12v-25q0 -11 -11 -11h-166q-11 0 -11 11v25q0 12 11 12h60v605h-60q-11 0 -11 11v25q0 11 11 11h100q12 0 12 -11v-189q85 57 144 57
q44 0 73 -31.5t29 -81.5v-396h60q12 0 12 -12z" />
    <glyph glyph-name="i" unicode="i" horiz-adv-x="250" 
d="M37 514v25q0 11 11 11h100q12 0 12 -11v-492h60q11 0 11 -11v-25q0 -11 -11 -11h-172q-11 0 -11 11v25q0 11 11 11h60v456h-60q-11 0 -11 11zM91 657v30q0 17 17 17h32q17 0 17 -17v-30q0 -17 -17 -17h-32q-17 0 -17 17z" />
    <glyph glyph-name="j" unicode="j" horiz-adv-x="222" 
d="M0 -139v27q0 11 11 11h27q27 0 44 17t17 44v543h-61q-11 0 -11 11v25q0 11 11 11h101q11 0 11 -11v-577q0 -50 -31 -81t-81 -31h-27q-11 0 -11 11zM82 657v30q0 17 18 17h31q18 0 18 -17v-30q0 -17 -18 -17h-31q-18 0 -18 17z" />
    <glyph glyph-name="k" unicode="k" horiz-adv-x="445" 
d="M32 664v25q0 11 11 11h100q12 0 12 -11v-642h55q11 0 11 -11v-25q0 -11 -11 -11h-167q-11 0 -11 11v25q0 11 11 11h60v606h-60q-11 0 -11 11zM411 503h-52l-132 -223l137 -233h59q11 0 11 -11v-25q0 -11 -11 -11h-77q-12 0 -17 10l-157 270l132 223h-43q-11 0 -11 11v25
q0 11 11 11h150q11 0 11 -11v-25q0 -11 -11 -11z" />
    <glyph glyph-name="l" unicode="l" horiz-adv-x="245" 
d="M226 36v-25q0 -11 -11 -11h-172q-11 0 -11 11v25q0 11 11 11h60v606h-60q-11 0 -11 11v25q0 11 11 11h100q12 0 12 -11v-642h60q11 0 11 -11z" />
    <glyph glyph-name="m" unicode="m" horiz-adv-x="700" 
d="M215 0h-167q-11 0 -11 11v25q0 11 11 11h60v456h-60q-11 0 -11 11v25q0 11 11 11h100q12 0 12 -11v-35q64 53 123 53q64 0 90 -59q75 59 135 59q43 0 72.5 -31.5t29.5 -81.5v-397h60q11 0 11 -11v-25q0 -11 -11 -11h-167q-11 0 -11 11v25q0 11 11 11h55v397
q0 30 -17.5 47t-42.5 17q-28 0 -60 -20t-53 -44v-397h55q11 0 11 -11v-25q0 -11 -11 -11h-162q-11 0 -11 11v25q0 11 11 11h55v397q0 30 -17.5 47t-42.5 17q-50 0 -113 -60v-401h55q11 0 11 -11v-25q0 -11 -11 -11z" />
    <glyph glyph-name="n" unicode="n" horiz-adv-x="496" 
d="M214 0h-166q-11 0 -11 11v25q0 11 11 11h60v456h-60q-11 0 -11 11v25q0 11 11 11h100q12 0 12 -11v-39q85 57 144 57q44 0 73 -31.5t29 -81.5v-397h60q12 0 12 -11v-25q0 -11 -12 -11h-166q-12 0 -12 11v25q0 11 12 11h55v397q0 30 -17.5 47t-44.5 17q-53 0 -133 -63
v-398h54q11 0 11 -11v-25q0 -11 -11 -11z" />
    <glyph glyph-name="o" unicode="o" horiz-adv-x="411" 
d="M109 443v-336q0 -28 16.5 -45t44.5 -17h71q28 0 45 17t17 45v336q0 28 -17 45t-45 17h-71q-28 0 -44.5 -17t-16.5 -45zM58 109v332q0 51 31 82t81 31h71q51 0 82 -31t31 -82v-332q0 -51 -31 -82t-82 -31h-71q-50 0 -81 31t-31 82z" />
    <glyph glyph-name="p" unicode="p" horiz-adv-x="445" 
d="M142 445v-340q80 -63 132 -63q27 0 44.5 17t17.5 47v338q0 30 -17.5 47t-44.5 17q-52 0 -132 -63zM19 -139v25q0 11 11 11h60v606h-58q-11 0 -11 11v25q0 11 11 11h98q12 0 12 -11v-39q85 57 144 57q43 0 72.5 -31.5t29.5 -81.5v-338q0 -50 -29.5 -81.5t-72.5 -31.5
q-58 0 -144 57v-153h70q11 0 11 -11v-25q0 -11 -11 -11h-182q-11 0 -11 11z" />
    <glyph glyph-name="q" unicode="q" horiz-adv-x="419" 
d="M303 105v340q-80 63 -132 63q-27 0 -44.5 -17t-17.5 -47v-338q0 -30 17.5 -47t44.5 -17q52 0 132 63zM426 -114v-25q0 -11 -11 -11h-182q-11 0 -11 11v25q0 11 11 11h70v153q-85 -57 -144 -57q-43 0 -72 31.5t-29 81.5v338q0 50 29 81.5t72 31.5q59 0 144 -57v39
q0 11 12 11h28q12 0 12 -11v-642h60q11 0 11 -11z" />
    <glyph glyph-name="r" unicode="r" horiz-adv-x="320" 
d="M160 434v-387h70q11 0 11 -11v-25q0 -11 -11 -11h-182q-11 0 -11 11v25q0 11 11 11h60v456h-58q-11 0 -11 11v25q0 11 11 11h98q12 0 12 -11v-45q83 59 139 62q11 2 11 -10l1 -33q0 -11 -11 -9h-3q-49 0 -137 -70z" />
    <glyph glyph-name="s" unicode="s" horiz-adv-x="374" 
d="M330 154v-45q0 -50 -31 -81.5t-81 -31.5h-62q-50 0 -81 31t-31 82v41q0 11 11 11h29q11 0 11 -11v-37q0 -31 16.5 -49.5t46.5 -18.5h57q30 0 47 18.5t17 49.5v43q0 37 -32 57l-143 96q-25 16 -40 44t-15 57v31q0 51 30.5 82t81.5 31h52q50 0 81 -31t31 -82v-41
q0 -11 -11 -11h-29q-11 0 -11 11v37q0 31 -17 49.5t-47 18.5h-47q-30 0 -46.5 -18.5t-16.5 -49.5v-29q0 -37 32 -57l143 -95q25 -16 40 -44.5t15 -57.5z" />
    <glyph glyph-name="t" unicode="t" horiz-adv-x="282" 
d="M16 512v27q0 11 11 11h69v89q0 11 11 11h29q11 0 11 -11v-89h98q11 0 11 -11v-27q0 -11 -11 -11h-98v-394q0 -28 17 -45t44 -17h37q11 0 11 -11v-27q0 -11 -11 -11h-37q-50 0 -81 31t-31 82v392h-69q-11 0 -11 11z" />
    <glyph glyph-name="u" unicode="u" horiz-adv-x="482" 
d="M392 539v-492h60q11 0 11 -11v-25q0 -11 -11 -11h-100q-12 0 -12 11v42q-86 -60 -146 -60q-43 0 -72 31.5t-29 81.5v397h-61q-11 0 -11 11v25q0 11 11 11h101q11 0 11 -11v-433q0 -30 17.5 -47t44.5 -17q52 0 134 66v395h-57q-11 0 -11 11v25q0 11 11 11h97q12 0 12 -11z
" />
    <glyph glyph-name="v" unicode="v" horiz-adv-x="455" 
d="M434 503h-58l-120 -492q-3 -11 -14 -11h-28q-10 0 -14 11l-121 492h-58q-11 0 -11 11v25q0 11 11 11h158q11 0 11 -11v-25q0 -11 -11 -11h-47l92 -387q3 -15 3 -33h2q0 23 3 33l92 387h-47q-11 0 -11 11v25q0 11 11 11h157q11 0 11 -11v-25q0 -11 -11 -11z" />
    <glyph glyph-name="w" unicode="w" horiz-adv-x="645" 
d="M182 503h-51l76 -393q2 -10 2 -33h2q0 18 3 33l83 429q2 11 13 11h25q11 0 13 -11l84 -429q2 -10 2 -33h2q0 23 3 33l75 393h-51q-12 0 -12 11v25q0 11 12 11h160q12 0 12 -11v-25q0 -11 -12 -11h-57l-104 -492q-3 -11 -14 -11h-26q-11 0 -14 11l-82 409q-3 15 -3 34h-2
q0 -24 -2 -34l-82 -409q-3 -11 -14 -11h-26q-11 0 -14 11l-104 492h-58q-11 0 -11 11v25q0 11 11 11h161q11 0 11 -11v-25q0 -11 -11 -11z" />
    <glyph glyph-name="x" unicode="x" horiz-adv-x="439" 
d="M415 503h-54l-113 -223l113 -233h53q12 0 12 -11v-25q0 -11 -12 -11h-146q-11 0 -11 11v25q0 11 11 11h40l-83 174q-4 5 -4 17h-2q0 -13 -3 -17l-88 -174h40q11 0 11 -11v-25q0 -11 -11 -11h-146q-12 0 -12 11v25q0 11 12 11h53l118 233l-108 223h-54q-11 0 -11 11v25
q0 11 11 11h147q11 0 11 -11v-25q0 -11 -11 -11h-40l78 -163q4 -7 4 -17h2q0 12 3 17l83 163h-39q-12 0 -12 11v25q0 11 12 11h146q11 0 11 -11v-25q0 -11 -11 -11z" />
    <glyph glyph-name="y" unicode="y" horiz-adv-x="458" 
d="M178 503h-47l94 -387q3 -10 3 -33h2q0 18 3 33l94 387h-46q-12 0 -12 11v25q0 11 12 11h156q11 0 11 -11v-25q0 -11 -11 -11h-58l-159 -642q-3 -11 -14 -11h-94q-12 0 -12 11v25q0 11 12 11h67l26 104l-126 502h-58q-11 0 -11 11v25q0 11 11 11h157q11 0 11 -11v-25
q0 -11 -11 -11z" />
    <glyph glyph-name="z" unicode="z" horiz-adv-x="371" 
d="M48 438v101q0 11 11 11h260q11 0 11 -11v-27q0 -11 -5 -21l-222 -442h181v64q0 11 11 11h27q11 0 11 -11v-102q0 -11 -11 -11h-265q-12 0 -12 11v27q0 9 6 21l222 442h-176v-63q0 -12 -12 -12h-26q-11 0 -11 12z" />
    <glyph glyph-name="braceleft" unicode="{" horiz-adv-x="260" 
d="M153 638v-235q0 -71 -55 -102q58 -31 58 -103v-236q0 -28 17 -45.5t46 -17.5h20q11 0 11 -11v-27q0 -11 -11 -11h-18q-53 0 -86 32.5t-33 85.5v243q0 28 -17 45t-46 17h-15q-11 0 -11 12v30q0 12 11 12h15q28 0 44.5 16.5t16.5 45.5v243q0 53 32.5 85.5t85.5 32.5h21
q11 0 11 -11v-27q0 -11 -11 -11h-23q-28 0 -45.5 -17.5t-17.5 -45.5z" />
    <glyph glyph-name="bar" unicode="|" horiz-adv-x="180" 
d="M68 -141v882q0 9 9 9h26q10 0 10 -9v-882q0 -9 -10 -9h-26q-9 0 -9 9z" />
    <glyph glyph-name="braceright" unicode="}" horiz-adv-x="260" 
d="M104 -38v236q0 72 58 103q-55 30 -55 102v235q0 28 -17.5 45.5t-45.5 17.5h-23q-11 0 -11 11v27q0 11 11 11h21q53 0 85.5 -32.5t32.5 -85.5v-243q0 -29 16.5 -45.5t44.5 -16.5h15q11 0 11 -12v-30q0 -12 -11 -12h-15q-29 0 -46.5 -17t-17.5 -45v-243q0 -53 -32.5 -85.5
t-85.5 -32.5h-18q-11 0 -11 11v27q0 11 11 11h20q29 0 46 17.5t17 45.5z" />
    <glyph glyph-name="asciitilde" unicode="~" horiz-adv-x="401" 
d="M53 335v33q0 9 8 14l32 22q19 11 41 11q14 0 29 -5l88 -36q12 -4 19 -4q13 0 26 8l44 29q2 1 4 1q4 0 4 -5v-33q0 -11 -8 -14l-32 -21q-18 -12 -41 -12q-15 0 -29 6l-88 35q-8 4 -19 4q-13 0 -26 -8l-44 -29l-4 -2q-4 0 -4 6z" />
    <glyph glyph-name="exclamdown" unicode="&#xa1;" horiz-adv-x="192" 
d="M68 -135l4 496q0 15 15 15h17q14 0 16 -15l3 -496q0 -15 -15 -15h-25q-15 0 -15 15zM60 494v39q0 17 17 17h37q17 0 17 -17v-39q0 -17 -17 -17h-37q-17 0 -17 17z" />
    <glyph glyph-name="cent" unicode="&#xa2;" horiz-adv-x="383" 
d="M182 5v86h-12q-50 0 -81 31t-31 81v294q0 50 31 81t81 31h12v86q0 9 9 9h22q9 0 9 -9v-86h7q51 0 82 -31t31 -81v-39q0 -11 -12 -11h-28q-12 0 -12 11v41q0 28 -16.5 44.5t-44.5 16.5h-59q-28 0 -44.5 -16.5t-16.5 -44.5v-298q0 -27 16.5 -44t44.5 -17h59q28 0 44.5 17
t16.5 44v41q0 11 12 11h28q12 0 12 -11v-39q0 -50 -31 -81t-82 -31h-7v-86q0 -9 -9 -9h-22q-9 0 -9 9z" />
    <glyph glyph-name="sterling" unicode="&#xa3;" horiz-adv-x="433" 
d="M24 11v31q0 11 11 11h68v236h-68q-11 0 -11 11v23q0 11 11 11h68v251q0 53 32.5 86t85.5 33h54q53 0 86 -33t33 -86v-70q0 -12 -11 -12h-31q-11 0 -11 12v72q0 29 -17.5 46.5t-46.5 17.5h-58q-28 0 -45.5 -17.5t-17.5 -46.5v-253h123q11 0 11 -11v-23q0 -11 -11 -11h-123
v-236h225q11 0 11 -11v-31q0 -11 -11 -11h-346q-11 0 -11 11z" />
    <glyph glyph-name="currency" unicode="&#xa4;" horiz-adv-x="528" 
d="M112 350q0 -63 44.5 -107.5t108.5 -44.5q63 0 107.5 44.5t44.5 107.5t-44.5 108t-107.5 45q-64 0 -108.5 -45t-44.5 -108zM424 226l58 -59q8 -8 0 -16l-19 -18q-3 -4 -8 -4q-4 0 -8 4l-58 58q-54 -43 -124 -43q-69 0 -125 43l-59 -59q-4 -4 -8 -4q-2 0 -8 4l-19 19
q-8 8 0 16l60 59q-43 54 -43 124q0 67 42 124l-59 59q-9 9 0 16l19 19q3 4 8 4q4 0 8 -4l59 -60q53 44 125 44q68 0 124 -43l59 59q3 4 8 4q4 0 8 -4l18 -18q8 -8 0 -16l-59 -59q43 -56 43 -125t-42 -124z" />
    <glyph glyph-name="yen" unicode="&#xa5;" horiz-adv-x="487" 
d="M249 376l100 275h-42q-12 0 -12 11v27q0 11 12 11h159q11 0 11 -11v-27q0 -11 -11 -11h-62l-119 -329h89q12 0 12 -11v-23q0 -11 -12 -11h-104v-69h104q12 0 12 -11v-21q0 -11 -12 -11h-104v-116h66q11 0 11 -11v-27q0 -11 -11 -11h-185q-11 0 -11 11v27q0 11 11 11h66
v116h-104q-12 0 -12 11v21q0 11 12 11h104v69h-104q-12 0 -12 11v23q0 11 12 11h89l-120 329h-61q-11 0 -11 11v27q0 11 11 11h160q11 0 11 -11v-27q0 -11 -11 -11h-43l100 -275q5 -15 5 -30h2q0 18 4 30z" />
    <glyph glyph-name="brokenbar" unicode="&#xa6;" horiz-adv-x="180" 
d="M68 -141v380h45v-380q0 -9 -10 -9h-26q-9 0 -9 9zM113 741v-380h-45v380q0 9 9 9h26q10 0 10 -9z" />
    <glyph glyph-name="section" unicode="&#xa7;" horiz-adv-x="387" 
d="M211 196l-119 107q-43 40 -43 92v196q0 51 30.5 82t81.5 31h64q51 0 82 -31t31 -82v-64q0 -11 -11 -11h-29q-11 0 -11 11v60q0 31 -18.5 49.5t-49.5 18.5h-51q-31 0 -49.5 -18.5t-18.5 -49.5v-188q0 -36 26 -57l120 -108q6 -5 1 -12l-22 -25q-3 -3 -7 -3q-3 0 -7 2z
M182 459l113 -103q43 -40 43 -92v-196q0 -51 -31 -82t-82 -31h-64q-50 0 -81 31t-31 82v64q0 11 11 11h29q11 0 11 -11v-60q0 -31 18.5 -49.5t49.5 -18.5h51q31 0 49.5 18.5t18.5 49.5v188q0 33 -26 57l-114 104q-6 6 -1 13l22 24q4 4 7 4q4 0 7 -3z" />
    <glyph glyph-name="dieresis" unicode="&#xa8;" horiz-adv-x="241" 
d="M148 723v22q0 17 17 17h21q18 0 18 -17v-22q0 -17 -18 -17h-21q-17 0 -17 17zM38 723v22q0 17 17 17h21q17 0 17 -17v-22q0 -17 -17 -17h-21q-17 0 -17 17z" />
    <glyph glyph-name="copyright" unicode="&#xa9;" horiz-adv-x="786" 
d="M108 489v-278q0 -75 45.5 -120.5t119.5 -45.5h240q74 0 119.5 45.5t45.5 120.5v278q0 75 -45.5 120.5t-119.5 45.5h-240q-74 0 -119.5 -45.5t-45.5 -120.5zM63 211v278q0 95 57.5 153t152.5 58h240q95 0 152.5 -58t57.5 -153v-278q0 -95 -57.5 -153t-152.5 -58h-240
q-95 0 -152.5 58t-57.5 153zM369 175h59q28 0 44.5 16.5t16.5 44.5v30q0 12 11 12h29q11 0 11 -12v-28q0 -51 -31 -82t-81 -31h-59q-51 0 -82 31t-31 82v224q0 51 31 82t82 31h59q50 0 81 -31t31 -82v-28q0 -11 -11 -11h-29q-11 0 -11 11v30q0 28 -16.5 45t-44.5 17h-59
q-28 0 -44.5 -17t-16.5 -45v-228q0 -28 16.5 -44.5t44.5 -16.5z" />
    <glyph glyph-name="ordfeminine" unicode="&#xaa;" horiz-adv-x="281" 
d="M72 480v-69q0 -18 11 -28.5t27 -10.5q31 0 79 37v102q-62 11 -74 11q-19 0 -31 -11.5t-12 -30.5zM34 411v68q0 34 21 54.5t55 20.5q25 0 79 -9v79q0 43 -39 43h-36q-39 0 -39 -43v-15q0 -9 -9 -9h-20q-9 0 -9 9v18q0 34 20.5 54.5t54.5 20.5h39q34 0 54.5 -20.5
t20.5 -54.5v-251h35q9 0 9 -8v-18q0 -8 -9 -8h-64q-8 0 -8 8v21q-56 -34 -88 -34q-28 0 -47.5 21t-19.5 53z" />
    <glyph glyph-name="guillemotleft" unicode="&#xab;" horiz-adv-x="425" 
d="M230 458l-161 -153l161 -153q9 -8 0 -15l-16 -17q-3 -3 -8 -3q-4 0 -8 3l-170 162q-8 8 -8 19v8q0 11 8 19l170 162q4 3 8 3q5 0 8 -3l16 -16q8 -8 0 -16zM393 458l-161 -153l161 -153q8 -7 1 -16l-17 -16q-4 -4 -8 -4t-7 4l-171 162q-8 8 -8 19v8q0 11 8 19l171 162
q3 4 8 4q2 0 8 -4l15 -16q10 -8 0 -16z" />
    <glyph glyph-name="logicalnot" unicode="&#xac;" horiz-adv-x="401" 
d="M50 369v26q0 12 11 12h279q11 0 11 -12v-116q0 -11 -11 -11h-28q-11 0 -11 11v79h-240q-11 0 -11 11z" />
    <glyph glyph-name="uni00AD" unicode="&#xad;" horiz-adv-x="280" 
d="M46 292v26q0 10 9 10h170q9 0 9 -10v-26q0 -9 -9 -9h-170q-9 0 -9 9z" />
    <glyph glyph-name="registered" unicode="&#xae;" horiz-adv-x="786" 
d="M108 489v-278q0 -75 45.5 -120.5t119.5 -45.5h240q74 0 119.5 45.5t45.5 120.5v278q0 75 -45.5 120.5t-119.5 45.5h-240q-74 0 -119.5 -45.5t-45.5 -120.5zM425 538h-94v-191h94q28 0 45 17t17 45v67q0 28 -17 45t-45 17zM63 211v278q0 95 57.5 153t152.5 58h240
q95 0 152.5 -58t57.5 -153v-278q0 -95 -57.5 -153t-152.5 -58h-240q-95 0 -152.5 58t-57.5 153zM600 150v-25q0 -10 -11 -10h-88q-11 0 -14 10l-64 173h-92v-138h59q10 0 10 -10v-25q0 -10 -10 -10h-172q-10 0 -10 10v25q0 10 10 10h64v381h-64q-10 0 -10 11v24q0 11 10 11
h205q51 0 82 -31t31 -82v-64q0 -76 -63 -103l52 -147h64q11 0 11 -10z" />
    <glyph glyph-name="macron" unicode="&#xaf;" horiz-adv-x="234" 
d="M38 724v21q0 9 9 9h140q9 0 9 -9v-21q0 -9 -9 -9h-140q-9 0 -9 9z" />
    <glyph glyph-name="degree" unicode="&#xb0;" horiz-adv-x="253" 
d="M24 605q0 42 30 72t73 30q42 0 72 -30t30 -72t-30 -72.5t-72 -30.5q-43 0 -73 30.5t-30 72.5zM66 605q0 -25 18 -43t43 -18t43 18t18 43t-18 42.5t-43 17.5t-43 -17.5t-18 -42.5z" />
    <glyph glyph-name="plusminus" unicode="&#xb1;" horiz-adv-x="401" 
d="M214 236h-27q-11 0 -11 11v115h-115q-11 0 -11 11v27q0 11 11 11h115v114q0 12 11 12h27q11 0 11 -12v-114h115q11 0 11 -11v-27q0 -11 -11 -11h-115v-115q0 -11 -11 -11zM50 130v27q0 11 11 11h279q11 0 11 -11v-27q0 -11 -11 -11h-279q-11 0 -11 11z" />
    <glyph glyph-name="twosuperior" unicode="&#xb2;" horiz-adv-x="200" 
d="M20 627q0 34 20.5 54.5t54.5 20.5h9q34 0 54.5 -20.5t20.5 -54.5v-62q0 -28 -22 -48l-89 -77q-9 -9 -9 -20v-33h92v38q0 8 7 8h19q8 0 8 -8v-68q0 -7 -8 -7h-148q-7 0 -7 8v63q0 28 22 47l89 78q9 9 9 20v64q0 16 -9.5 26t-25.5 10h-15q-16 0 -25.5 -10t-9.5 -26v-23
q0 -6 -8 -6h-22q-7 0 -7 6v20z" />
    <glyph glyph-name="threesuperior" unicode="&#xb3;" horiz-adv-x="205" 
d="M19 627q0 34 20.5 54.5t53.5 20.5h14q34 0 54.5 -20.5t20.5 -54.5v-38q0 -38 -32 -57q36 -18 36 -59v-50q0 -34 -21 -54.5t-55 -20.5h-17q-34 0 -55 20.5t-21 54.5v16q0 7 8 7h22q7 0 7 -7v-19q0 -16 9.5 -26t25.5 -10h24q16 0 26 10t10 26v58q0 16 -10 25.5t-26 9.5h-26
q-7 0 -7 7v22q0 8 7 8h23q16 0 25.5 9.5t9.5 25.5v45q0 16 -9.5 25.5t-25.5 9.5h-20q-16 0 -25 -9.5t-9 -25.5v-19q0 -7 -8 -7h-22q-7 0 -7 7v16z" />
    <glyph glyph-name="acute" unicode="&#xb4;" horiz-adv-x="183" 
d="M38 705l44 73q5 8 13 8h45q10 0 3 -7l-63 -74q-7 -7 -16 -7h-21q-9 0 -5 7z" />
    <glyph glyph-name="paragraph" unicode="&#xb6;" horiz-adv-x="504" 
d="M476 651h-65v-790q0 -11 -12 -11h-30q-12 0 -12 11v786h-93v-786q0 -11 -11 -11h-31q-11 0 -11 11v425h-43q-54 0 -86.5 32.5t-32.5 86.5v176q0 54 32.5 86.5t86.5 32.5h308q11 0 11 -11v-27q0 -11 -11 -11z" />
    <glyph glyph-name="periodcentered" unicode="&#xb7;" horiz-adv-x="163" 
d="M46 331v39q0 17 17 17h37q17 0 17 -17v-39q0 -18 -17 -18h-37q-17 0 -17 18z" />
    <glyph glyph-name="cedilla" unicode="&#xb8;" horiz-adv-x="180" 
d="M143 -77v-19q0 -19 -11.5 -30t-30.5 -11h-54q-9 0 -9 9v12q0 9 9 9h48q15 0 15 15v10q0 15 -15 15h-27q-15 0 -13 16l10 53h35l-7 -38h8q19 0 30.5 -11.5t11.5 -29.5z" />
    <glyph glyph-name="onesuperior" unicode="&#xb9;" horiz-adv-x="189" 
d="M103 700h9q8 0 8 -7v-309h50q7 0 7 -8v-19q0 -7 -7 -7h-142q-8 0 -8 7v19q0 8 8 8h55v273l-61 -27q-7 0 -7 5v23q0 8 7 11l66 28q6 3 15 3z" />
    <glyph glyph-name="ordmasculine" unicode="&#xba;" horiz-adv-x="268" 
d="M111 702h46q35 0 55 -20t20 -55v-213q0 -33 -20.5 -53.5t-54.5 -20.5h-46q-34 0 -54.5 20.5t-20.5 53.5v213q0 34 20.5 54.5t54.5 20.5zM73 629v-217q0 -17 10.5 -27t27.5 -10h46q17 0 27.5 10t10.5 27v217q0 17 -10.5 27.5t-27.5 10.5h-46q-17 0 -27.5 -10.5
t-10.5 -27.5z" />
    <glyph glyph-name="guillemotright" unicode="&#xbb;" horiz-adv-x="425" 
d="M355 305l-161 153q-8 8 0 16l16 16q4 4 8 4q2 0 8 -4l171 -162q8 -10 8 -19v-8q0 -9 -8 -19l-171 -162q-6 -4 -8 -4q-4 0 -8 4l-16 16q-9 9 0 16zM192 305l-161 153q-8 8 0 16l16 16q4 4 8 4q2 0 8 -4l170 -162q8 -8 8 -19v-8q0 -11 -8 -19l-170 -162q-6 -4 -8 -4t-8 4
l-16 16q-8 10 0 16z" />
    <glyph glyph-name="onequarter" unicode="&#xbc;" horiz-adv-x="743" 
d="M170 700h9q8 0 8 -7v-309h51q7 0 7 -8v-19q0 -7 -7 -7h-143q-7 0 -7 7v19q0 8 7 8h55v273l-61 -27q-7 0 -7 5v23q0 8 7 11l67 28q6 3 14 3zM81 -19l534 764q3 5 7 5q2 0 6 -2l21 -15q8 -6 3 -13l-535 -765q-1 -4 -7 -4q-3 0 -5 2l-22 15q-8 5 -2 13zM603 207h22q7 0 7 -7
v-85h26q8 0 8 -7v-21q0 -8 -8 -8h-26v-45h29q7 0 7 -8v-19q0 -7 -7 -7h-95q-8 0 -8 7v19q0 8 8 8h29v45h-120q-7 0 -7 8v11q0 8 3 14l99 231q4 7 11 7h25q8 0 4 -7l-97 -228h82v85q0 7 8 7z" />
    <glyph glyph-name="onehalf" unicode="&#xbd;" horiz-adv-x="742" 
d="M170 700h9q8 0 8 -7v-309h51q7 0 7 -8v-19q0 -7 -7 -7h-143q-7 0 -7 7v19q0 8 7 8h55v273l-61 -27q-7 0 -7 5v23q0 8 7 11l67 28q6 3 14 3zM81 -19l534 764q3 5 7 5q2 0 6 -2l21 -15q8 -6 3 -13l-535 -765q-1 -4 -7 -4q-3 0 -5 2l-22 15q-8 5 -2 13zM495 257v20
q0 34 20.5 54.5t55.5 20.5h8q34 0 54.5 -20.5t20.5 -54.5v-62q0 -28 -22 -48l-89 -77q-8 -8 -8 -20l-1 -33h92v38q0 8 8 8h18q8 0 8 -8v-68q0 -7 -8 -7h-147q-8 0 -8 8v63q0 28 22 47l89 78q9 9 9 20v64q0 16 -9.5 26t-25.5 10h-15q-16 0 -25.5 -10t-9.5 -26v-23q0 -6 -7 -6
h-22q-8 0 -8 6z" />
    <glyph glyph-name="threequarters" unicode="&#xbe;" horiz-adv-x="758" 
d="M86 611v16q0 34 20.5 54.5t54.5 20.5h14q34 0 54 -20.5t20 -54.5v-38q0 -38 -32 -57q36 -18 36 -59v-50q0 -34 -20.5 -54.5t-54.5 -20.5h-18q-34 0 -54.5 20.5t-20.5 54.5v16q0 7 7 7h22q8 0 8 -7v-19q0 -16 9.5 -26t24.5 -10h25q16 0 25.5 10t9.5 26v58q0 16 -9.5 25.5
t-25.5 9.5h-26q-8 0 -8 7v22q0 8 8 8h22q16 0 26 9.5t10 25.5v45q0 16 -9.5 25.5t-25.5 9.5h-20q-16 0 -25.5 -9.5t-9.5 -25.5v-19q0 -7 -8 -7h-21q-8 0 -8 7zM97 -19l534 764q3 5 7 5q2 0 6 -2l21 -15q8 -6 3 -13l-535 -765q-3 -4 -7 -4q-3 0 -5 2l-22 15q-8 5 -2 13z
M619 207h22q7 0 7 -7v-85h26q8 0 8 -7v-21q0 -8 -8 -8h-26v-45h29q7 0 7 -8v-19q0 -7 -7 -7h-95q-8 0 -8 7v19q0 8 8 8h29v45h-120q-7 0 -7 8v11q0 8 3 14l99 231q4 7 11 7h25q8 0 4 -7l-97 -228h82v85q0 7 8 7z" />
    <glyph glyph-name="questiondown" unicode="&#xbf;" horiz-adv-x="362" 
d="M34 -35v101q0 60 39 101l60 69q23 28 23 61l1 68q0 11 12 11h26q10 0 12 -11v-67q2 -57 -37 -101l-61 -69q-22 -27 -22 -61v-104q0 -29 17.5 -46.5t45.5 -17.5h60q28 0 44 17.5t16 46.5v71q0 11 12 11h30q12 0 12 -11v-69q0 -54 -31.5 -86.5t-84.5 -32.5h-55
q-54 0 -86.5 33t-32.5 86zM217 533v-39q0 -17 -17 -17h-37q-18 0 -18 17v39q0 17 18 17h37q17 0 17 -17z" />
    <glyph glyph-name="Agrave" unicode="&#xc0;" horiz-adv-x="517" 
d="M172 203h174l-84 369q-2 9 -2 30h-2q0 -21 -2 -30zM358 153h-198l-23 -104h49q11 0 11 -11v-27q0 -11 -11 -11h-165q-11 0 -11 11v27q0 11 11 11h61l152 640q2 11 14 11h22q11 0 14 -11l152 -640h60q11 0 11 -11v-27q0 -11 -11 -11h-163q-12 0 -12 11v27q0 11 12 11h48z
M241 824l44 -73q5 -7 -4 -7h-22q-11 0 -15 7l-63 74q-7 7 3 7h45q9 0 12 -8z" />
    <glyph glyph-name="Aacute" unicode="&#xc1;" horiz-adv-x="517" 
d="M172 203h174l-84 369q-2 9 -2 30h-2q0 -21 -2 -30zM358 153h-198l-23 -104h49q11 0 11 -11v-27q0 -11 -11 -11h-165q-11 0 -11 11v27q0 11 11 11h61l152 640q2 11 14 11h22q11 0 14 -11l152 -640h60q11 0 11 -11v-27q0 -11 -11 -11h-163q-12 0 -12 11v27q0 11 12 11h48z
M229 751l44 73q5 8 13 8h45q10 0 3 -7l-63 -74q-6 -7 -16 -7h-21q-8 0 -5 7z" />
    <glyph glyph-name="Acircumflex" unicode="&#xc2;" horiz-adv-x="517" 
d="M172 203h174l-84 369q-2 9 -2 30h-2q0 -21 -2 -30zM358 153h-198l-23 -104h49q11 0 11 -11v-27q0 -11 -11 -11h-165q-11 0 -11 11v27q0 11 11 11h61l152 640q2 11 14 11h22q11 0 14 -11l152 -640h60q11 0 11 -11v-27q0 -11 -11 -11h-163q-12 0 -12 11v27q0 11 12 11h48z
M286 826l54 -73q4 -7 -3 -7h-28q-9 0 -14 7l-38 50l-38 -50q-7 -7 -15 -7h-26q-8 0 -4 7l55 73q5 8 14 8h28q9 0 15 -8z" />
    <glyph glyph-name="Atilde" unicode="&#xc3;" horiz-adv-x="517" 
d="M172 203h174l-84 369q-2 9 -2 30h-2q0 -21 -2 -30zM358 153h-198l-23 -104h49q11 0 11 -11v-27q0 -11 -11 -11h-165q-11 0 -11 11v27q0 11 11 11h61l152 640q2 11 14 11h22q11 0 14 -11l152 -640h60q11 0 11 -11v-27q0 -11 -11 -11h-163q-12 0 -12 11v27q0 11 12 11h48z
M176 761v24q0 13 18.5 22t32.5 9q10 0 22 -6l23 -12q7 -4 14 -4q11 0 39 18l4 2q4 0 4 -6v-23q0 -13 -18.5 -21.5t-32.5 -8.5q-13 0 -22 5l-24 13q-5 4 -13 4q-13 0 -40 -20q-1 -1 -4 -1t-3 5z" />
    <glyph glyph-name="Adieresis" unicode="&#xc4;" horiz-adv-x="517" 
d="M172 203h174l-84 369q-2 9 -2 30h-2q0 -21 -2 -30zM358 153h-198l-23 -104h49q11 0 11 -11v-27q0 -11 -11 -11h-165q-11 0 -11 11v27q0 11 11 11h61l152 640q2 11 14 11h22q11 0 14 -11l152 -640h60q11 0 11 -11v-27q0 -11 -11 -11h-163q-12 0 -12 11v27q0 11 12 11h48z
M175 769v21q0 18 18 18h21q17 0 17 -18v-21q0 -17 -17 -17h-21q-18 0 -18 17zM286 769v21q0 18 17 18h21q17 0 17 -18v-21q0 -17 -17 -17h-21q-17 0 -17 17z" />
    <glyph glyph-name="Aring" unicode="&#xc5;" horiz-adv-x="517" 
d="M172 203h174l-84 369q-2 9 -2 30h-2q0 -21 -2 -30zM226 801q0 -13 9 -22t22 -9t22.5 9t9.5 22t-9.5 22.5t-22.5 9.5t-22 -9.5t-9 -22.5zM358 153h-198l-23 -104h49q11 0 11 -11v-27q0 -11 -11 -11h-165q-11 0 -11 11v27q0 11 11 11h61l152 640q2 11 14 11h22q11 0 14 -11
l152 -640h60q11 0 11 -11v-27q0 -11 -11 -11h-163q-12 0 -12 11v27q0 11 12 11h48zM195 801q0 26 18 44.5t44 18.5t44.5 -18.5t18.5 -44.5t-18.5 -44t-44.5 -18q-25 0 -43.5 18.5t-18.5 43.5z" />
    <glyph glyph-name="AE" unicode="&#xc6;" horiz-adv-x="655" 
d="M349 586l-151 -380h156v379q0 6 2 17.5t2 13.5h-2q-5 -25 -7 -30zM21 49h60l254 640q4 11 14 11h269q11 0 11 -11v-128q0 -11 -11 -11h-27q-11 0 -11 11v86h-172v-296h144q11 0 11 -11v-31q0 -11 -11 -11h-144v-245h172v86q0 11 11 11h27q11 0 11 -11v-128q0 -11 -11 -11
h-252q-12 0 -12 11v142h-175l-41 -104h46q11 0 11 -11v-27q0 -11 -11 -11h-163q-11 0 -11 11v27q0 11 11 11z" />
    <glyph glyph-name="Ccedilla" unicode="&#xc7;" horiz-adv-x="423" 
d="M272 -77v-19q0 -19 -11 -30t-30 -11h-55q-9 0 -9 9v12q0 9 9 9h49q15 0 15 15v10q0 15 -15 15h-28q-16 0 -12 16l8 47h-12q-53 0 -85.5 33t-32.5 86v470q0 53 32.5 86t85.5 33h74q53 0 86 -33t33 -86v-70q0 -12 -11 -12h-31q-12 0 -12 12v72q0 29 -17.5 46.5t-45.5 17.5
h-78q-28 0 -45.5 -17.5t-17.5 -46.5v-474q0 -29 17 -46t46 -17h78q29 0 46 17t17 46v72q0 12 12 12h31q11 0 11 -12v-70q0 -53 -33 -86t-86 -33h-27l-6 -32h9q19 0 30 -11.5t11 -29.5z" />
    <glyph glyph-name="Egrave" unicode="&#xc8;" 
d="M53 49h65v602h-65q-11 0 -11 11v27q0 11 11 11h329q11 0 11 -11v-128q0 -11 -11 -11h-27q-11 0 -11 11v86h-172v-296h144q11 0 11 -11v-31q0 -11 -11 -11h-144v-245h172v86q0 11 11 11h27q11 0 11 -11v-128q0 -11 -11 -11h-329q-11 0 -11 11v27q0 11 11 11zM215 824
l43 -73q5 -7 -4 -7h-22q-9 0 -15 7l-63 74q-7 7 3 7h45q8 0 13 -8z" />
    <glyph glyph-name="Eacute" unicode="&#xc9;" 
d="M53 700h329q11 0 11 -11v-128q0 -11 -11 -11h-27q-11 0 -11 11v86h-172v-296h144q11 0 11 -11v-31q0 -11 -11 -11h-144v-245h172v86q0 11 11 11h27q11 0 11 -11v-128q0 -11 -11 -11h-329q-11 0 -11 11v27q0 11 11 11h65v602h-65q-11 0 -11 11v27q0 11 11 11zM259 832h45
q10 0 3 -7l-63 -74q-6 -7 -15 -7h-22q-9 0 -4 7l43 73q5 8 13 8z" />
    <glyph glyph-name="Ecircumflex" unicode="&#xca;" 
d="M172 351h144q11 0 11 -11v-31q0 -11 -11 -11h-144v-245h172v86q0 11 11 11h27q11 0 11 -11v-128q0 -11 -11 -11h-329q-11 0 -11 11v27q0 11 11 11h65v602h-65q-11 0 -11 11v27q0 11 11 11h329q11 0 11 -11v-128q0 -11 -11 -11h-27q-11 0 -11 11v86h-172v-296zM310 746
h-28q-9 0 -14 7l-38 50l-38 -50q-7 -7 -15 -7h-26q-8 0 -4 7l55 73q5 8 15 8h27q9 0 15 -8l55 -73q3 -7 -4 -7z" />
    <glyph glyph-name="Edieresis" unicode="&#xcb;" 
d="M316 298h-144v-245h172v86q0 11 11 11h27q11 0 11 -11v-128q0 -11 -11 -11h-329q-11 0 -11 11v27q0 11 11 11h65v602h-65q-11 0 -11 11v27q0 11 11 11h329q11 0 11 -11v-128q0 -11 -11 -11h-27q-11 0 -11 11v86h-172v-296h144q11 0 11 -11v-31q0 -11 -11 -11zM187 752
h-21q-17 0 -17 17v21q0 18 17 18h21q18 0 18 -18v-21q0 -17 -18 -17zM315 790v-21q0 -17 -17 -17h-22q-17 0 -17 17v21q0 18 17 18h22q17 0 17 -18z" />
    <glyph glyph-name="Igrave" unicode="&#xcc;" horiz-adv-x="290" 
d="M42 11v27q0 11 11 11h65v602h-65q-11 0 -11 11v27q0 11 11 11h184q11 0 11 -11v-27q0 -11 -11 -11h-65v-602h65q11 0 11 -11v-27q0 -11 -11 -11h-184q-11 0 -11 11zM129 824l44 -73q3 -7 -4 -7h-22q-11 0 -15 7l-64 74q-5 7 3 7h45q10 0 13 -8z" />
    <glyph glyph-name="Iacute" unicode="&#xcd;" horiz-adv-x="290" 
d="M42 11v27q0 11 11 11h65v602h-65q-11 0 -11 11v27q0 11 11 11h184q11 0 11 -11v-27q0 -11 -11 -11h-65v-602h65q11 0 11 -11v-27q0 -11 -11 -11h-184q-11 0 -11 11zM117 751l44 73q3 8 13 8h45q8 0 3 -7l-64 -74q-4 -7 -15 -7h-21q-8 0 -5 7z" />
    <glyph glyph-name="Icircumflex" unicode="&#xce;" horiz-adv-x="290" 
d="M42 11v27q0 11 11 11h65v602h-65q-11 0 -11 11v27q0 11 11 11h184q11 0 11 -11v-27q0 -11 -11 -11h-65v-602h65q11 0 11 -11v-27q0 -11 -11 -11h-184q-11 0 -11 11zM173 826l55 -73q4 -7 -3 -7h-28q-8 0 -15 7l-37 50l-39 -50q-5 -7 -14 -7h-27q-7 0 -3 7l55 73q5 8 14 8
h28q9 0 14 -8z" />
    <glyph glyph-name="Idieresis" unicode="&#xcf;" horiz-adv-x="290" 
d="M42 11v27q0 11 11 11h65v602h-65q-11 0 -11 11v27q0 11 11 11h184q11 0 11 -11v-27q0 -11 -11 -11h-65v-602h65q11 0 11 -11v-27q0 -11 -11 -11h-184q-11 0 -11 11zM63 769v21q0 18 17 18h22q17 0 17 -18v-21q0 -17 -17 -17h-22q-17 0 -17 17zM173 769v21q0 18 18 18h21
q17 0 17 -18v-21q0 -17 -17 -17h-21q-18 0 -18 17z" />
    <glyph glyph-name="Eth" unicode="&#xd0;" horiz-adv-x="490" 
d="M268 339h-96v-286h139q28 0 45.5 17.5t17.5 46.5v466q0 29 -17.5 46.5t-45.5 17.5h-139v-263h96q11 0 11 -11v-23q0 -11 -11 -11zM74 384h44v267h-65q-11 0 -11 11v27q0 11 11 11h256q53 0 86 -32.5t33 -86.5v-462q0 -53 -33 -86t-86 -33h-256q-11 0 -11 11v27
q0 11 11 11h65v290h-44q-11 0 -11 11v23q0 11 11 11z" />
    <glyph glyph-name="Ntilde" unicode="&#xd1;" horiz-adv-x="537" 
d="M326 700h179q11 0 11 -11v-27q0 -11 -11 -11h-65v-640q0 -11 -12 -11h-22q-11 0 -16 10l-212 526q-5 11 -7 30l-4 -1q5 -23 5 -30v-486h60q11 0 11 -11v-27q0 -11 -11 -11h-179q-11 0 -11 11v27q0 11 11 11h65v602h-65q-11 0 -11 11v27q0 11 11 11h99q11 0 16 -10
l212 -528q1 -1 7 -30l4 1q-5 22 -5 30v488h-60q-11 0 -11 11v27q0 11 11 11zM351 808v-23q0 -13 -18 -21.5t-32 -8.5q-13 0 -23 5l-23 13q-7 4 -14 4q-13 0 -40 -20q-1 -1 -4 -1t-3 5v24q0 13 18.5 22t32.5 9q11 0 22 -6l24 -12q5 -4 13 -4q9 0 40 18q2 2 4 2q3 0 3 -6z" />
    <glyph glyph-name="Ograve" unicode="&#xd2;" horiz-adv-x="451" 
d="M116 587v-474q0 -29 17 -46t46 -17h93q28 0 45.5 17t17.5 46v474q0 29 -17.5 46.5t-45.5 17.5h-93q-28 0 -45.5 -17.5t-17.5 -46.5zM63 115v470q0 53 32.5 86t85.5 33h89q53 0 86 -33t33 -86v-470q0 -53 -33 -86t-86 -33h-89q-53 0 -85.5 33t-32.5 86zM210 824l44 -73
q4 -7 -5 -7h-21q-11 0 -15 7l-64 74q-5 7 3 7h45q10 0 13 -8z" />
    <glyph glyph-name="Oacute" unicode="&#xd3;" horiz-adv-x="451" 
d="M116 587v-474q0 -29 17 -46t46 -17h93q28 0 45.5 17t17.5 46v474q0 29 -17.5 46.5t-45.5 17.5h-93q-28 0 -45.5 -17.5t-17.5 -46.5zM63 115v470q0 53 32.5 86t85.5 33h89q53 0 86 -33t33 -86v-470q0 -53 -33 -86t-86 -33h-89q-53 0 -85.5 33t-32.5 86zM198 751l44 73
q3 8 13 8h45q8 0 3 -7l-64 -74q-4 -7 -15 -7h-22q-8 0 -4 7z" />
    <glyph glyph-name="Ocircumflex" unicode="&#xd4;" horiz-adv-x="451" 
d="M116 587v-474q0 -29 17 -46t46 -17h93q28 0 45.5 17t17.5 46v474q0 29 -17.5 46.5t-45.5 17.5h-93q-28 0 -45.5 -17.5t-17.5 -46.5zM63 115v470q0 53 32.5 86t85.5 33h89q53 0 86 -33t33 -86v-470q0 -53 -33 -86t-86 -33h-89q-53 0 -85.5 33t-32.5 86zM254 826l55 -73
q4 -7 -4 -7h-27q-8 0 -15 7l-37 50l-39 -50q-5 -7 -14 -7h-27q-7 0 -3 7l54 73q6 8 15 8h28q9 0 14 -8z" />
    <glyph glyph-name="Otilde" unicode="&#xd5;" horiz-adv-x="451" 
d="M116 587v-474q0 -29 17 -46t46 -17h93q28 0 45.5 17t17.5 46v474q0 29 -17.5 46.5t-45.5 17.5h-93q-28 0 -45.5 -17.5t-17.5 -46.5zM63 115v470q0 53 32.5 86t85.5 33h89q53 0 86 -33t33 -86v-470q0 -53 -33 -86t-86 -33h-89q-53 0 -85.5 33t-32.5 86zM144 761v24
q0 13 19 22t33 9q10 0 21 -6l24 -12q7 -4 14 -4q11 0 39 18l4 2q4 0 4 -6v-23q0 -13 -18.5 -21.5t-32.5 -8.5q-13 0 -22 5l-24 13q-5 4 -13 4q-12 0 -40 -20q-2 -1 -4 -1q-4 0 -4 5z" />
    <glyph glyph-name="Odieresis" unicode="&#xd6;" horiz-adv-x="451" 
d="M116 587v-474q0 -29 17 -46t46 -17h93q28 0 45.5 17t17.5 46v474q0 29 -17.5 46.5t-45.5 17.5h-93q-28 0 -45.5 -17.5t-17.5 -46.5zM63 115v470q0 53 32.5 86t85.5 33h89q53 0 86 -33t33 -86v-470q0 -53 -33 -86t-86 -33h-89q-53 0 -85.5 33t-32.5 86zM254 769v21
q0 18 18 18h21q17 0 17 -18v-21q0 -17 -17 -17h-21q-18 0 -18 17zM144 769v21q0 18 17 18h22q17 0 17 -18v-21q0 -17 -17 -17h-22q-17 0 -17 17z" />
    <glyph glyph-name="multiply" unicode="&#xd7;" horiz-adv-x="401" 
d="M201 315l-109 -109q-5 -3 -8 -3q-5 0 -8 3l-19 20q-8 7 0 15l109 109l-110 109q-9 9 0 16l19 19q4 4 8 4t8 -4l110 -109l109 109q4 4 8 4q5 0 8 -4l19 -18q8 -8 0 -16l-110 -110l109 -109q9 -7 0 -15l-19 -19q-3 -4 -7 -4q-5 0 -8 4z" />
    <glyph glyph-name="Oslash" unicode="&#xd8;" horiz-adv-x="451" 
d="M129 72l165 575q-14 4 -22 4h-93q-28 0 -45.5 -17.5t-17.5 -46.5v-474q0 -25 13 -41zM322 629l-164 -576q9 -3 21 -3h93q28 0 45.5 17t17.5 46v474q0 26 -13 42zM354 735l-15 -50q50 -32 50 -100v-470q0 -53 -33 -86t-86 -33h-89q-18 0 -38 5l-14 -46q-2 -5 -10 -5l-16 5
q-8 2 -6 10l15 50q-49 32 -49 100v470q0 53 32.5 86t85.5 33h89q19 0 39 -5l13 45q4 6 11 6l16 -4q7 -3 5 -11z" />
    <glyph glyph-name="Ugrave" unicode="&#xd9;" horiz-adv-x="498" 
d="M284 662v27q0 11 11 11h179q11 0 11 -11v-27q0 -11 -11 -11h-65v-536q0 -53 -33 -86t-86 -33h-82q-53 0 -85.5 33t-32.5 86v536h-66q-11 0 -11 11v27q0 11 11 11h179q12 0 12 -11v-27q0 -11 -12 -11h-60v-538q0 -29 17.5 -46t45.5 -17h86q28 0 45.5 17t17.5 46v538h-60
q-11 0 -11 11zM233 824l44 -73q5 -7 -4 -7h-22q-11 0 -15 7l-64 74q-5 7 4 7h45q9 0 12 -8z" />
    <glyph glyph-name="Uacute" unicode="&#xda;" horiz-adv-x="498" 
d="M284 662v27q0 11 11 11h179q11 0 11 -11v-27q0 -11 -11 -11h-65v-536q0 -53 -33 -86t-86 -33h-82q-53 0 -85.5 33t-32.5 86v536h-66q-11 0 -11 11v27q0 11 11 11h179q12 0 12 -11v-27q0 -11 -12 -11h-60v-538q0 -29 17.5 -46t45.5 -17h86q28 0 45.5 17t17.5 46v538h-60
q-11 0 -11 11zM221 751l44 73q5 8 13 8h45q10 0 3 -7l-63 -74q-6 -7 -16 -7h-21q-8 0 -5 7z" />
    <glyph glyph-name="Ucircumflex" unicode="&#xdb;" horiz-adv-x="498" 
d="M284 662v27q0 11 11 11h179q11 0 11 -11v-27q0 -11 -11 -11h-65v-536q0 -53 -33 -86t-86 -33h-82q-53 0 -85.5 33t-32.5 86v536h-66q-11 0 -11 11v27q0 11 11 11h179q12 0 12 -11v-27q0 -11 -12 -11h-60v-538q0 -29 17.5 -46t45.5 -17h86q28 0 45.5 17t17.5 46v538h-60
q-11 0 -11 11zM278 826l54 -73q4 -7 -3 -7h-28q-9 0 -14 7l-38 50l-38 -50q-7 -7 -15 -7h-26q-8 0 -4 7l55 73q5 8 14 8h28q9 0 15 -8z" />
    <glyph glyph-name="Udieresis" unicode="&#xdc;" horiz-adv-x="498" 
d="M284 662v27q0 11 11 11h179q11 0 11 -11v-27q0 -11 -11 -11h-65v-536q0 -53 -33 -86t-86 -33h-82q-53 0 -85.5 33t-32.5 86v536h-66q-11 0 -11 11v27q0 11 11 11h179q12 0 12 -11v-27q0 -11 -12 -11h-60v-538q0 -29 17.5 -46t45.5 -17h86q28 0 45.5 17t17.5 46v538h-60
q-11 0 -11 11zM167 769v21q0 18 18 18h21q17 0 17 -18v-21q0 -17 -17 -17h-21q-18 0 -18 17zM278 769v21q0 18 17 18h21q17 0 17 -18v-21q0 -17 -17 -17h-21q-17 0 -17 17z" />
    <glyph glyph-name="Yacute" unicode="&#xdd;" horiz-adv-x="487" 
d="M249 376l100 275h-42q-12 0 -12 11v27q0 11 12 11h159q11 0 11 -11v-27q0 -11 -11 -11h-62l-134 -369v-233h66q11 0 11 -11v-27q0 -11 -11 -11h-185q-11 0 -11 11v27q0 11 11 11h66v233l-135 369h-61q-11 0 -11 11v27q0 11 11 11h160q11 0 11 -11v-27q0 -11 -11 -11h-43
l100 -275q5 -15 5 -30h2q0 18 4 30zM216 751l44 73q3 8 12 8h46q8 0 3 -7l-64 -74q-4 -7 -15 -7h-22q-8 0 -4 7z" />
    <glyph glyph-name="Thorn" unicode="&#xde;" horiz-adv-x="453" 
d="M292 511h-120v-313h120q28 0 45.5 17t17.5 46v187q0 28 -17.5 45.5t-45.5 17.5zM245 38v-27q0 -11 -11 -11h-181q-11 0 -11 11v27q0 11 11 11h65v602h-65q-11 0 -11 11v27q0 11 11 11h181q11 0 11 -11v-27q0 -11 -11 -11h-62v-86h117q54 0 86.5 -33t32.5 -86v-183
q0 -53 -32.5 -86t-86.5 -33h-117v-95h62q11 0 11 -11z" />
    <glyph glyph-name="germandbls" unicode="&#xdf;" horiz-adv-x="431" 
d="M10 11v25q0 11 11 11h61v543q0 50 31 81t81 31h49q50 0 81 -29t31 -76v-92q0 -65 -49 -95q67 -24 67 -103v-199q0 -49 -31 -78.5t-81 -29.5h-58q-11 0 -11 11v27q0 11 11 11h56q30 0 46.5 17t16.5 47v201q0 30 -16.5 48.5t-46.5 18.5h-56q-11 0 -11 12v26q0 11 11 11h36
q30 0 47.5 18.5t17.5 49.5v94q0 28 -17 44.5t-46 16.5h-47q-28 0 -44.5 -17t-16.5 -44v-581q0 -11 -11 -11h-101q-11 0 -11 11z" />
    <glyph glyph-name="agrave" unicode="&#xe0;" horiz-adv-x="432" 
d="M293 100v161q-81 18 -119 18q-30 0 -49 -18.5t-19 -48.5v-110q0 -28 18 -44t44 -16q44 0 125 58zM344 47h58q11 0 11 -11v-25q0 -11 -11 -11h-98q-11 0 -11 11v35q-82 -53 -136 -53q-43 0 -72.5 30.5t-29.5 79.5v109q0 50 31 81.5t81 31.5q47 0 126 -17v129
q0 31 -17 49.5t-47 18.5h-55q-30 0 -46.5 -18.5t-16.5 -49.5v-26q0 -11 -11 -11h-29q-11 0 -11 11v30q0 51 31 82t81 31h59q51 0 82 -31t31 -82v-394zM192 674l43 -73q5 -7 -4 -7h-22q-9 0 -15 7l-63 74q-7 7 3 7h45q8 0 13 -8z" />
    <glyph glyph-name="aacute" unicode="&#xe1;" horiz-adv-x="432" 
d="M293 100v161q-81 18 -119 18q-30 0 -49 -18.5t-19 -48.5v-110q0 -28 18 -44t44 -16q44 0 125 58zM344 47h58q11 0 11 -11v-25q0 -11 -11 -11h-98q-11 0 -11 11v35q-82 -53 -136 -53q-43 0 -72.5 30.5t-29.5 79.5v109q0 50 31 81.5t81 31.5q47 0 126 -17v129
q0 31 -17 49.5t-47 18.5h-55q-30 0 -46.5 -18.5t-16.5 -49.5v-26q0 -11 -11 -11h-29q-11 0 -11 11v30q0 51 31 82t81 31h59q51 0 82 -31t31 -82v-394zM180 601l43 73q5 8 13 8h45q10 0 3 -7l-63 -74q-6 -7 -15 -7h-22q-9 0 -4 7z" />
    <glyph glyph-name="acircumflex" unicode="&#xe2;" horiz-adv-x="432" 
d="M293 100v161q-81 18 -119 18q-30 0 -49 -18.5t-19 -48.5v-110q0 -28 18 -44t44 -16q44 0 125 58zM344 47h58q11 0 11 -11v-25q0 -11 -11 -11h-98q-11 0 -11 11v35q-82 -53 -136 -53q-43 0 -72.5 30.5t-29.5 79.5v109q0 50 31 81.5t81 31.5q47 0 126 -17v129
q0 31 -17 49.5t-47 18.5h-55q-30 0 -46.5 -18.5t-16.5 -49.5v-26q0 -11 -11 -11h-29q-11 0 -11 11v30q0 51 31 82t81 31h59q51 0 82 -31t31 -82v-394zM236 676l54 -73q4 -7 -3 -7h-28q-9 0 -14 7l-38 50l-38 -50q-7 -7 -15 -7h-26q-8 0 -4 7l55 73q5 8 15 8h27q9 0 15 -8z
" />
    <glyph glyph-name="atilde" unicode="&#xe3;" horiz-adv-x="432" 
d="M293 100v161q-81 18 -119 18q-30 0 -49 -18.5t-19 -48.5v-110q0 -28 18 -44t44 -16q44 0 125 58zM344 47h58q11 0 11 -11v-25q0 -11 -11 -11h-98q-11 0 -11 11v35q-82 -53 -136 -53q-43 0 -72.5 30.5t-29.5 79.5v109q0 50 31 81.5t81 31.5q47 0 126 -17v129
q0 31 -17 49.5t-47 18.5h-55q-30 0 -46.5 -18.5t-16.5 -49.5v-26q0 -11 -11 -11h-29q-11 0 -11 11v30q0 51 31 82t81 31h59q51 0 82 -31t31 -82v-394zM126 611v24q0 13 18.5 22t32.5 9q11 0 22 -6l23 -12q7 -4 14 -4q11 0 39 18q4 2 5 2q3 0 3 -6v-23q0 -13 -18.5 -21.5
t-32.5 -8.5q-13 0 -22 5l-24 13q-5 4 -13 4q-13 0 -40 -20q-1 -1 -4 -1t-3 5z" />
    <glyph glyph-name="adieresis" unicode="&#xe4;" horiz-adv-x="432" 
d="M293 100v161q-81 18 -119 18q-30 0 -49 -18.5t-19 -48.5v-110q0 -28 18 -44t44 -16q44 0 125 58zM344 47h58q11 0 11 -11v-25q0 -11 -11 -11h-98q-11 0 -11 11v35q-82 -53 -136 -53q-43 0 -72.5 30.5t-29.5 79.5v109q0 50 31 81.5t81 31.5q47 0 126 -17v129
q0 31 -17 49.5t-47 18.5h-55q-30 0 -46.5 -18.5t-16.5 -49.5v-26q0 -11 -11 -11h-29q-11 0 -11 11v30q0 51 31 82t81 31h59q51 0 82 -31t31 -82v-394zM126 619v21q0 18 17 18h21q17 0 17 -18v-21q0 -17 -17 -17h-21q-17 0 -17 17zM236 619v21q0 18 17 18h21q18 0 18 -18v-21
q0 -17 -18 -17h-21q-17 0 -17 17z" />
    <glyph glyph-name="aring" unicode="&#xe5;" horiz-adv-x="432" 
d="M293 100v161q-81 18 -119 18q-30 0 -49 -18.5t-19 -48.5v-110q0 -28 18 -44t44 -16q44 0 125 58zM176 651q0 -13 9 -22t22 -9t22.5 9t9.5 22t-9.5 22.5t-22.5 9.5t-22 -9.5t-9 -22.5zM344 47h58q11 0 11 -11v-25q0 -11 -11 -11h-98q-11 0 -11 11v35q-82 -53 -136 -53
q-43 0 -72.5 30.5t-29.5 79.5v109q0 50 31 81.5t81 31.5q47 0 126 -17v129q0 31 -17 49.5t-47 18.5h-55q-30 0 -46.5 -18.5t-16.5 -49.5v-26q0 -11 -11 -11h-29q-11 0 -11 11v30q0 51 31 82t81 31h59q51 0 82 -31t31 -82v-394zM145 651q0 26 18 44.5t44 18.5t44.5 -18.5
t18.5 -44.5t-18.5 -44t-44.5 -18q-25 0 -43.5 18.5t-18.5 43.5z" />
    <glyph glyph-name="ae" unicode="&#xe6;" horiz-adv-x="628" 
d="M290 109v152q-81 18 -119 18q-30 0 -49 -18.5t-19 -48.5v-110q0 -28 18 -44t44 -16q47 0 125 58v9zM463 505h-61q-28 0 -44.5 -16.5t-16.5 -43.5v-147h184v147q0 27 -17 43.5t-45 16.5zM565 249h-224v-141q0 -29 16.5 -46t44.5 -17h61q28 0 45 17t17 45v34q0 12 11 12h29
q11 0 11 -12v-32q0 -51 -31 -82t-82 -31h-61q-70 0 -99 55q-87 -58 -146 -58q-44 0 -74.5 30.5t-30.5 79.5v109q0 50 31 81.5t81 31.5q47 0 126 -17v129q0 31 -17 49.5t-47 18.5h-55q-30 0 -46.5 -18.5t-16.5 -49.5v-26q0 -11 -11 -11h-29q-11 0 -11 11v30q0 51 31 82t81 31
h59q55 0 87 -37q32 37 87 37h61q51 0 82 -30.5t31 -80.5v-183q0 -11 -11 -11z" />
    <glyph glyph-name="ccedilla" unicode="&#xe7;" horiz-adv-x="383" 
d="M256 -77v-19q0 -19 -11.5 -30t-29.5 -11h-55q-9 0 -9 9v12q0 9 9 9h48q15 0 15 15v10q0 15 -15 15h-27q-16 0 -12 16l8 47h-7q-50 0 -81 31t-31 82v332q0 51 31 82t81 31h59q51 0 82 -31t31 -82v-41q0 -11 -12 -11h-28q-12 0 -12 11v43q0 28 -16.5 45t-44.5 17h-59
q-28 0 -44.5 -17t-16.5 -45v-336q0 -28 16.5 -45t44.5 -17h59q28 0 44.5 17t16.5 45v43q0 11 12 11h28q12 0 12 -11v-41q0 -51 -31 -82t-82 -31h-17l-6 -32h9q18 0 29.5 -11.5t11.5 -29.5z" />
    <glyph glyph-name="egrave" unicode="&#xe8;" horiz-adv-x="395" 
d="M231 505h-61q-28 0 -44.5 -16.5t-16.5 -43.5v-147h184v147q0 27 -17 43.5t-45 16.5zM333 249h-224v-141q0 -29 16.5 -46t44.5 -17h61q28 0 45 17t17 45v34q0 12 11 12h29q11 0 11 -12v-32q0 -51 -31 -82t-82 -31h-61q-50 0 -81 31t-31 82v332q0 51 31 82t81 31h61
q51 0 82 -30.5t31 -80.5v-183q0 -11 -11 -11zM185 674l44 -73q3 -7 -5 -7h-21q-11 0 -15 7l-64 74q-5 7 3 7h45q10 0 13 -8z" />
    <glyph glyph-name="eacute" unicode="&#xe9;" horiz-adv-x="395" 
d="M231 505h-61q-28 0 -44.5 -16.5t-16.5 -43.5v-147h184v147q0 27 -17 43.5t-45 16.5zM333 249h-224v-141q0 -29 16.5 -46t44.5 -17h61q28 0 45 17t17 45v34q0 12 11 12h29q11 0 11 -12v-32q0 -51 -31 -82t-82 -31h-61q-50 0 -81 31t-31 82v332q0 51 31 82t81 31h61
q51 0 82 -30.5t31 -80.5v-183q0 -11 -11 -11zM173 601l44 73q3 8 13 8h45q8 0 3 -7l-64 -74q-4 -7 -15 -7h-22q-7 0 -4 7z" />
    <glyph glyph-name="ecircumflex" unicode="&#xea;" horiz-adv-x="395" 
d="M231 505h-61q-28 0 -44.5 -16.5t-16.5 -43.5v-147h184v147q0 27 -17 43.5t-45 16.5zM333 249h-224v-141q0 -29 16.5 -46t44.5 -17h61q28 0 45 17t17 45v34q0 12 11 12h29q11 0 11 -12v-32q0 -51 -31 -82t-82 -31h-61q-50 0 -81 31t-31 82v332q0 51 31 82t81 31h61
q51 0 82 -30.5t31 -80.5v-183q0 -11 -11 -11zM229 676l55 -73q4 -7 -4 -7h-27q-8 0 -15 7l-37 50l-39 -50q-5 -7 -14 -7h-27q-7 0 -3 7l54 73q6 8 15 8h28q9 0 14 -8z" />
    <glyph glyph-name="edieresis" unicode="&#xeb;" horiz-adv-x="395" 
d="M231 505h-61q-28 0 -44.5 -16.5t-16.5 -43.5v-147h184v147q0 27 -17 43.5t-45 16.5zM333 249h-224v-141q0 -29 16.5 -46t44.5 -17h61q28 0 45 17t17 45v34q0 12 11 12h29q11 0 11 -12v-32q0 -51 -31 -82t-82 -31h-61q-50 0 -81 31t-31 82v332q0 51 31 82t81 31h61
q51 0 82 -30.5t31 -80.5v-183q0 -11 -11 -11zM119 619v21q0 18 17 18h22q17 0 17 -18v-21q0 -17 -17 -17h-22q-17 0 -17 17zM229 619v21q0 18 18 18h21q17 0 17 -18v-21q0 -17 -17 -17h-21q-18 0 -18 17z" />
    <glyph glyph-name="igrave" unicode="&#xec;" horiz-adv-x="250" 
d="M95 674l44 -73q3 -7 -5 -7h-21q-11 0 -15 7l-64 74q-5 7 3 7h45q10 0 13 -8zM37 514v25q0 11 11 11h100q12 0 12 -11v-492h60q11 0 11 -11v-25q0 -11 -11 -11h-172q-11 0 -11 11v25q0 11 11 11h60v456h-60q-11 0 -11 11z" />
    <glyph glyph-name="iacute" unicode="&#xed;" horiz-adv-x="250" 
d="M83 601l44 73q3 8 13 8h45q8 0 3 -7l-64 -74q-4 -7 -15 -7h-22q-7 0 -4 7zM37 514v25q0 11 11 11h100q12 0 12 -11v-492h60q11 0 11 -11v-25q0 -11 -11 -11h-172q-11 0 -11 11v25q0 11 11 11h60v456h-60q-11 0 -11 11z" />
    <glyph glyph-name="icircumflex" unicode="&#xee;" horiz-adv-x="250" 
d="M139 676l55 -73q4 -7 -4 -7h-27q-8 0 -15 7l-37 50l-39 -50q-5 -7 -14 -7h-27q-7 0 -3 7l54 73q6 8 15 8h28q9 0 14 -8zM37 514v25q0 11 11 11h100q12 0 12 -11v-492h60q11 0 11 -11v-25q0 -11 -11 -11h-172q-11 0 -11 11v25q0 11 11 11h60v456h-60q-11 0 -11 11z" />
    <glyph glyph-name="idieresis" unicode="&#xef;" horiz-adv-x="250" 
d="M139 619v21q0 18 18 18h21q17 0 17 -18v-21q0 -17 -17 -17h-21q-18 0 -18 17zM29 619v21q0 18 17 18h22q17 0 17 -18v-21q0 -17 -17 -17h-22q-17 0 -17 17zM37 514v25q0 11 11 11h100q12 0 12 -11v-492h60q11 0 11 -11v-25q0 -11 -11 -11h-172q-11 0 -11 11v25
q0 11 11 11h60v456h-60q-11 0 -11 11z" />
    <glyph glyph-name="eth" unicode="&#xf0;" horiz-adv-x="416" 
d="M308 113v335q-84 56 -129 56q-27 0 -44.5 -17t-17.5 -47v-327q0 -31 16.5 -49.5t46.5 -18.5h64q30 0 47 18.5t17 49.5zM308 502v45q0 68 -66 86l-19 -43q-3 -8 -10 -8q-3 0 -4 1l-18 6q-11 3 -7 14l17 39l-77 16q-18 3 -18 13v24q0 10 13 10q4 0 6 -1l91 -18l20 44
q2 8 10 8q2 0 4 -1l17 -6q11 -3 7 -14l-17 -39q102 -27 102 -136v-433q0 -51 -31 -82t-82 -31h-68q-51 0 -82 31t-31 82v332q0 49 29.5 80.5t72.5 31.5q55 0 141 -51z" />
    <glyph glyph-name="ntilde" unicode="&#xf1;" horiz-adv-x="496" 
d="M214 0h-166q-11 0 -11 11v25q0 11 11 11h60v456h-60q-11 0 -11 11v25q0 11 11 11h100q12 0 12 -11v-39q85 57 144 57q44 0 73 -31.5t29 -81.5v-397h60q12 0 12 -11v-25q0 -11 -12 -11h-166q-12 0 -12 11v25q0 11 12 11h55v397q0 30 -17.5 47t-44.5 17q-53 0 -133 -63
v-398h54q11 0 11 -11v-25q0 -11 -11 -11zM169 611v24q0 13 18.5 22t32.5 9q12 0 22 -6l23 -12q7 -4 14 -4q11 0 39 18l4 2q4 0 4 -6v-23q0 -13 -18.5 -21.5t-32.5 -8.5q-13 0 -22 5l-24 13q-5 4 -13 4q-12 0 -40 -20q-1 -1 -4 -1t-3 5z" />
    <glyph glyph-name="ograve" unicode="&#xf2;" horiz-adv-x="411" 
d="M109 443v-336q0 -28 16.5 -45t44.5 -17h71q28 0 45 17t17 45v336q0 28 -17 45t-45 17h-71q-28 0 -44.5 -17t-16.5 -45zM58 109v332q0 51 31 82t81 31h71q51 0 82 -31t31 -82v-332q0 -51 -31 -82t-82 -31h-71q-50 0 -81 31t-31 82zM190 674l44 -73q4 -7 -5 -7h-21
q-11 0 -15 7l-64 74q-5 7 3 7h45q10 0 13 -8z" />
    <glyph glyph-name="oacute" unicode="&#xf3;" horiz-adv-x="411" 
d="M109 443v-336q0 -28 16.5 -45t44.5 -17h71q28 0 45 17t17 45v336q0 28 -17 45t-45 17h-71q-28 0 -44.5 -17t-16.5 -45zM58 109v332q0 51 31 82t81 31h71q51 0 82 -31t31 -82v-332q0 -51 -31 -82t-82 -31h-71q-50 0 -81 31t-31 82zM178 601l44 73q3 8 13 8h45q8 0 3 -7
l-64 -74q-4 -7 -15 -7h-22q-8 0 -4 7z" />
    <glyph glyph-name="ocircumflex" unicode="&#xf4;" horiz-adv-x="411" 
d="M109 443v-336q0 -28 16.5 -45t44.5 -17h71q28 0 45 17t17 45v336q0 28 -17 45t-45 17h-71q-28 0 -44.5 -17t-16.5 -45zM58 109v332q0 51 31 82t81 31h71q51 0 82 -31t31 -82v-332q0 -51 -31 -82t-82 -31h-71q-50 0 -81 31t-31 82zM234 676l55 -73q4 -7 -4 -7h-27
q-8 0 -15 7l-37 50l-39 -50q-5 -7 -14 -7h-27q-7 0 -3 7l54 73q6 8 15 8h28q9 0 14 -8z" />
    <glyph glyph-name="otilde" unicode="&#xf5;" horiz-adv-x="411" 
d="M109 443v-336q0 -28 16.5 -45t44.5 -17h71q28 0 45 17t17 45v336q0 28 -17 45t-45 17h-71q-28 0 -44.5 -17t-16.5 -45zM58 109v332q0 51 31 82t81 31h71q51 0 82 -31t31 -82v-332q0 -51 -31 -82t-82 -31h-71q-50 0 -81 31t-31 82zM124 611v24q0 13 19 22t33 9q10 0 21 -6
l24 -12q7 -4 14 -4q11 0 39 18l4 2q4 0 4 -6v-23q0 -13 -18.5 -21.5t-32.5 -8.5q-13 0 -22 5l-24 13q-5 4 -13 4q-12 0 -40 -20q-2 -1 -4 -1q-4 0 -4 5z" />
    <glyph glyph-name="odieresis" unicode="&#xf6;" horiz-adv-x="411" 
d="M109 443v-336q0 -28 16.5 -45t44.5 -17h71q28 0 45 17t17 45v336q0 28 -17 45t-45 17h-71q-28 0 -44.5 -17t-16.5 -45zM58 109v332q0 51 31 82t81 31h71q51 0 82 -31t31 -82v-332q0 -51 -31 -82t-82 -31h-71q-50 0 -81 31t-31 82zM234 619v21q0 18 18 18h21q17 0 17 -18
v-21q0 -17 -17 -17h-21q-18 0 -18 17zM124 619v21q0 18 17 18h22q17 0 17 -18v-21q0 -17 -17 -17h-22q-17 0 -17 17z" />
    <glyph glyph-name="divide" unicode="&#xf7;" horiz-adv-x="401" 
d="M50 339v26q0 12 11 12h279q11 0 11 -12v-26q0 -11 -11 -11h-279q-11 0 -11 11zM165 491v39q0 17 18 17h37q17 0 17 -17v-39q0 -18 -17 -18h-37q-18 0 -18 18zM165 175v39q0 17 16 17h38q17 0 17 -17v-39q0 -17 -17 -17h-38q-16 0 -16 17z" />
    <glyph glyph-name="oslash" unicode="&#xf8;" horiz-adv-x="411" 
d="M119 70l149 430q-13 5 -27 5h-71q-28 0 -44.5 -17t-16.5 -45v-336q0 -23 10 -37zM292 480l-149 -430q13 -5 27 -5h71q28 0 45 17t17 45v336q0 21 -11 37zM82 -35l18 52q-42 30 -42 92v332q0 51 31 82t81 31h71q19 0 44 -7l16 48q2 5 10 5l13 -4q7 -3 5 -10l-18 -53
q43 -30 43 -92v-332q0 -51 -31 -82t-82 -31h-71q-20 0 -43 7l-17 -48q-2 -5 -10 -5l-12 5q-8 2 -6 10z" />
    <glyph glyph-name="ugrave" unicode="&#xf9;" horiz-adv-x="482" 
d="M340 11v42q-86 -60 -146 -60q-43 0 -72 31.5t-29 81.5v397h-61q-11 0 -11 11v25q0 11 11 11h101q11 0 11 -11v-433q0 -30 17.5 -47t44.5 -17q52 0 134 66v395h-57q-11 0 -11 11v25q0 11 11 11h97q12 0 12 -11v-492h60q11 0 11 -11v-25q0 -11 -11 -11h-100q-12 0 -12 11z
M213 601l-63 74q-7 7 3 7h45q8 0 13 -8l43 -73q5 -7 -4 -7h-22q-9 0 -15 7z" />
    <glyph glyph-name="uacute" unicode="&#xfa;" horiz-adv-x="482" 
d="M340 11v42q-86 -60 -146 -60q-43 0 -72 31.5t-29 81.5v397h-61q-11 0 -11 11v25q0 11 11 11h101q11 0 11 -11v-433q0 -30 17.5 -47t44.5 -17q52 0 134 66v395h-57q-11 0 -11 11v25q0 11 11 11h97q12 0 12 -11v-492h60q11 0 11 -11v-25q0 -11 -11 -11h-100q-12 0 -12 11z
M224 594h-21q-9 0 -5 7l44 73q5 8 13 8h45q10 0 3 -7l-63 -74q-6 -7 -16 -7z" />
    <glyph glyph-name="ucircumflex" unicode="&#xfb;" horiz-adv-x="482" 
d="M340 108v395h-57q-11 0 -11 11v25q0 11 11 11h97q12 0 12 -11v-492h60q11 0 11 -11v-25q0 -11 -11 -11h-100q-12 0 -12 11v42q-86 -60 -146 -60q-43 0 -72 31.5t-29 81.5v397h-61q-11 0 -11 11v25q0 11 11 11h101q11 0 11 -11v-433q0 -30 17.5 -47t44.5 -17q52 0 134 66z
M173 596h-26q-8 0 -4 7l55 73q5 8 14 8h28q9 0 15 -8l54 -73q4 -7 -3 -7h-28q-9 0 -14 7l-38 50l-38 -50q-7 -7 -15 -7z" />
    <glyph glyph-name="udieresis" unicode="&#xfc;" horiz-adv-x="482" 
d="M272 514v25q0 11 11 11h97q12 0 12 -11v-492h60q11 0 11 -11v-25q0 -11 -11 -11h-100q-12 0 -12 11v42q-86 -60 -146 -60q-43 0 -72 31.5t-29 81.5v397h-61q-11 0 -11 11v25q0 11 11 11h101q11 0 11 -11v-433q0 -30 17.5 -47t44.5 -17q52 0 134 66v395h-57q-11 0 -11 11z
M145 619v21q0 18 17 18h21q17 0 17 -18v-21q0 -17 -17 -17h-21q-17 0 -17 17zM255 619v21q0 18 17 18h21q18 0 18 -18v-21q0 -17 -18 -17h-21q-17 0 -17 17z" />
    <glyph glyph-name="yacute" unicode="&#xfd;" horiz-adv-x="458" 
d="M178 503h-47l94 -387q3 -10 3 -33h2q0 18 3 33l94 387h-46q-12 0 -12 11v25q0 11 12 11h156q11 0 11 -11v-25q0 -11 -11 -11h-58l-159 -642q-3 -11 -14 -11h-94q-12 0 -12 11v25q0 11 12 11h67l26 104l-126 502h-58q-11 0 -11 11v25q0 11 11 11h157q11 0 11 -11v-25
q0 -11 -11 -11zM227 616h-21q-8 0 -5 7l44 73q3 8 13 8h45q10 0 3 -7l-63 -74q-7 -7 -16 -7z" />
    <glyph glyph-name="thorn" unicode="&#xfe;" horiz-adv-x="445" 
d="M142 445v-340q80 -63 132 -63q27 0 44.5 17t17.5 47v338q0 30 -17.5 47t-44.5 17q-52 0 -132 -63zM218 -114v-25q0 -11 -12 -11h-176q-11 0 -11 11v25q0 11 11 11h60v756h-60q-11 0 -11 11v25q0 11 11 11h100q12 0 12 -11v-189q85 57 144 57q43 0 72.5 -31.5t29.5 -81.5
v-338q0 -50 -29.5 -81.5t-72.5 -31.5q-58 0 -144 57v-153h64q12 0 12 -11z" />
    <glyph glyph-name="ydieresis" unicode="&#xff;" horiz-adv-x="458" 
d="M178 503h-47l94 -387q3 -10 3 -33h2q0 18 3 33l94 387h-46q-12 0 -12 11v25q0 11 12 11h156q11 0 11 -11v-25q0 -11 -11 -11h-58l-159 -642q-3 -11 -14 -11h-94q-12 0 -12 11v25q0 11 12 11h67l26 104l-126 502h-58q-11 0 -11 11v25q0 11 11 11h157q11 0 11 -11v-25
q0 -11 -11 -11zM147 641v22q0 17 18 17h21q17 0 17 -17v-22q0 -17 -17 -17h-21q-18 0 -18 17zM258 641v22q0 17 17 17h21q17 0 17 -17v-22q0 -17 -17 -17h-21q-17 0 -17 17z" />
    <glyph glyph-name="Amacron" unicode="&#x100;" horiz-adv-x="517" 
d="M172 203h174l-84 369q-2 9 -2 30h-2q0 -21 -2 -30zM358 153h-198l-23 -104h49q11 0 11 -11v-27q0 -11 -11 -11h-165q-11 0 -11 11v27q0 11 11 11h61l152 640q2 11 14 11h22q11 0 14 -11l152 -640h60q11 0 11 -11v-27q0 -11 -11 -11h-163q-12 0 -12 11v27q0 11 12 11h48z
M178 770v20q0 10 9 10h140q9 0 9 -10v-20q0 -9 -9 -9h-140q-9 0 -9 9z" />
    <glyph glyph-name="amacron" unicode="&#x101;" horiz-adv-x="432" 
d="M293 100v161q-81 18 -119 18q-30 0 -49 -18.5t-19 -48.5v-110q0 -28 18 -44t44 -16q44 0 125 58zM344 47h58q11 0 11 -11v-25q0 -11 -11 -11h-98q-11 0 -11 11v35q-82 -53 -136 -53q-43 0 -72.5 30.5t-29.5 79.5v109q0 50 31 81.5t81 31.5q47 0 126 -17v129
q0 31 -17 49.5t-47 18.5h-55q-30 0 -46.5 -18.5t-16.5 -49.5v-26q0 -11 -11 -11h-29q-11 0 -11 11v30q0 51 31 82t81 31h59q51 0 82 -31t31 -82v-394zM128 620v20q0 10 9 10h140q9 0 9 -10v-20q0 -9 -9 -9h-140q-9 0 -9 9z" />
    <glyph glyph-name="Abreve" unicode="&#x102;" horiz-adv-x="517" 
d="M172 203h174l-84 369q-2 9 -2 30h-2q0 -21 -2 -30zM358 153h-198l-23 -104h49q11 0 11 -11v-27q0 -11 -11 -11h-165q-11 0 -11 11v27q0 11 11 11h61l152 640q2 11 14 11h22q11 0 14 -11l152 -640h60q11 0 11 -11v-27q0 -11 -11 -11h-163q-12 0 -12 11v27q0 11 12 11h48z
M339 814v-8q-1 -28 -18.5 -45t-45.5 -17h-36q-28 0 -45.5 17t-18.5 45v8q0 9 9 9h20q8 0 10 -9l1 -12q2 -22 24 -22h36q22 0 24 22l1 12q2 9 10 9h20q9 0 9 -9z" />
    <glyph glyph-name="abreve" unicode="&#x103;" horiz-adv-x="432" 
d="M293 100v161q-81 18 -119 18q-30 0 -49 -18.5t-19 -48.5v-110q0 -28 18 -44t44 -16q44 0 125 58zM344 47h58q11 0 11 -11v-25q0 -11 -11 -11h-98q-11 0 -11 11v35q-82 -53 -136 -53q-43 0 -72.5 30.5t-29.5 79.5v109q0 50 31 81.5t81 31.5q47 0 126 -17v129
q0 31 -17 49.5t-47 18.5h-55q-30 0 -46.5 -18.5t-16.5 -49.5v-26q0 -11 -11 -11h-29q-11 0 -11 11v30q0 51 31 82t81 31h59q51 0 82 -31t31 -82v-394zM289 664v-8q-1 -28 -18.5 -45t-45.5 -17h-36q-28 0 -45.5 17t-18.5 45v8q0 9 9 9h20q8 0 10 -9l1 -12q2 -22 24 -22h36
q22 0 24 22l1 12q2 9 10 9h20q9 0 9 -9z" />
    <glyph glyph-name="Aogonek" unicode="&#x104;" horiz-adv-x="517" 
d="M172 203h174l-84 369q-2 9 -2 30h-2q0 -21 -2 -30zM380 -85q0 47 31 85h-78q-12 0 -12 11v27q0 11 12 11h48l-23 104h-198l-23 -104h49q11 0 11 -11v-27q0 -11 -11 -11h-165q-11 0 -11 11v27q0 11 11 11h61l152 640q2 11 14 11h22q11 0 14 -11l152 -640h60q11 0 11 -11
v-27q0 -11 -11 -11h-51q-29 -43 -31 -75q-2 -17 13 -17h43q9 0 9 -9v-14q0 -9 -9 -9h-52q-17 0 -27.5 11t-10.5 28z" />
    <glyph glyph-name="aogonek" unicode="&#x105;" horiz-adv-x="432" 
d="M293 100v161q-81 18 -119 18q-30 0 -49 -18.5t-19 -48.5v-110q0 -28 18 -44t44 -16q44 0 125 58zM312 -84q0 46 30 84h-38q-11 0 -11 11v35q-82 -53 -136 -53q-43 0 -72.5 30.5t-29.5 79.5v109q0 50 31 81.5t81 31.5q47 0 126 -17v129q0 31 -17 49.5t-47 18.5h-55
q-30 0 -46.5 -18.5t-16.5 -49.5v-26q0 -11 -11 -11h-29q-11 0 -11 11v30q0 51 31 82t81 31h59q51 0 82 -31t31 -82v-394h58q11 0 11 -11v-25q0 -11 -11 -11h-26q-27 -40 -30 -74q-2 -17 13 -17h43q9 0 9 -9v-14q0 -9 -9 -9h-51q-18 0 -28.5 11t-10.5 28z" />
    <glyph glyph-name="Cacute" unicode="&#x106;" horiz-adv-x="423" 
d="M332 197h31q11 0 11 -12v-70q0 -53 -33 -86t-86 -33h-74q-53 0 -85.5 33t-32.5 86v470q0 53 32.5 86t85.5 33h74q53 0 86 -33t33 -86v-70q0 -12 -11 -12h-31q-12 0 -12 12v72q0 29 -17.5 46.5t-45.5 17.5h-78q-28 0 -45.5 -17.5t-17.5 -46.5v-474q0 -29 17 -46t46 -17h78
q29 0 46 17t17 46v72q0 12 12 12zM191 751l43 73q5 8 13 8h45q10 0 3 -7l-63 -74q-6 -7 -15 -7h-22q-9 0 -4 7z" />
    <glyph glyph-name="cacute" unicode="&#x107;" horiz-adv-x="383" 
d="M170 45h59q28 0 44.5 17t16.5 45v43q0 11 12 11h28q12 0 12 -11v-41q0 -51 -31 -82t-82 -31h-59q-50 0 -81 31t-31 82v332q0 51 31 82t81 31h59q51 0 82 -31t31 -82v-41q0 -11 -12 -11h-28q-12 0 -12 11v43q0 28 -16.5 45t-44.5 17h-59q-28 0 -44.5 -17t-16.5 -45v-336
q0 -28 16.5 -45t44.5 -17zM172 601l44 73q3 8 13 8h45q10 0 3 -7l-63 -74q-6 -7 -16 -7h-21q-9 0 -5 7z" />
    <glyph glyph-name="Ccircumflex" unicode="&#x108;" horiz-adv-x="423" 
d="M332 197h31q11 0 11 -12v-70q0 -53 -33 -86t-86 -33h-74q-53 0 -85.5 33t-32.5 86v470q0 53 32.5 86t85.5 33h74q53 0 86 -33t33 -86v-70q0 -12 -11 -12h-31q-12 0 -12 12v72q0 29 -17.5 46.5t-45.5 17.5h-78q-28 0 -45.5 -17.5t-17.5 -46.5v-474q0 -29 17 -46t46 -17h78
q29 0 46 17t17 46v72q0 12 12 12zM247 826l54 -73q4 -7 -3 -7h-28q-9 0 -14 7l-38 50l-38 -50q-7 -7 -15 -7h-26q-8 0 -4 7l55 73q5 8 15 8h27q9 0 15 -8z" />
    <glyph glyph-name="ccircumflex" unicode="&#x109;" horiz-adv-x="383" 
d="M170 45h59q28 0 44.5 17t16.5 45v43q0 11 12 11h28q12 0 12 -11v-41q0 -51 -31 -82t-82 -31h-59q-50 0 -81 31t-31 82v332q0 51 31 82t81 31h59q51 0 82 -31t31 -82v-41q0 -11 -12 -11h-28q-12 0 -12 11v43q0 28 -16.5 45t-44.5 17h-59q-28 0 -44.5 -17t-16.5 -45v-336
q0 -28 16.5 -45t44.5 -17zM228 676l55 -73q4 -7 -3 -7h-28q-9 0 -14 7l-38 50l-38 -50q-7 -7 -15 -7h-27q-7 0 -3 7l55 73q5 8 14 8h28q9 0 14 -8z" />
    <glyph glyph-name="Cdotaccent" unicode="&#x10a;" horiz-adv-x="423" 
d="M332 197h31q11 0 11 -12v-70q0 -53 -33 -86t-86 -33h-74q-53 0 -85.5 33t-32.5 86v470q0 53 32.5 86t85.5 33h74q53 0 86 -33t33 -86v-70q0 -12 -11 -12h-31q-12 0 -12 12v72q0 29 -17.5 46.5t-45.5 17.5h-78q-28 0 -45.5 -17.5t-17.5 -46.5v-474q0 -29 17 -46t46 -17h78
q29 0 46 17t17 46v72q0 12 12 12zM187 769v26q0 17 17 17h28q17 0 17 -17v-26q0 -17 -17 -17h-28q-17 0 -17 17z" />
    <glyph glyph-name="cdotaccent" unicode="&#x10b;" horiz-adv-x="383" 
d="M170 45h59q28 0 44.5 17t16.5 45v43q0 11 12 11h28q12 0 12 -11v-41q0 -51 -31 -82t-82 -31h-59q-50 0 -81 31t-31 82v332q0 51 31 82t81 31h59q51 0 82 -31t31 -82v-41q0 -11 -12 -11h-28q-12 0 -12 11v43q0 28 -16.5 45t-44.5 17h-59q-28 0 -44.5 -17t-16.5 -45v-336
q0 -28 16.5 -45t44.5 -17zM169 619v26q0 17 17 17h28q17 0 17 -17v-26q0 -17 -17 -17h-28q-17 0 -17 17z" />
    <glyph glyph-name="Ccaron" unicode="&#x10c;" horiz-adv-x="423" 
d="M332 197h31q11 0 11 -12v-70q0 -53 -33 -86t-86 -33h-74q-53 0 -85.5 33t-32.5 86v470q0 53 32.5 86t85.5 33h74q53 0 86 -33t33 -86v-70q0 -12 -11 -12h-31q-12 0 -12 12v72q0 29 -17.5 46.5t-45.5 17.5h-78q-28 0 -45.5 -17.5t-17.5 -46.5v-474q0 -29 17 -46t46 -17h78
q29 0 46 17t17 46v72q0 12 12 12zM301 827l-54 -74q-7 -7 -15 -7h-27q-10 0 -15 7l-55 74q-5 7 4 7h26q9 0 15 -8l38 -50l38 50q5 8 14 8h28q8 0 3 -7z" />
    <glyph glyph-name="ccaron" unicode="&#x10d;" horiz-adv-x="383" 
d="M170 45h59q28 0 44.5 17t16.5 45v43q0 11 12 11h28q12 0 12 -11v-41q0 -51 -31 -82t-82 -31h-59q-50 0 -81 31t-31 82v332q0 51 31 82t81 31h59q51 0 82 -31t31 -82v-41q0 -11 -12 -11h-28q-12 0 -12 11v43q0 28 -16.5 45t-44.5 17h-59q-28 0 -44.5 -17t-16.5 -45v-336
q0 -28 16.5 -45t44.5 -17zM283 677l-55 -74q-5 -7 -14 -7h-28q-9 0 -14 7l-55 74q-5 7 3 7h27q9 0 15 -8l38 -50l38 50q5 8 14 8h28q8 0 3 -7z" />
    <glyph glyph-name="Dcaron" unicode="&#x10e;" horiz-adv-x="490" 
d="M172 647v-594h139q28 0 45.5 17.5t17.5 46.5v466q0 29 -17.5 46.5t-45.5 17.5h-139zM53 700h256q53 0 86 -32.5t33 -86.5v-462q0 -53 -33 -86t-86 -33h-256q-11 0 -11 11v27q0 11 11 11h65v602h-65q-11 0 -11 11v27q0 11 11 11zM190 826l39 -50l37 50q5 8 14 8h28
q8 0 4 -7l-55 -74q-5 -7 -15 -7h-27q-10 0 -15 7l-55 74q-5 7 4 7h26q10 0 15 -8z" />
    <glyph glyph-name="dcaron" unicode="&#x10f;" horiz-adv-x="466" 
d="M303 105v340q-80 63 -132 63q-27 0 -44.5 -17t-17.5 -47v-338q0 -30 17.5 -47t44.5 -17q52 0 132 63zM355 47h58q11 0 11 -11v-25q0 -11 -11 -11h-98q-12 0 -12 11v39q-85 -57 -144 -57q-43 0 -72 31.5t-29 81.5v338q0 50 29 81.5t72 31.5q59 0 144 -57v153h-60
q-11 0 -11 11v25q0 11 11 11h100q12 0 12 -11v-642zM407 598l13 89q2 13 14 13h28q12 0 9 -13l-26 -89q-3 -10 -14 -10h-15q-11 0 -9 10z" />
    <glyph glyph-name="Dcroat" unicode="&#x110;" horiz-adv-x="490" 
d="M268 339h-96v-286h139q28 0 45.5 17.5t17.5 46.5v466q0 29 -17.5 46.5t-45.5 17.5h-139v-263h96q11 0 11 -11v-23q0 -11 -11 -11zM74 384h44v267h-65q-11 0 -11 11v27q0 11 11 11h256q53 0 86 -32.5t33 -86.5v-462q0 -53 -33 -86t-86 -33h-256q-11 0 -11 11v27
q0 11 11 11h65v290h-44q-11 0 -11 11v23q0 11 11 11z" />
    <glyph glyph-name="dcroat" unicode="&#x111;" horiz-adv-x="443" 
d="M303 105v340q-80 63 -132 63q-27 0 -44.5 -17t-17.5 -47v-338q0 -30 17.5 -47t44.5 -17q52 0 132 63zM186 609v22q0 9 9 9h108v49q0 11 12 11h28q12 0 12 -11v-49h52q9 0 9 -9v-22q0 -9 -9 -9h-52v-553h58q11 0 11 -11v-25q0 -11 -11 -11h-98q-12 0 -12 11v39
q-85 -57 -144 -57q-43 0 -72 31.5t-29 81.5v338q0 50 29 81.5t72 31.5q59 0 144 -57v100h-108q-9 0 -9 9z" />
    <glyph glyph-name="Emacron" unicode="&#x112;" 
d="M53 700h329q11 0 11 -11v-128q0 -11 -11 -11h-27q-11 0 -11 11v86h-172v-296h144q11 0 11 -11v-31q0 -11 -11 -11h-144v-245h172v86q0 11 11 11h27q11 0 11 -11v-128q0 -11 -11 -11h-329q-11 0 -11 11v27q0 11 11 11h65v602h-65q-11 0 -11 11v27q0 11 11 11zM309 790v-20
q0 -9 -9 -9h-140q-9 0 -9 9v20q0 10 9 10h140q9 0 9 -10z" />
    <glyph glyph-name="emacron" unicode="&#x113;" horiz-adv-x="395" 
d="M231 505h-61q-28 0 -44.5 -16.5t-16.5 -43.5v-147h184v147q0 27 -17 43.5t-45 16.5zM333 249h-224v-141q0 -29 16.5 -46t44.5 -17h61q28 0 45 17t17 45v34q0 12 11 12h29q11 0 11 -12v-32q0 -51 -31 -82t-82 -31h-61q-50 0 -81 31t-31 82v332q0 51 31 82t81 31h61
q51 0 82 -30.5t31 -80.5v-183q0 -11 -11 -11zM121 620v20q0 10 10 10h140q9 0 9 -10v-20q0 -9 -9 -9h-140q-10 0 -10 9z" />
    <glyph glyph-name="Ebreve" unicode="&#x114;" 
d="M344 561v86h-172v-296h144q11 0 11 -11v-31q0 -11 -11 -11h-144v-245h172v86q0 11 11 11h27q11 0 11 -11v-128q0 -11 -11 -11h-329q-11 0 -11 11v27q0 11 11 11h65v602h-65q-11 0 -11 11v27q0 11 11 11h329q11 0 11 -11v-128q0 -11 -11 -11h-27q-11 0 -11 11zM287 823h20
q9 0 9 -9v-8q-1 -28 -18.5 -45t-45.5 -17h-36q-28 0 -45.5 17t-18.5 45v8q0 9 9 9h20q9 0 10 -9l1 -12q2 -22 24 -22h36q22 0 24 22l1 12q1 9 10 9z" />
    <glyph glyph-name="ebreve" unicode="&#x115;" horiz-adv-x="395" 
d="M231 505h-61q-28 0 -44.5 -16.5t-16.5 -43.5v-147h184v147q0 27 -17 43.5t-45 16.5zM333 249h-224v-141q0 -29 16.5 -46t44.5 -17h61q28 0 45 17t17 45v34q0 12 11 12h29q11 0 11 -12v-32q0 -51 -31 -82t-82 -31h-61q-50 0 -81 31t-31 82v332q0 51 31 82t81 31h61
q51 0 82 -30.5t31 -80.5v-183q0 -11 -11 -11zM283 664l-1 -8q-1 -28 -18.5 -45t-45.5 -17h-31q-28 0 -45.5 17t-18.5 45l-1 8q0 9 9 9h18q10 0 10 -9l2 -12q0 -10 6.5 -16t16.5 -6h37q10 0 16.5 6t6.5 16l2 12q0 9 10 9h18q9 0 9 -9z" />
    <glyph glyph-name="Edotaccent" unicode="&#x116;" 
d="M53 700h329q11 0 11 -11v-128q0 -11 -11 -11h-27q-11 0 -11 11v86h-172v-296h144q11 0 11 -11v-31q0 -11 -11 -11h-144v-245h172v86q0 11 11 11h27q11 0 11 -11v-128q0 -11 -11 -11h-329q-11 0 -11 11v27q0 11 11 11h65v602h-65q-11 0 -11 11v27q0 11 11 11zM261 795v-26
q0 -17 -17 -17h-28q-17 0 -17 17v26q0 17 17 17h28q17 0 17 -17z" />
    <glyph glyph-name="edotaccent" unicode="&#x117;" horiz-adv-x="395" 
d="M231 505h-61q-28 0 -44.5 -16.5t-16.5 -43.5v-147h184v147q0 27 -17 43.5t-45 16.5zM333 249h-224v-141q0 -29 16.5 -46t44.5 -17h61q28 0 45 17t17 45v34q0 12 11 12h29q11 0 11 -12v-32q0 -51 -31 -82t-82 -31h-61q-50 0 -81 31t-31 82v332q0 51 31 82t81 31h61
q51 0 82 -30.5t31 -80.5v-183q0 -11 -11 -11zM170 619v26q0 17 17 17h28q17 0 17 -17v-26q0 -17 -17 -17h-28q-17 0 -17 17z" />
    <glyph glyph-name="Eogonek" unicode="&#x118;" 
d="M382 -123h-51q-17 0 -28 11t-11 28q0 44 31 84h-270q-11 0 -11 11v27q0 11 11 11h65v602h-65q-11 0 -11 11v27q0 11 11 11h329q11 0 11 -11v-128q0 -11 -11 -11h-27q-11 0 -11 11v86h-172v-296h144q11 0 11 -11v-31q0 -11 -11 -11h-144v-245h172v86q0 11 11 11h27
q11 0 11 -11v-128q0 -11 -11 -11h-25q-28 -40 -31 -74q-2 -17 14 -17h42q10 0 10 -9v-14q0 -9 -10 -9z" />
    <glyph glyph-name="eogonek" unicode="&#x119;" horiz-adv-x="395" 
d="M231 505h-61q-28 0 -44.5 -16.5t-16.5 -43.5v-147h184v147q0 27 -17 43.5t-45 16.5zM226 -4h-56q-50 0 -81 31t-31 82v332q0 51 31 82t81 31h61q51 0 82 -30.5t31 -80.5v-183q0 -11 -11 -11h-224v-141q0 -29 16.5 -46t44.5 -17h61q28 0 45 17t17 45v34q0 12 11 12h29
q11 0 11 -12v-32q0 -42 -22 -71t-59 -38q-28 -40 -30 -74q-2 -17 13 -17h43q9 0 9 -9v-14q0 -9 -9 -9h-52q-17 0 -28 10.5t-11 28.5q0 40 28 80z" />
    <glyph glyph-name="Ecaron" unicode="&#x11a;" 
d="M172 351h144q11 0 11 -11v-31q0 -11 -11 -11h-144v-245h172v86q0 11 11 11h27q11 0 11 -11v-128q0 -11 -11 -11h-329q-11 0 -11 11v27q0 11 11 11h65v602h-65q-11 0 -11 11v27q0 11 11 11h329q11 0 11 -11v-128q0 -11 -11 -11h-27q-11 0 -11 11v86h-172v-296zM230 776
l38 50q5 8 14 8h28q8 0 4 -7l-55 -74q-7 -7 -15 -7h-27q-10 0 -15 7l-55 74q-5 7 4 7h26q9 0 15 -8z" />
    <glyph glyph-name="ecaron" unicode="&#x11b;" horiz-adv-x="395" 
d="M231 505h-61q-28 0 -44.5 -16.5t-16.5 -43.5v-147h184v147q0 27 -17 43.5t-45 16.5zM333 249h-224v-141q0 -29 16.5 -46t44.5 -17h61q28 0 45 17t17 45v34q0 12 11 12h29q11 0 11 -12v-32q0 -51 -31 -82t-82 -31h-61q-50 0 -81 31t-31 82v332q0 51 31 82t81 31h61
q51 0 82 -30.5t31 -80.5v-183q0 -11 -11 -11zM284 677l-55 -74q-5 -7 -14 -7h-28q-8 0 -15 7l-54 74q-5 7 3 7h27q9 0 14 -8l39 -50l37 50q6 8 15 8h27q9 0 4 -7z" />
    <glyph glyph-name="Gcircumflex" unicode="&#x11c;" horiz-adv-x="434" 
d="M215 311v31q0 11 11 11h144q12 0 12 -11v-227q0 -53 -33 -86t-86 -33h-82q-53 0 -85.5 33t-32.5 86v470q0 53 32.5 86t85.5 33h82q53 0 86 -33t33 -86v-70q0 -12 -12 -12h-30q-12 0 -12 12v72q0 29 -17.5 46.5t-45.5 17.5h-86q-28 0 -45.5 -17.5t-17.5 -46.5v-474
q0 -29 17 -46t46 -17h86q29 0 46 17t17 46v187h-102q-11 0 -11 11zM250 826l55 -73q4 -7 -3 -7h-28q-9 0 -14 7l-38 50l-38 -50q-7 -7 -15 -7h-27q-7 0 -3 7l55 73q5 8 14 8h28q9 0 14 -8z" />
    <glyph glyph-name="gcircumflex" unicode="&#x11d;" horiz-adv-x="437" 
d="M303 104v341q-80 63 -132 63q-27 0 -44.5 -17t-17.5 -47v-338q0 -30 17.5 -47t44.5 -17q46 0 132 62zM186 -157q-26 0 -68.5 7.5t-42.5 22.5v27q0 8 10 8q5 0 8 -1q65 -15 89 -15q50 0 85.5 24.5t35.5 70.5v63q-84 -57 -144 -57q-43 0 -72 31.5t-29 81.5v338
q0 50 29 81.5t72 31.5q59 0 144 -57v39q0 11 12 11h98q11 0 11 -11v-25q0 -11 -11 -11h-58v-520q0 -68 -48.5 -104t-120.5 -36zM173 596h-26q-8 0 -4 7l55 73q5 8 14 8h28q9 0 15 -8l54 -73q4 -7 -3 -7h-28q-9 0 -14 7l-38 50l-38 -50q-7 -7 -15 -7z" />
    <glyph glyph-name="Gbreve" unicode="&#x11e;" horiz-adv-x="434" 
d="M215 311v31q0 11 11 11h144q12 0 12 -11v-227q0 -53 -33 -86t-86 -33h-82q-53 0 -85.5 33t-32.5 86v470q0 53 32.5 86t85.5 33h82q53 0 86 -33t33 -86v-70q0 -12 -12 -12h-30q-12 0 -12 12v72q0 29 -17.5 46.5t-45.5 17.5h-86q-28 0 -45.5 -17.5t-17.5 -46.5v-474
q0 -29 17 -46t46 -17h86q29 0 46 17t17 46v187h-102q-11 0 -11 11zM304 814l-1 -8q0 -28 -17.5 -45t-46.5 -17h-31q-28 0 -45.5 17t-18.5 45v8q-2 9 9 9h17q10 0 11 -9l1 -12q2 -22 24 -22h36q10 0 16.5 6t6.5 16l2 12q0 9 10 9h18q9 0 9 -9z" />
    <glyph glyph-name="gbreve" unicode="&#x11f;" horiz-adv-x="437" 
d="M303 104v341q-80 63 -132 63q-27 0 -44.5 -17t-17.5 -47v-338q0 -30 17.5 -47t44.5 -17q46 0 132 62zM75 -127v27q0 8 10 8q5 0 8 -1q65 -15 89 -15q50 0 85.5 24.5t35.5 70.5v63q-84 -57 -144 -57q-43 0 -72 31.5t-29 81.5v338q0 50 29 81.5t72 31.5q59 0 144 -57v39
q0 11 12 11h98q11 0 11 -11v-25q0 -11 -11 -11h-58v-520q0 -68 -48.5 -104t-120.5 -36q-26 0 -68.5 7.5t-42.5 22.5zM244 594h-36q-28 0 -45.5 17t-18.5 45v8q0 9 9 9h20q9 0 10 -9l1 -12q2 -22 24 -22h36q22 0 24 22l1 12q0 9 10 9h20q9 0 9 -9v-8q-1 -28 -18.5 -45
t-45.5 -17z" />
    <glyph glyph-name="Gdotaccent" unicode="&#x120;" horiz-adv-x="434" 
d="M215 311v31q0 11 11 11h144q12 0 12 -11v-227q0 -53 -33 -86t-86 -33h-82q-53 0 -85.5 33t-32.5 86v470q0 53 32.5 86t85.5 33h82q53 0 86 -33t33 -86v-70q0 -12 -12 -12h-30q-12 0 -12 12v72q0 29 -17.5 46.5t-45.5 17.5h-86q-28 0 -45.5 -17.5t-17.5 -46.5v-474
q0 -29 17 -46t46 -17h86q29 0 46 17t17 46v187h-102q-11 0 -11 11zM191 769v26q0 17 17 17h28q17 0 17 -17v-26q0 -17 -17 -17h-28q-17 0 -17 17z" />
    <glyph glyph-name="gdotaccent" unicode="&#x121;" horiz-adv-x="437" 
d="M303 104v341q-80 63 -132 63q-27 0 -44.5 -17t-17.5 -47v-338q0 -30 17.5 -47t44.5 -17q46 0 132 62zM424 539v-25q0 -11 -11 -11h-58v-520q0 -68 -48.5 -104t-120.5 -36q-26 0 -68.5 7.5t-42.5 22.5v27q0 8 10 8q5 0 8 -1q65 -15 89 -15q50 0 85.5 24.5t35.5 70.5v63
q-84 -57 -144 -57q-43 0 -72 31.5t-29 81.5v338q0 50 29 81.5t72 31.5q59 0 144 -57v39q0 11 12 11h98q11 0 11 -11zM195 619v26q0 17 17 17h28q17 0 17 -17v-26q0 -17 -17 -17h-28q-17 0 -17 17z" />
    <glyph glyph-name="Gcommaaccent" unicode="&#x122;" horiz-adv-x="434" 
d="M215 311v31q0 11 11 11h144q12 0 12 -11v-227q0 -53 -33 -86t-86 -33h-82q-53 0 -85.5 33t-32.5 86v470q0 53 32.5 86t85.5 33h82q53 0 86 -33t33 -86v-70q0 -12 -12 -12h-30q-12 0 -12 12v72q0 29 -17.5 46.5t-45.5 17.5h-86q-28 0 -45.5 -17.5t-17.5 -46.5v-474
q0 -29 17 -46t46 -17h86q29 0 46 17t17 46v187h-102q-11 0 -11 11zM189 -135l12 81q2 13 15 13h23q13 0 10 -13l-25 -81q-3 -10 -14 -10h-11q-12 0 -10 10z" />
    <glyph glyph-name="gcommaaccent" unicode="&#x123;" horiz-adv-x="437" 
d="M303 104v341q-80 63 -132 63q-27 0 -44.5 -17t-17.5 -47v-338q0 -30 17.5 -47t44.5 -17q46 0 132 62zM424 539v-25q0 -11 -11 -11h-58v-520q0 -68 -48.5 -104t-120.5 -36q-26 0 -68.5 7.5t-42.5 22.5v27q0 8 10 8q5 0 8 -1q65 -15 89 -15q50 0 85.5 24.5t35.5 70.5v63
q-84 -57 -144 -57q-43 0 -72 31.5t-29 81.5v338q0 50 29 81.5t72 31.5q59 0 144 -57v39q0 11 12 11h98q11 0 11 -11zM226 596h-23q-12 0 -9 12l24 81q3 11 14 11h12q11 0 9 -11l-12 -80q-2 -13 -15 -13z" />
    <glyph glyph-name="Hcircumflex" unicode="&#x124;" horiz-adv-x="549" 
d="M317 700h179q11 0 11 -11v-27q0 -11 -11 -11h-66v-602h66q11 0 11 -11v-27q0 -11 -11 -11h-179q-12 0 -12 11v27q0 11 12 11h60v249h-205v-249h60q11 0 11 -11v-27q0 -11 -11 -11h-179q-11 0 -11 11v27q0 11 11 11h65v602h-65q-11 0 -11 11v27q0 11 11 11h179
q11 0 11 -11v-27q0 -11 -11 -11h-60v-300h205v300h-60q-12 0 -12 11v27q0 11 12 11zM303 826l55 -73q4 -7 -4 -7h-27q-10 0 -15 7l-37 50l-39 -50q-5 -7 -14 -7h-27q-7 0 -4 7l55 73q6 8 15 8h27q10 0 15 -8z" />
    <glyph glyph-name="hcircumflex" unicode="&#x125;" horiz-adv-x="491" 
d="M473 36v-25q0 -11 -12 -11h-166q-12 0 -12 11v25q0 12 12 12h55v396q0 30 -17.5 47t-44.5 17q-53 0 -133 -63v-397h54q11 0 11 -12v-25q0 -11 -11 -11h-166q-11 0 -11 11v25q0 12 11 12h60v605h-60q-11 0 -11 11v25q0 11 11 11h100q12 0 12 -11v-189q85 57 144 57
q44 0 73 -31.5t29 -81.5v-396h60q12 0 12 -12zM128 826l54 -73q4 -7 -3 -7h-28q-9 0 -14 7l-38 50l-38 -50q-7 -7 -15 -7h-26q-8 0 -4 7l55 73q5 8 14 8h28q9 0 15 -8z" />
    <glyph glyph-name="Hbar" unicode="&#x126;" horiz-adv-x="549" 
d="M377 516h-205v-165h205v165zM63 528v20q0 11 11 11h44v92h-65q-11 0 -11 11v27q0 11 11 11h179q11 0 11 -11v-27q0 -11 -11 -11h-60v-92h205v92h-60q-12 0 -12 11v27q0 11 12 11h179q11 0 11 -11v-27q0 -11 -11 -11h-66v-92h45q11 0 11 -11v-20q0 -12 -11 -12h-45v-467
h66q11 0 11 -11v-27q0 -11 -11 -11h-179q-12 0 -12 11v27q0 11 12 11h60v249h-205v-249h60q11 0 11 -11v-27q0 -11 -11 -11h-179q-11 0 -11 11v27q0 11 11 11h65v467h-44q-11 0 -11 12z" />
    <glyph glyph-name="hbar" unicode="&#x127;" horiz-adv-x="491" 
d="M42 608v23q0 9 9 9h52v49q0 11 12 11h28q12 0 12 -11v-49h108q9 0 9 -9v-23q0 -9 -9 -9h-108v-99q85 57 144 57q44 0 73 -31.5t29 -81.5v-396h60q12 0 12 -12v-25q0 -11 -12 -11h-166q-12 0 -12 11v25q0 12 12 12h55v396q0 30 -17.5 47t-44.5 17q-53 0 -133 -63v-397h54
q11 0 11 -12v-25q0 -11 -11 -11h-166q-11 0 -11 11v25q0 12 11 12h60v551h-52q-9 0 -9 9z" />
    <glyph glyph-name="Itilde" unicode="&#x128;" horiz-adv-x="290" 
d="M42 11v27q0 11 11 11h65v602h-65q-11 0 -11 11v27q0 11 11 11h184q11 0 11 -11v-27q0 -11 -11 -11h-65v-602h65q11 0 11 -11v-27q0 -11 -11 -11h-184q-11 0 -11 11zM63 761v24q0 13 19 22t33 9q10 0 22 -6l23 -12q7 -4 14 -4q11 0 39 18l4 2q4 0 4 -6v-23
q0 -13 -18.5 -21.5t-32.5 -8.5q-13 0 -22 5l-24 13q-5 4 -13 4q-13 0 -40 -20q-2 -1 -4 -1q-4 0 -4 5z" />
    <glyph glyph-name="itilde" unicode="&#x129;" horiz-adv-x="250" 
d="M29 611v24q0 13 19 22t33 9q11 0 21 -6l24 -12q7 -4 14 -4q11 0 39 18l4 2q4 0 4 -6v-23q0 -13 -18.5 -21.5t-32.5 -8.5q-13 0 -22 5l-24 13q-5 4 -13 4q-13 0 -40 -20q-2 -1 -4 -1q-4 0 -4 5zM37 514v25q0 11 11 11h100q12 0 12 -11v-492h60q11 0 11 -11v-25
q0 -11 -11 -11h-172q-11 0 -11 11v25q0 11 11 11h60v456h-60q-11 0 -11 11z" />
    <glyph glyph-name="Imacron" unicode="&#x12a;" horiz-adv-x="290" 
d="M42 11v27q0 11 11 11h65v602h-65q-11 0 -11 11v27q0 11 11 11h184q11 0 11 -11v-27q0 -11 -11 -11h-65v-602h65q11 0 11 -11v-27q0 -11 -11 -11h-184q-11 0 -11 11zM65 770v20q0 10 10 10h140q9 0 9 -10v-20q0 -9 -9 -9h-140q-10 0 -10 9z" />
    <glyph glyph-name="imacron" unicode="&#x12b;" horiz-adv-x="250" 
d="M31 620v20q0 10 10 10h140q9 0 9 -10v-20q0 -9 -9 -9h-140q-10 0 -10 9zM37 514v25q0 11 11 11h100q12 0 12 -11v-492h60q11 0 11 -11v-25q0 -11 -11 -11h-172q-11 0 -11 11v25q0 11 11 11h60v456h-60q-11 0 -11 11z" />
    <glyph glyph-name="Ibreve" unicode="&#x12c;" horiz-adv-x="290" 
d="M42 11v27q0 11 11 11h65v602h-65q-11 0 -11 11v27q0 11 11 11h184q11 0 11 -11v-27q0 -11 -11 -11h-65v-602h65q11 0 11 -11v-27q0 -11 -11 -11h-184q-11 0 -11 11zM227 814v-8q-1 -28 -19 -45t-46 -17h-35q-28 0 -45.5 17t-18.5 45v8q-1 9 8 9h20q9 0 11 -9l1 -12
q0 -10 6.5 -16t16.5 -6h37q10 0 16.5 6t6.5 16l2 12q0 9 10 9h20q9 0 9 -9z" />
    <glyph glyph-name="ibreve" unicode="&#x12d;" horiz-adv-x="250" 
d="M193 664l-1 -8q0 -28 -17.5 -45t-46.5 -17h-35q-28 0 -45.5 17t-18.5 45l-1 8q0 9 9 9h20q10 0 10 -9l2 -12q0 -10 6.5 -16t16.5 -6h37q10 0 16.5 6t6.5 16l2 12q0 9 10 9h20q9 0 9 -9zM37 514v25q0 11 11 11h100q12 0 12 -11v-492h60q11 0 11 -11v-25q0 -11 -11 -11
h-172q-11 0 -11 11v25q0 11 11 11h60v456h-60q-11 0 -11 11z" />
    <glyph glyph-name="Iogonek" unicode="&#x12e;" horiz-adv-x="290" 
d="M188 -123h-51q-17 0 -28 11t-11 28q0 44 31 84h-76q-11 0 -11 11v27q0 11 11 11h65v602h-65q-11 0 -11 11v27q0 11 11 11h184q11 0 11 -11v-27q0 -11 -11 -11h-65v-602h65q11 0 11 -11v-27q0 -11 -11 -11h-74q-28 -42 -31 -74q-2 -17 14 -17h42q10 0 10 -9v-14
q0 -9 -10 -9z" />
    <glyph glyph-name="iogonek" unicode="&#x12f;" horiz-adv-x="250" 
d="M37 514v25q0 11 11 11h100q12 0 12 -11v-492h60q11 0 11 -11v-25q0 -11 -11 -11h-71q-28 -42 -31 -74q-2 -17 14 -17h42q9 0 9 -9v-14q0 -9 -9 -9h-51q-17 0 -28 11t-11 28q0 44 31 84h-67q-11 0 -11 11v25q0 11 11 11h60v456h-60q-11 0 -11 11zM91 657v30q0 17 17 17h32
q17 0 17 -17v-30q0 -17 -17 -17h-32q-17 0 -17 17z" />
    <glyph glyph-name="Idotaccent" unicode="&#x130;" horiz-adv-x="290" 
d="M42 11v27q0 11 11 11h65v602h-65q-11 0 -11 11v27q0 11 11 11h184q11 0 11 -11v-27q0 -11 -11 -11h-65v-602h65q11 0 11 -11v-27q0 -11 -11 -11h-184q-11 0 -11 11zM114 769v26q0 17 17 17h28q17 0 17 -17v-26q0 -17 -17 -17h-28q-17 0 -17 17z" />
    <glyph glyph-name="dotlessi" unicode="&#x131;" horiz-adv-x="250" 
d="M108 503h-60q-11 0 -11 11v25q0 11 11 11h100q12 0 12 -11v-492h60q11 0 11 -11v-25q0 -11 -11 -11h-172q-11 0 -11 11v25q0 11 11 11h60v456z" />
    <glyph glyph-name="IJ" unicode="&#x132;" horiz-adv-x="689" 
d="M42 11v27q0 11 11 11h65v602h-65q-11 0 -11 11v27q0 11 11 11h184q11 0 11 -11v-27q0 -11 -11 -11h-65v-602h65q11 0 11 -11v-27q0 -11 -11 -11h-184q-11 0 -11 11zM688 689v-27q0 -11 -12 -11h-65v-536q0 -53 -33 -86t-86 -33h-62q-54 0 -86.5 33t-32.5 86v44
q0 11 11 11h31q11 0 11 -11v-46q0 -28 17.5 -45.5t46.5 -17.5h66q29 0 46.5 17.5t17.5 45.5v538h-82q-11 0 -11 11v27q0 11 11 11h200q12 0 12 -11z" />
    <glyph glyph-name="ij" unicode="&#x133;" horiz-adv-x="472" 
d="M250 -139v27q0 11 11 11h27q27 0 44 17t17 44v543h-61q-11 0 -11 11v25q0 11 11 11h101q11 0 11 -11v-577q0 -50 -31 -81t-81 -31h-27q-11 0 -11 11zM220 0h-172q-11 0 -11 11v25q0 11 11 11h60v456h-60q-11 0 -11 11v25q0 11 11 11h100q12 0 12 -11v-492h60q11 0 11 -11
v-25q0 -11 -11 -11zM91 657v30q0 17 17 17h32q17 0 17 -17v-30q0 -17 -17 -17h-32q-17 0 -17 17zM381 640h-31q-18 0 -18 17v30q0 17 18 17h31q18 0 18 -17v-30q0 -17 -18 -17z" />
    <glyph glyph-name="Jcircumflex" unicode="&#x134;" horiz-adv-x="408" 
d="M398 689v-27q0 -11 -12 -11h-65v-536q0 -53 -33 -86t-86 -33h-62q-54 0 -86.5 33t-32.5 86v44q0 11 11 11h31q11 0 11 -11v-46q0 -28 17.5 -45.5t46.5 -17.5h66q29 0 46.5 17.5t17.5 45.5v538h-82q-11 0 -11 11v27q0 11 11 11h200q12 0 12 -11zM318 826l55 -73
q4 -7 -4 -7h-27q-8 0 -15 7l-37 50l-39 -50q-5 -7 -14 -7h-27q-7 0 -3 7l54 73q6 8 15 8h28q9 0 14 -8z" />
    <glyph glyph-name="jcircumflex" unicode="&#x135;" horiz-adv-x="222" 
d="M119 676l55 -73q4 -7 -3 -7h-28q-8 0 -15 7l-37 50l-39 -50q-5 -7 -14 -7h-27q-7 0 -3 7l55 73q5 8 14 8h28q9 0 14 -8zM0 -139v27q0 11 11 11h27q27 0 44 17t17 44v543h-61q-11 0 -11 11v25q0 11 11 11h101q11 0 11 -11v-577q0 -50 -31 -81t-81 -31h-27q-11 0 -11 11z
" />
    <glyph glyph-name="Kcommaaccent" unicode="&#x136;" horiz-adv-x="499" 
d="M232 0h-179q-11 0 -11 11v27q0 11 11 11h65v602h-65q-11 0 -11 11v27q0 11 11 11h179q11 0 11 -11v-27q0 -11 -11 -11h-60v-265h34l154 304q5 10 16 10h89q10 0 10 -11v-27q0 -11 -12 -11h-62l-148 -292l162 -310h63q11 0 11 -11v-27q0 -9 -9 -11h-88q-11 0 -16 10
l-169 323h-35v-284h60q11 0 11 -11v-27q0 -11 -11 -11zM239 -135l13 81q2 13 14 13h24q12 0 9 -13l-24 -81q-3 -10 -14 -10h-12q-10 0 -10 10z" />
    <glyph glyph-name="kcommaaccent" unicode="&#x137;" horiz-adv-x="445" 
d="M32 664v25q0 11 11 11h100q12 0 12 -11v-642h55q11 0 11 -11v-25q0 -11 -11 -11h-167q-11 0 -11 11v25q0 11 11 11h60v606h-60q-11 0 -11 11zM411 503h-52l-132 -223l137 -233h59q11 0 11 -11v-25q0 -11 -11 -11h-77q-12 0 -17 10l-157 270l132 223h-43q-11 0 -11 11v25
q0 11 11 11h150q11 0 11 -11v-25q0 -11 -11 -11zM221 -145h-11q-12 0 -10 10l12 81q2 13 15 13h23q13 0 10 -13l-25 -81q-3 -10 -14 -10z" />
    <glyph glyph-name="Lacute" unicode="&#x139;" horiz-adv-x="405" 
d="M42 662v27q0 11 11 11h179q11 0 11 -11v-27q0 -11 -11 -11h-60v-597h169v79q0 12 12 12h26q11 0 11 -12v-122q0 -11 -11 -11h-326q-11 0 -11 11v27q0 11 11 11h65v602h-65q-11 0 -11 11zM125 751l43 73q5 8 13 8h45q10 0 3 -7l-63 -74q-6 -7 -15 -7h-22q-9 0 -4 7z" />
    <glyph glyph-name="lacute" unicode="&#x13a;" horiz-adv-x="245" 
d="M226 36v-25q0 -11 -11 -11h-172q-11 0 -11 11v25q0 11 11 11h60v606h-60q-11 0 -11 11v25q0 11 11 11h100q12 0 12 -11v-642h60q11 0 11 -11zM81 751l44 73q5 8 13 8h45q10 0 3 -7l-63 -74q-6 -7 -16 -7h-21q-8 0 -5 7z" />
    <glyph glyph-name="Lcommaaccent" unicode="&#x13b;" horiz-adv-x="405" 
d="M42 662v27q0 11 11 11h179q11 0 11 -11v-27q0 -11 -11 -11h-60v-597h169v79q0 12 12 12h26q11 0 11 -12v-122q0 -11 -11 -11h-326q-11 0 -11 11v27q0 11 11 11h65v602h-65q-11 0 -11 11zM173 -135l12 81q2 13 15 13h23q12 0 9 -13l-24 -81q-3 -10 -14 -10h-12
q-11 0 -9 10z" />
    <glyph glyph-name="lcommaaccent" unicode="&#x13c;" horiz-adv-x="245" 
d="M226 36v-25q0 -11 -11 -11h-172q-11 0 -11 11v25q0 11 11 11h60v606h-60q-11 0 -11 11v25q0 11 11 11h100q12 0 12 -11v-642h60q11 0 11 -11zM93 -135l12 81q2 13 14 13h24q12 0 9 -13l-24 -81q-3 -10 -14 -10h-12q-11 0 -9 10z" />
    <glyph glyph-name="Lcaron" unicode="&#x13d;" horiz-adv-x="405" 
d="M42 662v27q0 11 11 11h179q11 0 11 -11v-27q0 -11 -11 -11h-60v-597h169v79q0 12 12 12h26q11 0 11 -12v-122q0 -11 -11 -11h-326q-11 0 -11 11v27q0 11 11 11h65v602h-65q-11 0 -11 11zM313 607l12 80q2 13 15 13h23q14 0 9 -12l-24 -82q-3 -10 -14 -10h-12q-11 0 -9 11
z" />
    <glyph glyph-name="lcaron" unicode="&#x13e;" horiz-adv-x="267" 
d="M226 36v-25q0 -11 -11 -11h-172q-11 0 -11 11v25q0 11 11 11h60v606h-60q-11 0 -11 11v25q0 11 11 11h100q12 0 12 -11v-642h60q11 0 11 -11zM210 598l14 89q2 13 14 13h27q13 0 10 -13l-26 -89q-3 -10 -15 -10h-15q-11 0 -9 10z" />
    <glyph glyph-name="Ldot" unicode="&#x13f;" horiz-adv-x="405" 
d="M42 662v27q0 11 11 11h179q11 0 11 -11v-27q0 -11 -11 -11h-60v-597h169v79q0 12 12 12h26q11 0 11 -12v-122q0 -11 -11 -11h-326q-11 0 -11 11v27q0 11 11 11h65v602h-65q-11 0 -11 11zM312 331v39q0 17 16 17h38q17 0 17 -17v-39q0 -18 -17 -18h-38q-16 0 -16 18z" />
    <glyph glyph-name="ldot" unicode="&#x140;" horiz-adv-x="276" 
d="M226 36v-25q0 -11 -11 -11h-172q-11 0 -11 11v25q0 11 11 11h60v606h-60q-11 0 -11 11v25q0 11 11 11h100q12 0 12 -11v-642h60q11 0 11 -11zM231 331v39q0 17 17 17h37q17 0 17 -17v-39q0 -18 -17 -18h-37q-17 0 -17 18z" />
    <glyph glyph-name="Lslash" unicode="&#x141;" horiz-adv-x="405" 
d="M42 662v27q0 11 11 11h179q11 0 11 -11v-27q0 -11 -11 -11h-60v-291l87 51q6 2 7 2q6 0 9 -6l12 -19q5 -11 -5 -16l-110 -64v-254h169v79q0 12 12 12h26q11 0 11 -12v-122q0 -11 -11 -11h-326q-11 0 -11 11v27q0 11 11 11h65v228l-49 -29q-4 -2 -6 -2q-6 0 -9 6l-12 19
q-6 11 4 16l72 42v322h-65q-11 0 -11 11z" />
    <glyph glyph-name="lslash" unicode="&#x142;" horiz-adv-x="248" 
d="M38 243l-11 19q-5 9 4 16l72 43v332h-60q-11 0 -11 11v25q0 11 11 11h100q12 0 12 -11v-338l50 30q4 2 6 2q6 0 9 -6l11 -19q7 -10 -4 -15l-72 -44v-252h60q11 0 11 -11v-25q0 -11 -11 -11h-172q-11 0 -11 11v25q0 11 11 11h60v222l-49 -30q-4 -2 -6 -2q-6 0 -10 6z" />
    <glyph glyph-name="Nacute" unicode="&#x143;" horiz-adv-x="537" 
d="M315 662v27q0 11 11 11h179q11 0 11 -11v-27q0 -11 -11 -11h-65v-640q0 -11 -12 -11h-22q-11 0 -16 10l-212 526q-5 11 -7 30l-4 -1q5 -23 5 -30v-486h60q11 0 11 -11v-27q0 -11 -11 -11h-179q-11 0 -11 11v27q0 11 11 11h65v602h-65q-11 0 -11 11v27q0 11 11 11h99
q11 0 16 -10l212 -528q1 -1 7 -30l4 1q-5 22 -5 30v488h-60q-11 0 -11 11zM274 744h-22q-9 0 -4 7l43 73q5 8 13 8h45q10 0 3 -7l-63 -74q-6 -7 -15 -7z" />
    <glyph glyph-name="nacute" unicode="&#x144;" horiz-adv-x="496" 
d="M214 0h-166q-11 0 -11 11v25q0 11 11 11h60v456h-60q-11 0 -11 11v25q0 11 11 11h100q12 0 12 -11v-39q85 57 144 57q44 0 73 -31.5t29 -81.5v-397h60q12 0 12 -11v-25q0 -11 -12 -11h-166q-12 0 -12 11v25q0 11 12 11h55v397q0 30 -17.5 47t-44.5 17q-53 0 -133 -63
v-398h54q11 0 11 -11v-25q0 -11 -11 -11zM222 601l44 73q5 8 13 8h45q10 0 3 -7l-63 -74q-6 -7 -16 -7h-21q-9 0 -5 7z" />
    <glyph glyph-name="Ncommaaccent" unicode="&#x145;" horiz-adv-x="537" 
d="M315 662v27q0 11 11 11h179q11 0 11 -11v-27q0 -11 -11 -11h-65v-640q0 -11 -12 -11h-22q-11 0 -16 10l-212 526q-5 11 -7 30l-4 -1q5 -23 5 -30v-486h60q11 0 11 -11v-27q0 -11 -11 -11h-179q-11 0 -11 11v27q0 11 11 11h65v602h-65q-11 0 -11 11v27q0 11 11 11h99
q11 0 16 -10l212 -528q1 -1 7 -30l4 1q-5 22 -5 30v488h-60q-11 0 -11 11zM260 -145h-12q-11 0 -9 10l12 81q2 13 14 13h24q12 0 9 -13l-24 -81q-3 -10 -14 -10z" />
    <glyph glyph-name="ncommaaccent" unicode="&#x146;" horiz-adv-x="496" 
d="M214 0h-166q-11 0 -11 11v25q0 11 11 11h60v456h-60q-11 0 -11 11v25q0 11 11 11h100q12 0 12 -11v-39q85 57 144 57q44 0 73 -31.5t29 -81.5v-397h60q12 0 12 -11v-25q0 -11 -12 -11h-166q-12 0 -12 11v25q0 11 12 11h55v397q0 30 -17.5 47t-44.5 17q-53 0 -133 -63
v-398h54q11 0 11 -11v-25q0 -11 -11 -11zM224 -135l12 81q3 13 15 13h23q13 0 10 -13l-24 -81q-3 -10 -14 -10h-12q-10 0 -10 10z" />
    <glyph glyph-name="Ncaron" unicode="&#x147;" horiz-adv-x="537" 
d="M505 651h-65v-640q0 -11 -12 -11h-22q-11 0 -16 10l-212 526q-5 11 -7 30l-4 -1q5 -23 5 -30v-486h60q11 0 11 -11v-27q0 -11 -11 -11h-179q-11 0 -11 11v27q0 11 11 11h65v602h-65q-11 0 -11 11v27q0 11 11 11h99q11 0 16 -10l212 -528q1 -1 7 -30l4 1q-5 22 -5 30v488
h-60q-11 0 -11 11v27q0 11 11 11h179q11 0 11 -11v-27q0 -11 -11 -11zM237 826l39 -50l37 50q5 8 14 8h28q7 0 4 -7l-55 -74q-5 -7 -15 -7h-27q-10 0 -15 7l-55 74q-5 7 4 7h26q10 0 15 -8z" />
    <glyph glyph-name="ncaron" unicode="&#x148;" horiz-adv-x="496" 
d="M214 0h-166q-11 0 -11 11v25q0 11 11 11h60v456h-60q-11 0 -11 11v25q0 11 11 11h100q12 0 12 -11v-39q85 57 144 57q44 0 73 -31.5t29 -81.5v-397h60q12 0 12 -11v-25q0 -11 -12 -11h-166q-12 0 -12 11v25q0 11 12 11h55v397q0 30 -17.5 47t-44.5 17q-53 0 -133 -63
v-398h54q11 0 11 -11v-25q0 -11 -11 -11zM333 677l-54 -74q-7 -7 -15 -7h-28q-9 0 -14 7l-55 74q-5 7 3 7h27q9 0 15 -8l38 -50l38 50q5 8 14 8h28q8 0 3 -7z" />
    <glyph glyph-name="Eng" unicode="&#x14a;" horiz-adv-x="537" 
d="M42 11v27q0 11 11 11h65v602h-65q-11 0 -11 11v27q0 11 11 11h99q11 0 16 -11l212 -527q3 -6 8 -30h2q-4 20 -4 31v488h-60q-11 0 -11 11v27q0 11 11 11h179q11 0 11 -11v-27q0 -11 -11 -11h-65v-682q0 -54 -33 -86.5t-86 -32.5h-64q-11 0 -11 11v31q0 11 11 11h66
q28 0 45.5 17.5t17.5 46.5v54q-26 65 -101.5 250t-106.5 265q-3 6 -8 30l-2 -1q4 -18 4 -30v-486h60q11 0 11 -11v-27q0 -11 -11 -11h-179q-11 0 -11 11z" />
    <glyph glyph-name="eng" unicode="&#x14b;" horiz-adv-x="458" 
d="M108 503h-60q-11 0 -11 11v25q0 11 11 11h100q12 0 12 -11v-39q87 57 144 57q44 0 73 -31.5t29 -81.5v-482q0 -50 -31 -81t-81 -31h-27q-11 0 -11 11v27q0 11 11 11h27q28 0 44.5 17t16.5 44v484q0 30 -17.5 47t-44.5 17q-53 0 -133 -62v-399h54q11 0 11 -11v-25
q0 -11 -11 -11h-166q-11 0 -11 11v25q0 11 11 11h60v456z" />
    <glyph glyph-name="Omacron" unicode="&#x14c;" horiz-adv-x="451" 
d="M116 587v-474q0 -29 17 -46t46 -17h93q28 0 45.5 17t17.5 46v474q0 29 -17.5 46.5t-45.5 17.5h-93q-28 0 -45.5 -17.5t-17.5 -46.5zM63 115v470q0 53 32.5 86t85.5 33h89q53 0 86 -33t33 -86v-470q0 -53 -33 -86t-86 -33h-89q-53 0 -85.5 33t-32.5 86zM146 770v20
q0 10 10 10h140q9 0 9 -10v-20q0 -9 -9 -9h-140q-10 0 -10 9z" />
    <glyph glyph-name="omacron" unicode="&#x14d;" horiz-adv-x="411" 
d="M109 443v-336q0 -28 16.5 -45t44.5 -17h71q28 0 45 17t17 45v336q0 28 -17 45t-45 17h-71q-28 0 -44.5 -17t-16.5 -45zM58 109v332q0 51 31 82t81 31h71q51 0 82 -31t31 -82v-332q0 -51 -31 -82t-82 -31h-71q-50 0 -81 31t-31 82zM126 620v20q0 10 10 10h140q9 0 9 -10
v-20q0 -9 -9 -9h-140q-10 0 -10 9z" />
    <glyph glyph-name="Obreve" unicode="&#x14e;" horiz-adv-x="451" 
d="M116 587v-474q0 -29 17 -46t46 -17h93q28 0 45.5 17t17.5 46v474q0 29 -17.5 46.5t-45.5 17.5h-93q-28 0 -45.5 -17.5t-17.5 -46.5zM63 115v470q0 53 32.5 86t85.5 33h89q53 0 86 -33t33 -86v-470q0 -53 -33 -86t-86 -33h-89q-53 0 -85.5 33t-32.5 86zM308 814l-1 -8
q-1 -28 -18.5 -45t-45.5 -17h-31q-28 0 -45.5 17t-18.5 45l-1 8q0 9 9 9h18q10 0 10 -9l2 -12q0 -10 6.5 -16t16.5 -6h37q10 0 16.5 6t6.5 16l2 12q0 9 10 9h18q9 0 9 -9z" />
    <glyph glyph-name="obreve" unicode="&#x14f;" horiz-adv-x="411" 
d="M109 443v-336q0 -28 16.5 -45t44.5 -17h71q28 0 45 17t17 45v336q0 28 -17 45t-45 17h-71q-28 0 -44.5 -17t-16.5 -45zM58 109v332q0 51 31 82t81 31h71q51 0 82 -31t31 -82v-332q0 -51 -31 -82t-82 -31h-71q-50 0 -81 31t-31 82zM288 664l-1 -8q-1 -28 -18.5 -45
t-45.5 -17h-31q-28 0 -45.5 17t-18.5 45l-1 8q0 9 9 9h18q10 0 10 -9l2 -12q0 -10 6.5 -16t16.5 -6h37q10 0 16.5 6t6.5 16l2 12q0 9 10 9h18q9 0 9 -9z" />
    <glyph glyph-name="Ohungarumlaut" unicode="&#x150;" horiz-adv-x="451" 
d="M116 587v-474q0 -29 17 -46t46 -17h93q28 0 45.5 17t17.5 46v474q0 29 -17.5 46.5t-45.5 17.5h-93q-28 0 -45.5 -17.5t-17.5 -46.5zM63 115v470q0 53 32.5 86t85.5 33h89q53 0 86 -33t33 -86v-470q0 -53 -33 -86t-86 -33h-89q-53 0 -85.5 33t-32.5 86zM257 751l45 73
q3 8 13 8h39q8 0 3 -7l-60 -74q-5 -7 -15 -7h-21q-9 0 -4 7zM160 751l43 73q5 8 13 8h39q10 0 3 -7l-57 -74q-7 -7 -15 -7h-22q-9 0 -4 7z" />
    <glyph glyph-name="ohungarumlaut" unicode="&#x151;" horiz-adv-x="411" 
d="M109 443v-336q0 -28 16.5 -45t44.5 -17h71q28 0 45 17t17 45v336q0 28 -17 45t-45 17h-71q-28 0 -44.5 -17t-16.5 -45zM58 109v332q0 51 31 82t81 31h71q51 0 82 -31t31 -82v-332q0 -51 -31 -82t-82 -31h-71q-50 0 -81 31t-31 82zM237 601l45 73q3 8 13 8h39q8 0 3 -7
l-60 -74q-5 -7 -15 -7h-21q-9 0 -4 7zM140 601l43 73q5 8 13 8h39q10 0 3 -7l-57 -74q-7 -7 -15 -7h-22q-9 0 -4 7z" />
    <glyph glyph-name="OE" unicode="&#x152;" horiz-adv-x="644" 
d="M116 587v-474q0 -29 17 -46t46 -17h93q28 0 45.5 17t17.5 46v474q0 29 -17.5 46.5t-45.5 17.5h-93q-28 0 -45.5 -17.5t-17.5 -46.5zM599 550h-26q-12 0 -12 11v86h-172v-296h144q11 0 11 -11v-31q0 -11 -11 -11h-144v-245h172v86q0 11 12 11h26q11 0 11 -11v-128
q0 -11 -11 -11h-252q-12 0 -12 11v2q-28 -17 -65 -17h-89q-53 0 -85.5 33t-32.5 86v470q0 53 32.5 86t85.5 33h89q37 0 65 -17v2q0 11 12 11h252q11 0 11 -11v-128q0 -11 -11 -11z" />
    <glyph glyph-name="oe" unicode="&#x153;" horiz-adv-x="640" 
d="M303 107v336q0 28 -17 45t-45 17h-71q-28 0 -44.5 -17t-16.5 -45v-336q0 -28 16.5 -45t44.5 -17h71q28 0 45 17t17 45zM476 505h-61q-28 0 -44.5 -16.5t-16.5 -43.5v-147h184v147q0 27 -17 43.5t-45 16.5zM578 249h-224v-141q0 -29 16.5 -46t44.5 -17h61q28 0 45 17
t17 45v34q0 12 11 12h29q11 0 11 -12v-32q0 -51 -31 -82t-82 -31h-61q-55 0 -87 37q-32 -37 -87 -37h-71q-50 0 -81 31t-31 82v332q0 51 31 82t81 31h71q55 0 87 -37q32 37 87 37h61q51 0 82 -30.5t31 -80.5v-183q0 -11 -11 -11z" />
    <glyph glyph-name="Racute" unicode="&#x154;" horiz-adv-x="493" 
d="M292 647h-120v-300h120q28 0 45.5 17.5t17.5 45.5v173q0 29 -17.5 46.5t-45.5 17.5zM42 662v27q0 11 11 11h236q54 0 86.5 -32.5t32.5 -86.5v-169q0 -41 -20 -70t-55 -40l76 -253h63q11 0 11 -11v-27q0 -11 -11 -11h-93q-12 0 -15 11l-83 283h-109v-245h60q11 0 11 -11
v-27q0 -11 -11 -11h-179q-11 0 -11 11v27q0 11 11 11h65v602h-65q-11 0 -11 11zM306 825l-63 -74q-6 -7 -16 -7h-21q-8 0 -5 7l44 73q5 8 13 8h45q10 0 3 -7z" />
    <glyph glyph-name="racute" unicode="&#x155;" horiz-adv-x="320" 
d="M300 504h-3q-49 0 -137 -70v-387h70q11 0 11 -11v-25q0 -11 -11 -11h-182q-11 0 -11 11v25q0 11 11 11h60v456h-58q-11 0 -11 11v25q0 11 11 11h98q12 0 12 -11v-45q83 59 139 62q11 2 11 -10l1 -33q0 -11 -11 -9zM214 682h45q9 0 4 -7l-64 -74q-4 -7 -15 -7h-22
q-9 0 -4 7l44 73q3 8 12 8z" />
    <glyph glyph-name="Rcommaaccent" unicode="&#x156;" horiz-adv-x="493" 
d="M292 647h-120v-300h120q28 0 45.5 17.5t17.5 45.5v173q0 29 -17.5 46.5t-45.5 17.5zM42 662v27q0 11 11 11h236q54 0 86.5 -32.5t32.5 -86.5v-169q0 -41 -20 -70t-55 -40l76 -253h63q11 0 11 -11v-27q0 -11 -11 -11h-93q-12 0 -15 11l-83 283h-109v-245h60q11 0 11 -11
v-27q0 -11 -11 -11h-179q-11 0 -11 11v27q0 11 11 11h65v602h-65q-11 0 -11 11zM238 -145h-12q-12 0 -10 10l12 81q3 13 15 13h23q13 0 10 -13l-25 -81q-2 -10 -13 -10z" />
    <glyph glyph-name="rcommaaccent" unicode="&#x157;" horiz-adv-x="320" 
d="M300 504h-3q-49 0 -137 -70v-387h70q11 0 11 -11v-25q0 -11 -11 -11h-182q-11 0 -11 11v25q0 11 11 11h60v456h-58q-11 0 -11 11v25q0 11 11 11h98q12 0 12 -11v-45q83 59 139 62q11 2 11 -10l1 -33q0 -11 -11 -9zM121 -145h-12q-11 0 -9 10l12 81q2 13 15 13h23
q12 0 9 -13l-24 -81q-3 -10 -14 -10z" />
    <glyph glyph-name="Rcaron" unicode="&#x158;" horiz-adv-x="493" 
d="M292 647h-120v-300h120q28 0 45.5 17.5t17.5 45.5v173q0 29 -17.5 46.5t-45.5 17.5zM53 49h65v602h-65q-11 0 -11 11v27q0 11 11 11h236q54 0 86.5 -32.5t32.5 -86.5v-169q0 -41 -20 -70t-55 -40l76 -253h63q11 0 11 -11v-27q0 -11 -11 -11h-93q-12 0 -15 11l-83 283
h-109v-245h60q11 0 11 -11v-27q0 -11 -11 -11h-179q-11 0 -11 11v27q0 11 11 11zM243 746h-28q-9 0 -14 7l-55 74q-5 7 4 7h26q9 0 15 -8l38 -50l38 50q5 8 14 8h28q8 0 3 -7l-54 -74q-7 -7 -15 -7z" />
    <glyph glyph-name="rcaron" unicode="&#x159;" horiz-adv-x="320" 
d="M300 504h-3q-49 0 -137 -70v-387h70q11 0 11 -11v-25q0 -11 -11 -11h-182q-11 0 -11 11v25q0 11 11 11h60v456h-58q-11 0 -11 11v25q0 11 11 11h98q12 0 12 -11v-45q83 59 139 62q11 2 11 -10l1 -33q0 -11 -11 -9zM147 676l39 -50l37 50q5 8 15 8h27q9 0 4 -7l-55 -74
q-5 -7 -15 -7h-27q-8 0 -15 7l-55 74q-4 7 4 7h27q9 0 14 -8z" />
    <glyph glyph-name="Sacute" unicode="&#x15a;" horiz-adv-x="392" 
d="M48 513v72q0 53 32.5 86t85.5 33h62q53 0 86 -33t33 -86v-70q0 -12 -12 -12h-30q-12 0 -12 12v72q0 29 -17.5 46.5t-45.5 17.5h-66q-28 0 -45.5 -17.5t-17.5 -46.5v-73q0 -35 26 -58l180 -162q43 -38 43 -96v-83q0 -54 -33 -86.5t-86 -32.5h-72q-53 0 -86 32.5t-33 86.5
v70q0 11 12 11h31q11 0 11 -11v-72q0 -29 17 -46t46 -17h76q29 0 46.5 17.5t17.5 45.5v84q0 34 -26 58l-180 161q-43 40 -43 97zM168 751l43 73q5 8 13 8h45q10 0 3 -7l-63 -74q-6 -7 -15 -7h-22q-9 0 -4 7z" />
    <glyph glyph-name="sacute" unicode="&#x15b;" horiz-adv-x="374" 
d="M330 154v-45q0 -50 -31 -81.5t-81 -31.5h-62q-50 0 -81 31t-31 82v41q0 11 11 11h29q11 0 11 -11v-37q0 -31 16.5 -49.5t46.5 -18.5h57q30 0 47 18.5t17 49.5v43q0 37 -32 57l-143 96q-25 16 -40 44t-15 57v31q0 51 30.5 82t81.5 31h52q50 0 81 -31t31 -82v-41
q0 -11 -11 -11h-29q-11 0 -11 11v37q0 31 -17 49.5t-47 18.5h-47q-30 0 -46.5 -18.5t-16.5 -49.5v-29q0 -37 32 -57l143 -95q25 -16 40 -44.5t15 -57.5zM159 601l44 73q5 8 13 8h45q10 0 3 -7l-63 -74q-6 -7 -16 -7h-21q-8 0 -5 7z" />
    <glyph glyph-name="Scircumflex" unicode="&#x15c;" horiz-adv-x="392" 
d="M48 513v72q0 53 32.5 86t85.5 33h62q53 0 86 -33t33 -86v-70q0 -12 -12 -12h-30q-12 0 -12 12v72q0 29 -17.5 46.5t-45.5 17.5h-66q-28 0 -45.5 -17.5t-17.5 -46.5v-73q0 -35 26 -58l180 -162q43 -38 43 -96v-83q0 -54 -33 -86.5t-86 -32.5h-72q-53 0 -86 32.5t-33 86.5
v70q0 11 12 11h31q11 0 11 -11v-72q0 -29 17 -46t46 -17h76q29 0 46.5 17.5t17.5 45.5v84q0 34 -26 58l-180 161q-43 40 -43 97zM224 826l55 -73q4 -7 -4 -7h-27q-10 0 -15 7l-37 50l-39 -50q-5 -7 -14 -7h-27q-7 0 -4 7l55 73q6 8 15 8h27q10 0 15 -8z" />
    <glyph glyph-name="scircumflex" unicode="&#x15d;" horiz-adv-x="374" 
d="M330 154v-45q0 -50 -31 -81.5t-81 -31.5h-62q-50 0 -81 31t-31 82v41q0 11 11 11h29q11 0 11 -11v-37q0 -31 16.5 -49.5t46.5 -18.5h57q30 0 47 18.5t17 49.5v43q0 37 -32 57l-143 96q-25 16 -40 44t-15 57v31q0 51 30.5 82t81.5 31h52q50 0 81 -31t31 -82v-41
q0 -11 -11 -11h-29q-11 0 -11 11v37q0 31 -17 49.5t-47 18.5h-47q-30 0 -46.5 -18.5t-16.5 -49.5v-29q0 -37 32 -57l143 -95q25 -16 40 -44.5t15 -57.5zM216 676l54 -73q4 -7 -3 -7h-28q-9 0 -14 7l-38 50l-38 -50q-7 -7 -15 -7h-26q-8 0 -4 7l55 73q5 8 14 8h28q9 0 15 -8z
" />
    <glyph glyph-name="Scedilla" unicode="&#x15e;" horiz-adv-x="392" 
d="M254 -77v-19q0 -19 -11.5 -30t-29.5 -11h-55q-9 0 -9 9v12q0 9 9 9h48q15 0 15 15v10q0 15 -15 15h-27q-16 0 -12 16l8 47h-16q-53 0 -86 32.5t-33 86.5v70q0 11 12 11h31q11 0 11 -11v-72q0 -29 17 -46t46 -17h76q29 0 46.5 17.5t17.5 45.5v84q0 34 -26 58l-180 161
q-43 40 -43 97v72q0 53 32.5 86t85.5 33h62q53 0 86 -33t33 -86v-70q0 -12 -12 -12h-30q-12 0 -12 12v72q0 29 -17.5 46.5t-45.5 17.5h-66q-28 0 -45.5 -17.5t-17.5 -46.5v-73q0 -35 26 -58l180 -162q43 -38 43 -96v-83q0 -54 -33 -86.5t-86 -32.5h-21l-6 -32h9
q18 0 29.5 -11.5t11.5 -29.5z" />
    <glyph glyph-name="scedilla" unicode="&#x15f;" horiz-adv-x="374" 
d="M242 -77v-19q0 -19 -11.5 -30t-29.5 -11h-55q-9 0 -9 9v12q0 9 9 9h48q15 0 15 15v10q0 15 -15 15h-27q-16 0 -12 16l8 47h-7q-50 0 -81 31t-31 82v41q0 11 11 11h29q11 0 11 -11v-37q0 -31 16.5 -49.5t46.5 -18.5h57q30 0 47 18.5t17 49.5v43q0 37 -32 57l-143 96
q-25 16 -40 44t-15 57v31q0 51 30.5 82t81.5 31h52q50 0 81 -31t31 -82v-41q0 -11 -11 -11h-29q-11 0 -11 11v37q0 31 -17 49.5t-47 18.5h-47q-30 0 -46.5 -18.5t-16.5 -49.5v-29q0 -37 32 -57l143 -95q25 -16 40 -44.5t15 -57.5v-45q0 -50 -31 -81.5t-81 -31.5h-20l-6 -32
h9q18 0 29.5 -11.5t11.5 -29.5z" />
    <glyph glyph-name="Scaron" unicode="&#x160;" horiz-adv-x="392" 
d="M48 513v72q0 53 32.5 86t85.5 33h62q53 0 86 -33t33 -86v-70q0 -12 -12 -12h-30q-12 0 -12 12v72q0 29 -17.5 46.5t-45.5 17.5h-66q-28 0 -45.5 -17.5t-17.5 -46.5v-73q0 -35 26 -58l180 -162q43 -38 43 -96v-83q0 -54 -33 -86.5t-86 -32.5h-72q-53 0 -86 32.5t-33 86.5
v70q0 11 12 11h31q11 0 11 -11v-72q0 -29 17 -46t46 -17h76q29 0 46.5 17.5t17.5 45.5v84q0 34 -26 58l-180 161q-43 40 -43 97zM279 827l-55 -74q-5 -7 -15 -7h-27q-8 0 -15 7l-55 74q-4 7 4 7h27q9 0 14 -8l39 -50l37 50q5 8 15 8h27q9 0 4 -7z" />
    <glyph glyph-name="scaron" unicode="&#x161;" horiz-adv-x="374" 
d="M330 154v-45q0 -50 -31 -81.5t-81 -31.5h-62q-50 0 -81 31t-31 82v41q0 11 11 11h29q11 0 11 -11v-37q0 -31 16.5 -49.5t46.5 -18.5h57q30 0 47 18.5t17 49.5v43q0 37 -32 57l-143 96q-25 16 -40 44t-15 57v31q0 51 30.5 82t81.5 31h52q50 0 81 -31t31 -82v-41
q0 -11 -11 -11h-29q-11 0 -11 11v37q0 31 -17 49.5t-47 18.5h-47q-30 0 -46.5 -18.5t-16.5 -49.5v-29q0 -37 32 -57l143 -95q25 -16 40 -44.5t15 -57.5zM270 677l-55 -74q-5 -7 -14 -7h-28q-9 0 -14 7l-55 74q-5 7 3 7h27q9 0 14 -8l39 -50l38 50q5 8 14 8h28q8 0 3 -7z" />
    <glyph glyph-name="Tcommaaccent" unicode="&#x162;" 
d="M306 0h-184q-12 0 -12 11v27q0 11 12 11h65v598h-125v-86q0 -11 -11 -11h-27q-11 0 -11 11v128q0 11 11 11h379q11 0 11 -11v-128q0 -11 -11 -11h-26q-12 0 -12 11v86h-125v-598h66q11 0 11 -11v-27q0 -11 -11 -11zM210 -41h24q12 0 9 -13l-24 -81q-3 -10 -14 -10h-12
q-11 0 -9 10l12 81q2 13 14 13z" />
    <glyph glyph-name="tcommaaccent" unicode="&#x163;" horiz-adv-x="282" 
d="M16 512v27q0 11 11 11h69v89q0 11 11 11h29q11 0 11 -11v-89h98q11 0 11 -11v-27q0 -11 -11 -11h-98v-394q0 -28 17 -45t44 -17h37q11 0 11 -11v-27q0 -11 -11 -11h-37q-50 0 -81 31t-31 82v392h-69q-11 0 -11 11zM143 -135l12 81q2 13 14 13h24q12 0 9 -13l-24 -81
q-3 -10 -14 -10h-12q-11 0 -9 10z" />
    <glyph glyph-name="Tcaron" unicode="&#x164;" 
d="M187 49v598h-125v-86q0 -11 -11 -11h-27q-11 0 -11 11v128q0 11 11 11h379q11 0 11 -11v-128q0 -11 -11 -11h-26q-12 0 -12 11v86h-125v-598h66q11 0 11 -11v-27q0 -11 -11 -11h-184q-12 0 -12 11v27q0 11 12 11h65zM134 834h27q9 0 14 -8l39 -50l37 50q5 8 15 8h27
q9 0 4 -7l-55 -74q-5 -7 -15 -7h-27q-8 0 -15 7l-55 74q-4 7 4 7z" />
    <glyph glyph-name="tcaron" unicode="&#x165;" horiz-adv-x="282" 
d="M16 512v27q0 11 11 11h69v89q0 11 11 11h29q11 0 11 -11v-89h98q11 0 11 -11v-27q0 -11 -11 -11h-98v-394q0 -28 17 -45t44 -17h37q11 0 11 -11v-27q0 -11 -11 -11h-37q-50 0 -81 31t-31 82v392h-69q-11 0 -11 11zM213 611l14 89q0 13 14 13h28q12 0 9 -12l-26 -90
q-4 -11 -14 -11h-16q-11 0 -9 11z" />
    <glyph glyph-name="Tbar" unicode="&#x166;" 
d="M187 647h-125v-86q0 -11 -11 -11h-27q-11 0 -11 11v128q0 11 11 11h379q11 0 11 -11v-128q0 -11 -11 -11h-26q-12 0 -12 11v86h-125v-264h81q11 0 11 -12v-22q0 -11 -11 -11h-81v-289h66q11 0 11 -11v-27q0 -11 -11 -11h-184q-12 0 -12 11v27q0 11 12 11h65v289h-80
q-12 0 -12 11v22q0 12 12 12h80v264z" />
    <glyph glyph-name="tbar" unicode="&#x167;" horiz-adv-x="282" 
d="M27 339v22q0 9 9 9h60v131h-69q-11 0 -11 11v27q0 11 11 11h69v89q0 11 11 11h29q11 0 11 -11v-89h98q11 0 11 -11v-27q0 -11 -11 -11h-98v-131h91q10 0 10 -9v-22q0 -9 -10 -9h-91v-223q0 -28 17 -45t44 -17h37q11 0 11 -11v-27q0 -11 -11 -11h-37q-50 0 -81 31t-31 82
v221h-60q-9 0 -9 9z" />
    <glyph glyph-name="Utilde" unicode="&#x168;" horiz-adv-x="498" 
d="M284 662v27q0 11 11 11h179q11 0 11 -11v-27q0 -11 -11 -11h-65v-536q0 -53 -33 -86t-86 -33h-82q-53 0 -85.5 33t-32.5 86v536h-66q-11 0 -11 11v27q0 11 11 11h179q12 0 12 -11v-27q0 -11 -12 -11h-60v-538q0 -29 17.5 -46t45.5 -17h86q28 0 45.5 17t17.5 46v538h-60
q-11 0 -11 11zM168 761v24q0 13 18.5 22t32.5 9q10 0 22 -6l23 -12q7 -4 14 -4q11 0 39 18l4 2q4 0 4 -6v-23q0 -13 -18.5 -21.5t-32.5 -8.5q-13 0 -22 5l-24 13q-5 4 -13 4q-13 0 -40 -20q-1 -1 -4 -1t-3 5z" />
    <glyph glyph-name="utilde" unicode="&#x169;" horiz-adv-x="482" 
d="M340 108v395h-57q-11 0 -11 11v25q0 11 11 11h97q12 0 12 -11v-492h60q11 0 11 -11v-25q0 -11 -11 -11h-100q-12 0 -12 11v42q-86 -60 -146 -60q-43 0 -72 31.5t-29 81.5v397h-61q-11 0 -11 11v25q0 11 11 11h101q11 0 11 -11v-433q0 -30 17.5 -47t44.5 -17q52 0 134 66z
M152 607q-1 -1 -4 -1t-3 5v24q0 13 18.5 22t32.5 9q12 0 22 -6l23 -12q7 -4 14 -4q11 0 39 18l4 2q4 0 4 -6v-23q0 -13 -18.5 -21.5t-32.5 -8.5q-13 0 -22 5l-24 13q-5 4 -13 4q-12 0 -40 -20z" />
    <glyph glyph-name="Umacron" unicode="&#x16a;" horiz-adv-x="498" 
d="M284 662v27q0 11 11 11h179q11 0 11 -11v-27q0 -11 -11 -11h-65v-536q0 -53 -33 -86t-86 -33h-82q-53 0 -85.5 33t-32.5 86v536h-66q-11 0 -11 11v27q0 11 11 11h179q12 0 12 -11v-27q0 -11 -12 -11h-60v-538q0 -29 17.5 -46t45.5 -17h86q28 0 45.5 17t17.5 46v538h-60
q-11 0 -11 11zM170 770v20q0 10 9 10h140q9 0 9 -10v-20q0 -9 -9 -9h-140q-9 0 -9 9z" />
    <glyph glyph-name="umacron" unicode="&#x16b;" horiz-adv-x="482" 
d="M340 11v42q-86 -60 -146 -60q-43 0 -72 31.5t-29 81.5v397h-61q-11 0 -11 11v25q0 11 11 11h101q11 0 11 -11v-433q0 -30 17.5 -47t44.5 -17q52 0 134 66v395h-57q-11 0 -11 11v25q0 11 11 11h97q12 0 12 -11v-492h60q11 0 11 -11v-25q0 -11 -11 -11h-100q-12 0 -12 11z
M296 611h-140q-9 0 -9 9v20q0 10 9 10h140q9 0 9 -10v-20q0 -9 -9 -9z" />
    <glyph glyph-name="Ubreve" unicode="&#x16c;" horiz-adv-x="498" 
d="M284 662v27q0 11 11 11h179q11 0 11 -11v-27q0 -11 -11 -11h-65v-536q0 -53 -33 -86t-86 -33h-82q-53 0 -85.5 33t-32.5 86v536h-66q-11 0 -11 11v27q0 11 11 11h179q12 0 12 -11v-27q0 -11 -12 -11h-60v-538q0 -29 17.5 -46t45.5 -17h86q28 0 45.5 17t17.5 46v538h-60
q-11 0 -11 11zM331 814v-8q-1 -28 -18.5 -45t-45.5 -17h-36q-28 0 -45.5 17t-18.5 45v8q0 9 9 9h20q8 0 10 -9l1 -12q2 -22 24 -22h36q22 0 24 22l1 12q0 9 10 9h20q9 0 9 -9z" />
    <glyph glyph-name="ubreve" unicode="&#x16d;" horiz-adv-x="482" 
d="M272 514v25q0 11 11 11h97q12 0 12 -11v-492h60q11 0 11 -11v-25q0 -11 -11 -11h-100q-12 0 -12 11v42q-86 -60 -146 -60q-43 0 -72 31.5t-29 81.5v397h-61q-11 0 -11 11v25q0 11 11 11h101q11 0 11 -11v-433q0 -30 17.5 -47t44.5 -17q52 0 134 66v395h-57q-11 0 -11 11z
M144 656v8q0 9 9 9h20q9 0 10 -9l1 -12q2 -22 24 -22h36q22 0 24 22l1 12q1 9 10 9h20q9 0 9 -9v-8q-1 -28 -18.5 -45t-45.5 -17h-36q-28 0 -45.5 17t-18.5 45z" />
    <glyph glyph-name="Uring" unicode="&#x16e;" horiz-adv-x="498" 
d="M218 801q0 -13 9 -22t22 -9t22.5 9t9.5 22t-9.5 22.5t-22.5 9.5t-22 -9.5t-9 -22.5zM284 662v27q0 11 11 11h179q11 0 11 -11v-27q0 -11 -11 -11h-65v-536q0 -53 -33 -86t-86 -33h-82q-53 0 -85.5 33t-32.5 86v536h-66q-11 0 -11 11v27q0 11 11 11h179q12 0 12 -11v-27
q0 -11 -12 -11h-60v-538q0 -29 17.5 -46t45.5 -17h86q28 0 45.5 17t17.5 46v538h-60q-11 0 -11 11zM187 801q0 26 18 44.5t44 18.5t44.5 -18.5t18.5 -44.5t-18.5 -44t-44.5 -18q-25 0 -43.5 18.5t-18.5 43.5z" />
    <glyph glyph-name="uring" unicode="&#x16f;" horiz-adv-x="482" 
d="M195 651q0 -13 9 -22t22 -9t22.5 9t9.5 22t-9 22.5t-23 9.5q-13 0 -22 -9.5t-9 -22.5zM452 0h-100q-12 0 -12 11v42q-86 -60 -146 -60q-43 0 -72 31.5t-29 81.5v397h-61q-11 0 -11 11v25q0 11 11 11h101q11 0 11 -11v-433q0 -30 17.5 -47t44.5 -17q52 0 134 66v395h-57
q-11 0 -11 11v25q0 11 11 11h97q12 0 12 -11v-492h60q11 0 11 -11v-25q0 -11 -11 -11zM164 651q0 26 18 44.5t44 18.5t44.5 -18.5t18.5 -44.5t-18.5 -44t-44.5 -18t-44 18.5t-18 43.5z" />
    <glyph glyph-name="Uhungarumlaut" unicode="&#x170;" horiz-adv-x="498" 
d="M284 662v27q0 11 11 11h179q11 0 11 -11v-27q0 -11 -11 -11h-65v-536q0 -53 -33 -86t-86 -33h-82q-53 0 -85.5 33t-32.5 86v536h-66q-11 0 -11 11v27q0 11 11 11h179q12 0 12 -11v-27q0 -11 -12 -11h-60v-538q0 -29 17.5 -46t45.5 -17h86q28 0 45.5 17t17.5 46v538h-60
q-11 0 -11 11zM183 751l43 73q5 8 13 8h39q9 0 4 -7l-58 -74q-7 -7 -15 -7h-22q-9 0 -4 7zM280 751l45 73q5 8 13 8h39q10 0 3 -7l-59 -74q-7 -7 -15 -7h-22q-9 0 -4 7z" />
    <glyph glyph-name="uhungarumlaut" unicode="&#x171;" horiz-adv-x="482" 
d="M272 514v25q0 11 11 11h97q12 0 12 -11v-492h60q11 0 11 -11v-25q0 -11 -11 -11h-100q-12 0 -12 11v42q-86 -60 -146 -60q-43 0 -72 31.5t-29 81.5v397h-61q-11 0 -11 11v25q0 11 11 11h101q11 0 11 -11v-433q0 -30 17.5 -47t44.5 -17q52 0 134 66v395h-57q-11 0 -11 11z
M186 594h-22q-9 0 -4 7l44 73q3 8 12 8h39q9 0 4 -7l-58 -74q-7 -7 -15 -7zM283 594h-22q-9 0 -4 7l45 73q5 8 13 8h39q10 0 3 -7l-59 -74q-7 -7 -15 -7z" />
    <glyph glyph-name="Uogonek" unicode="&#x172;" horiz-adv-x="498" 
d="M262 -84q0 42 28 80h-82q-53 0 -85.5 33t-32.5 86v536h-66q-11 0 -11 11v27q0 11 11 11h179q12 0 12 -11v-27q0 -11 -12 -11h-60v-538q0 -29 17.5 -46t45.5 -17h86q28 0 45.5 17t17.5 46v538h-60q-11 0 -11 11v27q0 11 11 11h179q11 0 11 -11v-27q0 -11 -11 -11h-65v-536
q0 -43 -22 -73t-60 -41q-28 -42 -31 -75q-2 -17 13 -17h43q9 0 9 -9v-14q0 -9 -9 -9h-51q-18 0 -28.5 11t-10.5 28z" />
    <glyph glyph-name="uogonek" unicode="&#x173;" horiz-adv-x="482" 
d="M398 -74q-2 -17 14 -17h42q9 0 9 -9v-14q0 -9 -9 -9h-51q-17 0 -28 11t-11 28q0 46 30 84h-42q-12 0 -12 11v42q-86 -60 -146 -60q-43 0 -72 31.5t-29 81.5v397h-61q-11 0 -11 11v25q0 11 11 11h101q11 0 11 -11v-433q0 -30 17.5 -47t44.5 -17q52 0 134 66v395h-57
q-11 0 -11 11v25q0 11 11 11h97q12 0 12 -11v-492h60q11 0 11 -11v-25q0 -11 -11 -11h-23q-28 -40 -31 -74z" />
    <glyph glyph-name="Wcircumflex" unicode="&#x174;" horiz-adv-x="703" 
d="M377 689l91 -547q2 -10 2 -31h2q0 21 2 31l94 509h-53q-11 0 -11 11v27q0 11 11 11h167q11 0 11 -11v-27q0 -11 -11 -11h-60l-127 -640q-2 -11 -13 -11h-21q-11 0 -13 11l-93 535q-2 9 -2 30h-2q0 -21 -2 -30l-93 -535q-2 -11 -13 -11h-21q-12 0 -14 11l-126 640h-61
q-11 0 -11 11v27q0 11 11 11h168q11 0 11 -11v-27q0 -11 -11 -11h-53l93 -509q2 -10 2 -31h2q0 21 2 31l92 547q2 11 13 11h24q11 0 13 -11zM381 826l54 -73q4 -7 -3 -7h-28q-9 0 -14 7l-38 50l-38 -50q-7 -7 -15 -7h-26q-8 0 -4 7l55 73q5 8 14 8h28q9 0 15 -8z" />
    <glyph glyph-name="wcircumflex" unicode="&#x175;" horiz-adv-x="645" 
d="M182 503h-51l76 -393q2 -10 2 -33h2q0 18 3 33l83 429q2 11 13 11h25q11 0 13 -11l84 -429q2 -10 2 -33h2q0 23 3 33l75 393h-51q-12 0 -12 11v25q0 11 12 11h160q12 0 12 -11v-25q0 -11 -12 -11h-57l-104 -492q-3 -11 -14 -11h-26q-11 0 -14 11l-82 409q-3 15 -3 34h-2
q0 -24 -2 -34l-82 -409q-3 -11 -14 -11h-26q-11 0 -14 11l-104 492h-58q-11 0 -11 11v25q0 11 11 11h161q11 0 11 -11v-25q0 -11 -11 -11zM351 676l55 -73q4 -7 -4 -7h-27q-10 0 -15 7l-37 50l-39 -50q-5 -7 -14 -7h-27q-7 0 -4 7l55 73q6 8 15 8h27q10 0 15 -8z" />
    <glyph glyph-name="Ycircumflex" unicode="&#x176;" horiz-adv-x="487" 
d="M249 376l100 275h-42q-12 0 -12 11v27q0 11 12 11h159q11 0 11 -11v-27q0 -11 -11 -11h-62l-134 -369v-233h66q11 0 11 -11v-27q0 -11 -11 -11h-185q-11 0 -11 11v27q0 11 11 11h66v233l-135 369h-61q-11 0 -11 11v27q0 11 11 11h160q11 0 11 -11v-27q0 -11 -11 -11h-43
l100 -275q5 -15 5 -30h2q0 18 4 30zM272 826l55 -73q4 -7 -4 -7h-27q-8 0 -15 7l-37 50l-39 -50q-5 -7 -14 -7h-27q-7 0 -3 7l54 73q6 8 15 8h28q9 0 14 -8z" />
    <glyph glyph-name="ycircumflex" unicode="&#x177;" horiz-adv-x="458" 
d="M178 503h-47l94 -387q3 -10 3 -33h2q0 18 3 33l94 387h-46q-12 0 -12 11v25q0 11 12 11h156q11 0 11 -11v-25q0 -11 -11 -11h-58l-159 -642q-3 -11 -14 -11h-94q-12 0 -12 11v25q0 11 12 11h67l26 104l-126 502h-58q-11 0 -11 11v25q0 11 11 11h157q11 0 11 -11v-25
q0 -11 -11 -11zM176 618h-27q-8 0 -3 7l55 74q5 7 14 7h28q8 0 15 -7l54 -74q5 -7 -3 -7h-28q-9 0 -14 8l-38 49l-38 -50q-7 -7 -15 -7z" />
    <glyph glyph-name="Ydieresis" unicode="&#x178;" horiz-adv-x="487" 
d="M249 376l100 275h-42q-12 0 -12 11v27q0 11 12 11h159q11 0 11 -11v-27q0 -11 -11 -11h-62l-134 -369v-233h66q11 0 11 -11v-27q0 -11 -11 -11h-185q-11 0 -11 11v27q0 11 11 11h66v233l-135 369h-61q-11 0 -11 11v27q0 11 11 11h160q11 0 11 -11v-27q0 -11 -11 -11h-43
l100 -275q5 -15 5 -30h2q0 18 4 30zM162 769v21q0 18 17 18h22q17 0 17 -18v-21q0 -17 -17 -17h-22q-17 0 -17 17zM272 769v21q0 18 17 18h22q17 0 17 -18v-21q0 -17 -17 -17h-22q-17 0 -17 17z" />
    <glyph glyph-name="Zacute" unicode="&#x179;" horiz-adv-x="382" 
d="M346 139v-128q0 -11 -11 -11h-287q-11 0 -11 11v31q0 8 4 22l251 583h-200v-86q0 -11 -11 -11h-27q-11 0 -11 11v128q0 11 11 11h285q11 0 11 -11v-31q0 -10 -5 -22l-250 -583h202v86q0 11 11 11h27q11 0 11 -11zM161 751l44 73q5 8 13 8h45q10 0 3 -7l-63 -74
q-6 -7 -16 -7h-21q-8 0 -5 7z" />
    <glyph glyph-name="zacute" unicode="&#x17a;" horiz-adv-x="371" 
d="M48 438v101q0 11 11 11h260q11 0 11 -11v-27q0 -11 -5 -21l-222 -442h181v64q0 11 11 11h27q11 0 11 -11v-102q0 -11 -11 -11h-265q-12 0 -12 11v27q0 9 6 21l222 442h-176v-63q0 -12 -12 -12h-26q-11 0 -11 12zM159 601l44 73q5 8 13 8h45q10 0 3 -7l-63 -74
q-6 -7 -16 -7h-21q-8 0 -5 7z" />
    <glyph glyph-name="Zdotaccent" unicode="&#x17b;" horiz-adv-x="382" 
d="M346 139v-128q0 -11 -11 -11h-287q-11 0 -11 11v31q0 8 4 22l251 583h-200v-86q0 -11 -11 -11h-27q-11 0 -11 11v128q0 11 11 11h285q11 0 11 -11v-31q0 -10 -5 -22l-250 -583h202v86q0 11 11 11h27q11 0 11 -11zM158 769v26q0 17 17 17h28q17 0 17 -17v-26
q0 -17 -17 -17h-28q-17 0 -17 17z" />
    <glyph glyph-name="zdotaccent" unicode="&#x17c;" horiz-adv-x="371" 
d="M48 438v101q0 11 11 11h260q11 0 11 -11v-27q0 -11 -5 -21l-222 -442h181v64q0 11 11 11h27q11 0 11 -11v-102q0 -11 -11 -11h-265q-12 0 -12 11v27q0 9 6 21l222 442h-176v-63q0 -12 -12 -12h-26q-11 0 -11 12zM156 619v26q0 17 17 17h28q17 0 17 -17v-26q0 -17 -17 -17
h-28q-17 0 -17 17z" />
    <glyph glyph-name="Zcaron" unicode="&#x17d;" horiz-adv-x="382" 
d="M346 139v-128q0 -11 -11 -11h-287q-11 0 -11 11v31q0 8 4 22l251 583h-200v-86q0 -11 -11 -11h-27q-11 0 -11 11v128q0 11 11 11h285q11 0 11 -11v-31q0 -10 -5 -22l-250 -583h202v86q0 11 11 11h27q11 0 11 -11zM272 827l-54 -74q-7 -7 -15 -7h-28q-9 0 -14 7l-55 74
q-5 7 4 7h26q9 0 15 -8l38 -50l38 50q5 8 14 8h28q8 0 3 -7z" />
    <glyph glyph-name="zcaron" unicode="&#x17e;" horiz-adv-x="371" 
d="M48 438v101q0 11 11 11h260q11 0 11 -11v-27q0 -11 -5 -21l-222 -442h181v64q0 11 11 11h27q11 0 11 -11v-102q0 -11 -11 -11h-265q-12 0 -12 11v27q0 9 6 21l222 442h-176v-63q0 -12 -12 -12h-26q-11 0 -11 12zM270 677l-55 -74q-5 -7 -14 -7h-28q-9 0 -14 7l-55 74
q-5 7 3 7h27q9 0 14 -8l39 -50l38 50q5 8 14 8h28q8 0 3 -7z" />
    <glyph glyph-name="uni018F" unicode="&#x18f;" horiz-adv-x="433" 
d="M318 112v199h-211v-199q0 -28 17 -45t46 -17h84q29 0 46.5 17t17.5 45zM54 538v47q0 53 32.5 86t86.5 33h79q53 0 86 -33t33 -86v-470q0 -53 -33 -86t-86 -33h-79q-54 0 -86.5 32.5t-32.5 85.5v239q0 11 11 11h253v222q0 29 -17.5 47t-46.5 18h-84q-28 0 -45.5 -17.5
t-17.5 -46.5v-49q0 -11 -11 -11h-31q-11 0 -11 11z" />
    <glyph glyph-name="florin" unicode="&#x192;" horiz-adv-x="260" 
d="M18 412l5 27q2 11 12 11h69l25 138q9 50 45.5 81t86.5 31h27q11 0 9 -11l-5 -27q-2 -11 -13 -11h-27q-27 0 -47 -17t-25 -44l-24 -140h83q12 0 10 -11l-5 -27q-2 -11 -13 -11h-84l-95 -540q-2 -11 -13 -11h-29q-12 0 -9 11l95 540h-69q-11 0 -9 11z" />
    <glyph glyph-name="uni01DD" unicode="&#x1dd;" horiz-adv-x="395" 
d="M164 45h61q28 0 45 16.5t17 43.5v147h-184v-147q0 -27 16.5 -43.5t44.5 -16.5zM63 301h224v141q0 28 -17 45.5t-45 17.5h-61q-28 0 -44.5 -17t-16.5 -45v-34q0 -11 -11 -11h-29q-11 0 -11 11v32q0 51 31 82t81 31h61q51 0 82 -31t31 -82v-332q0 -51 -31 -82t-82 -31h-61
q-50 0 -81 31t-31 81v182q0 11 11 11z" />
    <glyph glyph-name="Aringacute" unicode="&#x1fa;" horiz-adv-x="517" 
d="M172 203h174l-84 369q-2 9 -2 30h-2q0 -21 -2 -30zM226 763q0 -13 9 -22.5t22 -9.5t22.5 9.5t9.5 22.5t-9.5 22.5t-22.5 9.5t-22 -9.5t-9 -22.5zM358 153h-198l-23 -104h49q11 0 11 -11v-27q0 -11 -11 -11h-165q-11 0 -11 11v27q0 11 11 11h61l152 640q2 11 14 11h22
q11 0 14 -11l152 -640h60q11 0 11 -11v-27q0 -11 -11 -11h-163q-12 0 -12 11v27q0 11 12 11h48zM316 783q4 -12 4 -20q0 -26 -18.5 -44.5t-44.5 -18.5q-25 0 -43.5 18.5t-18.5 44.5t18 44t44 18q23 0 39 -13l31 51q3 7 13 7h45q8 0 3 -7l-64 -74q-2 -2 -8 -6z" />
    <glyph glyph-name="aringacute" unicode="&#x1fb;" horiz-adv-x="432" 
d="M293 100v161q-81 18 -119 18q-30 0 -49 -18.5t-19 -48.5v-110q0 -28 18 -44t44 -16q44 0 125 58zM176 635q0 -13 9 -22t22 -9t22.5 9t9.5 22t-9.5 22.5t-22.5 9.5t-22 -9.5t-9 -22.5zM344 47h58q11 0 11 -11v-25q0 -11 -11 -11h-98q-11 0 -11 11v35q-82 -53 -136 -53
q-43 0 -72.5 30.5t-29.5 79.5v109q0 50 31 81.5t81 31.5q47 0 126 -17v129q0 31 -17 49.5t-47 18.5h-55q-30 0 -46.5 -18.5t-16.5 -49.5v-26q0 -11 -11 -11h-29q-11 0 -11 11v30q0 51 31 82t81 31h59q51 0 82 -31t31 -82v-394zM229 694l34 57q5 8 13 8h45q10 0 3 -7l-63 -74
q9 -34 9 -43q0 -26 -18.5 -44t-44.5 -18q-25 0 -43.5 18.5t-18.5 43.5q0 26 18 44.5t44 18.5q13 0 22 -4z" />
    <glyph glyph-name="AEacute" unicode="&#x1fc;" horiz-adv-x="655" 
d="M349 586l-151 -380h156v379q0 6 2 17.5t2 13.5h-2q-5 -25 -7 -30zM10 11v27q0 11 11 11h60l254 640q4 11 14 11h269q11 0 11 -11v-128q0 -11 -11 -11h-27q-11 0 -11 11v86h-172v-296h144q11 0 11 -11v-31q0 -11 -11 -11h-144v-245h172v86q0 11 11 11h27q11 0 11 -11v-128
q0 -11 -11 -11h-252q-12 0 -12 11v142h-175l-41 -104h46q11 0 11 -11v-27q0 -11 -11 -11h-163q-11 0 -11 11zM395 744h-21q-8 0 -5 7l44 73q5 8 13 8h45q10 0 3 -7l-63 -74q-6 -7 -16 -7z" />
    <glyph glyph-name="aeacute" unicode="&#x1fd;" horiz-adv-x="628" 
d="M290 109v152q-81 18 -119 18q-30 0 -49 -18.5t-19 -48.5v-110q0 -28 18 -44t44 -16q47 0 125 58v9zM463 505h-61q-28 0 -44.5 -16.5t-16.5 -43.5v-147h184v147q0 27 -17 43.5t-45 16.5zM565 249h-224v-141q0 -29 16.5 -46t44.5 -17h61q28 0 45 17t17 45v34q0 12 11 12h29
q11 0 11 -12v-32q0 -51 -31 -82t-82 -31h-61q-70 0 -99 55q-87 -58 -146 -58q-44 0 -74.5 30.5t-30.5 79.5v109q0 50 31 81.5t81 31.5q47 0 126 -17v129q0 31 -17 49.5t-47 18.5h-55q-30 0 -46.5 -18.5t-16.5 -49.5v-26q0 -11 -11 -11h-29q-11 0 -11 11v30q0 51 31 82t81 31
h59q55 0 87 -37q32 37 87 37h61q51 0 82 -30.5t31 -80.5v-183q0 -11 -11 -11zM286 601l44 73q5 8 13 8h45q10 0 3 -7l-63 -74q-6 -7 -16 -7h-21q-9 0 -5 7z" />
    <glyph glyph-name="Oslashacute" unicode="&#x1fe;" horiz-adv-x="451" 
d="M128 73l166 574q-12 4 -22 4h-93q-28 0 -45.5 -17.5t-17.5 -46.5v-474q0 -25 12 -40zM323 628l-166 -575q11 -3 22 -3h93q28 0 45.5 17t17.5 46v474q0 25 -12 41zM97 -35l15 50q-49 33 -49 100v470q0 53 32.5 86t85.5 33h89q21 0 39 -6l13 46q4 6 11 6l16 -4q9 -4 5 -11
l-15 -50q50 -32 50 -100v-470q0 -53 -33 -86t-86 -33h-89q-21 0 -39 6l-13 -47q-4 -5 -10 -5l-16 5q-8 2 -6 10zM198 751l44 73q3 8 13 8h45q8 0 3 -7l-64 -74q-4 -7 -15 -7h-22q-8 0 -4 7z" />
    <glyph glyph-name="oslashacute" unicode="&#x1ff;" horiz-adv-x="411" 
d="M119 70l149 430q-13 5 -27 5h-71q-28 0 -44.5 -17t-16.5 -45v-336q0 -23 10 -37zM292 480l-149 -430q13 -5 27 -5h71q28 0 45 17t17 45v336q0 21 -11 37zM82 -35l18 52q-42 30 -42 92v332q0 51 31 82t81 31h71q19 0 44 -7l16 48q2 5 10 5l13 -4q7 -3 5 -10l-18 -53
q43 -30 43 -92v-332q0 -51 -31 -82t-82 -31h-71q-20 0 -43 7l-17 -48q-2 -5 -10 -5l-12 5q-8 2 -6 10zM178 601l44 73q3 8 13 8h45q8 0 3 -7l-64 -74q-4 -7 -15 -7h-22q-8 0 -4 7z" />
    <glyph glyph-name="Scommaaccent" unicode="&#x218;" horiz-adv-x="392" 
d="M48 513v72q0 53 32.5 86t85.5 33h62q53 0 86 -33t33 -86v-70q0 -12 -12 -12h-30q-12 0 -12 12v72q0 29 -17.5 46.5t-45.5 17.5h-66q-28 0 -45.5 -17.5t-17.5 -46.5v-73q0 -35 26 -58l180 -162q43 -38 43 -96v-83q0 -54 -33 -86.5t-86 -32.5h-72q-53 0 -86 32.5t-33 86.5
v70q0 11 12 11h31q11 0 11 -11v-72q0 -29 17 -46t46 -17h76q29 0 46.5 17.5t17.5 45.5v84q0 34 -26 58l-180 161q-43 40 -43 97zM161 -135l12 81q2 13 15 13h23q12 0 9 -13l-24 -81q-3 -10 -14 -10h-12q-11 0 -9 10z" />
    <glyph glyph-name="scommaaccent" unicode="&#x219;" horiz-adv-x="374" 
d="M330 154v-45q0 -50 -31 -81.5t-81 -31.5h-62q-50 0 -81 31t-31 82v41q0 11 11 11h29q11 0 11 -11v-37q0 -31 16.5 -49.5t46.5 -18.5h57q30 0 47 18.5t17 49.5v43q0 37 -32 57l-143 96q-25 16 -40 44t-15 57v31q0 51 30.5 82t81.5 31h52q50 0 81 -31t31 -82v-41
q0 -11 -11 -11h-29q-11 0 -11 11v37q0 31 -17 49.5t-47 18.5h-47q-30 0 -46.5 -18.5t-16.5 -49.5v-29q0 -37 32 -57l143 -95q25 -16 40 -44.5t15 -57.5zM161 -135l12 81q2 13 15 13h23q14 0 9 -13l-24 -81q-3 -10 -14 -10h-12q-11 0 -9 10z" />
    <glyph glyph-name="uni021A" unicode="&#x21a;" 
d="M306 0h-184q-12 0 -12 11v27q0 11 12 11h65v598h-125v-86q0 -11 -11 -11h-27q-11 0 -11 11v128q0 11 11 11h379q11 0 11 -11v-128q0 -11 -11 -11h-26q-12 0 -12 11v86h-125v-598h66q11 0 11 -11v-27q0 -11 -11 -11zM210 -41h24q12 0 9 -13l-24 -81q-3 -10 -14 -10h-12
q-11 0 -9 10l12 81q2 13 14 13z" />
    <glyph glyph-name="uni021B" unicode="&#x21b;" horiz-adv-x="282" 
d="M16 512v27q0 11 11 11h69v89q0 11 11 11h29q11 0 11 -11v-89h98q11 0 11 -11v-27q0 -11 -11 -11h-98v-394q0 -28 17 -45t44 -17h37q11 0 11 -11v-27q0 -11 -11 -11h-37q-50 0 -81 31t-31 82v392h-69q-11 0 -11 11zM143 -135l12 81q2 13 14 13h24q12 0 9 -13l-24 -81
q-3 -10 -14 -10h-12q-11 0 -9 10z" />
    <glyph glyph-name="dotlessj" unicode="&#x237;" horiz-adv-x="222" 
d="M0 -139v27q0 11 11 11h27q27 0 44 17t17 44v543h-61q-11 0 -11 11v25q0 11 11 11h101q11 0 11 -11v-577q0 -50 -31 -81t-81 -31h-27q-11 0 -11 11z" />
    <glyph glyph-name="uni0259" unicode="&#x259;" horiz-adv-x="395" 
d="M164 45h61q28 0 45 16.5t17 43.5v147h-184v-147q0 -27 16.5 -43.5t44.5 -16.5zM63 301h224v141q0 28 -17 45.5t-45 17.5h-61q-28 0 -44.5 -17t-16.5 -45v-34q0 -11 -11 -11h-29q-11 0 -11 11v32q0 51 31 82t81 31h61q51 0 82 -31t31 -82v-332q0 -51 -31 -82t-82 -31h-61
q-50 0 -81 31t-31 81v182q0 11 11 11z" />
    <glyph glyph-name="circumflex" unicode="&#x2c6;" horiz-adv-x="244" 
d="M151 781l54 -74q5 -7 -3 -7h-28q-9 0 -14 8l-38 49l-38 -50q-7 -7 -15 -7h-26q-9 0 -4 7l55 74q5 7 14 7h28q8 0 15 -7z" />
    <glyph glyph-name="caron" unicode="&#x2c7;" horiz-adv-x="244" 
d="M205 781l-54 -74q-7 -7 -15 -7h-28q-9 0 -14 7l-55 74q-5 7 4 7h26q8 0 15 -7l38 -50l38 49q5 8 14 8h28q8 0 3 -7z" />
    <glyph glyph-name="breve" unicode="&#x2d8;" horiz-adv-x="239" 
d="M202 768v-8q-1 -28 -19 -45t-46 -17h-35q-28 0 -45.5 17t-18.5 45v8q-2 10 8 10h20q9 0 11 -10l1 -12q0 -10 6.5 -16t16.5 -6h37q10 0 16.5 6t6.5 16l2 12q0 10 10 10h20q9 0 9 -10z" />
    <glyph glyph-name="dotaccent" unicode="&#x2d9;" horiz-adv-x="137" 
d="M38 723v26q0 17 17 17h27q18 0 18 -17v-26q0 -17 -18 -17h-27q-17 0 -17 17z" />
    <glyph glyph-name="ring" unicode="&#x2da;" horiz-adv-x="217" 
d="M46 755q0 26 18 44.5t44 18.5t44.5 -18.5t18.5 -44.5t-18.5 -44t-44.5 -18t-44 18.5t-18 43.5zM77 755q0 -13 9 -22t22 -9t22.5 9t9.5 22t-9 22.5t-23 9.5q-13 0 -22 -9.5t-9 -22.5z" />
    <glyph glyph-name="ogonek" unicode="&#x2db;" horiz-adv-x="189" 
d="M38 -84q0 48 33 88h34q-31 -45 -33 -78q-2 -17 13 -17h43q9 0 9 -9v-14q0 -9 -9 -9h-52q-17 0 -27.5 11t-10.5 28z" />
    <glyph glyph-name="tilde" unicode="&#x2dc;" horiz-adv-x="238" 
d="M38 715v24q0 13 18.5 22t32.5 9q12 0 22 -5l23 -13q7 -4 14 -4q11 0 39 18l4 2q4 0 4 -6v-23q0 -13 -18.5 -21.5t-32.5 -8.5q-12 0 -22 6l-24 12q-5 4 -13 4q-13 0 -40 -20q-1 -1 -4 -1t-3 5z" />
    <glyph glyph-name="hungarumlaut" unicode="&#x2dd;" horiz-adv-x="275" 
d="M39 705l43 73q5 8 13 8h39q10 0 3 -7l-57 -74q-7 -7 -15 -7h-22q-9 0 -4 7zM136 705l45 74q5 7 13 7h39q10 0 3 -7l-60 -74q-5 -7 -15 -7h-21q-9 0 -4 7z" />
    <glyph glyph-name="uni0400" unicode="&#x400;" 
d="M53 49h65v602h-65q-11 0 -11 11v27q0 11 11 11h329q11 0 11 -11v-128q0 -11 -11 -11h-27q-11 0 -11 11v86h-172v-296h144q11 0 11 -11v-31q0 -11 -11 -11h-144v-245h172v86q0 11 11 11h27q11 0 11 -11v-128q0 -11 -11 -11h-329q-11 0 -11 11v27q0 11 11 11zM215 824
l43 -73q5 -7 -4 -7h-22q-9 0 -15 7l-63 74q-7 7 3 7h45q8 0 13 -8z" />
    <glyph glyph-name="afii10023" unicode="&#x401;" 
d="M316 298h-144v-245h172v86q0 11 11 11h27q11 0 11 -11v-128q0 -11 -11 -11h-329q-11 0 -11 11v27q0 11 11 11h65v602h-65q-11 0 -11 11v27q0 11 11 11h329q11 0 11 -11v-128q0 -11 -11 -11h-27q-11 0 -11 11v86h-172v-296h144q11 0 11 -11v-31q0 -11 -11 -11zM187 752
h-21q-17 0 -17 17v21q0 18 17 18h21q18 0 18 -18v-21q0 -17 -18 -17zM315 790v-21q0 -17 -17 -17h-22q-17 0 -17 17v21q0 18 17 18h22q17 0 17 -18z" />
    <glyph glyph-name="afii10051" unicode="&#x402;" horiz-adv-x="552" 
d="M240 647v-243h135q54 0 86.5 -33t32.5 -86v-168q0 -54 -32.5 -86.5t-86.5 -32.5h-22q-11 0 -11 11v31q0 11 11 11h24q29 0 46.5 17.5t17.5 46.5v172q0 28 -17.5 45.5t-46.5 17.5h-137v-301h57q11 0 11 -11v-27q0 -11 -11 -11h-175q-12 0 -12 11v27q0 11 12 11h65v598
h-125v-86q0 -11 -11 -11h-27q-11 0 -11 11v128q0 11 11 11h379q11 0 11 -11v-128q0 -11 -11 -11h-26q-12 0 -12 11v86h-125z" />
    <glyph glyph-name="afii10052" unicode="&#x403;" horiz-adv-x="390" 
d="M247 0h-194q-11 0 -11 11v27q0 11 11 11h65v602h-65q-11 0 -11 11v27q0 11 11 11h313q12 0 12 -11v-128q0 -11 -12 -11h-26q-12 0 -12 11v86h-156v-598h75q11 0 11 -11v-27q0 -11 -11 -11zM221 744h-22q-9 0 -4 7l43 73q5 8 13 8h45q10 0 3 -7l-63 -74q-6 -7 -15 -7z" />
    <glyph glyph-name="afii10053" unicode="&#x404;" horiz-adv-x="423" 
d="M270 326h-154v-213q0 -29 17 -46t46 -17h78q29 0 46 17t17 46v72q0 12 12 12h31q11 0 11 -12v-70q0 -53 -33 -86t-86 -33h-74q-53 0 -85.5 33t-32.5 86v470q0 53 32.5 86t85.5 33h74q53 0 86 -33t33 -86v-70q0 -12 -11 -12h-31q-12 0 -12 12v72q0 29 -17.5 46.5
t-45.5 17.5h-78q-28 0 -45.5 -17.5t-17.5 -46.5v-209h154q12 0 12 -12v-28q0 -12 -12 -12z" />
    <glyph glyph-name="afii10054" unicode="&#x405;" horiz-adv-x="392" 
d="M48 513v72q0 53 32.5 86t85.5 33h62q53 0 86 -33t33 -86v-70q0 -12 -12 -12h-30q-12 0 -12 12v72q0 29 -17.5 46.5t-45.5 17.5h-66q-28 0 -45.5 -17.5t-17.5 -46.5v-73q0 -35 26 -58l180 -162q43 -38 43 -96v-83q0 -54 -33 -86.5t-86 -32.5h-72q-53 0 -86 32.5t-33 86.5
v70q0 11 12 11h31q11 0 11 -11v-72q0 -29 17 -46t46 -17h76q29 0 46.5 17.5t17.5 45.5v84q0 34 -26 58l-180 161q-43 40 -43 97z" />
    <glyph glyph-name="afii10055" unicode="&#x406;" horiz-adv-x="290" 
d="M42 11v27q0 11 11 11h65v602h-65q-11 0 -11 11v27q0 11 11 11h184q11 0 11 -11v-27q0 -11 -11 -11h-65v-602h65q11 0 11 -11v-27q0 -11 -11 -11h-184q-11 0 -11 11z" />
    <glyph glyph-name="afii10056" unicode="&#x407;" horiz-adv-x="290" 
d="M42 11v27q0 11 11 11h65v602h-65q-11 0 -11 11v27q0 11 11 11h184q11 0 11 -11v-27q0 -11 -11 -11h-65v-602h65q11 0 11 -11v-27q0 -11 -11 -11h-184q-11 0 -11 11zM63 769v21q0 18 17 18h22q17 0 17 -18v-21q0 -17 -17 -17h-22q-17 0 -17 17zM173 769v21q0 18 18 18h21
q17 0 17 -18v-21q0 -17 -17 -17h-21q-18 0 -18 17z" />
    <glyph glyph-name="afii10057" unicode="&#x408;" horiz-adv-x="408" 
d="M74 159v-46q0 -28 17.5 -45.5t46.5 -17.5h66q29 0 46.5 17.5t17.5 45.5v538h-82q-11 0 -11 11v27q0 11 11 11h200q12 0 12 -11v-27q0 -11 -12 -11h-65v-536q0 -53 -33 -86t-86 -33h-62q-54 0 -86.5 33t-32.5 86v44q0 11 11 11h31q11 0 11 -11z" />
    <glyph glyph-name="afii10058" unicode="&#x409;" horiz-adv-x="687" 
d="M525 349h-125v-296h125q29 0 46.5 17.5t17.5 46.5v169q0 28 -17.5 45.5t-46.5 17.5zM473 689v-27q0 -11 -11 -11h-62v-248h123q53 0 86 -33t33 -86v-165q0 -53 -33 -86t-86 -33h-237q-11 0 -11 11v27q0 11 11 11h60v598h-154l-36 -538q-7 -113 -101 -113h-30
q-12 0 -12 11v29q0 11 12 11h21q52 0 57 68l36 536h-62q-12 0 -12 11v27q0 11 12 11h385q11 0 11 -11z" />
    <glyph glyph-name="afii10059" unicode="&#x40a;" horiz-adv-x="717" 
d="M556 335h-126v-282h126q28 0 45.5 17.5t17.5 46.5v155q0 28 -17.5 45.5t-45.5 17.5zM243 38v-27q0 -11 -11 -11h-179q-11 0 -11 11v27q0 11 11 11h65v602h-65q-11 0 -11 11v27q0 11 11 11h179q11 0 11 -11v-27q0 -11 -11 -11h-60v-263h205v263h-60q-12 0 -12 11v27
q0 11 12 11h176q11 0 11 -11v-27q0 -11 -11 -11h-63v-263h124q53 0 86 -32.5t33 -85.5v-151q0 -53 -33 -86t-86 -33h-237q-12 0 -12 11v27q0 11 12 11h60v286h-205v-286h60q11 0 11 -11z" />
    <glyph glyph-name="afii10060" unicode="&#x40b;" horiz-adv-x="592" 
d="M13 561v128q0 11 11 11h379q11 0 11 -11v-128q0 -11 -11 -11h-26q-12 0 -12 11v86h-125v-243h135q54 0 86.5 -33t32.5 -86v-236h66q11 0 11 -11v-27q0 -11 -11 -11h-180q-11 0 -11 11v27q0 11 11 11h61v238q0 28 -17.5 45.5t-46.5 17.5h-137v-301h61q11 0 11 -11v-27
q0 -11 -11 -11h-179q-12 0 -12 11v27q0 11 12 11h65v598h-125v-86q0 -11 -11 -11h-27q-11 0 -11 11z" />
    <glyph glyph-name="afii10061" unicode="&#x40c;" horiz-adv-x="499" 
d="M53 49h65v602h-65q-11 0 -11 11v27q0 11 11 11h179q11 0 11 -11v-27q0 -11 -11 -11h-60v-265h47l141 304q5 10 16 10h89q10 0 10 -11v-27q0 -11 -12 -11h-62l-135 -292l149 -310h63q11 0 11 -11v-27q0 -9 -9 -11h-88q-12 0 -17 10l-156 323h-47v-284h60q11 0 11 -11v-27
q0 -11 -11 -11h-179q-11 0 -11 11v27q0 11 11 11zM349 825l-64 -74q-4 -7 -15 -7h-22q-9 0 -4 7l44 73q3 8 12 8h45q9 0 4 -7z" />
    <glyph glyph-name="uni040D" unicode="&#x40d;" horiz-adv-x="553" 
d="M180 215l201 376v60h-60q-11 0 -11 11v27q0 11 11 11h179q11 0 11 -11v-27q0 -11 -11 -11h-65v-602h65q11 0 11 -11v-27q0 -11 -11 -11h-179q-11 0 -11 11v27q0 11 11 11h60v428q0 7 5 30h-1q-6 -19 -12 -28l-201 -377v-53h60q11 0 11 -11v-27q0 -11 -11 -11h-179
q-11 0 -11 11v27q0 11 11 11h65v602h-65q-11 0 -11 11v27q0 11 11 11h179q11 0 11 -11v-27q0 -11 -11 -11h-60v-434q0 -12 -6 -30l2 -1q7 21 12 29zM259 824l44 -73q3 -7 -5 -7h-21q-10 0 -16 7l-63 74q-7 7 3 7h45q8 0 13 -8z" />
    <glyph glyph-name="afii10062" unicode="&#x40e;" horiz-adv-x="512" 
d="M183 651h-45l121 -408q3 -13 3 -30h2q0 17 3 30l107 408h-46q-11 0 -11 11v27q0 11 11 11h163q11 0 11 -11v-27q0 -11 -11 -11h-63l-144 -542q-15 -58 -35.5 -85.5t-65.5 -27.5h-51q-12 0 -12 11v29q0 11 12 11h41q25 0 36 15t20 47l7 28l-152 514h-63q-11 0 -11 11v27
q0 11 11 11h162q12 0 12 -11v-27q0 -11 -12 -11zM162 804v18q-2 9 8 9h22q10 0 10 -9l2 -20q2 -22 24 -22h63q10 0 16.5 6t6.5 16l2 20q0 9 10 9h22q10 0 8 -9v-18q-1 -28 -18.5 -45t-45.5 -17h-66q-28 0 -45.5 17t-18.5 45z" />
    <glyph glyph-name="afii10145" unicode="&#x40f;" horiz-adv-x="548" 
d="M53 49h65v602h-65q-11 0 -11 11v27q0 11 11 11h179q11 0 11 -11v-27q0 -11 -11 -11h-60v-598h204v598h-60q-11 0 -11 11v27q0 11 11 11h179q11 0 11 -11v-27q0 -11 -11 -11h-65v-602h65q11 0 11 -11v-27q0 -11 -11 -11h-194v-119q0 -11 -11 -11h-31q-11 0 -11 11v119
h-195q-11 0 -11 11v27q0 11 11 11z" />
    <glyph glyph-name="afii10017" unicode="&#x410;" horiz-adv-x="521" 
d="M258 572l-85 -369h176l-85 369q-2 9 -2 30h-2q0 -21 -2 -30zM337 49h47l-24 104h-198l-23 -104h47q11 0 11 -11v-27q0 -11 -11 -11h-165q-11 0 -11 11v27q0 11 11 11h64l151 640q2 11 14 11h22q11 0 14 -11l152 -640h62q11 0 11 -11v-27q0 -11 -11 -11h-163q-12 0 -12 11
v27q0 11 12 11z" />
    <glyph glyph-name="afii10018" unicode="&#x411;" horiz-adv-x="452" 
d="M297 349h-125v-296h125q29 0 46.5 17.5t17.5 46.5v169q0 28 -17.5 45.5t-46.5 17.5zM295 0h-242q-11 0 -11 11v27q0 11 11 11h65v602h-65q-11 0 -11 11v27q0 11 11 11h321q11 0 11 -11v-128q0 -11 -11 -11h-26q-12 0 -12 11v86h-164v-244h123q54 0 86.5 -33t32.5 -86
v-165q0 -53 -32.5 -86t-86.5 -33z" />
    <glyph glyph-name="afii10019" unicode="&#x412;" horiz-adv-x="470" 
d="M370 117v156q0 28 -17.5 45.5t-46.5 17.5h-134v-283h134q28 0 46 17.5t18 46.5zM285 647h-113v-259h113q29 0 46.5 17.5t17.5 45.5v132q0 29 -17.5 46.5t-46.5 17.5zM42 11v27q0 11 11 11h65v602h-65q-11 0 -11 11v27q0 11 11 11h230q54 0 86.5 -32.5t32.5 -85.5v-117
q0 -65 -47 -98q32 -12 50 -40.5t18 -66.5v-142q0 -53 -33 -85.5t-86 -32.5h-251q-11 0 -11 11z" />
    <glyph glyph-name="afii10020" unicode="&#x413;" horiz-adv-x="390" 
d="M328 561v86h-156v-598h75q11 0 11 -11v-27q0 -11 -11 -11h-194q-11 0 -11 11v27q0 11 11 11h65v602h-65q-11 0 -11 11v27q0 11 11 11h313q12 0 12 -11v-128q0 -11 -12 -11h-26q-12 0 -12 11z" />
    <glyph glyph-name="afii10021" unicode="&#x414;" horiz-adv-x="488" 
d="M139 53h210v594h-153l-36 -522q-2 -43 -21 -72zM422 -119v119h-356v-119q0 -11 -11 -11h-31q-11 0 -11 11v161q0 11 11 11h44q34 9 39 66l35 532h-62q-11 0 -11 11v27q0 11 11 11h388q11 0 11 -11v-27q0 -11 -11 -11h-65v-598h61q11 0 11 -11v-161q0 -11 -11 -11h-31
q-11 0 -11 11z" />
    <glyph glyph-name="afii10022" unicode="&#x415;" 
d="M172 351h144q11 0 11 -11v-31q0 -11 -11 -11h-144v-245h172v86q0 11 11 11h27q11 0 11 -11v-128q0 -11 -11 -11h-329q-11 0 -11 11v27q0 11 11 11h65v602h-65q-11 0 -11 11v27q0 11 11 11h329q11 0 11 -11v-128q0 -11 -11 -11h-27q-11 0 -11 11v86h-172v-296z" />
    <glyph glyph-name="afii10024" unicode="&#x416;" horiz-adv-x="700" 
d="M376 386h40l145 304q5 10 16 10h88q10 0 10 -11v-27q0 -11 -11 -11h-61l-140 -292l155 -310h60q12 0 12 -11v-27q0 -9 -10 -11h-88q-12 0 -15 10l-160 323h-41v-284h59q11 0 11 -11v-27q0 -11 -11 -11h-170q-11 0 -11 11v27q0 11 11 11h58v284h-40l-160 -323
q-5 -10 -16 -10h-88q-9 2 -9 11v27q0 11 11 11h61l154 310l-139 292h-61q-12 0 -12 11v27q0 11 10 11h89q11 0 16 -10l144 -304h40v265h-58q-11 0 -11 11v27q0 11 11 11h170q11 0 11 -11v-27q0 -11 -11 -11h-59v-265z" />
    <glyph glyph-name="afii10025" unicode="&#x417;" horiz-adv-x="395" 
d="M158 702h67q53 0 86 -32.5t33 -85.5v-119q0 -70 -55 -102q58 -31 58 -103v-144q0 -53 -33 -85.5t-86 -32.5h-75q-54 0 -86.5 32.5t-32.5 86.5v70q0 11 11 11h31q11 0 11 -11v-72q0 -29 17.5 -46.5t45.5 -17.5h80q28 0 46 17.5t18 46.5v158q0 28 -17.5 45.5t-45.5 17.5
h-79q-11 0 -11 12v29q0 11 11 11h75q28 0 45.5 17.5t17.5 46.5v133q0 29 -17.5 46.5t-45.5 17.5h-72q-28 0 -45.5 -17.5t-17.5 -46.5v-72q0 -11 -11 -11h-31q-11 0 -11 11v70q0 54 32.5 86.5t86.5 32.5z" />
    <glyph glyph-name="afii10026" unicode="&#x418;" horiz-adv-x="553" 
d="M180 215l201 376v60h-60q-11 0 -11 11v27q0 11 11 11h179q11 0 11 -11v-27q0 -11 -11 -11h-65v-602h65q11 0 11 -11v-27q0 -11 -11 -11h-179q-11 0 -11 11v27q0 11 11 11h60v428q0 5 6 29l-3 1q-10 -26 -11 -28l-201 -377v-53h60q11 0 11 -11v-27q0 -11 -11 -11h-179
q-11 0 -11 11v27q0 11 11 11h65v602h-65q-11 0 -11 11v27q0 11 11 11h179q11 0 11 -11v-27q0 -11 -11 -11h-60v-434q0 -9 -7 -30l4 -1q8 24 11 29z" />
    <glyph glyph-name="afii10027" unicode="&#x419;" horiz-adv-x="553" 
d="M180 215l201 376v60h-60q-11 0 -11 11v27q0 11 11 11h179q11 0 11 -11v-27q0 -11 -11 -11h-65v-602h65q11 0 11 -11v-27q0 -11 -11 -11h-179q-11 0 -11 11v27q0 11 11 11h60v428q0 7 5 30h-1q-6 -19 -12 -28l-201 -377v-53h60q11 0 11 -11v-27q0 -11 -11 -11h-179
q-11 0 -11 11v27q0 11 11 11h65v602h-65q-11 0 -11 11v27q0 11 11 11h179q11 0 11 -11v-27q0 -11 -11 -11h-60v-434q0 -12 -6 -30l2 -1q7 21 12 29zM373 822v-18q-1 -28 -18.5 -45t-45.5 -17h-66q-28 0 -45.5 17t-18.5 45l-1 18q0 9 9 9h22q10 0 10 -9l2 -20q0 -10 6.5 -16
t16.5 -6h63q22 0 24 22l1 20q2 9 10 9h23q9 0 8 -9z" />
    <glyph glyph-name="afii10028" unicode="&#x41a;" horiz-adv-x="499" 
d="M232 0h-179q-11 0 -11 11v27q0 11 11 11h65v602h-65q-11 0 -11 11v27q0 11 11 11h179q11 0 11 -11v-27q0 -11 -11 -11h-60v-265h46l142 304q5 10 16 10h89q10 0 10 -11v-27q0 -11 -12 -11h-62l-135 -292l149 -310h63q11 0 11 -11v-27q0 -9 -9 -11h-88q-13 0 -16 10
l-157 323h-47v-284h60q11 0 11 -11v-27q0 -11 -11 -11z" />
    <glyph glyph-name="afii10029" unicode="&#x41b;" horiz-adv-x="518" 
d="M25 47h21q52 0 57 68l36 536h-62q-12 0 -12 11v27q0 11 12 11h388q11 0 11 -11v-27q0 -11 -11 -11h-65v-602h65q11 0 11 -11v-27q0 -11 -11 -11h-179q-11 0 -11 11v27q0 11 11 11h60v598h-154l-36 -538q-7 -113 -101 -113h-30q-12 0 -12 11v29q0 11 12 11z" />
    <glyph glyph-name="afii10030" unicode="&#x41c;" horiz-adv-x="641" 
d="M328 170h-15q-12 0 -15 11l-124 371q-2 5 -3 16t-2 14h-4q5 -25 5 -31v-502h60q11 0 11 -11v-27q0 -11 -11 -11h-177q-11 0 -11 11v27q0 11 11 11h65v602h-65q-11 0 -11 11v27q0 11 11 11h112q11 0 14 -11l136 -407q3 -9 3 -30h4q0 21 3 30l136 407q3 11 15 11h112
q11 0 11 -11v-27q0 -11 -11 -11h-66v-602h66q11 0 11 -11v-27q0 -11 -11 -11h-177q-12 0 -12 11v27q0 11 12 11h60v502q0 5 2 16.5t2 14.5h-4q-3 -22 -5 -30l-124 -371q-3 -11 -14 -11z" />
    <glyph glyph-name="afii10031" unicode="&#x41d;" horiz-adv-x="549" 
d="M232 651h-60v-300h205v300h-60q-12 0 -12 11v27q0 11 12 11h179q11 0 11 -11v-27q0 -11 -11 -11h-66v-602h66q11 0 11 -11v-27q0 -11 -11 -11h-179q-12 0 -12 11v27q0 11 12 11h60v249h-205v-249h60q11 0 11 -11v-27q0 -11 -11 -11h-179q-11 0 -11 11v27q0 11 11 11h65
v602h-65q-11 0 -11 11v27q0 11 11 11h179q11 0 11 -11v-27q0 -11 -11 -11z" />
    <glyph glyph-name="afii10032" unicode="&#x41e;" horiz-adv-x="451" 
d="M116 587v-474q0 -29 17 -46t46 -17h93q28 0 45.5 17t17.5 46v474q0 29 -17.5 46.5t-45.5 17.5h-93q-28 0 -45.5 -17.5t-17.5 -46.5zM63 115v470q0 53 32.5 86t85.5 33h89q53 0 86 -33t33 -86v-470q0 -53 -33 -86t-86 -33h-89q-53 0 -85.5 33t-32.5 86z" />
    <glyph glyph-name="afii10033" unicode="&#x41f;" horiz-adv-x="553" 
d="M243 38v-27q0 -11 -11 -11h-179q-11 0 -11 11v27q0 11 11 11h65v602h-65q-11 0 -11 11v27q0 11 11 11h447q11 0 11 -11v-27q0 -11 -11 -11h-66v-602h66q11 0 11 -11v-27q0 -11 -11 -11h-180q-11 0 -11 11v27q0 11 11 11h61v598h-209v-598h60q11 0 11 -11z" />
    <glyph glyph-name="afii10034" unicode="&#x420;" horiz-adv-x="449" 
d="M292 647h-120v-314h120q28 0 45.5 17.5t17.5 46.5v186q0 29 -17.5 46.5t-45.5 17.5zM247 0h-194q-11 0 -11 11v27q0 11 11 11h65v602h-65q-11 0 -11 11v27q0 11 11 11h236q54 0 86.5 -32.5t32.5 -86.5v-182q0 -54 -32.5 -86.5t-86.5 -32.5h-117v-231h75q11 0 11 -11v-27
q0 -11 -11 -11z" />
    <glyph glyph-name="afii10035" unicode="&#x421;" horiz-adv-x="423" 
d="M332 197h31q11 0 11 -12v-70q0 -53 -33 -86t-86 -33h-74q-53 0 -85.5 33t-32.5 86v470q0 53 32.5 86t85.5 33h74q53 0 86 -33t33 -86v-70q0 -12 -11 -12h-31q-12 0 -12 12v72q0 29 -17.5 46.5t-45.5 17.5h-78q-28 0 -45.5 -17.5t-17.5 -46.5v-474q0 -29 17 -46t46 -17h78
q29 0 46 17t17 46v72q0 12 12 12z" />
    <glyph glyph-name="afii10036" unicode="&#x422;" 
d="M24 700h379q11 0 11 -11v-128q0 -11 -11 -11h-26q-12 0 -12 11v86h-125v-598h66q11 0 11 -11v-27q0 -11 -11 -11h-184q-12 0 -12 11v27q0 11 12 11h65v598h-125v-86q0 -11 -11 -11h-27q-11 0 -11 11v128q0 11 11 11z" />
    <glyph glyph-name="afii10037" unicode="&#x423;" horiz-adv-x="512" 
d="M183 651h-45l121 -408q3 -13 3 -30h2q0 17 3 30l107 408h-46q-11 0 -11 11v27q0 11 11 11h163q11 0 11 -11v-27q0 -11 -11 -11h-63l-144 -542q-15 -58 -35.5 -85.5t-65.5 -27.5h-51q-12 0 -12 11v29q0 11 12 11h41q25 0 36 15t20 47l7 28l-152 514h-63q-11 0 -11 11v27
q0 11 11 11h162q12 0 12 -11v-27q0 -11 -12 -11z" />
    <glyph glyph-name="afii10038" unicode="&#x424;" horiz-adv-x="530" 
d="M98 490v-280q0 -29 17.5 -46.5t45.5 -17.5h77v408h-77q-28 0 -45.5 -17.5t-17.5 -46.5zM369 554h-78v-408h78q28 0 45.5 17.5t17.5 46.5v280q0 29 -17.5 46.5t-45.5 17.5zM161 664v25q0 11 12 11h184q11 0 11 -11v-25q0 -11 -11 -11h-66v-46h75q54 0 86.5 -32.5
t32.5 -86.5v-276q0 -54 -32.5 -86.5t-86.5 -32.5h-75v-46h66q11 0 11 -11v-25q0 -11 -11 -11h-184q-12 0 -12 11v25q0 11 12 11h65v46h-75q-53 0 -85.5 32.5t-32.5 86.5v276q0 54 32.5 86.5t85.5 32.5h75v46h-65q-12 0 -12 11z" />
    <glyph glyph-name="afii10039" unicode="&#x425;" horiz-adv-x="490" 
d="M251 445l86 206h-44q-11 0 -11 11v27q0 11 11 11h163q11 0 11 -11v-27q0 -11 -11 -11h-62l-120 -286l134 -316h61q11 0 11 -11v-27q0 -11 -11 -11h-163q-12 0 -12 11v27q0 11 12 11h44l-99 237q-5 13 -5 29h-2q0 -19 -5 -29l-99 -237h44q12 0 12 -11v-27q0 -11 -12 -11
h-163q-11 0 -11 11v27q0 11 11 11h62l133 316l-121 286h-61q-11 0 -11 11v27q0 11 11 11h163q12 0 12 -11v-27q0 -11 -12 -11h-44l86 -206q5 -10 5 -29h2q0 16 5 29z" />
    <glyph glyph-name="afii10040" unicode="&#x426;" horiz-adv-x="528" 
d="M53 700h179q11 0 11 -11v-27q0 -11 -11 -11h-60v-598h204v598h-60q-11 0 -11 11v27q0 11 11 11h179q11 0 11 -11v-27q0 -11 -11 -11h-65v-598h70q12 0 12 -11v-161q0 -11 -12 -11h-30q-12 0 -12 11v119h-405q-11 0 -11 11v27q0 11 11 11h65v602h-65q-11 0 -11 11v27
q0 11 11 11z" />
    <glyph glyph-name="afii10041" unicode="&#x427;" horiz-adv-x="512" 
d="M265 49h75v247h-135q-53 0 -85.5 33t-32.5 86v236h-66q-11 0 -11 11v27q0 11 11 11h179q12 0 12 -11v-27q0 -11 -12 -11h-60v-238q0 -29 17 -46t46 -17h137v301h-60q-11 0 -11 11v27q0 11 11 11h179q11 0 11 -11v-27q0 -11 -11 -11h-65v-602h65q11 0 11 -11v-27
q0 -11 -11 -11h-194q-11 0 -11 11v27q0 11 11 11z" />
    <glyph glyph-name="afii10042" unicode="&#x428;" horiz-adv-x="760" 
d="M241 689v-27q0 -11 -11 -11h-58v-598h181v598h-58q-11 0 -11 11v27q0 11 11 11h170q11 0 11 -11v-27q0 -11 -11 -11h-58v-598h181v598h-58q-11 0 -11 11v27q0 11 11 11h177q11 0 11 -11v-27q0 -11 -11 -11h-65v-602h65q11 0 11 -11v-27q0 -11 -11 -11h-654q-11 0 -11 11
v27q0 11 11 11h65v602h-65q-11 0 -11 11v27q0 11 11 11h177q11 0 11 -11z" />
    <glyph glyph-name="afii10043" unicode="&#x429;" horiz-adv-x="740" 
d="M284 662v27q0 11 11 11h170q11 0 11 -11v-27q0 -11 -11 -11h-58v-598h181v598h-58q-11 0 -11 11v27q0 11 11 11h177q11 0 11 -11v-27q0 -11 -11 -11h-65v-598h71q11 0 11 -11v-161q0 -11 -11 -11h-31q-12 0 -12 11v119h-617q-11 0 -11 11v27q0 11 11 11h65v602h-65
q-11 0 -11 11v27q0 11 11 11h177q11 0 11 -11v-27q0 -11 -11 -11h-58v-598h181v598h-58q-11 0 -11 11z" />
    <glyph glyph-name="afii10044" unicode="&#x42a;" horiz-adv-x="524" 
d="M363 349h-126v-296h126q28 0 45.5 17.5t17.5 46.5v169q0 28 -17 45.5t-46 17.5zM24 700h274q11 0 11 -11v-27q0 -11 -11 -11h-61v-248h124q53 0 86 -33t33 -86v-165q0 -53 -33 -86t-86 -33h-248q-11 0 -11 11v27q0 11 11 11h71v602h-122v-86q0 -11 -11 -11h-27
q-11 0 -11 11v124q0 11 11 11z" />
    <glyph glyph-name="afii10045" unicode="&#x42b;" horiz-adv-x="702" 
d="M172 349v-296h125q29 0 46.5 17.5t17.5 46.5v169q0 28 -17.5 45.5t-46.5 17.5h-125zM243 689v-27q0 -11 -11 -11h-60v-248h123q54 0 86.5 -33t32.5 -86v-165q0 -53 -32.5 -86t-86.5 -33h-242q-11 0 -11 11v27q0 11 11 11h65v602h-65q-11 0 -11 11v27q0 11 11 11h179
q11 0 11 -11zM454 11v27q0 11 11 11h65v602h-65q-11 0 -11 11v27q0 11 11 11h184q11 0 11 -11v-27q0 -11 -11 -11h-65v-602h65q11 0 11 -11v-27q0 -11 -11 -11h-184q-11 0 -11 11z" />
    <glyph glyph-name="afii10046" unicode="&#x42c;" horiz-adv-x="459" 
d="M297 349h-125v-296h125q29 0 46.5 17.5t17.5 46.5v169q0 28 -17.5 45.5t-46.5 17.5zM53 49h65v602h-65q-11 0 -11 11v27q0 11 11 11h179q11 0 11 -11v-27q0 -11 -11 -11h-60v-248h123q54 0 86.5 -33t32.5 -86v-165q0 -53 -32.5 -86t-86.5 -33h-242q-11 0 -11 11v27
q0 11 11 11z" />
    <glyph glyph-name="afii10047" unicode="&#x42d;" horiz-adv-x="423" 
d="M307 326h-149q-11 0 -11 12v28q0 12 11 12h149v209q0 29 -17.5 46.5t-46.5 17.5h-78q-28 0 -45.5 -17.5t-17.5 -46.5v-72q0 -12 -11 -12h-31q-11 0 -11 12v70q0 53 32.5 86t86.5 33h73q54 0 86.5 -33t32.5 -86v-470q0 -53 -32.5 -86t-86.5 -33h-73q-54 0 -86.5 33
t-32.5 86v70q0 12 11 12h31q11 0 11 -12v-72q0 -29 17 -46t46 -17h78q29 0 46.5 17.5t17.5 45.5v213z" />
    <glyph glyph-name="afii10048" unicode="&#x42e;" horiz-adv-x="665" 
d="M485 651h-72q-29 0 -46.5 -17.5t-17.5 -46.5v-474q0 -28 17.5 -45.5t46.5 -17.5h72q29 0 46.5 17.5t17.5 45.5v474q0 29 -17.5 46.5t-46.5 17.5zM172 351h124v234q0 53 32.5 86t86.5 33h68q54 0 86.5 -33t32.5 -86v-470q0 -53 -32.5 -86t-86.5 -33h-68q-54 0 -86.5 33
t-32.5 86v183h-124v-249h60q11 0 11 -11v-27q0 -11 -11 -11h-179q-11 0 -11 11v27q0 11 11 11h65v602h-65q-11 0 -11 11v27q0 11 11 11h179q11 0 11 -11v-27q0 -11 -11 -11h-60v-300z" />
    <glyph glyph-name="afii10049" unicode="&#x42f;" horiz-adv-x="486" 
d="M314 347v300h-128q-28 0 -45.5 -17.5t-17.5 -46.5v-173q0 -28 17.5 -45.5t45.5 -17.5h128zM115 0h-91q-11 0 -11 11v27q0 11 11 11h61l82 246q-44 7 -70.5 38.5t-26.5 78.5l-1 169q0 54 33 86.5t86 32.5h245q11 0 11 -11v-27q0 -11 -11 -11h-66v-602h66q11 0 11 -11v-27
q0 -11 -11 -11h-179q-12 0 -12 11v27q0 11 12 11h60v245h-91l-94 -283q-3 -11 -14 -11z" />
    <glyph glyph-name="afii10065" unicode="&#x430;" horiz-adv-x="432" 
d="M293 100v161q-81 18 -119 18q-30 0 -49 -18.5t-19 -48.5v-110q0 -28 18 -44t44 -16q44 0 125 58zM293 308v129q0 31 -17 49.5t-47 18.5h-55q-30 0 -46.5 -18.5t-16.5 -49.5v-26q0 -11 -11 -11h-29q-11 0 -11 11v30q0 51 31 82t81 31h59q51 0 82 -31t31 -82v-394h58
q11 0 11 -11v-25q0 -11 -11 -11h-98q-11 0 -11 11v35q-82 -53 -136 -53q-43 0 -72.5 30.5t-29.5 79.5v109q0 50 31 81.5t81 31.5q47 0 126 -17z" />
    <glyph glyph-name="afii10066" unicode="&#x431;" horiz-adv-x="416" 
d="M114 447v-334q0 -31 17 -49.5t47 -18.5h65q30 0 47.5 18.5t17.5 49.5v327q0 30 -18 47t-45 17q-50 0 -131 -57zM359 441v-332q0 -51 -31.5 -82t-82.5 -31h-69q-51 0 -82 31t-31 82v445q0 98 101 122q72 15 127 25v29q0 13 13 13h23q13 0 13 -13v-62q0 -11 -17 -14
q-91 -14 -144 -26q-65 -14 -65 -74v-53q83 52 142 52q44 0 73.5 -31.5t29.5 -80.5z" />
    <glyph glyph-name="afii10067" unicode="&#x432;" horiz-adv-x="445" 
d="M283 258h-123v-209h123q31 0 48.5 17.5t17.5 46.5v77q0 31 -17.5 49.5t-48.5 18.5zM263 501h-103v-194h103q30 0 48 18.5t18 48.5v66q0 27 -18 44t-48 17zM333 287q67 -26 67 -104v-75q0 -49 -31 -78.5t-81 -29.5h-238q-13 0 -13 13v21q0 13 13 13h58v456h-58
q-13 0 -13 13v21q0 13 13 13h218q50 0 81 -29t31 -76v-64q0 -64 -47 -94z" />
    <glyph glyph-name="afii10068" unicode="&#x433;" horiz-adv-x="364" 
d="M241 34v-21q0 -13 -13 -13h-178q-13 0 -13 13v21q0 13 13 13h58v456h-58q-13 0 -13 13v21q0 13 13 13h290q11 0 11 -11v-110q0 -13 -13 -13h-23q-13 0 -13 13v72h-142v-454h68q13 0 13 -13z" />
    <glyph glyph-name="afii10069" unicode="&#x434;" horiz-adv-x="477" 
d="M140 49h191v452h-146l-26 -390q-3 -39 -19 -62zM408 -115v115h-340v-115q0 -11 -11 -11h-29q-11 0 -11 11v153q0 11 11 11h51q26 18 29 66l26 388h-57q-13 0 -13 13v21q0 13 13 13h364q13 0 13 -13v-21q0 -13 -13 -13h-58v-454h65q11 0 11 -11v-153q0 -11 -11 -11h-29
q-11 0 -11 11z" />
    <glyph glyph-name="afii10070" unicode="&#x435;" horiz-adv-x="395" 
d="M231 505h-61q-28 0 -44.5 -16.5t-16.5 -43.5v-147h184v147q0 27 -17 43.5t-45 16.5zM333 249h-224v-141q0 -29 16.5 -46t44.5 -17h61q28 0 45 17t17 45v34q0 12 11 12h29q11 0 11 -12v-32q0 -51 -31 -82t-82 -31h-61q-50 0 -81 31t-31 82v332q0 51 31 82t81 31h61
q51 0 82 -30.5t31 -80.5v-183q0 -11 -11 -11z" />
    <glyph glyph-name="afii10072" unicode="&#x436;" horiz-adv-x="643" 
d="M296 256h-42l-138 -246q-5 -10 -16 -10h-79q-11 0 -11 11v25q0 11 11 11h57l132 233l-117 223h-56q-11 0 -11 11v25q0 11 11 11h79q11 0 16 -10l123 -235h41v198h-56q-11 0 -11 11v25q0 11 11 11h162q12 0 12 -11v-25q0 -11 -12 -11h-55v-198h41l123 235q5 10 16 10h79
q11 0 11 -11v-25q0 -11 -11 -11h-56l-118 -223l132 -233h57q12 0 12 -11v-25q0 -11 -12 -11h-78q-12 0 -17 10l-137 246h-42v-209h55q12 0 12 -11v-25q0 -11 -12 -11h-162q-11 0 -11 11v25q0 11 11 11h56v209z" />
    <glyph glyph-name="afii10073" unicode="&#x437;" horiz-adv-x="383" 
d="M155 310h58q30 0 48.5 18.5t18.5 48.5v65q0 27 -18.5 44t-48.5 17h-48q-30 0 -48.5 -18.5t-18.5 -49.5v-36q0 -12 -11 -12h-29q-11 0 -11 12v41q0 50 31 81t81 31h60q50 0 81 -29t31 -76v-63q0 -68 -53 -97q60 -27 60 -101v-80q0 -49 -31 -78.5t-81 -29.5h-72
q-50 0 -81 31t-31 81v41q0 12 11 12h29q11 0 11 -12v-36q0 -31 18.5 -49.5t48.5 -18.5h60q30 0 48.5 17.5t18.5 46.5v82q0 30 -18.5 48.5t-48.5 18.5h-65q-11 0 -11 12v26q0 12 11 12z" />
    <glyph glyph-name="afii10074" unicode="&#x438;" horiz-adv-x="517" 
d="M350 379l-190 -298v-34h55q11 0 11 -11v-25q0 -11 -11 -11h-167q-11 0 -11 11v25q0 11 11 11h60v456h-60q-11 0 -11 11v25q0 11 11 11h167q11 0 11 -11v-25q0 -11 -11 -11h-55v-331q0 -2 -6 -26l3 -1q8 21 10 24l191 299v35h-56q-11 0 -11 11v25q0 11 11 11h167
q11 0 11 -11v-25q0 -11 -11 -11h-60v-456h60q11 0 11 -11v-25q0 -11 -11 -11h-167q-11 0 -11 11v25q0 11 11 11h56v330q0 9 6 25l-4 1q-7 -19 -10 -24z" />
    <glyph glyph-name="afii10075" unicode="&#x439;" horiz-adv-x="517" 
d="M349 379l-189 -298v-34h55q11 0 11 -11v-25q0 -11 -11 -11h-167q-11 0 -11 11v25q0 11 11 11h60v456h-60q-11 0 -11 11v25q0 11 11 11h167q11 0 11 -11v-25q0 -11 -11 -11h-55v-331q0 -8 -5 -26l1 -1q6 17 11 24l191 299v35h-56q-11 0 -11 11v25q0 11 11 11h167
q11 0 11 -11v-25q0 -11 -11 -11h-60v-456h60q11 0 11 -11v-25q0 -11 -11 -11h-167q-11 0 -11 11v25q0 11 11 11h56v330q0 11 4 25l-2 1q-4 -14 -11 -24zM360 678v-18q-1 -28 -18.5 -45t-45.5 -17h-71q-28 0 -45.5 17t-18.5 45v18q0 10 9 10h22q8 0 10 -10l1 -20
q2 -22 24 -22h67q22 0 24 22l1 20q2 10 10 10h22q9 0 9 -10z" />
    <glyph glyph-name="afii10076" unicode="&#x43a;" horiz-adv-x="457" 
d="M160 305h51l115 235q5 10 16 10h79q11 0 11 -11v-25q0 -11 -11 -11h-58l-108 -223l124 -233h57q11 0 11 -11v-25q0 -11 -11 -11h-78q-12 0 -17 10l-129 246h-52v-209h55q11 0 11 -11v-25q0 -11 -11 -11h-167q-11 0 -11 11v25q0 11 11 11h60v456h-60q-11 0 -11 11v25
q0 11 11 11h167q11 0 11 -11v-25q0 -11 -11 -11h-55v-198z" />
    <glyph glyph-name="afii10077" unicode="&#x43b;" horiz-adv-x="482" 
d="M25 45h21q52 0 57 68l25 390h-56q-13 0 -13 13v21q0 13 13 13h361q12 0 12 -13v-21q0 -13 -12 -13h-60v-456h60q12 0 12 -13v-21q0 -13 -12 -13h-166q-13 0 -13 13v21q0 13 13 13h55v454h-143l-26 -392q-7 -113 -101 -113h-27q-12 0 -12 11v27q0 11 12 11z" />
    <glyph glyph-name="afii10078" unicode="&#x43c;" horiz-adv-x="610" 
d="M455 464h-4q-2 -22 -6 -30l-120 -317q-5 -11 -15 -11h-9q-12 0 -15 11l-121 317q-4 12 -6 30h-4q5 -25 5 -31v-386h55q11 0 11 -11v-25q0 -11 -11 -11h-167q-11 0 -11 11v25q0 11 11 11h60v456h-60q-11 0 -11 11v25q0 11 11 11h109q10 0 15 -11l128 -332q3 -9 3 -30h4
q0 21 4 30l127 332q5 11 16 11h108q12 0 12 -11v-25q0 -11 -12 -11h-60v-456h60q12 0 12 -11v-25q0 -11 -12 -11h-167q-11 0 -11 11v25q0 11 11 11h56v386q0 6 2 17t2 14z" />
    <glyph glyph-name="afii10079" unicode="&#x43d;" horiz-adv-x="515" 
d="M300 47h55v208h-195v-208h55q11 0 11 -11v-25q0 -11 -11 -11h-167q-11 0 -11 11v25q0 11 11 11h60v456h-60q-11 0 -11 11v25q0 11 11 11h167q11 0 11 -11v-25q0 -11 -11 -11h-55v-198h195v198h-55q-11 0 -11 11v25q0 11 11 11h167q11 0 11 -11v-25q0 -11 -11 -11h-60
v-456h60q11 0 11 -11v-25q0 -11 -11 -11h-167q-11 0 -11 11v25q0 11 11 11z" />
    <glyph glyph-name="afii10080" unicode="&#x43e;" horiz-adv-x="411" 
d="M109 443v-336q0 -28 16.5 -45t44.5 -17h71q28 0 45 17t17 45v336q0 28 -17 45t-45 17h-71q-28 0 -44.5 -17t-16.5 -45zM58 109v332q0 51 31 82t81 31h71q51 0 82 -31t31 -82v-332q0 -51 -31 -82t-82 -31h-71q-50 0 -81 31t-31 82z" />
    <glyph glyph-name="afii10081" unicode="&#x43f;" horiz-adv-x="510" 
d="M48 47h60v456h-60q-11 0 -11 11v25q0 11 11 11h414q11 0 11 -11v-25q0 -11 -11 -11h-60v-456h60q11 0 11 -11v-25q0 -11 -11 -11h-167q-11 0 -11 11v25q0 11 11 11h55v454h-190v-454h55q11 0 11 -11v-25q0 -11 -11 -11h-167q-11 0 -11 11v25q0 11 11 11z" />
    <glyph glyph-name="afii10082" unicode="&#x440;" horiz-adv-x="445" 
d="M142 445v-340q80 -63 132 -63q27 0 44.5 17t17.5 47v338q0 30 -17.5 47t-44.5 17q-52 0 -132 -63zM21 514v25q0 11 11 11h98q12 0 12 -11v-39q85 57 144 57q43 0 72.5 -31.5t29.5 -81.5v-338q0 -50 -29.5 -81.5t-72.5 -31.5q-58 0 -144 57v-153h70q11 0 11 -11v-25
q0 -11 -11 -11h-182q-11 0 -11 11v25q0 11 11 11h60v606h-58q-11 0 -11 11z" />
    <glyph glyph-name="afii10083" unicode="&#x441;" horiz-adv-x="383" 
d="M170 45h59q28 0 44.5 17t16.5 45v43q0 11 12 11h28q12 0 12 -11v-41q0 -51 -31 -82t-82 -31h-59q-50 0 -81 31t-31 82v332q0 51 31 82t81 31h59q51 0 82 -31t31 -82v-41q0 -11 -12 -11h-28q-12 0 -12 11v43q0 28 -16.5 45t-44.5 17h-59q-28 0 -44.5 -17t-16.5 -45v-336
q0 -28 16.5 -45t44.5 -17z" />
    <glyph glyph-name="afii10084" unicode="&#x442;" horiz-adv-x="389" 
d="M13 429v110q0 11 11 11h341q12 0 12 -11v-110q0 -13 -13 -13h-24q-13 0 -13 13v72h-107v-454h58q14 0 14 -14v-19q0 -14 -14 -14h-166q-15 0 -15 14v19q0 14 15 14h57v454h-107v-72q0 -13 -13 -13h-23q-13 0 -13 13z" />
    <glyph glyph-name="afii10085" unicode="&#x443;" horiz-adv-x="458" 
d="M437 503h-58l-159 -642q-3 -11 -14 -11h-94q-12 0 -12 11v25q0 11 12 11h67l26 104l-126 502h-58q-11 0 -11 11v25q0 11 11 11h157q11 0 11 -11v-25q0 -11 -11 -11h-47l94 -387q3 -10 3 -33h2q0 18 3 33l94 387h-46q-12 0 -12 11v25q0 11 12 11h156q11 0 11 -11v-25
q0 -11 -11 -11z" />
    <glyph glyph-name="afii10086" unicode="&#x444;" horiz-adv-x="596" 
d="M273 90v370q-65 48 -102 48q-27 0 -44.5 -17t-17.5 -47v-338q0 -30 17.5 -47t44.5 -17q37 0 102 48zM425 42q27 0 44.5 17t17.5 47v338q0 30 -17.5 47t-44.5 17q-39 0 -101 -48v-370q62 -48 101 -48zM58 106v338q0 50 29 81.5t72 31.5q49 0 114 -44v140h-58q-14 0 -14 14
v19q0 14 14 14h98q11 0 11 -11v-175q67 43 112 43q44 0 73 -31.5t29 -81.5v-338q0 -50 -29 -81.5t-73 -31.5q-45 0 -112 43v-139h58q14 0 14 -14v-19q0 -14 -14 -14h-167q-14 0 -14 14v19q0 14 14 14h58v140q-65 -44 -114 -44q-43 0 -72 31.5t-29 81.5z" />
    <glyph glyph-name="afii10087" unicode="&#x445;" horiz-adv-x="438" 
d="M414 503h-53l-114 -223l113 -233h54q11 0 11 -11v-25q0 -11 -11 -11h-146q-11 0 -11 11v25q0 11 11 11h39l-83 174q-3 6 -3 17h-2q0 -11 -3 -17l-88 -174h39q12 0 12 -11v-25q0 -11 -12 -11h-146q-11 0 -11 11v25q0 11 11 11h54l118 233l-109 223h-53q-12 0 -12 11v25
q0 11 12 11h146q11 0 11 -11v-25q0 -11 -11 -11h-39l78 -163q3 -5 3 -17h2q0 9 3 17l83 163h-39q-11 0 -11 11v25q0 11 11 11h146q12 0 12 -11v-25q0 -11 -12 -11z" />
    <glyph glyph-name="afii10088" unicode="&#x446;" horiz-adv-x="518" 
d="M463 503h-58v-454h68q11 0 11 -11v-153q0 -11 -11 -11h-29q-11 0 -11 11v115h-383q-13 0 -13 13v21q0 13 13 13h58v456h-58q-13 0 -13 13v21q0 13 13 13h163q13 0 13 -13v-21q0 -13 -13 -13h-53v-454h193v454h-53q-13 0 -13 13v21q0 13 13 13h163q13 0 13 -13v-21
q0 -13 -13 -13z" />
    <glyph glyph-name="afii10089" unicode="&#x447;" horiz-adv-x="483" 
d="M8 516v21q0 13 13 13h164q13 0 13 -13v-21q0 -13 -13 -13h-54v-185q0 -30 18 -47t46 -17q50 0 128 49v200h-53q-13 0 -13 13v21q0 13 13 13h163q13 0 13 -13v-21q0 -13 -13 -13h-58v-456h58q13 0 13 -13v-21q0 -13 -13 -13h-178q-13 0 -13 13v21q0 13 13 13h68v200
q-85 -46 -138 -46q-46 0 -75.5 31.5t-29.5 81.5v189h-59q-13 0 -13 13z" />
    <glyph glyph-name="afii10090" unicode="&#x448;" horiz-adv-x="692" 
d="M481 550h162q12 0 12 -13v-21q0 -13 -12 -13h-59v-456h59q12 0 12 -13v-21q0 -13 -12 -13h-593q-13 0 -13 13v21q0 13 13 13h58v456h-58q-13 0 -13 13v21q0 13 13 13h161q13 0 13 -13v-21q0 -13 -13 -13h-51v-454h160v454h-51q-13 0 -13 13v21q0 13 13 13h154
q13 0 13 -13v-21q0 -13 -13 -13h-51v-454h161v454h-52q-13 0 -13 13v21q0 13 13 13z" />
    <glyph glyph-name="afii10091" unicode="&#x449;" horiz-adv-x="698" 
d="M584 49h68q11 0 11 -11v-153q0 -11 -11 -11h-29q-11 0 -11 11v115h-562q-13 0 -13 13v21q0 13 13 13h58v456h-58q-13 0 -13 13v21q0 13 13 13h161q13 0 13 -13v-21q0 -13 -13 -13h-51v-454h160v454h-51q-13 0 -13 13v21q0 13 13 13h154q13 0 13 -13v-21q0 -13 -13 -13
h-51v-454h161v454h-52q-13 0 -13 13v21q0 13 13 13h162q12 0 12 -13v-21q0 -13 -12 -13h-59v-454z" />
    <glyph glyph-name="afii10092" unicode="&#x44a;" horiz-adv-x="487" 
d="M324 273h-111v-224h111q30 0 48.5 18.5t18.5 49.5v88q0 31 -18.5 49.5t-48.5 18.5zM21 550h250q11 0 11 -11v-25q0 -11 -11 -11h-58v-181h117q51 0 82 -31t31 -82v-96q0 -51 -31 -82t-82 -31h-231q-11 0 -11 11v25q0 11 11 11h63v454h-103v-72q0 -13 -13 -13h-23
q-13 0 -13 13v110q0 11 11 11z" />
    <glyph glyph-name="afii10093" unicode="&#x44b;" horiz-adv-x="658" 
d="M270 273h-110v-224h110q31 0 49.5 18.5t18.5 49.5v88q0 31 -18.5 49.5t-49.5 18.5zM37 514v25q0 11 11 11h169q11 0 11 -11v-25q0 -11 -11 -11h-57v-181h116q51 0 82 -31t31 -82v-96q0 -51 -31 -82t-82 -31h-228q-11 0 -11 11v25q0 11 11 11h60v456h-60q-11 0 -11 11z
M438 550h172q11 0 11 -11v-25q0 -11 -11 -11h-61v-456h61q11 0 11 -11v-25q0 -11 -11 -11h-172q-12 0 -12 11v25q0 11 12 11h60v456h-60q-12 0 -12 11v25q0 11 12 11z" />
    <glyph glyph-name="afii10094" unicode="&#x44c;" horiz-adv-x="433" 
d="M270 273h-110v-224h110q31 0 49.5 18.5t18.5 49.5v88q0 31 -18.5 49.5t-49.5 18.5zM276 0h-226q-13 0 -13 13v21q0 13 13 13h58v456h-58q-13 0 -13 13v21q0 13 13 13h165q13 0 13 -13v-21q0 -13 -13 -13h-55v-181h116q51 0 82 -31t31 -82v-96q0 -51 -31 -82t-82 -31z" />
    <glyph glyph-name="afii10095" unicode="&#x44d;" horiz-adv-x="383" 
d="M275 255h-126q-11 0 -11 12v26q0 12 11 12h126v138q0 28 -17 45t-45 17h-59q-28 0 -44.5 -17t-16.5 -45v-43q0 -11 -11 -11h-29q-11 0 -11 11v41q0 51 31 82t81 31h59q51 0 82 -31t31 -82v-332q0 -51 -31 -82t-82 -31h-59q-50 0 -81 31t-31 82v41q0 11 11 11h29
q11 0 11 -11v-43q0 -28 16.5 -45t44.5 -17h59q28 0 45 17t17 45v148z" />
    <glyph glyph-name="afii10096" unicode="&#x44e;" horiz-adv-x="622" 
d="M513 113v324q0 31 -18.5 49.5t-49.5 18.5h-50q-31 0 -49.5 -18.5t-18.5 -49.5v-324q0 -31 18.5 -49.5t49.5 -18.5h50q31 0 49.5 18.5t18.5 49.5zM160 305h116v136q0 51 31 82t81 31h64q50 0 81 -31t31 -82v-332q0 -51 -31 -82t-81 -31h-64q-50 0 -81 31t-31 82v146h-116
v-208h55q11 0 11 -11v-25q0 -11 -11 -11h-167q-11 0 -11 11v25q0 11 11 11h60v456h-60q-11 0 -11 11v25q0 11 11 11h167q11 0 11 -11v-25q0 -11 -11 -11h-55v-198z" />
    <glyph glyph-name="afii10097" unicode="&#x44f;" horiz-adv-x="452" 
d="M178 284h115v217h-115q-30 0 -48.5 -19t-18.5 -50v-81q0 -30 18.5 -48.5t48.5 -18.5zM237 47h56v188h-92l-83 -225q-3 -10 -14 -10h-81q-11 0 -11 11v25q0 11 11 11h56l71 191q-42 6 -66.5 35t-24.5 74v90q0 51 31 82t82 31h232q12 0 12 -11v-25q0 -11 -12 -11h-60v-456
h60q12 0 12 -11v-25q0 -11 -12 -11h-167q-11 0 -11 11v25q0 11 11 11z" />
    <glyph glyph-name="uni0450" unicode="&#x450;" horiz-adv-x="395" 
d="M231 505h-61q-28 0 -44.5 -16.5t-16.5 -43.5v-147h184v147q0 27 -17 43.5t-45 16.5zM333 249h-224v-141q0 -29 16.5 -46t44.5 -17h61q28 0 45 17t17 45v34q0 12 11 12h29q11 0 11 -12v-32q0 -51 -31 -82t-82 -31h-61q-50 0 -81 31t-31 82v332q0 51 31 82t81 31h61
q51 0 82 -30.5t31 -80.5v-183q0 -11 -11 -11zM185 674l44 -73q3 -7 -5 -7h-21q-11 0 -15 7l-64 74q-5 7 3 7h45q10 0 13 -8z" />
    <glyph glyph-name="afii10071" unicode="&#x451;" horiz-adv-x="395" 
d="M231 505h-61q-28 0 -44.5 -16.5t-16.5 -43.5v-147h184v147q0 27 -17 43.5t-45 16.5zM333 249h-224v-141q0 -29 16.5 -46t44.5 -17h61q28 0 45 17t17 45v34q0 12 11 12h29q11 0 11 -12v-32q0 -51 -31 -82t-82 -31h-61q-50 0 -81 31t-31 82v332q0 51 31 82t81 31h61
q51 0 82 -30.5t31 -80.5v-183q0 -11 -11 -11zM119 619v21q0 18 17 18h22q17 0 17 -18v-21q0 -17 -17 -17h-22q-17 0 -17 17zM229 619v21q0 18 18 18h21q17 0 17 -18v-21q0 -17 -17 -17h-21q-18 0 -18 17z" />
    <glyph glyph-name="afii10099" unicode="&#x452;" horiz-adv-x="459" 
d="M262 -101h27q28 0 44.5 17t16.5 44v484q0 30 -17.5 47t-44.5 17q-53 0 -133 -62v-398h54q11 0 11 -12v-25q0 -11 -11 -11h-166q-11 0 -11 11v25q0 12 11 12h60v551h-52q-9 0 -9 9v23q0 9 9 9h52v49q0 11 12 11h28q12 0 12 -11v-49h108q9 0 9 -9v-23q0 -9 -9 -9h-108v-99
q87 57 144 57q44 0 73 -31.5t29 -81.5v-482q0 -50 -31 -81t-81 -31h-27q-11 0 -11 11v27q0 11 11 11z" />
    <glyph glyph-name="afii10100" unicode="&#x453;" horiz-adv-x="364" 
d="M302 429v72h-142v-454h68q13 0 13 -13v-21q0 -13 -13 -13h-178q-13 0 -13 13v21q0 13 13 13h58v456h-58q-13 0 -13 13v21q0 13 13 13h290q11 0 11 -11v-110q0 -13 -13 -13h-23q-13 0 -13 13zM203 594h-22q-9 0 -4 7l43 73q5 8 13 8h45q10 0 3 -7l-63 -74q-6 -7 -15 -7z
" />
    <glyph glyph-name="afii10101" unicode="&#x454;" horiz-adv-x="383" 
d="M244 255h-135v-148q0 -28 16.5 -45t44.5 -17h59q28 0 44.5 17t16.5 45v43q0 11 12 11h28q12 0 12 -11v-41q0 -51 -31 -82t-82 -31h-59q-50 0 -81 31t-31 82v332q0 51 31 82t81 31h59q51 0 82 -31t31 -82v-41q0 -11 -12 -11h-28q-12 0 -12 11v43q0 28 -16.5 45t-44.5 17
h-59q-28 0 -44.5 -17t-16.5 -45v-138h135q11 0 11 -12v-26q0 -12 -11 -12z" />
    <glyph glyph-name="afii10102" unicode="&#x455;" horiz-adv-x="374" 
d="M330 154v-45q0 -50 -31 -81.5t-81 -31.5h-62q-50 0 -81 31t-31 82v41q0 11 11 11h29q11 0 11 -11v-37q0 -31 16.5 -49.5t46.5 -18.5h57q30 0 47 18.5t17 49.5v43q0 37 -32 57l-143 96q-25 16 -40 44t-15 57v31q0 51 30.5 82t81.5 31h52q50 0 81 -31t31 -82v-41
q0 -11 -11 -11h-29q-11 0 -11 11v37q0 31 -17 49.5t-47 18.5h-47q-30 0 -46.5 -18.5t-16.5 -49.5v-29q0 -37 32 -57l143 -95q25 -16 40 -44.5t15 -57.5z" />
    <glyph glyph-name="afii10103" unicode="&#x456;" horiz-adv-x="250" 
d="M231 36v-25q0 -11 -11 -11h-172q-11 0 -11 11v25q0 11 11 11h60v456h-60q-11 0 -11 11v25q0 11 11 11h100q12 0 12 -11v-492h60q11 0 11 -11zM157 687v-30q0 -17 -17 -17h-32q-17 0 -17 17v30q0 17 17 17h32q17 0 17 -17z" />
    <glyph glyph-name="afii10104" unicode="&#x457;" horiz-adv-x="250" 
d="M37 514v25q0 11 11 11h100q12 0 12 -11v-492h60q11 0 11 -11v-25q0 -11 -11 -11h-172q-11 0 -11 11v25q0 11 11 11h60v456h-60q-11 0 -11 11zM139 619v21q0 18 18 18h21q17 0 17 -18v-21q0 -17 -17 -17h-21q-18 0 -18 17zM29 619v21q0 18 17 18h22q17 0 17 -18v-21
q0 -17 -17 -17h-22q-17 0 -17 17z" />
    <glyph glyph-name="afii10105" unicode="&#x458;" horiz-adv-x="222" 
d="M99 -40v543h-61q-11 0 -11 11v25q0 11 11 11h101q11 0 11 -11v-577q0 -50 -31 -81t-81 -31h-27q-11 0 -11 11v27q0 11 11 11h27q27 0 44 17t17 44zM149 687v-30q0 -17 -18 -17h-31q-18 0 -18 17v30q0 17 18 17h31q18 0 18 -17z" />
    <glyph glyph-name="afii10106" unicode="&#x459;" horiz-adv-x="647" 
d="M483 273h-110v-224h110q31 0 49.5 18.5t18.5 49.5v88q0 31 -18.5 49.5t-49.5 18.5zM430 503h-57v-181h117q50 0 81 -31t31 -82v-96q0 -51 -31 -82t-81 -31h-223q-13 0 -13 13v21q0 13 13 13h55v454h-143l-26 -392q-7 -113 -101 -113h-27q-12 0 -12 11v27q0 11 12 11h21
q52 0 57 68l25 390h-56q-13 0 -13 13v21q0 13 13 13h358q13 0 13 -13v-21q0 -13 -13 -13z" />
    <glyph glyph-name="afii10107" unicode="&#x45a;" horiz-adv-x="681" 
d="M518 264h-111v-215h111q30 0 48.5 18.5t18.5 49.5v79q0 31 -18.5 49.5t-48.5 18.5zM524 0h-224q-11 0 -11 11v25q0 11 11 11h55v217h-195v-217h55q11 0 11 -11v-25q0 -11 -11 -11h-167q-11 0 -11 11v25q0 11 11 11h60v456h-60q-11 0 -11 11v25q0 11 11 11h167
q11 0 11 -11v-25q0 -11 -11 -11h-55v-190h195v190h-55q-11 0 -11 11v25q0 11 11 11h164q11 0 11 -11v-25q0 -11 -11 -11h-57v-190h117q50 0 81 -31t31 -82v-87q0 -51 -31 -82t-81 -31z" />
    <glyph glyph-name="afii10108" unicode="&#x45b;" horiz-adv-x="491" 
d="M51 640h52v49q0 11 12 11h28q12 0 12 -11v-49h108q9 0 9 -9v-23q0 -9 -9 -9h-108v-99q85 57 144 57q44 0 73 -31.5t29 -81.5v-396h60q12 0 12 -12v-25q0 -11 -12 -11h-166q-12 0 -12 11v25q0 12 12 12h55v396q0 30 -17.5 47t-44.5 17q-53 0 -133 -63v-397h54q11 0 11 -12
v-25q0 -11 -11 -11h-166q-11 0 -11 11v25q0 12 11 12h60v551h-52q-9 0 -9 9v23q0 9 9 9z" />
    <glyph glyph-name="afii10109" unicode="&#x45c;" horiz-adv-x="457" 
d="M160 305h51l115 235q5 10 16 10h79q11 0 11 -11v-25q0 -11 -11 -11h-58l-108 -223l124 -233h57q11 0 11 -11v-25q0 -11 -11 -11h-78q-12 0 -17 10l-129 246h-52v-209h55q11 0 11 -11v-25q0 -11 -11 -11h-167q-11 0 -11 11v25q0 11 11 11h60v456h-60q-11 0 -11 11v25
q0 11 11 11h167q11 0 11 -11v-25q0 -11 -11 -11h-55v-198zM226 601l43 73q5 8 13 8h45q10 0 3 -7l-63 -74q-6 -7 -15 -7h-22q-9 0 -4 7z" />
    <glyph glyph-name="uni045D" unicode="&#x45d;" horiz-adv-x="517" 
d="M350 379l-190 -298v-34h55q11 0 11 -11v-25q0 -11 -11 -11h-167q-11 0 -11 11v25q0 11 11 11h60v456h-60q-11 0 -11 11v25q0 11 11 11h167q11 0 11 -11v-25q0 -11 -11 -11h-55v-331q0 -8 -5 -26l1 -1q6 17 11 24l191 299v35h-56q-11 0 -11 11v25q0 11 11 11h167
q11 0 11 -11v-25q0 -11 -11 -11h-60v-456h60q11 0 11 -11v-25q0 -11 -11 -11h-167q-11 0 -11 11v25q0 11 11 11h56v330q0 13 5 25l-2 1q-5 -14 -11 -24zM245 674l43 -73q5 -7 -4 -7h-22q-9 0 -15 7l-63 74q-7 7 3 7h45q8 0 13 -8z" />
    <glyph glyph-name="afii10110" unicode="&#x45e;" horiz-adv-x="458" 
d="M178 503h-47l94 -387q3 -10 3 -33h2q0 18 3 33l94 387h-46q-12 0 -12 11v25q0 11 12 11h156q11 0 11 -11v-25q0 -11 -11 -11h-58l-159 -642q-3 -11 -14 -11h-94q-12 0 -12 11v25q0 11 12 11h67l26 104l-126 502h-58q-11 0 -11 11v25q0 11 11 11h157q11 0 11 -11v-25
q0 -11 -11 -11zM298 687h22q9 0 9 -9l-1 -18q0 -28 -17.5 -45t-45.5 -17h-71q-28 0 -45.5 17t-18.5 45v18q-2 9 8 9h23q9 0 10 -9l1 -20q2 -22 24 -22h67q10 0 16.5 6t6.5 16l2 20q0 9 10 9z" />
    <glyph glyph-name="afii10193" unicode="&#x45f;" horiz-adv-x="507" 
d="M476 537v-21q0 -13 -13 -13h-58v-456h58q13 0 13 -13v-21q0 -13 -13 -13h-178v-115q0 -11 -11 -11h-29q-11 0 -11 11v115h-184q-13 0 -13 13v21q0 13 13 13h58v456h-58q-13 0 -13 13v21q0 13 13 13h163q13 0 13 -13v-21q0 -13 -13 -13h-53v-454h193v454h-53q-13 0 -13 13
v21q0 13 13 13h163q13 0 13 -13z" />
    <glyph glyph-name="afii10050" unicode="&#x490;" horiz-adv-x="386" 
d="M356 647h-184v-598h75q11 0 11 -11v-27q0 -11 -11 -11h-194q-11 0 -11 11v27q0 11 11 11h65v602h-65q-11 0 -11 11v27q0 11 11 11h265v103q0 11 12 11h26q12 0 12 -11v-145q0 -11 -12 -11z" />
    <glyph glyph-name="afii10098" unicode="&#x491;" horiz-adv-x="345" 
d="M50 550h233v93q0 13 13 13h23q13 0 13 -13v-131q0 -11 -11 -11h-161v-454h68q13 0 13 -13v-21q0 -13 -13 -13h-178q-13 0 -13 13v21q0 13 13 13h58v456h-58q-13 0 -13 13v21q0 13 13 13z" />
    <glyph glyph-name="uni04D8" unicode="&#x4d8;" horiz-adv-x="433" 
d="M318 112v199h-211v-199q0 -28 17 -45t46 -17h84q29 0 46.5 17t17.5 45zM54 538v47q0 53 32.5 86t86.5 33h79q53 0 86 -33t33 -86v-470q0 -53 -33 -86t-86 -33h-79q-54 0 -86.5 32.5t-32.5 85.5v239q0 11 11 11h253v222q0 29 -17.5 47t-46.5 18h-84q-28 0 -45.5 -17.5
t-17.5 -46.5v-49q0 -11 -11 -11h-31q-11 0 -11 11z" />
    <glyph glyph-name="afii10846" unicode="&#x4d9;" horiz-adv-x="395" 
d="M164 45h61q28 0 45 16.5t17 43.5v147h-184v-147q0 -27 16.5 -43.5t44.5 -16.5zM63 301h224v141q0 28 -17 45.5t-45 17.5h-61q-28 0 -44.5 -17t-16.5 -45v-34q0 -11 -11 -11h-29q-11 0 -11 11v32q0 51 31 82t81 31h61q51 0 82 -31t31 -82v-332q0 -51 -31 -82t-82 -31h-61
q-50 0 -81 31t-31 81v182q0 11 11 11z" />
    <glyph glyph-name="Wgrave" unicode="&#x1e80;" horiz-adv-x="703" 
d="M377 689l91 -547q2 -10 2 -31h2q0 21 2 31l94 509h-53q-11 0 -11 11v27q0 11 11 11h167q11 0 11 -11v-27q0 -11 -11 -11h-60l-127 -640q-2 -11 -13 -11h-21q-11 0 -13 11l-93 535q-2 9 -2 30h-2q0 -21 -2 -30l-93 -535q-2 -11 -13 -11h-21q-12 0 -14 11l-126 640h-61
q-11 0 -11 11v27q0 11 11 11h168q11 0 11 -11v-27q0 -11 -11 -11h-53l93 -509q2 -10 2 -31h2q0 21 2 31l92 547q2 11 13 11h24q11 0 13 -11zM336 824l44 -73q5 -7 -4 -7h-22q-11 0 -15 7l-63 74q-7 7 3 7h45q9 0 12 -8z" />
    <glyph glyph-name="wgrave" unicode="&#x1e81;" horiz-adv-x="645" 
d="M182 503h-51l76 -393q2 -10 2 -33h2q0 18 3 33l83 429q2 11 13 11h25q11 0 13 -11l84 -429q2 -10 2 -33h2q0 23 3 33l75 393h-51q-12 0 -12 11v25q0 11 12 11h160q12 0 12 -11v-25q0 -11 -12 -11h-57l-104 -492q-3 -11 -14 -11h-26q-11 0 -14 11l-82 409q-3 15 -3 34h-2
q0 -24 -2 -34l-82 -409q-3 -11 -14 -11h-26q-11 0 -14 11l-104 492h-58q-11 0 -11 11v25q0 11 11 11h161q11 0 11 -11v-25q0 -11 -11 -11zM309 601l-63 74q-7 7 3 7h45q8 0 13 -8l44 -73q3 -7 -5 -7h-21q-10 0 -16 7z" />
    <glyph glyph-name="Wacute" unicode="&#x1e82;" horiz-adv-x="703" 
d="M377 689l91 -547q2 -10 2 -31h2q0 21 2 31l94 509h-53q-11 0 -11 11v27q0 11 11 11h167q11 0 11 -11v-27q0 -11 -11 -11h-60l-127 -640q-2 -11 -13 -11h-21q-11 0 -13 11l-93 535q-2 9 -2 30h-2q0 -21 -2 -30l-93 -535q-2 -11 -13 -11h-21q-12 0 -14 11l-126 640h-61
q-11 0 -11 11v27q0 11 11 11h168q11 0 11 -11v-27q0 -11 -11 -11h-53l93 -509q2 -10 2 -31h2q0 21 2 31l92 547q2 11 13 11h24q11 0 13 -11zM324 751l44 73q5 8 13 8h45q10 0 3 -7l-63 -74q-6 -7 -16 -7h-21q-9 0 -5 7z" />
    <glyph glyph-name="wacute" unicode="&#x1e83;" horiz-adv-x="645" 
d="M182 503h-51l76 -393q2 -10 2 -33h2q0 18 3 33l83 429q2 11 13 11h25q11 0 13 -11l84 -429q2 -10 2 -33h2q0 23 3 33l75 393h-51q-12 0 -12 11v25q0 11 12 11h160q12 0 12 -11v-25q0 -11 -12 -11h-57l-104 -492q-3 -11 -14 -11h-26q-11 0 -14 11l-82 409q-3 15 -3 34h-2
q0 -24 -2 -34l-82 -409q-3 -11 -14 -11h-26q-11 0 -14 11l-104 492h-58q-11 0 -11 11v25q0 11 11 11h161q11 0 11 -11v-25q0 -11 -11 -11zM295 601l43 73q5 8 13 8h45q10 0 3 -7l-63 -74q-6 -7 -15 -7h-22q-9 0 -4 7z" />
    <glyph glyph-name="Wdieresis" unicode="&#x1e84;" horiz-adv-x="703" 
d="M377 689l91 -547q2 -10 2 -31h2q0 21 2 31l94 509h-53q-11 0 -11 11v27q0 11 11 11h167q11 0 11 -11v-27q0 -11 -11 -11h-60l-127 -640q-2 -11 -13 -11h-21q-11 0 -13 11l-93 535q-2 9 -2 30h-2q0 -21 -2 -30l-93 -535q-2 -11 -13 -11h-21q-12 0 -14 11l-126 640h-61
q-11 0 -11 11v27q0 11 11 11h168q11 0 11 -11v-27q0 -11 -11 -11h-53l93 -509q2 -10 2 -31h2q0 21 2 31l92 547q2 11 13 11h24q11 0 13 -11zM270 769v21q0 18 18 18h21q17 0 17 -18v-21q0 -17 -17 -17h-21q-18 0 -18 17zM381 769v21q0 18 17 18h21q17 0 17 -18v-21
q0 -17 -17 -17h-21q-17 0 -17 17z" />
    <glyph glyph-name="wdieresis" unicode="&#x1e85;" horiz-adv-x="645" 
d="M182 503h-51l76 -393q2 -10 2 -33h2q0 18 3 33l83 429q2 11 13 11h25q11 0 13 -11l84 -429q2 -10 2 -33h2q0 23 3 33l75 393h-51q-12 0 -12 11v25q0 11 12 11h160q12 0 12 -11v-25q0 -11 -12 -11h-57l-104 -492q-3 -11 -14 -11h-26q-11 0 -14 11l-82 409q-3 15 -3 34h-2
q0 -24 -2 -34l-82 -409q-3 -11 -14 -11h-26q-11 0 -14 11l-104 492h-58q-11 0 -11 11v25q0 11 11 11h161q11 0 11 -11v-25q0 -11 -11 -11zM241 619v21q0 18 17 18h22q17 0 17 -18v-21q0 -17 -17 -17h-22q-17 0 -17 17zM351 619v21q0 18 17 18h22q17 0 17 -18v-21
q0 -17 -17 -17h-22q-17 0 -17 17z" />
    <glyph glyph-name="uni1E9E" unicode="&#x1e9e;" horiz-adv-x="439" 
d="M140 588v-577q0 -11 -11 -11h-108q-11 0 -11 11v27q0 11 11 11h66v538q0 51 31 82t81 31h170q11 0 8 -11l-107 -274h24q43 0 69.5 -30.5t26.5 -80.5v-192q0 -50 -31 -81t-82 -31h-68q-11 0 -11 11v29q0 11 11 11h64q30 0 47 18.5t17 49.5v186q0 31 -17 49t-47 18h-46
q-12 0 -12 11v26q0 8 4 22l85 218h-103q-27 0 -44 -17t-17 -44z" />
    <glyph glyph-name="Ygrave" unicode="&#x1ef2;" horiz-adv-x="487" 
d="M249 376l100 275h-42q-12 0 -12 11v27q0 11 12 11h159q11 0 11 -11v-27q0 -11 -11 -11h-62l-134 -369v-233h66q11 0 11 -11v-27q0 -11 -11 -11h-185q-11 0 -11 11v27q0 11 11 11h66v233l-135 369h-61q-11 0 -11 11v27q0 11 11 11h160q11 0 11 -11v-27q0 -11 -11 -11h-43
l100 -275q5 -15 5 -30h2q0 18 4 30zM228 824l44 -73q4 -7 -5 -7h-21q-10 0 -16 7l-63 74q-5 7 3 7h45q10 0 13 -8z" />
    <glyph glyph-name="ygrave" unicode="&#x1ef3;" horiz-adv-x="458" 
d="M178 503h-47l94 -387q3 -10 3 -33h2q0 18 3 33l94 387h-46q-12 0 -12 11v25q0 11 12 11h156q11 0 11 -11v-25q0 -11 -11 -11h-58l-159 -642q-3 -11 -14 -11h-94q-12 0 -12 11v25q0 11 12 11h67l26 104l-126 502h-58q-11 0 -11 11v25q0 11 11 11h157q11 0 11 -11v-25
q0 -11 -11 -11zM216 623l-64 74q-5 7 4 7h45q9 0 12 -8l44 -73q5 -7 -4 -7h-22q-10 0 -15 7z" />
    <glyph glyph-name="figuredash" unicode="&#x2012;" horiz-adv-x="401" 
d="M50 339v26q0 12 11 12h279q11 0 11 -12v-26q0 -11 -11 -11h-279q-11 0 -11 11z" />
    <glyph glyph-name="endash" unicode="&#x2013;" horiz-adv-x="460" 
d="M46 292v26q0 10 9 10h350q9 0 9 -10v-26q0 -9 -9 -9h-350q-9 0 -9 9z" />
    <glyph glyph-name="emdash" unicode="&#x2014;" horiz-adv-x="840" 
d="M46 292v26q0 10 9 10h730q9 0 9 -10v-26q0 -9 -9 -9h-730q-9 0 -9 9z" />
    <glyph glyph-name="quoteleft" unicode="&#x2018;" horiz-adv-x="165" 
d="M125 685l-17 -144q-2 -17 -19 -17h-29q-17 0 -14 16l35 145q3 15 18 15h13q15 0 13 -15z" />
    <glyph glyph-name="quoteright" unicode="&#x2019;" horiz-adv-x="165" 
d="M40 539l17 144q2 17 19 17h30q16 0 13 -17l-35 -145q-4 -14 -18 -14h-12q-16 0 -14 15z" />
    <glyph glyph-name="quotesinglbase" unicode="&#x201a;" horiz-adv-x="149" 
d="M32 -91l16 144q2 17 19 17h30q18 0 13 -16l-34 -145q-3 -15 -19 -15h-12q-15 0 -13 15z" />
    <glyph glyph-name="quotedblleft" unicode="&#x201c;" horiz-adv-x="264" 
d="M125 685l-17 -144q-2 -17 -19 -17h-30q-16 0 -13 17l35 145q3 14 18 14h12q16 0 14 -15zM224 685l-17 -144q-2 -17 -19 -17h-30q-16 0 -13 17l35 145q4 14 18 14h12q16 0 14 -15z" />
    <glyph glyph-name="quotedblright" unicode="&#x201d;" horiz-adv-x="264" 
d="M139 539l17 144q2 17 19 17h30q16 0 13 -17l-35 -145q-3 -14 -18 -14h-12q-16 0 -14 15zM40 539l17 144q2 17 19 17h30q16 0 13 -17l-35 -145q-4 -14 -18 -14h-12q-16 0 -14 15z" />
    <glyph glyph-name="quotedblbase" unicode="&#x201e;" horiz-adv-x="264" 
d="M139 -91l17 144q2 17 19 17h30q16 0 13 -16l-35 -145q-3 -15 -18 -15h-12q-16 0 -14 15zM40 -91l17 144q2 17 19 17h30q16 0 13 -16l-35 -145q-3 -15 -18 -15h-12q-16 0 -14 15z" />
    <glyph glyph-name="dagger" unicode="&#x2020;" horiz-adv-x="388" 
d="M26 552h145v189q0 9 9 9h27q9 0 9 -9v-189h145q9 0 9 -9v-25q0 -9 -9 -9h-145v-650q0 -9 -9 -9h-27q-9 0 -9 9v650h-145q-9 0 -9 9v25q0 9 9 9z" />
    <glyph glyph-name="daggerdbl" unicode="&#x2021;" horiz-adv-x="388" 
d="M171 -141v183h-145q-9 0 -9 9v25q0 9 9 9h145v430h-145q-9 0 -9 9v25q0 9 9 9h145v183q0 9 9 9h27q9 0 9 -9v-183h145q9 0 9 -9v-25q0 -9 -9 -9h-145v-430h145q9 0 9 -9v-25q0 -9 -9 -9h-145v-183q0 -9 -9 -9h-27q-9 0 -9 9z" />
    <glyph glyph-name="bullet" unicode="&#x2022;" horiz-adv-x="259" 
d="M46 256v97q0 16 9.5 25.5t25.5 9.5h97q16 0 25.5 -9.5t9.5 -25.5v-97q0 -16 -9.5 -25.5t-25.5 -9.5h-97q-16 0 -25.5 9.5t-9.5 25.5z" />
    <glyph glyph-name="ellipsis" unicode="&#x2026;" horiz-adv-x="489" 
d="M46 17v39q0 17 17 17h37q17 0 17 -17v-39q0 -17 -17 -17h-37q-17 0 -17 17zM209 17v39q0 17 17 17h37q17 0 17 -17v-39q0 -17 -17 -17h-37q-17 0 -17 17zM372 17v39q0 17 17 17h37q17 0 17 -17v-39q0 -17 -17 -17h-37q-17 0 -17 17z" />
    <glyph glyph-name="perthousand" unicode="&#x2030;" horiz-adv-x="1040" 
d="M109 26l472 674q3 4 7 4q1 0 5 -2l22 -15q7 -5 2 -13l-471 -673q-3 -4 -7 -4t-6 2l-21 15q-7 4 -3 12zM90 594v-167q0 -29 18.5 -47t47.5 -18h18q29 0 47 18t18 47v167q0 29 -18 47t-47 18h-18q-29 0 -47.5 -18t-18.5 -47zM46 430v161q0 50 31 81.5t82 31.5h11
q51 0 82.5 -31.5t31.5 -81.5v-161q0 -51 -31.5 -82t-82.5 -31h-11q-51 0 -82 31t-31 82zM443 110v160q0 51 31 82t82 31h12q50 0 81.5 -31t31.5 -82v-160q0 -51 -31.5 -82.5t-81.5 -31.5h-12q-51 0 -82 31.5t-31 82.5zM488 273v-167q0 -29 18 -47t47 -18h18q29 0 47 18
t18 47v167q0 29 -18 47t-47 18h-18q-29 0 -47 -18t-18 -47zM756 110v160q0 51 31 82t82 31h11q51 0 82.5 -31t31.5 -82v-160q0 -51 -31.5 -82.5t-82.5 -31.5h-11q-51 0 -82 31.5t-31 82.5zM800 273v-167q0 -29 18.5 -47t47.5 -18h18q29 0 47 18t18 47v167q0 29 -18 47
t-47 18h-18q-29 0 -47.5 -18t-18.5 -47z" />
    <glyph glyph-name="guilsinglleft" unicode="&#x2039;" horiz-adv-x="261" 
d="M230 458l-161 -153l161 -153q9 -8 0 -15l-16 -17q-3 -3 -8 -3q-4 0 -8 3l-170 162q-8 8 -8 19v8q0 11 8 19l170 162q4 3 8 3q5 0 8 -3l16 -16q8 -8 0 -16z" />
    <glyph glyph-name="guilsinglright" unicode="&#x203a;" horiz-adv-x="261" 
d="M192 305l-161 153q-8 8 0 16l16 16q3 3 8 3q3 0 8 -3l170 -162q8 -8 8 -19v-8q0 -11 -8 -19l-170 -162q-5 -3 -8 -3q-5 0 -8 3l-16 17q-9 7 0 15z" />
    <glyph glyph-name="fraction" unicode="&#x2044;" horiz-adv-x="576" 
d="M2 -20l536 765q3 5 7 5q3 0 5 -2l22 -15q8 -7 2 -13l-535 -766q-4 -4 -7 -4q-2 0 -6 2l-22 15q-8 5 -2 13z" />
    <glyph glyph-name="Euro" unicode="&#x20ac;" horiz-adv-x="433" 
d="M7 277v22q0 11 11 11h55v80h-55q-11 0 -11 11v22q0 12 11 12h55v150q0 53 32.5 86t86.5 33h73q54 0 86.5 -33t32.5 -86v-70q0 -12 -11 -12h-31q-11 0 -11 12v72q0 29 -17.5 46.5t-45.5 17.5h-78q-28 0 -46 -17.5t-18 -46.5v-152h144q11 0 11 -12v-22q0 -11 -11 -11h-144
v-80h144q11 0 11 -11v-22q0 -12 -11 -12h-144v-152q0 -28 17.5 -45.5t46.5 -17.5h78q28 0 45.5 17t17.5 46v72q0 12 11 12h31q11 0 11 -12v-70q0 -53 -32.5 -86t-86.5 -33h-73q-54 0 -86.5 33t-32.5 86v150h-55q-11 0 -11 12z" />
    <glyph glyph-name="uni20B4" unicode="&#x20b4;" horiz-adv-x="395" 
d="M29 277v22q0 11 11 11h84l71 79h-155q-11 0 -11 11v23q0 11 11 11h195l31 35q32 34 32 80v40q0 28 -17.5 45t-45.5 17h-66q-29 0 -46.5 -17.5t-17.5 -46.5v-52q0 -12 -11 -12h-31q-11 0 -11 12v50q0 53 33 86t86 33h61q54 0 86.5 -31.5t32.5 -83.5v-36q0 -67 -45 -119h43
q11 0 11 -11v-23q0 -11 -11 -11h-83l-71 -79h154q11 0 11 -11v-22q0 -12 -11 -12h-194l-21 -24q-32 -34 -32 -80v-50q0 -28 17 -44.5t46 -16.5h77q28 0 45.5 17t17.5 46v52q0 12 11 12l31 -1q11 0 11 -11v-50q0 -54 -32.5 -86.5t-85.5 -32.5h-72q-54 0 -86.5 31.5
t-32.5 83.5v46q0 59 36 108h-45q-11 0 -11 12z" />
    <glyph glyph-name="afii61352" unicode="&#x2116;" horiz-adv-x="837" 
d="M598 594v-147q0 -29 18 -47t48 -18h18q29 0 47 18t18 47v147q0 29 -18 47t-47 18h-18q-30 0 -48 -18t-18 -47zM42 662v27q0 11 11 11h99q11 0 16 -10l212 -528q1 -1 7 -30l4 1q-5 22 -5 30v488h-60q-11 0 -11 11v27q0 11 11 11h179q11 0 11 -11v-27q0 -11 -11 -11h-65
v-640q0 -11 -12 -11h-22q-11 0 -16 10l-212 526q-5 11 -7 30l-4 -1q5 -23 5 -30v-486h60q11 0 11 -11v-27q0 -11 -11 -11h-179q-11 0 -11 11v27q0 11 11 11h65v602h-65q-11 0 -11 11zM780 228h-215q-11 0 -11 11v22q0 12 11 12h215q12 0 12 -12v-22q0 -11 -12 -11zM554 450
v141q0 50 31 81.5t82 31.5h11q51 0 82.5 -31.5t31.5 -81.5v-141q0 -51 -31.5 -82t-82.5 -31h-11q-51 0 -82 31t-31 82z" />
    <glyph glyph-name="trademark" unicode="&#x2122;" horiz-adv-x="551" 
d="M182 663h-53v-279h28q8 0 8 -8v-19q0 -7 -8 -7h-93q-8 0 -8 7v19q0 8 8 8h28v279h-53v-38q0 -7 -8 -7h-18q-7 0 -7 7v68q0 7 7 7h194q8 0 8 -7v-68q0 -7 -8 -7h-18q-7 0 -7 7v38zM257 384h28v282h-28q-8 0 -8 8v19q0 7 8 7h60q8 0 11 -8l60 -181q2 -7 2 -22h2q0 15 2 22
l61 182q1 7 10 7h60q8 0 8 -7v-19q0 -8 -8 -8h-28v-282h28q8 0 8 -8v-19q0 -7 -8 -7h-89q-7 0 -7 7v19q0 8 7 8h26v212q0 13 3 22h-2q-2 -12 -5 -21l-53 -159q-2 -7 -10 -7h-8q-7 0 -10 7l-54 159q-1 3 -4 21h-1q2 -12 2 -22v-212h26q7 0 7 -8v-19q0 -7 -7 -7h-89q-8 0 -8 7
v19q0 8 8 8z" />
    <glyph glyph-name="arrowleft" unicode="&#x2190;" horiz-adv-x="578" 
d="M527 328h-413l127 -117q9 -7 0 -15l-16 -17q-4 -4 -8 -4q-2 0 -8 4l-159 150q-8 8 -8 19v4q0 11 8 19l159 151q4 3 8 3q5 0 8 -3l16 -16q8 -8 0 -16l-127 -117h413q9 0 9 -10v-26q0 -9 -9 -9z" />
    <glyph glyph-name="arrowup" unicode="&#x2191;" horiz-adv-x="578" 
d="M266 112v413l-116 -127q-4 -4 -8 -4q-2 0 -8 4l-16 16q-8 8 0 16l150 160q8 8 19 8h4q9 0 19 -8l150 -160q8 -8 0 -16l-16 -16q-3 -3 -7 -3q-5 0 -8 3l-118 128v-414q0 -9 -9 -9h-27q-9 0 -9 9z" />
    <glyph glyph-name="arrowright" unicode="&#x2192;" horiz-adv-x="578" 
d="M464 328h-413q-9 0 -9 9v26q0 10 9 10h413l-127 117q-8 8 0 16l16 16q3 3 8 3q3 0 8 -3l159 -151q8 -8 8 -19v-4q0 -11 -8 -19l-159 -150q-6 -4 -8 -4q-4 0 -8 4l-16 17q-9 8 0 15z" />
    <glyph glyph-name="arrowdown" unicode="&#x2193;" horiz-adv-x="578" 
d="M312 588v-413l116 127q3 4 8 4q4 0 8 -3l16 -16q8 -9 0 -17l-150 -159q-6 -8 -19 -8h-4q-11 0 -19 8l-150 160q-9 7 0 16l16 16q3 3 7 3q5 0 8 -4l118 -127v413q0 10 9 10h27q9 0 9 -10z" />
    <glyph glyph-name="uni2196" unicode="&#x2196;" horiz-adv-x="578" 
d="M441 166l-292 292l8 -172q0 -11 -11 -11l-23 -1q-10 0 -12 12l-6 218q0 11 7 20l3 2q8 8 20 8l219 -6q11 0 11 -12v-22q0 -11 -11 -11l-173 7l292 -292q7 -6 0 -13l-19 -19q-3 -3 -6 -3q-4 0 -7 3z" />
    <glyph glyph-name="uni2197" unicode="&#x2197;" horiz-adv-x="578" 
d="M104 198l293 292l-172 -7q-12 -2 -12 10v23q0 12 11 12l219 7q11 0 19 -8l3 -3q8 -8 8 -19l-6 -219q0 -12 -12 -12h-22q-13 0 -11 11l7 173l-293 -292q-3 -3 -6 -3q-4 0 -7 3l-19 19q-5 7 0 13z" />
    <glyph glyph-name="uni2198" unicode="&#x2198;" horiz-adv-x="578" 
d="M137 535l292 -292l-8 172q0 11 11 11h23q12 0 12 -11l6 -219q0 -10 -7 -19l-3 -3q-8 -8 -20 -8l-219 7q-11 0 -11 11v23q0 11 11 11l173 -7l-292 292q-7 7 0 13l19 19q3 3 6 3q4 0 7 -3z" />
    <glyph glyph-name="uni2199" unicode="&#x2199;" horiz-adv-x="578" 
d="M474 503l-293 -293l172 8q12 0 12 -11v-23q0 -11 -11 -11l-219 -7q-11 0 -19 8l-3 3q-8 6 -8 19l6 219q2 11 12 11h22q13 0 11 -11l-7 -173l293 292q3 3 6 3q4 0 7 -3l19 -18q6 -7 0 -13z" />
    <glyph glyph-name="minus" unicode="&#x2212;" horiz-adv-x="401" 
d="M50 339v26q0 12 11 12h279q11 0 11 -12v-26q0 -11 -11 -11h-279q-11 0 -11 11z" />
    <glyph glyph-name="approxequal" unicode="&#x2248;" horiz-adv-x="401" 
d="M53 369v33q0 9 8 15l32 21q19 11 41 11q14 0 29 -5l88 -36q12 -4 19 -4q13 0 26 8l44 29l4 2q4 0 4 -6v-33q0 -9 -8 -14l-32 -21q-16 -11 -41 -11q-18 0 -29 5l-89 36q-7 3 -18 3q-17 0 -26 -8l-44 -29l-4 -2q-4 0 -4 6zM53 240v33q0 9 8 14l32 22q19 11 41 11
q14 0 29 -5l88 -36q9 -3 19 -3q15 0 26 7l44 29q2 1 4 1q4 0 4 -5v-33q0 -9 -8 -15l-32 -20q-18 -12 -41 -12q-15 0 -29 6l-89 36q-7 3 -17 3q-16 0 -27 -8l-44 -29l-4 -2q-4 0 -4 6z" />
    <glyph glyph-name="notequal" unicode="&#x2260;" horiz-adv-x="401" 
d="M212 451l32 85q1 6 12 6l25 -9q8 -3 5 -12l-26 -70h80q11 0 11 -11v-27q0 -11 -11 -11h-98l-36 -99h134q11 0 11 -12v-26q0 -12 -11 -12h-152l-32 -86q-3 -6 -12 -6l-25 10q-9 4 -6 12l26 70h-78q-11 0 -11 12v26q0 12 11 12h97l36 99h-133q-11 0 -11 11v27q0 11 11 11
h151z" />
    <glyph glyph-name="lessequal" unicode="&#x2264;" horiz-adv-x="401" 
d="M50 119v26q0 12 11 12h279q11 0 11 -12v-26q0 -11 -11 -11h-279q-11 0 -11 11zM345 519l-216 -125l216 -124q9 -6 4 -16l-13 -23q-3 -6 -9 -6q-2 0 -6 2l-262 151q-9 5 -9 16q0 12 9 17l262 151q4 2 6 2q5 0 9 -6l13 -24q5 -10 -4 -15z" />
    <glyph glyph-name="greaterequal" unicode="&#x2265;" horiz-adv-x="401" 
d="M272 394l-216 125q-9 5 -4 15l13 24q4 6 9 6q2 0 6 -2l261 -151q10 -5 10 -17q0 -11 -10 -16l-261 -151q-4 -2 -6 -2q-6 0 -9 6l-13 23q-5 10 4 16zM351 145v-26q0 -11 -11 -11h-279q-11 0 -11 11v26q0 12 11 12h279q11 0 11 -12z" />
    </font>
</defs>
</svg>
