<?xml version="1.0" standalone="no"?>
<!DOCTYPE svg PUBLIC "-//W3C//DTD SVG 1.1//EN" "http://www.w3.org/Graphics/SVG/1.1/DTD/svg11.dtd" >
<svg xmlns="http://www.w3.org/2000/svg" xmlns:xlink="http://www.w3.org/1999/xlink" version="1.1">
<metadata>
Created by FontForge 20170731 at Tue Nov  1 10:52:28 2022
 By Aleksey,,,
Created by gluk (gluksza@wp.pl | www.glukfonts.pl) with FontForge.

</metadata>
<defs>
<font id="Znikomit" horiz-adv-x="1433" >
  <font-face 
    font-family="Znikomit"
    font-weight="100"
    font-stretch="normal"
    units-per-em="2048"
    panose-1="2 0 2 3 0 0 0 0 0 0"
    ascent="1556"
    descent="-492"
    x-height="1065"
    cap-height="1556"
    bbox="-983 -526 3727 2043.5"
    underline-thickness="25"
    underline-position="-352"
    unicode-range="U+0020-FFFD"
  />
<missing-glyph horiz-adv-x="706" 
d="M604 0h-502v1229h502v-1229zM127 27h453v1177h-453v-1177z" />
    <glyph glyph-name="f_j" unicode="fj" horiz-adv-x="1105" 
d="M913 1413q0 17 12 29t29 12t29 -12t12 -29t-12 -29t-29 -12t-29 12t-12 29zM682 -458q50 0 94 19.5t82.5 60.5t61 117t22.5 179v1080q0 29 -24 40.5t-83 11.5h-47v15h47l133 3v-1150q0 -206 -86 -308t-215 -102q-62 0 -110 38q-9 6 -9 17q0 8 6.5 15t14.5 7t15 -5
q48 -38 98 -38zM82 1024v20h127q36 0 33 36q-9 92 -9 127q0 167 76.5 258t207.5 91q104 0 167.5 -55.5t63.5 -146.5q0 -9 -6 -15.5t-16 -6.5q-20 0 -20 22q0 82 -52 132t-137 50q-119 0 -189 -86t-70 -244q0 -34 9 -124q4 -38 41 -38h337v-20h-337q-37 0 -37 -36v-921
q0 -17 8.5 -27t43.5 -17.5t102 -7.5h26v-15h-400v15h41q67 0 102 7.5t43.5 17.5t8.5 27v922q0 35 -37 35h-127z" />
    <glyph glyph-name="f_f" unicode="ff" horiz-adv-x="1474" 
d="M82 1024v20h127q36 0 33 36q-9 92 -9 127q0 157 84.5 253t221.5 96q113 0 181 -55.5t68 -146.5q0 -22 -21 -22t-21 22q0 82 -57 132t-150 50q-126 0 -203.5 -91t-77.5 -239q0 -34 9 -124q4 -38 41 -38h317v-20h-317q-37 0 -37 -36v-921q0 -17 8.5 -27t43.5 -17.5
t102 -7.5h26v-15h-400v15h41q67 0 102 7.5t43.5 17.5t8.5 27v922q0 35 -37 35h-127zM778 1024v20h168q36 0 33 36q-8 82 -8 127q0 88 29 157.5t77 110t104 61t115 20.5q118 0 194.5 -63t76.5 -160q0 -9 -6 -15t-16 -6q-21 0 -21 21q0 88 -64.5 145.5t-163.5 57.5
q-55 0 -106.5 -19t-96 -56.5t-71.5 -103.5t-27 -151q0 -24 10 -124q4 -38 41 -38h265v-20h-265q-37 0 -37 -36v-921q0 -18 8 -27.5t43 -17t102 -7.5h26v-15h-400v15h41q67 0 102 7.5t43.5 17.5t8.5 27v922q0 35 -37 35h-168z" />
    <glyph glyph-name="f_i" unicode="fi" horiz-adv-x="1249" 
d="M952 1413q0 17 12 29t29 12t29 -12t12 -29t-12 -29t-29 -12t-29 12t-12 29zM1009 72q0 -13 4.5 -22t19 -17.5t47 -13t82.5 -4.5h36v-15h-410v15h41q66 0 101.5 8.5t44 19.5t8.5 29v926q0 29 -24 40.5t-83 11.5h-26v15h26l133 3v-996zM82 1024v20h127q36 0 33 36
q-9 92 -9 127q0 167 76.5 258t207.5 91q104 0 167.5 -55.5t63.5 -146.5q0 -9 -6 -15.5t-16 -6.5q-20 0 -20 22q0 82 -52 132t-137 50q-119 0 -189 -86t-70 -244q0 -34 9 -124q4 -38 41 -38h337v-20h-337q-37 0 -37 -36v-921q0 -17 8.5 -27t43.5 -17.5t102 -7.5h26v-15h-400
v15h41q67 0 102 7.5t43.5 17.5t8.5 27v922q0 35 -37 35h-127z" />
    <glyph glyph-name="f_f_i" unicode="ffi" horiz-adv-x="1986" 
d="M1690 1413q0 17 12 29t29 12t29 -12t12 -29t-12 -29t-29 -12t-29 12t-12 29zM1746 72q0 -18 8.5 -29t44 -19.5t101.5 -8.5h35v-15h-409v15h41q50 0 82.5 4.5t47 13t19 17.5t4.5 22v926q0 29 -24 40.5t-83 11.5h-26v15h26l133 3v-996zM799 1024v20h147q36 0 33 36
q-8 82 -8 127q0 168 76 258.5t207 90.5q104 0 167.5 -55.5t63.5 -146.5q0 -9 -6 -15.5t-16 -6.5q-20 0 -20 22q0 82 -52 132t-137 50q-119 0 -189 -86t-70 -244q0 -24 10 -124q4 -38 41 -38h336v-20h-336q-37 0 -37 -36v-921q0 -18 8 -27.5t43 -17t102 -7.5h26v-15h-400v15
h41q67 0 102 7.5t43.5 17.5t8.5 27v922q0 35 -37 35h-147zM82 1024v20h127q36 0 33 36q-9 92 -9 127q0 157 84.5 253t221.5 96q113 0 181 -55.5t68 -146.5q0 -22 -21 -22t-21 22q0 82 -57 132t-150 50q-126 0 -203.5 -91t-77.5 -239q0 -34 9 -124q4 -38 41 -38h317v-20h-317
q-37 0 -37 -36v-921q0 -17 8.5 -27t43.5 -17.5t102 -7.5h26v-15h-400v15h41q67 0 102 7.5t43.5 17.5t8.5 27v922q0 35 -37 35h-127z" />
    <glyph glyph-name="f_f_l" unicode="ffl" horiz-adv-x="1986" 
d="M778 1024v20h168q36 0 33 36q-8 82 -8 127q0 168 76 258.5t207 90.5q104 0 167.5 -55.5t63.5 -146.5q0 -9 -6 -15.5t-16 -6.5q-20 0 -20 22q0 82 -52 132t-137 50q-119 0 -189 -86t-70 -244q0 -24 10 -124q4 -38 41 -38h336v-20h-336q-37 0 -37 -36v-921q0 -18 8 -27.5
t43 -17t102 -7.5h26v-15h-400v15h41q67 0 102 7.5t43.5 17.5t8.5 27v922q0 35 -37 35h-168zM82 1024v20h127q36 0 33 36q-9 92 -9 127q0 157 84.5 253t221.5 96q113 0 181 -55.5t68 -146.5q0 -22 -21 -22t-21 22q0 82 -57 132t-150 50q-126 0 -203.5 -91t-77.5 -239
q0 -34 9 -124q4 -38 41 -38h317v-20h-317q-37 0 -37 -36v-921q0 -17 8.5 -27t43.5 -17.5t102 -7.5h26v-15h-400v15h41q67 0 102 7.5t43.5 17.5t8.5 27v922q0 35 -37 35h-127zM1746 72q0 -18 8.5 -29t44 -19.5t101.5 -8.5h35v-15h-409v15h41q50 0 82.5 4.5t47 13t19 17.5
t4.5 22v1418q0 28 -24 39.5t-83 11.5h-46v15h46l133 4v-1488z" />
    <glyph glyph-name="f_t" unicode="ft" horiz-adv-x="1587" 
d="M778 1024v20h92q67 0 85 22t18 104v182h20v-273q0 -35 37 -35h486v-20h-486q-37 0 -37 -36v-589q0 -167 76 -275.5t192 -108.5q73 0 140 31.5t106 93.5l17 -10q-41 -66 -113 -100.5t-150 -34.5q-127 0 -210 114t-83 290v589q0 36 -37 36h-153zM82 1024v20h127q36 0 33 36
q-9 92 -9 127q0 167 76.5 258t207.5 91q104 0 167.5 -55.5t63.5 -146.5q0 -9 -6 -15.5t-16 -6.5q-20 0 -20 22q0 82 -52 132t-137 50q-119 0 -189 -86t-70 -244q0 -34 9 -124q4 -38 41 -38h337v-20h-337q-37 0 -37 -36v-921q0 -17 8.5 -27t43.5 -17.5t102 -7.5h26v-15h-400
v15h41q67 0 102 7.5t43.5 17.5t8.5 27v922q0 35 -37 35h-127z" />
    <glyph glyph-name=".notdef" horiz-adv-x="706" 
d="M604 0h-502v1229h502v-1229zM127 27h453v1177h-453v-1177z" />
    <glyph glyph-name=".null" horiz-adv-x="61" 
 />
    <glyph glyph-name="nonmarkingreturn" horiz-adv-x="743" 
 />
    <glyph glyph-name="space" unicode=" " horiz-adv-x="819" 
 />
    <glyph glyph-name="exclam" unicode="!" horiz-adv-x="327" 
d="M164 1556h25v-70q0 -32 -2.5 -329.5t-2.5 -664.5h-20v1064zM133 36q0 17 12 29t29 12t29 -12t12 -29t-12 -29t-29 -12t-29 12t-12 29z" />
    <glyph glyph-name="quotedbl" unicode="&#x22;" horiz-adv-x="368" 
d="M246 1562q5 0 8.5 -3.5t3.5 -5.5q8 -45 8 -92q0 -66 -16 -203l-8 -65l-21 3l9 66q11 91 11 199q0 39 -9 88q0 3 4 8t10 5zM123 1562q5 0 8.5 -3.5t3.5 -5.5q8 -45 8 -92q0 -66 -16 -203l-8 -65l-21 3l10 66q10 83 10 199q0 45 -8 88q0 3 3.5 8t9.5 5z" />
    <glyph glyph-name="numbersign" unicode="#" horiz-adv-x="901" 
d="M314 932l-34 -389h307l35 389h-308zM257 276h-20l21 246h-163l1 21h163l35 389h-164l2 20h163l21 246h21l-22 -246h308l21 246h21l-22 -246h163l-1 -20h-163l-35 -389h164l-2 -21h-163l-21 -246h-21l22 246h-307z" />
    <glyph glyph-name="dollar" unicode="$" horiz-adv-x="1064" 
d="M538 -41h-26v118q-103 2 -178.5 28.5t-151.5 91.5q-51 47 -64 47q-19 0 -22 -66l-4 -96h-15l12 338h15v-11q0 -119 96 -198q74 -61 144.5 -86.5t167.5 -27.5v693q-184 82 -248 124q-121 79 -121 172q0 135 103 223.5t261 88.5h5v118h26v-119q172 -8 290 -103
q6 -5 13.5 -11.5t11.5 -10t8 -6t7 -2.5q16 0 16 47q0 2 -0.5 7t-0.5 8q-1 27 -2 67h16l11 -308q0 -7 -8 -7t-8 7l-1 9q-18 137 -75 184q-111 90 -278 98v-564q56 -25 93.5 -42.5t88 -44.5t84.5 -51t71 -56.5t58.5 -65t35.5 -74t14 -85.5q0 -137 -126 -226.5t-319 -89.5v-118
zM538 778v-681q183 0 301 83.5t118 212.5q0 40 -13 77t-33 66.5t-54 59.5t-66 52t-80 47.5t-84 42t-89 40.5zM512 823v554h-5q-147 0 -242.5 -82t-95.5 -209q0 -17 4 -32.5t15 -31t20.5 -28t30 -27.5t33.5 -25t42 -25.5t44 -23.5t50 -24t50 -22.5t54 -23.5z" />
    <glyph glyph-name="percent" unicode="%" horiz-adv-x="1474" 
d="M172 75l-16 14l1147 1311l16 -15zM1106 594q125 0 206 -84t81 -213t-81 -213t-206 -84t-206 84t-81 213t81 213t206 84zM1106 573q-114 0 -187.5 -77.5t-73.5 -198.5t73.5 -199t187.5 -78t187.5 78t73.5 199t-73.5 198.5t-187.5 77.5zM369 1475q124 0 205 -84t81 -213
t-81 -213t-205 -84q-125 0 -206 84t-81 213t81 213t206 84zM369 1454q-114 0 -187.5 -77.5t-73.5 -198.5t73.5 -199t187.5 -78t187.5 78t73.5 199t-73.5 198.5t-187.5 77.5z" />
    <glyph glyph-name="ampersand" unicode="&#x26;" horiz-adv-x="1536" 
d="M983 1408l21 1l9 -329h-21l-2 61q-2 51 -8 73.5t-29 49.5q-107 129 -279 129q-119 0 -196 -79.5t-77 -202.5q0 -120 83 -226l554 -701q17 -22 39 -47q94 61 145 144.5t51 180.5q0 148 -92 277q-33 46 -60 68t-59 22q-46 -4 -76 -19q-51 -26 -51 -83q0 -17 7 -41
q1 -1 1 -4q0 -9 -10 -9q-8 0 -10 7q-9 31 -9 48q0 70 61 101q49 26 112 26q18 0 54 -2.5t53 -2.5q57 0 98 21q51 26 51 83q0 15 -7 41v1q-1 2 -1 3q0 11 11 11q6 0 10 -9q8 -27 8 -49q0 -70 -60 -100q-54 -27 -116 -27q-22 0 -22 -12q0 -4 2.5 -10t7.5 -14t9.5 -15t13 -19
t13.5 -20q86 -128 86 -273q0 -103 -54 -190.5t-152 -150.5q48 -48 113.5 -77t112.5 -29q83 0 129 37q7 5 14 5q8 0 14.5 -5t6.5 -13q0 -25 -51 -39.5t-99 -14.5q-145 0 -258 125q-192 -115 -475 -115q-229 0 -378 113.5t-149 288.5q0 169 95 280t243 111q36 0 75 -8
q26 -5 32 11t-6 28l-42 53q-91 117 -91 239q0 131 83.5 216.5t212.5 85.5q90 0 153.5 -29t116.5 -80q20 -22 31 -19t10 45zM1060 126l-38 45l-422 535q-22 28 -82.5 45t-107.5 17q-138 0 -225.5 -104.5t-87.5 -266.5q0 -166 142 -274t360 -108q275 0 461 111z" />
    <glyph glyph-name="quotesingle" unicode="'" horiz-adv-x="245" 
d="M123 1562q5 0 8.5 -3.5t3.5 -5.5q8 -45 8 -92q0 -66 -16 -203l-8 -65l-21 3l10 66q10 83 10 199q0 45 -8 88q0 3 3.5 8t9.5 5z" />
    <glyph glyph-name="parenleft" unicode="(" horiz-adv-x="655" 
d="M553 1597l10 -17q-195 -116 -324.5 -387.5t-130.5 -619.5q0 -347 130 -618t325 -388l-10 -18q-202 122 -336.5 397.5t-134.5 626.5q1 351 135 627t336 397z" />
    <glyph glyph-name="parenright" unicode=")" horiz-adv-x="655" 
d="M102 1597q202 -121 336 -397t135 -627q0 -351 -134.5 -626.5t-336.5 -397.5l-10 18q196 117 326 388t130 618q-1 348 -131 619t-325 388z" />
    <glyph glyph-name="asterisk" unicode="*" horiz-adv-x="737" 
d="M345 1170q0 1 -2 3.5t-2 3.5l-71 22q-55 17 -84 23.5t-51.5 8t-34.5 3.5q-9 16 -4 34q2 6 5 10t5.5 5.5t7 3.5t5.5 3q10 -5 29.5 -17t46 -22.5t81.5 -29.5l71 -25q1 1 3.5 1t3.5 1q1 0 2 2.5t2 3.5l-1 75q-1 58 -4 88t-7.5 50t-6.5 34q14 14 29 14q16 0 30 -14
q-2 -14 -6.5 -34t-7.5 -50t-4 -88l-1 -75q1 0 2.5 -2.5t2.5 -3.5t3.5 -1t3.5 -1l71 25q55 19 81.5 29.5t47 23t29.5 16.5q1 -1 4 -2t5 -2.5t5 -3.5t5 -5.5t3 -8.5q5 -18 -4 -34q-12 -2 -34.5 -3.5t-51.5 -8t-84 -23.5l-71 -22q0 -1 -2 -3.5t-2 -3.5q-1 -1 -1 -4v-4l45 -60
q35 -46 54 -68.5t35.5 -36.5t25.5 -24q-3 -21 -14 -29q-15 -11 -34 -6q-7 12 -14.5 32t-22.5 46t-48 73l-43 61q-1 0 -4 1t-4 1q-2 0 -4 -1t-3 -1l-43 -61q-34 -47 -49.5 -72.5t-23.5 -45t-15 -31.5q-20 -3 -30 5q-15 12 -17 30q9 10 25.5 23.5t36.5 35.5t55 68l45 59
q-1 1 0 4.5t0 4.5z" />
    <glyph glyph-name="plus" unicode="+" horiz-adv-x="1064" 
d="M983 788l-1 -20h-439v-440h-21v440h-440v20h440v441h21v-441h440z" />
    <glyph glyph-name="comma" unicode="," horiz-adv-x="327" 
d="M123 36q0 17 12 29t29 12t29 -12t12 -29q0 -66 -21.5 -114t-73.5 -105l-16 13q85 93 85 168h-1q-6 -3 -14 -3q-17 0 -29 12t-12 29z" />
    <glyph glyph-name="hyphen" unicode="-" horiz-adv-x="737" 
d="M657 788l-4 -20h-573l4 20h573z" />
    <glyph glyph-name="period" unicode="." horiz-adv-x="327" 
d="M123 36q0 17 12 29t29 12t29 -12t12 -29t-12 -29t-29 -12t-29 12t-12 29z" />
    <glyph glyph-name="slash" unicode="/" horiz-adv-x="1228" 
d="M1164 1568l-1078 -1684l-21 14l1078 1683z" />
    <glyph glyph-name="zero" unicode="0" horiz-adv-x="1105" 
d="M1044 727q0 -210 -63 -377t-175 -261t-253 -94t-253.5 94t-175.5 261t-63 377t63 377t175.5 261t253.5 94t253 -94t175 -261t63 -377zM1019 727q0 204 -60 366.5t-166.5 254t-239.5 91.5t-239.5 -91.5t-166.5 -254t-60 -366.5t60 -366.5t166.5 -254t239.5 -91.5
t239.5 91.5t166.5 254t60 366.5z" />
    <glyph glyph-name="one" unicode="1" horiz-adv-x="552" 
d="M266 1292q0 25 -3.5 36.5t-17.5 11.5q-15 0 -32 -9q-43 -20 -111 -20v20q24 0 44.5 3t35 6t27 11t20.5 13t14.5 17t9.5 17t6 19.5t3.5 19t2 20t1.5 18.5q11 0 18.5 -7.5t7.5 -18.5v-1377q0 -13 4.5 -22t19 -17.5t47 -13t82.5 -4.5h57v-15h-451v15h62q50 0 82.5 4.5t47 13
t19 17.5t4.5 22v1220z" />
    <glyph glyph-name="two" unicode="2" horiz-adv-x="1024" 
d="M513 1439q-62 0 -123.5 -18.5t-118.5 -55.5t-96.5 -102t-48.5 -148l-3 -30q0 -7 -8 -7q-9 0 -9 7l15 369h16q-1 -32 -2.5 -73.5t-1.5 -48.5q0 -47 15 -47q14 0 39 30q61 71 150 107.5t176 36.5q171 0 282 -101t111 -257q0 -112 -57 -230t-212 -284l-342 -365
q-102 -110 -175 -167q-23 -18 -23 -23q0 -6 25 -6h733q38 0 62.5 25.5t24.5 64.5v176h21v-282q0 -10 -11 -10h-901q-10 0 -10 10v13q0 9 9 10q8 1 38.5 24.5t82.5 72t108 107.5l342 364q153 163 206.5 277t53.5 223q0 147 -104 242.5t-264 95.5z" />
    <glyph glyph-name="three" unicode="3" horiz-adv-x="1105" 
d="M532 1439q-62 0 -123.5 -18.5t-118 -55.5t-96 -102t-48.5 -148l-3 -30q0 -7 -8 -7t-8 7l14 369h17l-3 -106q0 -2 -0.5 -8t-0.5 -8q0 -47 15 -47q13 0 39 30q61 71 149.5 107.5t174.5 36.5q183 0 301.5 -88t118.5 -224q0 -103 -79 -184t-228 -119v-4q192 -28 301 -129
t109 -276q0 -191 -153.5 -315.5t-389.5 -124.5q-82 0 -153 17t-116 40.5t-84 58t-58 59.5t-38 55q-2 4 -2 5v98h21v-23q0 -26 14.5 -71t33.5 -67q131 -152 382 -152q225 0 371 118.5t146 301.5q0 166 -100.5 261.5t-286.5 122.5h-17q-23 0 -23 10v25q0 10 23 10h17
q142 37 213.5 112.5t71.5 170.5q0 127 -112 209.5t-283 82.5z" />
    <glyph glyph-name="four" unicode="4" horiz-adv-x="1167" 
d="M625 0v15h102q66 0 101.5 8.5t44 19.5t8.5 29v174q0 36 -37 36h-793v30q13 15 82.5 95t98.5 114.5t78 96.5t83 112q208 304 208 606q0 24 -18 57t-18 46q0 8 6 14.5t14 6.5q14 0 19 -8q20 -31 20 -100q0 -319 -208 -625q-84 -124 -313 -385q-8 -9 -11 -16.5t2 -13
t18 -5.5h732q37 0 37 35v708q0 11 7 18t18 7v-733q0 -35 37 -35h132v-25h-132q-37 0 -37 -36v-174q0 -18 8.5 -29t44 -19.5t101.5 -8.5h46v-15h-481z" />
    <glyph glyph-name="five" unicode="5" horiz-adv-x="1126" 
d="M82 333v-31q0 -27 14 -72t34 -66q69 -74 167 -111.5t207 -37.5q106 0 195.5 27.5t152 75t106.5 111t65 135.5t21 148q0 95 -33 181.5t-94.5 156.5t-161.5 112t-223 42q-96 0 -203.5 -39.5t-186.5 -102.5l-36 -2l38 517q2 30 2 67v10h808q11 0 11 -9l18 -236l-17 -2
l-11 110q-9 111 -118 111h-670q0 -22 -2 -53l-32 -441q-2 -28 11 -33t27 7q79 53 176 84.5t185 31.5q128 0 231.5 -43.5t168 -116.5t99 -163.5t34.5 -188.5q0 -79 -22 -154t-68 -141t-111 -115.5t-158 -78t-202 -28.5q-136 0 -253.5 56t-187.5 167l-2 2v113h21z" />
    <glyph glyph-name="six" unicode="6" horiz-adv-x="1085" 
d="M850 1300h-21v23q0 24 -18.5 53t-48.5 37q-93 26 -189 26q-221 0 -353.5 -191.5t-132.5 -542.5q0 -24 3 -24t10 24q46 156 171.5 253t281.5 97q205 0 338 -150.5t133 -382.5q0 -230 -141.5 -378.5t-360.5 -148.5q-208 0 -334.5 195.5t-126.5 514.5q1 356 141 555t371 199
q146 0 271 -52q6 -2 6 -9v-98zM553 1034q-175 0 -305 -125.5t-149 -319.5q-3 -39 -3 -43q29 -244 143 -387.5t283 -143.5q209 0 342.5 143t133.5 364q0 223 -125.5 367.5t-319.5 144.5z" />
    <glyph glyph-name="seven" unicode="7" horiz-adv-x="1085" 
d="M513 26q0 -30 -21 -30t-21 49q0 10 1 32.5t1 34.5q4 94 14.5 179.5t29 162.5t36.5 139.5t48.5 129.5t52 112t60.5 107.5t61 96.5t65.5 98t63.5 94l108 162q12 19 7.5 27t-26.5 8h-787q-114 0 -120 -113l-4 -86h-21l11 225h998v-10l-149 -225q-17 -26 -54.5 -81t-56 -83
t-52.5 -82t-52.5 -88.5t-47 -90.5t-45 -101t-37 -107.5t-33 -121.5t-23 -131t-16.5 -148q0 -3 -0.5 -10t-0.5 -11q0 -26 5 -73.5t5 -64.5z" />
    <glyph glyph-name="eight" unicode="8" horiz-adv-x="1146" 
d="M1085 404q0 -179 -141.5 -294t-370.5 -115q-228 0 -370 121t-142 312q0 321 440 412q-133 33 -214.5 115.5t-81.5 202.5q0 132 105 216.5t263 84.5q160 0 264.5 -85t104.5 -216q0 -125 -87.5 -203.5t-230.5 -111.5q75 -15 139.5 -38.5t125 -60.5t103 -84t68 -112.5
t25.5 -143.5zM922 1158q0 121 -97.5 201t-251.5 80q-150 0 -246 -79t-97 -202q0 -121 89.5 -200.5t239.5 -103.5l10 -1q158 27 255.5 103t97.5 202zM1060 404q0 79 -28 144.5t-75 111t-113.5 80.5t-137 55.5t-152.5 33.5q-472 -79 -472 -401q0 -182 135 -297.5t356 -115.5
q222 0 354.5 109.5t132.5 279.5z" />
    <glyph glyph-name="nine" unicode="9" horiz-adv-x="1085" 
d="M236 154h20v-23q0 -24 19 -53t49 -37q93 -26 188 -26q221 0 353.5 192t132.5 543q0 23 -3 23t-10 -23q-46 -157 -171.5 -254t-281.5 -97q-205 0 -338 150.5t-133 382.5q0 230 141.5 378.5t360.5 148.5q208 0 334.5 -195t126.5 -514q-1 -356 -141 -555.5t-371 -199.5
q-145 0 -270 52q-6 2 -6 9v98zM532 420q175 0 305 125.5t149 319.5q3 39 3 43q-29 244 -143 387.5t-283 143.5q-209 0 -342.5 -143t-133.5 -364q0 -223 125.5 -367.5t319.5 -144.5z" />
    <glyph glyph-name="colon" unicode=":" horiz-adv-x="327" 
d="M123 988q0 17 12 29t29 12t29 -12t12 -29t-12 -29t-29 -12t-29 12t-12 29zM123 36q0 17 12 29t29 12t29 -12t12 -29t-12 -29t-29 -12t-29 12t-12 29z" />
    <glyph glyph-name="semicolon" unicode=";" horiz-adv-x="409" 
d="M123 988q0 17 12 29t29 12t29 -12t12 -29t-12 -29t-29 -12t-29 12t-12 29zM123 36q0 17 12 29t29 12t29 -12t12 -29q0 -66 -21.5 -114t-73.5 -105l-16 13q85 93 85 168h-1q-6 -3 -14 -3q-17 0 -29 12t-12 29z" />
    <glyph glyph-name="less" unicode="&#x3c;" horiz-adv-x="737" 
d="M633 350l-11 -17l-561 397v14l561 382l12 -16l-542 -369v-7z" />
    <glyph glyph-name="equal" unicode="=" horiz-adv-x="1064" 
d="M82 522v21h901v-21h-901zM82 932v20h901v-20h-901z" />
    <glyph glyph-name="greater" unicode="&#x3e;" horiz-adv-x="737" 
d="M104 350l541 384v7l-542 369l13 16l560 -382v-14l-560 -397z" />
    <glyph glyph-name="question" unicode="?" horiz-adv-x="983" 
d="M96 1555h17l-3 -106q0 -3 -0.5 -8t-0.5 -7q0 -48 15 -48q14 0 39 30q62 71 150 108t174 37q180 0 297 -93.5t117 -238.5q0 -158 -77 -263t-241 -201q-92 -54 -114 -73q-44 -40 -45 -88q0 -33 11 -132l-20 -2l-17 121q0 3 -0.5 7t-0.5 6q0 30 12.5 55.5t36.5 46.5t48.5 37
t58.5 36q11 6 16 9q108 63 171.5 121t99.5 137.5t36 182.5q0 135 -110 223t-279 88q-62 0 -123.5 -18.5t-118 -55t-96 -101.5t-48.5 -148l-3 -30q0 -7 -8 -7t-8 7zM389 36q0 17 12 29t29 12t29 -12t12 -29t-12 -29t-29 -12t-29 12t-12 29z" />
    <glyph glyph-name="at" unicode="@" horiz-adv-x="1843" 
d="M1174 307q-17 -90 -17 -101q0 -65 43.5 -107.5t110.5 -42.5q123 0 221 77.5t153.5 218t55.5 318.5q0 189 -91 339t-252.5 234t-363.5 84q-201 0 -374.5 -68t-295.5 -186.5t-192 -285.5t-70 -359q0 -149 54 -278.5t148.5 -220.5t227 -143t285.5 -52q230 0 441 104l9 -18
q-215 -107 -450 -107q-209 0 -377 91t-263 255t-95 369q0 196 71.5 367t196.5 292.5t302.5 191t381.5 69.5q207 0 373 -86.5t260 -241.5t94 -350q0 -182 -56.5 -326.5t-159.5 -226t-234 -81.5q-78 0 -128.5 48t-50.5 122q0 23 12 85q3 15 3 20t-2 5q-5 0 -18 -20
q-167 -260 -345 -260q-161 0 -240 102.5t-79 286.5q0 130 49 240t132.5 183.5t195.5 114.5t237 41h233zM1163 389l108 546q1 4 1 12q0 36 -48 36h-147q-162 0 -295 -66.5t-213.5 -195t-80.5 -296.5q0 -369 294 -369q170 0 329 250z" />
    <glyph glyph-name="A" unicode="A" 
d="M335 512h729l-330 922q-17 48 -21 68h-24zM20 0v15h6q64 0 93 17t44 59l522 1458q3 7 9 7h28q10 0 10 -10q0 -33 26 -106l480 -1340q18 -49 46 -67t88 -18h41v-15h-399v15h102q63 0 86 7t23 28q0 13 -12 46l-142 396h-743l-147 -407q-5 -17 -5 -26q0 -27 34 -35.5
t117 -8.5h42v-15h-349z" />
    <glyph glyph-name="B" unicode="B" horiz-adv-x="1372" 
d="M51 1556h563q259 0 396 -95.5t137 -248.5q0 -131 -76.5 -222t-224.5 -112h-4v-5h4q114 -12 200 -45t135 -74.5t79.5 -96.5t40.5 -103.5t10 -102.5q0 -197 -151.5 -324t-381.5 -127h-727v15h41q66 0 101.5 8.5t44 19.5t8.5 29v1412q0 28 -30.5 42.5t-123.5 14.5h-41v15z
M272 1536l-1 -1516h507q222 0 364.5 121.5t142.5 309.5q0 37 -4 69t-16 70.5t-32 70.5t-53.5 64t-79 56.5t-111 43.5t-145.5 28l-107 12h-407v21h407l107 12q140 20 208.5 104t68.5 210q0 143 -127 233.5t-380 90.5h-342z" />
    <glyph glyph-name="C" unicode="C" horiz-adv-x="1168" 
d="M1066 1577h15l15 -389q0 -8 -7 -8q-9 0 -9 8q-3 74 -34 136t-75 101t-97.5 66t-99.5 38.5t-83 11.5q-179 0 -316.5 -94.5t-212.5 -267.5t-75 -399q0 -224 71.5 -397t209.5 -270.5t323 -97.5q237 0 407 168l14 -14q-178 -174 -421 -174q-192 0 -334.5 101.5t-216 278.5
t-73.5 405q0 232 77.5 410t219 275t327.5 97q74 0 172 -42t162 -124q16 -19 27 -19q19 0 19 36v34z" />
    <glyph glyph-name="D" unicode="D" horiz-adv-x="1454" 
d="M51 1556h589q160 0 299 -58.5t237.5 -160.5t155 -247t56.5 -312t-56.5 -312t-155 -247t-237.5 -160.5t-299 -58.5h-589v15h41q66 0 101.5 9t44 20t8.5 29v1417q0 27 -30 39t-124 12h-41v15zM272 1536l-1 -1516h364q208 0 374.5 97.5t259.5 270.5t93 390t-93 390
t-259.5 270.5t-374.5 97.5h-363z" />
    <glyph glyph-name="E" unicode="E" horiz-adv-x="1320" 
d="M51 1556h1096q10 0 10 -9l26 -389l-21 -2l-16 260q-4 67 -33 93.5t-97 26.5h-744l-1 -758h405q41 0 41 277v61h20v-696h-20v61q0 277 -41 277h-405v-738h827q69 0 97 27t33 93l16 260l21 -2l-26 -389q0 -9 -10 -9h-1178v15h41q66 0 101.5 9t44 20t8.5 29v1417
q0 27 -30 39t-124 12h-41v15z" />
    <glyph glyph-name="F" unicode="F" horiz-adv-x="1274" 
d="M51 1556h1142q10 0 10 -9l26 -389l-21 -2l-18 260q-4 68 -32 94t-96 26h-790l-1 -717h461q46 0 46 277v61h16v-696h-16v61q0 277 -46 277h-461v-726q0 -18 8.5 -29t44 -20t101.5 -9h41v-15h-415v15h41q66 0 101.5 9t44 20t8.5 29v1416q0 27 -30 39.5t-124 12.5h-41v15z
" />
    <glyph glyph-name="G" unicode="G" horiz-adv-x="1346" 
d="M1066 1577h15l15 -389q0 -8 -7 -8q-9 0 -9 8q-3 74 -34 136t-75 101t-97.5 66t-99.5 38.5t-83 11.5q-269 0 -434 -209t-165 -552q0 -219 71.5 -393.5t199 -273t287.5 -98.5q176 0 386 169q70 58 96 89v402q0 27 -30 39.5t-124 12.5h-205v21h543v-21h-22q-87 0 -114.5 -13
t-27.5 -39v-680q0 -10 -10 -10t-10 10v151q0 57 -20 57q-17 0 -62 -34q-218 -174 -400 -174q-167 0 -300.5 100.5t-208 280t-74.5 404.5q0 232 77.5 410t219 275t327.5 97q74 0 172 -42t162 -124q16 -19 27 -19q19 0 19 36v34z" />
    <glyph glyph-name="H" unicode="H" horiz-adv-x="1495" 
d="M51 1556h451v-15h-77q-66 0 -101.5 -7.5t-44 -17.5t-8.5 -28v-648h953v648q0 18 -8.5 28t-44 17.5t-101.5 7.5h-77v15h451v-15h-41q-66 0 -101.5 -7.5t-44 -17.5t-8.5 -28v-1414q0 -18 8.5 -29t44 -20.5t101.5 -9.5h41v-15h-451v15h77q66 0 101.5 9.5t44 20.5t8.5 29v745
h-953v-745q0 -18 8.5 -29t44 -20.5t101.5 -9.5h77v-15h-451v15h41q66 0 101.5 9.5t44 20.5t8.5 29v1414q0 18 -8.5 28t-44 17.5t-101.5 7.5h-41v15z" />
    <glyph glyph-name="I" unicode="I" horiz-adv-x="512" 
d="M461 0h-410v15h41q66 0 101.5 8.5t44 19.5t8.5 29v1416q0 27 -30 40t-124 13h-41v15h410v-15h-36q-94 0 -124 -13t-30 -40v-1416q0 -18 8.5 -29t44 -19.5t101.5 -8.5h36v-15z" />
    <glyph glyph-name="J" unicode="J" horiz-adv-x="552" 
d="M51 1556h471v-15h-36q-94 0 -123.5 -12t-29.5 -39v-1459q0 -227 -111 -375t-282 -148q-62 0 -110 38q-9 6 -9 17q0 8 6.5 15t14.5 7t15 -5q48 -38 98 -38q154 0 253 138t99 351v1459q0 27 -29.5 39t-123.5 12h-103v15z" />
    <glyph glyph-name="K" unicode="K" horiz-adv-x="1336" 
d="M51 1556h430v-15h-56q-65 0 -100 -7.5t-44.5 -18t-9.5 -28.5v-668h171q16 0 37.5 12t32.5 26l488 618q24 30 24 43q0 23 -74 23h-112v15h391v-15h-16q-134 0 -196 -79l-516 -653l521 -663q103 -130 165 -130q27 0 43.5 8t42.5 29q7 5 13 5q8 0 14 -5.5t6 -13.5
q0 -9 -10 -16q-48 -38 -97 -38q-53 0 -92.5 31.5t-106.5 117.5l-493 628q-9 13 -29 25t-36 12h-171v-727q0 -18 8.5 -29t44 -19.5t101.5 -8.5h56v-15h-430v15h41q66 0 101.5 8.5t44 19.5t8.5 29v1415q0 18 -9.5 28.5t-44.5 18t-100 7.5h-41v15z" />
    <glyph glyph-name="L" unicode="L" horiz-adv-x="1320" 
d="M51 1556h410v-15h-36q-65 0 -100 -7.5t-44.5 -18t-9.5 -28.5v-1467h827q69 0 97 27t33 93l16 260l21 -2l-26 -389q0 -9 -10 -9h-1178v15h41q66 0 101.5 9t44 20t8.5 29v1414q0 18 -9.5 28.5t-44.5 18t-100 7.5h-41v15z" />
    <glyph glyph-name="M" unicode="M" horiz-adv-x="1925" 
d="M133 1556h194q6 0 9 -6l613 -1300q11 -23 20 -23t20 23l604 1300q3 6 10 6h189v-15q-98 0 -132.5 -17t-34.5 -77l1 -24l106 -1340q1 -15 5 -24.5t17 -20.5t43 -16.5t76 -5.5h21v-16h-430v16h120q76 0 99.5 11.5t23.5 35.5l-1 17l-111 1425l-604 -1299q-3 -7 -5.5 -21.5
t-3.5 -25.5l-1 -11h-29q-2 44 -9 58l-617 1308l-111 -1433v-10q0 -27 25.5 -41t106.5 -14h115v-16h-431v16h22q46 0 76 5.5t43.5 16.5t17.5 20.5t5 24.5l103 1341q1 17 1 24q0 59 -34.5 76t-131.5 17v15z" />
    <glyph glyph-name="N" unicode="N" horiz-adv-x="1464" 
d="M51 1556h235q6 0 8 -5l911 -1461q11 -18 22 -18q12 0 12 26v1387q0 28 -30.5 42t-123.5 14h-41v15h390v-15h-21q-93 0 -123 -14t-30 -42v-1485h-22q-6 0 -9 5l-956 1531h-9q12 -49 12 -114v-1350q0 -18 8.5 -29t44 -19.5t101.5 -8.5h36v-15h-405v15h41q66 0 101.5 8.5
t44 19.5t8.5 29v1351q0 32 -9 54t-23 34.5t-40.5 19t-52.5 8.5t-68 2h-12v15z" />
    <glyph glyph-name="O" unicode="O" horiz-adv-x="1443" 
d="M722 -5q-141 0 -262.5 59t-208 161.5t-135.5 248.5t-49 314q0 225 84 404t233.5 279.5t337.5 100.5t337.5 -100.5t233.5 -279.5t84 -404q0 -168 -49 -314t-135.5 -248.5t-208 -161.5t-262.5 -59zM722 15q181 0 325 98t224.5 272.5t80.5 392.5t-80.5 392.5t-224.5 272.5
t-325 98t-325 -98t-224.5 -272.5t-80.5 -392.5t80.5 -392.5t224.5 -272.5t325 -98z" />
    <glyph glyph-name="P" unicode="P" horiz-adv-x="1326" 
d="M51 1556h625q125 0 227 -36t166.5 -92t109 -128t63 -141t18.5 -135t-19 -136t-63.5 -142t-109.5 -127.5t-167 -91t-225 -35.5h-405v-420q0 -18 8.5 -29t44 -19.5t101.5 -8.5h36v-15h-410v15h41q66 0 101.5 8.5t44 19.5t8.5 29v1418q0 27 -30 39t-124 12h-41v15zM271 512
h402q101 0 186.5 23.5t145 64.5t105 92t72 109.5t39.5 114t13 108.5q0 63 -17 129.5t-59.5 136t-104 123.5t-160.5 88.5t-220 34.5h-401z" />
    <glyph glyph-name="Q" unicode="Q" horiz-adv-x="1443" 
d="M743 -5q7 -45 13.5 -73t20.5 -62.5t32.5 -53.5t49 -32.5t71.5 -13.5q140 0 194 130l19 -7q-30 -74 -87 -111t-126 -37q-34 0 -62 8t-47 20t-35 34t-25.5 40t-18 49.5t-13 52t-10.5 56.5q-187 1 -336 101.5t-232.5 279t-83.5 402.5q0 168 49 313.5t135.5 248.5t208 161.5
t262.5 58.5t262.5 -58.5t208 -161.5t135.5 -248.5t49 -313.5q0 -220 -81 -396.5t-226 -278.5t-327 -108zM520 263q-61 0 -103.5 -30t-42.5 -73q0 -25 17 -42q143 -100 325 -103q-8 48 -14.5 75.5t-21 65t-33 57.5t-51.5 35t-76 15zM360 141q-2 12 -2 19q0 52 47.5 88
t114.5 36q36 0 65 -8.5t49.5 -21t37 -35.5t26 -41.5t18.5 -51.5t13.5 -53.5t10.5 -57.5q267 8 439.5 222.5t172.5 540.5q0 163 -47.5 304.5t-130 241.5t-200 157.5t-252.5 57.5t-252.5 -57.5t-200 -157.5t-130 -241.5t-47.5 -304.5q0 -206 70.5 -369.5t197.5 -267.5z" />
    <glyph glyph-name="R" unicode="R" horiz-adv-x="1418" 
d="M51 1556h599q254 0 419 -127t165 -323q0 -184 -146 -309t-377 -140q114 -29 179 -109t122 -235q14 -38 21 -57.5t22.5 -56t27 -57t30 -47.5t36.5 -41t41.5 -24.5t49.5 -10.5q27 0 43.5 8t42.5 29q7 5 14 5q11 0 17 -9q5 -7 5 -13q0 -10 -9 -16q-49 -38 -118 -38
q-26 0 -50 10t-42 22.5t-37 38.5t-30 43.5t-26 53.5t-21 52t-20 54.5t-17 47.5q-29 79 -55 131.5t-62 97t-81.5 69t-108 37.5t-147.5 13h-267v-583q0 -18 8.5 -29t44 -19.5t101.5 -8.5h36v-15h-410v15h41q66 0 101.5 8.5t44 19.5t8.5 29v1418q0 27 -30 39t-124 12h-41v15z
M272 1536l-1 -860h267h109q245 0 403 121t158 309t-158 309t-403 121h-375z" />
    <glyph glyph-name="S" unicode="S" horiz-adv-x="1173" 
d="M569 1539q-172 0 -281.5 -78t-109.5 -200q0 -60 22.5 -112.5t54 -88t83.5 -72.5t93.5 -58.5t101.5 -52.5t91 -49q29 -17 97.5 -53t111.5 -60t101.5 -68t93 -86t59.5 -105t25 -134q0 -142 -142 -234.5t-360 -92.5q-125 0 -243.5 38t-193.5 111q-45 49 -59 49
q-21 0 -22 -66l-5 -147h-15l13 389h15v-12q0 -81 45.5 -147.5t119.5 -107.5t163 -63t182 -22q209 0 342.5 86t133.5 219q0 58 -15.5 109t-46.5 92t-64.5 73t-83 63t-87.5 52t-92 49t-84 46q-29 17 -89.5 48t-103.5 53.5t-97 61.5t-88 77.5t-58 94.5t-24 120
q0 132 118.5 216.5t297.5 84.5q93 0 189.5 -36t160.5 -109q25 -29 38 -29q16 0 16 47q0 6 -2 58t-3 84h16l15 -389q0 -7 -8 -7t-8 7l-3 30q-7 70 -37.5 126.5t-72.5 92t-95.5 59.5t-104.5 33.5t-101 9.5z" />
    <glyph glyph-name="T" unicode="T" horiz-adv-x="1341" 
d="M78 1556h1186q10 0 10 -9l21 -327l-16 -2l-12 190q-5 73 -34.5 100.5t-106.5 27.5h-440v-1464q0 -18 8.5 -29t44 -19.5t101.5 -8.5h36v-15h-410v15h41q50 0 82.5 4.5t47 13t19 17.5t4.5 22v1464h-445q-76 0 -105.5 -27t-34.5 -101l-13 -190l-16 2l22 327q0 9 10 9z" />
    <glyph glyph-name="U" unicode="U" 
d="M31 1556h450v-15h-77q-66 0 -101.5 -8.5t-43.5 -19t-8 -28.5v-988q0 -210 130.5 -346t335.5 -136q214 0 352.5 135.5t138.5 346.5v988q0 18 -8 28.5t-43.5 19t-101.5 8.5h-77v15h425v-15h-21q-66 0 -101.5 -8.5t-43.5 -19t-8 -28.5v-988q0 -219 -145.5 -360.5
t-366.5 -141.5q-215 0 -353.5 142.5t-138.5 359.5v988q0 18 -8 28.5t-43.5 19t-101.5 8.5h-41v15z" />
    <glyph glyph-name="V" unicode="V" horiz-adv-x="1382" 
d="M10 1556h403v-15h-78q-91 0 -121 -6t-30 -31q0 -15 7 -33l502 -1445l502 1445q7 18 7 33q0 25 -29.5 31t-120.5 6h-83v15h403v-15h-5q-66 0 -103 -17.5t-51 -58.5l-508 -1468h-28l-509 1468q-14 41 -51 58.5t-103 17.5h-4v15z" />
    <glyph glyph-name="W" unicode="W" horiz-adv-x="2170" 
d="M10 1556h409v-15h-73h-23q-82 0 -110.5 -6t-28.5 -30q0 -11 6 -28l475 -1394q10 -33 22 -33t22 32l366 1079l-105 309q-14 40 -51.5 55.5t-105.5 15.5v15h409v-15h-73h-24q-82 0 -110 -6t-28 -30q0 -11 6 -28l474 -1394q10 -33 23 -33q11 0 21 32l475 1395q6 17 6 27
q0 24 -29.5 30.5t-111.5 6.5h-23h-71v15h404v-15q-68 0 -105.5 -15.5t-51.5 -55.5l-501 -1473h-33l-385 1132l-385 -1132h-32l-501 1473q-14 40 -51.5 55.5t-105.5 15.5v15z" />
    <glyph glyph-name="X" unicode="X" horiz-adv-x="1351" 
d="M61 1556h420v-15h-74q-138 0 -138 -39q0 -9 7 -20l384 -613q7 -12 16 -12q8 0 15 11l384 614q7 11 7 20q0 39 -137 39h-75v15h420v-15h-29q-123 0 -167 -70l-382 -608q-11 -17 -11 -40q0 -17 10 -32l441 -704q38 -59 123 -69q23 -3 41 -3h15q1 -15 0 -15h-423v15h99
q137 0 137 30q0 10 -14 32l-442 703q-7 12 -14 12q-8 0 -16 -14l-442 -701q-13 -21 -13 -32q0 -30 137 -30h103v-15h-423v15h16q18 0 41 3q85 10 123 69l439 700q9 13 9 33q0 24 -11 41l-384 610q-19 31 -59.5 48.5t-71.5 19.5l-30 2h-31v15z" />
    <glyph glyph-name="Y" unicode="Y" horiz-adv-x="1351" 
d="M10 1556h414v-15h-145q-54 0 -78 -7t-24 -27q0 -14 11 -36l486 -887l485 887q11 22 11 36q0 20 -24 27t-77 7h-145v15h417v-15h-36q-24 0 -40.5 -3t-42 -22t-44.5 -55l-492 -898v-491q0 -18 8.5 -29t44 -19.5t101.5 -8.5h36v-15h-410v15h41q50 0 82.5 4.5t47 13t19 17.5
t4.5 22v483l-4 8l-491 898q-19 36 -44.5 55t-42 22t-40.5 3h-28v15z" />
    <glyph glyph-name="Z" unicode="Z" horiz-adv-x="1249" 
d="M124 1556h1055v-20q-34 0 -79.5 -34t-87.5 -101l-785 -1258q-47 -74 -116 -123h941q110 0 119 114l12 144l15 -3l-20 -266q0 -9 -11 -9h-1116v20q34 0 76 34t84 102l784 1257q27 44 65 78q13 12 13 23q0 9 -8.5 15.5t-21.5 6.5h-802q-110 0 -119 -112l-11 -145l-18 2
l21 266q0 9 10 9z" />
    <glyph glyph-name="bracketleft" unicode="[" horiz-adv-x="368" 
d="M271 1577l-163 2v-2011l163 2h41v-21h-230v2048h230v-20h-41z" />
    <glyph glyph-name="backslash" unicode="\" horiz-adv-x="1228" 
d="M65 1568l21 13l1078 -1683l-21 -14z" />
    <glyph glyph-name="bracketright" unicode="]" horiz-adv-x="368" 
d="M97 1577h-41v20h231v-2048h-231v21h41l164 -2v2011z" />
    <glyph glyph-name="asciicircum" unicode="^" horiz-adv-x="1121" 
d="M555 1565q4 4 8 4q5 0 8 -4l430 -559l-16 -13l-405 528q-5 8 -17 8q-10 0 -16 -8l-422 -529l-15 14z" />
    <glyph glyph-name="underscore" unicode="_" horiz-adv-x="1617" 
d="M1475 -430h-1393v20h1393v-20z" />
    <glyph glyph-name="grave" unicode="`" horiz-adv-x="491" 
d="M413 1270l-15 -15l-300 275q-8 8 2 17q9 9 18 0z" />
    <glyph glyph-name="a" unicode="a" horiz-adv-x="1136" 
d="M896 662q-14 -23 -38.5 -42t-58 -32t-64.5 -21.5t-74.5 -14.5t-70 -9t-69 -6.5t-54.5 -4.5q-83 -9 -147 -26t-117.5 -47.5t-82 -79t-28.5 -113.5q0 -109 105.5 -180t268.5 -71q117 0 217.5 65t156.5 166.5t56 209.5v206zM585 1070q147 0 242 -93.5t95 -238.5v-497l16 -98
q20 -122 62 -123l110 11l2 -21l-112 -15h-1q-64 0 -87 144q-2 11 -6 37t-7 43t-3 21v22q0 28 -7 28t-16 -22q-56 -119 -165 -196t-242 -77q-174 0 -286.5 76.5t-112.5 194.5q0 245 398 287q12 1 52 5t63.5 6t64.5 8t67.5 12.5t60 17.5t54.5 24t39 32t25 41q5 18 5 33v6
q-1 135 -87 223.5t-221 88.5q-154 0 -262.5 -59.5t-108.5 -144.5q0 -22 -21 -22q-22 0 -22 22q0 93 120.5 158.5t290.5 65.5z" />
    <glyph glyph-name="b" unicode="b" horiz-adv-x="1100" 
d="M31 1556h36l133 4v-641q205 151 391 151q193 0 318 -152.5t125 -385.5t-128 -385t-325 -152q-112 0 -203 54t-148 149q-11 19 -20 19q-10 0 -11 -27l-4 -190h-21v1490q0 28 -24 39.5t-83 11.5h-36v15zM200 893v-577q42 -137 143.5 -219t237.5 -82q186 0 307 146t121 371
t-118 371.5t-300 146.5q-183 0 -391 -157z" />
    <glyph glyph-name="c" unicode="c" horiz-adv-x="1034" 
d="M67 530q0 154 64.5 277.5t179 193t257.5 69.5q103 0 195.5 -33.5t143 -80.5t50.5 -91q0 -21 -21 -21q-22 0 -22 21q0 48 -50.5 91t-131.5 68.5t-167 25.5q-206 0 -339.5 -146.5t-133.5 -373.5q0 -226 139 -370.5t358 -144.5q101 0 200 34t176 99l13 -15
q-80 -68 -182.5 -103t-206.5 -35q-228 0 -375 150.5t-147 384.5z" />
    <glyph glyph-name="d" unicode="d" horiz-adv-x="1152" 
d="M901 318v575q-206 157 -391 157q-182 0 -300 -146.5t-118 -371.5t121 -371t307 -146q136 0 237.5 83t143.5 220zM927 1560v-1305l9 -102q5 -58 24 -98.5t42 -41.5l100 19l4 -21l-100 -16h-2q-37 0 -62.5 47t-31.5 109l-4 46q-3 27 -11 27q-9 0 -21 -21
q-57 -97 -148.5 -152.5t-205.5 -55.5q-197 0 -325 152t-128 385t125 385.5t318 152.5q187 0 391 -151v571q0 28 -24 39.5t-83 11.5h-46v15h46z" />
    <glyph glyph-name="e" unicode="e" horiz-adv-x="1116" 
d="M972 563q46 0 46 70q0 17 -3 31q-31 175 -149.5 280.5t-297.5 105.5q-197 0 -331.5 -134t-143.5 -353h879zM92 543v-11q0 -225 130.5 -371t335.5 -146q165 0 276.5 64t173.5 173l18 -10q-64 -114 -181 -180.5t-287 -66.5q-215 0 -353 152.5t-138 384.5v22q7 226 148 371
t353 145q217 0 349.5 -145.5t132.5 -371.5q0 -10 -11 -10h-947z" />
    <glyph glyph-name="f" unicode="f" horiz-adv-x="737" 
d="M82 1024v20h127q36 0 33 36q-9 92 -9 127q0 88 29.5 157.5t77.5 110t104 61t115 20.5q118 0 194 -63t76 -160q0 -21 -21 -21q-10 0 -16 6t-6 15q0 89 -64 146t-163 57q-55 0 -106.5 -19t-96 -56.5t-71.5 -103.5t-27 -151q0 -34 9 -124q4 -38 41 -38h265v-20h-265
q-37 0 -37 -36v-921q0 -17 8.5 -27t43.5 -17.5t102 -7.5h26v-15h-400v15h41q67 0 102 7.5t43.5 17.5t8.5 27v922q0 35 -37 35h-127z" />
    <glyph glyph-name="g" unicode="g" horiz-adv-x="1146" 
d="M251 148q-210 -204 -210 -364q0 -107 143.5 -178.5t371.5 -71.5q266 0 403 64t137 188q0 70 -21.5 121t-55 80.5t-86 48t-101.5 25.5t-116 10q-28 1 -94.5 3t-99.5 4.5t-81 9t-79.5 20t-54.5 35.5q-23 21 -31 21q-7 0 -25 -16zM543 1050q-172 0 -278 -92t-106 -262
q0 -163 102 -258t282 -95q163 0 263 92t100 261q0 162 -96.5 258t-266.5 96zM543 1070q166 0 270 -90q13 -11 21 -11t14 14q30 86 109 87q101 0 101 -29q0 -10 -6 -16.5t-15 -6.5q-13 0 -38 16t-44 16q-38 0 -64.5 -30.5t-33.5 -85.5q75 -95 75 -238q0 -178 -109 -275.5
t-280 -97.5q-114 0 -196 35q-62 -60 -62 -109q0 -38 13 -63q10 -19 27 -33t44.5 -23t51.5 -15t66 -9t69.5 -4.5t80 -3.5t80.5 -3q67 -3 116.5 -10t106 -27t92.5 -52t60 -88t24 -132q0 -137 -145.5 -207.5t-414.5 -70.5q-233 0 -384.5 77t-151.5 199q0 171 219 381
q25 25 25 76v8q0 55 64 119q-93 45 -144 129.5t-51 198.5q0 179 115.5 276.5t294.5 97.5z" />
    <glyph glyph-name="h" unicode="h" horiz-adv-x="1320" 
d="M92 1556h46l133 4v-852q0 -32 8 -32q6 0 16 25q62 159 187.5 264t265.5 105q164 0 250.5 -73.5t86.5 -213.5v-711q0 -18 8.5 -29t44 -19.5t101.5 -8.5h41v-15h-430v15h56q66 0 101.5 8.5t44 19.5t8.5 29v708q0 130 -80 198.5t-232 68.5q-116 0 -227.5 -83t-180.5 -217
t-69 -274v-401q0 -18 8.5 -29t44 -19.5t101.5 -8.5h56v-15h-430v15h41q66 0 101.5 8.5t44 19.5t8.5 29v1418q0 28 -24 39.5t-84 11.5h-46v15z" />
    <glyph glyph-name="i" unicode="i" horiz-adv-x="512" 
d="M215 1413q0 17 12 29t29 12t29 -12t12 -29t-12 -29t-29 -12t-29 12t-12 29zM271 72q0 -18 8.5 -29t44 -19.5t101.5 -8.5h36v-15h-410v15h41q66 0 101.5 8.5t44 19.5t8.5 29v926q0 29 -24.5 40.5t-83.5 11.5h-25v15h25l133 3v-996z" />
    <glyph glyph-name="j" unicode="j" horiz-adv-x="389" 
d="M179 1413q0 17 12 29t29 12t29 -12t12 -29t-12 -29t-29 -12t-29 12t-12 29zM-55 -458q50 0 94 19.5t82.5 60.5t61 117t22.5 179v1080q0 29 -24.5 40.5t-83.5 11.5h-46v15h46l133 3v-1150q0 -206 -86 -308t-215 -102q-61 0 -109 38q-9 6 -9 17q0 8 6.5 15t14.5 7
q7 0 14 -5q47 -38 99 -38z" />
    <glyph glyph-name="k" unicode="k" horiz-adv-x="1144" 
d="M92 1556h46l133 4v-987h171q16 0 37.5 12t32.5 26l294 372q21 27 21 41q0 26 -78 26h-106v15h390v-15q-29 0 -50 -2t-53 -8.5t-59.5 -24t-48.5 -44.5l-321 -408l327 -417q103 -130 164 -130q27 0 44.5 8.5t43.5 28.5q7 5 15 5t13.5 -5.5t5.5 -13.5q0 -10 -9 -16
q-48 -38 -99 -38q-53 0 -92.5 31.5t-106.5 117.5l-300 382q-9 13 -29 25t-36 12h-171v-481q0 -18 8.5 -29t44 -19.5t101.5 -8.5h36v-15h-410v15h41q66 0 101.5 8.5t44 19.5t8.5 29v1418q0 28 -24 39.5t-84 11.5h-46v15z" />
    <glyph glyph-name="l" unicode="l" horiz-adv-x="512" 
d="M271 72q0 -18 8.5 -29t44 -19.5t101.5 -8.5h36v-15h-410v15h41q66 0 101.5 8.5t44 19.5t8.5 29v1418q0 28 -24 39.5t-84 11.5h-46v15h46l133 4v-1488z" />
    <glyph glyph-name="m" unicode="m" horiz-adv-x="1976" 
d="M113 1065h25l133 3v-362q0 -30 5 -30q6 0 13 26q54 161 166.5 264.5t251.5 103.5q145 0 223.5 -74t78.5 -213v-77q0 -30 5 -30q4 0 12 27q54 160 167 263.5t251 103.5q145 0 221 -73.5t76 -213.5v-711q0 -13 4.5 -22t19 -17.5t47 -13t82.5 -4.5h41v-15h-404v15h31
q50 0 82.5 4.5t47 13t19 17.5t4.5 22v708q0 131 -68.5 199t-202.5 68q-118 0 -219 -81.5t-158.5 -213.5t-57.5 -279v-401q0 -13 4.5 -22t19 -17.5t47 -13t82.5 -4.5h31v-15h-394v15h30q66 0 101.5 8.5t44 19.5t8.5 29v708q0 130 -70.5 198.5t-205.5 68.5q-118 0 -219 -81.5
t-159 -213.5t-58 -279v-401q0 -18 8.5 -29t44 -19.5t101.5 -8.5h56v-15h-430v15h41q66 0 101.5 8.5t44 19.5t8.5 29v926q0 29 -24.5 40.5t-83.5 11.5h-25v15z" />
    <glyph glyph-name="n" unicode="n" horiz-adv-x="1320" 
d="M113 1065h25l133 3v-360q0 -32 8 -32q6 0 16 25q62 159 187.5 264t265.5 105q164 0 250.5 -73.5t86.5 -213.5v-711q0 -18 8.5 -29t44 -19.5t101.5 -8.5h41v-15h-430v15h56q66 0 101.5 8.5t44 19.5t8.5 29v708q0 131 -79 199t-233 68q-119 0 -229.5 -81t-179 -214.5
t-68.5 -278.5v-401q0 -18 8.5 -29t44 -19.5t101.5 -8.5h56v-15h-430v15h41q66 0 101.5 8.5t44 19.5t8.5 29v926q0 29 -24.5 40.5t-83.5 11.5h-25v15z" />
    <glyph glyph-name="o" unicode="o" horiz-adv-x="1136" 
d="M568 1070q218 0 360 -152.5t142 -385.5t-142 -385t-360 -152t-359.5 152t-141.5 385q0 234 141.5 386t359.5 152zM568 1050q-207 0 -341.5 -146.5t-134.5 -371.5t134.5 -371t341.5 -146t341.5 146t134.5 371t-134.5 371.5t-341.5 146.5z" />
    <glyph glyph-name="p" unicode="p" horiz-adv-x="1172" 
d="M271 893v-577q42 -137 143.5 -219t237.5 -82q186 0 307 146t121 371t-117.5 371.5t-299.5 146.5q-184 0 -392 -157zM271 -420q0 -18 8.5 -28.5t44 -19t101.5 -8.5h77v-16h-451v16h41q66 0 101.5 8.5t44 19t8.5 28.5v1418q0 29 -24.5 40.5t-83.5 11.5h-25v15h25l133 3
v-149q205 151 392 151q193 0 318 -152.5t125 -385.5t-128.5 -385t-325.5 -152q-108 0 -196.5 51t-146.5 141q-18 29 -27 29q-11 0 -11 -38v-598z" />
    <glyph glyph-name="q" unicode="q" horiz-adv-x="1029" 
d="M927 1065v-1490q0 -14 3 -21t15.5 -15t43 -11.5t81.5 -3.5h10v-16h-363v16h31q67 0 101.5 7t43 17t8.5 27v603q0 38 -10 38t-28 -29q-58 -90 -146.5 -141t-196.5 -51q-197 0 -325 152t-128 385t125 385.5t318 152.5q186 0 391 -151l5 146h21zM901 893q-208 157 -391 157
q-182 0 -300 -146.5t-118 -371.5t121 -371t307 -146q136 0 237.5 82t143.5 219v577z" />
    <glyph glyph-name="r" unicode="r" horiz-adv-x="849" 
d="M801 916q0 -10 -7.5 -17t-18.5 -7t-18 6.5t-7 17.5q0 134 -119 134q-100 0 -183.5 -67t-130 -177.5t-46.5 -237.5v-496q0 -18 8.5 -29t44 -19.5t101.5 -8.5h56v-15h-430v15h41q66 0 101.5 8.5t44 19.5t8.5 29v926q0 29 -24.5 40.5t-83.5 11.5h-25v15h25l133 3v-338
q38 148 135.5 244t224.5 96q72 0 121 -43.5t49 -110.5z" />
    <glyph glyph-name="s" unicode="s" horiz-adv-x="1034" 
d="M497 1070q192 0 321 -103q7 -6 16.5 -14.5t14.5 -12.5t9 -4q15 0 15 47q0 2 -0.5 9.5t-1 28t-1.5 44.5h17l11 -307q0 -7 -8 -7t-8 7l-1 8q-18 137 -75 184q-121 100 -309 100q-147 0 -242.5 -65t-95.5 -165q0 -51 45 -90t116.5 -65t158.5 -50t174 -53.5t158.5 -67.5
t116.5 -100.5t45 -143.5q0 -110 -126.5 -182.5t-319.5 -72.5q-114 0 -194 26t-161 94q-51 47 -64 47q-19 0 -22 -66l-4 -96h-15l12 338h15v-11q0 -119 95 -198q78 -64 153.5 -89t184.5 -25q183 0 301.5 66.5t118.5 168.5q0 76 -45 134t-116.5 93.5t-158.5 63.5t-174 52.5
t-158.5 52.5t-116.5 72t-45 102q0 109 103 179.5t261 70.5z" />
    <glyph glyph-name="t" unicode="t" horiz-adv-x="849" 
d="M41 1024v20h92q67 0 85 22t18 104v182h20v-273q0 -35 37 -35h485v-20h-485q-37 0 -37 -36v-589q0 -167 75.5 -275.5t191.5 -108.5q74 0 141 32t106 93l16 -10q-41 -66 -113 -100.5t-150 -34.5q-127 0 -210 114t-83 290v589q0 36 -36 36h-153z" />
    <glyph glyph-name="u" unicode="u" horiz-adv-x="1249" 
d="M51 1050v15h26l133 3v-783q0 -131 79 -199t233 -68q119 0 229.5 81t178.5 214.5t68 278.5v406q0 29 -24 40.5t-83 11.5h-26v15h26l133 3v-813l9 -102q5 -57 24.5 -97t42.5 -41l98 17l4 -21l-99 -16h-2q-37 0 -62 47t-31 109l-10 103v103q0 32 -7 32q-6 0 -16 -25
q-62 -159 -187.5 -264t-265.5 -105q-164 0 -251 74t-87 213v716q0 29 -24 40.5t-83 11.5h-26z" />
    <glyph glyph-name="v" unicode="v" horiz-adv-x="1228" 
d="M801 1065h407v-15h-11q-64 0 -99 -17.5t-52 -58.5l-411 -977h-28l-398 914q-35 79 -56.5 100t-71.5 21q-24 0 -48 -8q-4 -2 -7 -2q-20 0 -20 19q0 29 70 29q23 0 39 -2.5t30.5 -12.5t23 -17.5t21 -30t19.5 -37.5t23 -52l367 -836q13 -32 25 -32q10 0 23 32l380 898
q9 20 9 33q0 24 -32.5 30.5t-120.5 6.5h-82v15z" />
    <glyph glyph-name="w" unicode="w" horiz-adv-x="1904" 
d="M696 1065h413v-15h-83q-89 0 -122 -7t-33 -30q0 -11 10 -33l394 -898q13 -32 24 -32t24 32l380 898q9 20 9 33q0 24 -32.5 30.5t-120.5 6.5h-82v15h407v-15h-11q-64 0 -99.5 -17.5t-52.5 -58.5l-410 -977h-28l-308 705q-11 24 -22 24q-10 0 -20 -23l-298 -706h-28
l-398 914q-35 79 -56.5 100t-71.5 21q-24 0 -48 -8q-4 -2 -7 -2q-20 0 -20 19q0 29 70 29q23 0 39 -2.5t30.5 -12.5t23 -17.5t21 -30t19.5 -37.5t23 -52l367 -836q13 -32 25 -32q10 0 23 32l295 697l-85 195q-18 41 -52.5 58.5t-97.5 17.5h-11v15z" />
    <glyph glyph-name="x" unicode="x" horiz-adv-x="1187" 
d="M566 559q13 17 13 31q0 22 -12 38l-201 285q-47 67 -82 97t-69 30q-28 0 -46 -7.5t-42 -26.5q-8 -6 -14 -6q-8 0 -15 6.5t-7 14.5q0 10 9 16q48 38 100 38q54 0 90 -31t98 -119l200 -285q16 -20 19 -20q6 0 19 16l274 352q11 15 11 27q0 19 -23 27t-88 8h-104v15h420v-15
h-34q-107 0 -161 -70l-276 -353q-13 -16 -13 -34q0 -15 11 -31l306 -439q42 -60 78.5 -84t98.5 -24h41v-15h-424v15h104q56 0 79 10t23 34q0 20 -23 54l-305 439q-8 14 -17 14q-5 0 -19 -17l-370 -472q-13 -16 -13 -32q0 -30 127 -30h94v-15h-403v15h20q103 0 159 72z" />
    <glyph glyph-name="y" unicode="y" horiz-adv-x="1187" 
d="M760 1065h407v-15h-11q-54 0 -84 -17.5t-47 -58.5l-429 -1020q-93 -220 -194.5 -332t-242.5 -112q-127 0 -204.5 54.5t-77.5 144.5q0 25 11 52q6 16 22 16q7 0 11 -2q17 -7 17 -23q0 -1 -3 -10q-11 -27 -11 -50q0 -73 65 -117.5t171 -44.5q132 0 229.5 109t187.5 322
l6 13q1 2 1 8q0 17 -16 57l-360 872q-33 79 -55 100t-72 21q-24 0 -48 -8q-4 -2 -7 -2q-20 0 -20 19q0 29 70 29q64 0 91 -29t65 -123l352 -847q12 -30 19 -30t20 31l384 908q9 23 9 33q0 23 -32.5 30t-121.5 7h-102v15z" />
    <glyph glyph-name="z" unicode="z" horiz-adv-x="1085" 
d="M124 1065h892v-21q-58 0 -167 -135l-622 -766q-79 -97 -116 -123h777q54 0 85 29t35 85l11 144l15 -3l-20 -266q0 -9 -10 -9h-953l1 20q30 0 65 32t94 104l622 766q35 43 70 78q15 15 15 26q0 18 -29 18h-648q-110 0 -119 -111l-11 -146l-8 3l11 266q0 9 10 9z" />
    <glyph glyph-name="braceleft" unicode="{" horiz-adv-x="573" 
d="M532 -430v-21q-129 0 -212.5 84t-83.5 213v511q0 57 -17.5 98.5t-44 60.5t-49.5 27.5t-43 8.5q-41 0 -41 8v27q0 8 41 8q16 0 34 5t40 18.5t39.5 34.5t29 56.5t11.5 80.5v510q0 129 83.5 213t212.5 84v-20q-118 0 -194.5 -78t-76.5 -199v-510q0 -56 -17.5 -99.5
t-45.5 -67t-54.5 -35.5t-51.5 -14v-2q18 -2 38.5 -8.5t44.5 -22t42.5 -38.5t31 -61t12.5 -85v-511q0 -121 76 -198.5t195 -77.5z" />
    <glyph glyph-name="bar" unicode="|" horiz-adv-x="204" 
d="M108 -410h-26v1966h26v-1966z" />
    <glyph glyph-name="braceright" unicode="}" horiz-adv-x="573" 
d="M41 -430q119 0 195 77.5t76 198.5v511q0 47 12.5 85t31 61t42.5 38.5t44.5 22t38.5 8.5v2q-25 2 -51.5 14t-54.5 35.5t-45.5 67t-17.5 99.5v510q0 121 -76.5 199t-194.5 78v20q129 0 213 -84t84 -213v-510q0 -45 11.5 -80.5t29 -56.5t39.5 -34.5t40 -18.5t34 -5
q40 0 40 -8v-27q0 -8 -40 -8q-20 0 -43 -8.5t-49.5 -27.5t-44 -60.5t-17.5 -98.5v-511q0 -129 -84 -213t-213 -84v21z" />
    <glyph glyph-name="asciitilde" unicode="~" horiz-adv-x="819" 
d="M709 817q8 -2 8 -12q-9 -53 -41.5 -81t-74.5 -28q-47 0 -101.5 20.5t-96.5 45t-93 45t-92 20.5q-36 0 -62 -22.5t-34 -66.5q-2 -9 -11 -9q-3 0 -6.5 3t-2.5 9q9 51 40.5 80t75.5 29q46 0 100 -20.5t96 -45t93.5 -45t93.5 -20.5q35 0 61 22t34 68q0 3 3.5 6t9.5 2z" />
    <glyph glyph-name="uni00A0" unicode="&#xa0;" horiz-adv-x="544" 
 />
    <glyph glyph-name="exclamdown" unicode="&#xa1;" horiz-adv-x="409" 
d="M287 -492h-26v71q0 31 2.5 329t2.5 665h21v-1065zM317 1029q0 -17 -12 -29t-29 -12t-28.5 12t-11.5 29t11.5 29t28.5 12t29 -12t12 -29z" />
    <glyph glyph-name="cent" unicode="&#xa2;" horiz-adv-x="1024" 
d="M558 -41h-26v117q-212 14 -346.5 163.5t-134.5 372.5q0 229 135.5 380.5t345.5 159.5v118h26v-118q153 -1 268.5 -68.5t115.5 -136.5q0 -21 -21 -21q-22 0 -22 21q0 71 -105.5 127t-235.5 58v-1037h15q101 0 200 34t176 99l14 -15q-80 -68 -182.5 -103t-207.5 -35h-15
v-116zM532 96v1036q-200 -7 -327.5 -152.5t-127.5 -367.5q0 -215 126.5 -358.5t328.5 -157.5z" />
    <glyph glyph-name="sterling" unicode="&#xa3;" horiz-adv-x="1172" 
d="M956 1103v199l-6 8q-6 8 -10.5 13.5t-14.5 16.5t-19 19t-24 18.5t-30 18.5t-35 16.5t-41.5 14t-48.5 9t-55 3.5q-132 0 -211 -95t-79 -255v-328h357l-4 -21h-353v-88q0 -246 -25 -400q73 -24 191.5 -85.5t219.5 -104t179 -42.5q126 0 158 137l16 71l21 -4l-17 -71
q-17 -78 -65.5 -118t-112.5 -40q-65 0 -147 28t-148.5 63.5t-153.5 79t-145 64.5q-23 -118 -67 -176.5t-116 -58.5q-59 0 -96 40t-37 105q0 62 50 100t132 38q48 0 115 -19q22 137 22 393v88h-194l4 21h190v328q0 166 87.5 268t228.5 102q39 0 74.5 -6t62 -15.5t51 -22.5
t41 -25.5t31 -26.5t22 -23.5t14.5 -17.5l6 -9l3 -3v-207h-21zM331 238q-62 19 -112 19q-75 0 -118.5 -33t-43.5 -84q0 -58 31.5 -91.5t81.5 -33.5q120 0 161 223z" />
    <glyph glyph-name="currency" unicode="&#xa4;" horiz-adv-x="737" 
d="M365 965q90 0 159 -55q21 -16 40 3l96 97l15 -16l-96 -96q-9 -9 -9.5 -21.5t5.5 -18.5q52 -68 52 -156q0 -81 -48 -151q-7 -12 -5 -23t8 -17l89 -89l-16 -13l-87 86q-11 9 -22.5 8.5t-18.5 -6.5q-70 -57 -162 -57q-87 0 -156 52q-12 7 -22.5 5t-17.5 -9l-89 -88l-13 16
l87 87q9 11 8.5 22t-5.5 18q-55 70 -55 159q0 92 57 163q8 12 6 23.5t-8 17.5l-96 96l16 14l96 -96q9 -9 22 -9t18 5q69 49 152 49zM198 869q-70 -70 -70 -167q0 -96 70 -166t167 -70q96 0 166 70t70 166q0 97 -70 167t-166 70q-97 0 -167 -70z" />
    <glyph glyph-name="yen" unicode="&#xa5;" horiz-adv-x="1310" 
d="M348 471v21h292v2l-4 8l-469 857q-19 36 -44.5 55t-42 22t-40.5 3h-28v15h414v-15h-145q-54 0 -78 -7t-24 -27q0 -14 11 -36l463 -847l463 847q11 22 11 36q0 20 -24 27t-77 7h-145v15h417v-15h-36q-24 0 -40.5 -3t-42 -22t-44.5 -55l-469 -857v-10h338v-21h-338v-184
h338v-21h-338v-194q0 -13 4.5 -22t19 -17.5t47 -13t82.5 -4.5h36v-15h-410v15h41q66 0 101.5 8.5t44 19.5t8.5 29v194h-292v21h292v184h-292z" />
    <glyph glyph-name="brokenbar" unicode="&#xa6;" horiz-adv-x="204" 
d="M82 819v737h26v-737h-26zM108 410v-820h-26v820h26z" />
    <glyph glyph-name="section" unicode="&#xa7;" horiz-adv-x="1310" 
d="M1053 1495l12 -307q0 -7 -8 -7t-8 7l-3 30q-7 70 -37.5 126.5t-72.5 92t-95.5 59.5t-104.5 33.5t-101 9.5q-152 0 -251 -78.5t-99 -199.5q0 -82 33.5 -144.5t90 -101.5t129.5 -69t153.5 -52.5t161.5 -46t154 -56.5t129.5 -76t90 -112t33.5 -159q0 -121 -127.5 -209
t-314.5 -111q111 -49 172.5 -124.5t61.5 -195.5q0 -131 -106 -216t-270 -85q-92 0 -188.5 36t-160.5 109q-25 29 -39 29q-15 0 -15 -47v-15l1 -45h-16l-12 307q0 7 8 7t8 -7l3 -30q7 -70 37.5 -126.5t72.5 -92t95.5 -59.5t104.5 -33.5t101 -9.5q152 0 251 78.5t99 199.5
q0 82 -33.5 144.5t-90 101.5t-129.5 69t-154 52.5t-161.5 46t-153.5 56.5t-129.5 76t-90 112t-33.5 159q0 81 61 150t161 112.5t221 57.5q-112 49 -173.5 124.5t-61.5 195.5q0 131 106 216t270 85q92 0 188.5 -36t160.5 -109q25 -29 39 -29q15 0 15 47q0 3 -0.5 8t-0.5 7
l-1 45h17zM773 142q126 8 230.5 48t167.5 107t63 147q0 65 -18.5 118t-49 91t-77 70t-94.5 52.5t-110 41t-115.5 35t-118.5 34t-112 37.5q-126 -8 -231 -48t-168 -107t-63 -147q0 -65 18.5 -118t49 -91t77 -70t95 -52.5t110.5 -41t115.5 -35t118.5 -34t112 -37.5z" />
    <glyph glyph-name="dieresis" unicode="&#xa8;" horiz-adv-x="819" 
d="M123 1372q0 17 12 29t29 12t29 -12t12 -29t-12 -29t-29 -12t-29 12t-12 29zM614 1372q0 17 12 29t29 12t29 -12t12 -29t-12 -29t-29 -12t-29 12t-12 29z" />
    <glyph glyph-name="copyright" unicode="&#xa9;" horiz-adv-x="1925" 
d="M1864 776q0 -168 -71.5 -321t-192 -263.5t-287.5 -176t-350 -65.5t-350.5 65.5t-288 176t-192 263.5t-71.5 321q0 134 45.5 259.5t129 226.5t194.5 177t248.5 117.5t284.5 41.5q183 0 350 -65t287.5 -175t192 -262.5t71.5 -319.5zM1843 776q0 109 -31.5 213t-88.5 191.5
t-138 162t-177.5 126t-210.5 80.5t-234 29q-179 0 -342 -63.5t-281 -171t-188 -256t-70 -311.5q0 -164 70 -313t188 -257t281 -172t342 -64t342 64t281 172t187.5 257t69.5 313zM507 774q0 211 121 339.5t319 128.5q103 0 193 -33.5t138 -80.5t48 -91q0 -21 -21 -21
q-22 0 -22 21q0 73 -104 129t-235 56q-185 0 -298.5 -123.5t-113.5 -324.5q0 -204 118 -328.5t313 -124.5q212 0 363 128l13 -16q-157 -133 -376 -133q-207 0 -331.5 130t-124.5 344z" />
    <glyph glyph-name="ordfeminine" unicode="&#xaa;" horiz-adv-x="901" 
d="M608 1286q-16 -20 -42 -33.5t-61.5 -21t-59.5 -11t-64 -6.5t-47 -4q-239 -25 -239 -170q0 -70 67 -114.5t171 -44.5q114 0 194.5 87.5t80.5 194.5v123zM410 1567q98 0 161 -62.5t63 -156.5v-324l10 -63q13 -77 36 -77q0 1 71 7h3l3 -20l-77 -11h-1q-26 0 -39 26t-20 71
l-12 64v2v15q0 14 -1 14q-1 1 -4 -6q-36 -81 -108.5 -133.5t-161.5 -52.5q-115 0 -189 51t-74 129q0 164 262 190q7 1 30.5 3t36 3.5t36.5 4.5t39 6.5t35.5 8.5t34 11.5t27 14.5t22 18.5t12.5 22.5q3 9 3 20v5q-1 88 -55.5 143t-140.5 55q-100 0 -168.5 -38.5t-68.5 -90.5
q0 -17 -18 -17t-18 17q0 63 80.5 106.5t190.5 43.5z" />
    <glyph glyph-name="guillemotleft" unicode="&#xab;" horiz-adv-x="696" 
d="M352 852l17 -14l-265 -301v-9l265 -299l-17 -14l-266 302q-10 10 -10 14v3q0 4 10 14zM598 852l16 -14l-264 -301v-9l264 -299l-16 -14l-266 302q-10 10 -10 14v3q0 4 10 14z" />
    <glyph glyph-name="logicalnot" unicode="&#xac;" horiz-adv-x="1146" 
d="M82 492h983v-492h-21v466h-962v26z" />
    <glyph glyph-name="uni00AD" unicode="&#xad;" horiz-adv-x="737" 
d="M657 788l-4 -20h-573l4 20h573z" />
    <glyph glyph-name="registered" unicode="&#xae;" horiz-adv-x="1925" 
d="M1864 776q0 -168 -71.5 -321t-192 -263.5t-287.5 -176t-350 -65.5t-350.5 65.5t-288 176t-192 263.5t-71.5 321q0 134 45.5 259.5t129 226.5t194.5 177t248.5 117.5t284.5 41.5q183 0 350 -65t287.5 -175t192 -262.5t71.5 -319.5zM1843 776q0 109 -31.5 213t-88.5 191.5
t-138 162t-177.5 126t-210.5 80.5t-234 29q-179 0 -342 -63.5t-281 -171t-188 -256t-70 -311.5q0 -164 70 -313t188 -257t281 -172t342 -64t342 64t281 172t187.5 257t69.5 313zM518 1367h422q199 0 320 -88t121 -233q0 -135 -106 -222.5t-276 -102.5q81 -25 130.5 -86.5
t88.5 -170.5q16 -43 23.5 -62t25 -55.5t32 -53.5t37.5 -32t49 -15q14 0 26 4t16.5 7t20.5 15q8 6 12 6q10 0 15 -9q4 -5 4 -11q0 -10 -8 -14q-38 -30 -90 -30q-23 0 -43.5 8t-37 26t-28.5 33t-25 45t-19 44.5t-17 47.5t-14 40q-27 74 -53 119.5t-65 79.5t-92.5 47.5
t-131.5 13.5h-165v-437q0 -13 6.5 -20.5t32.5 -13.5t75 -6h30v-16h-316v16h34q50 0 77 6.5t32 14t5 19.5v1034q0 12 -7.5 19.5t-33.5 12.5t-73 5h-34v15zM691 738h247q185 0 301.5 85t116.5 223q0 135 -115 218t-303 83h-247v-609z" />
    <glyph glyph-name="macron" unicode="&#xaf;" horiz-adv-x="819" 
d="M737 1423h-655v21h655v-21z" />
    <glyph glyph-name="degree" unicode="&#xb0;" horiz-adv-x="430" 
d="M215 1485q47 0 90 -40t43 -93q0 -52 -41.5 -92.5t-91.5 -40.5q-47 0 -90 40t-43 93q0 52 41.5 92.5t91.5 40.5zM215 1464q-40 0 -76.5 -35t-36.5 -77q0 -44 37 -78.5t76 -34.5q40 0 76.5 35.5t36.5 77.5q0 44 -37 78t-76 34z" />
    <glyph glyph-name="plusminus" unicode="&#xb1;" horiz-adv-x="1064" 
d="M983 870l-1 -20h-439v-440h-21v440h-440v20h440v441h21v-441h440zM983 225h-901v21h901v-21z" />
    <glyph glyph-name="uni00B2" unicode="&#xb2;" horiz-adv-x="593" 
d="M79 1766h12l-2 -59q0 -36 10 -36q12 0 32 23q32 36 82.5 56t98.5 20q101 0 162.5 -56t61.5 -148q0 -65 -30.5 -132t-117.5 -160l-150 -161q-79 -84 -136 -130q-17 -14 -17 -17q0 -5 18 -5h376q29 0 48.5 19.5t19.5 49.5v136h16v-218q0 -7 -8 -7h-506q-8 0 -8 7v10
q0 7 7 8t30 19t63.5 55.5t83.5 83.5l149 158q86 92 114 156t28 128q0 85 -56 137t-148 52q-36 0 -71.5 -11t-70 -34.5t-58.5 -67.5t-29 -103l-2 -23q0 -6 -6 -6t-6 6z" />
    <glyph glyph-name="uni00B3" unicode="&#xb3;" horiz-adv-x="655" 
d="M329 1770q107 0 172.5 -49.5t65.5 -129.5q0 -58 -45 -104t-130 -68v-2q109 -16 171 -73.5t62 -156.5q0 -112 -85.5 -181t-223.5 -69q-171 0 -254 131q-1 1 -1 3v79h16v-36q0 -15 7.5 -39.5t18.5 -36.5q76 -86 213 -86q129 0 208.5 65t79.5 170q0 186 -213 216h-10
q-13 0 -13 6v17q0 7 13 7h10q156 42 156 158q0 73 -60 118.5t-158 45.5q-36 0 -71 -10.5t-70 -33.5t-59 -67.5t-30 -104.5l-2 -22q0 -7 -6 -7q-7 0 -7 7l10 249h14q-1 -20 -2.5 -38t-1.5 -20q0 -37 13 -37q9 0 30 24q31 36 82 55.5t100 19.5z" />
    <glyph glyph-name="acute" unicode="&#xb4;" horiz-adv-x="491" 
d="M78 1268l295 277q9 9 17 0q10 -9 2 -17l-300 -275z" />
    <glyph glyph-name="uni00B5" unicode="&#xb5;" horiz-adv-x="1249" 
d="M1024 1068v-813l9 -102q5 -57 24.5 -97t42.5 -41l98 17l4 -21l-99 -16h-2q-37 0 -62 47t-31 109l-10 103v143q0 27 -2 27q-1 0 -9 -27q-57 -171 -187 -286.5t-278 -115.5q-252 0 -317 167v-270q0 -62 12 -144t12 -100q0 -17 -12.5 -27t-32.5 -10v1387q0 29 -24 40.5
t-83 11.5h-26v15h26l133 3v-783q0 -131 79 -199t233 -68q119 0 229.5 81t178.5 214.5t68 278.5v406q0 29 -24 40.5t-83 11.5h-26v15h26z" />
    <glyph glyph-name="paragraph" unicode="&#xb6;" horiz-adv-x="1085" 
d="M389 819q-135 0 -231 96q-97 97 -97 232q0 134 97 231t231 97h625v-16h-41q-97 0 -130.5 -14t-33.5 -47v-1731q0 -33 33.5 -47t130.5 -14h41v-16h-231v1808q0 32 -40 46.5t-144 14.5t-144 -14.5t-40 -46.5v-1808h-231v16h41q97 0 130.5 14t33.5 47v1152z" />
    <glyph glyph-name="periodcentered" unicode="&#xb7;" horiz-adv-x="409" 
d="M123 548q0 17 12 29t29 12t29 -12t12 -29t-12 -29t-29 -12t-29 12t-12 29z" />
    <glyph glyph-name="cedilla" unicode="&#xb8;" horiz-adv-x="921" 
d="M371 15l-36 -142q56 16 87 16q73 0 125 -52.5t52 -127.5q0 -66 -54 -113t-130 -47q-53 0 -98.5 24t-70.5 65q-4 9 3 13q10 6 14 -3q22 -36 63 -57t89 -21q69 0 116.5 41.5t47.5 97.5q0 67 -46.5 113.5t-110.5 46.5q-13 0 -23.5 -1t-21 -3.5t-17.5 -4.5t-18.5 -6t-17.5 -6
q-10 -3 -13 7v6l39 159z" />
    <glyph glyph-name="uni00B9" unicode="&#xb9;" horiz-adv-x="399" 
d="M191 1629q0 14 -0.5 20.5t-4 12t-11.5 5.5q-10 0 -24 -7q-34 -16 -86 -16v16q21 0 37.5 2t29 7t21.5 9t15 13t10 13.5t6.5 16.5t3 16t2 17.5t1.5 15.5q21 0 21 -19v-755q0 -14 6 -22t34 -15t79 -7h27v-10h-317v10h32q51 0 78.5 7t33.5 15t6 22v633z" />
    <glyph glyph-name="ordmasculine" unicode="&#xba;" horiz-adv-x="819" 
d="M381 1567q145 0 237.5 -100.5t92.5 -253.5q0 -154 -93.5 -253.5t-236.5 -99.5q-145 0 -237.5 100t-92.5 253q0 155 94 254.5t236 99.5zM381 1546q-133 0 -218.5 -94.5t-85.5 -238.5q0 -146 86 -239t218 -93q134 0 219 94t85 238q0 146 -86 239.5t-218 93.5z" />
    <glyph glyph-name="guillemotright" unicode="&#xbb;" horiz-adv-x="696" 
d="M344 213l-16 14l264 301v9l-264 299l16 14l266 -302q11 -11 11 -14v-3q0 -3 -11 -14zM98 213l-16 14l264 301v9l-264 299l16 14l267 -302q10 -10 10 -14v-3q0 -4 -10 -14z" />
    <glyph glyph-name="onequarter" unicode="&#xbc;" 
d="M1232 1397l15 -14l-1148 -1305l-15 13zM222 1394q0 14 -0.5 20.5t-4 12t-11.5 5.5q-9 0 -25 -8q-34 -16 -86 -16v16q21 0 37.5 2t29 7t21.5 8.5t15.5 13.5t10.5 14t6.5 17t3 16t2 17.5t1.5 15.5q21 0 21 -19v-755q0 -14 6 -22t33.5 -15t78.5 -7h28v-10h-317v10h31
q51 0 79 7t34 15t6 22v633zM778 172q-6 -7 -8.5 -13t1 -10t13.5 -4h393q28 0 28 27v382q0 19 21 19v-401q0 -27 28 -27h103v-20h-103q-28 0 -28 -28v-80q0 -14 6 -22t34 -15t79 -7h37v-10h-374v10h78q51 0 79 7t34 15t6 22v80q0 28 -28 28h-440v25q14 17 61 70t77.5 90
t54.5 73q118 173 118 338q0 13 -10.5 31t-10.5 26q0 14 12 14q10 0 14 -6q11 -16 11 -57q0 -177 -118 -349q-18 -27 -40.5 -56t-37.5 -47t-46.5 -54t-43.5 -51z" />
    <glyph glyph-name="onehalf" unicode="&#xbd;" horiz-adv-x="1505" 
d="M1232 1397l15 -14l-1148 -1305l-15 13zM949 788h13l-3 -59q0 -36 11 -36t31 23q32 36 83 56.5t99 20.5q100 0 161.5 -56.5t61.5 -148.5q0 -65 -30.5 -132t-117.5 -160l-150 -161q-81 -87 -135 -130q-18 -15 -18 -17q0 -5 19 -5h376q29 0 48 19t19 50v136h17v-218
q0 -7 -9 -7h-505q-9 0 -9 7v11q0 5 8 7q7 1 30 19t63.5 55.5t83.5 83.5l148 158q86 92 114 156t28 128q0 85 -55.5 137t-147.5 52q-36 0 -71.5 -11t-70.5 -34.5t-59 -67.5t-29 -103l-2 -23q0 -6 -6 -6t-6 6zM222 1394q0 14 -0.5 20.5t-4 12t-11.5 5.5q-9 0 -25 -8
q-34 -16 -86 -16v16q21 0 37.5 2t29 7t21.5 8.5t15.5 13.5t10.5 14t6.5 17t3 16t2 17.5t1.5 15.5q21 0 21 -19v-755q0 -14 6 -22t33.5 -15t78.5 -7h28v-10h-317v10h31q51 0 79 7t34 15t6 22v633z" />
    <glyph glyph-name="threequarters" unicode="&#xbe;" horiz-adv-x="1536" 
d="M329 1535q107 0 172.5 -49.5t65.5 -129.5q0 -58 -45 -104t-130 -68v-2q108 -16 170.5 -74t62.5 -157q0 -112 -85.5 -181t-223.5 -69q-170 0 -254 132q-1 1 -1 3v78h16v-35q0 -15 7.5 -39.5t18.5 -36.5q76 -86 213 -86q130 0 209 64.5t79 169.5q0 186 -213 216h-10
q-13 0 -13 7v17q0 6 13 6h10q156 42 156 159q0 73 -60 118.5t-158 45.5q-36 0 -71 -10.5t-70 -33.5t-59 -67.5t-30 -104.5l-2 -23q0 -6 -6 -6q-7 0 -7 6l10 250h14q-1 -20 -2.5 -38t-1.5 -20q0 -37 13 -37q10 0 30 23q32 36 83 56t99 20zM1355 1397l15 -14l-1148 -1305
l-15 13zM881 172q-6 -7 -8.5 -13t1 -10t13.5 -4h392q29 0 29 27v382q0 19 20 19v-401q0 -27 29 -27h102v-20h-102q-29 0 -29 -28v-80q0 -14 6 -22t34 -15t79 -7h38v-10h-375v10h79q51 0 79 7t34 15t6 22v80q0 28 -29 28h-439v25q11 13 60 69t78.5 92t53.5 72
q118 173 118 338q0 13 -10.5 31t-10.5 26q0 6 4 10t9 4q9 0 13 -6q11 -16 11 -57q0 -179 -117 -349q-18 -27 -40.5 -56t-37.5 -47t-46.5 -54t-43.5 -51z" />
    <glyph glyph-name="questiondown" unicode="&#xbf;" horiz-adv-x="983" 
d="M887 -490h-17l3 106q0 3 0.5 8t0.5 7q0 47 -15 47q-14 0 -39 -29q-62 -71 -150 -108t-174 -37q-180 0 -297 93.5t-117 238.5q0 158 77 263t241 201q92 54 114 73q45 39 45 88q0 33 -11 132l20 2l17 -121q0 -3 0.5 -7t0.5 -6q0 -30 -11 -55t-41 -49.5t-45.5 -35
t-61.5 -37.5q-2 -1 -3 -2t-3 -2t-3.5 -2t-3.5 -2q-162 -94 -234 -191.5t-72 -248.5q0 -135 109.5 -223t278.5 -88q62 0 123.5 18.5t118 55t96 101.5t48.5 148l3 30q0 7 8 7t8 -7zM594 1029q0 -17 -12 -29t-29 -12t-29 12t-12 29t12 29t29 12t29 -12t12 -29z" />
    <glyph glyph-name="Agrave" unicode="&#xc0;" 
d="M811 1679l-14 -14l-300 274q-8 8 2 18q9 9 17 0zM335 512h729l-330 922q-17 48 -21 68h-24zM20 0v15h6q64 0 93 17t44 59l522 1458q3 7 9 7h28q10 0 10 -10q0 -33 26 -106l480 -1340q18 -49 46 -67t88 -18h41v-15h-399v15h102q63 0 86 7t23 28q0 13 -12 46l-142 396h-743
l-147 -407q-5 -17 -5 -26q0 -27 34 -35.5t117 -8.5h42v-15h-349z" />
    <glyph glyph-name="Aacute" unicode="&#xc1;" 
d="M600 1679l295 278q9 9 17 0q10 -10 2 -18l-300 -274zM335 512h729l-330 922q-17 48 -21 68h-24zM20 0v15h6q64 0 93 17t44 59l522 1458q3 7 9 7h28q10 0 10 -10q0 -33 26 -106l480 -1340q18 -49 46 -67t88 -18h41v-15h-399v15h102q63 0 86 7t23 28q0 13 -12 46l-142 396
h-743l-147 -407q-5 -17 -5 -26q0 -27 34 -35.5t117 -8.5h42v-15h-349z" />
    <glyph glyph-name="Acircumflex" unicode="&#xc2;" 
d="M388 1649l-14 15l320 282h23l320 -282l-14 -15l-314 276h-7zM335 512h729l-330 922q-17 48 -21 68h-24zM20 0v15h6q64 0 93 17t44 59l522 1458q3 7 9 7h28q10 0 10 -10q0 -33 26 -106l480 -1340q18 -49 46 -67t88 -18h41v-15h-399v15h102q63 0 86 7t23 28q0 13 -12 46
l-142 396h-743l-147 -407q-5 -17 -5 -26q0 -27 34 -35.5t117 -8.5h42v-15h-349z" />
    <glyph glyph-name="Atilde" unicode="&#xc3;" 
d="M964 1892q8 -2 8 -12q-9 -53 -41.5 -80.5t-74.5 -27.5q-44 0 -86 17t-71 38t-68 38t-76 17q-36 0 -61.5 -22.5t-33.5 -66.5q-2 -9 -13 -9q-3 0 -6 3t-2 9q9 51 40.5 80t75.5 29q42 0 84 -17.5t71 -38t68.5 -38t77.5 -17.5q35 0 61 22t34 68q0 3 3.5 6t9.5 2zM335 512h729
l-330 922q-17 48 -21 68h-24zM20 0v15h6q64 0 93 17t44 59l522 1458q3 7 9 7h28q10 0 10 -10q0 -33 26 -106l480 -1340q18 -49 46 -67t88 -18h41v-15h-399v15h102q63 0 86 7t23 28q0 13 -12 46l-142 396h-743l-147 -407q-5 -17 -5 -26q0 -27 34 -35.5t117 -8.5h42v-15h-349z
" />
    <glyph glyph-name="Adieresis" unicode="&#xc4;" 
d="M419 1782q0 17 12 29t29 12t29 -12t12 -29t-12 -29t-29 -12t-29 12t-12 29zM910 1782q0 17 12 29t29 12t29 -12t12 -29t-12 -29t-29 -12t-29 12t-12 29zM335 512h729l-330 922q-17 48 -21 68h-24zM20 0v15h6q64 0 93 17t44 59l522 1458q3 7 9 7h28q10 0 10 -10
q0 -33 26 -106l480 -1340q18 -49 46 -67t88 -18h41v-15h-399v15h102q63 0 86 7t23 28q0 13 -12 46l-142 396h-743l-147 -407q-5 -17 -5 -26q0 -27 34 -35.5t117 -8.5h42v-15h-349z" />
    <glyph glyph-name="Aring" unicode="&#xc5;" 
d="M707 1830q-59 0 -96.5 -37.5t-37.5 -95.5q0 -59 38 -96t96 -37q59 0 96 37.5t37 95.5q0 59 -37.5 96t-95.5 37zM707 1850q65 0 109 -43t44 -110q0 -59 -35.5 -101.5t-92.5 -50.5q0 -30 26 -105l480 -1340q18 -49 46 -67t88 -18h41v-15h-399v15h102q63 0 86 7t23 28
q0 13 -12 46l-142 396h-743l-147 -407q-5 -17 -5 -26q0 -27 34 -35.5t117 -8.5h42v-15h-349v15h6q64 0 93 17t44 59l520 1454q-57 8 -93.5 49.5t-36.5 102.5q0 65 43.5 109t110.5 44zM335 512h729l-330 922q-17 48 -21 68h-24z" />
    <glyph glyph-name="AE" unicode="&#xc6;" horiz-adv-x="2048" 
d="M1874 1556q10 0 10 -9l26 -389l-21 -2l-16 260q-4 67 -33 93.5t-97 26.5h-641l-1 -758h322q41 0 41 277v61h21v-696h-21v61q0 277 -41 277h-322v-738h724q69 0 97 27t33 93l16 260l21 -2l-26 -389q0 -9 -10 -9h-1075v15h41q66 0 101.5 9t43.5 20t8 29v419h-719l-174 -407
q-7 -15 -7 -28q0 -26 35 -34t118 -8h41v-15h-349v15h6q63 0 90.5 16.5t46.5 59.5l593 1384q4 12 4 19q0 19 -12.5 33t-37.5 14h-39v15h46h1157zM366 512h709v952q0 39 -16 55.5t-55 16.5h-155q-47 0 -74 -67z" />
    <glyph glyph-name="Ccedilla" unicode="&#xc7;" horiz-adv-x="1168" 
d="M1066 1577h15l15 -389q0 -8 -7 -8q-9 0 -9 8q-3 74 -34 136t-75 101t-97.5 66t-99.5 38.5t-83 11.5q-179 0 -316.5 -94.5t-212.5 -267.5t-75 -399q0 -224 71.5 -397t209.5 -270.5t323 -97.5q237 0 407 168l14 -14q-178 -174 -421 -174h-22l-34 -132q56 16 87 16
q73 0 125 -52.5t52 -127.5q0 -66 -54 -113t-130 -47q-53 0 -98.5 23.5t-70.5 64.5q-5 10 3 14q10 6 14 -3q22 -36 63 -57t89 -21q69 0 116.5 41.5t47.5 97.5q0 67 -46.5 113.5t-110.5 46.5q-13 0 -23.5 -1t-21 -3.5t-17.5 -4.5t-18.5 -6t-17.5 -6q-11 -3 -13 6v6l36 146
q-179 12 -311.5 116.5t-200.5 276.5t-68 391q0 232 77.5 410t219 275t327.5 97q74 0 172 -42t162 -124q16 -19 27 -19q19 0 19 36v34z" />
    <glyph glyph-name="Egrave" unicode="&#xc8;" horiz-adv-x="1320" 
d="M822 1679l-14 -14l-300 274q-8 8 2 18q8 9 17 0zM51 1556h1096q10 0 10 -9l26 -389l-21 -2l-16 260q-4 67 -33 93.5t-97 26.5h-744l-1 -758h405q41 0 41 277v61h20v-696h-20v61q0 277 -41 277h-405v-738h827q69 0 97 27t33 93l16 260l21 -2l-26 -389q0 -9 -10 -9h-1178
v15h41q66 0 101.5 9t44 20t8.5 29v1417q0 27 -30 39t-124 12h-41v15z" />
    <glyph glyph-name="Eacute" unicode="&#xc9;" horiz-adv-x="1320" 
d="M611 1679l295 278q9 9 18 0q10 -10 2 -18l-300 -274zM51 1556h1096q10 0 10 -9l26 -389l-21 -2l-16 260q-4 67 -33 93.5t-97 26.5h-744l-1 -758h405q41 0 41 277v61h20v-696h-20v61q0 277 -41 277h-405v-738h827q69 0 97 27t33 93l16 260l21 -2l-26 -389q0 -9 -10 -9
h-1178v15h41q66 0 101.5 9t44 20t8.5 29v1417q0 27 -30 39t-124 12h-41v15z" />
    <glyph glyph-name="Ecircumflex" unicode="&#xca;" horiz-adv-x="1320" 
d="M399 1649l-14 15l321 282h22l321 -282l-15 -15l-314 276h-6zM51 1556h1096q10 0 10 -9l26 -389l-21 -2l-16 260q-4 67 -33 93.5t-97 26.5h-744l-1 -758h405q41 0 41 277v61h20v-696h-20v61q0 277 -41 277h-405v-738h827q69 0 97 27t33 93l16 260l21 -2l-26 -389
q0 -9 -10 -9h-1178v15h41q66 0 101.5 9t44 20t8.5 29v1417q0 27 -30 39t-124 12h-41v15z" />
    <glyph glyph-name="Edieresis" unicode="&#xcb;" horiz-adv-x="1320" 
d="M430 1782q0 17 12 29t29 12t29 -12t12 -29t-12 -29t-29 -12t-29 12t-12 29zM922 1782q0 17 12 29t29 12t29 -12t12 -29t-12 -29t-29 -12t-29 12t-12 29zM51 1556h1096q10 0 10 -9l26 -389l-21 -2l-16 260q-4 67 -33 93.5t-97 26.5h-744l-1 -758h405q41 0 41 277v61h20
v-696h-20v61q0 277 -41 277h-405v-738h827q69 0 97 27t33 93l16 260l21 -2l-26 -389q0 -9 -10 -9h-1178v15h41q66 0 101.5 9t44 20t8.5 29v1417q0 27 -30 39t-124 12h-41v15z" />
    <glyph glyph-name="Igrave" unicode="&#xcc;" horiz-adv-x="512" 
d="M365 1679l-15 -14l-300 274q-8 8 2 18q9 9 18 0zM461 0h-410v15h41q66 0 101.5 8.5t44 19.5t8.5 29v1416q0 27 -30 40t-124 13h-41v15h410v-15h-36q-94 0 -124 -13t-30 -40v-1416q0 -18 8.5 -29t44 -19.5t101.5 -8.5h36v-15z" />
    <glyph glyph-name="Iacute" unicode="&#xcd;" horiz-adv-x="512" 
d="M154 1679l295 278q9 9 17 0q10 -10 2 -18l-300 -274zM461 0h-410v15h41q66 0 101.5 8.5t44 19.5t8.5 29v1416q0 27 -30 40t-124 13h-41v15h410v-15h-36q-94 0 -124 -13t-30 -40v-1416q0 -18 8.5 -29t44 -19.5t101.5 -8.5h36v-15z" />
    <glyph glyph-name="Icircumflex" unicode="&#xce;" horiz-adv-x="512" 
d="M-58 1649l-15 15l321 282h22l321 -282l-14 -15l-315 276h-6zM461 0h-410v15h41q66 0 101.5 8.5t44 19.5t8.5 29v1416q0 27 -30 40t-124 13h-41v15h410v-15h-36q-94 0 -124 -13t-30 -40v-1416q0 -18 8.5 -29t44 -19.5t101.5 -8.5h36v-15z" />
    <glyph glyph-name="Idieresis" unicode="&#xcf;" horiz-adv-x="512" 
d="M-17 1782q0 17 12 29t29 12t29 -12t12 -29t-12 -29t-29 -12t-29 12t-12 29zM447 1782q0 17 12 29t29 12t29 -12t12 -29t-12 -29t-29 -12t-29 12t-12 29zM461 0h-410v15h41q66 0 101.5 8.5t44 19.5t8.5 29v1416q0 27 -30 40t-124 13h-41v15h410v-15h-36q-94 0 -124 -13
t-30 -40v-1416q0 -18 8.5 -29t44 -19.5t101.5 -8.5h36v-15z" />
    <glyph glyph-name="Eth" unicode="&#xd0;" horiz-adv-x="1495" 
d="M313 1536v-748h344l-4 -20h-341v-748h364q208 0 374.5 97.5t259.5 270.5t93 390t-93 390t-259.5 270.5t-374.5 97.5h-363zM92 1556h589q214 0 384.5 -99.5t266.5 -277.5t96 -401t-96 -401t-266.5 -277.5t-384.5 -99.5h-589v15h41q66 0 101.5 9t44 20t8.5 29v695h-207
l4 20h203v702q0 27 -30 39t-124 12h-41v15z" />
    <glyph glyph-name="Ntilde" unicode="&#xd1;" horiz-adv-x="1464" 
d="M1041 1892q9 -2 9 -12q-9 -53 -41.5 -80.5t-74.5 -27.5q-44 0 -86 17t-71 38t-68 38t-76 17q-36 0 -61.5 -22.5t-33.5 -66.5q-2 -9 -13 -9q-3 0 -6 3t-2 9q9 51 40.5 80t75.5 29q42 0 84 -17.5t71 -38t68.5 -38t77.5 -17.5q35 0 61 22t34 68q0 3 3 6t9 2zM51 1556h235
q6 0 8 -5l911 -1461q11 -18 22 -18q12 0 12 26v1387q0 28 -30.5 42t-123.5 14h-41v15h390v-15h-21q-93 0 -123 -14t-30 -42v-1485h-22q-6 0 -9 5l-956 1531h-9q12 -49 12 -114v-1350q0 -18 8.5 -29t44 -19.5t101.5 -8.5h36v-15h-405v15h41q66 0 101.5 8.5t44 19.5t8.5 29
v1351q0 32 -9 54t-23 34.5t-40.5 19t-52.5 8.5t-68 2h-12v15z" />
    <glyph glyph-name="Ograve" unicode="&#xd2;" horiz-adv-x="1443" 
d="M827 1679l-14 -14l-300 274q-8 8 2 18q9 9 17 0zM722 -5q-141 0 -262.5 59t-208 161.5t-135.5 248.5t-49 314q0 225 84 404t233.5 279.5t337.5 100.5t337.5 -100.5t233.5 -279.5t84 -404q0 -168 -49 -314t-135.5 -248.5t-208 -161.5t-262.5 -59zM722 15q181 0 325 98
t224.5 272.5t80.5 392.5t-80.5 392.5t-224.5 272.5t-325 98t-325 -98t-224.5 -272.5t-80.5 -392.5t80.5 -392.5t224.5 -272.5t325 -98z" />
    <glyph glyph-name="Oacute" unicode="&#xd3;" horiz-adv-x="1443" 
d="M616 1679l295 278q9 9 18 0q10 -10 2 -18l-300 -274zM722 -5q-141 0 -262.5 59t-208 161.5t-135.5 248.5t-49 314q0 225 84 404t233.5 279.5t337.5 100.5t337.5 -100.5t233.5 -279.5t84 -404q0 -168 -49 -314t-135.5 -248.5t-208 -161.5t-262.5 -59zM722 15q181 0 325 98
t224.5 272.5t80.5 392.5t-80.5 392.5t-224.5 272.5t-325 98t-325 -98t-224.5 -272.5t-80.5 -392.5t80.5 -392.5t224.5 -272.5t325 -98z" />
    <glyph glyph-name="Ocircumflex" unicode="&#xd4;" horiz-adv-x="1443" 
d="M404 1649l-14 15l321 282h22l321 -282l-15 -15l-314 276h-6zM722 -5q-141 0 -262.5 59t-208 161.5t-135.5 248.5t-49 314q0 225 84 404t233.5 279.5t337.5 100.5t337.5 -100.5t233.5 -279.5t84 -404q0 -168 -49 -314t-135.5 -248.5t-208 -161.5t-262.5 -59zM722 15
q181 0 325 98t224.5 272.5t80.5 392.5t-80.5 392.5t-224.5 272.5t-325 98t-325 -98t-224.5 -272.5t-80.5 -392.5t80.5 -392.5t224.5 -272.5t325 -98z" />
    <glyph glyph-name="Otilde" unicode="&#xd5;" horiz-adv-x="1443" 
d="M980 1892q8 -2 8 -12q-9 -53 -41.5 -80.5t-74.5 -27.5q-44 0 -86 17t-71 38t-68 38t-76 17q-36 0 -61.5 -22.5t-33.5 -66.5q-2 -9 -12 -9q-3 0 -6 3t-2 9q9 52 40 80.5t75 28.5q42 0 84 -17.5t71 -38t68.5 -38t77.5 -17.5q35 0 61.5 22t34.5 68q0 3 3 6t9 2zM722 -5
q-141 0 -262.5 59t-208 161.5t-135.5 248.5t-49 314q0 225 84 404t233.5 279.5t337.5 100.5t337.5 -100.5t233.5 -279.5t84 -404q0 -168 -49 -314t-135.5 -248.5t-208 -161.5t-262.5 -59zM722 15q181 0 325 98t224.5 272.5t80.5 392.5t-80.5 392.5t-224.5 272.5t-325 98
t-325 -98t-224.5 -272.5t-80.5 -392.5t80.5 -392.5t224.5 -272.5t325 -98z" />
    <glyph glyph-name="Odieresis" unicode="&#xd6;" horiz-adv-x="1443" 
d="M435 1782q0 17 12 29t29 12t29 -12t12 -29t-12 -29t-29 -12t-29 12t-12 29zM927 1782q0 17 12 29t29 12t29 -12t12 -29t-12 -29t-29 -12t-29 12t-12 29zM722 -5q-141 0 -262.5 59t-208 161.5t-135.5 248.5t-49 314q0 225 84 404t233.5 279.5t337.5 100.5t337.5 -100.5
t233.5 -279.5t84 -404q0 -168 -49 -314t-135.5 -248.5t-208 -161.5t-262.5 -59zM722 15q181 0 325 98t224.5 272.5t80.5 392.5t-80.5 392.5t-224.5 272.5t-325 98t-325 -98t-224.5 -272.5t-80.5 -392.5t80.5 -392.5t224.5 -272.5t325 -98z" />
    <glyph glyph-name="multiply" unicode="&#xd7;" horiz-adv-x="737" 
d="M621 1004l14 -15l-251 -252l252 -252l-15 -15l-252 252l-252 -252l-16 15l252 252l-252 252l16 16l252 -252z" />
    <glyph glyph-name="Oslash" unicode="&#xd8;" horiz-adv-x="1443" 
d="M722 1562q256 0 436 -185l155 206l16 -12l-157 -209q98 -107 151.5 -257t53.5 -327q0 -168 -49 -314t-135.5 -248.5t-208 -161.5t-262.5 -59q-257 0 -436 184l-155 -206l-16 13l156 209q-98 107 -151 256.5t-53 326.5q0 225 84 404t233.5 279.5t337.5 100.5zM722 15
q181 0 325 98t224.5 272.5t80.5 392.5q0 171 -51 316t-143 249l-859 -1145q174 -183 423 -183zM722 1541q-181 0 -325 -98t-224.5 -272.5t-80.5 -392.5q0 -171 51 -316t143 -249l859 1146q-173 182 -423 182z" />
    <glyph glyph-name="Ugrave" unicode="&#xd9;" 
d="M838 1679l-15 -14l-300 274q-8 8 2 18q9 9 18 0zM31 1556h450v-15h-77q-66 0 -101.5 -8.5t-43.5 -19t-8 -28.5v-988q0 -210 130.5 -346t335.5 -136q214 0 352.5 135.5t138.5 346.5v988q0 18 -8 28.5t-43.5 19t-101.5 8.5h-77v15h425v-15h-21q-66 0 -101.5 -8.5t-43.5 -19
t-8 -28.5v-988q0 -219 -145.5 -360.5t-366.5 -141.5q-215 0 -353.5 142.5t-138.5 359.5v988q0 18 -8 28.5t-43.5 19t-101.5 8.5h-41v15z" />
    <glyph glyph-name="Uacute" unicode="&#xda;" 
d="M627 1679l295 278q8 9 17 0q10 -10 2 -18l-300 -274zM31 1556h450v-15h-77q-66 0 -101.5 -8.5t-43.5 -19t-8 -28.5v-988q0 -210 130.5 -346t335.5 -136q214 0 352.5 135.5t138.5 346.5v988q0 18 -8 28.5t-43.5 19t-101.5 8.5h-77v15h425v-15h-21q-66 0 -101.5 -8.5
t-43.5 -19t-8 -28.5v-988q0 -219 -145.5 -360.5t-366.5 -141.5q-215 0 -353.5 142.5t-138.5 359.5v988q0 18 -8 28.5t-43.5 19t-101.5 8.5h-41v15z" />
    <glyph glyph-name="Ucircumflex" unicode="&#xdb;" 
d="M415 1649l-15 15l321 282h22l321 -282l-14 -15l-315 276h-6zM31 1556h450v-15h-77q-66 0 -101.5 -8.5t-43.5 -19t-8 -28.5v-988q0 -210 130.5 -346t335.5 -136q214 0 352.5 135.5t138.5 346.5v988q0 18 -8 28.5t-43.5 19t-101.5 8.5h-77v15h425v-15h-21
q-66 0 -101.5 -8.5t-43.5 -19t-8 -28.5v-988q0 -219 -145.5 -360.5t-366.5 -141.5q-215 0 -353.5 142.5t-138.5 359.5v988q0 18 -8 28.5t-43.5 19t-101.5 8.5h-41v15z" />
    <glyph glyph-name="Udieresis" unicode="&#xdc;" 
d="M445 1782q0 17 12 29t29 12t29 -12t12 -29t-12 -29t-29 -12t-29 12t-12 29zM937 1782q0 17 12 29t29 12t29 -12t12 -29t-12 -29t-29 -12t-29 12t-12 29zM31 1556h450v-15h-77q-66 0 -101.5 -8.5t-43.5 -19t-8 -28.5v-988q0 -210 130.5 -346t335.5 -136q214 0 352.5 135.5
t138.5 346.5v988q0 18 -8 28.5t-43.5 19t-101.5 8.5h-77v15h425v-15h-21q-66 0 -101.5 -8.5t-43.5 -19t-8 -28.5v-988q0 -219 -145.5 -360.5t-366.5 -141.5q-215 0 -353.5 142.5t-138.5 359.5v988q0 18 -8 28.5t-43.5 19t-101.5 8.5h-41v15z" />
    <glyph glyph-name="Yacute" unicode="&#xdd;" horiz-adv-x="1351" 
d="M568 1679l295 278q9 9 18 0q10 -10 2 -18l-300 -274zM10 1556h414v-15h-145q-54 0 -78 -7t-24 -27q0 -14 11 -36l486 -887l485 887q11 22 11 36q0 20 -24 27t-77 7h-145v15h417v-15h-36q-24 0 -40.5 -3t-42 -22t-44.5 -55l-492 -898v-491q0 -18 8.5 -29t44 -19.5
t101.5 -8.5h36v-15h-410v15h41q50 0 82.5 4.5t47 13t19 17.5t4.5 22v483l-4 8l-491 898q-19 36 -44.5 55t-42 22t-40.5 3h-28v15z" />
    <glyph glyph-name="Thorn" unicode="&#xde;" horiz-adv-x="1244" 
d="M271 1485v-72h364q125 0 222.5 -31.5t156.5 -81.5t97.5 -117t52.5 -130.5t14 -130.5q0 -68 -14.5 -132.5t-53 -131t-98 -116t-156.5 -81t-221 -31.5h-364v-358q0 -18 8.5 -29t44 -19.5t101.5 -8.5h36v-15h-410v15h41q66 0 101.5 8.5t44 19.5t8.5 29v1413q0 18 -8.5 28.5
t-44 19t-101.5 8.5h-41v15h410v-15h-36q-66 0 -101.5 -8.5t-44 -19t-8.5 -28.5zM271 451h361q120 0 214 30t150 77t92.5 111.5t50 125.5t13.5 127q0 65 -13 125.5t-49 125t-92 112t-150.5 78t-215.5 30.5h-361v-942z" />
    <glyph glyph-name="germandbls" unicode="&#xdf;" horiz-adv-x="1208" 
d="M102 1024v20h144v118q0 180 91.5 290t242.5 110q152 0 232 -68.5t80 -198.5q0 -59 -19 -108.5t-50 -83t-68 -62t-74.5 -52.5t-68.5 -48t-50 -54.5t-19 -66.5q0 -51 34 -90t88 -65t119.5 -50t131 -53.5t119.5 -67.5t88 -100.5t34 -143.5q0 -116 -91 -185.5t-252 -69.5
q-77 0 -146 26.5t-148 93.5q-51 47 -64 47q-19 0 -22 -66l-4 -96h-15l12 338h15v-11q0 -119 96 -198q77 -63 140.5 -88.5t135.5 -25.5q150 0 234 64t84 171q0 67 -26 120.5t-69 86.5t-98 62t-112 48.5t-112 44.5t-98 50t-69 65.5t-26 92.5q0 40 19 73.5t49.5 58.5t67 49.5
t73 52t67 59.5t49.5 78.5t19 103.5q0 120 -73 183t-213 63q-141 0 -227.5 -104.5t-86.5 -274.5v-1095q0 -30 1.5 -39t8.5 -13v-15h-204v15h20q67 0 102 7.5t43.5 17.5t8.5 27v957h-144z" />
    <glyph glyph-name="agrave" unicode="&#xe0;" horiz-adv-x="1136" 
d="M638 1270l-14 -15l-300 275q-8 8 2 17q8 9 17 0zM896 662q-14 -23 -38.5 -42t-58 -32t-64.5 -21.5t-74.5 -14.5t-70 -9t-69 -6.5t-54.5 -4.5q-83 -9 -147 -26t-117.5 -47.5t-82 -79t-28.5 -113.5q0 -109 105.5 -180t268.5 -71q117 0 217.5 65t156.5 166.5t56 209.5v206z
M585 1070q147 0 242 -93.5t95 -238.5v-497l16 -98q20 -122 62 -123l110 11l2 -21l-112 -15h-1q-64 0 -87 144q-2 11 -6 37t-7 43t-3 21v22q0 28 -7 28t-16 -22q-56 -119 -165 -196t-242 -77q-174 0 -286.5 76.5t-112.5 194.5q0 245 398 287q12 1 52 5t63.5 6t64.5 8
t67.5 12.5t60 17.5t54.5 24t39 32t25 41q5 18 5 33v6q-1 135 -87 223.5t-221 88.5q-154 0 -262.5 -59.5t-108.5 -144.5q0 -22 -21 -22q-22 0 -22 22q0 93 120.5 158.5t290.5 65.5z" />
    <glyph glyph-name="aacute" unicode="&#xe1;" horiz-adv-x="1136" 
d="M427 1270l295 277q8 9 17 0t2 -17l-300 -275zM896 662q-14 -23 -38.5 -42t-58 -32t-64.5 -21.5t-74.5 -14.5t-70 -9t-69 -6.5t-54.5 -4.5q-83 -9 -147 -26t-117.5 -47.5t-82 -79t-28.5 -113.5q0 -109 105.5 -180t268.5 -71q117 0 217.5 65t156.5 166.5t56 209.5v206z
M585 1070q147 0 242 -93.5t95 -238.5v-497l16 -98q20 -122 62 -123l110 11l2 -21l-112 -15h-1q-64 0 -87 144q-2 11 -6 37t-7 43t-3 21v22q0 28 -7 28t-16 -22q-56 -119 -165 -196t-242 -77q-174 0 -286.5 76.5t-112.5 194.5q0 245 398 287q12 1 52 5t63.5 6t64.5 8
t67.5 12.5t60 17.5t54.5 24t39 32t25 41q5 18 5 33v6q-1 135 -87 223.5t-221 88.5q-154 0 -262.5 -59.5t-108.5 -144.5q0 -22 -21 -22q-22 0 -22 22q0 93 120.5 158.5t290.5 65.5z" />
    <glyph glyph-name="acircumflex" unicode="&#xe2;" horiz-adv-x="1136" 
d="M215 1239l-14 15l320 282h23l320 -282l-14 -15l-314 277h-7zM896 662q-14 -23 -38.5 -42t-58 -32t-64.5 -21.5t-74.5 -14.5t-70 -9t-69 -6.5t-54.5 -4.5q-83 -9 -147 -26t-117.5 -47.5t-82 -79t-28.5 -113.5q0 -109 105.5 -180t268.5 -71q117 0 217.5 65t156.5 166.5
t56 209.5v206zM585 1070q147 0 242 -93.5t95 -238.5v-497l16 -98q20 -122 62 -123l110 11l2 -21l-112 -15h-1q-64 0 -87 144q-2 11 -6 37t-7 43t-3 21v22q0 28 -7 28t-16 -22q-56 -119 -165 -196t-242 -77q-174 0 -286.5 76.5t-112.5 194.5q0 245 398 287q12 1 52 5t63.5 6
t64.5 8t67.5 12.5t60 17.5t54.5 24t39 32t25 41q5 18 5 33v6q-1 135 -87 223.5t-221 88.5q-154 0 -262.5 -59.5t-108.5 -144.5q0 -22 -21 -22q-22 0 -22 22q0 93 120.5 158.5t290.5 65.5z" />
    <glyph glyph-name="atilde" unicode="&#xe3;" horiz-adv-x="1136" 
d="M791 1483q8 -2 8 -13q-9 -53 -41.5 -80.5t-74.5 -27.5q-44 0 -86 17.5t-71 38t-68 38t-76 17.5q-36 0 -61.5 -23t-33.5 -67q-2 -9 -13 -9q-3 0 -6 3t-2 9q9 51 40.5 80t75.5 29q42 0 84 -17.5t71 -38t68.5 -38t77.5 -17.5q35 0 61 22t34 69q0 3 3.5 6t9.5 2zM896 662
q-14 -23 -38.5 -42t-58 -32t-64.5 -21.5t-74.5 -14.5t-70 -9t-69 -6.5t-54.5 -4.5q-83 -9 -147 -26t-117.5 -47.5t-82 -79t-28.5 -113.5q0 -109 105.5 -180t268.5 -71q117 0 217.5 65t156.5 166.5t56 209.5v206zM585 1070q147 0 242 -93.5t95 -238.5v-497l16 -98
q20 -122 62 -123l110 11l2 -21l-112 -15h-1q-64 0 -87 144q-2 11 -6 37t-7 43t-3 21v22q0 28 -7 28t-16 -22q-56 -119 -165 -196t-242 -77q-174 0 -286.5 76.5t-112.5 194.5q0 245 398 287q12 1 52 5t63.5 6t64.5 8t67.5 12.5t60 17.5t54.5 24t39 32t25 41q5 18 5 33v6
q-1 135 -87 223.5t-221 88.5q-154 0 -262.5 -59.5t-108.5 -144.5q0 -22 -21 -22q-22 0 -22 22q0 93 120.5 158.5t290.5 65.5z" />
    <glyph glyph-name="adieresis" unicode="&#xe4;" horiz-adv-x="1136" 
d="M246 1372q0 17 12 29t29 12t29 -12t12 -29t-12 -29t-29 -12t-29 12t-12 29zM737 1372q0 17 12 29t29 12t29 -12t12 -29t-12 -29t-29 -12t-29 12t-12 29zM896 662q-14 -23 -38.5 -42t-58 -32t-64.5 -21.5t-74.5 -14.5t-70 -9t-69 -6.5t-54.5 -4.5q-83 -9 -147 -26
t-117.5 -47.5t-82 -79t-28.5 -113.5q0 -109 105.5 -180t268.5 -71q117 0 217.5 65t156.5 166.5t56 209.5v206zM585 1070q147 0 242 -93.5t95 -238.5v-497l16 -98q20 -122 62 -123l110 11l2 -21l-112 -15h-1q-64 0 -87 144q-2 11 -6 37t-7 43t-3 21v22q0 28 -7 28t-16 -22
q-56 -119 -165 -196t-242 -77q-174 0 -286.5 76.5t-112.5 194.5q0 245 398 287q12 1 52 5t63.5 6t64.5 8t67.5 12.5t60 17.5t54.5 24t39 32t25 41q5 18 5 33v6q-1 135 -87 223.5t-221 88.5q-154 0 -262.5 -59.5t-108.5 -144.5q0 -22 -21 -22q-22 0 -22 22q0 93 120.5 158.5
t290.5 65.5z" />
    <glyph glyph-name="aring" unicode="&#xe5;" horiz-adv-x="1136" 
d="M585 1500q65 0 109 -43t44 -110q0 -65 -43 -109.5t-110 -44.5q-65 0 -109.5 43.5t-44.5 110.5q0 65 43.5 109t110.5 44zM585 1480q-59 0 -96 -37.5t-37 -95.5q0 -59 37.5 -96.5t95.5 -37.5q59 0 96 38t37 96q0 59 -37.5 96t-95.5 37zM896 662q-14 -23 -38.5 -42t-58 -32
t-64.5 -21.5t-74.5 -14.5t-70 -9t-69 -6.5t-54.5 -4.5q-83 -9 -147 -26t-117.5 -47.5t-82 -79t-28.5 -113.5q0 -109 105.5 -180t268.5 -71q117 0 217.5 65t156.5 166.5t56 209.5v206zM585 1070q147 0 242 -93.5t95 -238.5v-497l16 -98q20 -122 62 -123l110 11l2 -21
l-112 -15h-1q-64 0 -87 144q-2 11 -6 37t-7 43t-3 21v22q0 28 -7 28t-16 -22q-56 -119 -165 -196t-242 -77q-174 0 -286.5 76.5t-112.5 194.5q0 245 398 287q12 1 52 5t63.5 6t64.5 8t67.5 12.5t60 17.5t54.5 24t39 32t25 41q5 18 5 33v6q-1 135 -87 223.5t-221 88.5
q-154 0 -262.5 -59.5t-108.5 -144.5q0 -22 -21 -22q-22 0 -22 22q0 93 120.5 158.5t290.5 65.5z" />
    <glyph glyph-name="ae" unicode="&#xe6;" horiz-adv-x="1945" 
d="M923 563h878q46 0 46 70q0 17 -3 31q-31 175 -149 280.5t-297 105.5q-200 0 -332.5 -136t-142.5 -351zM922 543v-11q0 -225 130.5 -371t335.5 -146q315 0 449 237l18 -10q-64 -114 -180.5 -180.5t-286.5 -66.5q-176 0 -303.5 105t-170.5 277q-20 -65 -41 -109
q-55 -119 -164.5 -196t-242.5 -77q-174 0 -286.5 76.5t-112.5 194.5q0 245 398 287q56 6 121 7.5t160.5 1.5t149.5 1v175q-1 135 -87 223.5t-221 88.5q-154 0 -262.5 -59.5t-108.5 -144.5q0 -22 -21 -22q-22 0 -22 22q0 93 120.5 158.5t290.5 65.5q147 0 242 -93.5
t95 -238.5v-25q49 163 177 260t299 97q217 0 349 -145.5t132 -371.5q0 -10 -10 -10h-947zM896 543q-55 -1 -164 -3t-173 -3.5t-92 -4.5q-83 -9 -147 -26t-117.5 -47.5t-82 -79t-28.5 -113.5q0 -109 105.5 -180t268.5 -71q117 0 217.5 65t156.5 166.5t56 209.5v76v11z" />
    <glyph glyph-name="ccedilla" unicode="&#xe7;" horiz-adv-x="1034" 
d="M67 530q0 154 64.5 277.5t179 193t257.5 69.5q103 0 195.5 -33.5t143 -80.5t50.5 -91q0 -21 -21 -21q-22 0 -22 21q0 48 -50.5 91t-131.5 68.5t-167 25.5q-206 0 -339.5 -146.5t-133.5 -373.5q0 -226 139 -370.5t358 -144.5q101 0 200 34t176 99l13 -15
q-80 -68 -182.5 -103t-206.5 -35q-22 0 -33 1l-34 -135q56 16 87 16q73 0 125 -52.5t52 -127.5q0 -66 -54 -113t-130 -47q-53 0 -98.5 23.5t-70.5 64.5q-5 10 3 14q10 6 15 -4q22 -35 62.5 -56t88.5 -21q69 0 116.5 41.5t47.5 97.5q0 67 -46.5 113.5t-110.5 46.5
q-13 0 -23.5 -1t-21 -3.5t-17.5 -4.5t-18.5 -6t-17.5 -6q-10 -3 -12 6q-1 2 0 5v1l36 149q-207 20 -337.5 167t-130.5 366z" />
    <glyph glyph-name="egrave" unicode="&#xe8;" horiz-adv-x="1116" 
d="M694 1270l-14 -15l-300 275q-8 8 2 17q8 9 17 0zM972 563q46 0 46 70q0 17 -3 31q-31 175 -149.5 280.5t-297.5 105.5q-197 0 -331.5 -134t-143.5 -353h879zM92 543v-11q0 -225 130.5 -371t335.5 -146q165 0 276.5 64t173.5 173l18 -10q-64 -114 -181 -180.5t-287 -66.5
q-215 0 -353 152.5t-138 384.5v22q7 226 148 371t353 145q217 0 349.5 -145.5t132.5 -371.5q0 -10 -11 -10h-947z" />
    <glyph glyph-name="eacute" unicode="&#xe9;" horiz-adv-x="1116" 
d="M483 1270l295 277q9 9 18 0q10 -9 2 -17l-300 -275zM972 563q46 0 46 70q0 17 -3 31q-31 175 -149.5 280.5t-297.5 105.5q-197 0 -331.5 -134t-143.5 -353h879zM92 543v-11q0 -225 130.5 -371t335.5 -146q165 0 276.5 64t173.5 173l18 -10q-64 -114 -181 -180.5
t-287 -66.5q-215 0 -353 152.5t-138 384.5v22q7 226 148 371t353 145q217 0 349.5 -145.5t132.5 -371.5q0 -10 -11 -10h-947z" />
    <glyph glyph-name="ecircumflex" unicode="&#xea;" horiz-adv-x="1116" 
d="M271 1239l-14 15l321 282h22l321 -282l-15 -15l-314 277h-6zM972 563q46 0 46 70q0 17 -3 31q-31 175 -149.5 280.5t-297.5 105.5q-197 0 -331.5 -134t-143.5 -353h879zM92 543v-11q0 -225 130.5 -371t335.5 -146q165 0 276.5 64t173.5 173l18 -10q-64 -114 -181 -180.5
t-287 -66.5q-215 0 -353 152.5t-138 384.5v22q7 226 148 371t353 145q217 0 349.5 -145.5t132.5 -371.5q0 -10 -11 -10h-947z" />
    <glyph glyph-name="edieresis" unicode="&#xeb;" horiz-adv-x="1116" 
d="M302 1372q0 17 12 29t29 12t29 -12t12 -29t-12 -29t-29 -12t-29 12t-12 29zM794 1372q0 17 12 29t29 12t29 -12t12 -29t-12 -29t-29 -12t-29 12t-12 29zM972 563q46 0 46 70q0 17 -3 31q-31 175 -149.5 280.5t-297.5 105.5q-197 0 -331.5 -134t-143.5 -353h879zM92 543
v-11q0 -225 130.5 -371t335.5 -146q165 0 276.5 64t173.5 173l18 -10q-64 -114 -181 -180.5t-287 -66.5q-215 0 -353 152.5t-138 384.5v22q7 226 148 371t353 145q217 0 349.5 -145.5t132.5 -371.5q0 -10 -11 -10h-947z" />
    <glyph glyph-name="igrave" unicode="&#xec;" horiz-adv-x="512" 
d="M361 1270l-14 -15l-300 275q-7 8 2 17t18 0zM271 72q0 -18 8.5 -29t44 -19.5t101.5 -8.5h36v-15h-410v15h41q66 0 101.5 8.5t44 19.5t8.5 29v926q0 29 -24.5 40.5t-83.5 11.5h-25v15h25l133 3v-996z" />
    <glyph glyph-name="iacute" unicode="&#xed;" horiz-adv-x="512" 
d="M151 1270l294 277q9 9 18 0t2 -17l-300 -275zM271 72q0 -18 8.5 -29t44 -19.5t101.5 -8.5h36v-15h-410v15h41q66 0 101.5 8.5t44 19.5t8.5 29v926q0 29 -24.5 40.5t-83.5 11.5h-25v15h25l133 3v-996z" />
    <glyph glyph-name="icircumflex" unicode="&#xee;" horiz-adv-x="512" 
d="M-61 1239l-15 15l321 282h22l321 -282l-15 -15l-314 277h-6zM271 72q0 -18 8.5 -29t44 -19.5t101.5 -8.5h36v-15h-410v15h41q66 0 101.5 8.5t44 19.5t8.5 29v926q0 29 -24.5 40.5t-83.5 11.5h-25v15h25l133 3v-996z" />
    <glyph glyph-name="idieresis" unicode="&#xef;" horiz-adv-x="512" 
d="M-10 1372q0 17 12 29t29 12t29 -12t12 -29t-12 -29t-29 -12t-29 12t-12 29zM440 1372q0 17 12 29t29 12t29 -12t12 -29t-12 -29t-29 -12t-29 12t-12 29zM271 72q0 -18 8.5 -29t44 -19.5t101.5 -8.5h36v-15h-410v15h41q66 0 101.5 8.5t44 19.5t8.5 29v926q0 29 -24.5 40.5
t-83.5 11.5h-25v15h25l133 3v-996z" />
    <glyph glyph-name="eth" unicode="&#xf0;" horiz-adv-x="1146" 
d="M592 1235l-17 14l109 123q-102 54 -216 54q-40 0 -60 -3q-66 -9 -116 -24l-6 19q60 18 118 25q29 4 64 4q123 0 230 -57l112 126l16 -15l-108 -123q132 -77 222.5 -233t119.5 -378q10 -79 10 -160q0 -181 -53.5 -317.5t-161.5 -215t-258 -78.5q-139 0 -259 68.5t-193 194
t-73 280.5q0 105 35 200.5t97 168t153 115.5t197 43q158 0 293 -95.5t192 -253.5q-1 17 -5 46q-28 220 -116 372.5t-215 226.5zM554 1046q-133 0 -239 -71t-162 -186t-56 -249q0 -112 41 -210.5t110 -166.5t160 -107.5t190 -39.5q213 0 329.5 161.5t116.5 427.5
q0 75 -40 154t-105 142.5t-157 104t-188 40.5z" />
    <glyph glyph-name="ntilde" unicode="&#xf1;" horiz-adv-x="1320" 
d="M954 1483q9 -2 9 -13q-9 -53 -41.5 -80.5t-74.5 -27.5q-44 0 -86 17.5t-71 38t-68 38t-76 17.5q-36 0 -61.5 -23t-33.5 -67q-2 -9 -13 -9q-3 0 -6 3t-2 9q9 51 40.5 80t75.5 29q42 0 84 -17.5t71 -38t68.5 -38t77.5 -17.5q35 0 61 22t34 69q0 3 3 6t9 2zM113 1065h25
l133 3v-360q0 -32 8 -32q6 0 16 25q62 159 187.5 264t265.5 105q164 0 250.5 -73.5t86.5 -213.5v-711q0 -18 8.5 -29t44 -19.5t101.5 -8.5h41v-15h-430v15h56q66 0 101.5 8.5t44 19.5t8.5 29v708q0 131 -79 199t-233 68q-119 0 -229.5 -81t-179 -214.5t-68.5 -278.5v-401
q0 -18 8.5 -29t44 -19.5t101.5 -8.5h56v-15h-430v15h41q66 0 101.5 8.5t44 19.5t8.5 29v926q0 29 -24.5 40.5t-83.5 11.5h-25v15z" />
    <glyph glyph-name="ograve" unicode="&#xf2;" horiz-adv-x="1136" 
d="M669 1270l-15 -15l-300 275q-8 8 2 17q9 9 18 0zM568 1070q218 0 360 -152.5t142 -385.5t-142 -385t-360 -152t-359.5 152t-141.5 385q0 234 141.5 386t359.5 152zM568 1050q-207 0 -341.5 -146.5t-134.5 -371.5t134.5 -371t341.5 -146t341.5 146t134.5 371t-134.5 371.5
t-341.5 146.5z" />
    <glyph glyph-name="oacute" unicode="&#xf3;" horiz-adv-x="1136" 
d="M458 1270l295 277q9 9 17 0q10 -9 2 -17l-300 -275zM568 1070q218 0 360 -152.5t142 -385.5t-142 -385t-360 -152t-359.5 152t-141.5 385q0 234 141.5 386t359.5 152zM568 1050q-207 0 -341.5 -146.5t-134.5 -371.5t134.5 -371t341.5 -146t341.5 146t134.5 371
t-134.5 371.5t-341.5 146.5z" />
    <glyph glyph-name="ocircumflex" unicode="&#xf4;" horiz-adv-x="1136" 
d="M246 1239l-15 15l321 282h22l321 -282l-14 -15l-315 277h-6zM568 1070q218 0 360 -152.5t142 -385.5t-142 -385t-360 -152t-359.5 152t-141.5 385q0 234 141.5 386t359.5 152zM568 1050q-207 0 -341.5 -146.5t-134.5 -371.5t134.5 -371t341.5 -146t341.5 146t134.5 371
t-134.5 371.5t-341.5 146.5z" />
    <glyph glyph-name="otilde" unicode="&#xf5;" horiz-adv-x="1136" 
d="M821 1483q8 -2 8 -13q-9 -53 -41 -80.5t-74 -27.5q-44 0 -86 17.5t-71 38t-68 38t-76 17.5q-36 0 -62 -23t-34 -67q-2 -9 -12 -9q-3 0 -6 3t-2 9q9 51 40.5 80t75.5 29q42 0 84 -17.5t71 -38t68.5 -38t77.5 -17.5q35 0 61 22t34 69q0 3 3 6t9 2zM568 1070
q218 0 360 -152.5t142 -385.5t-142 -385t-360 -152t-359.5 152t-141.5 385q0 234 141.5 386t359.5 152zM568 1050q-207 0 -341.5 -146.5t-134.5 -371.5t134.5 -371t341.5 -146t341.5 146t134.5 371t-134.5 371.5t-341.5 146.5z" />
    <glyph glyph-name="odieresis" unicode="&#xf6;" horiz-adv-x="1136" 
d="M276 1372q0 17 12 29t29 12t29 -12t12 -29t-12 -29t-29 -12t-29 12t-12 29zM768 1372q0 17 12 29t29 12t29 -12t12 -29t-12 -29t-29 -12t-29 12t-12 29zM568 1070q218 0 360 -152.5t142 -385.5t-142 -385t-360 -152t-359.5 152t-141.5 385q0 234 141.5 386t359.5 152z
M568 1050q-207 0 -341.5 -146.5t-134.5 -371.5t134.5 -371t341.5 -146t341.5 146t134.5 371t-134.5 371.5t-341.5 146.5z" />
    <glyph glyph-name="divide" unicode="&#xf7;" horiz-adv-x="901" 
d="M819 758h-737v20h737v-20zM410 1080q0 17 12 29t29 12t29 -12t12 -29t-12 -29t-29 -12t-29 12t-12 29zM410 466q0 17 12 29t29 12t29 -12t12 -29t-12 -29t-29 -12t-29 12t-12 29z" />
    <glyph glyph-name="oslash" unicode="&#xf8;" horiz-adv-x="1136" 
d="M568 1070q190 0 325 -118l113 140l16 -13l-114 -141q77 -73 119.5 -178t42.5 -228q0 -233 -142 -385t-360 -152q-189 0 -324 118l-113 -140l-16 13l113 141q-77 73 -119 177t-42 228q0 234 141.5 386t359.5 152zM568 1050q-207 0 -341.5 -146.5t-134.5 -371.5
q0 -118 39.5 -218t111.5 -170l636 790q-130 116 -311 116zM568 15q207 0 341.5 146t134.5 371q0 119 -39.5 219t-110.5 170l-636 -790q130 -116 310 -116z" />
    <glyph glyph-name="ugrave" unicode="&#xf9;" horiz-adv-x="1249" 
d="M710 1270l-15 -15l-300 275q-7 8 2 17t18 0zM51 1050v15h26l133 3v-783q0 -131 79 -199t233 -68q119 0 229.5 81t178.5 214.5t68 278.5v406q0 29 -24 40.5t-83 11.5h-26v15h26l133 3v-813l9 -102q5 -57 24.5 -97t42.5 -41l98 17l4 -21l-99 -16h-2q-37 0 -62 47t-31 109
l-10 103v103q0 32 -7 32q-6 0 -16 -25q-62 -159 -187.5 -264t-265.5 -105q-164 0 -251 74t-87 213v716q0 29 -24 40.5t-83 11.5h-26z" />
    <glyph glyph-name="uacute" unicode="&#xfa;" horiz-adv-x="1249" 
d="M499 1270l295 277q8 9 17 0t2 -17l-300 -275zM51 1050v15h26l133 3v-783q0 -131 79 -199t233 -68q119 0 229.5 81t178.5 214.5t68 278.5v406q0 29 -24 40.5t-83 11.5h-26v15h26l133 3v-813l9 -102q5 -57 24.5 -97t42.5 -41l98 17l4 -21l-99 -16h-2q-37 0 -62 47t-31 109
l-10 103v103q0 32 -7 32q-6 0 -16 -25q-62 -159 -187.5 -264t-265.5 -105q-164 0 -251 74t-87 213v716q0 29 -24 40.5t-83 11.5h-26z" />
    <glyph glyph-name="ucircumflex" unicode="&#xfb;" horiz-adv-x="1249" 
d="M287 1239l-15 15l321 282h22l321 -282l-14 -15l-315 277h-6zM51 1050v15h26l133 3v-783q0 -131 79 -199t233 -68q119 0 229.5 81t178.5 214.5t68 278.5v406q0 29 -24 40.5t-83 11.5h-26v15h26l133 3v-813l9 -102q5 -57 24.5 -97t42.5 -41l98 17l4 -21l-99 -16h-2
q-37 0 -62 47t-31 109l-10 103v103q0 32 -7 32q-6 0 -16 -25q-62 -159 -187.5 -264t-265.5 -105q-164 0 -251 74t-87 213v716q0 29 -24 40.5t-83 11.5h-26z" />
    <glyph glyph-name="udieresis" unicode="&#xfc;" horiz-adv-x="1249" 
d="M317 1372q0 17 12 29t29 12t29 -12t12 -29t-12 -29t-29 -12t-29 12t-12 29zM809 1372q0 17 12 29t29 12t29 -12t12 -29t-12 -29t-29 -12t-29 12t-12 29zM51 1050v15h26l133 3v-783q0 -131 79 -199t233 -68q119 0 229.5 81t178.5 214.5t68 278.5v406q0 29 -24 40.5
t-83 11.5h-26v15h26l133 3v-813l9 -102q5 -57 24.5 -97t42.5 -41l98 17l4 -21l-99 -16h-2q-37 0 -62 47t-31 109l-10 103v103q0 32 -7 32q-6 0 -16 -25q-62 -159 -187.5 -264t-265.5 -105q-164 0 -251 74t-87 213v716q0 29 -24 40.5t-83 11.5h-26z" />
    <glyph glyph-name="yacute" unicode="&#xfd;" horiz-adv-x="1187" 
d="M760 1065h407v-15h-11q-54 0 -84 -17.5t-47 -58.5l-429 -1020q-93 -220 -194.5 -332t-242.5 -112q-127 0 -204.5 54.5t-77.5 144.5q0 25 11 52q6 16 22 16q7 0 11 -2q17 -7 17 -23q0 -1 -3 -10q-11 -27 -11 -50q0 -73 65 -117.5t171 -44.5q132 0 229.5 109t187.5 322
l6 13q1 2 1 8q0 17 -16 57l-360 872q-33 79 -55 100t-72 21q-24 0 -48 -8q-4 -2 -7 -2q-20 0 -20 19q0 29 70 29q64 0 91 -29t65 -123l352 -847q12 -30 19 -30t20 31l384 908q9 23 9 33q0 23 -32.5 30t-121.5 7h-102v15zM509 1270l295 277q8 9 17 0t2 -17l-300 -275z" />
    <glyph glyph-name="thorn" unicode="&#xfe;" horiz-adv-x="1172" 
d="M271 893v-577q42 -137 143.5 -219t237.5 -82q186 0 307 146t121 371t-117.5 371.5t-299.5 146.5q-184 0 -392 -157zM271 -420q0 -18 8.5 -28.5t44 -19t101.5 -8.5h77v-16h-451v16h41q66 0 101.5 8.5t44 19t8.5 28.5v1910q0 28 -24 39.5t-84 11.5h-25v15h25l133 4v-641
q205 151 392 151q193 0 318 -152.5t125 -385.5t-128.5 -385t-325.5 -152q-108 0 -196.5 51t-146.5 141q-18 29 -27 29q-11 0 -11 -38v-598z" />
    <glyph glyph-name="ydieresis" unicode="&#xff;" horiz-adv-x="1187" 
d="M760 1065h407v-15h-11q-54 0 -84 -17.5t-47 -58.5l-429 -1020q-93 -220 -194.5 -332t-242.5 -112q-127 0 -204.5 54.5t-77.5 144.5q0 25 11 52q6 16 22 16q7 0 11 -2q17 -7 17 -23q0 -1 -3 -10q-11 -27 -11 -50q0 -73 65 -117.5t171 -44.5q132 0 229.5 109t187.5 322
l6 13q1 2 1 8q0 17 -16 57l-360 872q-33 79 -55 100t-72 21q-24 0 -48 -8q-4 -2 -7 -2q-20 0 -20 19q0 29 70 29q64 0 91 -29t65 -123l352 -847q12 -30 19 -30t20 31l384 908q9 23 9 33q0 23 -32.5 30t-121.5 7h-102v15zM328 1372q0 17 12 29t29 12t29 -12t12 -29t-12 -29
t-29 -12t-29 12t-12 29zM819 1372q0 17 12 29t29 12t29 -12t12 -29t-12 -29t-29 -12t-29 12t-12 29z" />
    <glyph glyph-name="Amacron" unicode="&#x100;" 
d="M1033 1843h-655v21h655v-21zM335 512h729l-330 922q-17 48 -21 68h-24zM20 0v15h6q64 0 93 17t44 59l522 1458q3 7 9 7h28q10 0 10 -10q0 -33 26 -106l480 -1340q18 -49 46 -67t88 -18h41v-15h-399v15h102q63 0 86 7t23 28q0 13 -12 46l-142 396h-743l-147 -407
q-5 -17 -5 -26q0 -27 34 -35.5t117 -8.5h42v-15h-349z" />
    <glyph glyph-name="amacron" unicode="&#x101;" horiz-adv-x="1136" 
d="M860 1434h-655v20h655v-20zM896 662q-14 -23 -38.5 -42t-58 -32t-64.5 -21.5t-74.5 -14.5t-70 -9t-69 -6.5t-54.5 -4.5q-83 -9 -147 -26t-117.5 -47.5t-82 -79t-28.5 -113.5q0 -109 105.5 -180t268.5 -71q117 0 217.5 65t156.5 166.5t56 209.5v206zM585 1070
q147 0 242 -93.5t95 -238.5v-497l16 -98q20 -122 62 -123l110 11l2 -21l-112 -15h-1q-64 0 -87 144q-2 11 -6 37t-7 43t-3 21v22q0 28 -7 28t-16 -22q-56 -119 -165 -196t-242 -77q-174 0 -286.5 76.5t-112.5 194.5q0 245 398 287q12 1 52 5t63.5 6t64.5 8t67.5 12.5
t60 17.5t54.5 24t39 32t25 41q5 18 5 33v6q-1 135 -87 223.5t-221 88.5q-154 0 -262.5 -59.5t-108.5 -144.5q0 -22 -21 -22q-22 0 -22 22q0 93 120.5 158.5t290.5 65.5z" />
    <glyph glyph-name="Abreve" unicode="&#x102;" 
d="M706 1772q164 0 255 113l17 -12q-97 -122 -272 -122t-273 122l18 12q93 -113 255 -113zM335 512h729l-330 922q-17 48 -21 68h-24zM20 0v15h6q64 0 93 17t44 59l522 1458q3 7 9 7h28q10 0 10 -10q0 -33 26 -106l480 -1340q18 -49 46 -67t88 -18h41v-15h-399v15h102
q63 0 86 7t23 28q0 13 -12 46l-142 396h-743l-147 -407q-5 -17 -5 -26q0 -27 34 -35.5t117 -8.5h42v-15h-349z" />
    <glyph glyph-name="abreve" unicode="&#x103;" horiz-adv-x="1136" 
d="M532 1362q164 0 255 114l18 -13q-97 -122 -273 -122q-174 0 -272 122l18 13q94 -114 254 -114zM896 662q-14 -23 -38.5 -42t-58 -32t-64.5 -21.5t-74.5 -14.5t-70 -9t-69 -6.5t-54.5 -4.5q-83 -9 -147 -26t-117.5 -47.5t-82 -79t-28.5 -113.5q0 -109 105.5 -180
t268.5 -71q117 0 217.5 65t156.5 166.5t56 209.5v206zM585 1070q147 0 242 -93.5t95 -238.5v-497l16 -98q20 -122 62 -123l110 11l2 -21l-112 -15h-1q-64 0 -87 144q-2 11 -6 37t-7 43t-3 21v22q0 28 -7 28t-16 -22q-56 -119 -165 -196t-242 -77q-174 0 -286.5 76.5
t-112.5 194.5q0 245 398 287q12 1 52 5t63.5 6t64.5 8t67.5 12.5t60 17.5t54.5 24t39 32t25 41q5 18 5 33v6q-1 135 -87 223.5t-221 88.5q-154 0 -262.5 -59.5t-108.5 -144.5q0 -22 -21 -22q-22 0 -22 22q0 93 120.5 158.5t290.5 65.5z" />
    <glyph glyph-name="Aogonek" unicode="&#x104;" 
d="M20 0v15h6q64 0 93 17t44 59l522 1458q3 7 9 7h28q10 0 10 -10q0 -33 26 -106l480 -1340q18 -49 46 -67t88 -18h41v-15h-139q-53 0 -93 -25q-131 -87 -131 -223q1 -59 37.5 -100.5t104.5 -41.5q96 0 172 88q5 6 15 1q6 -6 0 -14q-84 -96 -187 -96q-78 0 -122.5 48
t-45.5 115q0 152 160 248q40 23 40 51q0 15 -11 45l-142 396h-743l-147 -407q-5 -17 -5 -26q0 -27 34 -35.5t117 -8.5h42v-15h-349zM335 512h729l-330 922q-17 48 -21 68h-24z" />
    <glyph glyph-name="aogonek" unicode="&#x105;" horiz-adv-x="1157" 
d="M466 15q89 0 170 38.5t137 100.5t89.5 141.5t33.5 160.5v206q-14 -23 -38.5 -42t-58 -32t-64 -21.5t-74.5 -14.5t-70 -9t-69 -6.5t-55 -4.5q-83 -9 -147 -26t-117.5 -47.5t-82 -79t-28.5 -113.5q0 -109 105.5 -180t268.5 -71zM585 1070q146 0 241 -94.5t96 -237.5v-282
v-215l16 -98q11 -65 24.5 -93.5t35.5 -29.5l112 11l2 -21l-11 -2q-37 -6 -72 -15t-80.5 -29t-78.5 -46t-56 -69.5t-23 -95.5q1 -59 37.5 -100.5t104.5 -41.5q95 0 172 88q5 6 15 1q6 -6 0 -14q-84 -96 -187 -96q-78 0 -122.5 48t-45.5 115q0 168 215 245q-47 18 -68 141
l-16 99v2v86q-44 -139 -162 -235t-268 -96q-174 0 -286.5 76.5t-112.5 194.5q0 245 398 287q12 1 52.5 5t63.5 6t64 8t67.5 12.5t60 17.5t54.5 24t39 32t25 41q5 14 5 33v6q-1 135 -87 223.5t-221 88.5q-154 0 -262.5 -59.5t-108.5 -144.5q0 -22 -21 -22q-22 0 -22 22
q0 93 120.5 158.5t290.5 65.5zM896 662z" />
    <glyph glyph-name="Cacute" unicode="&#x106;" horiz-adv-x="1168" 
d="M586 1679l295 278q9 9 17 0q10 -10 2 -18l-300 -274zM1066 1577h15l15 -389q0 -8 -7 -8q-9 0 -9 8q-3 74 -34 136t-75 101t-97.5 66t-99.5 38.5t-83 11.5q-179 0 -316.5 -94.5t-212.5 -267.5t-75 -399q0 -224 71.5 -397t209.5 -270.5t323 -97.5q237 0 407 168l14 -14
q-178 -174 -421 -174q-192 0 -334.5 101.5t-216 278.5t-73.5 405q0 232 77.5 410t219 275t327.5 97q74 0 172 -42t162 -124q16 -19 27 -19q19 0 19 36v34z" />
    <glyph glyph-name="cacute" unicode="&#x107;" horiz-adv-x="1034" 
d="M442 1270l295 277q9 9 18 0t2 -17l-300 -275zM67 530q0 154 64.5 277.5t179 193t257.5 69.5q103 0 195.5 -33.5t143 -80.5t50.5 -91q0 -21 -21 -21q-22 0 -22 21q0 48 -50.5 91t-131.5 68.5t-167 25.5q-206 0 -339.5 -146.5t-133.5 -373.5q0 -226 139 -370.5t358 -144.5
q101 0 200 34t176 99l13 -15q-80 -68 -182.5 -103t-206.5 -35q-228 0 -375 150.5t-147 384.5z" />
    <glyph glyph-name="Ccircumflex" unicode="&#x108;" horiz-adv-x="1168" 
d="M374 1649l-15 15l321 282h22l321 -282l-14 -15l-315 276h-6zM1066 1577h15l15 -389q0 -8 -7 -8q-9 0 -9 8q-3 74 -34 136t-75 101t-97.5 66t-99.5 38.5t-83 11.5q-179 0 -316.5 -94.5t-212.5 -267.5t-75 -399q0 -224 71.5 -397t209.5 -270.5t323 -97.5q237 0 407 168
l14 -14q-178 -174 -421 -174q-192 0 -334.5 101.5t-216 278.5t-73.5 405q0 232 77.5 410t219 275t327.5 97q74 0 172 -42t162 -124q16 -19 27 -19q19 0 19 36v34z" />
    <glyph glyph-name="ccircumflex" unicode="&#x109;" horiz-adv-x="1034" 
d="M230 1239l-14 15l321 282h22l321 -282l-15 -15l-314 277h-6zM67 530q0 154 64.5 277.5t179 193t257.5 69.5q103 0 195.5 -33.5t143 -80.5t50.5 -91q0 -21 -21 -21q-22 0 -22 21q0 48 -50.5 91t-131.5 68.5t-167 25.5q-206 0 -339.5 -146.5t-133.5 -373.5
q0 -226 139 -370.5t358 -144.5q101 0 200 34t176 99l13 -15q-80 -68 -182.5 -103t-206.5 -35q-228 0 -375 150.5t-147 384.5z" />
    <glyph glyph-name="Cdotaccent" unicode="&#x10a;" horiz-adv-x="1168" 
d="M650 1823q0 17 12 29t29 12t29 -12t12 -29t-12 -29t-29 -12t-29 12t-12 29zM1066 1577h15l15 -389q0 -8 -7 -8q-9 0 -9 8q-3 74 -34 136t-75 101t-97.5 66t-99.5 38.5t-83 11.5q-179 0 -316.5 -94.5t-212.5 -267.5t-75 -399q0 -224 71.5 -397t209.5 -270.5t323 -97.5
q237 0 407 168l14 -14q-178 -174 -421 -174q-192 0 -334.5 101.5t-216 278.5t-73.5 405q0 232 77.5 410t219 275t327.5 97q74 0 172 -42t162 -124q16 -19 27 -19q19 0 19 36v34z" />
    <glyph glyph-name="cdotaccent" unicode="&#x10b;" horiz-adv-x="1034" 
d="M507 1413q0 17 12 29t29 12t29 -12t12 -29t-12 -29t-29 -12t-29 12t-12 29zM67 530q0 154 64.5 277.5t179 193t257.5 69.5q103 0 195.5 -33.5t143 -80.5t50.5 -91q0 -21 -21 -21q-22 0 -22 21q0 48 -50.5 91t-131.5 68.5t-167 25.5q-206 0 -339.5 -146.5t-133.5 -373.5
q0 -226 139 -370.5t358 -144.5q101 0 200 34t176 99l13 -15q-80 -68 -182.5 -103t-206.5 -35q-228 0 -375 150.5t-147 384.5z" />
    <glyph glyph-name="Ccaron" unicode="&#x10c;" horiz-adv-x="1168" 
d="M374 1956l314 -277h6l315 277l14 -16l-321 -281h-22l-321 281zM1066 1577h15l15 -389q0 -8 -7 -8q-9 0 -9 8q-3 74 -34 136t-75 101t-97.5 66t-99.5 38.5t-83 11.5q-179 0 -316.5 -94.5t-212.5 -267.5t-75 -399q0 -224 71.5 -397t209.5 -270.5t323 -97.5q237 0 407 168
l14 -14q-178 -174 -421 -174q-192 0 -334.5 101.5t-216 278.5t-73.5 405q0 232 77.5 410t219 275t327.5 97q74 0 172 -42t162 -124q16 -19 27 -19q19 0 19 36v34z" />
    <glyph glyph-name="ccaron" unicode="&#x10d;" horiz-adv-x="1034" 
d="M230 1546l315 -276h6l314 276l15 -15l-321 -282h-22l-321 282zM67 530q0 154 64.5 277.5t179 193t257.5 69.5q103 0 195.5 -33.5t143 -80.5t50.5 -91q0 -21 -21 -21q-22 0 -22 21q0 48 -50.5 91t-131.5 68.5t-167 25.5q-206 0 -339.5 -146.5t-133.5 -373.5
q0 -226 139 -370.5t358 -144.5q101 0 200 34t176 99l13 -15q-80 -68 -182.5 -103t-206.5 -35q-228 0 -375 150.5t-147 384.5z" />
    <glyph glyph-name="Dcaron" unicode="&#x10e;" horiz-adv-x="1454" 
d="M51 1556h589q160 0 299 -58.5t237.5 -160.5t155 -247t56.5 -312t-56.5 -312t-155 -247t-237.5 -160.5t-299 -58.5h-589v15h41q66 0 101.5 9t44 20t8.5 29v1417q0 27 -30 39t-124 12h-41v15zM272 1536l-1 -1516h364q208 0 374.5 97.5t259.5 270.5t93 390t-93 390
t-259.5 270.5t-374.5 97.5h-363zM353 1956l315 -277h6l314 277l14 -16l-320 -281h-23l-320 281z" />
    <glyph glyph-name="dcaron" unicode="&#x10f;" horiz-adv-x="1172" 
d="M1114 1519q0 17 12 29t29 12t29 -12t12 -29q0 -67 -21.5 -115.5t-73.5 -104.5l-16 14q85 93 85 168h-1q-6 -3 -14 -3q-17 0 -29 12t-12 29zM901 318v575q-206 157 -391 157q-182 0 -300 -146.5t-118 -371.5t121 -371t307 -146q136 0 237.5 83t143.5 220zM927 1560v-1305
l9 -102q5 -58 24 -98.5t42 -41.5l100 19l4 -21l-100 -16h-2q-37 0 -62.5 47t-31.5 109l-4 46q-3 27 -11 27q-9 0 -21 -21q-57 -97 -148.5 -152.5t-205.5 -55.5q-197 0 -325 152t-128 385t125 385.5t318 152.5q187 0 391 -151v571q0 28 -24 39.5t-83 11.5h-46v15h46z" />
    <glyph glyph-name="Dcroat" unicode="&#x110;" horiz-adv-x="1495" 
d="M313 1536v-748h344l-4 -20h-341v-748h364q208 0 374.5 97.5t259.5 270.5t93 390t-93 390t-259.5 270.5t-374.5 97.5h-363zM92 1556h589q214 0 384.5 -99.5t266.5 -277.5t96 -401t-96 -401t-266.5 -277.5t-384.5 -99.5h-589v15h41q66 0 101.5 9t44 20t8.5 29v695h-207
l4 20h203v702q0 27 -30 39t-124 12h-41v15z" />
    <glyph glyph-name="dcroat" unicode="&#x111;" horiz-adv-x="1152" 
d="M1067 1290l-4 -20h-136v-1015l9 -102q5 -58 24 -98.5t42 -41.5l100 19l4 -21l-100 -16h-2q-37 0 -62.5 47t-31.5 109l-4 46q-3 27 -11 27q-9 0 -21 -21q-57 -97 -148.5 -152.5t-205.5 -55.5q-197 0 -325 152t-128 385t125 385.5t318 152.5q187 0 391 -151v351h-412l5 20
h407v200q0 28 -24 39.5t-83 11.5h-46v15h46l133 4v-270h140zM901 318v575q-206 157 -391 157q-182 0 -300 -146.5t-118 -371.5t121 -371t307 -146q136 0 237.5 83t143.5 220z" />
    <glyph glyph-name="Emacron" unicode="&#x112;" horiz-adv-x="1320" 
d="M51 1556h1096q10 0 10 -9l26 -389l-21 -2l-16 260q-4 67 -33 93.5t-97 26.5h-744l-1 -758h405q41 0 41 277v61h20v-696h-20v61q0 277 -41 277h-405v-738h827q69 0 97 27t33 93l16 260l21 -2l-26 -389q0 -9 -10 -9h-1178v15h41q66 0 101.5 9t44 20t8.5 29v1417
q0 27 -30 39t-124 12h-41v15zM1004 1843h-656v21h656v-21z" />
    <glyph glyph-name="emacron" unicode="&#x113;" horiz-adv-x="1116" 
d="M916 1434h-655v20h655v-20zM972 563q46 0 46 70q0 17 -3 31q-31 175 -149.5 280.5t-297.5 105.5q-197 0 -331.5 -134t-143.5 -353h879zM92 543v-11q0 -225 130.5 -371t335.5 -146q165 0 276.5 64t173.5 173l18 -10q-64 -114 -181 -180.5t-287 -66.5q-215 0 -353 152.5
t-138 384.5v22q7 226 148 371t353 145q217 0 349.5 -145.5t132.5 -371.5q0 -10 -11 -10h-947z" />
    <glyph glyph-name="Ebreve" unicode="&#x114;" horiz-adv-x="1320" 
d="M676 1772q164 0 255 113l17 -12q-97 -122 -272 -122t-273 122l18 12q93 -113 255 -113zM51 1556h1096q10 0 10 -9l26 -389l-21 -2l-16 260q-4 67 -33 93.5t-97 26.5h-744l-1 -758h405q41 0 41 277v61h20v-696h-20v61q0 277 -41 277h-405v-738h827q69 0 97 27t33 93
l16 260l21 -2l-26 -389q0 -9 -10 -9h-1178v15h41q66 0 101.5 9t44 20t8.5 29v1417q0 27 -30 39t-124 12h-41v15z" />
    <glyph glyph-name="ebreve" unicode="&#x115;" horiz-adv-x="1116" 
d="M589 1362q163 0 255 114l17 -13q-97 -122 -272 -122t-273 122l18 13q94 -114 255 -114zM972 563q46 0 46 70q0 17 -3 31q-31 175 -149.5 280.5t-297.5 105.5q-197 0 -331.5 -134t-143.5 -353h879zM92 543v-11q0 -225 130.5 -371t335.5 -146q165 0 276.5 64t173.5 173
l18 -10q-64 -114 -181 -180.5t-287 -66.5q-215 0 -353 152.5t-138 384.5v22q7 226 148 371t353 145q217 0 349.5 -145.5t132.5 -371.5q0 -10 -11 -10h-947z" />
    <glyph glyph-name="Edotaccent" unicode="&#x116;" horiz-adv-x="1320" 
d="M635 1823q0 17 12 29t29 12t29 -12t12 -29t-12 -29t-29 -12t-29 12t-12 29zM51 1556h1096q10 0 10 -9l26 -389l-21 -2l-16 260q-4 67 -33 93.5t-97 26.5h-744l-1 -758h405q41 0 41 277v61h20v-696h-20v61q0 277 -41 277h-405v-738h827q69 0 97 27t33 93l16 260l21 -2
l-26 -389q0 -9 -10 -9h-1178v15h41q66 0 101.5 9t44 20t8.5 29v1417q0 27 -30 39t-124 12h-41v15z" />
    <glyph glyph-name="edotaccent" unicode="&#x117;" horiz-adv-x="1116" 
d="M548 1413q0 17 12 29t29 12t29 -12t12 -29t-12 -29t-29 -12t-29 12t-12 29zM972 563q46 0 46 70q0 17 -3 31q-31 175 -149.5 280.5t-297.5 105.5q-197 0 -331.5 -134t-143.5 -353h879zM92 543v-11q0 -225 130.5 -371t335.5 -146q165 0 276.5 64t173.5 173l18 -10
q-64 -114 -181 -180.5t-287 -66.5q-215 0 -353 152.5t-138 384.5v22q7 226 148 371t353 145q217 0 349.5 -145.5t132.5 -371.5q0 -10 -11 -10h-947z" />
    <glyph glyph-name="Eogonek" unicode="&#x118;" horiz-adv-x="1320" 
d="M1244 400l21 -2l-26 -389q0 -9 -10 -9q-75 0 -112 -19q-76 -41 -122 -95t-46 -134q1 -59 38 -100.5t105 -41.5q96 0 172 88q5 6 15 1q6 -6 0 -14q-84 -96 -187 -96q-78 0 -122.5 48t-45.5 115q0 150 182 248h-1055v15h41q66 0 101.5 9t44 20t8.5 29v1417q0 27 -30 39
t-124 12h-41v15h1096q10 0 10 -9l26 -389l-21 -2l-16 260q-4 67 -33 93.5t-97 26.5h-744l-1 -758h405q41 0 41 277v61h20v-696h-20v61q0 277 -41 277h-405v-738h827q69 0 97 27t33 93z" />
    <glyph glyph-name="eogonek" unicode="&#x119;" horiz-adv-x="1116" 
d="M92 543v-11q0 -225 130.5 -371t335.5 -146q165 0 276.5 64t173.5 173l18 -10q-57 -99 -145 -159q-17 -14 -58.5 -42t-74.5 -53t-67.5 -59.5t-54.5 -80t-20 -97.5q1 -59 38 -100t105 -41q96 0 172 88q7 9 15 1q6 -6 0 -14q-84 -96 -187 -96q-78 0 -122.5 47.5t-45.5 114.5
q0 47 15.5 89t43.5 76t56 58.5t65 50.5q-93 -30 -203 -30q-215 0 -353 152.5t-138 384.5v22q7 226 148 371t353 145q217 0 349.5 -145.5t132.5 -371.5q0 -10 -11 -10h-947zM93 563h879q46 0 46 70q0 17 -3 31q-31 175 -149.5 280.5t-297.5 105.5q-197 0 -331 -134t-144 -353
z" />
    <glyph glyph-name="Ecaron" unicode="&#x11a;" horiz-adv-x="1320" 
d="M358 1956l315 -277h6l314 277l15 -16l-321 -281h-22l-321 281zM51 1556h1096q10 0 10 -9l26 -389l-21 -2l-16 260q-4 67 -33 93.5t-97 26.5h-744l-1 -758h405q41 0 41 277v61h20v-696h-20v61q0 277 -41 277h-405v-738h827q69 0 97 27t33 93l16 260l21 -2l-26 -389
q0 -9 -10 -9h-1178v15h41q66 0 101.5 9t44 20t8.5 29v1417q0 27 -30 39t-124 12h-41v15z" />
    <glyph glyph-name="ecaron" unicode="&#x11b;" horiz-adv-x="1116" 
d="M271 1546l315 -276h6l314 276l15 -15l-321 -282h-22l-321 282zM972 563q46 0 46 70q0 17 -3 31q-31 175 -149.5 280.5t-297.5 105.5q-197 0 -331.5 -134t-143.5 -353h879zM92 543v-11q0 -225 130.5 -371t335.5 -146q165 0 276.5 64t173.5 173l18 -10
q-64 -114 -181 -180.5t-287 -66.5q-215 0 -353 152.5t-138 384.5v22q7 226 148 371t353 145q217 0 349.5 -145.5t132.5 -371.5q0 -10 -11 -10h-947z" />
    <glyph glyph-name="Gcircumflex" unicode="&#x11c;" horiz-adv-x="1346" 
d="M374 1649l-15 15l321 282h22l321 -282l-14 -15l-315 276h-6zM1066 1577h15l15 -389q0 -8 -7 -8q-9 0 -9 8q-3 74 -34 136t-75 101t-97.5 66t-99.5 38.5t-83 11.5q-269 0 -434 -209t-165 -552q0 -219 71.5 -393.5t199 -273t287.5 -98.5q176 0 386 169q70 58 96 89v402
q0 27 -30 39.5t-124 12.5h-205v21h543v-21h-22q-87 0 -114.5 -13t-27.5 -39v-680q0 -10 -10 -10t-10 10v151q0 57 -20 57q-17 0 -62 -34q-218 -174 -400 -174q-167 0 -300.5 100.5t-208 280t-74.5 404.5q0 232 77.5 410t219 275t327.5 97q74 0 172 -42t162 -124
q16 -19 27 -19q19 0 19 36v34z" />
    <glyph glyph-name="gcircumflex" unicode="&#x11d;" horiz-adv-x="1146" 
d="M225 1239l-14 15l320 282h23l320 -282l-14 -15l-314 277h-6zM251 148q-210 -204 -210 -364q0 -107 143.5 -178.5t371.5 -71.5q266 0 403 64t137 188q0 70 -21.5 121t-55 80.5t-86 48t-101.5 25.5t-116 10q-28 1 -94.5 3t-99.5 4.5t-81 9t-79.5 20t-54.5 35.5
q-23 21 -31 21q-7 0 -25 -16zM543 1050q-172 0 -278 -92t-106 -262q0 -163 102 -258t282 -95q163 0 263 92t100 261q0 162 -96.5 258t-266.5 96zM543 1070q166 0 270 -90q13 -11 21 -11t14 14q30 86 109 87q101 0 101 -29q0 -10 -6 -16.5t-15 -6.5q-13 0 -38 16t-44 16
q-38 0 -64.5 -30.5t-33.5 -85.5q75 -95 75 -238q0 -178 -109 -275.5t-280 -97.5q-114 0 -196 35q-62 -60 -62 -109q0 -38 13 -63q10 -19 27 -33t44.5 -23t51.5 -15t66 -9t69.5 -4.5t80 -3.5t80.5 -3q67 -3 116.5 -10t106 -27t92.5 -52t60 -88t24 -132q0 -137 -145.5 -207.5
t-414.5 -70.5q-233 0 -384.5 77t-151.5 199q0 171 219 381q25 25 25 76v8q0 55 64 119q-93 45 -144 129.5t-51 198.5q0 179 115.5 276.5t294.5 97.5z" />
    <glyph glyph-name="Gbreve" unicode="&#x11e;" horiz-adv-x="1346" 
d="M691 1772q164 0 255 113l18 -12q-97 -122 -273 -122q-174 0 -272 122l17 12q93 -113 255 -113zM1071 1447l-5 130h15l15 -389q0 -8 -7 -8q-9 0 -9 8q-3 74 -34 136t-75 101t-97.5 66t-99.5 38.5t-83 11.5q-269 0 -434 -209t-165 -552q0 -219 71.5 -393.5t199 -273
t287.5 -98.5q176 0 386 169q70 58 96 89v402q0 27 -30 39.5t-124 12.5h-205v21h543v-21h-22q-87 0 -114.5 -13t-27.5 -39v-680q0 -10 -10 -10t-10 10v151q0 57 -20 57q-17 0 -62 -34q-218 -174 -400 -174q-167 0 -300.5 100.5t-208 280t-74.5 404.5q0 232 77.5 410t219 275
t327.5 97q74 0 172 -42t162 -124q16 -19 27 -19q19 0 19 36v34z" />
    <glyph glyph-name="gbreve" unicode="&#x11f;" horiz-adv-x="1146" 
d="M543 1362q163 0 255 114l17 -13q-97 -122 -272 -122t-273 122l18 13q94 -114 255 -114zM251 148q-210 -204 -210 -364q0 -107 143.5 -178.5t371.5 -71.5q266 0 403 64t137 188q0 70 -21.5 121t-55 80.5t-86 48t-101.5 25.5t-116 10q-28 1 -94.5 3t-99.5 4.5t-81 9
t-79.5 20t-54.5 35.5q-23 21 -31 21q-7 0 -25 -16zM543 1050q-172 0 -278 -92t-106 -262q0 -163 102 -258t282 -95q163 0 263 92t100 261q0 162 -96.5 258t-266.5 96zM543 1070q166 0 270 -90q13 -11 21 -11t14 14q30 86 109 87q101 0 101 -29q0 -10 -6 -16.5t-15 -6.5
q-13 0 -38 16t-44 16q-38 0 -64.5 -30.5t-33.5 -85.5q75 -95 75 -238q0 -178 -109 -275.5t-280 -97.5q-114 0 -196 35q-62 -60 -62 -109q0 -38 13 -63q10 -19 27 -33t44.5 -23t51.5 -15t66 -9t69.5 -4.5t80 -3.5t80.5 -3q67 -3 116.5 -10t106 -27t92.5 -52t60 -88t24 -132
q0 -137 -145.5 -207.5t-414.5 -70.5q-233 0 -384.5 77t-151.5 199q0 171 219 381q25 25 25 76v8q0 55 64 119q-93 45 -144 129.5t-51 198.5q0 179 115.5 276.5t294.5 97.5z" />
    <glyph glyph-name="Gdotaccent" unicode="&#x120;" horiz-adv-x="1346" 
d="M650 1823q0 17 12 29t29 12t29 -12t12 -29t-12 -29t-29 -12t-29 12t-12 29zM1071 1447l-5 130h15l15 -389q0 -8 -7 -8q-9 0 -9 8q-3 74 -34 136t-75 101t-97.5 66t-99.5 38.5t-83 11.5q-269 0 -434 -209t-165 -552q0 -219 71.5 -393.5t199 -273t287.5 -98.5
q176 0 386 169q70 58 96 89v402q0 27 -30 39.5t-124 12.5h-205v21h543v-21h-22q-87 0 -114.5 -13t-27.5 -39v-680q0 -10 -10 -10t-10 10v151q0 57 -20 57q-17 0 -62 -34q-218 -174 -400 -174q-167 0 -300.5 100.5t-208 280t-74.5 404.5q0 232 77.5 410t219 275t327.5 97
q74 0 172 -42t162 -124q16 -19 27 -19q19 0 19 36v34z" />
    <glyph glyph-name="gdotaccent" unicode="&#x121;" horiz-adv-x="1146" 
d="M502 1413q0 17 12 29t29 12t29 -12t12 -29t-12 -29t-29 -12t-29 12t-12 29zM251 148q-210 -204 -210 -364q0 -107 143.5 -178.5t371.5 -71.5q266 0 403 64t137 188q0 70 -21.5 121t-55 80.5t-86 48t-101.5 25.5t-116 10q-28 1 -94.5 3t-99.5 4.5t-81 9t-79.5 20
t-54.5 35.5q-23 21 -31 21q-7 0 -25 -16zM543 1050q-172 0 -278 -92t-106 -262q0 -163 102 -258t282 -95q163 0 263 92t100 261q0 162 -96.5 258t-266.5 96zM543 1070q166 0 270 -90q13 -11 21 -11t14 14q30 86 109 87q101 0 101 -29q0 -10 -6 -16.5t-15 -6.5q-13 0 -38 16
t-44 16q-38 0 -64.5 -30.5t-33.5 -85.5q75 -95 75 -238q0 -178 -109 -275.5t-280 -97.5q-114 0 -196 35q-62 -60 -62 -109q0 -38 13 -63q10 -19 27 -33t44.5 -23t51.5 -15t66 -9t69.5 -4.5t80 -3.5t80.5 -3q67 -3 116.5 -10t106 -27t92.5 -52t60 -88t24 -132
q0 -137 -145.5 -207.5t-414.5 -70.5q-233 0 -384.5 77t-151.5 199q0 171 219 381q25 25 25 76v8q0 55 64 119q-93 45 -144 129.5t-51 198.5q0 179 115.5 276.5t294.5 97.5z" />
    <glyph glyph-name="Gcommaaccent" unicode="&#x122;" horiz-adv-x="1346" 
d="M613 -187q0 17 12 29t29 12t29 -12t12 -29q0 -67 -21.5 -115.5t-73.5 -104.5l-15 14q85 93 85 168h-1q-6 -3 -15 -3q-17 0 -29 12t-12 29zM1071 1447l-5 130h15l15 -389q0 -8 -7 -8q-9 0 -9 8q-3 74 -34 136t-75 101t-97.5 66t-99.5 38.5t-83 11.5q-269 0 -434 -209
t-165 -552q0 -219 71.5 -393.5t199 -273t287.5 -98.5q176 0 386 169q70 58 96 89v402q0 27 -30 39.5t-124 12.5h-205v21h543v-21h-22q-87 0 -114.5 -13t-27.5 -39v-680q0 -10 -10 -10t-10 10v151q0 57 -20 57q-17 0 -62 -34q-218 -174 -400 -174q-167 0 -300.5 100.5
t-208 280t-74.5 404.5q0 232 77.5 410t219 275t327.5 97q74 0 172 -42t162 -124q16 -19 27 -19q19 0 19 36v34z" />
    <glyph glyph-name="gcommaaccent" unicode="&#x123;" horiz-adv-x="1146" 
d="M579 1365q0 -17 -12 -29t-29 -12t-29 12t-12 29q0 66 21.5 114t73.5 105l15 -13q-85 -93 -85 -168h1q6 3 15 3q17 0 29 -12t12 -29zM251 148q-210 -204 -210 -364q0 -107 143.5 -178.5t371.5 -71.5q266 0 403 64t137 188q0 70 -21.5 121t-55 80.5t-86 48t-101.5 25.5
t-116 10q-28 1 -94.5 3t-99.5 4.5t-81 9t-79.5 20t-54.5 35.5q-23 21 -31 21q-7 0 -25 -16zM543 1050q-172 0 -278 -92t-106 -262q0 -163 102 -258t282 -95q163 0 263 92t100 261q0 162 -96.5 258t-266.5 96zM543 1070q166 0 270 -90q13 -11 21 -11t14 14q30 86 109 87
q101 0 101 -29q0 -10 -6 -16.5t-15 -6.5q-13 0 -38 16t-44 16q-38 0 -64.5 -30.5t-33.5 -85.5q75 -95 75 -238q0 -178 -109 -275.5t-280 -97.5q-114 0 -196 35q-62 -60 -62 -109q0 -38 13 -63q10 -19 27 -33t44.5 -23t51.5 -15t66 -9t69.5 -4.5t80 -3.5t80.5 -3
q67 -3 116.5 -10t106 -27t92.5 -52t60 -88t24 -132q0 -137 -145.5 -207.5t-414.5 -70.5q-233 0 -384.5 77t-151.5 199q0 171 219 381q25 25 25 76v8q0 55 64 119q-93 45 -144 129.5t-51 198.5q0 179 115.5 276.5t294.5 97.5z" />
    <glyph glyph-name="Hcircumflex" unicode="&#x124;" horiz-adv-x="1495" 
d="M430 1649l-14 15l320 282h23l320 -282l-14 -15l-314 276h-7zM51 1556h451v-15h-77q-66 0 -101.5 -7.5t-44 -17.5t-8.5 -28v-648h953v648q0 18 -8.5 28t-44 17.5t-101.5 7.5h-77v15h451v-15h-41q-66 0 -101.5 -7.5t-44 -17.5t-8.5 -28v-1414q0 -18 8.5 -29t44 -20.5
t101.5 -9.5h41v-15h-451v15h77q66 0 101.5 9.5t44 20.5t8.5 29v745h-953v-745q0 -18 8.5 -29t44 -20.5t101.5 -9.5h77v-15h-451v15h41q66 0 101.5 9.5t44 20.5t8.5 29v1414q0 18 -8.5 28t-44 17.5t-101.5 7.5h-41v15z" />
    <glyph glyph-name="hcircumflex" unicode="&#x125;" horiz-adv-x="1320" 
d="M384 1649l-14 15l320 282h23l320 -282l-14 -15l-314 276h-7zM92 1556h46l133 4v-852q0 -32 8 -32q6 0 16 25q62 159 187.5 264t265.5 105q164 0 250.5 -73.5t86.5 -213.5v-711q0 -18 8.5 -29t44 -19.5t101.5 -8.5h41v-15h-430v15h56q66 0 101.5 8.5t44 19.5t8.5 29v708
q0 130 -80 198.5t-232 68.5q-116 0 -227.5 -83t-180.5 -217t-69 -274v-401q0 -18 8.5 -29t44 -19.5t101.5 -8.5h56v-15h-430v15h41q66 0 101.5 8.5t44 19.5t8.5 29v1418q0 28 -24 39.5t-84 11.5h-46v15z" />
    <glyph glyph-name="Hbar" unicode="&#x126;" horiz-adv-x="1495" 
d="M51 1556h451v-15h-77q-66 0 -101.5 -7.5t-44 -17.5t-8.5 -28v-239h953v239q0 18 -8.5 28t-44 17.5t-101.5 7.5h-77v15h451v-15h-41q-66 0 -101.5 -7.5t-44 -17.5t-8.5 -28v-239h146l-4 -20h-142v-1155q0 -18 8.5 -29t44 -20.5t101.5 -9.5h41v-15h-451v15h77
q66 0 101.5 9.5t44 20.5t8.5 29v745h-953v-745q0 -18 8.5 -29t44 -20.5t101.5 -9.5h77v-15h-451v15h41q66 0 101.5 9.5t44 20.5t8.5 29v1155h-125l4 20h121v239q0 18 -8.5 28t-44 17.5t-101.5 7.5h-41v15zM1224 1229h-953v-389h953v389z" />
    <glyph glyph-name="hbar" unicode="&#x127;" horiz-adv-x="1320" 
d="M92 1556h46l133 4v-270h356l-4 -20h-352v-562q0 -32 8 -32q6 0 16 25q62 159 187.5 264t265.5 105q164 0 250.5 -73.5t86.5 -213.5v-711q0 -18 8.5 -29t44 -19.5t101.5 -8.5h41v-15h-430v15h56q66 0 101.5 8.5t44 19.5t8.5 29v708q0 130 -80 198.5t-232 68.5
q-116 0 -227.5 -83t-180.5 -217t-69 -274v-401q0 -18 8.5 -29t44 -19.5t101.5 -8.5h56v-15h-430v15h41q66 0 101.5 8.5t44 19.5t8.5 29v1198h-197l4 20h193v200q0 28 -24 39.5t-84 11.5h-46v15z" />
    <glyph glyph-name="Itilde" unicode="&#x128;" horiz-adv-x="512" 
d="M517 1892q8 -2 8 -12q-9 -53 -41 -80.5t-74 -27.5q-44 0 -86 17t-71 38t-68 38t-76 17q-36 0 -62 -22.5t-34 -66.5q-2 -9 -12 -9q-3 0 -6 3t-2 9q9 51 40.5 80t75.5 29q42 0 84 -17.5t71 -38t68.5 -38t77.5 -17.5q35 0 61 22t34 68q0 3 3 6t9 2zM461 0h-410v15h41
q66 0 101.5 8.5t44 19.5t8.5 29v1416q0 27 -30 40t-124 13h-41v15h410v-15h-36q-94 0 -124 -13t-30 -40v-1416q0 -18 8.5 -29t44 -19.5t101.5 -8.5h36v-15z" />
    <glyph glyph-name="itilde" unicode="&#x129;" horiz-adv-x="512" 
d="M514 1483q8 -2 8 -13q-9 -53 -41 -80.5t-74 -27.5q-44 0 -86.5 17.5t-71 38t-68 38t-76.5 17.5q-36 0 -61.5 -23t-33.5 -67q-2 -9 -12 -9q-3 0 -6 3t-2 9q9 52 40 80.5t75 28.5q42 0 84.5 -17.5t71 -38t68.5 -38t78 -17.5q35 0 61 22t34 69q0 3 3 6t9 2zM271 72
q0 -18 8.5 -29t44 -19.5t101.5 -8.5h36v-15h-410v15h41q66 0 101.5 8.5t44 19.5t8.5 29v926q0 29 -24.5 40.5t-83.5 11.5h-25v15h25l133 3v-996z" />
    <glyph glyph-name="Imacron" unicode="&#x12a;" horiz-adv-x="512" 
d="M587 1843h-656v21h656v-21zM461 0h-410v15h41q66 0 101.5 8.5t44 19.5t8.5 29v1416q0 27 -30 40t-124 13h-41v15h410v-15h-36q-94 0 -124 -13t-30 -40v-1416q0 -18 8.5 -29t44 -19.5t101.5 -8.5h36v-15z" />
    <glyph glyph-name="imacron" unicode="&#x12b;" horiz-adv-x="512" 
d="M271 72q0 -18 8.5 -29t44 -19.5t101.5 -8.5h36v-15h-410v15h41q66 0 101.5 8.5t44 19.5t8.5 29v926q0 29 -24.5 40.5t-83.5 11.5h-25v15h25l133 3v-996zM502 1434h-492v20h492v-20z" />
    <glyph glyph-name="Ibreve" unicode="&#x12c;" horiz-adv-x="512" 
d="M259 1772q164 0 255 113l17 -12q-97 -122 -272 -122q-174 0 -272 122l17 12q93 -113 255 -113zM461 0h-410v15h41q66 0 101.5 8.5t44 19.5t8.5 29v1416q0 27 -30 40t-124 13h-41v15h410v-15h-36q-94 0 -124 -13t-30 -40v-1416q0 -18 8.5 -29t44 -19.5t101.5 -8.5h36v-15z
" />
    <glyph glyph-name="ibreve" unicode="&#x12d;" horiz-adv-x="512" 
d="M256 1362q163 0 255 114l17 -13q-97 -122 -272 -122q-174 0 -272 122l17 13q94 -114 255 -114zM271 72q0 -18 8.5 -29t44 -19.5t101.5 -8.5h36v-15h-410v15h41q66 0 101.5 8.5t44 19.5t8.5 29v926q0 29 -24.5 40.5t-83.5 11.5h-25v15h25l133 3v-996z" />
    <glyph glyph-name="Iogonek" unicode="&#x12e;" horiz-adv-x="512" 
d="M218 0h-167v15h41q66 0 101.5 8.5t44 19.5t8.5 29v1416q0 27 -30 40t-124 13h-41v15h410v-15h-36q-94 0 -124 -13t-30 -40v-1416q0 -18 8.5 -29t44 -19.5t101.5 -8.5h36v-15h-166q-42 0 -68 -20q-128 -102 -128 -228q1 -59 38 -100t105 -41q96 0 172 88q7 9 15 1
q6 -6 0 -14q-84 -96 -187 -96q-78 0 -122.5 47.5t-45.5 114.5q0 137 144 248z" />
    <glyph glyph-name="iogonek" unicode="&#x12f;" horiz-adv-x="512" 
d="M51 0v15h41q66 0 101.5 8.5t44 19.5t8.5 29v926q0 29 -24.5 40.5t-83.5 11.5h-25v15h25l133 3v-996q0 -18 8.5 -29t44 -19.5t101.5 -8.5h36v-15h-166q-42 0 -68 -20q-128 -102 -128 -228q1 -59 38 -100t105 -41q96 0 172 88q7 9 15 1q6 -6 0 -14q-84 -96 -187 -96
q-78 0 -122.5 47.5t-45.5 114.5q0 137 144 248h-167zM215 1413q0 17 12 29t29 12t29 -12t12 -29t-12 -29t-29 -12t-29 12t-12 29z" />
    <glyph glyph-name="Idotaccent" unicode="&#x130;" horiz-adv-x="512" 
d="M218 1823q0 17 12 29t29 12t29 -12t12 -29t-12 -29t-29 -12t-29 12t-12 29zM461 0h-410v15h41q66 0 101.5 8.5t44 19.5t8.5 29v1416q0 27 -30 40t-124 13h-41v15h410v-15h-36q-94 0 -124 -13t-30 -40v-1416q0 -18 8.5 -29t44 -19.5t101.5 -8.5h36v-15z" />
    <glyph glyph-name="dotlessi" unicode="&#x131;" horiz-adv-x="512" 
d="M271 72q0 -18 8.5 -29t44 -19.5t101.5 -8.5h36v-15h-410v15h41q66 0 101.5 8.5t44 19.5t8.5 29v926q0 29 -24.5 40.5t-83.5 11.5h-25v15h25l133 3v-996z" />
    <glyph glyph-name="IJ" unicode="&#x132;" horiz-adv-x="1064" 
d="M563 1556h471v-15h-36q-94 0 -123.5 -12t-29.5 -39v-1459q0 -227 -111 -375t-282 -148q-62 0 -110 38q-9 6 -9 17q0 8 6.5 15t14.5 7t15 -5q47 -38 98 -38q154 0 253 138t99 351v1459q0 27 -29.5 39t-123.5 12h-103v15zM461 0h-410v15h41q66 0 101.5 8.5t44 19.5t8.5 29
v1416q0 27 -30 40t-124 13h-41v15h410v-15h-36q-94 0 -124 -13t-30 -40v-1416q0 -18 8.5 -29t44 -19.5t101.5 -8.5h36v-15z" />
    <glyph glyph-name="ij" unicode="&#x133;" horiz-adv-x="880" 
d="M691 1413q0 17 12 29t29 12t29 -12t12 -29t-12 -29t-29 -12t-29 12t-12 29zM457 -458q50 0 94 19.5t82.5 60.5t61 117t22.5 179v1080q0 29 -24.5 40.5t-83.5 11.5h-46v15h46l133 3v-1150q0 -206 -86 -308t-215 -102q-61 0 -109 38q-9 6 -9 17q0 8 6.5 15t14.5 7
q7 0 14 -5q48 -38 99 -38zM215 1413q0 17 12 29t29 12t29 -12t12 -29t-12 -29t-29 -12t-29 12t-12 29zM271 72q0 -18 8.5 -29t44 -19.5t101.5 -8.5h36v-15h-410v15h41q66 0 101.5 8.5t44 19.5t8.5 29v926q0 29 -24.5 40.5t-83.5 11.5h-25v15h25l133 3v-996z" />
    <glyph glyph-name="Jcircumflex" unicode="&#x134;" horiz-adv-x="552" 
d="M2 1649l-14 15l320 282h23l320 -282l-14 -15l-314 276h-7zM51 1556h471v-15h-36q-94 0 -123.5 -12t-29.5 -39v-1459q0 -227 -111 -375t-282 -148q-62 0 -110 38q-9 6 -9 17q0 8 6.5 15t14.5 7t15 -5q48 -38 98 -38q154 0 253 138t99 351v1459q0 27 -29.5 39t-123.5 12
h-103v15z" />
    <glyph glyph-name="jcircumflex" unicode="&#x135;" horiz-adv-x="389" 
d="M-100 1239l-15 15l321 282h22l321 -282l-14 -15l-315 277h-6zM-35 -458q50 0 94 19.5t82.5 60.5t61 117t22.5 179v1080q0 29 -24 40.5t-83 11.5h-46v15h46l133 3v-1150q0 -206 -86 -308t-215 -102q-62 0 -110 38q-9 6 -9 17q0 8 7 15t15 7q7 0 14 -5q48 -38 98 -38z" />
    <glyph glyph-name="Kcommaaccent" unicode="&#x136;" horiz-adv-x="1336" 
d="M662 -190q0 17 11.5 28.5t28.5 11.5t29 -11.5t12 -28.5q0 -67 -21.5 -115.5t-73.5 -104.5l-15 14q85 93 85 168h-1q-6 -3 -15 -3q-17 0 -28.5 12t-11.5 29zM51 1556h430v-15h-56q-65 0 -100 -7.5t-44.5 -18t-9.5 -28.5v-668h171q16 0 37.5 12t32.5 26l488 618
q24 30 24 43q0 23 -74 23h-112v15h391v-15h-16q-134 0 -196 -79l-516 -653l521 -663q103 -130 165 -130q27 0 43.5 8t42.5 29q7 5 13 5q8 0 14 -5.5t6 -13.5q0 -9 -10 -16q-48 -38 -97 -38q-53 0 -92.5 31.5t-106.5 117.5l-493 628q-9 13 -29 25t-36 12h-171v-727
q0 -18 8.5 -29t44 -19.5t101.5 -8.5h56v-15h-430v15h41q66 0 101.5 8.5t44 19.5t8.5 29v1415q0 18 -9.5 28.5t-44.5 18t-100 7.5h-41v15z" />
    <glyph glyph-name="kcommaaccent" unicode="&#x137;" horiz-adv-x="1144" 
d="M580 -190q0 17 12 28.5t29 11.5t29 -11.5t12 -28.5q0 -66 -22 -114.5t-74 -105.5l-15 14q85 93 85 168h-1q-6 -3 -14 -3q-17 0 -29 12t-12 29zM92 1556h46l133 4v-987h171q16 0 37.5 12t32.5 26l294 372q21 27 21 41q0 26 -78 26h-106v15h390v-15q-29 0 -50 -2t-53 -8.5
t-59.5 -24t-48.5 -44.5l-321 -408l327 -417q103 -130 164 -130q27 0 44.5 8.5t43.5 28.5q7 5 15 5t13.5 -5.5t5.5 -13.5q0 -10 -9 -16q-48 -38 -99 -38q-53 0 -92.5 31.5t-106.5 117.5l-300 382q-9 13 -29 25t-36 12h-171v-481q0 -18 8.5 -29t44 -19.5t101.5 -8.5h36v-15
h-410v15h41q66 0 101.5 8.5t44 19.5t8.5 29v1418q0 28 -24 39.5t-84 11.5h-46v15z" />
    <glyph glyph-name="kgreenlandic" unicode="&#x138;" horiz-adv-x="1144" 
d="M92 1065h46l133 3v-495h171q16 0 37.5 12t32.5 26l294 372q21 27 21 41q0 20 -78 20h-106v21h390v-21h-28.5t-44.5 -2.5t-44.5 -9t-51 -22t-42.5 -39.5l-321 -408l327 -417q103 -130 164 -130q27 0 44.5 8.5t43.5 28.5q7 5 15 5t13.5 -5.5t5.5 -13.5q0 -10 -9 -16
q-48 -38 -99 -38q-53 0 -92.5 31.5t-106.5 117.5l-300 382q-9 13 -29 25t-36 12h-171v-481q0 -18 8.5 -29t44 -19.5t101.5 -8.5h36v-15h-410v15h41q66 0 101.5 8.5t44 19.5t8.5 29v926q0 29 -24.5 40.5t-83.5 11.5h-46v15z" />
    <glyph glyph-name="Lacute" unicode="&#x139;" horiz-adv-x="1320" 
d="M509 1679l295 278q8 9 17 0q10 -10 2 -18l-300 -274zM51 1556h410v-15h-36q-65 0 -100 -7.5t-44.5 -18t-9.5 -28.5v-1467h827q69 0 97 27t33 93l16 260l21 -2l-26 -389q0 -9 -10 -9h-1178v15h41q66 0 101.5 9t44 20t8.5 29v1414q0 18 -9.5 28.5t-44.5 18t-100 7.5h-41v15
z" />
    <glyph glyph-name="lacute" unicode="&#x13a;" horiz-adv-x="512" 
d="M156 1638l295 278q9 8 17 0q10 -10 2 -18l-300 -274zM271 72q0 -18 8.5 -29t44 -19.5t101.5 -8.5h36v-15h-410v15h41q66 0 101.5 8.5t44 19.5t8.5 29v1418q0 28 -24 39.5t-84 11.5h-46v15h46l133 4v-1488z" />
    <glyph glyph-name="Lcommaaccent" unicode="&#x13b;" horiz-adv-x="1320" 
d="M634 -164q0 17 12 29t29 12t29 -12t12 -29q0 -66 -21.5 -114t-73.5 -105l-16 13q85 93 85 168h-1q-6 -3 -14 -3q-17 0 -29 12t-12 29zM51 1556h410v-15h-36q-65 0 -100 -7.5t-44.5 -18t-9.5 -28.5v-1467h827q69 0 97 27t33 93l16 260l21 -2l-26 -389q0 -9 -10 -9h-1178
v15h41q66 0 101.5 9t44 20t8.5 29v1414q0 18 -9.5 28.5t-44.5 18t-100 7.5h-41v15z" />
    <glyph glyph-name="lcommaaccent" unicode="&#x13c;" horiz-adv-x="512" 
d="M229 -164q0 17 12 29t29 12t29 -12t12 -29q0 -66 -21.5 -114t-73.5 -105l-15 13q85 93 85 168h-1q-6 -3 -15 -3q-17 0 -29 12t-12 29zM271 72q0 -18 8.5 -29t44 -19.5t101.5 -8.5h36v-15h-410v15h41q66 0 101.5 8.5t44 19.5t8.5 29v1418q0 28 -24 39.5t-84 11.5h-46v15
h46l133 4v-1488z" />
    <glyph glyph-name="Lcaron" unicode="&#x13d;" horiz-adv-x="1320" 
d="M1263 1519q0 17 12 29t29 12t29 -12t12 -29q0 -66 -22 -114.5t-74 -105.5l-15 14q85 93 85 168h-1q-6 -3 -14 -3q-17 0 -29 12t-12 29zM51 1556h410v-15h-36q-65 0 -100 -7.5t-44.5 -18t-9.5 -28.5v-1467h827q69 0 97 27t33 93l16 260l21 -2l-26 -389q0 -9 -10 -9h-1178
v15h41q66 0 101.5 9t44 20t8.5 29v1414q0 18 -9.5 28.5t-44.5 18t-100 7.5h-41v15z" />
    <glyph glyph-name="lcaron" unicode="&#x13e;" horiz-adv-x="512" 
d="M471 1519q0 17 12 29t29 12t29 -12t12 -29q0 -67 -21.5 -115.5t-73.5 -104.5l-16 14q85 93 85 168h-1q-6 -3 -14 -3q-17 0 -29 12t-12 29zM271 72q0 -18 8.5 -29t44 -19.5t101.5 -8.5h36v-15h-410v15h41q66 0 101.5 8.5t44 19.5t8.5 29v1418q0 28 -24 39.5t-84 11.5h-46
v15h46l133 4v-1488z" />
    <glyph glyph-name="Ldot" unicode="&#x13f;" horiz-adv-x="1320" 
d="M862 779q0 17 12 29t29 12t29 -12t12 -29t-12 -29t-29 -12t-29 12t-12 29zM51 1556h410v-15h-36q-65 0 -100 -7.5t-44.5 -18t-9.5 -28.5v-1467h827q69 0 97 27t33 93l16 260l21 -2l-26 -389q0 -9 -10 -9h-1178v15h41q66 0 101.5 9t44 20t8.5 29v1414q0 18 -9.5 28.5
t-44.5 18t-100 7.5h-41v15z" />
    <glyph glyph-name="ldot" unicode="&#x140;" horiz-adv-x="614" 
d="M271 72q0 -18 8.5 -29t44 -19.5t101.5 -8.5h36v-15h-410v15h41q66 0 101.5 8.5t44 19.5t8.5 29v1418q0 28 -24 39.5t-84 11.5h-46v15h46l133 4v-1488zM451 732q0 17 12 29t29 12t28.5 -12t11.5 -29t-11.5 -29t-28.5 -12t-29 12t-12 29z" />
    <glyph glyph-name="Lslash" unicode="&#x141;" horiz-adv-x="1361" 
d="M92 1556h410v-15h-36q-65 0 -100 -7.5t-44.5 -18t-9.5 -28.5v-702l455 308q9 7 14 -3q5 -9 -3 -15l-466 -314v-741h827q69 0 97 27t33 93l16 260l21 -2l-26 -389q0 -9 -10 -9h-1178v15h41q66 0 101.5 9t44 20t8.5 29v671l-234 -157l-11 16l245 165v719q0 18 -9.5 28.5
t-44.5 18t-100 7.5h-41v15z" />
    <glyph glyph-name="lslash" unicode="&#x142;" horiz-adv-x="532" 
d="M292 72q0 -13 4.5 -22t19 -17.5t47 -13t82.5 -4.5h36v-15h-409v15h41q50 0 82.5 4.5t47 13t19 17.5t4.5 22v787l-213 -139l-11 16l224 148v606q0 28 -24 39.5t-83 11.5h-26v15h26l133 4v-659l229 151q10 7 15 -3q4 -9 -4 -15l-240 -157v-805z" />
    <glyph glyph-name="Nacute" unicode="&#x143;" horiz-adv-x="1464" 
d="M678 1679l295 278q9 9 17 0q10 -10 2 -18l-300 -274zM51 1556h235q6 0 8 -5l911 -1461q11 -18 22 -18q12 0 12 26v1387q0 28 -30.5 42t-123.5 14h-41v15h390v-15h-21q-93 0 -123 -14t-30 -42v-1485h-22q-6 0 -9 5l-956 1531h-9q12 -49 12 -114v-1350q0 -18 8.5 -29
t44 -19.5t101.5 -8.5h36v-15h-405v15h41q66 0 101.5 8.5t44 19.5t8.5 29v1351q0 32 -9 54t-23 34.5t-40.5 19t-52.5 8.5t-68 2h-12v15z" />
    <glyph glyph-name="nacute" unicode="&#x144;" horiz-adv-x="1320" 
d="M570 1270l295 277q9 9 18 0t2 -17l-300 -275zM113 1065h25l133 3v-360q0 -32 8 -32q6 0 16 25q62 159 187.5 264t265.5 105q164 0 250.5 -73.5t86.5 -213.5v-711q0 -18 8.5 -29t44 -19.5t101.5 -8.5h41v-15h-430v15h56q66 0 101.5 8.5t44 19.5t8.5 29v708q0 131 -79 199
t-233 68q-119 0 -229.5 -81t-179 -214.5t-68.5 -278.5v-401q0 -18 8.5 -29t44 -19.5t101.5 -8.5h56v-15h-430v15h41q66 0 101.5 8.5t44 19.5t8.5 29v926q0 29 -24.5 40.5t-83.5 11.5h-25v15z" />
    <glyph glyph-name="Ncommaaccent" unicode="&#x145;" horiz-adv-x="1464" 
d="M634 -164q0 17 12 29t29 12t29 -12t12 -29q0 -66 -21.5 -114t-73.5 -105l-16 13q85 93 85 168h-1q-6 -3 -14 -3q-17 0 -29 12t-12 29zM51 1556h235q6 0 8 -5l911 -1461q11 -18 22 -18q12 0 12 26v1387q0 28 -30.5 42t-123.5 14h-41v15h390v-15h-21q-93 0 -123 -14
t-30 -42v-1485h-22q-6 0 -9 5l-956 1531h-9q12 -49 12 -114v-1350q0 -18 8.5 -29t44 -19.5t101.5 -8.5h36v-15h-405v15h41q66 0 101.5 8.5t44 19.5t8.5 29v1351q0 32 -9 54t-23 34.5t-40.5 19t-52.5 8.5t-68 2h-12v15z" />
    <glyph glyph-name="ncommaaccent" unicode="&#x146;" horiz-adv-x="1320" 
d="M639 -164q0 17 12 29t29 12t29 -12t12 -29q0 -66 -21.5 -114t-73.5 -105l-16 13q85 93 85 168h-1q-6 -3 -14 -3q-17 0 -29 12t-12 29zM113 1065h25l133 3v-360q0 -32 8 -32q6 0 16 25q62 159 187.5 264t265.5 105q164 0 250.5 -73.5t86.5 -213.5v-711q0 -18 8.5 -29
t44 -19.5t101.5 -8.5h41v-15h-430v15h56q66 0 101.5 8.5t44 19.5t8.5 29v708q0 131 -79 199t-233 68q-119 0 -229.5 -81t-179 -214.5t-68.5 -278.5v-401q0 -18 8.5 -29t44 -19.5t101.5 -8.5h56v-15h-430v15h41q66 0 101.5 8.5t44 19.5t8.5 29v926q0 29 -24.5 40.5
t-83.5 11.5h-25v15z" />
    <glyph glyph-name="Ncaron" unicode="&#x147;" horiz-adv-x="1464" 
d="M425 1979l314 -276h6l315 276l14 -15l-320 -282h-23l-320 282zM51 1556h235q6 0 8 -5l911 -1461q11 -18 22 -18q12 0 12 26v1387q0 28 -30.5 42t-123.5 14h-41v15h390v-15h-21q-93 0 -123 -14t-30 -42v-1485h-22q-6 0 -9 5l-956 1531h-9q12 -49 12 -114v-1350
q0 -18 8.5 -29t44 -19.5t101.5 -8.5h36v-15h-405v15h41q66 0 101.5 8.5t44 19.5t8.5 29v1351q0 32 -9 54t-23 34.5t-40.5 19t-52.5 8.5t-68 2h-12v15z" />
    <glyph glyph-name="ncaron" unicode="&#x148;" horiz-adv-x="1320" 
d="M348 1490l315 -277h6l314 277l14 -15l-320 -282h-23l-320 282zM113 1065h25l133 3v-360q0 -32 8 -32q6 0 16 25q62 159 187.5 264t265.5 105q164 0 250.5 -73.5t86.5 -213.5v-711q0 -18 8.5 -29t44 -19.5t101.5 -8.5h41v-15h-430v15h56q66 0 101.5 8.5t44 19.5t8.5 29
v708q0 131 -79 199t-233 68q-119 0 -229.5 -81t-179 -214.5t-68.5 -278.5v-401q0 -18 8.5 -29t44 -19.5t101.5 -8.5h56v-15h-430v15h41q66 0 101.5 8.5t44 19.5t8.5 29v926q0 29 -24.5 40.5t-83.5 11.5h-25v15z" />
    <glyph glyph-name="napostrophe" unicode="&#x149;" horiz-adv-x="1464" 
d="M256 1065h26l133 3v-360q0 -32 7 -32q6 0 16 25q62 159 187.5 264t265.5 105q164 0 251 -74t87 -213v-711q0 -13 4.5 -22t19 -17.5t47 -13t82.5 -4.5h41v-15h-430v15h57q50 0 82.5 4.5t47 13t19 17.5t4.5 22v708q0 131 -79 199t-233 68q-119 0 -229.5 -81t-178.5 -214.5
t-68 -278.5v-401q0 -13 4.5 -22t19 -17.5t47 -13t82.5 -4.5h57v-15h-430v15h41q50 0 82.5 4.5t47 13t19 17.5t4.5 22v926q0 29 -24 40.5t-83 11.5h-26v15zM123 1348q0 17 12 29t29 12t29 -12t12 -29q0 -67 -21.5 -115.5t-73.5 -104.5l-16 14q85 93 85 168h-1q-6 -3 -14 -3
q-17 0 -29 12t-12 29z" />
    <glyph glyph-name="Eng" unicode="&#x14a;" horiz-adv-x="1310" 
d="M1162 369v882q0 140 -101 213.5t-293 73.5q-119 0 -234.5 -80t-189 -213.5t-73.5 -277.5v-895q0 -18 8.5 -29t44 -19.5t101.5 -8.5h56v-15h-430v15h41q66 0 101.5 8.5t44 19.5t8.5 29v1418q0 28 -24 39.5t-84 11.5h-25v15h25l133 4v-361q0 -32 8 -32q6 0 16 26
q61 157 196 263t277 106q204 0 312 -79t108 -229v-885q0 -206 -86 -308t-215 -102q-62 0 -110 38q-9 6 -9 16q0 8 7 15.5t15 7.5q7 0 14 -5q48 -38 98 -38t94 19.5t82.5 60.5t61 117t22.5 179z" />
    <glyph glyph-name="eng" unicode="&#x14b;" horiz-adv-x="1218" 
d="M1060 -82v862q0 131 -79 199t-233 68q-119 0 -229.5 -81t-179 -214.5t-68.5 -278.5v-401q0 -18 8.5 -29t44 -19.5t101.5 -8.5h56v-15h-430v15h41q66 0 101.5 8.5t44 19.5t8.5 29v926q0 29 -24.5 40.5t-83.5 11.5h-25v15h25l133 3v-360q0 -32 8 -32q6 0 16 25
q62 159 187.5 264t265.5 105q164 0 250.5 -73.5t86.5 -213.5v-865q0 -206 -86 -308t-215 -102q-61 0 -109 38q-9 6 -9 17q0 8 6.5 15t14.5 7q7 0 14 -5q47 -38 99 -38q50 0 94 19.5t82.5 60.5t61 117t22.5 179z" />
    <glyph glyph-name="Omacron" unicode="&#x14c;" horiz-adv-x="1443" 
d="M1050 1843h-656v21h656v-21zM722 -5q-141 0 -262.5 59t-208 161.5t-135.5 248.5t-49 314q0 225 84 404t233.5 279.5t337.5 100.5t337.5 -100.5t233.5 -279.5t84 -404q0 -168 -49 -314t-135.5 -248.5t-208 -161.5t-262.5 -59zM722 15q181 0 325 98t224.5 272.5t80.5 392.5
t-80.5 392.5t-224.5 272.5t-325 98t-325 -98t-224.5 -272.5t-80.5 -392.5t80.5 -392.5t224.5 -272.5t325 -98z" />
    <glyph glyph-name="omacron" unicode="&#x14d;" horiz-adv-x="1136" 
d="M891 1434h-655v20h655v-20zM568 1070q218 0 360 -152.5t142 -385.5t-142 -385t-360 -152t-359.5 152t-141.5 385q0 234 141.5 386t359.5 152zM568 1050q-207 0 -341.5 -146.5t-134.5 -371.5t134.5 -371t341.5 -146t341.5 146t134.5 371t-134.5 371.5t-341.5 146.5z" />
    <glyph glyph-name="Obreve" unicode="&#x14e;" horiz-adv-x="1443" 
d="M722 1772q164 0 255 113l17 -12q-97 -122 -272 -122q-174 0 -272 122l17 12q93 -113 255 -113zM722 -5q-141 0 -262.5 59t-208 161.5t-135.5 248.5t-49 314q0 225 84 404t233.5 279.5t337.5 100.5t337.5 -100.5t233.5 -279.5t84 -404q0 -168 -49 -314t-135.5 -248.5
t-208 -161.5t-262.5 -59zM722 15q181 0 325 98t224.5 272.5t80.5 392.5t-80.5 392.5t-224.5 272.5t-325 98t-325 -98t-224.5 -272.5t-80.5 -392.5t80.5 -392.5t224.5 -272.5t325 -98z" />
    <glyph glyph-name="obreve" unicode="&#x14f;" horiz-adv-x="1136" 
d="M563 1362q163 0 255 114l18 -13q-97 -122 -273 -122q-174 0 -272 122l17 13q94 -114 255 -114zM568 1070q218 0 360 -152.5t142 -385.5t-142 -385t-360 -152t-359.5 152t-141.5 385q0 234 141.5 386t359.5 152zM568 1050q-207 0 -341.5 -146.5t-134.5 -371.5t134.5 -371
t341.5 -146t341.5 146t134.5 371t-134.5 371.5t-341.5 146.5z" />
    <glyph glyph-name="Ohungarumlaut" unicode="&#x150;" horiz-adv-x="1443" 
d="M396 1679l325 272q9 7 17 -1q10 -10 0 -18l-328 -268zM803 1679l324 272q9 8 18 -1q10 -10 0 -18l-329 -268zM722 -5q-141 0 -262.5 59t-208 161.5t-135.5 248.5t-49 314q0 225 84 404t233.5 279.5t337.5 100.5t337.5 -100.5t233.5 -279.5t84 -404q0 -168 -49 -314
t-135.5 -248.5t-208 -161.5t-262.5 -59zM722 15q181 0 325 98t224.5 272.5t80.5 392.5t-80.5 392.5t-224.5 272.5t-325 98t-325 -98t-224.5 -272.5t-80.5 -392.5t80.5 -392.5t224.5 -272.5t325 -98z" />
    <glyph glyph-name="ohungarumlaut" unicode="&#x151;" horiz-adv-x="1136" 
d="M238 1270l324 271q9 8 18 -1t0 -17l-329 -269zM644 1270l325 271q9 7 17 -1q9 -9 0 -17l-329 -269zM568 1070q218 0 360 -152.5t142 -385.5t-142 -385t-360 -152t-359.5 152t-141.5 385q0 234 141.5 386t359.5 152zM568 1050q-207 0 -341.5 -146.5t-134.5 -371.5
t134.5 -371t341.5 -146t341.5 146t134.5 371t-134.5 371.5t-341.5 146.5z" />
    <glyph glyph-name="OE" unicode="&#x152;" horiz-adv-x="1996" 
d="M710 -5q-184 0 -331.5 101.5t-229.5 280.5t-82 401q0 168 49 313.5t135.5 248.5t208 161.5t262.5 58.5l1101 -4q10 0 10 -9l26 -389l-21 -2l-16 260q-4 67 -33 93.5t-97 26.5h-682l-1 -758h343q41 0 41 277v61h20v-696h-20v61q0 277 -41 277h-343v-738h765q69 0 97 27
t33 93l16 260l20 -2l-25 -389q0 -9 -10 -9h-920q-230 -5 -275 -5zM722 15h107q66 0 101.5 9t44 20t8.5 29v1415q0 27 -30 39t-124 12h-107q-135 0 -252.5 -57.5t-200 -157.5t-130 -241.5t-47.5 -304.5q0 -218 80.5 -392.5t224.5 -272.5t325 -98z" />
    <glyph glyph-name="oe" unicode="&#x153;" horiz-adv-x="2012" 
d="M1030 563h838q46 0 46 70q0 17 -3 31q-31 178 -140 282t-286 104q-195 0 -320 -132.5t-135 -354.5zM548 1050q-205 0 -330.5 -145.5t-125.5 -372.5t125.5 -372t330.5 -145t330.5 145t125.5 372t-125.5 372.5t-330.5 145.5zM1016 396q-36 -183 -160.5 -292t-307.5 -109
q-216 0 -348.5 150.5t-132.5 386.5t132.5 387t348.5 151q183 0 307.5 -109.5t160.5 -292.5q36 183 161.5 292.5t307.5 109.5q143 0 248.5 -67.5t159 -184t53.5 -265.5q0 -10 -11 -10h-906v-11q0 -228 121.5 -372.5t324.5 -144.5q111 0 196.5 32t138.5 82t94 123l18 -10
q-139 -247 -447 -247q-180 0 -302 109.5t-157 291.5z" />
    <glyph glyph-name="Racute" unicode="&#x154;" horiz-adv-x="1418" 
d="M545 1679l295 278q8 9 17 0q10 -10 2 -18l-300 -274zM51 1556h599q254 0 419 -127t165 -323q0 -184 -146 -309t-377 -140q114 -29 179 -109t122 -235q14 -38 21 -57.5t22.5 -56t27 -57t30 -47.5t36.5 -41t41.5 -24.5t49.5 -10.5q27 0 43.5 8t42.5 29q7 5 14 5q11 0 17 -9
q5 -7 5 -13q0 -10 -9 -16q-49 -38 -118 -38q-26 0 -50 10t-42 22.5t-37 38.5t-30 43.5t-26 53.5t-21 52t-20 54.5t-17 47.5q-29 79 -55 131.5t-62 97t-81.5 69t-108 37.5t-147.5 13h-267v-583q0 -18 8.5 -29t44 -19.5t101.5 -8.5h36v-15h-410v15h41q66 0 101.5 8.5t44 19.5
t8.5 29v1418q0 27 -30 39t-124 12h-41v15zM272 1536l-1 -860h267h109q245 0 403 121t158 309t-158 309t-403 121h-375z" />
    <glyph glyph-name="racute" unicode="&#x155;" horiz-adv-x="849" 
d="M345 1270l295 277q8 9 17 0t2 -17l-300 -275zM801 916q0 -10 -7.5 -17t-18.5 -7t-18 6.5t-7 17.5q0 134 -119 134q-100 0 -183.5 -67t-130 -177.5t-46.5 -237.5v-496q0 -18 8.5 -29t44 -19.5t101.5 -8.5h56v-15h-430v15h41q66 0 101.5 8.5t44 19.5t8.5 29v926
q0 29 -24.5 40.5t-83.5 11.5h-25v15h25l133 3v-338q38 148 135.5 244t224.5 96q72 0 121 -43.5t49 -110.5z" />
    <glyph glyph-name="Rcommaaccent" unicode="&#x156;" horiz-adv-x="1418" 
d="M645 -189q0 17 12 29t29 12t29 -12t12 -29q0 -67 -21.5 -115.5t-73.5 -104.5l-16 14q85 93 85 168h-1q-6 -3 -14 -3q-17 0 -29 12t-12 29zM51 1556h599q254 0 419 -127t165 -323q0 -184 -146 -309t-377 -140q114 -29 179 -109t122 -235q14 -38 21 -57.5t22.5 -56t27 -57
t30 -47.5t36.5 -41t41.5 -24.5t49.5 -10.5q27 0 43.5 8t42.5 29q7 5 14 5q11 0 17 -9q5 -7 5 -13q0 -10 -9 -16q-49 -38 -118 -38q-26 0 -50 10t-42 22.5t-37 38.5t-30 43.5t-26 53.5t-21 52t-20 54.5t-17 47.5q-29 79 -55 131.5t-62 97t-81.5 69t-108 37.5t-147.5 13h-267
v-583q0 -18 8.5 -29t44 -19.5t101.5 -8.5h36v-15h-410v15h41q66 0 101.5 8.5t44 19.5t8.5 29v1418q0 27 -30 39t-124 12h-41v15zM272 1536l-1 -860h267h109q245 0 403 121t158 309t-158 309t-403 121h-375z" />
    <glyph glyph-name="rcommaaccent" unicode="&#x157;" horiz-adv-x="849" 
d="M240 -164q0 17 12 29t29 12t29 -12t12 -29q0 -66 -22 -114t-74 -105l-15 13q85 93 85 168h-1q-6 -3 -14 -3q-17 0 -29 12t-12 29zM801 916q0 -10 -7.5 -17t-18.5 -7t-18 6.5t-7 17.5q0 134 -119 134q-100 0 -183.5 -67t-130 -177.5t-46.5 -237.5v-496q0 -18 8.5 -29
t44 -19.5t101.5 -8.5h56v-15h-430v15h41q66 0 101.5 8.5t44 19.5t8.5 29v926q0 29 -24.5 40.5t-83.5 11.5h-25v15h25l133 3v-338q38 148 135.5 244t224.5 96q72 0 121 -43.5t49 -110.5z" />
    <glyph glyph-name="Rcaron" unicode="&#x158;" horiz-adv-x="1418" 
d="M333 1956l314 -277h6l315 277l14 -16l-320 -281h-23l-321 281zM51 1556h599q254 0 419 -127t165 -323q0 -184 -146 -309t-377 -140q114 -29 179 -109t122 -235q14 -38 21 -57.5t22.5 -56t27 -57t30 -47.5t36.5 -41t41.5 -24.5t49.5 -10.5q27 0 43.5 8t42.5 29q7 5 14 5
q11 0 17 -9q5 -7 5 -13q0 -10 -9 -16q-49 -38 -118 -38q-26 0 -50 10t-42 22.5t-37 38.5t-30 43.5t-26 53.5t-21 52t-20 54.5t-17 47.5q-29 79 -55 131.5t-62 97t-81.5 69t-108 37.5t-147.5 13h-267v-583q0 -18 8.5 -29t44 -19.5t101.5 -8.5h36v-15h-410v15h41
q66 0 101.5 8.5t44 19.5t8.5 29v1418q0 27 -30 39t-124 12h-41v15zM272 1536l-1 -860h267h109q245 0 403 121t158 309t-158 309t-403 121h-375z" />
    <glyph glyph-name="rcaron" unicode="&#x159;" horiz-adv-x="849" 
d="M109 1490l314 -277h6l314 277l15 -15l-321 -282h-22l-321 282zM801 916q0 -10 -7.5 -17t-18.5 -7t-18 6.5t-7 17.5q0 134 -119 134q-100 0 -183.5 -67t-130 -177.5t-46.5 -237.5v-496q0 -18 8.5 -29t44 -19.5t101.5 -8.5h56v-15h-430v15h41q66 0 101.5 8.5t44 19.5
t8.5 29v926q0 29 -24.5 40.5t-83.5 11.5h-25v15h25l133 3v-338q38 148 135.5 244t224.5 96q72 0 121 -43.5t49 -110.5z" />
    <glyph glyph-name="Sacute" unicode="&#x15a;" horiz-adv-x="1173" 
d="M464 1679l295 278q9 9 17 0q10 -10 2 -18l-300 -274zM569 1539q-172 0 -281.5 -78t-109.5 -200q0 -60 22.5 -112.5t54 -88t83.5 -72.5t93.5 -58.5t101.5 -52.5t91 -49q29 -17 97.5 -53t111.5 -60t101.5 -68t93 -86t59.5 -105t25 -134q0 -142 -142 -234.5t-360 -92.5
q-125 0 -243.5 38t-193.5 111q-45 49 -59 49q-21 0 -22 -66l-5 -147h-15l13 389h15v-12q0 -81 45.5 -147.5t119.5 -107.5t163 -63t182 -22q209 0 342.5 86t133.5 219q0 58 -15.5 109t-46.5 92t-64.5 73t-83 63t-87.5 52t-92 49t-84 46q-29 17 -89.5 48t-103.5 53.5t-97 61.5
t-88 77.5t-58 94.5t-24 120q0 132 118.5 216.5t297.5 84.5q93 0 189.5 -36t160.5 -109q25 -29 38 -29q16 0 16 47q0 3 -0.5 8t-0.5 7q-3 87 -4 127h16l15 -389q0 -7 -8 -7t-8 7l-3 30q-7 70 -37.5 126.5t-72.5 92t-95.5 59.5t-104.5 33.5t-101 9.5z" />
    <glyph glyph-name="sacute" unicode="&#x15b;" horiz-adv-x="1034" 
d="M497 1070q192 0 321 -103q7 -6 16.5 -14.5t14.5 -12.5t9 -4q15 0 15 47q0 2 -0.5 9.5t-1 28t-1.5 44.5h17l11 -307q0 -7 -8 -7t-8 7l-1 8q-18 137 -75 184q-121 100 -309 100q-147 0 -242.5 -65t-95.5 -165q0 -51 45 -90t116.5 -65t158.5 -50t174 -53.5t158.5 -67.5
t116.5 -100.5t45 -143.5q0 -110 -126.5 -182.5t-319.5 -72.5q-114 0 -194 26t-161 94q-51 47 -64 47q-19 0 -22 -66l-4 -96h-15l12 338h15v-11q0 -119 95 -198q78 -64 153.5 -89t184.5 -25q183 0 301.5 66.5t118.5 168.5q0 76 -45 134t-116.5 93.5t-158.5 63.5t-174 52.5
t-158.5 52.5t-116.5 72t-45 102q0 109 103 179.5t261 70.5zM396 1270l295 277q9 9 18 0t2 -17l-300 -275z" />
    <glyph glyph-name="Scircumflex" unicode="&#x15c;" horiz-adv-x="1173" 
d="M252 1649l-14 15l320 282h23l320 -282l-14 -15l-315 276h-6zM569 1539q-172 0 -281.5 -78t-109.5 -200q0 -60 22.5 -112.5t54 -88t83.5 -72.5t93.5 -58.5t101.5 -52.5t91 -49q29 -17 97.5 -53t111.5 -60t101.5 -68t93 -86t59.5 -105t25 -134q0 -142 -142 -234.5
t-360 -92.5q-125 0 -243.5 38t-193.5 111q-45 49 -59 49q-21 0 -22 -66l-5 -147h-15l13 389h15v-12q0 -81 45.5 -147.5t119.5 -107.5t163 -63t182 -22q209 0 342.5 86t133.5 219q0 58 -15.5 109t-46.5 92t-64.5 73t-83 63t-87.5 52t-92 49t-84 46q-29 17 -89.5 48
t-103.5 53.5t-97 61.5t-88 77.5t-58 94.5t-24 120q0 132 118.5 216.5t297.5 84.5q93 0 189.5 -36t160.5 -109q25 -29 38 -29q16 0 16 47q0 3 -0.5 8t-0.5 7q-3 87 -4 127h16l15 -389q0 -7 -8 -7t-8 7l-3 30q-7 70 -37.5 126.5t-72.5 92t-95.5 59.5t-104.5 33.5t-101 9.5z
" />
    <glyph glyph-name="scircumflex" unicode="&#x15d;" horiz-adv-x="1034" 
d="M497 1070q192 0 321 -103q7 -6 16.5 -14.5t14.5 -12.5t9 -4q15 0 15 47q0 2 -0.5 9.5t-1 28t-1.5 44.5h17l11 -307q0 -7 -8 -7t-8 7l-1 8q-18 137 -75 184q-121 100 -309 100q-147 0 -242.5 -65t-95.5 -165q0 -51 45 -90t116.5 -65t158.5 -50t174 -53.5t158.5 -67.5
t116.5 -100.5t45 -143.5q0 -110 -126.5 -182.5t-319.5 -72.5q-114 0 -194 26t-161 94q-51 47 -64 47q-19 0 -22 -66l-4 -96h-15l12 338h15v-11q0 -119 95 -198q78 -64 153.5 -89t184.5 -25q183 0 301.5 66.5t118.5 168.5q0 76 -45 134t-116.5 93.5t-158.5 63.5t-174 52.5
t-158.5 52.5t-116.5 72t-45 102q0 109 103 179.5t261 70.5zM184 1239l-14 15l320 282h23l321 -282l-15 -15l-314 277h-6z" />
    <glyph glyph-name="Scedilla" unicode="&#x15e;" horiz-adv-x="1173" 
d="M569 1539q-172 0 -281.5 -78t-109.5 -200q0 -60 22.5 -112.5t54 -88t83.5 -72.5t93.5 -58.5t101.5 -52.5t91 -49q29 -17 97.5 -53t111.5 -60t101.5 -68t93 -86t59.5 -105t25 -134q0 -142 -142 -234.5t-360 -92.5q-36 0 -74 3l-34 -135q56 16 87 16q73 0 125 -52.5
t52 -127.5q0 -66 -54 -113t-130 -47q-53 0 -98.5 23.5t-70.5 64.5q-5 10 3 14q10 6 14 -3q22 -36 63 -57t89 -21q69 0 116 41t47 98q0 67 -46 113.5t-110 46.5q-16 0 -31 -2.5t-21.5 -4t-25 -7.5t-21.5 -7q-10 -3 -12 6v6l37 151q-220 26 -342 143q-45 49 -59 49
q-21 0 -22 -66l-5 -147h-15l13 389h15v-12q0 -81 45.5 -147.5t119.5 -107.5t163 -63t182 -22q209 0 342.5 86t133.5 219q0 58 -15.5 109t-46.5 92t-64.5 73t-83 63t-87.5 52t-92 49t-84 46q-29 17 -89.5 48t-103.5 53.5t-97 61.5t-88 77.5t-58 94.5t-24 120
q0 132 118.5 216.5t297.5 84.5q93 0 189.5 -36t160.5 -109q25 -29 38 -29q16 0 16 47q0 3 -0.5 8t-0.5 7q-3 87 -4 127h16l15 -389q0 -7 -8 -7t-8 7l-3 30q-7 70 -37.5 126.5t-72.5 92t-95.5 59.5t-104.5 33.5t-101 9.5z" />
    <glyph glyph-name="scedilla" unicode="&#x15f;" horiz-adv-x="1034" 
d="M497 1070q192 0 321 -103q7 -6 16.5 -14.5t14.5 -12.5t9 -4q15 0 15 47l-1 9q0 8 -1 27.5t-1 45.5h17l11 -307q0 -7 -8 -7t-8 7l-1 8q-18 137 -75 184q-121 100 -309 100q-147 0 -242.5 -65t-95.5 -165q0 -51 45 -90t116.5 -65t158.5 -50t174 -53.5t158.5 -67.5
t116.5 -100.5t45 -143.5q0 -109 -123.5 -181t-314.5 -74l-33 -132q56 16 87 16q73 0 125 -52.5t52 -127.5q0 -66 -54 -113t-130 -47q-53 0 -98.5 23.5t-70.5 64.5q-5 10 3 14q10 6 14 -3q22 -36 63 -57t89 -21q69 0 116 41t47 98q0 67 -46 113.5t-110 46.5q-16 0 -31 -2.5
t-21.5 -4t-25 -7.5t-21.5 -7q-10 -3 -12 6v6l35 145q-108 2 -185 28t-156 92q-51 47 -64 47q-19 0 -22 -66l-4 -96h-15l12 338h15v-11q0 -119 95 -198q78 -64 153.5 -89t184.5 -25q183 0 301.5 66.5t118.5 168.5q0 76 -45 134t-116.5 93.5t-158.5 63.5t-174 52.5
t-158.5 52.5t-116.5 72t-45 102q0 109 103 179.5t261 70.5z" />
    <glyph glyph-name="Scaron" unicode="&#x160;" horiz-adv-x="1173" 
d="M252 1956l314 -277h6l315 277l14 -16l-320 -281h-23l-320 281zM569 1539q-172 0 -281.5 -78t-109.5 -200q0 -60 22.5 -112.5t54 -88t83.5 -72.5t93.5 -58.5t101.5 -52.5t91 -49q29 -17 97.5 -53t111.5 -60t101.5 -68t93 -86t59.5 -105t25 -134q0 -142 -142 -234.5
t-360 -92.5q-125 0 -243.5 38t-193.5 111q-45 49 -59 49q-21 0 -22 -66l-5 -147h-15l13 389h15v-12q0 -81 45.5 -147.5t119.5 -107.5t163 -63t182 -22q209 0 342.5 86t133.5 219q0 58 -15.5 109t-46.5 92t-64.5 73t-83 63t-87.5 52t-92 49t-84 46q-29 17 -89.5 48
t-103.5 53.5t-97 61.5t-88 77.5t-58 94.5t-24 120q0 132 118.5 216.5t297.5 84.5q93 0 189.5 -36t160.5 -109q25 -29 38 -29q16 0 16 47q0 3 -0.5 8t-0.5 7q-3 87 -4 127h16l15 -389q0 -7 -8 -7t-8 7l-3 30q-7 70 -37.5 126.5t-72.5 92t-95.5 59.5t-104.5 33.5t-101 9.5z
" />
    <glyph glyph-name="scaron" unicode="&#x161;" horiz-adv-x="1034" 
d="M497 1070q192 0 321 -103q7 -6 16.5 -14.5t14.5 -12.5t9 -4q15 0 15 47q0 2 -0.5 9.5t-1 28t-1.5 44.5h17l11 -307q0 -7 -8 -7t-8 7l-1 8q-18 137 -75 184q-121 100 -309 100q-147 0 -242.5 -65t-95.5 -165q0 -51 45 -90t116.5 -65t158.5 -50t174 -53.5t158.5 -67.5
t116.5 -100.5t45 -143.5q0 -110 -126.5 -182.5t-319.5 -72.5q-114 0 -194 26t-161 94q-51 47 -64 47q-19 0 -22 -66l-4 -96h-15l12 338h15v-11q0 -119 95 -198q78 -64 153.5 -89t184.5 -25q183 0 301.5 66.5t118.5 168.5q0 76 -45 134t-116.5 93.5t-158.5 63.5t-174 52.5
t-158.5 52.5t-116.5 72t-45 102q0 109 103 179.5t261 70.5zM184 1546l315 -276h6l314 276l15 -15l-321 -282h-23l-320 282z" />
    <glyph glyph-name="Tcommaaccent" unicode="&#x162;" horiz-adv-x="1341" 
d="M686 1536v-1464q0 -18 8.5 -29t44 -19.5t101.5 -8.5h36v-15h-219l-32 -132q56 16 87 16q73 0 125 -52.5t52 -127.5q0 -66 -54 -113t-130 -47q-53 0 -98.5 23.5t-70.5 64.5q-5 10 3 14q10 6 14 -3q22 -36 63 -57t89 -21q69 0 116 41t47 98q0 67 -46 113.5t-110 46.5
q-16 0 -31 -2.5t-21.5 -4t-25 -7.5t-21.5 -7q-10 -3 -12 6q-1 2 0 6v1l35 144h-170v15h41q50 0 82.5 4.5t47 13t19 17.5t4.5 22v1464h-445q-76 0 -105.5 -27t-34.5 -101l-13 -190l-16 2l22 327q0 9 10 9h1186q10 0 10 -9l21 -327l-16 -2l-12 190q-5 73 -34.5 100.5
t-106.5 27.5h-440z" />
    <glyph glyph-name="tcommaaccent" unicode="&#x163;" horiz-adv-x="849" 
d="M41 1024v20h92q67 0 85 22t18 104v182h20v-273q0 -35 37 -35h485v-20h-485q-37 0 -37 -36v-589q0 -167 75.5 -275.5t191.5 -108.5q74 0 141 32t106 93l16 -10q-41 -66 -113 -100.5t-150 -34.5q-32 0 -52 5l-35 -137q56 16 87 16q73 0 125 -52.5t52 -127.5q0 -66 -54 -113
t-130 -47q-53 0 -98.5 23.5t-70.5 64.5q-5 10 3 14q11 6 15 -3q22 -36 62.5 -57t88.5 -21q69 0 116.5 41.5t47.5 97.5q0 67 -46.5 113.5t-110.5 46.5q-13 0 -23.5 -1t-21 -3.5t-17.5 -4.5t-18.5 -6t-17.5 -6q-10 -3 -12 6v6l38 156q-99 31 -160 137.5t-61 255.5v589
q0 36 -36 36h-153z" />
    <glyph glyph-name="Tcaron" unicode="&#x164;" horiz-adv-x="1341" 
d="M355 1956l315 -277h6l314 277l15 -16l-321 -281h-22l-321 281zM78 1556h1186q10 0 10 -9l21 -327l-16 -2l-12 190q-5 73 -34.5 100.5t-106.5 27.5h-440v-1464q0 -18 8.5 -29t44 -19.5t101.5 -8.5h36v-15h-410v15h41q50 0 82.5 4.5t47 13t19 17.5t4.5 22v1464h-445
q-76 0 -105.5 -27t-34.5 -101l-13 -190l-16 2l22 327q0 9 10 9z" />
    <glyph glyph-name="tcaron" unicode="&#x165;" horiz-adv-x="870" 
d="M804 1352q0 17 12 29t29 12t29 -12t12 -29q0 -66 -21.5 -114t-73.5 -105l-16 13q85 93 85 168h-1q-6 -3 -14 -3q-17 0 -29 12t-12 29zM41 1024v20h92q67 0 85 22t18 104v182h20v-273q0 -35 37 -35h485v-20h-485q-37 0 -37 -36v-589q0 -167 75.5 -275.5t191.5 -108.5
q74 0 141 32t106 93l16 -10q-41 -66 -113 -100.5t-150 -34.5q-127 0 -210 114t-83 290v589q0 36 -36 36h-153z" />
    <glyph glyph-name="Tbar" unicode="&#x166;" horiz-adv-x="1341" 
d="M686 1536v-451h282l-4 -20h-278v-993q0 -18 8.5 -29t44 -19.5t101.5 -8.5h36v-15h-410v15h41q50 0 82.5 4.5t47 13t19 17.5t4.5 22v993h-270l4 20h266v451h-445q-76 0 -105.5 -27t-34.5 -101l-13 -190l-16 2l22 327q0 9 10 9h1186q10 0 10 -9l21 -327l-16 -2l-12 190
q-5 73 -34.5 100.5t-106.5 27.5h-440z" />
    <glyph glyph-name="tbar" unicode="&#x167;" horiz-adv-x="849" 
d="M41 1024v20h92q67 0 85 22t18 104v182h20v-273q0 -35 37 -35h485v-20h-485q-37 0 -37 -36v-230h404l-4 -21h-400v-338q0 -167 75.5 -275.5t191.5 -108.5q74 0 141 32t106 93l16 -10q-41 -66 -113 -100.5t-150 -34.5q-127 0 -210 114t-83 290v338h-147l4 21h143v230
q0 36 -36 36h-153z" />
    <glyph glyph-name="Utilde" unicode="&#x168;" 
d="M990 1892q8 -2 8 -12q-9 -53 -41 -80.5t-74 -27.5q-44 0 -86 17t-71 38t-68 38t-76 17q-36 0 -62 -22.5t-34 -66.5q-2 -9 -12 -9q-3 0 -6 3t-2 9q9 51 40.5 80t75.5 29q42 0 84 -17.5t71 -38t68.5 -38t77.5 -17.5q35 0 61 22t34 68q0 3 3 6t9 2zM31 1556h450v-15h-77
q-66 0 -101.5 -8.5t-43.5 -19t-8 -28.5v-988q0 -210 130.5 -346t335.5 -136q214 0 352.5 135.5t138.5 346.5v988q0 18 -8 28.5t-43.5 19t-101.5 8.5h-77v15h425v-15h-21q-66 0 -101.5 -8.5t-43.5 -19t-8 -28.5v-988q0 -219 -145.5 -360.5t-366.5 -141.5q-215 0 -353.5 142.5
t-138.5 359.5v988q0 18 -8 28.5t-43.5 19t-101.5 8.5h-41v15z" />
    <glyph glyph-name="utilde" unicode="&#x169;" horiz-adv-x="1249" 
d="M862 1483q8 -2 8 -13q-9 -53 -41 -80.5t-74 -27.5q-44 0 -86 17.5t-71 38t-68 38t-76 17.5q-36 0 -62 -23t-34 -67q-2 -9 -12 -9q-3 0 -6 3t-2 9q9 51 40.5 80t75.5 29q42 0 84 -17.5t71 -38t68.5 -38t77.5 -17.5q35 0 61 22t34 69q0 3 3 6t9 2zM51 1050v15h26l133 3
v-783q0 -131 79 -199t233 -68q119 0 229.5 81t178.5 214.5t68 278.5v406q0 29 -24 40.5t-83 11.5h-26v15h26l133 3v-813l9 -102q5 -57 24.5 -97t42.5 -41l98 17l4 -21l-99 -16h-2q-37 0 -62 47t-31 109l-10 103v103q0 32 -7 32q-6 0 -16 -25q-62 -159 -187.5 -264
t-265.5 -105q-164 0 -251 74t-87 213v716q0 29 -24 40.5t-83 11.5h-26z" />
    <glyph glyph-name="Umacron" unicode="&#x16a;" 
d="M1060 1843h-656v21h656v-21zM31 1556h450v-15h-77q-66 0 -101.5 -8.5t-43.5 -19t-8 -28.5v-988q0 -210 130.5 -346t335.5 -136q214 0 352.5 135.5t138.5 346.5v988q0 18 -8 28.5t-43.5 19t-101.5 8.5h-77v15h425v-15h-21q-66 0 -101.5 -8.5t-43.5 -19t-8 -28.5v-988
q0 -219 -145.5 -360.5t-366.5 -141.5q-215 0 -353.5 142.5t-138.5 359.5v988q0 18 -8 28.5t-43.5 19t-101.5 8.5h-41v15z" />
    <glyph glyph-name="umacron" unicode="&#x16b;" horiz-adv-x="1249" 
d="M932 1434h-656v20h656v-20zM51 1050v15h26l133 3v-783q0 -131 79 -199t233 -68q119 0 229.5 81t178.5 214.5t68 278.5v406q0 29 -24 40.5t-83 11.5h-26v15h26l133 3v-813l9 -102q5 -57 24.5 -97t42.5 -41l98 17l4 -21l-99 -16h-2q-37 0 -62 47t-31 109l-10 103v103
q0 32 -7 32q-6 0 -16 -25q-62 -159 -187.5 -264t-265.5 -105q-164 0 -251 74t-87 213v716q0 29 -24 40.5t-83 11.5h-26z" />
    <glyph glyph-name="Ubreve" unicode="&#x16c;" 
d="M732 1772q164 0 255 113l18 -12q-97 -122 -273 -122q-174 0 -272 122l17 12q93 -113 255 -113zM31 1556h450v-15h-77q-66 0 -101.5 -8.5t-43.5 -19t-8 -28.5v-988q0 -210 130.5 -346t335.5 -136q214 0 352.5 135.5t138.5 346.5v988q0 18 -8 28.5t-43.5 19t-101.5 8.5h-77
v15h425v-15h-21q-66 0 -101.5 -8.5t-43.5 -19t-8 -28.5v-988q0 -219 -145.5 -360.5t-366.5 -141.5q-215 0 -353.5 142.5t-138.5 359.5v988q0 18 -8 28.5t-43.5 19t-101.5 8.5h-41v15z" />
    <glyph glyph-name="ubreve" unicode="&#x16d;" horiz-adv-x="1249" 
d="M604 1362q164 0 255 114l18 -13q-97 -122 -273 -122q-174 0 -272 122l17 13q94 -114 255 -114zM51 1050v15h26l133 3v-783q0 -131 79 -199t233 -68q119 0 229.5 81t178.5 214.5t68 278.5v406q0 29 -24 40.5t-83 11.5h-26v15h26l133 3v-813l9 -102q5 -57 24.5 -97
t42.5 -41l98 17l4 -21l-99 -16h-2q-37 0 -62 47t-31 109l-10 103v103q0 32 -7 32q-6 0 -16 -25q-62 -159 -187.5 -264t-265.5 -105q-164 0 -251 74t-87 213v716q0 29 -24 40.5t-83 11.5h-26z" />
    <glyph glyph-name="Uring" unicode="&#x16e;" 
d="M717 1990q65 0 109 -43.5t44 -110.5q0 -65 -43 -109.5t-110 -44.5q-65 0 -109.5 43.5t-44.5 110.5q0 65 43.5 109.5t110.5 44.5zM717 1969q-59 0 -96 -37.5t-37 -95.5q0 -59 37.5 -96t95.5 -37q59 0 96 37.5t37 95.5q0 59 -37.5 96t-95.5 37zM31 1556h450v-15h-77
q-66 0 -101.5 -8.5t-43.5 -19t-8 -28.5v-988q0 -210 130.5 -346t335.5 -136q214 0 352.5 135.5t138.5 346.5v988q0 18 -8 28.5t-43.5 19t-101.5 8.5h-77v15h425v-15h-21q-66 0 -101.5 -8.5t-43.5 -19t-8 -28.5v-988q0 -219 -145.5 -360.5t-366.5 -141.5q-215 0 -353.5 142.5
t-138.5 359.5v988q0 18 -8 28.5t-43.5 19t-101.5 8.5h-41v15z" />
    <glyph glyph-name="uring" unicode="&#x16f;" horiz-adv-x="1249" 
d="M604 1505q65 0 109.5 -43t44.5 -110q0 -65 -43.5 -109.5t-110.5 -44.5q-65 0 -109 43.5t-44 110.5q0 65 43 109t110 44zM604 1485q-59 0 -96 -37.5t-37 -95.5q0 -59 37.5 -96t95.5 -37q59 0 96 37.5t37 95.5q0 59 -37.5 96t-95.5 37zM51 1050v15h26l133 3v-783
q0 -131 79 -199t233 -68q119 0 229.5 81t178.5 214.5t68 278.5v406q0 29 -24 40.5t-83 11.5h-26v15h26l133 3v-813l9 -102q5 -57 24.5 -97t42.5 -41l98 17l4 -21l-99 -16h-2q-37 0 -62 47t-31 109l-10 103v103q0 32 -7 32q-6 0 -16 -25q-62 -159 -187.5 -264t-265.5 -105
q-164 0 -251 74t-87 213v716q0 29 -24 40.5t-83 11.5h-26z" />
    <glyph glyph-name="Uhungarumlaut" unicode="&#x170;" 
d="M509 1679l325 272q9 7 17 -1q10 -10 0 -18l-329 -268zM915 1679l325 272q9 7 17 -1q10 -10 0 -18l-328 -268zM31 1556h450v-15h-77q-66 0 -101.5 -8.5t-43.5 -19t-8 -28.5v-988q0 -210 130.5 -346t335.5 -136q214 0 352.5 135.5t138.5 346.5v988q0 18 -8 28.5t-43.5 19
t-101.5 8.5h-77v15h425v-15h-21q-66 0 -101.5 -8.5t-43.5 -19t-8 -28.5v-988q0 -219 -145.5 -360.5t-366.5 -141.5q-215 0 -353.5 142.5t-138.5 359.5v988q0 18 -8 28.5t-43.5 19t-101.5 8.5h-41v15z" />
    <glyph glyph-name="uhungarumlaut" unicode="&#x171;" horiz-adv-x="1249" 
d="M360 1270l325 271q9 7 17 -1q9 -9 0 -17l-328 -269zM767 1270l325 271q9 7 17 -1q9 -9 0 -17l-329 -269zM51 1050v15h26l133 3v-783q0 -131 79 -199t233 -68q119 0 229.5 81t178.5 214.5t68 278.5v406q0 29 -24 40.5t-83 11.5h-26v15h26l133 3v-813l9 -102
q5 -57 24.5 -97t42.5 -41l98 17l4 -21l-99 -16h-2q-37 0 -62 47t-31 109l-10 103v103q0 32 -7 32q-6 0 -16 -25q-62 -159 -187.5 -264t-265.5 -105q-164 0 -251 74t-87 213v716q0 29 -24 40.5t-83 11.5h-26z" />
    <glyph glyph-name="Uogonek" unicode="&#x172;" 
d="M1229 1485v-988q0 -188 -109 -321.5t-285 -169.5q-42 -8 -73 -29q-8 -5 -41.5 -27.5t-47.5 -33.5t-43.5 -34.5t-44.5 -43t-33 -46.5t-25.5 -57.5t-7.5 -64.5q1 -59 38 -100t105 -41q96 0 172 88q7 9 15 1q6 -6 0 -14q-84 -96 -187 -96q-78 0 -122.5 47.5t-45.5 114.5
q0 32 8 62.5t19 53.5t32 48.5t35.5 41t42.5 37.5t41.5 31t43 28.5t35.5 23.5q-11 -1 -34 -1q-215 0 -353.5 142.5t-138.5 359.5v988q0 18 -8 28.5t-43.5 19t-101.5 8.5h-41v15h450v-15h-77q-66 0 -101.5 -8.5t-43.5 -19t-8 -28.5v-988q0 -210 130.5 -346t335.5 -136
q214 0 352.5 135.5t138.5 346.5v988q0 18 -8 28.5t-43.5 19t-101.5 8.5h-77v15h425v-15h-21q-66 0 -101.5 -8.5t-43.5 -19t-8 -28.5z" />
    <glyph glyph-name="uogonek" unicode="&#x173;" horiz-adv-x="1249" 
d="M51 1050v15h26l133 3v-783q0 -131 79 -199t233 -68q119 0 229.5 81t178.5 214.5t68 278.5v406q0 29 -24 40.5t-83 11.5h-26v15h26l133 3v-813l9 -107q6 -62 25.5 -97t42.5 -36l98 17l4 -21l-11 -2q-37 -6 -71.5 -15t-79 -29t-77 -46.5t-55 -70t-22.5 -95.5
q1 -59 37.5 -100.5t104.5 -41.5q95 0 172 88q5 6 16 1q6 -6 0 -14q-84 -96 -188 -96q-78 0 -122.5 48t-45.5 115q0 93 62.5 153t153.5 93q-27 10 -45 50t-23 95l-11 110v103q0 32 -7 32q-6 0 -16 -25q-62 -159 -187.5 -264t-265.5 -105q-164 0 -251 74t-87 213v716
q0 29 -24 40.5t-83 11.5h-26z" />
    <glyph glyph-name="Wcircumflex" unicode="&#x174;" horiz-adv-x="2170" 
d="M754 1649l-15 15l321 282h22l321 -282l-14 -15l-315 276h-6zM10 1556h409v-15h-73h-23q-82 0 -110.5 -6t-28.5 -30q0 -11 6 -28l475 -1394q10 -33 22 -33t22 32l366 1079l-105 309q-14 40 -51.5 55.5t-105.5 15.5v15h409v-15h-73h-24q-82 0 -110 -6t-28 -30q0 -11 6 -28
l474 -1394q10 -33 23 -33q11 0 21 32l475 1395q6 17 6 27q0 24 -29.5 30.5t-111.5 6.5h-23h-71v15h404v-15q-68 0 -105.5 -15.5t-51.5 -55.5l-501 -1473h-33l-385 1132l-385 -1132h-32l-501 1473q-14 40 -51.5 55.5t-105.5 15.5v15z" />
    <glyph glyph-name="wcircumflex" unicode="&#x175;" horiz-adv-x="1904" 
d="M584 1239l-15 15l321 282h22l321 -282l-14 -15l-315 277h-6zM696 1065h413v-15h-83q-89 0 -122 -7t-33 -30q0 -11 10 -33l394 -898q13 -32 24 -32t24 32l380 898q9 20 9 33q0 24 -32.5 30.5t-120.5 6.5h-82v15h407v-15h-11q-64 0 -99.5 -17.5t-52.5 -58.5l-410 -977h-28
l-308 705q-11 24 -22 24q-10 0 -20 -23l-298 -706h-28l-398 914q-35 79 -56.5 100t-71.5 21q-24 0 -48 -8q-4 -2 -7 -2q-20 0 -20 19q0 29 70 29q23 0 39 -2.5t30.5 -12.5t23 -17.5t21 -30t19.5 -37.5t23 -52l367 -836q13 -32 25 -32q10 0 23 32l295 697l-85 195
q-18 41 -52.5 58.5t-97.5 17.5h-11v15z" />
    <glyph glyph-name="Ycircumflex" unicode="&#x176;" horiz-adv-x="1351" 
d="M356 1649l-14 15l321 282h22l321 -282l-15 -15l-314 276h-6zM10 1556h414v-15h-145q-54 0 -78 -7t-24 -27q0 -14 11 -36l486 -887l485 887q11 22 11 36q0 20 -24 27t-77 7h-145v15h417v-15h-36q-24 0 -40.5 -3t-42 -22t-44.5 -55l-492 -898v-491q0 -18 8.5 -29t44 -19.5
t101.5 -8.5h36v-15h-410v15h41q50 0 82.5 4.5t47 13t19 17.5t4.5 22v483l-4 8l-491 898q-19 36 -44.5 55t-42 22t-40.5 3h-28v15z" />
    <glyph glyph-name="ycircumflex" unicode="&#x177;" horiz-adv-x="1187" 
d="M760 1065h407v-15h-11q-54 0 -84 -17.5t-47 -58.5l-429 -1020q-93 -220 -194.5 -332t-242.5 -112q-127 0 -204.5 54.5t-77.5 144.5q0 25 11 52q6 16 22 16q7 0 11 -2q17 -7 17 -23q0 -1 -3 -10q-11 -27 -11 -50q0 -73 65 -117.5t171 -44.5q132 0 229.5 109t187.5 322
l6 13q1 2 1 8q0 17 -16 57l-360 872q-33 79 -55 100t-72 21q-24 0 -48 -8q-4 -2 -7 -2q-20 0 -20 19q0 29 70 29q64 0 91 -29t65 -123l352 -847q12 -30 19 -30t20 31l384 908q9 23 9 33q0 23 -32.5 30t-121.5 7h-102v15zM256 1239l-14 15l320 282h23l320 -282l-14 -15
l-314 277h-7z" />
    <glyph glyph-name="Ydieresis" unicode="&#x178;" horiz-adv-x="1351" 
d="M387 1782q0 17 12 29t29 12t29 -12t12 -29t-12 -29t-29 -12t-29 12t-12 29zM879 1782q0 17 12 29t29 12t29 -12t12 -29t-12 -29t-29 -12t-29 12t-12 29zM10 1556h414v-15h-145q-54 0 -78 -7t-24 -27q0 -14 11 -36l486 -887l485 887q11 22 11 36q0 20 -24 27t-77 7h-145
v15h417v-15h-36q-24 0 -40.5 -3t-42 -22t-44.5 -55l-492 -898v-491q0 -18 8.5 -29t44 -19.5t101.5 -8.5h36v-15h-410v15h41q50 0 82.5 4.5t47 13t19 17.5t4.5 22v483l-4 8l-491 898q-19 36 -44.5 55t-42 22t-40.5 3h-28v15z" />
    <glyph glyph-name="Zacute" unicode="&#x179;" horiz-adv-x="1249" 
d="M499 1679l295 278q8 9 17 0q10 -10 2 -18l-300 -274zM124 1556h1055v-20q-34 0 -79.5 -34t-87.5 -101l-785 -1258q-47 -74 -116 -123h941q110 0 119 114l12 144l15 -3l-20 -266q0 -9 -11 -9h-1116v20q34 0 76 34t84 102l784 1257q27 44 65 78q13 12 13 23q0 9 -8.5 15.5
t-21.5 6.5h-802q-110 0 -119 -112l-11 -145l-18 2l21 266q0 9 10 9z" />
    <glyph glyph-name="zacute" unicode="&#x17a;" horiz-adv-x="1085" 
d="M458 1270l295 277q9 9 17 0q10 -9 2 -17l-300 -275zM124 1065h892v-21q-58 0 -167 -135l-622 -766q-79 -97 -116 -123h777q54 0 85 29t35 85l11 144l15 -3l-20 -266q0 -9 -10 -9h-953l1 20q30 0 65 32t94 104l622 766q35 43 70 78q15 15 15 26q0 18 -29 18h-648
q-110 0 -119 -111l-11 -146l-8 3l11 266q0 9 10 9z" />
    <glyph glyph-name="Zdotaccent" unicode="&#x17b;" horiz-adv-x="1249" 
d="M563 1823q0 17 12 29t29 12t29 -12t12 -29t-12 -29t-29 -12t-29 12t-12 29zM124 1556h1055v-20q-34 0 -79.5 -34t-87.5 -101l-785 -1258q-47 -74 -116 -123h941q110 0 119 114l12 144l15 -3l-20 -266q0 -9 -11 -9h-1116v20q34 0 76 34t84 102l784 1257q27 44 65 78
q13 12 13 23q0 9 -8.5 15.5t-21.5 6.5h-802q-110 0 -119 -112l-11 -145l-18 2l21 266q0 9 10 9z" />
    <glyph glyph-name="zdotaccent" unicode="&#x17c;" horiz-adv-x="1085" 
d="M532 1413q0 17 12 29t29 12t29 -12t12 -29t-12 -29t-29 -12t-29 12t-12 29zM241 1044q-110 0 -119 -111l-11 -146l-8 3l11 266q0 9 10 9h892v-21q-58 0 -167 -135l-622 -766q-79 -97 -116 -123h777q54 0 85 29t35 85l11 144l15 -3l-20 -266q0 -9 -10 -9h-953l1 20
q30 0 65 32t94 104l622 766q35 43 70 78q15 15 15 26q0 18 -29 18h-648z" />
    <glyph glyph-name="Zcaron" unicode="&#x17d;" horiz-adv-x="1249" 
d="M287 1956l314 -277h6l315 277l14 -16l-321 -281h-22l-321 281zM124 1556h1055v-20q-34 0 -79.5 -34t-87.5 -101l-785 -1258q-47 -74 -116 -123h941q110 0 119 114l12 144l15 -3l-20 -266q0 -9 -11 -9h-1116v20q34 0 76 34t84 102l784 1257q27 44 65 78q13 12 13 23
q0 9 -8.5 15.5t-21.5 6.5h-802q-110 0 -119 -112l-11 -145l-18 2l21 266q0 9 10 9z" />
    <glyph glyph-name="zcaron" unicode="&#x17e;" horiz-adv-x="1085" 
d="M246 1546l314 -276h6l315 276l14 -15l-321 -282h-22l-321 282zM241 1044q-110 0 -119 -111l-11 -146l-8 3l11 266q0 9 10 9h892v-21q-58 0 -167 -135l-622 -766q-79 -97 -116 -123h777q54 0 85 29t35 85l11 144l15 -3l-20 -266q0 -9 -10 -9h-953l1 20q30 0 65 32t94 104
l622 766q35 43 70 78q15 15 15 26q0 18 -29 18h-648z" />
    <glyph glyph-name="florin" unicode="&#x192;" horiz-adv-x="737" 
d="M727 1522q3 -1 4.5 -6.5t-2.5 -11.5q-7 -11 -15 -6q-55 38 -136 38q-55 0 -107 -19t-98 -56.5t-76 -103.5t-34 -151l-7 -125q-1 -21 10 -29t25 -8h152l-1 -20h-152q-20 0 -28.5 -9t-9.5 -27l-70 -1311h-25l69 1312q1 19 -7.5 27t-28.5 8h-127l2 20h126q37 0 39 37l8 126
q5 88 37.5 157.5t82 110t106 61t115.5 20.5q89 0 148 -34z" />
    <glyph glyph-name="uni01C4" unicode="&#x1c4;" horiz-adv-x="2688" 
d="M1725 1956l315 -277h6l314 277l15 -16l-321 -281h-22l-321 281zM1563 1556h1054v-20q-34 0 -79.5 -34t-87.5 -101l-784 -1258q-46 -73 -117 -123h941q54 0 85 29t35 85l11 144l16 -3l-21 -266q0 -9 -10 -9h-1116v20q34 0 76 34t84 102l784 1257q27 44 65 78q13 12 13 23
q0 9 -8.5 15.5t-21.5 6.5h-803q-109 0 -118 -112l-12 -145l-17 2l20 266q0 9 11 9zM51 1556h589q160 0 299 -58.5t237.5 -160.5t155 -247t56.5 -312t-56.5 -312t-155 -247t-237.5 -160.5t-299 -58.5h-589v15h41q66 0 101.5 9t44 20t8.5 29v1417q0 27 -30 39t-124 12h-41v15z
M272 1536l-1 -1516h364q208 0 374.5 97.5t259.5 270.5t93 390t-93 390t-259.5 270.5t-374.5 97.5h-363z" />
    <glyph glyph-name="uni01C5" unicode="&#x1c5;" horiz-adv-x="2544" 
d="M51 0v15h41q66 0 101.5 9t44 20t8.5 29v1417q0 27 -30 39t-124 12h-41v15h615q214 0 384.5 -99.5t266.5 -277.5t96 -401t-96 -401t-266.5 -277.5t-384.5 -99.5h-615zM271 20h389q208 0 374.5 97.5t260 270.5t93.5 390t-93.5 390t-260 270.5t-374.5 97.5h-388zM1705 1546
l314 -276h6l315 276l14 -15l-320 -282h-23l-320 282zM1731 1044q-110 0 -119 -111l-11 -146l-8 3l11 266q0 9 10 9h861v-21q-58 0 -167 -135l-621 -766q-78 -95 -117 -123h777q54 0 85 29t35 85l11 144l15 -3l-20 -266q0 -9 -10 -9h-953l1 20q30 0 65 32t94 104l622 766
q35 43 70 78q15 15 15 26q0 18 -29 18h-617z" />
    <glyph glyph-name="uni01C6" unicode="&#x1c6;" horiz-adv-x="2237" 
d="M1398 1546l314 -276h6l315 276l14 -15l-321 -282h-22l-321 282zM1393 1044q-110 0 -119 -111l-11 -146l-8 3l11 266q0 9 10 9h892v-21q-58 0 -167 -135l-622 -766q-79 -97 -116 -123h777q54 0 85 29t35 85l11 144l15 -3l-20 -266q0 -9 -10 -9h-953l1 20q30 0 65 32
t94 104l622 766q35 43 70 78q15 15 15 26q0 18 -29 18h-648zM901 318v575q-206 157 -391 157q-182 0 -300 -146.5t-118 -371.5t121 -371t307 -146q136 0 237.5 83t143.5 220zM927 1560v-1305l9 -102q5 -58 24 -98.5t42 -41.5l100 19l4 -21l-100 -16h-2q-37 0 -62.5 47
t-31.5 109l-4 46q-3 27 -11 27q-9 0 -21 -21q-57 -97 -148.5 -152.5t-205.5 -55.5q-197 0 -325 152t-128 385t125 385.5t318 152.5q187 0 391 -151v571q0 28 -24 39.5t-83 11.5h-46v15h46z" />
    <glyph glyph-name="uni01C7" unicode="&#x1c7;" horiz-adv-x="1873" 
d="M1372 1556h471v-15h-36q-94 0 -123.5 -12t-29.5 -39v-1459q0 -227 -111 -375t-282 -148q-62 0 -110 38q-9 6 -9 17q0 8 6.5 15t14.5 7t15 -5q48 -38 98 -38q154 0 253 138t99 351v1459q0 27 -29.5 39t-123.5 12h-103v15zM51 1556h410v-15h-36q-65 0 -100 -7.5t-44.5 -18
t-9.5 -28.5v-1467h827q69 0 97 27t33 93l16 260l21 -2l-26 -389q0 -9 -10 -9h-1178v15h41q66 0 101.5 9t44 20t8.5 29v1414q0 18 -9.5 28.5t-44.5 18t-100 7.5h-41v15z" />
    <glyph glyph-name="uni01C8" unicode="&#x1c8;" horiz-adv-x="1710" 
d="M1518 1413q0 17 12 29t29 12t28.5 -12t11.5 -29t-11.5 -29t-28.5 -12t-29 12t-12 29zM1266 -458q50 0 94 19.5t82.5 60.5t61 117t22.5 179v1080q0 29 -24.5 40.5t-83.5 11.5h-46v15h46l133 3v-1150q0 -206 -86 -308t-215 -102q-61 0 -109 38q-9 6 -9 17q0 8 6.5 15
t14.5 7q7 0 14 -5q47 -38 99 -38zM51 1556h410v-15h-36q-65 0 -100 -7.5t-44.5 -18t-9.5 -28.5v-1467h827q69 0 97 27t33 93l16 260l21 -2l-26 -389q0 -9 -10 -9h-1178v15h41q66 0 101.5 9t44 20t8.5 29v1414q0 18 -9.5 28.5t-44.5 18t-100 7.5h-41v15z" />
    <glyph glyph-name="uni01C9" unicode="&#x1c9;" horiz-adv-x="901" 
d="M709 1413q0 17 12 29t29 12t29 -12t12 -29t-12 -29t-29 -12t-29 12t-12 29zM457 -458q50 0 94 19.5t82.5 60.5t61 117t22.5 179v1080q0 29 -24.5 40.5t-83.5 11.5h-46v15h46l133 3v-1150q0 -206 -86 -308t-215 -102q-61 0 -109 38q-9 6 -9 17q0 8 6.5 15t14.5 7
q7 0 14 -5q48 -38 99 -38zM271 72q0 -18 8.5 -29t44 -19.5t101.5 -8.5h36v-15h-410v15h41q66 0 101.5 8.5t44 19.5t8.5 29v1418q0 28 -24 39.5t-84 11.5h-46v15h46l133 4v-1488z" />
    <glyph glyph-name="uni01CA" unicode="&#x1ca;" horiz-adv-x="2017" 
d="M1516 1556h471v-15h-36q-94 0 -124 -12t-30 -39v-1459q0 -227 -111 -375t-282 -148q-62 0 -110 38q-9 6 -9 17q0 8 7 15t15 7q7 0 14 -5q47 -38 98 -38q154 0 253.5 138t99.5 351v1459q0 27 -30 39t-124 12h-102v15zM51 1556h235q6 0 8 -5l911 -1461q11 -18 22 -18
q12 0 12 26v1387q0 28 -30.5 42t-123.5 14h-41v15h390v-15h-21q-93 0 -123 -14t-30 -42v-1485h-22q-6 0 -9 5l-956 1531h-9q12 -49 12 -114v-1350q0 -18 8.5 -29t44 -19.5t101.5 -8.5h36v-15h-405v15h41q66 0 101.5 8.5t44 19.5t8.5 29v1351q0 32 -9 54t-23 34.5t-40.5 19
t-52.5 8.5t-68 2h-12v15z" />
    <glyph glyph-name="uni01CB" unicode="&#x1cb;" horiz-adv-x="1853" 
d="M1661 1413q0 17 12 29t29 12t29 -12t12 -29t-12 -29t-29 -12t-29 12t-12 29zM1409 -458q50 0 94 19.5t82.5 60.5t61 117t22.5 179v1080q0 29 -24 40.5t-83 11.5h-46v15h46l133 3v-1150q0 -206 -86 -308t-215 -102q-62 0 -110 38q-9 6 -9 17q0 8 6.5 15t14.5 7t15 -5
q47 -38 98 -38zM51 1556h235q6 0 8 -5l911 -1461q11 -18 22 -18q12 0 12 26v1387q0 28 -30.5 42t-123.5 14h-41v15h390v-15h-21q-93 0 -123 -14t-30 -42v-1485h-22q-6 0 -9 5l-956 1531h-9q12 -49 12 -114v-1350q0 -18 8.5 -29t44 -19.5t101.5 -8.5h36v-15h-405v15h41
q66 0 101.5 8.5t44 19.5t8.5 29v1351q0 32 -9 54t-23 34.5t-40.5 19t-52.5 8.5t-68 2h-12v15z" />
    <glyph glyph-name="uni01CC" unicode="&#x1cc;" horiz-adv-x="1710" 
d="M1518 1413q0 17 12 29t29 12t28.5 -12t11.5 -29t-11.5 -29t-28.5 -12t-29 12t-12 29zM1266 -458q50 0 94 19.5t82.5 60.5t61 117t22.5 179v1080q0 29 -24.5 40.5t-83.5 11.5h-46v15h46l133 3v-1150q0 -206 -86 -308t-215 -102q-61 0 -109 38q-9 6 -9 17q0 8 6.5 15
t14.5 7q7 0 14 -5q47 -38 99 -38zM113 1065h25l133 3v-360q0 -32 8 -32q6 0 16 25q62 159 187.5 264t265.5 105q164 0 250.5 -73.5t86.5 -213.5v-711q0 -18 8.5 -29t44 -19.5t101.5 -8.5h41v-15h-430v15h56q66 0 101.5 8.5t44 19.5t8.5 29v708q0 131 -79 199t-233 68
q-119 0 -229.5 -81t-179 -214.5t-68.5 -278.5v-401q0 -18 8.5 -29t44 -19.5t101.5 -8.5h56v-15h-430v15h41q66 0 101.5 8.5t44 19.5t8.5 29v926q0 29 -24.5 40.5t-83.5 11.5h-25v15z" />
    <glyph glyph-name="uni01CD" unicode="&#x1cd;" 
d="M388 1956l314 -277h7l314 277l14 -16l-320 -281h-23l-320 281zM335 512h729l-330 922q-17 48 -21 68h-24zM20 0v15h6q64 0 93 17t44 59l522 1458q3 7 9 7h28q10 0 10 -10q0 -33 26 -106l480 -1340q18 -49 46 -67t88 -18h41v-15h-399v15h102q63 0 86 7t23 28q0 13 -12 46
l-142 396h-743l-147 -407q-5 -17 -5 -26q0 -27 34 -35.5t117 -8.5h42v-15h-349z" />
    <glyph glyph-name="uni01CE" unicode="&#x1ce;" horiz-adv-x="1136" 
d="M215 1546l314 -276h7l314 276l14 -15l-320 -282h-23l-320 282zM896 662q-14 -23 -38.5 -42t-58 -32t-64.5 -21.5t-74.5 -14.5t-70 -9t-69 -6.5t-54.5 -4.5q-83 -9 -147 -26t-117.5 -47.5t-82 -79t-28.5 -113.5q0 -109 105.5 -180t268.5 -71q117 0 217.5 65t156.5 166.5
t56 209.5v206zM585 1070q147 0 242 -93.5t95 -238.5v-497l16 -98q20 -122 62 -123l110 11l2 -21l-112 -15h-1q-64 0 -87 144q-2 11 -6 37t-7 43t-3 21v22q0 28 -7 28t-16 -22q-56 -119 -165 -196t-242 -77q-174 0 -286.5 76.5t-112.5 194.5q0 245 398 287q12 1 52 5t63.5 6
t64.5 8t67.5 12.5t60 17.5t54.5 24t39 32t25 41q5 18 5 33v6q-1 135 -87 223.5t-221 88.5q-154 0 -262.5 -59.5t-108.5 -144.5q0 -22 -21 -22q-22 0 -22 22q0 93 120.5 158.5t290.5 65.5z" />
    <glyph glyph-name="uni01CF" unicode="&#x1cf;" horiz-adv-x="512" 
d="M-58 1956l314 -277h6l315 277l14 -16l-321 -281h-22l-321 281zM461 0h-410v15h41q66 0 101.5 8.5t44 19.5t8.5 29v1416q0 27 -30 40t-124 13h-41v15h410v-15h-36q-94 0 -124 -13t-30 -40v-1416q0 -18 8.5 -29t44 -19.5t101.5 -8.5h36v-15z" />
    <glyph glyph-name="uni01D0" unicode="&#x1d0;" horiz-adv-x="512" 
d="M-61 1546l314 -276h6l314 276l15 -15l-321 -282h-22l-321 282zM271 72q0 -18 8.5 -29t44 -19.5t101.5 -8.5h36v-15h-410v15h41q66 0 101.5 8.5t44 19.5t8.5 29v926q0 29 -24.5 40.5t-83.5 11.5h-25v15h25l133 3v-996z" />
    <glyph glyph-name="uni01D1" unicode="&#x1d1;" horiz-adv-x="1443" 
d="M404 1956l315 -277h6l314 277l15 -16l-321 -281h-22l-321 281zM722 -5q-141 0 -262.5 59t-208 161.5t-135.5 248.5t-49 314q0 225 84 404t233.5 279.5t337.5 100.5t337.5 -100.5t233.5 -279.5t84 -404q0 -168 -49 -314t-135.5 -248.5t-208 -161.5t-262.5 -59zM722 15
q181 0 325 98t224.5 272.5t80.5 392.5t-80.5 392.5t-224.5 272.5t-325 98t-325 -98t-224.5 -272.5t-80.5 -392.5t80.5 -392.5t224.5 -272.5t325 -98z" />
    <glyph glyph-name="uni01D2" unicode="&#x1d2;" horiz-adv-x="1136" 
d="M246 1546l314 -276h6l315 276l14 -15l-321 -282h-22l-321 282zM568 1070q218 0 360 -152.5t142 -385.5t-142 -385t-360 -152t-359.5 152t-141.5 385q0 234 141.5 386t359.5 152zM568 1050q-207 0 -341.5 -146.5t-134.5 -371.5t134.5 -371t341.5 -146t341.5 146t134.5 371
t-134.5 371.5t-341.5 146.5z" />
    <glyph glyph-name="uni01D3" unicode="&#x1d3;" 
d="M415 1956l314 -277h6l315 277l14 -16l-321 -281h-22l-321 281zM31 1556h450v-15h-77q-66 0 -101.5 -8.5t-43.5 -19t-8 -28.5v-988q0 -210 130.5 -346t335.5 -136q214 0 352.5 135.5t138.5 346.5v988q0 18 -8 28.5t-43.5 19t-101.5 8.5h-77v15h425v-15h-21
q-66 0 -101.5 -8.5t-43.5 -19t-8 -28.5v-988q0 -219 -145.5 -360.5t-366.5 -141.5q-215 0 -353.5 142.5t-138.5 359.5v988q0 18 -8 28.5t-43.5 19t-101.5 8.5h-41v15z" />
    <glyph glyph-name="uni01D4" unicode="&#x1d4;" horiz-adv-x="1249" 
d="M287 1546l314 -276h6l315 276l14 -15l-321 -282h-22l-321 282zM51 1050v15h26l133 3v-783q0 -131 79 -199t233 -68q119 0 229.5 81t178.5 214.5t68 278.5v406q0 29 -24 40.5t-83 11.5h-26v15h26l133 3v-813l9 -102q5 -57 24.5 -97t42.5 -41l98 17l4 -21l-99 -16h-2
q-37 0 -62 47t-31 109l-10 103v103q0 32 -7 32q-6 0 -16 -25q-62 -159 -187.5 -264t-265.5 -105q-164 0 -251 74t-87 213v716q0 29 -24 40.5t-83 11.5h-26z" />
    <glyph glyph-name="uni01E2" unicode="&#x1e2;" horiz-adv-x="2048" 
d="M1434 1843h-656v21h656v-21zM1874 1556q10 0 10 -9l26 -389l-21 -2l-16 260q-4 67 -33 93.5t-97 26.5h-641l-1 -758h322q41 0 41 277v61h21v-696h-21v61q0 277 -41 277h-322v-738h724q69 0 97 27t33 93l16 260l21 -2l-26 -389q0 -9 -10 -9h-1075v15h41q66 0 101.5 9
t43.5 20t8 29v419h-719l-174 -407q-7 -15 -7 -28q0 -26 35 -34t118 -8h41v-15h-349v15h6q63 0 90.5 16.5t46.5 59.5l593 1384q4 12 4 19q0 19 -12.5 33t-37.5 14h-39v15h46h1157zM366 512h709v952q0 39 -16 55.5t-55 16.5h-155q-47 0 -74 -67z" />
    <glyph glyph-name="uni01E3" unicode="&#x1e3;" horiz-adv-x="1945" 
d="M1266 1434h-656v20h656v-20zM923 563h878q46 0 46 70q0 17 -3 31q-31 175 -149 280.5t-297 105.5q-200 0 -332.5 -136t-142.5 -351zM922 543v-11q0 -225 130.5 -371t335.5 -146q315 0 449 237l18 -10q-64 -114 -180.5 -180.5t-286.5 -66.5q-176 0 -303.5 105t-170.5 277
q-20 -65 -41 -109q-55 -119 -164.5 -196t-242.5 -77q-174 0 -286.5 76.5t-112.5 194.5q0 245 398 287q56 6 121 7.5t160.5 1.5t149.5 1v175q-1 135 -87 223.5t-221 88.5q-154 0 -262.5 -59.5t-108.5 -144.5q0 -22 -21 -22q-22 0 -22 22q0 93 120.5 158.5t290.5 65.5
q147 0 242 -93.5t95 -238.5v-25q49 163 177 260t299 97q217 0 349 -145.5t132 -371.5q0 -10 -10 -10h-947zM896 543q-55 -1 -164 -3t-173 -3.5t-92 -4.5q-83 -9 -147 -26t-117.5 -47.5t-82 -79t-28.5 -113.5q0 -109 105.5 -180t268.5 -71q117 0 217.5 65t156.5 166.5
t56 209.5v76v11z" />
    <glyph glyph-name="Gcaron" unicode="&#x1e6;" horiz-adv-x="1346" 
d="M374 1956l314 -277h6l315 277l14 -16l-321 -281h-22l-321 281zM1071 1447l-5 130h15l15 -389q0 -8 -7 -8q-9 0 -9 8q-3 74 -34 136t-75 101t-97.5 66t-99.5 38.5t-83 11.5q-269 0 -434 -209t-165 -552q0 -219 71.5 -393.5t199 -273t287.5 -98.5q176 0 386 169
q70 58 96 89v402q0 27 -30 39.5t-124 12.5h-205v21h543v-21h-22q-87 0 -114.5 -13t-27.5 -39v-680q0 -10 -10 -10t-10 10v151q0 57 -20 57q-17 0 -62 -34q-218 -174 -400 -174q-167 0 -300.5 100.5t-208 280t-74.5 404.5q0 232 77.5 410t219 275t327.5 97q74 0 172 -42
t162 -124q16 -19 27 -19q19 0 19 36v34z" />
    <glyph glyph-name="gcaron" unicode="&#x1e7;" horiz-adv-x="1146" 
d="M225 1546l315 -276h6l314 276l14 -15l-320 -282h-23l-320 282zM251 148q-210 -204 -210 -364q0 -107 143.5 -178.5t371.5 -71.5q266 0 403 64t137 188q0 70 -21.5 121t-55 80.5t-86 48t-101.5 25.5t-116 10q-28 1 -94.5 3t-99.5 4.5t-81 9t-79.5 20t-54.5 35.5
q-23 21 -31 21q-7 0 -25 -16zM543 1050q-172 0 -278 -92t-106 -262q0 -163 102 -258t282 -95q163 0 263 92t100 261q0 162 -96.5 258t-266.5 96zM543 1070q166 0 270 -90q13 -11 21 -11t14 14q30 86 109 87q101 0 101 -29q0 -10 -6 -16.5t-15 -6.5q-13 0 -38 16t-44 16
q-38 0 -64.5 -30.5t-33.5 -85.5q75 -95 75 -238q0 -178 -109 -275.5t-280 -97.5q-114 0 -196 35q-62 -60 -62 -109q0 -38 13 -63q10 -19 27 -33t44.5 -23t51.5 -15t66 -9t69.5 -4.5t80 -3.5t80.5 -3q67 -3 116.5 -10t106 -27t92.5 -52t60 -88t24 -132q0 -137 -145.5 -207.5
t-414.5 -70.5q-233 0 -384.5 77t-151.5 199q0 171 219 381q25 25 25 76v8q0 55 64 119q-93 45 -144 129.5t-51 198.5q0 179 115.5 276.5t294.5 97.5z" />
    <glyph glyph-name="uni01E8" unicode="&#x1e8;" horiz-adv-x="1336" 
d="M338 1956l314 -277h6l315 277l14 -16l-320 -281h-23l-320 281zM51 1556h430v-15h-56q-65 0 -100 -7.5t-44.5 -18t-9.5 -28.5v-668h171q16 0 37.5 12t32.5 26l488 618q24 30 24 43q0 23 -74 23h-112v15h391v-15h-16q-134 0 -196 -79l-516 -653l521 -663q103 -130 165 -130
q27 0 43.5 8t42.5 29q7 5 13 5q8 0 14 -5.5t6 -13.5q0 -9 -10 -16q-48 -38 -97 -38q-53 0 -92.5 31.5t-106.5 117.5l-493 628q-9 13 -29 25t-36 12h-171v-727q0 -18 8.5 -29t44 -19.5t101.5 -8.5h56v-15h-430v15h41q66 0 101.5 8.5t44 19.5t8.5 29v1415q0 18 -9.5 28.5
t-44.5 18t-100 7.5h-41v15z" />
    <glyph glyph-name="uni01E9" unicode="&#x1e9;" horiz-adv-x="1144" 
d="M92 1556h46l133 4v-987h171q16 0 37.5 12t32.5 26l294 372q21 27 21 41q0 26 -78 26h-106v15h390v-15q-29 0 -50 -2t-53 -8.5t-59.5 -24t-48.5 -44.5l-321 -408l327 -417q103 -130 164 -130q27 0 44.5 8.5t43.5 28.5q7 5 15 5t13.5 -5.5t5.5 -13.5q0 -10 -9 -16
q-48 -38 -99 -38q-53 0 -92.5 31.5t-106.5 117.5l-300 382q-9 13 -29 25t-36 12h-171v-481q0 -18 8.5 -29t44 -19.5t101.5 -8.5h36v-15h-410v15h41q66 0 101.5 8.5t44 19.5t8.5 29v1418q0 28 -24 39.5t-84 11.5h-46v15zM148 1915l315 -277h6l314 277l15 -15l-321 -282h-22
l-321 282z" />
    <glyph glyph-name="uni01EA" unicode="&#x1ea;" horiz-adv-x="1443" 
d="M722 15q181 0 325 98t224.5 272.5t80.5 392.5t-80.5 392.5t-224.5 272.5t-325 98t-325 -98t-224.5 -272.5t-80.5 -392.5t80.5 -392.5t224.5 -272.5t325 -98zM722 -5q-141 0 -262.5 59t-208 161.5t-135.5 248.5t-49 314q0 225 84 404t233.5 279.5t337.5 100.5
t337.5 -100.5t233.5 -279.5t84 -404q0 -295 -141.5 -504t-371.5 -263q-38 -9 -71 -31q-10 -7 -36 -24.5t-41 -28t-39.5 -30t-40 -35t-34 -38.5t-29 -45.5t-18 -50.5t-7.5 -58q1 -59 37.5 -100t104.5 -41q96 0 172 88q8 9 16 1q6 -6 0 -14q-84 -96 -188 -96
q-78 0 -122.5 47.5t-45.5 114.5q0 37 8.5 70t28.5 62.5t36.5 51t48 46.5t47 37t50 34.5t41.5 26.5q-28 -3 -60 -3z" />
    <glyph glyph-name="uni01EB" unicode="&#x1eb;" horiz-adv-x="1136" 
d="M568 1050q-207 0 -341.5 -146.5t-134.5 -371.5t134.5 -371t341.5 -146t341.5 146t134.5 371t-134.5 371.5t-341.5 146.5zM568 1070q218 0 360 -152.5t142 -385.5q0 -205 -111 -349.5t-291 -178.5q-34 -7 -62 -26q-10 -7 -41 -27.5t-47.5 -33t-45 -35t-44.5 -43t-33.5 -47
t-25.5 -57.5t-8 -65q1 -59 38 -100t105 -41q96 0 172 88q7 9 15 1q6 -6 0 -14q-84 -96 -187 -96q-78 0 -122.5 47.5t-45.5 114.5q0 32 8 62.5t19.5 54t31.5 48.5t36.5 41.5t43 37t41.5 31t42 28t36 23.5q-4 0 -12.5 -0.5t-13.5 -0.5q-218 0 -359.5 152t-141.5 385
q0 234 141.5 386t359.5 152z" />
    <glyph glyph-name="uni01EC" unicode="&#x1ec;" horiz-adv-x="1443" 
d="M1050 1682h-656v21h656v-21zM722 15q181 0 325 98t224.5 272.5t80.5 392.5t-80.5 392.5t-224.5 272.5t-325 98t-325 -98t-224.5 -272.5t-80.5 -392.5t80.5 -392.5t224.5 -272.5t325 -98zM722 -5q-141 0 -262.5 59t-208 161.5t-135.5 248.5t-49 314q0 225 84 404
t233.5 279.5t337.5 100.5t337.5 -100.5t233.5 -279.5t84 -404q0 -295 -141.5 -504t-371.5 -263q-38 -9 -71 -31q-10 -7 -36 -24.5t-41 -28t-39.5 -30t-40 -35t-34 -38.5t-29 -45.5t-18 -50.5t-7.5 -58q1 -59 37.5 -100t104.5 -41q96 0 172 88q8 9 16 1q6 -6 0 -14
q-84 -96 -188 -96q-78 0 -122.5 47.5t-45.5 114.5q0 37 8.5 70t28.5 62.5t36.5 51t48 46.5t47 37t50 34.5t41.5 26.5q-28 -3 -60 -3z" />
    <glyph glyph-name="uni01ED" unicode="&#x1ed;" horiz-adv-x="1136" 
d="M896 1193h-655v20h655v-20zM568 1050q-207 0 -341.5 -146.5t-134.5 -371.5t134.5 -371t341.5 -146t341.5 146t134.5 371t-134.5 371.5t-341.5 146.5zM568 1070q218 0 360 -152.5t142 -385.5q0 -205 -111 -349.5t-291 -178.5q-34 -7 -62 -26q-10 -7 -41 -27.5t-47.5 -33
t-45 -35t-44.5 -43t-33.5 -47t-25.5 -57.5t-8 -65q1 -59 38 -100t105 -41q96 0 172 88q7 9 15 1q6 -6 0 -14q-84 -96 -187 -96q-78 0 -122.5 47.5t-45.5 114.5q0 32 8 62.5t19.5 54t31.5 48.5t36.5 41.5t43 37t41.5 31t42 28t36 23.5q-4 0 -12.5 -0.5t-13.5 -0.5
q-218 0 -359.5 152t-141.5 385q0 234 141.5 386t359.5 152z" />
    <glyph glyph-name="uni01F0" unicode="&#x1f0;" horiz-adv-x="389" 
d="M-100 1546l314 -276h6l315 276l14 -15l-321 -282h-22l-321 282zM-35 -458q50 0 94 19.5t82.5 60.5t61 117t22.5 179v1080q0 29 -24 40.5t-83 11.5h-46v15h46l133 3v-1150q0 -206 -86 -308t-215 -102q-62 0 -110 38q-9 6 -9 17q0 8 7 15t15 7q7 0 14 -5q48 -38 98 -38z
" />
    <glyph glyph-name="uni01F1" unicode="&#x1f1;" horiz-adv-x="2688" 
d="M1563 1556h1054v-20q-34 0 -79.5 -34t-87.5 -101l-784 -1258q-46 -73 -117 -123h941q54 0 85 29t35 85l11 144l16 -3l-21 -266q0 -9 -10 -9h-1116v20q34 0 76 34t84 102l784 1257q27 44 65 78q13 12 13 23q0 9 -8.5 15.5t-21.5 6.5h-803q-109 0 -118 -112l-12 -145l-17 2
l20 266q0 9 11 9zM51 1556h589q160 0 299 -58.5t237.5 -160.5t155 -247t56.5 -312t-56.5 -312t-155 -247t-237.5 -160.5t-299 -58.5h-589v15h41q66 0 101.5 9t44 20t8.5 29v1417q0 27 -30 39t-124 12h-41v15zM272 1536l-1 -1516h364q208 0 374.5 97.5t259.5 270.5t93 390
t-93 390t-259.5 270.5t-374.5 97.5h-363z" />
    <glyph glyph-name="uni01F2" unicode="&#x1f2;" horiz-adv-x="2544" 
d="M51 0v15h41q66 0 101.5 9t44 20t8.5 29v1417q0 27 -30 39t-124 12h-41v15h615q214 0 384.5 -99.5t266.5 -277.5t96 -401t-96 -401t-266.5 -277.5t-384.5 -99.5h-615zM271 20h389q208 0 374.5 97.5t260 270.5t93.5 390t-93.5 390t-260 270.5t-374.5 97.5h-388zM1731 1044
q-110 0 -119 -111l-11 -146l-8 3l11 266q0 9 10 9h861v-21q-58 0 -167 -135l-621 -766q-78 -95 -117 -123h777q54 0 85 29t35 85l11 144l15 -3l-20 -266q0 -9 -10 -9h-953l1 20q30 0 65 32t94 104l622 766q35 43 70 78q15 15 15 26q0 18 -29 18h-617z" />
    <glyph glyph-name="uni01F3" unicode="&#x1f3;" horiz-adv-x="2237" 
d="M1393 1044q-110 0 -119 -111l-11 -146l-8 3l11 266q0 9 10 9h892v-21q-58 0 -167 -135l-622 -766q-79 -97 -116 -123h777q54 0 85 29t35 85l11 144l15 -3l-20 -266q0 -9 -10 -9h-953l1 20q30 0 65 32t94 104l622 766q35 43 70 78q15 15 15 26q0 18 -29 18h-648zM901 318
v575q-206 157 -391 157q-182 0 -300 -146.5t-118 -371.5t121 -371t307 -146q136 0 237.5 83t143.5 220zM927 1560v-1305l9 -102q5 -58 24 -98.5t42 -41.5l100 19l4 -21l-100 -16h-2q-37 0 -62.5 47t-31.5 109l-4 46q-3 27 -11 27q-9 0 -21 -21q-57 -97 -148.5 -152.5
t-205.5 -55.5q-197 0 -325 152t-128 385t125 385.5t318 152.5q187 0 391 -151v571q0 28 -24 39.5t-83 11.5h-46v15h46z" />
    <glyph glyph-name="uni01F4" unicode="&#x1f4;" horiz-adv-x="1346" 
d="M586 1679l295 278q9 9 17 0q10 -10 2 -18l-300 -274zM1071 1447l-5 130h15l15 -389q0 -8 -7 -8q-9 0 -9 8q-3 74 -34 136t-75 101t-97.5 66t-99.5 38.5t-83 11.5q-269 0 -434 -209t-165 -552q0 -219 71.5 -393.5t199 -273t287.5 -98.5q176 0 386 169q70 58 96 89v402
q0 27 -30 39.5t-124 12.5h-205v21h543v-21h-22q-87 0 -114.5 -13t-27.5 -39v-680q0 -10 -10 -10t-10 10v151q0 57 -20 57q-17 0 -62 -34q-218 -174 -400 -174q-167 0 -300.5 100.5t-208 280t-74.5 404.5q0 232 77.5 410t219 275t327.5 97q74 0 172 -42t162 -124
q16 -19 27 -19q19 0 19 36v34z" />
    <glyph glyph-name="uni01F5" unicode="&#x1f5;" horiz-adv-x="1146" 
d="M437 1270l295 277q9 9 18 0q10 -9 2 -17l-300 -275zM251 148q-210 -204 -210 -364q0 -107 143.5 -178.5t371.5 -71.5q266 0 403 64t137 188q0 70 -21.5 121t-55 80.5t-86 48t-101.5 25.5t-116 10q-28 1 -94.5 3t-99.5 4.5t-81 9t-79.5 20t-54.5 35.5q-23 21 -31 21
q-7 0 -25 -16zM543 1050q-172 0 -278 -92t-106 -262q0 -163 102 -258t282 -95q163 0 263 92t100 261q0 162 -96.5 258t-266.5 96zM543 1070q166 0 270 -90q13 -11 21 -11t14 14q30 86 109 87q101 0 101 -29q0 -10 -6 -16.5t-15 -6.5q-13 0 -38 16t-44 16q-38 0 -64.5 -30.5
t-33.5 -85.5q75 -95 75 -238q0 -178 -109 -275.5t-280 -97.5q-114 0 -196 35q-62 -60 -62 -109q0 -38 13 -63q10 -19 27 -33t44.5 -23t51.5 -15t66 -9t69.5 -4.5t80 -3.5t80.5 -3q67 -3 116.5 -10t106 -27t92.5 -52t60 -88t24 -132q0 -137 -145.5 -207.5t-414.5 -70.5
q-233 0 -384.5 77t-151.5 199q0 171 219 381q25 25 25 76v8q0 55 64 119q-93 45 -144 129.5t-51 198.5q0 179 115.5 276.5t294.5 97.5z" />
    <glyph glyph-name="uni01F8" unicode="&#x1f8;" horiz-adv-x="1464" 
d="M889 1679l-15 -14l-300 274q-8 7 3 18q9 9 17 0zM51 1556h235q6 0 8 -5l911 -1461q11 -18 22 -18q12 0 12 26v1387q0 28 -30.5 42t-123.5 14h-41v15h390v-15h-21q-93 0 -123 -14t-30 -42v-1485h-22q-6 0 -9 5l-956 1531h-9q12 -49 12 -114v-1350q0 -18 8.5 -29t44 -19.5
t101.5 -8.5h36v-15h-405v15h41q66 0 101.5 8.5t44 19.5t8.5 29v1351q0 32 -9 54t-23 34.5t-40.5 19t-52.5 8.5t-68 2h-12v15z" />
    <glyph glyph-name="uni01F9" unicode="&#x1f9;" horiz-adv-x="1320" 
d="M802 1270l-15 -15l-300 275q-7 8 2 17t18 0zM113 1065h25l133 3v-360q0 -32 8 -32q6 0 16 25q62 159 187.5 264t265.5 105q164 0 250.5 -73.5t86.5 -213.5v-711q0 -18 8.5 -29t44 -19.5t101.5 -8.5h41v-15h-430v15h56q66 0 101.5 8.5t44 19.5t8.5 29v708q0 131 -79 199
t-233 68q-119 0 -229.5 -81t-179 -214.5t-68.5 -278.5v-401q0 -18 8.5 -29t44 -19.5t101.5 -8.5h56v-15h-430v15h41q66 0 101.5 8.5t44 19.5t8.5 29v926q0 29 -24.5 40.5t-83.5 11.5h-25v15z" />
    <glyph glyph-name="AEacute" unicode="&#x1fc;" horiz-adv-x="2048" 
d="M1000 1679l295 278q9 9 18 0q10 -10 2 -18l-300 -274zM1874 1556q10 0 10 -9l26 -389l-21 -2l-16 260q-4 67 -33 93.5t-97 26.5h-641l-1 -758h322q41 0 41 277v61h21v-696h-21v61q0 277 -41 277h-322v-738h724q69 0 97 27t33 93l16 260l21 -2l-26 -389q0 -9 -10 -9h-1075
v15h41q66 0 101.5 9t43.5 20t8 29v419h-719l-174 -407q-7 -15 -7 -28q0 -26 35 -34t118 -8h41v-15h-349v15h6q63 0 90.5 16.5t46.5 59.5l593 1384q4 12 4 19q0 19 -12.5 33t-37.5 14h-39v15h46h1157zM366 512h709v952q0 39 -16 55.5t-55 16.5h-155q-47 0 -74 -67z" />
    <glyph glyph-name="aeacute" unicode="&#x1fd;" horiz-adv-x="1945" 
d="M833 1270l294 277q9 9 18 0t2 -17l-300 -275zM923 563h878q46 0 46 70q0 17 -3 31q-31 175 -149 280.5t-297 105.5q-200 0 -332.5 -136t-142.5 -351zM922 543v-11q0 -225 130.5 -371t335.5 -146q315 0 449 237l18 -10q-64 -114 -180.5 -180.5t-286.5 -66.5
q-176 0 -303.5 105t-170.5 277q-20 -65 -41 -109q-55 -119 -164.5 -196t-242.5 -77q-174 0 -286.5 76.5t-112.5 194.5q0 245 398 287q56 6 121 7.5t160.5 1.5t149.5 1v175q-1 135 -87 223.5t-221 88.5q-154 0 -262.5 -59.5t-108.5 -144.5q0 -22 -21 -22q-22 0 -22 22
q0 93 120.5 158.5t290.5 65.5q147 0 242 -93.5t95 -238.5v-25q49 163 177 260t299 97q217 0 349 -145.5t132 -371.5q0 -10 -10 -10h-947zM896 543q-55 -1 -164 -3t-173 -3.5t-92 -4.5q-83 -9 -147 -26t-117.5 -47.5t-82 -79t-28.5 -113.5q0 -109 105.5 -180t268.5 -71
q117 0 217.5 65t156.5 166.5t56 209.5v76v11z" />
    <glyph glyph-name="Oslashacute" unicode="&#x1fe;" horiz-adv-x="1443" 
d="M708 1720l294 278q9 9 18 0q10 -10 2 -18l-300 -274zM722 1562q256 0 436 -185l155 206l16 -12l-157 -209q98 -107 151.5 -257t53.5 -327q0 -168 -49 -314t-135.5 -248.5t-208 -161.5t-262.5 -59q-257 0 -436 184l-155 -206l-16 13l156 209q-98 107 -151 256.5t-53 326.5
q0 225 84 404t233.5 279.5t337.5 100.5zM722 15q181 0 325 98t224.5 272.5t80.5 392.5q0 171 -51 316t-143 249l-859 -1145q174 -183 423 -183zM722 1541q-181 0 -325 -98t-224.5 -272.5t-80.5 -392.5q0 -171 51 -316t143 -249l859 1146q-173 182 -423 182z" />
    <glyph glyph-name="oslashacute" unicode="&#x1ff;" horiz-adv-x="1136" 
d="M554 1207l295 278q9 9 17 0q10 -10 2 -18l-300 -274zM568 1070q190 0 325 -118l113 140l16 -13l-114 -141q77 -73 119.5 -178t42.5 -228q0 -233 -142 -385t-360 -152q-189 0 -324 118l-113 -140l-16 13l113 141q-77 73 -119 177t-42 228q0 234 141.5 386t359.5 152z
M568 1050q-207 0 -341.5 -146.5t-134.5 -371.5q0 -118 39.5 -218t111.5 -170l636 790q-130 116 -311 116zM568 15q207 0 341.5 146t134.5 371q0 119 -39.5 219t-110.5 170l-636 -790q130 -116 310 -116z" />
    <glyph glyph-name="uni0200" unicode="&#x200;" 
d="M586 1679l-15 -14l-300 274q-8 8 2 18q9 9 18 0zM995 1679l-14 -14l-300 274q-8 8 2 18q9 9 17 0zM335 512h729l-330 922q-17 48 -21 68h-24zM20 0v15h6q64 0 93 17t44 59l522 1458q3 7 9 7h28q10 0 10 -10q0 -33 26 -106l480 -1340q18 -49 46 -67t88 -18h41v-15h-399v15
h102q63 0 86 7t23 28q0 13 -12 46l-142 396h-743l-147 -407q-5 -17 -5 -26q0 -27 34 -35.5t117 -8.5h42v-15h-349z" />
    <glyph glyph-name="uni0201" unicode="&#x201;" horiz-adv-x="1136" 
d="M413 1270l-15 -15l-300 275q-8 8 2 17q9 9 18 0zM822 1270l-14 -15l-300 275q-8 8 2 17q8 9 17 0zM896 662q-14 -23 -38.5 -42t-58 -32t-64.5 -21.5t-74.5 -14.5t-70 -9t-69 -6.5t-54.5 -4.5q-83 -9 -147 -26t-117.5 -47.5t-82 -79t-28.5 -113.5q0 -109 105.5 -180
t268.5 -71q117 0 217.5 65t156.5 166.5t56 209.5v206zM585 1070q147 0 242 -93.5t95 -238.5v-497l16 -98q20 -122 62 -123l110 11l2 -21l-112 -15h-1q-64 0 -87 144q-2 11 -6 37t-7 43t-3 21v22q0 28 -7 28t-16 -22q-56 -119 -165 -196t-242 -77q-174 0 -286.5 76.5
t-112.5 194.5q0 245 398 287q12 1 52 5t63.5 6t64.5 8t67.5 12.5t60 17.5t54.5 24t39 32t25 41q5 18 5 33v6q-1 135 -87 223.5t-221 88.5q-154 0 -262.5 -59.5t-108.5 -144.5q0 -22 -21 -22q-22 0 -22 22q0 93 120.5 158.5t290.5 65.5z" />
    <glyph glyph-name="uni0202" unicode="&#x202;" 
d="M706 1875q-164 0 -255 -114l-18 13q96 121 273 121q175 0 272 -121l-17 -13q-94 114 -255 114zM335 512h729l-330 922q-17 48 -21 68h-24zM20 0v15h6q64 0 93 17t44 59l522 1458q3 7 9 7h28q10 0 10 -10q0 -33 26 -106l480 -1340q18 -49 46 -67t88 -18h41v-15h-399v15
h102q63 0 86 7t23 28q0 13 -12 46l-142 396h-743l-147 -407q-5 -17 -5 -26q0 -27 34 -35.5t117 -8.5h42v-15h-349z" />
    <glyph glyph-name="uni0203" unicode="&#x203;" horiz-adv-x="1136" 
d="M532 1465q-163 0 -254 -113l-18 12q97 122 272 122t273 -122l-18 -12q-93 113 -255 113zM896 662q-14 -23 -38.5 -42t-58 -32t-64.5 -21.5t-74.5 -14.5t-70 -9t-69 -6.5t-54.5 -4.5q-83 -9 -147 -26t-117.5 -47.5t-82 -79t-28.5 -113.5q0 -109 105.5 -180t268.5 -71
q117 0 217.5 65t156.5 166.5t56 209.5v206zM585 1070q147 0 242 -93.5t95 -238.5v-497l16 -98q20 -122 62 -123l110 11l2 -21l-112 -15h-1q-64 0 -87 144q-2 11 -6 37t-7 43t-3 21v22q0 28 -7 28t-16 -22q-56 -119 -165 -196t-242 -77q-174 0 -286.5 76.5t-112.5 194.5
q0 245 398 287q12 1 52 5t63.5 6t64.5 8t67.5 12.5t60 17.5t54.5 24t39 32t25 41q5 18 5 33v6q-1 135 -87 223.5t-221 88.5q-154 0 -262.5 -59.5t-108.5 -144.5q0 -22 -21 -22q-22 0 -22 22q0 93 120.5 158.5t290.5 65.5z" />
    <glyph glyph-name="uni0204" unicode="&#x204;" horiz-adv-x="1320" 
d="M556 1679l-14 -14l-300 274q-8 8 2 18q8 9 17 0zM966 1679l-15 -14l-300 274q-8 8 2 18q9 9 18 0zM51 1556h1096q10 0 10 -9l26 -389l-21 -2l-16 260q-4 67 -33 93.5t-97 26.5h-744l-1 -758h405q41 0 41 277v61h20v-696h-20v61q0 277 -41 277h-405v-738h827q69 0 97 27
t33 93l16 260l21 -2l-26 -389q0 -9 -10 -9h-1178v15h41q66 0 101.5 9t44 20t8.5 29v1417q0 27 -30 39t-124 12h-41v15z" />
    <glyph glyph-name="uni0205" unicode="&#x205;" horiz-adv-x="1116" 
d="M469 1270l-14 -15l-300 275q-7 8 2 17t17 0zM879 1270l-15 -15l-300 275q-8 8 2 17q9 9 18 0zM972 563q46 0 46 70q0 17 -3 31q-31 175 -149.5 280.5t-297.5 105.5q-197 0 -331.5 -134t-143.5 -353h879zM92 543v-11q0 -225 130.5 -371t335.5 -146q165 0 276.5 64
t173.5 173l18 -10q-64 -114 -181 -180.5t-287 -66.5q-215 0 -353 152.5t-138 384.5v22q7 226 148 371t353 145q217 0 349.5 -145.5t132.5 -371.5q0 -10 -11 -10h-947z" />
    <glyph glyph-name="uni0206" unicode="&#x206;" horiz-adv-x="1320" 
d="M676 1875q-164 0 -255 -114l-18 13q96 121 273 121q175 0 272 -121l-17 -13q-94 114 -255 114zM51 1556h1096q10 0 10 -9l26 -389l-21 -2l-16 260q-4 67 -33 93.5t-97 26.5h-744l-1 -758h405q41 0 41 277v61h20v-696h-20v61q0 277 -41 277h-405v-738h827q69 0 97 27
t33 93l16 260l21 -2l-26 -389q0 -9 -10 -9h-1178v15h41q66 0 101.5 9t44 20t8.5 29v1417q0 27 -30 39t-124 12h-41v15z" />
    <glyph glyph-name="uni0207" unicode="&#x207;" horiz-adv-x="1116" 
d="M589 1465q-164 0 -255 -113l-18 12q97 122 273 122q174 0 272 -122l-17 -12q-93 113 -255 113zM972 563q46 0 46 70q0 17 -3 31q-31 175 -149.5 280.5t-297.5 105.5q-197 0 -331.5 -134t-143.5 -353h879zM92 543v-11q0 -225 130.5 -371t335.5 -146q165 0 276.5 64
t173.5 173l18 -10q-64 -114 -181 -180.5t-287 -66.5q-215 0 -353 152.5t-138 384.5v22q7 226 148 371t353 145q217 0 349.5 -145.5t132.5 -371.5q0 -10 -11 -10h-947z" />
    <glyph glyph-name="uni0208" unicode="&#x208;" horiz-adv-x="512" 
d="M239 1679l-15 -14l-279 274q-8 8 2 18q9 9 17 0zM507 1679l-14 -14l-280 274q-8 8 2 18q9 9 17 0zM461 0h-410v15h41q66 0 101.5 8.5t44 19.5t8.5 29v1416q0 27 -30 40t-124 13h-41v15h410v-15h-36q-94 0 -124 -13t-30 -40v-1416q0 -18 8.5 -29t44 -19.5t101.5 -8.5h36
v-15z" />
    <glyph glyph-name="uni0209" unicode="&#x209;" horiz-adv-x="512" 
d="M271 72q0 -18 8.5 -29t44 -19.5t101.5 -8.5h36v-15h-410v15h41q66 0 101.5 8.5t44 19.5t8.5 29v926q0 29 -24.5 40.5t-83.5 11.5h-25v15h25l133 3v-996zM239 1270l-15 -15l-279 275q-7 8 2 17t17 0zM507 1270l-14 -15l-280 275q-7 8 2 17t17 0z" />
    <glyph glyph-name="uni020A" unicode="&#x20a;" horiz-adv-x="512" 
d="M259 1875q-164 0 -255 -114l-17 13q96 121 272 121q175 0 272 -121l-17 -13q-94 114 -255 114zM461 0h-410v15h41q66 0 101.5 8.5t44 19.5t8.5 29v1416q0 27 -30 40t-124 13h-41v15h410v-15h-36q-94 0 -124 -13t-30 -40v-1416q0 -18 8.5 -29t44 -19.5t101.5 -8.5h36v-15z
" />
    <glyph glyph-name="uni020B" unicode="&#x20b;" horiz-adv-x="512" 
d="M256 1465q-164 0 -255 -113l-17 12q97 122 272 122q174 0 272 -122l-17 -12q-93 113 -255 113zM271 72q0 -18 8.5 -29t44 -19.5t101.5 -8.5h36v-15h-410v15h41q66 0 101.5 8.5t44 19.5t8.5 29v926q0 29 -24.5 40.5t-83.5 11.5h-25v15h25l133 3v-996z" />
    <glyph glyph-name="uni020C" unicode="&#x20c;" horiz-adv-x="1443" 
d="M602 1679l-14 -14l-300 274q-8 8 2 18q8 9 17 0zM1012 1679l-15 -14l-300 274q-8 8 2 18q9 9 18 0zM722 -5q-141 0 -262.5 59t-208 161.5t-135.5 248.5t-49 314q0 225 84 404t233.5 279.5t337.5 100.5t337.5 -100.5t233.5 -279.5t84 -404q0 -168 -49 -314t-135.5 -248.5
t-208 -161.5t-262.5 -59zM722 15q181 0 325 98t224.5 272.5t80.5 392.5t-80.5 392.5t-224.5 272.5t-325 98t-325 -98t-224.5 -272.5t-80.5 -392.5t80.5 -392.5t224.5 -272.5t325 -98z" />
    <glyph glyph-name="uni020D" unicode="&#x20d;" horiz-adv-x="1136" 
d="M443 1270l-14 -15l-300 275q-7 8 2 17t17 0zM853 1270l-14 -15l-300 275q-7 8 2 17t17 0zM568 1070q218 0 360 -152.5t142 -385.5t-142 -385t-360 -152t-359.5 152t-141.5 385q0 234 141.5 386t359.5 152zM568 1050q-207 0 -341.5 -146.5t-134.5 -371.5t134.5 -371
t341.5 -146t341.5 146t134.5 371t-134.5 371.5t-341.5 146.5z" />
    <glyph glyph-name="uni020E" unicode="&#x20e;" horiz-adv-x="1443" 
d="M722 1875q-164 0 -255 -114l-17 13q96 121 272 121q175 0 272 -121l-17 -13q-94 114 -255 114zM722 -5q-141 0 -262.5 59t-208 161.5t-135.5 248.5t-49 314q0 225 84 404t233.5 279.5t337.5 100.5t337.5 -100.5t233.5 -279.5t84 -404q0 -168 -49 -314t-135.5 -248.5
t-208 -161.5t-262.5 -59zM722 15q181 0 325 98t224.5 272.5t80.5 392.5t-80.5 392.5t-224.5 272.5t-325 98t-325 -98t-224.5 -272.5t-80.5 -392.5t80.5 -392.5t224.5 -272.5t325 -98z" />
    <glyph glyph-name="uni020F" unicode="&#x20f;" horiz-adv-x="1136" 
d="M563 1465q-164 0 -255 -113l-17 12q97 122 272 122t273 -122l-18 -12q-93 113 -255 113zM568 1070q218 0 360 -152.5t142 -385.5t-142 -385t-360 -152t-359.5 152t-141.5 385q0 234 141.5 386t359.5 152zM568 1050q-207 0 -341.5 -146.5t-134.5 -371.5t134.5 -371
t341.5 -146t341.5 146t134.5 371t-134.5 371.5t-341.5 146.5z" />
    <glyph glyph-name="uni0210" unicode="&#x210;" horiz-adv-x="1418" 
d="M530 1679l-14 -14l-300 274q-8 8 2 18q9 9 18 0zM940 1679l-14 -14l-300 274q-8 8 2 18q8 9 17 0zM51 1556h599q254 0 419 -127t165 -323q0 -184 -146 -309t-377 -140q114 -29 179 -109t122 -235q14 -38 21 -57.5t22.5 -56t27 -57t30 -47.5t36.5 -41t41.5 -24.5
t49.5 -10.5q27 0 43.5 8t42.5 29q7 5 14 5q11 0 17 -9q5 -7 5 -13q0 -10 -9 -16q-49 -38 -118 -38q-26 0 -50 10t-42 22.5t-37 38.5t-30 43.5t-26 53.5t-21 52t-20 54.5t-17 47.5q-29 79 -55 131.5t-62 97t-81.5 69t-108 37.5t-147.5 13h-267v-583q0 -18 8.5 -29t44 -19.5
t101.5 -8.5h36v-15h-410v15h41q66 0 101.5 8.5t44 19.5t8.5 29v1418q0 27 -30 39t-124 12h-41v15zM272 1536l-1 -860h267h109q245 0 403 121t158 309t-158 309t-403 121h-375z" />
    <glyph glyph-name="uni0211" unicode="&#x211;" horiz-adv-x="849" 
d="M331 1270l-15 -15l-300 275q-8 8 2 17q9 9 18 0zM740 1270l-14 -15l-300 275q-8 8 2 17q8 9 17 0zM801 916q0 -10 -7.5 -17t-18.5 -7t-18 6.5t-7 17.5q0 134 -119 134q-100 0 -183.5 -67t-130 -177.5t-46.5 -237.5v-496q0 -18 8.5 -29t44 -19.5t101.5 -8.5h56v-15h-430
v15h41q66 0 101.5 8.5t44 19.5t8.5 29v926q0 29 -24.5 40.5t-83.5 11.5h-25v15h25l133 3v-338q38 148 135.5 244t224.5 96q72 0 121 -43.5t49 -110.5z" />
    <glyph glyph-name="uni0212" unicode="&#x212;" horiz-adv-x="1418" 
d="M650 1875q-164 0 -255 -114l-17 13q96 121 272 121t273 -121l-18 -13q-94 114 -255 114zM51 1556h599q254 0 419 -127t165 -323q0 -184 -146 -309t-377 -140q114 -29 179 -109t122 -235q14 -38 21 -57.5t22.5 -56t27 -57t30 -47.5t36.5 -41t41.5 -24.5t49.5 -10.5
q27 0 43.5 8t42.5 29q7 5 14 5q11 0 17 -9q5 -7 5 -13q0 -10 -9 -16q-49 -38 -118 -38q-26 0 -50 10t-42 22.5t-37 38.5t-30 43.5t-26 53.5t-21 52t-20 54.5t-17 47.5q-29 79 -55 131.5t-62 97t-81.5 69t-108 37.5t-147.5 13h-267v-583q0 -18 8.5 -29t44 -19.5t101.5 -8.5
h36v-15h-410v15h41q66 0 101.5 8.5t44 19.5t8.5 29v1418q0 27 -30 39t-124 12h-41v15zM272 1536l-1 -860h267h109q245 0 403 121t158 309t-158 309t-403 121h-375z" />
    <glyph glyph-name="uni0213" unicode="&#x213;" horiz-adv-x="849" 
d="M451 1465q-164 0 -255 -113l-18 12q97 122 273 122q174 0 272 -122l-17 -12q-93 113 -255 113zM801 916q0 -10 -7.5 -17t-18.5 -7t-18 6.5t-7 17.5q0 134 -119 134q-100 0 -183.5 -67t-130 -177.5t-46.5 -237.5v-496q0 -18 8.5 -29t44 -19.5t101.5 -8.5h56v-15h-430v15
h41q66 0 101.5 8.5t44 19.5t8.5 29v926q0 29 -24.5 40.5t-83.5 11.5h-25v15h25l133 3v-338q38 148 135.5 244t224.5 96q72 0 121 -43.5t49 -110.5z" />
    <glyph glyph-name="uni0214" unicode="&#x214;" 
d="M612 1679l-14 -14l-300 274q-8 8 2 18q8 9 17 0zM1022 1679l-14 -14l-300 274q-8 8 2 18q8 9 17 0zM31 1556h450v-15h-77q-66 0 -101.5 -8.5t-43.5 -19t-8 -28.5v-988q0 -210 130.5 -346t335.5 -136q214 0 352.5 135.5t138.5 346.5v988q0 18 -8 28.5t-43.5 19t-101.5 8.5
h-77v15h425v-15h-21q-66 0 -101.5 -8.5t-43.5 -19t-8 -28.5v-988q0 -219 -145.5 -360.5t-366.5 -141.5q-215 0 -353.5 142.5t-138.5 359.5v988q0 18 -8 28.5t-43.5 19t-101.5 8.5h-41v15z" />
    <glyph glyph-name="uni0215" unicode="&#x215;" horiz-adv-x="1249" 
d="M484 1270l-14 -15l-300 275q-8 8 2 17q8 9 17 0zM894 1270l-14 -15l-300 275q-8 8 2 17q8 9 17 0zM51 1050v15h26l133 3v-783q0 -131 79 -199t233 -68q119 0 229.5 81t178.5 214.5t68 278.5v406q0 29 -24 40.5t-83 11.5h-26v15h26l133 3v-813l9 -102q5 -57 24.5 -97
t42.5 -41l98 17l4 -21l-99 -16h-2q-37 0 -62 47t-31 109l-10 103v103q0 32 -7 32q-6 0 -16 -25q-62 -159 -187.5 -264t-265.5 -105q-164 0 -251 74t-87 213v716q0 29 -24 40.5t-83 11.5h-26z" />
    <glyph glyph-name="uni0216" unicode="&#x216;" 
d="M732 1875q-164 0 -255 -114l-17 13q96 121 272 121t273 -121l-18 -13q-94 114 -255 114zM31 1556h450v-15h-77q-66 0 -101.5 -8.5t-43.5 -19t-8 -28.5v-988q0 -210 130.5 -346t335.5 -136q214 0 352.5 135.5t138.5 346.5v988q0 18 -8 28.5t-43.5 19t-101.5 8.5h-77v15
h425v-15h-21q-66 0 -101.5 -8.5t-43.5 -19t-8 -28.5v-988q0 -219 -145.5 -360.5t-366.5 -141.5q-215 0 -353.5 142.5t-138.5 359.5v988q0 18 -8 28.5t-43.5 19t-101.5 8.5h-41v15z" />
    <glyph glyph-name="uni0217" unicode="&#x217;" horiz-adv-x="1249" 
d="M604 1465q-164 0 -255 -113l-17 12q97 122 272 122t273 -122l-18 -12q-93 113 -255 113zM51 1050v15h26l133 3v-783q0 -131 79 -199t233 -68q119 0 229.5 81t178.5 214.5t68 278.5v406q0 29 -24 40.5t-83 11.5h-26v15h26l133 3v-813l9 -102q5 -57 24.5 -97t42.5 -41
l98 17l4 -21l-99 -16h-2q-37 0 -62 47t-31 109l-10 103v103q0 32 -7 32q-6 0 -16 -25q-62 -159 -187.5 -264t-265.5 -105q-164 0 -251 74t-87 213v716q0 29 -24 40.5t-83 11.5h-26z" />
    <glyph glyph-name="Scommaaccent" unicode="&#x218;" horiz-adv-x="1173" 
d="M575 -190q0 17 12 28.5t29 11.5t29 -11.5t12 -28.5q0 -67 -21.5 -115.5t-73.5 -104.5l-15 14q85 93 85 168h-1q-6 -3 -15 -3q-17 0 -29 12t-12 29zM569 1539q-172 0 -281.5 -78t-109.5 -200q0 -60 22.5 -112.5t54 -88t83.5 -72.5t93.5 -58.5t101.5 -52.5t91 -49
q29 -17 97.5 -53t111.5 -60t101.5 -68t93 -86t59.5 -105t25 -134q0 -142 -142 -234.5t-360 -92.5q-125 0 -243.5 38t-193.5 111q-45 49 -59 49q-21 0 -22 -66l-5 -147h-15l13 389h15v-12q0 -81 45.5 -147.5t119.5 -107.5t163 -63t182 -22q209 0 342.5 86t133.5 219
q0 58 -15.5 109t-46.5 92t-64.5 73t-83 63t-87.5 52t-92 49t-84 46q-29 17 -89.5 48t-103.5 53.5t-97 61.5t-88 77.5t-58 94.5t-24 120q0 132 118.5 216.5t297.5 84.5q93 0 189.5 -36t160.5 -109q25 -29 38 -29q16 0 16 47q0 3 -0.5 8t-0.5 7q-3 87 -4 127h16l15 -389
q0 -7 -8 -7t-8 7l-3 30q-7 70 -37.5 126.5t-72.5 92t-95.5 59.5t-104.5 33.5t-101 9.5z" />
    <glyph glyph-name="scommaaccent" unicode="&#x219;" horiz-adv-x="1034" 
d="M501 -190q0 17 12 28.5t29 11.5t29 -11.5t12 -28.5q0 -66 -22 -114.5t-74 -105.5l-15 14q85 93 85 168h-1q-6 -3 -14 -3q-17 0 -29 12t-12 29zM497 1070q192 0 321 -103q7 -6 16.5 -14.5t14.5 -12.5t9 -4q15 0 15 47q0 3 -0.5 8t-0.5 7q-1 27 -2 67h17l11 -307
q0 -7 -8 -7t-8 7l-1 8q-18 137 -75 184q-121 100 -309 100q-147 0 -242.5 -65t-95.5 -165q0 -51 45 -90t116.5 -65t158.5 -50t174 -53.5t158.5 -67.5t116.5 -100.5t45 -143.5q0 -110 -126.5 -182.5t-319.5 -72.5q-114 0 -194 26t-161 94q-51 47 -64 47q-19 0 -22 -66l-4 -96
h-15l12 338h15v-11q0 -119 95 -198q78 -64 153.5 -89t184.5 -25q183 0 301.5 66.5t118.5 168.5q0 76 -45 134t-116.5 93.5t-158.5 63.5t-174 52.5t-158.5 52.5t-116.5 72t-45 102q0 109 103 179.5t261 70.5z" />
    <glyph glyph-name="uni021A" unicode="&#x21a;" horiz-adv-x="1341" 
d="M634 -190q0 17 12 28.5t29 11.5t29 -11.5t12 -28.5q0 -67 -21.5 -115.5t-73.5 -104.5l-16 14q85 93 85 168h-1q-6 -3 -14 -3q-17 0 -29 12t-12 29zM78 1556h1186q10 0 10 -9l21 -327l-16 -2l-12 190q-5 73 -34.5 100.5t-106.5 27.5h-440v-1464q0 -18 8.5 -29t44 -19.5
t101.5 -8.5h36v-15h-410v15h41q50 0 82.5 4.5t47 13t19 17.5t4.5 22v1464h-445q-76 0 -105.5 -27t-34.5 -101l-13 -190l-16 2l22 327q0 9 10 9z" />
    <glyph glyph-name="uni021B" unicode="&#x21b;" horiz-adv-x="849" 
d="M487 -190q0 17 12 28.5t29 11.5t29 -11.5t12 -28.5q0 -67 -21.5 -115.5t-73.5 -104.5l-15 14q85 93 85 168h-1q-6 -3 -15 -3q-17 0 -29 12t-12 29zM41 1024v20h92q67 0 85 22t18 104v182h20v-273q0 -35 37 -35h485v-20h-485q-37 0 -37 -36v-589q0 -167 75.5 -275.5
t191.5 -108.5q74 0 141 32t106 93l16 -10q-41 -66 -113 -100.5t-150 -34.5q-127 0 -210 114t-83 290v589q0 36 -36 36h-153z" />
    <glyph glyph-name="uni021E" unicode="&#x21e;" horiz-adv-x="1495" 
d="M430 1956l314 -277h7l314 277l14 -16l-320 -281h-23l-320 281zM51 1556h451v-15h-77q-66 0 -101.5 -7.5t-44 -17.5t-8.5 -28v-648h953v648q0 18 -8.5 28t-44 17.5t-101.5 7.5h-77v15h451v-15h-41q-66 0 -101.5 -7.5t-44 -17.5t-8.5 -28v-1414q0 -18 8.5 -29t44 -20.5
t101.5 -9.5h41v-15h-451v15h77q66 0 101.5 9.5t44 20.5t8.5 29v745h-953v-745q0 -18 8.5 -29t44 -20.5t101.5 -9.5h77v-15h-451v15h41q66 0 101.5 9.5t44 20.5t8.5 29v1414q0 18 -8.5 28t-44 17.5t-101.5 7.5h-41v15z" />
    <glyph glyph-name="uni021F" unicode="&#x21f;" horiz-adv-x="1320" 
d="M148 1915l315 -277h6l314 277l15 -15l-321 -282h-22l-321 282zM92 1556h46l133 4v-852q0 -32 8 -32q6 0 16 25q62 159 187.5 264t265.5 105q164 0 250.5 -73.5t86.5 -213.5v-711q0 -18 8.5 -29t44 -19.5t101.5 -8.5h41v-15h-430v15h56q66 0 101.5 8.5t44 19.5t8.5 29v708
q0 130 -80 198.5t-232 68.5q-116 0 -227.5 -83t-180.5 -217t-69 -274v-401q0 -18 8.5 -29t44 -19.5t101.5 -8.5h56v-15h-430v15h41q66 0 101.5 8.5t44 19.5t8.5 29v1418q0 28 -24 39.5t-84 11.5h-46v15z" />
    <glyph glyph-name="uni0226" unicode="&#x226;" 
d="M665 1823q0 17 12 29t29 12t28.5 -12t11.5 -29t-11.5 -29t-28.5 -12t-29 12t-12 29zM335 512h729l-330 922q-17 48 -21 68h-24zM20 0v15h6q64 0 93 17t44 59l522 1458q3 7 9 7h28q10 0 10 -10q0 -33 26 -106l480 -1340q18 -49 46 -67t88 -18h41v-15h-399v15h102
q63 0 86 7t23 28q0 13 -12 46l-142 396h-743l-147 -407q-5 -17 -5 -26q0 -27 34 -35.5t117 -8.5h42v-15h-349z" />
    <glyph glyph-name="uni0227" unicode="&#x227;" horiz-adv-x="1136" 
d="M492 1413q0 17 11.5 29t28.5 12t29 -12t12 -29t-12 -29t-29 -12t-28.5 12t-11.5 29zM896 662q-14 -23 -38.5 -42t-58 -32t-64.5 -21.5t-74.5 -14.5t-70 -9t-69 -6.5t-54.5 -4.5q-83 -9 -147 -26t-117.5 -47.5t-82 -79t-28.5 -113.5q0 -109 105.5 -180t268.5 -71
q117 0 217.5 65t156.5 166.5t56 209.5v206zM585 1070q147 0 242 -93.5t95 -238.5v-497l16 -98q20 -122 62 -123l110 11l2 -21l-112 -15h-1q-64 0 -87 144q-2 11 -6 37t-7 43t-3 21v22q0 28 -7 28t-16 -22q-56 -119 -165 -196t-242 -77q-174 0 -286.5 76.5t-112.5 194.5
q0 245 398 287q12 1 52 5t63.5 6t64.5 8t67.5 12.5t60 17.5t54.5 24t39 32t25 41q5 18 5 33v6q-1 135 -87 223.5t-221 88.5q-154 0 -262.5 -59.5t-108.5 -144.5q0 -22 -21 -22q-22 0 -22 22q0 93 120.5 158.5t290.5 65.5z" />
    <glyph glyph-name="uni0228" unicode="&#x228;" horiz-adv-x="1320" 
d="M1244 400l21 -2l-26 -389q0 -9 -10 -9h-582l-33 -132q56 16 87 16q73 0 125.5 -52.5t52.5 -127.5q0 -65 -54.5 -112.5t-130.5 -47.5q-53 0 -98.5 23.5t-70.5 64.5q-5 10 3 14q11 6 15 -3q22 -36 62.5 -57t88.5 -21q69 0 116.5 41.5t47.5 97.5q0 67 -46.5 113.5
t-110.5 46.5q-13 0 -23.5 -1t-21 -3.5t-17.5 -4.5t-18.5 -6t-17.5 -6q-10 -3 -12 6q-1 2 0 6v1l35 144h-575v15h41q66 0 101.5 9t44 20t8.5 29v1417q0 27 -30 39t-124 12h-41v15h1096q10 0 10 -9l26 -389l-21 -2l-16 260q-4 67 -33 93.5t-97 26.5h-744l-1 -758h405
q41 0 41 277v61h20v-696h-20v61q0 277 -41 277h-405v-738h827q69 0 97 27t33 93z" />
    <glyph glyph-name="uni0229" unicode="&#x229;" horiz-adv-x="1116" 
d="M92 543v-11q0 -225 130.5 -371t335.5 -146q165 0 276.5 64t173.5 173l18 -10q-64 -114 -181 -180.5t-287 -66.5q-22 0 -33 1l-33 -133q56 16 87 16q73 0 125 -52.5t52 -127.5q0 -65 -54.5 -112.5t-130.5 -47.5q-53 0 -98.5 23.5t-70.5 64.5q-5 9 4 14q10 6 14 -3
q22 -36 62.5 -57t88.5 -21q69 0 116.5 41.5t47.5 97.5q0 67 -46 113.5t-110 46.5q-16 0 -31 -2.5t-21.5 -4t-25 -7.5t-21.5 -7q-10 -3 -12 6v6l36 148q-194 20 -315.5 168.5t-121.5 365.5v22q7 226 148 371t353 145q217 0 349.5 -145.5t132.5 -371.5q0 -10 -11 -10h-947z
M93 563h879q46 0 46 70q0 17 -3 31q-31 175 -149.5 280.5t-297.5 105.5q-197 0 -336 -138t-139 -349z" />
    <glyph glyph-name="uni022E" unicode="&#x22e;" horiz-adv-x="1443" 
d="M681 1823q0 17 12 29t29 12t29 -12t12 -29t-12 -29t-29 -12t-29 12t-12 29zM722 -5q-141 0 -262.5 59t-208 161.5t-135.5 248.5t-49 314q0 225 84 404t233.5 279.5t337.5 100.5t337.5 -100.5t233.5 -279.5t84 -404q0 -168 -49 -314t-135.5 -248.5t-208 -161.5t-262.5 -59
zM722 15q181 0 325 98t224.5 272.5t80.5 392.5t-80.5 392.5t-224.5 272.5t-325 98t-325 -98t-224.5 -272.5t-80.5 -392.5t80.5 -392.5t224.5 -272.5t325 -98z" />
    <glyph glyph-name="uni022F" unicode="&#x22f;" horiz-adv-x="1136" 
d="M522 1413q0 17 12 29t29 12t29 -12t12 -29t-12 -29t-29 -12t-29 12t-12 29zM568 1070q218 0 360 -152.5t142 -385.5t-142 -385t-360 -152t-359.5 152t-141.5 385q0 234 141.5 386t359.5 152zM568 1050q-207 0 -341.5 -146.5t-134.5 -371.5t134.5 -371t341.5 -146
t341.5 146t134.5 371t-134.5 371.5t-341.5 146.5z" />
    <glyph glyph-name="uni0232" unicode="&#x232;" horiz-adv-x="1351" 
d="M1001 1843h-655v21h655v-21zM10 1556h414v-15h-145q-54 0 -78 -7t-24 -27q0 -14 11 -36l486 -887l485 887q11 22 11 36q0 20 -24 27t-77 7h-145v15h417v-15h-36q-24 0 -40.5 -3t-42 -22t-44.5 -55l-492 -898v-491q0 -18 8.5 -29t44 -19.5t101.5 -8.5h36v-15h-410v15h41
q50 0 82.5 4.5t47 13t19 17.5t4.5 22v483l-4 8l-491 898q-19 36 -44.5 55t-42 22t-40.5 3h-28v15z" />
    <glyph glyph-name="uni0233" unicode="&#x233;" horiz-adv-x="1187" 
d="M760 1065h407v-15h-11q-54 0 -84 -17.5t-47 -58.5l-429 -1020q-93 -220 -194.5 -332t-242.5 -112q-127 0 -204.5 54.5t-77.5 144.5q0 25 11 52q6 16 22 16q7 0 11 -2q17 -7 17 -23q0 -1 -3 -10q-11 -27 -11 -50q0 -73 65 -117.5t171 -44.5q132 0 229.5 109t187.5 322
l6 13q1 2 1 8q0 17 -16 57l-360 872q-33 79 -55 100t-72 21q-24 0 -48 -8q-4 -2 -7 -2q-20 0 -20 19q0 29 70 29q64 0 91 -29t65 -123l352 -847q12 -30 19 -30t20 31l384 908q9 23 9 33q0 23 -32.5 30t-121.5 7h-102v15zM901 1434h-655v20h655v-20z" />
    <glyph glyph-name="uni0237" unicode="&#x237;" horiz-adv-x="389" 
d="M-35 -458q50 0 94 19.5t82.5 60.5t61 117t22.5 179v1080q0 29 -24 40.5t-83 11.5h-46v15h46l133 3v-1150q0 -206 -86 -308t-215 -102q-62 0 -110 38q-9 6 -9 17q0 8 7 15t15 7q7 0 14 -5q48 -38 98 -38z" />
    <glyph glyph-name="circumflex" unicode="&#x2c6;" horiz-adv-x="901" 
d="M133 1239l-14 15l320 282h23l320 -282l-14 -15l-314 277h-7z" />
    <glyph glyph-name="caron" unicode="&#x2c7;" horiz-adv-x="901" 
d="M133 1546l314 -276h7l314 276l14 -15l-320 -282h-23l-320 282z" />
    <glyph glyph-name="uni02C9" unicode="&#x2c9;" horiz-adv-x="819" 
d="M737 1434h-655v20h655v-20z" />
    <glyph glyph-name="uni02CA" unicode="&#x2ca;" horiz-adv-x="491" 
d="M79 1270l295 277q8 9 17 0t2 -17l-300 -275z" />
    <glyph glyph-name="uni02CB" unicode="&#x2cb;" horiz-adv-x="491" 
d="M413 1270l-15 -15l-300 275q-8 8 2 17q9 9 18 0z" />
    <glyph glyph-name="breve" unicode="&#x2d8;" horiz-adv-x="655" 
d="M328 1362q164 0 255 114l17 -13q-97 -122 -272 -122t-273 122l18 13q94 -114 255 -114z" />
    <glyph glyph-name="dotaccent" unicode="&#x2d9;" horiz-adv-x="327" 
d="M123 1413q0 17 12 29t29 12t29 -12t12 -29t-12 -29t-29 -12t-29 12t-12 29z" />
    <glyph glyph-name="ring" unicode="&#x2da;" horiz-adv-x="573" 
d="M287 1505q65 0 109 -43t44 -110q0 -65 -43 -109.5t-110 -44.5q-65 0 -109.5 43.5t-44.5 110.5q0 65 43.5 109t110.5 44zM287 1485q-59 0 -96 -37.5t-37 -95.5q0 -59 37.5 -96t95.5 -37q59 0 96 37.5t37 95.5q0 59 -37.5 96t-95.5 37z" />
    <glyph glyph-name="ogonek" unicode="&#x2db;" horiz-adv-x="573" 
d="M414 85q-17 -15 -58.5 -42t-74.5 -52.5t-68 -60.5t-55 -80.5t-20 -97.5q1 -59 38 -100t105 -41q96 0 172 88q7 9 15 1q6 -6 0 -14q-84 -96 -187 -96q-78 0 -122.5 47.5t-45.5 114.5q0 56 22 105.5t59.5 86.5t72.5 63.5t76.5 53t56.5 39.5z" />
    <glyph glyph-name="tilde" unicode="&#x2dc;" horiz-adv-x="573" 
d="M545 1483q8 -2 8 -13q-9 -53 -41.5 -80.5t-74.5 -27.5q-44 0 -86 17.5t-71 38t-68 38t-76 17.5q-36 0 -61.5 -23t-33.5 -67q-2 -9 -12 -9q-3 0 -6.5 3t-2.5 9q9 51 40.5 80t75.5 29q42 0 84 -17.5t71 -38t68.5 -38t77.5 -17.5q35 0 61 22t34 69q0 3 3.5 6t9.5 2z" />
    <glyph glyph-name="hungarumlaut" unicode="&#x2dd;" horiz-adv-x="983" 
d="M104 1270l325 271q9 7 17 -1q9 -9 0 -17l-328 -269zM511 1270l325 271q9 7 17 -1q9 -9 0 -17l-329 -269z" />
    <glyph glyph-name="uni02F5" unicode="&#x2f5;" horiz-adv-x="901" 
d="M413 1270l-15 -15l-300 275q-8 8 2 17q9 9 18 0zM822 1270l-14 -15l-300 275q-8 8 2 17q8 9 17 0z" />
    <glyph glyph-name="gravecomb" unicode="&#x300;" horiz-adv-x="0" 
d="M-79 1270l-14 -15l-300 275q-7 8 2 17t17 0z" />
    <glyph glyph-name="acutecomb" unicode="&#x301;" horiz-adv-x="0" 
d="M-413 1270l295 277q9 9 18 0q10 -9 2 -17l-300 -275z" />
    <glyph glyph-name="uni0302" unicode="&#x302;" horiz-adv-x="0" 
d="M-768 1239l-14 15l320 282h23l320 -282l-14 -15l-314 277h-7z" />
    <glyph glyph-name="tildecomb" unicode="&#x303;" horiz-adv-x="0" 
d="M-29 1483q9 -2 9 -13q-9 -53 -41.5 -80.5t-74.5 -27.5q-44 0 -86 17.5t-71 38t-68 38t-76 17.5q-36 0 -61.5 -23t-33.5 -67q-2 -9 -13 -9q-3 0 -6 3t-2 9q9 51 40.5 80t75.5 29q42 0 84 -17.5t71 -38t68.5 -38t77.5 -17.5q35 0 61 22t34 69q0 3 3 6t9 2z" />
    <glyph glyph-name="uni0304" unicode="&#x304;" horiz-adv-x="0" 
d="M-82 1434h-655v20h655v-20z" />
    <glyph glyph-name="uni0305" unicode="&#x305;" horiz-adv-x="0" 
d="M0 1434h-819v20h819v-20z" />
    <glyph glyph-name="uni0306" unicode="&#x306;" horiz-adv-x="0" 
d="M-328 1362q164 0 255 114l18 -13q-97 -122 -273 -122q-174 0 -272 122l17 13q94 -114 255 -114z" />
    <glyph glyph-name="uni0307" unicode="&#x307;" horiz-adv-x="0" 
d="M-205 1413q0 17 12 29t29 12t29 -12t12 -29t-12 -29t-29 -12t-29 12t-12 29z" />
    </font>
</defs>
</svg>
