<?xml version="1.0" encoding="utf-8"?>
<!-- Generator: Adobe Illustrator 23.1.0, SVG Export Plug-In . SVG Version: 6.00 Build 0)  -->
<svg version="1.1" id="Слой_1" xmlns="http://www.w3.org/2000/svg" xmlns:xlink="http://www.w3.org/1999/xlink" x="0px" y="0px"
	 viewBox="0 0 50 50" style="enable-background:new 0 0 50 50;" xml:space="preserve">
<style type="text/css">
	.st0{fill:none;}
	.st1{fill:none;stroke:#FFFFFF;stroke-miterlimit:10;}
	.st2{fill:#FFFFFF;}
	.st3{fill:none;stroke:#FFFFFF;stroke-width:0.5;stroke-miterlimit:10;}
	.st4{fill:#BB724F;}
</style>
<rect id="РАмка" x="-0.1" y="-0.1" class="st0" width="50" height="50"/>
<g>
	<g>
		<path class="st1" d="M29.2,27.9h-6.5c-0.7,0-1.2-0.6-1.2-1.2l0,0c0-0.7,0.6-1.2,1.2-1.2h6.5c0.7,0,1.2,0.6,1.2,1.2l0,0
			C30.4,27.3,29.9,27.9,29.2,27.9z"/>
	</g>
	<g>
		<path class="st1" d="M27.8,18.7h-3.7l-2,3c-0.1,0.1,0,0.2,0.1,0.2h7.4c0.2,0,0.3-0.2,0.2-0.4L27.8,18.7z"/>
	</g>
	<g>
		<path class="st2" d="M32.2,35.2c3.3,1.3,5.5,2.8,5.5,4.7c0,1.3-0.5,2.5-1.5,3.4c-2.4,2.3-7.3,2.6-9,2.6c-0.3,0-0.6,0-0.6,0l-9.3,0
			v-0.8h9.3c0.1,0,6.3,0.3,9-2.3c0.8-0.8,1.2-1.7,1.2-2.9c0-1.5-2-2.7-4.9-3.9"/>
		<path class="st2" d="M21,32.3c-6.2-2.1-11.5-4.5-11.5-8.4c0-4.2,2.8-7.4,6.4-7.4c3.7,0,6.1,2.5,6.2,2.6l-0.5,0.5l0.3-0.3l-0.3,0.3
			c0,0-2.3-2.4-5.7-2.4c-3.2,0-5.7,2.9-5.7,6.6c0,3.4,5.4,5.8,11.2,7.7"/>
	</g>
	<g>
		<path class="st2" d="M23.2,20.7L23.2,20.7c-0.2,0.2-0.6,0.2-0.8,0L21,19.3c-0.2-0.2-0.2-0.6,0-0.8l0,0c0.2-0.2,0.6-0.2,0.8,0
			l1.4,1.4C23.4,20.1,23.4,20.4,23.2,20.7z"/>
	</g>
	<g>
		<path class="st1" d="M28.7,38.4h-5.6c-1.9,0-3.5-1.6-3.5-3.5l0,0c0-1.9,1.6-3.5,3.5-3.5h5.6c1.9,0,3.5,1.6,3.5,3.5l0,0
			C32.2,36.8,30.7,38.4,28.7,38.4z"/>
	</g>
	<g>
		<path class="st2" d="M28.9,39.6H23c-0.3,0-0.6-0.3-0.6-0.6l0,0c0-0.3,0.3-0.6,0.6-0.6h5.9c0.3,0,0.6,0.3,0.6,0.6l0,0
			C29.5,39.3,29.2,39.6,28.9,39.6z"/>
	</g>
	<g>
		<rect x="22.7" y="28.9" class="st1" width="6.5" height="2.5"/>
	</g>
	<g>
		<path class="st2" d="M30,28.9h-8.1c-0.3,0-0.5-0.2-0.5-0.5l0,0c0-0.3,0.2-0.5,0.5-0.5H30c0.3,0,0.5,0.2,0.5,0.5l0,0
			C30.4,28.6,30.2,28.9,30,28.9z"/>
	</g>
	<g>
		<path class="st2" d="M30,25.4h-8.1c-0.3,0-0.5-0.2-0.5-0.5l0,0c0-0.3,0.2-0.5,0.5-0.5H30c0.3,0,0.5,0.2,0.5,0.5l0,0
			C30.4,25.2,30.2,25.4,30,25.4z"/>
	</g>
	<g>
		<path class="st1" d="M22.3,21.9h7.2c0.3,0,0.5,0.2,0.5,0.5V24c0,0.3-0.2,0.5-0.5,0.5h-7.1c-0.3,0-0.5-0.2-0.5-0.5v-1.6
			C21.9,22.1,22.1,21.9,22.3,21.9z"/>
	</g>
	<g>
		<path class="st3" d="M28.2,16.6l-4.6,0c0.8,0.4,0.5,1.2,0.4,2.2h3.7C27.7,17.8,27.4,17.1,28.2,16.6z"/>
	</g>
	<g>
		<path class="st2" d="M28.8,16.6H23c-0.2,0-0.4-0.2-0.4-0.4l0,0c0-0.2,0.2-0.4,0.4-0.4h5.8c0.2,0,0.4,0.2,0.4,0.4l0,0
			C29.3,16.4,29.1,16.6,28.8,16.6z"/>
	</g>
	<g>
		<path class="st3" d="M32.2,11.7l-12.5,0c0,0.6,1.6,1.2,4,1.4c0.9,0.9,0.9,1.8,0,2.7h4.6c-0.9-0.9-0.9-1.8,0-2.7
			C30.6,12.9,32.2,12.3,32.2,11.7z"/>
	</g>
	<g>
		<rect x="24.3" y="8" class="st3" width="3.2" height="3.3"/>
	</g>
	<g>
		<path class="st3" d="M27.9,7.9H24c-0.7,0-1.3-0.6-1.3-1.3V3.3h6.5v3.4C29.2,7.4,28.6,7.9,27.9,7.9z"/>
	</g>
	<g>
		<polygon class="st2" points="9.7,45 19.8,44.8 19.8,46.2 9.7,46 		"/>
	</g>
	<g>
		<path class="st2" d="M17.7,44.6h1.9c0.4,0,0.7,0.3,0.7,0.7v0.4c0,0.4-0.3,0.7-0.7,0.7h-1.9c-0.4,0-0.7-0.3-0.7-0.7v-0.4
			C17,44.9,17.3,44.6,17.7,44.6z"/>
	</g>
	<g>
		<path class="st4" d="M9.9,44.8L9.9,44.8c0.2,0,0.4,0.2,0.4,0.4v0.5c0,0.2-0.2,0.4-0.4,0.4l0,0c-0.2,0-0.4-0.2-0.4-0.4v-0.5
			C9.5,45,9.7,44.8,9.9,44.8z"/>
	</g>
	<g>
		<path class="st2" d="M9.9,44.8L9.9,44.8c0.2,0,0.4,0.2,0.4,0.4v0.5c0,0.2-0.2,0.4-0.4,0.4l0,0c-0.2,0-0.4-0.2-0.4-0.4v-0.5
			C9.5,45,9.7,44.8,9.9,44.8z"/>
	</g>
	<g>
		<path class="st2" d="M32.2,11.9H19.7c-0.2,0-0.3-0.1-0.3-0.3l0,0c0-0.2,0.1-0.3,0.3-0.3h12.6c0.2,0,0.3,0.1,0.3,0.3l0,0
			C32.5,11.8,32.4,11.9,32.2,11.9z"/>
	</g>
	<g>
		<path class="st2" d="M28.7,20.7L28.7,20.7c0.2,0.2,0.6,0.2,0.8,0l1.4-1.4c0.2-0.2,0.2-0.6,0-0.8l0,0c-0.2-0.2-0.6-0.2-0.8,0
			l-1.4,1.4C28.4,20.1,28.4,20.5,28.7,20.7z"/>
	</g>
	<g>
		<path class="st2" d="M10.5,45.3C10.5,45.3,10.4,45.2,10.5,45.3c-0.1-0.1,0-0.2,0-0.2l6.2-0.1c0,0,0,0,0,0c0,0,0.1,0,0.1,0.1
			c0,0,0,0.1-0.1,0.1L10.5,45.3C10.5,45.3,10.5,45.3,10.5,45.3z"/>
	</g>
	<g>
		<path class="st2" d="M26.1,45.6c-2.5,0-5.3-0.1-5.5-0.1c0,0-0.1,0-0.1-0.1c0,0,0-0.1,0.1-0.1c0.1,0,7.4,0.2,9.1,0
			c2.3-0.4,3.9-0.8,4.7-1.3c0,0,0.1,0,0.1,0c0,0,0,0.1,0,0.1c-0.8,0.5-2.4,0.9-4.7,1.3C29.1,45.6,27.7,45.6,26.1,45.6z"/>
	</g>
</g>
</svg>
