<?xml version="1.0" encoding="utf-8"?>
<!-- Generator: Adobe Illustrator 23.1.0, SVG Export Plug-In . SVG Version: 6.00 Build 0)  -->
<svg version="1.1" id="Слой_1" xmlns="http://www.w3.org/2000/svg" xmlns:xlink="http://www.w3.org/1999/xlink" x="0px" y="0px"
	 viewBox="0 0 50 50" style="enable-background:new 0 0 50 50;" xml:space="preserve">
<style type="text/css">
	.st0{display:none;}
	.st1{fill:#FFFFFF;}
</style>
<rect class="st0" width="50" height="50"/>
<g>
	<path class="st1" d="M39.9,11C39.9,11,39.9,11,39.9,11C39.8,10.9,39.8,10.9,39.9,11c-1-1-3.5-0.9-4.7-1c-3.4-0.2-6.9-0.3-10.3-0.3
		c-3.4,0-6.8,0.1-10.2,0.4c-1.2,0.1-3.9,0-4.8,1c-0.4,0.5-0.3,1.2-0.3,1.8c0,1.5,0.2,3.1,0.4,4.6c0.5,4.5,1.1,9,1.7,13.5
		c0.3,2.1,0.6,4.2,0.9,6.3c0.3,2.1,0.9,2.3,3,2.6c3.5,0.4,7,0.4,10.5,0.4c1.6,0,3.2-0.1,4.9-0.2c1.4-0.1,3.5,0.2,4.9-0.3
		c2-0.7,2.1-4.6,2.4-6.3c0.6-3.6,0.8-7.2,1.2-10.8c0.2-2.3,0.5-4.7,0.6-7C40.2,14.4,40.7,12,39.9,11z M39.3,15.6
		c-0.1,1.5-0.2,3.1-0.4,4.6c-0.3,2.7-0.5,5.3-0.8,8c-0.3,2.9-0.4,6.5-1.6,9.2c-0.8,1.9-2,1.6-3.9,1.7c-1.5,0.1-3,0.2-4.5,0.2
		c-3,0.1-6,0.1-8.9,0c-1.3-0.1-2.7-0.2-4-0.3c-1.6-0.2-1.6-0.8-1.8-2.1c-0.3-1.8-0.5-3.7-0.8-5.5c-0.6-4.1-1.2-8.3-1.6-12.4
		c-0.2-1.4-0.3-2.9-0.4-4.3c0-0.6-0.4-2.3-0.1-2.8c0.6-0.9,3.6-0.8,4.5-0.9c2.8-0.2,5.5-0.3,8.3-0.4c3.3-0.1,6.6,0,10,0.1
		c1.3,0.1,2.6,0.1,3.9,0.3c0.5,0.1,1.6,0.1,2,0.4C39.8,12.4,39.4,14.7,39.3,15.6z"/>
	<path class="st1" d="M23.3,21.3c-2-2.1-5.4-1.1-7.2,0.7c-1,1-1.6,2-1.4,3.5c0.2,1.1,0.9,3.1,1.8,3.9c0.8,0.8,2.9,0.7,4,0.6
		c1.4-0.1,2.2-1,3.1-2.1c0.7-0.9,1.7-2.1,1.7-3.3C25.2,23.5,24.1,22.2,23.3,21.3z M21.6,21.2c-0.5,0.6-0.9,1.2-1.3,1.8
		c-0.4,0.5-0.8,0.9-1.2,1.4c-0.3-0.1-0.6,0-1,0c-0.8,0.1-1.5,0.1-2.3,0.2c0.1-0.7,0.4-1.4,0.9-1.9C17.9,21.4,20,20.6,21.6,21.2z
		 M18.4,29.1c-1.7-0.3-2.7-2-2.7-3.7c1-0.1,2.9-0.6,3.6,0.3c0.7,0.9,1,2.1,1.6,3.1c0,0,0.1,0.1,0.1,0.1
		C20.3,29.2,19.4,29.3,18.4,29.1z M23.3,26.8c-0.5,0.7-1,1.3-1.6,1.7c0,0,0-0.1-0.1-0.1c-0.7-1.1-1-2.5-1.9-3.5c0,0,0,0-0.1-0.1
		c0.4-0.5,0.9-0.9,1.2-1.4c0.5-0.6,0.9-1.2,1.4-1.8c0.1,0.1,0.3,0.2,0.4,0.3c0.5,0.5,1.5,1.8,1.6,2.6C24.4,25.3,23.8,26.2,23.3,26.8
		z"/>
	<path class="st1" d="M33,25.6c-2-1-5.5-1.1-6.8,1.1c-0.7,1.1-1.4,3-1.1,4.3c0.2,1.1,1.5,1.9,2.3,2.5c1.2,0.8,2.2,1.6,3.7,1.2
		c1-0.3,2.9-0.8,3.5-1.7c0.7-0.9,0.8-3.7,0.6-4.8C35,26.9,34.1,26.2,33,25.6z M32.6,26.3c0.8,0.4,1.2,0.9,1.5,1.6c0,0,0,0,0,0
		c-0.8,0.2-1.6,0.4-2.4,0.6c-0.3,0.1-0.7,0.1-1,0.2c-0.5-0.3-1-0.6-1.5-0.9c-0.6-0.4-1.1-0.8-1.7-1.2C28.9,25.5,31.1,25.6,32.6,26.3
		z M25.9,30.6c-0.1-0.8,0.4-2.3,0.8-3c0.1-0.2,0.2-0.3,0.3-0.4c0,0,0,0,0,0.1c0.6,0.4,1.2,0.9,1.8,1.3c0.4,0.3,1,0.6,1.4,0.8
		c-0.2,0.5-0.2,1.3-0.3,1.8c-0.1,0.7-0.2,1.5-0.5,2.2c0,0.1,0,0.2,0,0.3C29,33.5,28.5,33.3,28,33C27.3,32.5,26,31.6,25.9,30.6z
		 M34,32.2c-0.4,0.6-1.9,1.2-2.7,1.4c-0.4,0.1-0.8,0.1-1.2,0.1c0,0,0.1-0.1,0.1-0.2c0.4-1.2,0.6-2.5,0.8-3.8
		c0.1-0.4-0.1-0.3,0.3-0.4c0.3-0.1,0.6-0.1,0.8-0.2c0.7-0.2,1.4-0.4,2.2-0.6c0,0,0,0,0,0c0,0.2,0.1,0.5,0.1,0.7
		C34.5,30.2,34.4,31.6,34,32.2z"/>
	<path class="st1" d="M12.7,17.1c-0.1-0.7-0.2-1.3-0.4-2c-0.1-0.8-0.5-2,0.8-1.9c0.5,0,0.5-0.8,0-0.8c-2.8-0.1-1.5,3.4-1.2,5
		C12,17.9,12.8,17.7,12.7,17.1z"/>
	<path class="st1" d="M14.7,13.1c0.5,0,0.5-0.8,0-0.8C14.1,12.2,14.1,13.1,14.7,13.1z"/>
	<path class="st1" d="M35.3,18.8c-2.6,0.4-4.9,0.6-7.5,0.2c-2.6-0.4-5.3-1.2-8-1.2c-1.6,0-3.2,0.1-4.8,0.3c-0.8,0.1-2,0-2.5,0.6
		c-0.7,0.7-0.3,1.6-0.2,2.4c0.2,1.7,0.3,3.4,0.5,5.1c0.4,3.3,1.1,6.6,1.7,9.9c0,0.2,0.2,0.3,0.4,0.3c0,0,0,0,0,0
		c6.9,0.3,13.9,0.3,20.8,0.1c0.2,0,0.4-0.1,0.4-0.3c0.9-4.9,1.3-9.9,1.9-14.9C38.2,18.8,37.8,18.4,35.3,18.8z M37.1,21.3
		c-0.2,2.2-0.6,4.4-0.8,6.5c-0.2,1.7-0.4,3.3-0.6,5c-0.1,0.4-0.2,2.6-0.4,2.8c-0.3,0.2-1.2,0-1.5,0c-6.2,0-12.3,0.2-18.5-0.1
		c-0.8-4.1-1.5-8.2-1.9-12.3c-0.1-0.8-0.5-2.1-0.3-2.9c0.3-1.6,1.4-1.4,2.7-1.5c1.7-0.2,3.5-0.3,5.2-0.1c3,0.3,5.9,1.2,8.9,1.4
		c1.3,0.1,2.6,0,3.9-0.2c0.7-0.1,1.4-0.3,2.1-0.3C37.1,19.6,37.2,20.1,37.1,21.3z"/>
</g>
</svg>
