<?xml version="1.0" encoding="utf-8"?>
<!-- Generator: Adobe Illustrator 23.1.0, SVG Export Plug-In . SVG Version: 6.00 Build 0)  -->
<svg version="1.1" id="Слой_1" xmlns="http://www.w3.org/2000/svg" xmlns:xlink="http://www.w3.org/1999/xlink" x="0px" y="0px"
	 viewBox="0 0 50 50" style="enable-background:new 0 0 50 50;" xml:space="preserve">
<style type="text/css">
	.st0{fill:#FFFFFF;stroke:#FFFFFF;stroke-width:0.25;stroke-miterlimit:10;}
	.st1{fill:#FFFFFF;}
</style>
<rect width="50" height="50"/>
<g>
	<g>
		<path class="st0" d="M46,31.8c0.9-0.1,1.4,1.1,1,1.9c-0.3,0.7-1,1.1-1.7,1.4c-0.9,0.5-1.7,1.1-2.6,1.7c-3.3,2.3-6.1,5-8.8,8l0,0
			c-0.7,0.8-2,0.4-2.2-0.6c0,0-0.1,0-0.1-0.1c-0.6-2.8-1-5.6-1.4-8.5c-0.3-2.5-0.6-5-0.8-7.4c-0.1-0.7-0.3-1.9,0.4-2.4
			c0.5-0.4,1.2-0.2,1.8,0c2.5,0.9,4.9,2,7.3,3C41.3,29.7,43.7,30.7,46,31.8z M45.9,34.3c0.3-0.2,0.7-0.6,0.8-1
			c0.1-0.3,0-0.6-0.2-0.9c-0.2-0.1-0.4-0.2-0.6-0.3l0,0c-0.1,0-0.2-0.1-0.3-0.1l0,0c-2.7-1.1-5.3-2.3-8-3.4C36.3,28,35,27.5,33.7,27
			c-0.7-0.3-1.4-0.6-2.1-0.8c-0.8-0.3-1.8-0.5-1.9,0.7c-0.1,0.7,0.1,1.6,0.2,2.3c0.1,0.7,0.1,1.4,0.2,2.2c0.1,1.4,0.3,2.7,0.5,4.1
			c0.4,2.9,0.9,5.7,1.3,8.6v0.1c0.1,0.3,0.3,0.5,0.5,0.6c0.4,0.2,0.8,0.1,1.1-0.1v-0.1c1.9-2.4,4.2-4.5,6.6-6.3
			c1.2-1,2.5-1.9,3.9-2.7C44.7,35.1,45.3,34.7,45.9,34.3z"/>
		<path class="st0" d="M45.8,32.5C45.9,32.6,45.8,32.6,45.8,32.5c-0.4-0.1-0.7-0.3-1.2-0.4c-0.1,0-0.1-0.1,0-0.1
			C45.1,32.1,45.5,32.2,45.8,32.5z"/>
		<path class="st0" d="M45.5,32.7C45.6,32.7,45.5,32.9,45.5,32.7c-0.2,0-0.4-0.1-0.6-0.1c-0.1,0,0-0.1,0-0.1
			C45.1,32.5,45.3,32.6,45.5,32.7z"/>
		<path class="st0" d="M44.8,33.2c0.2,0.1,0.1,0.3-0.1,0.3c-2.3-1-4.6-2.1-7-3c-2.3-1-4.7-1.8-7.1-2.8c-0.1,0,0-0.2,0.1-0.1
			C35.5,29,40.3,31,44.8,33.2z"/>
		<path class="st0" d="M42,35.2c0.1,0.1,0.1,0.3-0.1,0.2c-3.7-1.5-7.4-3.1-11-4.7c-0.1-0.1,0-0.2,0.1-0.2
			C34.6,32.1,38.3,33.6,42,35.2z"/>
		<path class="st0" d="M40.4,36.7c0.1,0.1,0,0.2-0.1,0.2c-1.5-0.5-3.1-1.2-4.6-1.8s-3-1.2-4.5-1.9c-0.1,0,0-0.2,0.1-0.1
			c1.5,0.6,3,1.2,4.6,1.8C37.4,35.4,38.9,36,40.4,36.7z"/>
		<path class="st0" d="M38.5,38.1c0.1,0.1,0.1,0.2-0.1,0.2c-2.3-0.8-4.7-1.7-7-2.7c-0.1,0,0-0.2,0.1-0.1
			C33.9,36.3,36.2,37.2,38.5,38.1z"/>
		<path class="st0" d="M37,39.9c0.1,0.1,0.1,0.2-0.1,0.2c-1.8-0.6-3.7-1.4-5.5-2.1c-0.1,0,0-0.2,0-0.1C33.4,38.5,35.2,39.2,37,39.9z
			"/>
		<path class="st0" d="M35.7,41.3c0.1,0,0.1,0.2,0,0.2c-1.3-0.3-2.6-0.8-3.8-1.4c-0.1,0,0-0.2,0-0.1C33.2,40.5,34.5,40.9,35.7,41.3z
			"/>
		<path class="st0" d="M34.5,42.7c0.1,0,0,0.2-0.1,0.2c-0.7-0.2-1.4-0.5-2.1-0.8c-0.1,0,0-0.2,0.1-0.1
			C33.1,42.1,33.8,42.4,34.5,42.7z"/>
		<path class="st0" d="M34.1,43.2C34.1,43.2,34.1,43.3,34.1,43.2c-0.2,0.1-0.5,0.1-0.7-0.1V43C33.6,43.2,33.8,43.2,34.1,43.2z"/>
		<path class="st0" d="M33.5,43.4c0.1,0,0,0.2-0.1,0.2c-0.1,0-0.2-0.1-0.4-0.1c-0.1,0,0-0.2,0.1-0.1C33.2,43.3,33.4,43.4,33.5,43.4z
			"/>
		<path class="st0" d="M31.9,34.1c0.1,0,0,0.1-0.1,0.1c-0.3-0.1-0.6-0.3-0.9-0.5c-0.1,0,0-0.1,0.1-0.1
			C31.3,33.7,31.6,33.9,31.9,34.1z"/>
		<path class="st0" d="M31.5,34.2C31.6,34.2,31.5,34.3,31.5,34.2c-0.1,0-0.3,0-0.4-0.1c-0.1,0,0-0.1,0-0.1
			C31.2,34.1,31.4,34.2,31.5,34.2z"/>
	</g>
</g>
<g>
	<path class="st1" d="M26,35.2c0-2.7,0.1-5.3,0.1-8c0-1.3-0.1-2.6-0.6-3.8c-0.5-1.3-1.7-1.9-2.2-2.8c-0.7-1.4-0.7-3.9-0.9-5.5
		c-0.3-1.8-0.6-3.7-0.8-5.6c0.2-0.2,0.5-0.4,0.7-0.7c0.2-0.4,0-0.8-0.2-1.1c0.1,0,0.2,0,0.4,0c0.3,0,0.5-0.3,0.5-0.6
		c-0.1-0.7-0.3-1.6-0.9-2c-0.8-0.6-2.5-0.4-3.4-0.4c-1,0-2.8-0.3-3.7,0.2c-0.7,0.4-1,1.4-1.2,2.1c0,0.2,0,0.3,0.1,0.4
		s0.2,0.2,0.4,0.2l0,0c0,0,0,0,0.1,0s0.1,0,0.2,0c-0.2,0.4-0.4,0.9-0.2,1.3c0.1,0.2,0.2,0.3,0.4,0.5C14.9,9.5,15,9.6,15,9.6l0,0
		c-0.3,3.4-1,6.8-1.6,10.2c-0.2,1.2-1,1.4-1.6,2.5c-0.7,1.3-1,2.9-1.1,4.4c-0.2,5.2-0.2,10.5,0,15.7c0.2,4,3.7,3.7,6.8,3.6
		c2.6-0.1,7.9,0.9,8.5-2.8C26.3,40.7,26,37.8,26,35.2z M22,19.1c-2.5,0.2-5,0.3-7.5,0.1c0.3-1.9,0.7-3.9,1-5.8
		c1.9,0.2,3.7,0.1,5.6-0.1c0.2,1.5,0.5,3.1,0.8,4.6C21.9,18.3,21.9,18.7,22,19.1z M16.7,7.9c0.5,0,0.7-0.2,0.9-0.1
		C18,7.8,18.3,8,18.7,8c0.2,0,0.7-0.2,0.9-0.3c0.1,0,0.3,0.1,0.4,0.1C20.1,7.9,20.3,8,20.5,8s0.3,0,0.4-0.1c0.1,0.2,0.2,0.3,0.3,0.5
		l0,0c0,0,0,0,0,0.1c-0.1,0.1-0.1,0.1-0.2,0.2l0,0C19.2,9,17.3,9,15.5,8.8l0,0c-0.1-0.1-0.2-0.2-0.3-0.2l0,0c0,0,0-0.1,0.1-0.1
		c0.1-0.2,0.2-0.4,0.3-0.7C15.9,7.8,16.2,7.9,16.7,7.9z M15.9,9.8c1.6,0.2,3.1,0.2,4.7,0c0.1,0.9,0.2,1.7,0.3,2.6
		c-1.8,0.2-3.5,0.3-5.3,0.1C15.7,11.6,15.8,10.7,15.9,9.8z M18.5,5.8c0.7,0,1.6-0.1,2.3,0.1c0.5,0.1,0.7,0.5,0.9,0.8
		c-0.2,0-0.4,0-0.5,0c-0.2,0-0.3,0.2-0.4,0.3l-0.1,0.1c-0.3-0.1-0.7-0.4-1-0.4c-0.4,0-0.9,0.3-1.1,0.4c-0.1,0-0.7-0.3-1-0.3
		S16.7,7,16.6,7c-0.2,0-0.7-0.3-1-0.4c-0.2,0-0.3,0-0.5,0C15.7,5.6,17.2,5.7,18.5,5.8z M25,30c0,3-0.1,6-0.1,9c0,1.2,0.1,2.4,0,3.5
		c-0.2,2.3-2.2,2.5-4.2,2.5c-2.1,0-4.9,0.5-7,0c-2.1-0.6-2.1-1.9-2.1-3.5c0-4.8-0.1-9.5,0-14.3c0-0.8,0.1-1.6,0.2-2.4
		c0.3-1.5,1.2-2.2,2-3.4c0.2-0.3,0.3-0.8,0.4-1.2c2.6,0.2,5.2,0.1,7.8-0.1c0.1,0.4,0.1,0.7,0.3,1c0.1,0.1,0.1,0.3,0.2,0.4
		c0.4,0.6,1.1,0.7,1.6,1.3c0.4,0.5,0.6,1.2,0.7,1.8C25.2,26.4,25.1,28.3,25,30z"/>
	<path class="st1" d="M18.1,26.6L18.1,26.6c-0.1,0-0.1,0-0.1,0c-6.8,1-6.8,15.6,0.7,14.6C25.8,40.2,25.4,26.6,18.1,26.6z M18.5,40.2
		c-6.2,0.6-5.9-11.7-0.4-12.6C24.2,27.6,24.4,39.6,18.5,40.2z"/>
	<path class="st1" d="M13.7,27.1c0.2-1.1,0.7-2.1,1.5-2.9c0.5-0.4-0.2-1.1-0.7-0.7c-0.9,0.9-1.5,2-1.7,3.3
		C12.7,27.5,13.6,27.8,13.7,27.1z"/>
	<path class="st1" d="M15.7,23.2c0.6,0,0.6-1,0-1C15,22.2,15,23.2,15.7,23.2z"/>
</g>
</svg>
