<?xml version="1.0" encoding="utf-8"?>
<!-- Generator: Adobe Illustrator 23.1.0, SVG Export Plug-In . SVG Version: 6.00 Build 0)  -->
<svg version="1.1" id="Слой_1" xmlns="http://www.w3.org/2000/svg" xmlns:xlink="http://www.w3.org/1999/xlink" x="0px" y="0px"
	 viewBox="0 0 50 50" style="enable-background:new 0 0 50 50;" xml:space="preserve">
<style type="text/css">
	.st0{display:none;}
	.st1{fill:#FFFFFF;}
</style>
<rect class="st0" width="50" height="50"/>
<g>
	<path class="st1" d="M9.5,12.6c0.2-1.4,0.4-2.8,0.6-4.2c0.1-0.7-1-0.7-1,0c-0.2,1.3-0.4,2.6-0.6,3.9C8.4,13,9.4,13.3,9.5,12.6z"/>
	<path class="st1" d="M9.9,7c0.7,0,0.7-1,0-1C9.2,6,9.2,7,9.9,7z"/>
	<path class="st1" d="M17.2,39.5c0.1-3.1,0.1-6.2,0-9.4c0,0,0,0,0,0c12.2-1.2,9.4-17.6,6.4-25.8c0-0.2-0.2-0.4-0.5-0.4
		C18.2,4.3,13.3,4.2,8.4,4c0,0,0,0-0.1,0c0,0-0.1,0-0.1,0c0,0,0,0,0,0C8,4.1,7.9,4.2,7.8,4.4c-1.2,5.7-3.5,12.3-2,18.1
		c1,4.1,4.4,6.9,8.3,7.5c0,0,0,0.1,0,0.1c0.1,3.1,0.1,6.3,0,9.4c-1.7,0-9.4,0-9,3.1c0.3,2.4,7,2.4,8.6,2.5c2.7,0.1,5.3,0,8-0.5
		c1.1-0.2,4-0.7,4.4-2C26.9,39.7,19.1,39.5,17.2,39.5z M8.8,5.1c4.7,0.2,9.3,0.2,14-0.1c1,2.8,2,6.8,2.3,10.6c-0.1,0-0.1,0-0.2,0
		c-3.8,1.8-6.8,1.5-10.8,0.7c-2.6-0.5-5-0.2-7.5,0.5C6.9,12.9,8,9,8.8,5.1z M6.5,19.6c0-0.5,0-1.1,0-1.6c1.9-0.6,3.8-1,5.8-0.8
		c1.7,0.1,3.3,0.7,4.9,1c2.8,0.4,5.3-0.3,7.9-1.4c0.3,6.3-1.6,12.1-8.7,12.4C10.7,29.4,6.8,25.1,6.5,19.6z M22.9,43.5
		c-2.8,0.8-6.2,0.9-9.1,0.7c-1.9-0.1-4.9,0-6.6-1c-1.8-1,0.6-1.8,1.7-2c1.7-0.4,3.4-0.5,5.2-0.5c0,0.4,0,0.8,0,1.2c0,0.7,1,0.7,1,0
		c0.1-3.9,0.1-7.7,0-11.6c0.3,0,0.6,0,0.9,0c0.1,3.9,0.1,7.7,0,11.6c0,0.7,1,0.7,1,0c0-0.4,0-0.8,0-1.2c1.8,0,3.5,0.1,5.2,0.5
		c0.4,0.1,1.7,0.3,2,0.7C25.3,42.9,23.6,43.3,22.9,43.5z"/>
</g>
<g>
	<g>
		<g>
			<path class="st1" d="M34.7,29.7c-0.1,0-0.3-0.1-0.3-0.2c0-0.1-1-1.2-1.6-2.7c-1.8,1.4-4.2,1.8-4.3,1.8c-0.1,0-0.3,0-0.4-0.1
				c-0.1-0.1-0.2-0.3-0.1-0.4c0-0.1,0.5-2.6,1.8-4.3c-1.4-0.6-2.6-1.6-2.7-1.6c-0.1-0.1-0.2-0.2-0.2-0.4c0-0.1,0.1-0.3,0.2-0.3
				c0.1-0.1,1.7-1.4,3.6-1.5c-0.2-0.3-0.3-0.4-0.3-0.4c-0.2-0.1-0.2-0.3-0.2-0.5c0.1-0.2,0.2-0.3,0.4-0.3c0.5,0,2.8,0.1,4,1.2
				c0.4,0.4,0.7,0.8,0.8,1.2c0.4,0.2,0.8,0.5,1.2,0.9c1.3,1.3,1.2,3.9,1.2,4c0,0.2-0.1,0.4-0.3,0.4c-0.2,0.1-0.4,0-0.5-0.2
				c0,0-0.1-0.2-0.4-0.3c-0.1,1.8-1.4,3.5-1.5,3.6C35,29.6,34.8,29.7,34.7,29.7C34.7,29.7,34.7,29.7,34.7,29.7z M33,25.7
				c0,0,0.1,0,0.1,0c0.2,0,0.3,0.2,0.3,0.3c0.3,1,0.9,1.9,1.3,2.5c0.4-0.6,1-1.8,1-3l0-0.2c0-0.1,0-0.3,0.2-0.4
				c0.1-0.1,0.3-0.1,0.4-0.1c0.2,0.1,0.5,0.1,0.6,0.2c-0.1-0.8-0.3-1.8-0.9-2.4c-0.3-0.3-0.7-0.6-1-0.7c-0.1,0-0.2-0.1-0.2-0.2
				c-0.1-0.3-0.4-0.7-0.7-1c-0.6-0.6-1.6-0.8-2.4-0.9c0.1,0.2,0.2,0.4,0.2,0.6c0,0.1,0,0.3-0.1,0.4c-0.1,0.1-0.2,0.2-0.4,0.2
				c-0.1,0-0.1,0-0.2,0c-1.2-0.1-2.4,0.6-3,1c0.6,0.4,1.5,1,2.5,1.3c0.2,0,0.3,0.2,0.3,0.3c0,0.2,0,0.3-0.1,0.4
				c-1,1.1-1.6,2.8-1.9,3.7c0.9-0.3,2.6-0.8,3.7-1.9C32.7,25.7,32.8,25.7,33,25.7z"/>
		</g>
		<g>
			<path class="st1" d="M32.8,24.3c-0.1,0-0.2,0-0.3-0.1c-0.2-0.2-0.2-0.5,0-0.6l3.3-3.3c0.2-0.2,0.5-0.2,0.6,0
				c0.2,0.2,0.2,0.5,0,0.6l-3.3,3.3C33,24.2,32.9,24.3,32.8,24.3z"/>
		</g>
		<g>
			<g>
				<path class="st1" d="M34.6,22.4h-2.1c-0.3,0-0.5-0.2-0.5-0.5c0-0.2,0.2-0.5,0.5-0.5h2.1c0.3,0,0.5,0.2,0.5,0.5
					C35.1,22.2,34.9,22.4,34.6,22.4z"/>
			</g>
			<g>
				<path class="st1" d="M34.6,24.6c-0.2,0-0.5-0.2-0.5-0.5V22c0-0.2,0.2-0.5,0.5-0.5c0.3,0,0.5,0.2,0.5,0.5v2.1
					C35.1,24.4,34.9,24.6,34.6,24.6z"/>
			</g>
		</g>
	</g>
	<g>
		<g>
			<path class="st1" d="M44.1,26.2c-0.1,0-2.3-0.3-3.6-1.5c-0.1,0.2-0.1,0.4-0.1,0.5c0,0,0,0.1,0,0.1c0,0.2-0.2,0.5-0.5,0.5
				c0,0-0.1,0-0.1,0c-0.1,0-0.1-0.1-0.2-0.1c-0.1-0.1-2-1.9-2-3.7c0-0.5,0.1-1,0.2-1.4c-0.1-0.4-0.2-0.9-0.2-1.4
				c0-1.8,1.9-3.6,2-3.7c0.1-0.1,0.4-0.2,0.5-0.1c0.2,0.1,0.3,0.3,0.2,0.5c0,0,0,0.2,0,0.5c1.4-1.2,3.5-1.5,3.6-1.5
				c0.1,0,0.3,0,0.4,0.1c0.1,0.1,0.1,0.2,0.1,0.4c0,0.1-0.1,1.6-0.7,3c2.2,0.3,4.3,1.7,4.4,1.8c0.1,0.1,0.2,0.2,0.2,0.4
				c0,0.1-0.1,0.3-0.2,0.4c-0.1,0.1-2.2,1.5-4.4,1.8c0.6,1.4,0.7,2.9,0.7,3c0,0.1,0,0.3-0.1,0.4C44.4,26.1,44.3,26.2,44.1,26.2z
				 M40.4,23.5c0.1,0,0.3,0.1,0.3,0.2l0.1,0.1c0.8,0.9,2.1,1.3,2.8,1.4c-0.1-0.7-0.4-1.8-0.9-2.7c-0.1-0.1-0.1-0.3,0-0.4
				c0.1-0.1,0.2-0.2,0.4-0.2c1.5,0,3.1-0.8,4-1.3c-0.8-0.5-2.4-1.3-4-1.3c-0.2,0-0.3-0.1-0.4-0.2c-0.1-0.1-0.1-0.3,0-0.4
				c0.5-0.9,0.7-2,0.9-2.7c-0.7,0.2-2,0.6-2.8,1.4c0,0,0,0.1-0.1,0.1c-0.1,0.2-0.3,0.2-0.4,0.2c-0.1,0-0.3-0.1-0.4-0.2
				c-0.1-0.2-0.2-0.4-0.3-0.6c-0.5,0.6-1,1.5-1,2.3c0,0.5,0.1,0.9,0.2,1.3c0,0.1,0,0.2,0,0.3c-0.1,0.3-0.2,0.8-0.2,1.2
				c0,0.8,0.5,1.7,1,2.3c0.1-0.2,0.2-0.4,0.3-0.6C40,23.5,40.2,23.5,40.4,23.5C40.3,23.5,40.3,23.5,40.4,23.5z"/>
		</g>
		<g>
			<path class="st1" d="M36.1,21c-0.2,0-0.5-0.2-0.5-0.5c0-0.2,0.2-0.5,0.5-0.5l5.6,0c0.3,0,0.5,0.2,0.5,0.5c0,0.2-0.2,0.5-0.5,0.5
				L36.1,21z"/>
		</g>
		<g>
			<g>
				<path class="st1" d="M40.6,22.5c-0.1,0-0.2,0-0.3-0.1l-1.5-1.5c-0.2-0.2-0.2-0.5,0-0.6c0.2-0.2,0.5-0.2,0.6,0l1.5,1.5
					c0.2,0.2,0.2,0.5,0,0.6C40.8,22.5,40.7,22.5,40.6,22.5z"/>
			</g>
			<g>
				<path class="st1" d="M39,21c-0.1,0-0.2,0-0.3-0.1c-0.2-0.2-0.2-0.5,0-0.6l1.5-1.5c0.2-0.2,0.5-0.2,0.6,0c0.2,0.2,0.2,0.5,0,0.6
					l-1.5,1.5C39.3,20.9,39.2,21,39,21z"/>
			</g>
		</g>
	</g>
	<g>
		<g>
			<g>
				<path class="st1" d="M34.6,39.8c-1.8,0-3.2-1.4-3.2-3.2c0-1.8,1.4-3.2,3.2-3.2c1.8,0,3.2,1.4,3.2,3.2
					C37.8,38.3,36.4,39.8,34.6,39.8z M34.6,34.3c-1.3,0-2.3,1-2.3,2.3c0,1.3,1,2.3,2.3,2.3c1.3,0,2.3-1,2.3-2.3
					C36.9,35.3,35.9,34.3,34.6,34.3z"/>
			</g>
			<g>
				<path class="st1" d="M40.4,39.8c-1.8,0-3.2-1.4-3.2-3.2c0-1.8,1.4-3.2,3.2-3.2c1.8,0,3.2,1.4,3.2,3.2
					C43.6,38.3,42.2,39.8,40.4,39.8z M40.4,34.3c-1.3,0-2.3,1-2.3,2.3c0,1.3,1,2.3,2.3,2.3c1.3,0,2.3-1,2.3-2.3
					C42.7,35.3,41.7,34.3,40.4,34.3z"/>
			</g>
		</g>
		<g>
			<path class="st1" d="M37.5,44.7c-1.8,0-3.2-1.4-3.2-3.2c0-1.8,1.4-3.2,3.2-3.2c1.8,0,3.2,1.4,3.2,3.2
				C40.7,43.2,39.3,44.7,37.5,44.7z M37.5,39.2c-1.3,0-2.3,1-2.3,2.3c0,1.3,1,2.3,2.3,2.3c1.3,0,2.3-1,2.3-2.3
				C39.8,40.2,38.8,39.2,37.5,39.2z"/>
		</g>
		<g>
			<g>
				<path class="st1" d="M31.7,34.8c-1.8,0-3.2-1.4-3.2-3.2c0-1.8,1.4-3.2,3.2-3.2c1.8,0,3.2,1.4,3.2,3.2
					C34.9,33.4,33.5,34.8,31.7,34.8z M31.7,29.3c-1.3,0-2.3,1-2.3,2.3c0,1.3,1,2.3,2.3,2.3c1.3,0,2.3-1,2.3-2.3
					C34,30.4,33,29.3,31.7,29.3z"/>
			</g>
			<g>
				<path class="st1" d="M37.5,34.8c-1.8,0-3.2-1.4-3.2-3.2c0-1.8,1.4-3.2,3.2-3.2c1.8,0,3.2,1.4,3.2,3.2
					C40.7,33.4,39.3,34.8,37.5,34.8z M37.5,29.3c-1.3,0-2.3,1-2.3,2.3c0,1.3,1,2.3,2.3,2.3c1.3,0,2.3-1,2.3-2.3
					C39.8,30.4,38.8,29.3,37.5,29.3z"/>
			</g>
			<g>
				<path class="st1" d="M43.3,34.8c-1.8,0-3.2-1.4-3.2-3.2c0-1.8,1.4-3.2,3.2-3.2c1.8,0,3.2,1.4,3.2,3.2
					C46.5,33.4,45.1,34.8,43.3,34.8z M43.3,29.3c-1.3,0-2.3,1-2.3,2.3c0,1.3,1,2.3,2.3,2.3c1.3,0,2.3-1,2.3-2.3
					C45.6,30.4,44.6,29.3,43.3,29.3z"/>
			</g>
		</g>
	</g>
	<g>
		<path class="st1" d="M37.5,29.3c-0.1,0-0.2,0-0.3-0.1c-0.2-0.2-0.2-0.4,0-0.6c0.1-0.1,2.3-2.8-1.5-7.8c-0.2-0.2-0.1-0.5,0.1-0.6
			c0.2-0.1,0.5-0.1,0.6,0.1c4.2,5.6,1.6,8.8,1.5,8.9C37.8,29.3,37.7,29.3,37.5,29.3z"/>
	</g>
</g>
</svg>
