<?xml version="1.0" encoding="utf-8"?>
<!-- Generator: Adobe Illustrator 23.1.0, SVG Export Plug-In . SVG Version: 6.00 Build 0)  -->
<svg version="1.1" id="Слой_1" xmlns="http://www.w3.org/2000/svg" xmlns:xlink="http://www.w3.org/1999/xlink" x="0px" y="0px"
	 viewBox="0 0 50 50" style="enable-background:new 0 0 50 50;" xml:space="preserve">
<style type="text/css">
	.st0{display:none;}
	.st1{display:inline;}
	.st2{fill:#FFFFFF;}
	.st3{fill:none;stroke:#FFFFFF;stroke-miterlimit:10;}
</style>
<rect class="st0" width="50" height="50"/>
<g>
	<g class="st0">
		<g class="st1">
			<g>
				<path class="st2" d="M25.1,22.9c-0.3,0-0.6-0.2-0.6-0.6V6.2c0-0.3,0.2-0.6,0.6-0.6c0.3,0,0.6,0.2,0.6,0.6v16.1
					C25.8,22.7,25.5,22.9,25.1,22.9z"/>
			</g>
		</g>
		<g class="st1">
			<g>
				<path class="st2" d="M25.1,17.7c-0.2,0-0.3-0.1-0.4-0.2l-5.4-5.4c-0.2-0.2-0.2-0.7,0-0.8c0.2-0.2,0.7-0.2,0.8,0l4.9,4.9l4.8-4.8
					c0.2-0.2,0.7-0.2,0.8,0c0.2,0.2,0.2,0.7,0,0.8l-5.2,5.2C25.4,17.7,25.3,17.7,25.1,17.7z"/>
			</g>
		</g>
		<g class="st1">
			<g>
				<path class="st2" d="M25,12.2c-0.2,0-0.3-0.1-0.4-0.2L22,9.4c-0.2-0.2-0.2-0.7,0-0.8c0.2-0.2,0.7-0.2,0.8,0l2.2,2.2l2.3-2.3
					c0.2-0.2,0.7-0.2,0.8,0c0.2,0.2,0.2,0.7,0,0.8L25.5,12C25.4,12.2,25.2,12.2,25,12.2z"/>
			</g>
		</g>
	</g>
	<g class="st0">
		<g class="st1">
			<g>
				<path class="st2" d="M22.8,24.2c-0.1,0-0.2,0-0.3-0.1L8.6,16c-0.3-0.2-0.4-0.6-0.2-0.8c0.2-0.3,0.6-0.4,0.8-0.2l14,8
					c0.3,0.2,0.4,0.6,0.2,0.8C23.3,24,23.1,24.2,22.8,24.2z"/>
			</g>
		</g>
		<g class="st1">
			<g>
				<path class="st2" d="M11.1,23.5c-0.2,0-0.5-0.2-0.6-0.4c-0.1-0.3,0.1-0.7,0.4-0.7l6.7-1.8L15.9,14c-0.1-0.3,0.1-0.7,0.4-0.7
					c0.3-0.1,0.7,0.1,0.7,0.4l1.9,7.1c0.1,0.2,0,0.3-0.1,0.5c-0.1,0.2-0.2,0.2-0.3,0.2l-7.3,2C11.2,23.5,11.1,23.5,11.1,23.5z"/>
			</g>
		</g>
		<g class="st1">
			<g>
				<path class="st2" d="M9.9,19.8c-0.2,0-0.5-0.2-0.6-0.4c-0.1-0.3,0.1-0.7,0.4-0.7l3.1-0.8L12,14.7c-0.1-0.3,0.1-0.7,0.4-0.7
					c0.3-0.1,0.7,0.1,0.7,0.4l1,3.7c0.1,0.2,0,0.3-0.1,0.5c-0.1,0.2-0.2,0.2-0.3,0.2l-3.6,1C10,19.8,10,19.8,9.9,19.8z"/>
			</g>
		</g>
	</g>
	<g class="st0">
		<g class="st1">
			<g>
				<path class="st2" d="M8.8,34.8c-0.2,0-0.4-0.1-0.5-0.3c-0.2-0.3-0.1-0.7,0.2-0.8l14-8c0.3-0.2,0.7-0.1,0.8,0.2
					c0.2,0.3,0.1,0.7-0.2,0.8l-14,8C9,34.8,8.9,34.8,8.8,34.8z"/>
			</g>
		</g>
		<g class="st1">
			<g>
				<path class="st2" d="M16.4,36.7c-0.1,0-0.1,0-0.2,0c-0.3-0.1-0.5-0.4-0.4-0.7l1.8-6.7L11,27.4c-0.3-0.1-0.5-0.4-0.4-0.7
					c0.1-0.3,0.4-0.5,0.7-0.4l7.1,1.9c0.3,0.1,0.5,0.4,0.4,0.7l-2,7.3C16.9,36.5,16.6,36.7,16.4,36.7z"/>
			</g>
		</g>
		<g class="st1">
			<g>
				<path class="st2" d="M12.6,35.7c-0.1,0-0.1,0-0.2,0c-0.3-0.1-0.5-0.4-0.4-0.7l0.8-3.1l-3.1-0.8c-0.3-0.1-0.6-0.4-0.5-0.7
					s0.4-0.5,0.7-0.4l3.7,1c0.3,0.1,0.5,0.4,0.4,0.7l-1,3.6C13.1,35.6,12.8,35.7,12.6,35.7z"/>
			</g>
		</g>
	</g>
	<g class="st0">
		<g class="st1">
			<g>
				<path class="st2" d="M25,44.2c-0.3,0-0.6-0.2-0.6-0.6V27.5c0-0.3,0.2-0.6,0.6-0.6s0.6,0.2,0.6,0.6v16.1
					C25.5,43.9,25.3,44.2,25,44.2z"/>
			</g>
		</g>
		<g class="st1">
			<g>
				<path class="st2" d="M30.3,38.6c-0.2,0-0.3-0.1-0.4-0.2L25,33.6l-4.8,4.8c-0.2,0.2-0.7,0.2-0.8,0c-0.2-0.2-0.2-0.7,0-0.8
					l5.2-5.2c0.2-0.2,0.7-0.2,0.8,0l5.4,5.4c0.2,0.2,0.2,0.7,0,0.8C30.7,38.6,30.5,38.6,30.3,38.6z"/>
			</g>
		</g>
		<g class="st1">
			<g>
				<path class="st2" d="M22.3,41.5c-0.2,0-0.3-0.1-0.4-0.2c-0.2-0.2-0.2-0.7,0-0.8l2.7-2.7c0.2-0.2,0.7-0.2,0.8,0l2.6,2.6
					c0.2,0.2,0.2,0.7,0,0.8c-0.2,0.2-0.7,0.2-0.8,0L25,39l-2.3,2.3C22.6,41.5,22.5,41.5,22.3,41.5z"/>
			</g>
		</g>
	</g>
	<g class="st0">
		<g class="st1">
			<g>
				<path class="st2" d="M41.2,34.9c-0.1,0-0.2,0-0.3-0.1l-14-8c-0.3-0.2-0.4-0.6-0.2-0.8c0.2-0.3,0.6-0.4,0.8-0.2l14,8
					c0.3,0.2,0.4,0.6,0.2,0.8C41.6,34.8,41.4,34.9,41.2,34.9z"/>
			</g>
		</g>
		<g class="st1">
			<g>
				<path class="st2" d="M33.6,36.6c-0.2,0-0.5-0.2-0.6-0.4L31.2,29c-0.1-0.2,0-0.3,0.1-0.5c0.1-0.2,0.2-0.2,0.3-0.2l7.3-2
					c0.3-0.1,0.7,0.1,0.7,0.4c0.1,0.3-0.1,0.7-0.4,0.7l-6.7,1.8l1.7,6.5c0.1,0.3-0.1,0.7-0.4,0.7C33.8,36.6,33.7,36.6,33.6,36.6z"/>
			</g>
		</g>
		<g class="st1">
			<g>
				<path class="st2" d="M37.5,35.9c-0.2,0-0.5-0.2-0.6-0.4l-1-3.7c-0.1-0.3,0.1-0.7,0.4-0.7l3.6-1c0.3-0.1,0.7,0.1,0.7,0.4
					c0.1,0.3-0.1,0.7-0.4,0.7L37.3,32l0.8,3.1c0.1,0.3-0.1,0.7-0.4,0.7C37.7,35.9,37.6,35.9,37.5,35.9z"/>
			</g>
		</g>
	</g>
	<g>
		<g>
			<g>
				<path class="st3" d="M27,23.2l3.9-2.2l1.4-0.8l1.2-0.7l7.5-4.3c0.3-0.2,0.7-0.1,0.8,0.2c0.2,0.3,0.1,0.7-0.2,0.8l-14,8
					c-0.1,0.1-0.2,0.1-0.3,0.1"/>
			</g>
		</g>
		<g>
			<g>
				<path class="st3" d="M33.3,20.9l5.8,1.6c0.3,0.1,0.5,0.4,0.4,0.7c-0.1,0.2-0.3,0.4-0.6,0.4c-0.1,0-0.1,0-0.2,0L32,21.8"/>
				<path class="st3" d="M31.3,20.6l1.9-6.9c0.1-0.3,0.4-0.5,0.7-0.4c0.3,0.1,0.5,0.4,0.4,0.7l-1.7,6.1"/>
			</g>
		</g>
		<g>
			<g>
				<path class="st3" d="M38.2,18.1l2.3,0.6c0.3,0.1,0.5,0.4,0.4,0.7c-0.1,0.2-0.3,0.4-0.6,0.4c-0.1,0-0.1,0-0.2,0l-3.6-0.9"/>
				<path class="st3" d="M35.9,18.1l1-3.6c0.1-0.3,0.4-0.5,0.7-0.4c0.3,0.1,0.5,0.4,0.4,0.7l-0.7,2.3"/>
			</g>
		</g>
	</g>
	<g>
		<g>
			<g>
				<path class="st3" d="M24.5,22.3v-4.5v-1.6v-1.3l0.1-8.7c0-0.3,0.2-0.6,0.6-0.6c0.3,0,0.6,0.2,0.6,0.6l-0.2,16.1
					c0,0.1,0,0.2-0.1,0.3"/>
			</g>
		</g>
		<g>
			<g>
				<path class="st3" d="M25.6,15.7l4.3-4.2c0.2-0.2,0.7-0.2,0.8,0c0.2,0.2,0.2,0.5,0.1,0.7c0,0.1-0.1,0.1-0.1,0.2l-5,4.9"/>
				<path class="st3" d="M24.4,17.2l-5-5.1c-0.2-0.2-0.2-0.7,0-0.8c0.2-0.2,0.7-0.2,0.8,0l4.5,4.5"/>
			</g>
		</g>
		<g>
			<g>
				<path class="st3" d="M25.7,10.1l1.7-1.7c0.2-0.2,0.7-0.2,0.8,0c0.2,0.2,0.2,0.5,0.1,0.7c0,0-0.1,0-0.1,0.1l-2.6,2.6"/>
				<path class="st3" d="M24.6,11.9L22,9.3c-0.2-0.2-0.2-0.7,0-0.8c0.2-0.2,0.7-0.2,0.8,0l1.7,1.7"/>
			</g>
		</g>
	</g>
	<g>
		<g>
			<g>
				<path class="st3" d="M25.5,27.7l-0.1,4.5v1.6v1.3l-0.1,8.7c0,0.3-0.2,0.6-0.6,0.6c-0.3,0-0.6-0.2-0.6-0.6l0.2-16.1
					c0-0.1,0-0.2,0.1-0.3"/>
			</g>
		</g>
		<g>
			<g>
				<path class="st3" d="M24.4,34.3l-4.3,4.2c-0.2,0.2-0.7,0.2-0.8,0c-0.2-0.2-0.2-0.5-0.1-0.7c0-0.1,0.1-0.1,0.1-0.2l5-4.9"/>
				<path class="st3" d="M25.6,32.7l5,5.1c0.2,0.2,0.2,0.7,0,0.8c-0.2,0.2-0.7,0.2-0.8,0l-4.4-4.5"/>
			</g>
		</g>
		<g>
			<g>
				<path class="st3" d="M24.3,39.9l-1.7,1.7c-0.2,0.2-0.7,0.2-0.8,0c-0.2-0.2-0.2-0.5-0.1-0.7c0-0.1,0.1-0.1,0.1-0.2l2.6-2.6"/>
				<path class="st3" d="M25.4,38l2.6,2.6c0.2,0.2,0.2,0.7,0,0.8c-0.2,0.2-0.7,0.2-0.8,0l-1.7-1.7"/>
			</g>
		</g>
	</g>
	<g>
		<g>
			<g>
				<path class="st3" d="M22.8,26.7L18.9,29l-1.3,0.8l-1.2,0.7L9,34.9c-0.3,0.2-0.7,0.1-0.8-0.2S8.1,34,8.4,33.8l13.8-8.2
					c0.1-0.1,0.2-0.1,0.3-0.1"/>
			</g>
		</g>
		<g>
			<g>
				<path class="st3" d="M16.5,29.1l-5.8-1.5c-0.3-0.1-0.5-0.4-0.4-0.7c0.1-0.2,0.3-0.5,0.6-0.5c0.1,0,0.1,0,0.2,0l6.8,1.7"/>
				<path class="st3" d="M18.6,29.4l-1.8,6.9c-0.1,0.3-0.4,0.5-0.7,0.4c-0.3-0.1-0.5-0.4-0.4-0.7l1.6-6.1"/>
			</g>
		</g>
		<g>
			<g>
				<path class="st3" d="M11.7,31.9l-2.3-0.6C9.1,31.3,8.9,31,9,30.6c0.1-0.2,0.3-0.5,0.6-0.5c0.1,0,0.1,0,0.2,0l3.6,0.8"/>
				<path class="st3" d="M13.9,31.9L13,35.5c-0.1,0.3-0.4,0.5-0.7,0.4c-0.3-0.1-0.5-0.4-0.4-0.7l0.6-2.3"/>
			</g>
		</g>
	</g>
	<g>
		<g>
			<g>
				<path class="st3" d="M22.6,24.1l-3.9-2.3L17.3,21l-1.2-0.7l-7.4-4.4c-0.3-0.2-0.4-0.6-0.2-0.8c0.2-0.3,0.6-0.4,0.8-0.2L23.1,23
					c0.1,0.1,0.2,0.2,0.2,0.2"/>
			</g>
		</g>
		<g>
			<g>
				<path class="st3" d="M17.4,19.8L16,14c-0.1-0.3,0.1-0.7,0.4-0.7c0.2-0.1,0.6,0.1,0.7,0.3c0,0.1,0.1,0.1,0.1,0.2l1.7,6.8"/>
				<path class="st3" d="M18.2,21.7l-7,1.8c-0.3,0.1-0.7-0.1-0.7-0.4c-0.1-0.3,0.1-0.7,0.4-0.7l6.1-1.6"/>
			</g>
		</g>
		<g>
			<g>
				<path class="st3" d="M12.6,17l-0.6-2.3c-0.1-0.3,0.1-0.7,0.4-0.7c0.2-0.1,0.6,0.1,0.7,0.3c0,0.1,0.1,0.1,0.1,0.2l1,3.6"/>
				<path class="st3" d="M13.7,18.8l-3.6,0.9c-0.3,0.1-0.7-0.1-0.7-0.4s0.1-0.7,0.4-0.7l2.3-0.6"/>
			</g>
		</g>
	</g>
	<g>
		<g>
			<g>
				<path class="st3" d="M27,23.2l3.9-2.2l1.4-0.8l1.2-0.7l7.5-4.3c0.3-0.2,0.7-0.1,0.8,0.2c0.2,0.3,0.1,0.7-0.2,0.8l-14,8
					c-0.1,0.1-0.2,0.1-0.3,0.1"/>
			</g>
		</g>
		<g>
			<g>
				<path class="st3" d="M33.3,20.9l5.8,1.6c0.3,0.1,0.5,0.4,0.4,0.7c-0.1,0.2-0.3,0.4-0.6,0.4c-0.1,0-0.1,0-0.2,0L32,21.8"/>
				<path class="st3" d="M31.3,20.6l1.9-6.9c0.1-0.3,0.4-0.5,0.7-0.4c0.3,0.1,0.5,0.4,0.4,0.7l-1.7,6.1"/>
			</g>
		</g>
		<g>
			<g>
				<path class="st3" d="M38.2,18.1l2.3,0.6c0.3,0.1,0.5,0.4,0.4,0.7c-0.1,0.2-0.3,0.4-0.6,0.4c-0.1,0-0.1,0-0.2,0l-3.6-0.9"/>
				<path class="st3" d="M35.9,18.1l1-3.6c0.1-0.3,0.4-0.5,0.7-0.4c0.3,0.1,0.5,0.4,0.4,0.7l-0.7,2.3"/>
			</g>
		</g>
	</g>
	<g>
		<g>
			<g>
				<path class="st3" d="M27.3,25.6l3.9,2.3l1.3,0.8l1.2,0.7l7.4,4.5c0.3,0.2,0.4,0.6,0.2,0.8c-0.2,0.3-0.6,0.4-0.8,0.2l-13.8-8.3
					c-0.1-0.1-0.2-0.2-0.2-0.2"/>
			</g>
		</g>
		<g>
			<g>
				<path class="st3" d="M32.3,30l1.4,5.8c0.1,0.3-0.1,0.7-0.4,0.7c-0.2,0.1-0.6-0.1-0.7-0.3c0-0.1-0.1-0.1-0.1-0.2l-1.7-6.8"/>
				<path class="st3" d="M31.6,28.1l7-1.7c0.3-0.1,0.7,0.1,0.7,0.4c0.1,0.3-0.1,0.7-0.4,0.7L32.7,29"/>
			</g>
		</g>
		<g>
			<g>
				<path class="st3" d="M37.1,32.9l0.6,2.3c0.1,0.3-0.1,0.7-0.4,0.7c-0.2,0.1-0.6-0.1-0.7-0.3c0-0.1-0.1-0.1-0.1-0.2l-1-3.6"/>
				<path class="st3" d="M36,31l3.6-0.9c0.3-0.1,0.7,0.1,0.7,0.4c0.1,0.3-0.1,0.7-0.4,0.7l-2.3,0.6"/>
			</g>
		</g>
	</g>
	<g>
		<g>
			<path class="st2" d="M25,28.1c-1.7,0-3.2-1.4-3.2-3.2c0-1.8,1.4-3.2,3.2-3.2s3.2,1.4,3.2,3.2C28.3,26.7,26.8,28.1,25,28.1z
				 M25,22.9c-1.1,0-2,0.9-2,2c0,1.1,0.9,2,2,2s2-0.9,2-2C27,23.8,26.1,22.9,25,22.9z"/>
		</g>
	</g>
	<g>
		<g>
			<g>
				<path class="st3" d="M22.7,17.8l-2.1-2.1c-0.2-0.2-0.5-0.2-0.7-0.1c-0.2,0.2-0.3,0.4-0.3,0.7l0.7,3.1c0,0.2,0.2,0.3,0.2,0.4
					l1.4,0.8c0.1,0.1,0.2,0.1,0.3,0.1c0.1,0,0.2,0,0.3-0.1c0.2-0.1,0.3-0.3,0.3-0.5v-1.8C22.9,18.1,22.8,18,22.7,17.8z"/>
			</g>
		</g>
		<g>
			<g>
				<path class="st3" d="M20.1,24.8c0-0.2-0.1-0.4-0.3-0.5l-1.6-0.9c-0.2-0.1-0.3-0.1-0.5-0.1l-2.9,0.8c-0.2,0.1-0.4,0.3-0.4,0.6
					c0,0.2,0.2,0.5,0.4,0.6l3.1,0.9c0.1,0,0.1,0,0.2,0c0.1,0,0.2,0,0.3-0.1l1.5-0.8C20,25.3,20.1,25.1,20.1,24.8z"/>
			</g>
		</g>
		<g>
			<g>
				<path class="st3" d="M22.6,29.1c-0.2-0.1-0.4-0.1-0.6,0L20.4,30c-0.2,0.1-0.2,0.2-0.2,0.4l-0.7,2.9c-0.1,0.2,0.1,0.6,0.2,0.7
					c0.1,0.1,0.2,0.1,0.3,0.1s0.3-0.1,0.4-0.2l2.3-2.1c0.1-0.1,0.2-0.2,0.2-0.4v-1.7C22.8,29.5,22.7,29.3,22.6,29.1z"/>
			</g>
		</g>
		<g>
			<g>
				<path class="st3" d="M29.8,30.5c0-0.2-0.2-0.3-0.2-0.4l-1.4-0.8c-0.2-0.1-0.4-0.1-0.6,0c-0.2,0.1-0.3,0.3-0.3,0.5v1.8
					c0,0.2,0.1,0.3,0.2,0.4l2.1,2.1c0.1,0.1,0.2,0.2,0.4,0.2c0.1,0,0.2,0,0.3-0.1c0.2-0.2,0.3-0.4,0.3-0.7L29.8,30.5z"/>
			</g>
		</g>
		<g>
			<g>
				<path class="st3" d="M35.3,24.5l-3.1-0.9c-0.2-0.1-0.3,0-0.5,0.1l-1.5,0.8c-0.2,0.1-0.3,0.3-0.3,0.5c0,0.2,0.1,0.4,0.3,0.5
					l1.6,0.9c0.1,0.1,0.2,0.1,0.3,0.1c0.1,0,0.1,0,0.2,0l2.9-0.8c0.2-0.1,0.4-0.3,0.4-0.6C35.7,24.8,35.5,24.6,35.3,24.5z"/>
			</g>
		</g>
		<g>
			<g>
				<path class="st3" d="M27.5,20.7c0.1,0.1,0.2,0.1,0.3,0.1c0.1,0,0.2,0,0.3-0.1l1.6-0.9c0.2-0.1,0.2-0.2,0.2-0.4l0.7-2.9
					c0.1-0.2-0.1-0.6-0.2-0.7c-0.2-0.2-0.5-0.1-0.7,0.1l-2.3,2.1c-0.1,0.1-0.2,0.2-0.2,0.4v1.7C27.3,20.4,27.4,20.5,27.5,20.7z"/>
			</g>
		</g>
	</g>
</g>
</svg>
