<?xml version="1.0" encoding="utf-8"?>
<!-- Generator: Adobe Illustrator 23.1.0, SVG Export Plug-In . SVG Version: 6.00 Build 0)  -->
<svg version="1.1" id="Слой_1" xmlns="http://www.w3.org/2000/svg" xmlns:xlink="http://www.w3.org/1999/xlink" x="0px" y="0px"
	 viewBox="0 0 50 50" style="enable-background:new 0 0 50 50;" xml:space="preserve">
<style type="text/css">
	.st0{display:none;}
	.st1{display:inline;fill:#0D0E0F;}
	.st2{fill:none;stroke:#FDF9E8;stroke-miterlimit:10;}
	.st3{fill:#FDF9E8;}
</style>
<g class="st0">
	<rect class="st1" width="50" height="50"/>
</g>
<g>
	<g>
		<g>
			<g>
				<path class="st2" d="M32.8,45.4H13.9c-3,0-5.4-2-5.4-4.5l7.2-0.1c0,0,3.7,1.9,4.9,2.1c2,0.4,5.8,0.3,7.5-0.6
					c0.8-0.4,3-1.4,3-1.4h7C38.2,43.4,35.8,45.4,32.8,45.4z"/>
			</g>
		</g>
		<path class="st2" d="M8.2,25.7c0,9.6,6.8,17.4,15.2,17.4c8.4,0,15.2-7.8,15.2-17.4H8.2z"/>
		<g>
			<path class="st3" d="M35.4,39.4c-0.9,0-1.7-0.1-2.4-0.5l1.5-1.8c1.2,0.5,3.1,0.1,5-1.1c0.8-0.5,1.8-1.5,1.8-2.9
				c0-1.7-1.4-3.1-3.1-3.1c-0.3,0,0,0.2-0.3,0.2l0.3-2.8c0.5-0.1-0.6,0.3-0.1,0.3c2.9,0,5.3,2.4,5.3,5.3c0,1.9-1,3.6-2.8,4.7
				C39.1,38.8,37.1,39.4,35.4,39.4z"/>
		</g>
		<g>
			<g>
				<path class="st3" d="M21.8,11.4c-0.4,0.8-1.1,1.5-1.6,2.3c-1.2,1.8-1.4,4.1-0.6,6.1c0.8,2,2.6,3.5,4.7,3.9
					c-1.1-0.5-2-1.5-2.4-2.7c-0.4-1.2-0.3-2.5,0.3-3.6c0.5-1.1,1.5-1.8,2.1-2.8c0.6-0.9,1-2,1.1-3.1c0.1-1.3-0.2-2.7-1.2-3.5
					c-0.8-0.7-2-0.9-2.8-1.6C22.3,7.9,22.7,9.7,21.8,11.4z"/>
			</g>
			<g>
				<path class="st3" d="M25.4,22.5c-0.5-0.5-1.1-1.1-1.2-1.8c-0.1-0.7,0.2-1.4,0.6-2.1c0.4-0.6,0.7-1.2,1.1-1.8
					c0.6-0.8,1.2-1.8,1-2.7c0.8,1,0.9,2.5,0.2,3.6c-0.2,0.4-0.5,0.7-0.7,1c-0.5,0.8-0.8,1.7-0.7,2.6c0.1,0.8,0.5,1.5,1.2,2.1
					C26.4,23.6,25.8,22.9,25.4,22.5z"/>
			</g>
		</g>
	</g>
</g>
</svg>
