<?xml version="1.0" encoding="utf-8"?>
<!-- Generator: Adobe Illustrator 23.1.0, SVG Export Plug-In . SVG Version: 6.00 Build 0)  -->
<svg version="1.1" id="Слой_1" xmlns="http://www.w3.org/2000/svg" xmlns:xlink="http://www.w3.org/1999/xlink" x="0px" y="0px"
	 viewBox="0 0 50 50" style="enable-background:new 0 0 50 50;" xml:space="preserve">
<style type="text/css">
	.st0{display:none;}
	.st1{fill:#FFFFFF;}
</style>
<rect class="st0" width="50" height="50"/>
<g>
	<g>
		<path class="st1" d="M44.4,20.7C41,12.7,32.2,9,25,9c-2.7,0-5.4,0.5-7.8,1.3c-4,1.4-7.9,4.4-10.3,7.9c-2.4,3.6-3,7.8-1.3,12
			c1.6,3.8,4.4,6.8,8.2,8.9C17.1,41,21.1,41,25,41c2.6,0,5.4-0.5,7.8-1.3c4.1-1.4,8-3.3,10.3-6.9c1.4-2.1,2.2-3,2.2-6.1
			C45.5,24.4,45.1,22.4,44.4,20.7z M25,39.2c-6.7,0-14.9-2.3-18-9.7c-0.8-1.9-1-2.4-0.7-4.8c0.4,0.5,1,1,1.7,1.3
			c1.3,0.5,2,1.3,2.6,2c0.6,0.7,1.2,1.4,2.2,1.9c1.2,0.6,2.5,0.3,3.7-0.1c1.1-0.3,2.2-0.6,3-0.1c1.6,1,3.2,2,5,2c0.1,0,0.2,0,0.2,0
			c1.9,0,3.6-0.9,5.2-1.8l0.4-0.2c0.8-0.4,1.9-0.2,3,0.1c1.2,0.3,2.5,0.7,3.8,0.1c1-0.5,1.6-1.2,2.2-1.9c0.7-0.8,1.3-1.5,2.6-2
			c0.9-0.3,1.5-0.9,1.8-1.4c0.1,0.6,0.1,1.3,0.1,2c0,2.8-0.8,3.4-1.9,5.1c-2.2,3.3-5.8,5-9.6,6.3C30.1,38.8,27.5,39.2,25,39.2z
			 M25,10.8c6.6,0,14.7,3.2,17.9,10.3c0,0.1,0,0.3,0,0.4c0.1,0.2,0.5,2.1-1.4,2.9C39.8,25,39,26,38.2,26.8c-0.5,0.6-1,1.1-1.7,1.5
			c-0.7,0.4-1.7,0.1-2.8-0.2c-1.2-0.3-2.7-0.7-4,0c-0.2,0.1-0.3,0.2-0.5,0.2c-1.5,0.8-3.1,1.7-4.7,1.6c-1.5-0.1-2.9-0.9-4.3-1.8
			c-1.3-0.8-2.8-0.4-4.1,0c-1,0.3-2,0.6-2.7,0.2c-0.8-0.4-1.2-0.9-1.7-1.5C11,26,10.1,25,8.5,24.4C6.6,23.7,7,21.8,7,21.5
			c0-0.1,0-0.2,0-0.3c0.3-0.7,0.6-1.3,1-1.9c2.2-3.3,5.8-6,9.6-7.3C19.9,11.2,22.5,10.8,25,10.8z"/>
		<path class="st1" d="M11.9,20.3c0.1,0,0.3,0,0.4-0.1l1.8-1.5c0.3-0.2,0.4-0.7,0.1-1c-0.2-0.3-0.6-0.4-0.9-0.2L11.5,19
			c-0.3,0.2-0.4,0.7-0.1,1C11.5,20.2,11.7,20.3,11.9,20.3z"/>
		<path class="st1" d="M13.4,23.7c-0.1,0.4,0.1,0.8,0.4,0.9l2.2,0.9c0.1,0,0.1,0,0.2,0c0.3,0,0.5-0.2,0.6-0.5
			c0.1-0.4-0.1-0.8-0.4-0.9l-2.2-0.9C13.9,23.1,13.5,23.3,13.4,23.7z"/>
		<path class="st1" d="M18.4,16.5c0.1,0.2,0.3,0.3,0.5,0.3c0.1,0,0.2,0,0.3-0.1c0.3-0.2,0.4-0.7,0.2-1l-1-1.8
			c-0.2-0.3-0.6-0.4-0.9-0.2c-0.3,0.2-0.4,0.7-0.2,1L18.4,16.5z"/>
		<path class="st1" d="M36.5,20.7c0.1,0.2,0.3,0.3,0.5,0.3c0.1,0,0.2,0,0.3-0.1c0.3-0.2,0.4-0.7,0.2-1l-1-1.8
			c-0.2-0.3-0.6-0.4-0.9-0.2c-0.3,0.2-0.4,0.7-0.2,1L36.5,20.7z"/>
		<path class="st1" d="M33.2,24.1c-0.1,0.4,0,0.8,0.4,0.9l2.2,1c0.1,0,0.2,0.1,0.2,0.1c0.3,0,0.5-0.2,0.6-0.5c0.1-0.4,0-0.8-0.4-0.9
			l-2.2-1C33.7,23.5,33.3,23.7,33.2,24.1z"/>
		<path class="st1" d="M31.2,16.5c0.1,0,0.1,0,0.2,0l2.2-0.9c0.3-0.1,0.5-0.6,0.4-0.9c-0.1-0.4-0.5-0.6-0.8-0.4L31,15
			c-0.3,0.1-0.5,0.6-0.4,0.9C30.7,16.3,30.9,16.5,31.2,16.5z"/>
		<path class="st1" d="M23.5,13.8l2.5,0.4c0,0,0.1,0,0.1,0c0.3,0,0.6-0.3,0.6-0.6c0-0.4-0.2-0.8-0.6-0.8l-2.5-0.4
			c-0.4-0.1-0.7,0.2-0.7,0.6C22.9,13.4,23.1,13.7,23.5,13.8z"/>
		<path class="st1" d="M25.2,16.2c-4,0-7.2,2.1-7.2,4.9c0,2.7,3.2,4.9,7.2,4.9c4,0,7.2-2.1,7.2-4.9C32.4,18.4,29.3,16.2,25.2,16.2z
			 M25.2,24.4c-3.5,0-5.8-1.7-5.8-3.3c0-1.6,2.3-3.3,5.8-3.3c3.5,0,5.8,1.7,5.8,3.3C31,22.7,28.7,24.4,25.2,24.4z"/>
	</g>
</g>
</svg>
