<?xml version="1.0" encoding="utf-8"?>
<!-- Generator: Adobe Illustrator 23.1.0, SVG Export Plug-In . SVG Version: 6.00 Build 0)  -->
<svg version="1.1" id="Слой_1" xmlns="http://www.w3.org/2000/svg" xmlns:xlink="http://www.w3.org/1999/xlink" x="0px" y="0px"
	 viewBox="0 0 50 50" style="enable-background:new 0 0 50 50;" xml:space="preserve">
<style type="text/css">
	.st0{display:none;}
	.st1{display:inline;fill-rule:evenodd;clip-rule:evenodd;fill:#0D0E0F;}
	.st2{display:inline;fill:none;stroke:#FFFFFF;stroke-width:0.75;stroke-miterlimit:10;}
	.st3{display:inline;fill:#FFFFFF;}
	.st4{fill:#FFFFFF;}
</style>
<g class="st0">
	<rect class="st1" width="50" height="50"/>
</g>
<g class="st0">
	<path class="st2" d="M26.2,19v-2.9V16h0c0-0.3-0.1-0.6-0.3-0.9c-0.2-0.3-0.4-0.6-0.8-0.9c-1.5-1.4-4.7-2.4-8.3-2.4
		c-3.6,0-6.7,1-8.3,2.4c-0.3,0.3-0.6,0.6-0.8,0.9c-0.2,0.3-0.3,0.6-0.3,0.9h0v0.1v12.1c0,3,4.2,5.4,9.3,5.4c2.3,0,4.3-0.5,6-1.3
		v-9.4v-0.1l0-0.9h0.2c0.1-0.1,0.1-0.3,0.2-0.4c0.2-0.4,0.5-0.8,1-1.2C24.7,19.8,25.4,19.4,26.2,19z M16.9,18.6
		c-4.9,0-7.4-1.8-7.4-2.5c0,0,0-0.1,0-0.1c0.1-0.2,0.4-0.6,1-0.9c0.6-0.3,1.4-0.7,2.4-0.9c1.1-0.3,2.4-0.5,4-0.5
		c1.6,0,2.9,0.2,4,0.5c1,0.3,1.8,0.6,2.4,0.9c0.6,0.4,0.9,0.7,1,0.9c0,0,0,0.1,0,0.1C24.3,16.7,21.8,18.6,16.9,18.6z"/>
	<path class="st2" d="M42.4,22.8c0-0.3-0.1-0.6-0.3-0.9c-0.2-0.3-0.4-0.6-0.8-0.9c-1.5-1.4-4.7-2.4-8.3-2.4c-1.9,0-3.6,0.3-5,0.7
		c-0.3,0.1-0.6,0.2-0.9,0.3c-0.3,0.1-0.7,0.3-0.9,0.4c-0.5,0.3-1,0.6-1.4,0.9c-0.3,0.3-0.6,0.6-0.8,0.9c-0.2,0.3-0.3,0.6-0.3,0.9h0
		v0.1v8.9v1.1V34V35c0,3,4.2,5.4,9.3,5.4c5.1,0,9.3-2.4,9.3-5.4V22.9L42.4,22.8L42.4,22.8z M33.1,25.4c-2.1,0-3.8-0.3-5-0.8
		c-0.4-0.1-0.7-0.3-0.9-0.4c-0.4-0.2-0.7-0.4-0.9-0.6c-0.3-0.3-0.5-0.5-0.5-0.7c0,0,0-0.1,0-0.1c0.1-0.2,0.2-0.3,0.5-0.6
		c0.2-0.1,0.3-0.3,0.6-0.4c0.1-0.1,0.3-0.1,0.4-0.2c0.3-0.1,0.6-0.3,0.9-0.4c0.3-0.1,0.7-0.2,1-0.3c1.1-0.3,2.4-0.5,4-0.5
		c1.6,0,2.9,0.2,4,0.5c1,0.3,1.8,0.6,2.4,0.9c0.6,0.4,0.9,0.7,1,0.9c0,0,0,0.1,0,0.1C40.5,23.6,38,25.4,33.1,25.4z"/>
	<path class="st3" d="M34.4,21.9c-0.5-0.1-0.9-0.1-1.3-0.1c-0.4,0-0.8,0-1.2,0.1c-0.2-0.1-0.5-0.1-0.8-0.1c-0.8,0-1.5,0.3-1.5,0.6
		c0,0.1,0.1,0.2,0.2,0.3c-0.1,0.1-0.1,0.1-0.1,0.2c0,0,0,0.1,0,0.1c0,0.7,2.1,1.2,3.5,1.2c0.3,0,0.7,0,1.1-0.1
		c0.2,0.1,0.5,0.1,0.8,0.1c0.7,0,1.3-0.2,1.3-0.4c0-0.1-0.1-0.2-0.2-0.2c0.3-0.2,0.6-0.4,0.6-0.6c0,0,0-0.1,0-0.1
		C36.4,22.4,35.4,22.1,34.4,21.9z"/>
	<path class="st3" d="M20.3,16c-0.1-0.2-0.4-0.4-0.8-0.6c0.1-0.1,0.2-0.2,0.2-0.3c0,0,0,0,0,0c0-0.4-0.5-0.7-1.1-0.7
		c-0.6,0-1,0.3-1.1,0.7c-0.2,0-0.4,0-0.6,0c-0.4,0-0.9,0.1-1.3,0.1c-0.2,0-0.3,0.1-0.5,0.1c-0.1,0-0.2-0.1-0.3-0.1
		c-0.1,0-0.3,0-0.4,0c-0.1,0-0.3,0-0.4,0c-0.5,0.1-0.8,0.4-0.8,0.7c0,0.1,0,0.2,0.1,0.3c0.1,0.1,0.1,0.2,0.2,0.2
		c0.2,0.6,2.1,1.1,3.4,1.1c0,0,0.1,0,0.1,0c0.3,0.3,0.9,0.6,1.6,0.6c1,0,1.7-0.4,1.7-0.9c0-0.2-0.1-0.3-0.2-0.5
		c0.1-0.1,0.2-0.2,0.2-0.4C20.4,16.1,20.3,16,20.3,16z"/>
</g>
<g>
	<path class="st4" d="M15.3,34.1c-3,0-5.8-0.7-8-1.9c-2.2-1.3-3.4-3-3.4-4.9V12.4h0.1c0.1-0.3,0.2-0.6,0.3-0.9
		c0.2-0.4,0.6-0.9,1-1.2c2-1.8,5.8-2.9,10-2.9c4.2,0,8.1,1.1,10,2.9c0.4,0.4,0.8,0.8,1,1.2c0.2,0.3,0.3,0.6,0.3,0.9h0.1l0,0.6v3.7
		l-0.3,0.1c-0.9,0.4-1.7,0.9-2.2,1.4c-0.4,0.4-0.8,0.8-1,1.3c-0.1,0.2-0.1,0.3-0.2,0.5l-0.1,0.3h-0.1l0,0.8v11.4l-0.2,0.1
		C20.4,33.5,17.9,34.1,15.3,34.1z M4.7,13.2v14.1c0,1.5,1.1,3,3,4.1c2,1.2,4.7,1.8,7.5,1.8c2.4,0,4.7-0.5,6.6-1.3l0-12.5h0.4
		c0-0.1,0.1-0.2,0.1-0.3c0.3-0.5,0.7-1.1,1.2-1.5c0.6-0.5,1.3-1,2.2-1.4l0-3.2c0-0.3-0.1-0.6-0.3-0.9c-0.2-0.3-0.4-0.7-0.8-1
		c-1.8-1.6-5.4-2.7-9.4-2.7c-4,0-7.6,1-9.4,2.7c-0.3,0.3-0.6,0.6-0.8,1c-0.2,0.3-0.3,0.6-0.3,0.9L4.7,13.2z M15.2,16.4
		c-5.7,0-9.2-2.2-9.2-3.4c0-0.1,0-0.2,0.1-0.3c0.2-0.6,1-1.1,1.4-1.4c0.8-0.5,1.8-0.9,2.9-1.2c2.9-0.8,6.7-0.8,9.6,0
		c1.1,0.3,2.1,0.7,2.9,1.2c0.4,0.3,1.2,0.8,1.4,1.4c0,0.1,0.1,0.2,0.1,0.3C24.4,14.2,20.9,16.4,15.2,16.4z M15.3,10.5
		c-1.6,0-3.2,0.2-4.6,0.5c-1.3,0.3-2.2,0.8-2.7,1.1c-0.7,0.4-1,0.8-1,0.9c0.1,0.4,2.7,2.5,8.3,2.5c5.6,0,8.2-2.1,8.3-2.5
		c0-0.1-0.3-0.4-1-0.8c-0.5-0.3-1.4-0.7-2.7-1.1C18.4,10.7,16.9,10.5,15.3,10.5z"/>
	<path class="st4" d="M34.6,42.6c-6.4,0-11.5-3.1-11.5-6.9v-15h0.1c0.1-0.3,0.2-0.6,0.3-0.9c0.2-0.4,0.6-0.9,1-1.3
		c0.4-0.4,1-0.8,1.7-1.2c0.4-0.2,0.8-0.4,1.2-0.5c0.4-0.1,0.8-0.3,1.2-0.4c1.8-0.6,3.9-0.8,6.1-0.8c4.3,0,8.1,1.1,10.1,2.9
		c0.4,0.4,0.8,0.8,1,1.3c0.2,0.3,0.3,0.6,0.3,0.9h0.1v15C46.2,39.5,41,42.6,34.6,42.6z M24,21.4v14.2c0,3.3,4.8,6,10.6,6
		c5.9,0,10.6-2.7,10.6-6l0-14.5c0-0.3-0.1-0.6-0.3-0.9c-0.2-0.3-0.5-0.7-0.8-1c-1.8-1.7-5.5-2.7-9.5-2.7c-2.1,0-4.1,0.3-5.8,0.8
		c-0.4,0.1-0.7,0.2-1.1,0.4c-0.4,0.2-0.7,0.3-1.1,0.5c-0.6,0.3-1.1,0.7-1.5,1c-0.3,0.3-0.6,0.7-0.8,1c-0.2,0.3-0.3,0.6-0.3,0.9
		L24,21.4z M34.6,24.7c-2.9,0-4.9-0.5-6.1-1c-0.4-0.2-0.8-0.3-1.2-0.5c-0.5-0.2-0.9-0.5-1.2-0.8c-0.5-0.4-0.8-0.8-0.8-1.1
		c0-0.1,0-0.2,0-0.3c0.1-0.3,0.3-0.6,0.7-0.9c0.2-0.2,0.4-0.3,0.7-0.5c0.1-0.1,0.3-0.2,0.5-0.3c0.3-0.2,0.7-0.3,1.2-0.5
		c0.4-0.1,0.8-0.3,1.3-0.4c2.9-0.8,6.7-0.8,9.7,0c1.1,0.3,2.2,0.7,3,1.2c0.8,0.5,1.3,0.9,1.4,1.4c0,0.1,0.1,0.2,0.1,0.3
		c0,0.3-0.2,0.6-0.5,0.9C42.5,23.1,39.6,24.7,34.6,24.7z M34.6,18.8c-1.7,0-3.2,0.2-4.6,0.5c-0.4,0.1-0.8,0.2-1.2,0.4
		c-0.4,0.1-0.8,0.3-1.1,0.5c-0.2,0.1-0.3,0.2-0.4,0.2c-0.2,0.1-0.4,0.3-0.6,0.4c-0.3,0.2-0.4,0.4-0.4,0.5c0,0,0.1,0.2,0.4,0.4
		c0.3,0.2,0.6,0.4,1,0.7c0.3,0.2,0.7,0.3,1.1,0.5c1.1,0.4,3.1,0.9,5.8,0.9c5.6,0,8.3-2.1,8.4-2.5c0-0.1-0.3-0.4-1-0.8
		c-0.5-0.3-1.4-0.7-2.7-1.1C37.8,19,36.3,18.8,34.6,18.8z"/>
	<path class="st4" d="M36.2,20c-0.6-0.1-1.1-0.2-1.6-0.2c-0.4,0-0.9,0.1-1.4,0.1c-0.3-0.1-0.6-0.1-1-0.1c-1,0-1.7,0.3-1.7,0.7
		c0,0.1,0.1,0.2,0.2,0.3c-0.1,0.1-0.1,0.2-0.2,0.2c0,0,0,0.1,0,0.1c0,0.8,2.5,1.4,4.1,1.4c0.4,0,0.9,0,1.3-0.1
		c0.3,0.1,0.6,0.1,0.9,0.1c0.8,0,1.5-0.2,1.5-0.5c0-0.1-0.1-0.2-0.3-0.3c0.4-0.2,0.7-0.4,0.7-0.7c0,0,0-0.1,0-0.1
		C38.5,20.7,37.4,20.3,36.2,20z"/>
	<path class="st4" d="M19.3,12.9c-0.1-0.3-0.5-0.5-1-0.7c0.1-0.1,0.2-0.3,0.2-0.4c0,0,0,0,0-0.1c0-0.5-0.6-0.9-1.3-0.9
		c-0.7,0-1.2,0.4-1.3,0.8c-0.2,0-0.5,0-0.7,0c-0.5,0-1,0.1-1.6,0.2c-0.2,0-0.4,0.1-0.6,0.1c-0.1,0-0.2-0.1-0.3-0.1
		c-0.2,0-0.3-0.1-0.5-0.1c-0.2,0-0.3,0-0.5,0.1c-0.6,0.1-1,0.4-1,0.8c0,0.1,0,0.2,0.1,0.3c0.1,0.1,0.2,0.2,0.3,0.3
		c0.3,0.7,2.5,1.3,4,1.3c0,0,0.1,0,0.1,0c0.3,0.4,1,0.7,1.9,0.7c1.1,0,2-0.5,2-1.1c0-0.2-0.1-0.4-0.3-0.6c0.2-0.1,0.3-0.3,0.3-0.4
		C19.3,13,19.3,12.9,19.3,12.9z"/>
</g>
</svg>
