<?xml version="1.0" encoding="utf-8"?>
<!-- Generator: Adobe Illustrator 23.1.0, SVG Export Plug-In . SVG Version: 6.00 Build 0)  -->
<svg version="1.1" xmlns="http://www.w3.org/2000/svg" xmlns:xlink="http://www.w3.org/1999/xlink" x="0px" y="0px"
	 viewBox="0 0 50 50" style="enable-background:new 0 0 50 50;" xml:space="preserve">
<g id="Слой_2" style="display:none;">
	<rect style="display:inline;fill-rule:evenodd;clip-rule:evenodd;fill:#0D0E0F;" width="50" height="50"/>
</g>
<g id="Слой_1">
	<g>
		<path style="fill-rule:evenodd;clip-rule:evenodd;fill:#FFFFFF;" d="M10.6120605,16.4735718
			c0-0.7045078-0.2245207-1.2327423-0.6734838-1.5847158c-0.3873205-0.3083668-0.911231-0.462429-1.5712395-0.462429
			c-0.4668603,0-0.8717122,0.0704603-1.2152023,0.2112961c0,0.0441666-0.0044174,0.2774248-0.0131545,0.6998568
			c-0.0087924,0.4226685-0.0131125,0.7793694-0.0131125,1.0699406c0,0.9421692,0.0218496,1.50103,0.0660329,1.6769733
			l0.0394535,0.0134678l0.0397339,0.0132236c0.04387,0.0174751,0.0924292,0.0306225,0.1453505,0.0394402
			c0.0879159,0.0087357,0.3475537,0.0134659,0.7790256,0.0134659c0.7924366,0,1.3601208-0.0927429,1.7035952-0.2777443
			C10.3743935,17.6399422,10.6120605,17.1690159,10.6120605,16.4735718z M12.7534657,21.8510132
			c-0.0525827,0.0770321-0.1102161,0.1511784-0.17346,0.2219563c-0.3347378,0.3785858-0.9027338,0.7437-1.7036667,1.0959148
			c-0.4625092,0.1991901-1.1112232,0.3178215-1.9472733,0.3562984c0.0639009-0.1984692,0.1443701-0.3894863,0.2448893-0.5676746
			c1.2367496-0.0059319,1.9770041-0.4076042,2.2202816-1.2048492c0.1005173-0.0056114,0.2003937-0.0080967,0.2993078-0.0080967
			C12.0492821,21.7445621,12.4059029,21.7758255,12.7534657,21.8510132z M11.3644981,20.2856979
			c-0.3453989-1.0535908-1.4413118-1.5802231-3.2877312-1.5802231c-0.17629,0-0.3479075,0.0043278-0.5151081,0.0131435
			c-0.1849875,0.0174751-0.3080444,0.0350304-0.3697581,0.0525837v0.6603413c0,0.413929,0.0044174,0.7969227,0.0131531,1.1491337
			c0.0165935,0.6829414,0.0387893,1.18577,0.0663791,1.5092049c-0.3431773,0.3973408-0.6015253,0.839489-0.7850142,1.3173103
			c-0.2961736-0.0266132-0.5103459-0.0400791-0.6415725-0.0400791c-0.2817369,0-0.6252279,0.0306969-1.030087,0.0923424
			c0-0.0262928-0.0044088-0.0529079-0.0131459-0.0791988l-0.013154-0.0397568l-0.0134664-0.0394363l-0.0131454-0.0263729
			c0-0.0969906,0.0529118-0.1452465,0.1584067-0.1452465h0.0923977c0.0353494-0.0090561,0.0926781-0.0134659,0.1718659-0.0134659
			h0.0923409l0.105896-0.0128269c0.1580625-0.0178738,0.255126-0.070776,0.2902584-0.1587906
			c0.0528798-0.1935005,0.0791874-0.8187275,0.0791874-1.8752041v-3.0375671c0-2.1216059-0.1230578-3.3145914-0.3694458-3.5785484
			c-0.1409326-0.1146269-0.3567004-0.1716156-0.6472712-0.1716156c-0.1233706,0-0.18502-0.0704613-0.18502-0.2113771
			l0.0266123-0.0397587c0.0438704,0,0.2288575,0.0044079,0.5545297,0.0131454l0.3697906,0.0266132h0.3829684
			c0.228857,0,0.7614951-0.0309401,1.5977945-0.0926628c0.3876333-0.0262899,0.7220426-0.0438433,1.0038762-0.0525837
			c0.3960581-0.0178747,0.7746496-0.0262899,1.1356783-0.0262899c0.7658262,0,1.3689289,0.1274481,1.8091545,0.3829136
			c0.5635872,0.343152,0.8454199,0.9111471,0.8454199,1.7033463c0,0.6515961-0.2818327,1.2020378-0.8454199,1.6507626
			c-0.2113762,0.1759434-0.4533701,0.3259182-0.7261467,0.4489594c-0.2201118,0.1058903-0.4402246,0.1850834-0.6603374,0.2376671
			c0.2639589,0,0.5369759,0.031023,0.8188095,0.0924225c0.3873196,0.0706978,0.7304745,0.1718559,1.0301027,0.3040352
			c0.7690306,0.3600693,1.1807995,0.8988876,1.2349854,1.6166191c-0.1637611-0.0131474-0.3281641-0.0226059-0.4925661-0.0294991
			c-0.3065233-0.0200405-0.6246691-0.0269337-0.9421711-0.0269337
			C11.5833273,20.2788048,11.4737539,20.2810497,11.3644981,20.2856979z"/>
		<path style="fill-rule:evenodd;clip-rule:evenodd;fill:#FFFFFF;" d="M44.1269379,18.4032822
			c0-0.6368523-0.3275223-0.9553185-0.9825745-0.9553185c-0.4837456,0-0.753315,0.2448807-0.8083839,0.7348862
			c-0.0122643,0.0732613-0.0181961,0.1284103-0.0181961,0.1653633c0,0.0366325,0.0059319,0.0916977,0.0181961,0.1652851
			C42.9483795,18.4950619,43.545475,18.4584293,44.1269379,18.4032822z M45.4495354,19.6613522
			c-0.0854492,0.0613995-0.2385521,0.1838017-0.4589882,0.3676014l-0.2573776,0.2110538l-0.2755814,0.2023201
			c-0.4530525,0.3306484-0.8265839,0.5081177-1.120285,0.5325642h-0.0827255
			c-0.5388145-0.0244465-0.9796791-0.1866055-1.3225937-0.4868774c-0.3735313-0.3184643-0.5604553-0.7530785-0.5604553-1.3041611
			v-0.0550671c0.0122604-0.3857975,0.1377869-0.7255039,0.3766556-1.0195236
			c0.1469307-0.1838017,0.4011078-0.4042339,0.762455-0.6612988c0.6184158-0.4471169,1.1297379-0.6703548,1.5336533-0.6703548
			c0.2388687,0,0.4656372,0.1039639,0.6797371,0.3121319c0.2571449,0.2570648,0.3857956,0.5877132,0.3857956,0.9919472v0.1193562
			c0,0.2204323-0.0704536,0.3369026-0.2113686,0.3490849c-0.2019234,0.0366306-0.6061554,0.0642052-1.2123833,0.0826416
			c-0.226368,0.0062523-0.4712486,0.0122662-0.7345657,0.0185184h-0.5970917
			c0.0857697,0.3917255,0.3306465,0.7069874,0.7348785,0.9459381c0.3794708,0.2140999,0.8172112,0.3275204,1.3132248,0.3397045
			h0.0460091c0.165287,0,0.3397102-0.0397587,0.52351-0.1192722c0.1530991-0.0613995,0.2818336-0.1346664,0.3857956-0.2204323
			c0.012188-0.0122662,0.0243683-0.0185184,0.0366325-0.0185184c0.0184364,0,0.0338287,0.0121841,0.0460129,0.0369549
			l0.0090561,0.0275745V19.6613522z M40.9306602,16.832674c0.0858459,0,0.1287308-0.0369511,0.1287308-0.1102161
			c0-0.0125027-0.0062523-0.0306988-0.0185165-0.0550671c-0.0059319-0.0185165-0.0153084-0.0338249-0.0274925-0.0460091
			c-0.0917778,0.0059319-0.3397865,0.0121841-0.7440186,0.0184364c-0.4101677,0.0121822-0.676609,0.0181942-0.799015,0.0181942
			c-0.0551491,0-0.2480049-0.006012-0.5786552-0.0181942l-0.1744194-0.0093822h-0.1562309
			c-0.1102142-0.0059319-0.1744232-0.0090542-0.1928596-0.0090542c-0.0429611,0.0306187-0.0642014,0.0672493-0.0642014,0.1102161
			c0,0.0672512,0.060997,0.1010761,0.1837959,0.1010761h0.1192741l0.1468506,0.0181961
			c0.110218,0.0121841,0.186924,0.0369549,0.2298088,0.0735855c0.0732651,0.0610809,0.1252861,0.3518906,0.1559868,0.8726749
			l-0.0181923,1.4969406c-0.0307007,0.6798153-0.0676537,1.0655327-0.110218,1.1573143
			c-0.0307007,0.0673313-0.144043,0.1133404-0.3400269,0.1377907c-0.0610809,0.0062523-0.1377907,0.0153084-0.2295723,0.0274925
			H38.349987c-0.0307007,0.0062523-0.0551453,0.0091381-0.0735817,0.0091381h-0.0735855
			c-0.0428848,0.0062542-0.0642014,0.0397587-0.0642014,0.101078l0.0091324,0.0551491
			c0,0.0184345,0.0031281,0.0275745,0.0093765,0.0275745c0,0.0121841,0.1499748,0.0184364,0.4499245,0.0184364
			c0.122406,0,0.2968254-0.0031281,0.52351-0.0093803h0.3948555c0.1897354,0,0.4408684,0.0031281,0.7533226,0.0093803
			c0.3122101,0.0059299,0.4897575,0.0090561,0.5326424,0.0090561h0.064209l0.0275726-0.0090561
			c0.0184402,0,0.0274963-0.0093803,0.0274963-0.0275764v-0.046011l0.0093765-0.0366287
			c-0.0062485-0.0307026-0.0215607-0.0522633-0.0460091-0.0645275l-0.0366325-0.0181141h-0.0275764l-0.1652832-0.0185184
			l-0.1747398-0.0184364c-0.0488129-0.0121861-0.0979538-0.0303783-0.1468468-0.0551491
			c-0.0428848-0.0243664-0.0735855-0.0456867-0.0917091-0.0641251c-0.0673294-0.1287327-0.1074066-0.5173359-0.1195908-1.1663704
			l0.0093765-1.3044834c0.0303841-0.6243477,0.0885773-0.9888229,0.1743431-1.0927067
			c0.0367126-0.0369511,0.1346664-0.0613995,0.2940178-0.0735836c0.0551491-0.0063324,0.1162262-0.00914,0.1835632-0.00914
			H40.9306602z M35.5209923,17.4939747c-0.0121803-0.263319-0.0460129-0.4408665-0.1011581-0.5328884
			c-0.0795174-0.0795135-0.272377-0.1192722-0.5785789-0.1192722c-0.0858498,0-0.1377869-0.0520229-0.1559868-0.1563091
			c0-0.0428848,0.0213242-0.0795135,0.064209-0.1102161c0.0184364,0,0.0826454,0.0031261,0.1928596,0.0094604h0.1562233
			l0.174427,0.009058c0.3306465,0.0121841,0.5235062,0.0184345,0.5786552,0.0184345
			c0.1223984,0,0.3735313-0.0062504,0.7530785-0.0184345c0.4041519-0.0062523,0.6521645-0.0122662,0.7439423-0.0185184
			c0.0121841,0.0122662,0.0215607,0.0275745,0.0275726,0.046093c0.012188,0.0243664,0.0184364,0.0428829,0.0184364,0.0550652
			c0,0.0735874-0.0428848,0.1102161-0.1286545,0.1102161H37.128231c-0.0673332,0-0.128418,0.0031281-0.1834869,0.0090599
			c-0.1594276,0.0122643-0.2573814,0.0369511-0.294014,0.0735836c-0.0551453,0.0673351-0.0980301,0.2417564-0.1287308,0.5235901
			c-0.0059357,0.0916977-0.0090561,0.2112942-0.0090561,0.3581429c-0.0062523,0.3429146,0.0031204,0.5755291,0.0275726,0.6979313
			l0.0274925,0.0094585l0.0185127,0.009058c0.024456,0.0121861,0.125206,0.0244465,0.3030777,0.0366306
			c0.0244522,0,0.0489006-0.0031242,0.0732689-0.0090561l0.7258186,0.1192722h-0.0185127
			c0.1712952,0.0184364,0.3215904,0.0613213,0.4500046,0.1286545c0.5328865,0.3613491,0.6002159,0.8573627,0.2022324,1.4879627
			c-0.1652832,0.2326183-0.4408646,0.4223499-0.82658,0.5695171c-0.1778717,0.0366325-0.3263206,0.055151-0.4455948,0.055151
			s-0.356617-0.0216446-0.7120399-0.0645294c-0.3550148-0.0366325-0.5967712-0.0550671-0.7254257-0.0550671
			c-0.196064,0-0.4346123,0.0215626-0.7164459,0.0644455c0-0.0184345-0.0031281-0.0369511-0.0090561-0.0550652l-0.0093765-0.0275745
			l-0.00914-0.0275764l-0.0090599-0.0184345c0-0.0673332,0.0366325-0.10116,0.110218-0.10116h0.0642052
			c0.0243683-0.0059319,0.0644455-0.0090561,0.1195946-0.0090561h0.064209l0.0735817-0.009058
			c0.1098938-0.0122662,0.1775513-0.0492191,0.2019196-0.1102161c0.0366287-0.134985,0.0551453-0.8911915,0.0551453-2.2688599
			C35.5485649,17.9714718,35.5394249,17.7447853,35.5209923,17.4939747z M36.8160172,18.8807774
			c-0.1468506,0.0185184-0.2388725,0.0338287-0.2755013,0.046011v0.4590607
			c0.0243683,0.3553391,0.0519409,0.5970936,0.0826416,0.7258282c0.0917778,0.0916977,0.2787094,0.1377087,0.5601425,0.1377087
			c0.2818336,0,0.4625015-0.1562271,0.5420227-0.468359C37.7497711,19.1992455,37.4466171,18.8992958,36.8160172,18.8807774z
			 M34.3361855,20.837101c-0.3306503-0.0121841-0.5939674-0.0184364-0.7900314-0.0184364
			c-0.165287,0-0.4468002,0.0031281-0.8451042,0.0093803c-0.3979836,0.0059299-0.6152077,0.0090561-0.6519165,0.0090561
			c-0.0550709,0-0.0920219-0.0031261-0.11022-0.0090561c-0.0184345-0.0062523-0.0274925-0.0215645-0.0274925-0.046011
			l-0.0093784-0.0275764v-0.0275726c0-0.0366325,0.0581932-0.0641251,0.1746597-0.0826435
			c0.0428886,0,0.0917816-0.0031261,0.1468506-0.0090542l0.0551529-0.0093803h0.0460052
			c0.1039619-0.0122643,0.165287-0.0488968,0.1834831-0.1102161c0.0613976-0.1102161,0.1074104-0.4743748,0.1377907-1.0927868
			l0.0184364-0.4318104c-0.055069-0.0184345-0.3337784-0.0306988-0.835722-0.0366287l-0.5143719,0.0366287
			c-0.3979816,0.0185184-0.6338024,0.0338287-0.7073898,0.046011l-0.0274944,0.3031578
			c0,0.6672287,0.0306206,1.0529461,0.09202,1.1572342c0.0366344,0.0610771,0.0885754,0.098032,0.1559086,0.1102161
			l0.303154,0.0275745c0.0184383,0,0.0368729,0.005928,0.055069,0.0181141
			c0.0247688,0.0122643,0.0369511,0.0307026,0.0369511,0.0551472v0.0645275
			c-0.0062523,0.0366325-0.0153084,0.0578728-0.0275726,0.0641251h-0.0826454c-0.0491333,0-0.2633133-0.0031261-0.6431007-0.0090561
			c-0.3732948-0.0062523-0.6459866-0.0093803-0.8172855-0.0093803c-0.1837978,0-0.4530487,0.0062523-0.8084679,0.0184364v-0.1192722
			c0-0.0614014,0.0551491-0.0920219,0.1653652-0.0920219c0.110218,0,0.208168-0.0122643,0.2940178-0.0366306
			c0.1102161-0.0307026,0.1775494-0.0795975,0.2019157-0.1468487c0.036953-0.0980358,0.0735874-0.5207844,0.1102161-1.2675304
			c0.036953-0.7411346,0.055151-1.2371502,0.055151-1.4878826c0-0.251133-0.0610828-0.4625111-0.1834812-0.6338062
			c-0.0858517-0.0798378-0.2298126-0.1195965-0.4318085-0.1195965c-0.0795155,0-0.1192741-0.0335045-0.1192741-0.1008377
			c0-0.0246868,0.009058-0.0491371,0.0274944-0.0735836c0.0244484,0,0.1806755,0.0031261,0.4684372,0.0091381
			c0.1346664,0.0062542,0.2358246,0.0121861,0.3030777,0.0184345h0.2019978c0.1346626,0,0.3766575-0.0062485,0.7255039-0.0184345
			c0.3369026-0.006012,0.5482769-0.0122643,0.6337242-0.0181942c0.0062542,0,0.0153103,0.0028038,0.0275764,0.0090561
			c0.0062504,0.006012,0.0093746,0.0366325,0.0093746,0.0917797v0.0275764l-0.0093746,0.0369511
			c-0.0059338,0.0059299-0.018198,0.0121822-0.0366344,0.0181141h-0.1653614l-0.1286545,0.0093803
			c-0.0917797,0.0122623-0.1591148,0.0397568-0.2019958,0.0827236c-0.0610008,0.0732632-0.1133461,0.3428307-0.156229,0.8081474
			c-0.0303764,0.4101639-0.0397568,0.6337242-0.0275745,0.6703548c0.0551491,0.0369549,0.2649193,0.055069,0.6293945,0.055069
			c0.3641567,0,0.6199398-0.0028057,0.7667885-0.009058c0.3979836-0.0062504,0.6184158-0.0213223,0.6613007-0.046011
			c0.0185165-0.0732613,0.0122643-0.3306503-0.0184364-0.7715168c-0.0303802-0.3857956-0.0795174-0.6152878-0.1468468-0.6888714
			c-0.0366325-0.0303802-0.0980339-0.0519409-0.1838036-0.0642071l-0.1008377-0.0090561h-0.1471672
			c-0.073267,0-0.110218-0.046011-0.110218-0.1377926c0-0.0306988,0.0062504-0.046011,0.0185146-0.046011
			c0.0062523-0.0121803,0.0121803-0.0215607,0.0184364-0.0275726l0.018198-0.0090561
			c0.0920181,0.0059299,0.3030739,0.0121822,0.6337242,0.0181942c0.3369026,0.0121861,0.5604591,0.0184345,0.6706772,0.0184345
			c0.0610809,0,0.2357445-0.0062485,0.5235062-0.0184345h0.1559906c0.0613174,0,0.1073303-0.0031261,0.1377068-0.0091381h0.1653633
			c0.0184402,0.0185184,0.0278168,0.0335064,0.0278168,0.0460911v0.0274925l-0.0093765,0.0181961
			c0,0.0798397-0.0366364,0.1195965-0.110218,0.1195965c-0.1959839,0-0.3365784,0.0335045-0.422348,0.1008358
			c-0.0795174,0.0735874-0.1287308,0.3215942-0.147171,0.7439423c0,1.6780186,0.0153084,2.5566216,0.0460091,2.6361408
			c0.0184364,0.0673313,0.0857697,0.1164684,0.20224,0.1468468c0.0426445,0.0121841,0.0949059,0.0215626,0.1559868,0.0275745
			l0.0735855,0.0093803h0.0826416l0.0460091,0.0090542l0.0366287,0.0185184
			c0.0307045,0.0121822,0.0488968,0.0335026,0.0551529,0.0641251V20.837101z M29.1099968,19.5787086
			c-0.1102161,0.0798378-0.2448788,0.1838017-0.4042339,0.3125362l-0.2019958,0.1559048l-0.2113762,0.1652851l-0.1652832,0.1196747
			l-0.1653671,0.1283321c-0.1345825,0.098032-0.2416725,0.1837997-0.32127,0.2573872
			c-0.1349049,0.1284122-0.3428307,0.1928577-0.6245861,0.1928577c-0.5695992,0-1.034914-0.1499748-1.3961849-0.4502449
			c-0.3795433-0.3184662-0.5692787-0.7498741-0.5692787-1.2950249v-0.1008358
			c0.0121861-0.3369007,0.1315403-0.6522427,0.3582249-0.9462605c0.1590309-0.1956635,0.4070377-0.4192238,0.7439404-0.6703568
			l0.0826435-0.0642071c0.5939693-0.4104862,1.0806026-0.6155281,1.4603863-0.6155281h0.0456924
			c0.1224823,0.0062542,0.2727757,0.0397587,0.4502449,0.101078l0.2110538,0.0735855
			c0.0798397,0.0244465,0.1499786,0.0426445,0.2113762,0.0551491l-0.0917797,0.1744213l-0.0920219,0.1743431l-0.1744194,0.3491669
			c-0.1345882,0.2692471-0.2479305,0.5388165-0.3397121,0.8081455l-0.0275726,0.0184364
			c-0.0121822,0-0.0246868-0.0062523-0.036953-0.0184364c-0.0181141-0.0121841-0.0274944-0.0213223-0.0274944-0.0275745
			c0.0184383-0.0550671,0.0274944-0.1255245,0.0274944-0.2110538c0-0.1900539-0.0641251-0.3337765-0.1928577-0.4317265
			c-0.1834831-0.1838017-0.4837513-0.2755833-0.8999271-0.2755833c-0.049139,0-0.1470909,0.0059319-0.2939377,0.0185165
			c-0.1409168,0.0121822-0.2295723,0.0488186-0.2665253,0.110218c-0.1223984,0.1774673-0.1834812,0.4467945-0.1834812,0.8081474
			c0,0.4774971,0.2110558,0.8387661,0.6337261,1.0836468c0.3610325,0.2082481,0.8357239,0.3125362,1.4234371,0.3125362
			c0.1775494,0,0.3613472-0.0398388,0.5510826-0.1196766c0.1409149-0.0610008,0.2755814-0.1377106,0.4042358-0.2294922
			c0.0062523-0.0062485,0.0153885-0.0090542,0.0275726-0.0090542l0.0275726,0.0090542l0.0184364,0.0090599l0.0091381,0.0185165
			V19.5787086z M24.7748413,17.1999569l-0.3124542,0.6704369l-0.3212719,0.6797352
			c-0.245121,0.5081997-0.4837513,0.9612484-0.7163658,1.35923c-0.5817833,1.0104656-1.224968,1.861496-1.9288292,2.5534973
			c-0.6919994,0.6856651-1.4146194,1.2308197-2.167696,1.6347294c-0.0428867-0.0550671-0.1010818-0.1621571-0.1744251-0.32127
			c-0.079834-0.1652832-0.1227207-0.2817516-0.1286526-0.3490849l0.2019958-0.0826435l0.1928596-0.0827236
			c0.1593533-0.0673313,0.2786274-0.1164684,0.358223-0.1468468c0.2510548-0.1164665,0.471487-0.2326164,0.6612988-0.3490849
			c0.4530525-0.2877674,0.9982014-0.7900333,1.6350498-1.5064011c-0.1716137-0.2570629-0.3061981-0.4653111-0.4042301-0.6243439
			c-0.1593533-0.2573891-0.3062-0.514452-0.4408665-0.7715168c-0.3306484-0.6612988-0.6305981-1.4300079-0.9001694-2.3054905
			c-0.0122623-0.0428829-0.0520229-0.0704556-0.1193523-0.0826416l-0.1010799-0.0185165h-0.2110519
			c-0.0307026,0-0.0460129-0.0212402-0.0460129-0.0641251c0-0.0366325,0.009058-0.055151,0.0274963-0.055151
			c0.6857452-0.1837997,1.2155056-0.3857155,1.5890388-0.6061478c0.0367126,0.195982,0.0855293,0.4042339,0.1469288,0.6246662
			c0.0795174,0.3058815,0.1684113,0.5998993,0.2664452,0.8817329c0.2754974,0.7715149,0.5936432,1.3835964,0.9549942,1.8367271
			c0.1775494-0.3000298,0.3247166-0.6948071,0.4408665-1.1848888c0.0428848-0.1834793,0.0888958-0.4132919,0.1377888-0.6887913
			l0.0644474-0.367281l0.0732632-0.3767414l0.0093803-0.055069v-0.0456886c0-0.1716156-0.0735054-0.2573853-0.2204342-0.2573853
			h-0.1195946c-0.0243664,0.0062523-0.0641251,0.0093784-0.1192741,0.0093784c-0.0307007,0-0.0460091-0.0275726-0.0460091-0.0826416
			c0-0.0185184,0.0031223-0.0338268,0.0093746-0.046093c0.0059338-0.0121841,0.0149918-0.0184364,0.0275764-0.0184364
			c0.9919491-0.1284122,1.5154552-0.1928577,1.5705261-0.1928577c0.0795956,0,0.1377888,0.0031281,0.1744251,0.0093803
			c0.048893,0.0181141,0.0735798,0.051939,0.0735798,0.1008377c0,0.0369511-0.0121822,0.0672512-0.0369511,0.09202
			L24.7748413,17.1999569z M20.1915188,20.4238091c-0.1409168,0.0488167-0.2936954,0.1315403-0.459383,0.2480087
			l-0.1007595,0.0735855l-0.1102161,0.0732613c-0.0858479,0.055069-0.1806736,0.1042843-0.2849579,0.147171
			c-0.0610828,0.0121822-0.1102161,0.0181141-0.1468487,0.0181141c-0.1775494,0-0.3184662-0.0641251-0.42243-0.1928596
			c-0.1345844-0.159029-0.2786274-0.32127-0.4317303-0.4865532l-0.1837997-0.2113781l-0.1834812-0.2019138
			c-0.3000298-0.3369827-0.6062298-0.6919994-0.918684-1.0655346v1.0836487c0,0.0614014,0.0031261,0.1195946,0.0093803,0.1747456
			c0.0059299,0.0732613,0.0181141,0.1405945,0.0366306,0.2019138c0.0491352,0.153101,0.1317768,0.251133,0.2480049,0.2940178
			c0.0243683,0.0060101,0.0581951,0.0122623,0.1010818,0.0181961h0.1102161c0.0306988,0,0.0858459-0.0028038,0.1653652-0.0090561
			h0.1102161c0,0.0121841-0.0031281,0.0274925-0.0093784,0.046011l-1.9288292,0.2846375
			c0.0857677-1.4450798,0.1164675-2.6515293,0.0920992-3.6187077c-0.0063314-0.1716194-0.0735846-0.2573872-0.2023153-0.2573872
			c-0.0303822,0-0.1008377,0.0121841-0.2110538,0.0369549l-0.2573872,0.0917778v-0.0917778
			c1.0596008-0.2818356,1.7237053-0.52351,1.9933548-0.7258282c0.0121841,0.0122643,0.0243683,0.0275726,0.0366306,0.0460911
			c-0.1039619,0.0672512-0.1684895,0.1897316-0.1929379,0.367281c-0.0795155,0.5328884-0.1192741,1.1391182-0.1192741,1.818531
			c0.4896832-0.3121319,0.9246159-0.6491127,1.3041611-1.0100632c0.055069-0.0551472,0.0826435-0.1074104,0.0826435-0.1563072
			c0-0.0673313-0.052021-0.1408386-0.1562271-0.2204323l-0.1377888-0.0916996l-0.1284122-0.0921021
			c-0.0428867-0.0366325-0.0644474-0.0610008-0.0644474-0.0732632c0-0.0121822,0.0093784-0.0184364,0.0274944-0.0184364
			c0.036953,0,0.0676517,0.0090561,0.0921001,0.0275745c0.1286526,0.0428848,0.2908916,0.0826435,0.4865551,0.1192722
			c0.2389488,0.0428848,0.4380608,0.0645294,0.5970917,0.0645294h0.0366344
			c0.1716175-0.0063343,0.3278446-0.0275745,0.4687595-0.0645294l0.0732651-0.0275726l0.0642071-0.0181141
			c0.0491333-0.0122662,0.0826397-0.0216446,0.1011562-0.0275745c0.0184383,0,0.0460129,0.0059299,0.0826435,0.0181141
			c0.0369549,0.0185184,0.0519409,0.0307026,0.046011,0.036953c-0.0244503,0.0244465-0.3459606,0.2480087-0.9643745,0.6704369
			l-0.1744251,0.1286545l-0.1747417,0.1192722c-0.1286507,0.0858479-0.2326164,0.1563072-0.3121319,0.2113781
			c-0.2145023,0.1468449-0.3400288,0.2355003-0.3766613,0.2661209c0.1164684,0.1164684,0.2570648,0.2665234,0.422348,0.450325
			l0.1928616,0.2204323l0.2023182,0.2019157c0.3062,0.3243999,0.6612988,0.62467,1.0655327,0.9002495
			c0.116148,0.0672512,0.2078476,0.1007576,0.2755013,0.1007576c0.0244465,0,0.0673313-0.0059319,0.1284122-0.0181141V20.4238091z"
			/>
		<path style="fill-rule:evenodd;clip-rule:evenodd;fill:#FFFFFF;" d="M33.7256241,28.3787975
			c-0.9061813,0.3243961-1.500145,0.5939655-1.7819805,0.8081455c-0.0184345-0.0243664-0.0397587-0.0456886-0.0642052-0.0641251
			c0-0.0429649-0.0031281-0.1042843-0.0093803-0.1837997l0.0369549-0.7621384
			c-0.5266361,0.4530487-1.0103874,0.7439404-1.451252,0.8723545c-0.2264462,0.0672512-0.4468784,0.101078-0.6613007,0.101078
			c-0.0917778,0-0.1712952-0.009058-0.2389488-0.0274944c-0.2570667-0.0795975-0.4408665-0.1870079-0.5510826-0.3215904
			c-0.1405964-0.1834812-0.2110538-0.4653149-0.2110538-0.84478V27.836853l0.0091381-0.1284142
			c0.0428848-0.7533188,0.0641251-1.3654804,0.0641251-1.8370476v-0.1562252
			c-0.0059299-0.0673332-0.0121822-0.1224823-0.0181141-0.1653671c-0.0307026-0.1223984-0.0826435-0.1834812-0.156229-0.1834812
			h-0.1193523c-0.0857697,0-0.1530991,0.0059338-0.20224,0.018198v-0.0275726l-0.0090561-0.018198v-0.0184364l0.0090561-0.0275745
			c0.3002739-0.0121822,0.6092796-0.0460091,0.927742-0.101078c0.2448845-0.0429649,0.4593849-0.0886555,0.6428661-0.1377888
			l0.09202-0.018198c0.0306988,0,0.0456886,0.0122662,0.0456886,0.0366325v0.0275726
			c-0.005928,0.018198-0.009058,0.0335064-0.009058,0.046011c0,0.0977116-0.0059319,0.226366-0.0184345,0.3857994
			l-0.0181961,0.2204342l-0.0184364,0.2294884c-0.0306988,0.4164181-0.0460911,0.7376881-0.0460911,0.9643745
			c0,0.5203819,0.0704613,0.8632965,0.2113743,1.0285797c0.1897373,0.2326965,0.4132938,0.3491669,0.6703568,0.3491669
			c0.0614014,0,0.147171-0.0122643,0.2573872-0.0366325c0.1162281-0.0247688,0.2295704-0.0582733,0.3397865-0.1011581
			c0.2817535-0.1042843,0.4377403-0.2235584,0.4683609-0.358223c0.0122643-0.514452,0.0185165-0.9675007,0.0185165-1.3592319
			v-0.3950939c0-0.21418-0.0153885-0.376421-0.046011-0.4866371c-0.0488949-0.1593513-0.1315346-0.241993-0.2480049-0.2480068
			h-0.0642071l-0.055069-0.0093784h-0.0645275c-0.1039639,0-0.1559048-0.0031261-0.1559048-0.009058v-0.0642071l1.8367271-0.2388687
			c-0.0732613,0.6797352-0.1102142,1.4387455-0.1102142,2.277914c0,0.1834812,0.0062523,0.4712448,0.0184364,0.8632164
			c0.0062485,0.1712971,0.0735817,0.2570648,0.2019958,0.2570648c0.0428848,0,0.1010742-0.0121822,0.1746597-0.0366306
			l0.0732689-0.0184364l0.0735779-0.0181961c0.0551529-0.0125046,0.1070938-0.0275745,0.156311-0.046011V28.3787975z
			 M25.2940216,25.1089325c-0.0428848,0.0062542-0.0826416,0.0153923-0.1195984,0.0275764
			c-0.1161442,0.0306969-0.1834755,0.0795135-0.2019939,0.1471672c-0.0306206,0.0795193-0.046011,0.9581223-0.046011,2.6358185
			c0.0121841,0.2204342,0.0307026,0.3950958,0.0551491,0.52351c0.1224003,0.0121822,0.3919678,0.024765,0.8084679,0.0369492
			c0.5018673,0.018198,0.7805748,0.018198,0.8356419,0l-0.0184383-2.1676979
			c-0.0303764-0.618412-0.0763893-0.9828892-0.1377888-1.0931053c-0.018116-0.0609989-0.0795155-0.0979538-0.1834793-0.110218
			h-0.046011l-0.0551491-0.009058c-0.0550671-0.0062523-0.1039658-0.0090542-0.1468487-0.0090542
			c-0.1164684-0.0185184-0.1746616-0.0460148-0.1746616-0.0827255v-0.0274925l0.0093784-0.0278969
			c0-0.0244465,0.0090542-0.0397587,0.0275726-0.0456905c0.018116-0.0062523,0.055069-0.0091362,0.1102161-0.0091362
			c0.0366325,0,0.2539387,0.0028839,0.6518402,0.0091362c0.3979816,0.0059319,0.6798172,0.0090618,0.8451004,0.0090618
			c0.1960678,0,0.4593849-0.0059319,0.7900333-0.018198v0.1102161c-0.0062523,0.0303802-0.0247707,0.0520248-0.0551491,0.0642071
			l-0.036953,0.0185184l-0.0456886,0.0090542h-0.0826416l-0.0735855,0.009058
			c-0.0614033,0.0062542-0.1133423,0.0153923-0.1562271,0.0275764c-0.1162281,0.0306969-0.1834812,0.0795135-0.2019997,0.1471672
			c-0.030695,0.0795193-0.0460091,0.9581223-0.0460091,2.6358185c0.0184364,0.4226704,0.0673332,0.6706772,0.147171,0.7439423
			c0.0854454,0.0673313,0.2263641,0.1011562,0.422348,0.1011562c0.0735855,0,0.110218,0.0397587,0.110218,0.119276
			l0.0091381,0.0185146v0.0274963c0,0.0122623-0.0091381,0.0275726-0.0275764,0.0460091h-0.1653652
			c-0.0303783-0.0062523-0.0763893-0.0093803-0.1377087-0.0093803h-0.1559868
			c-0.2877655-0.0121803-0.4624271-0.0181141-0.5235062-0.0181141h-5.906004
			c-0.0672531,0.0059338-0.1684093,0.0121822-0.3030758,0.0181141c-0.2877636,0.0062542-0.4439907,0.0093803-0.4684391,0.0093803
			c-0.0181141-0.0246887-0.0274925-0.0491371-0.0274925-0.0735054c0-0.0673313,0.0397568-0.1011562,0.1192741-0.1011562
			c0.2022362,0,0.3459587-0.0397587,0.4318085-0.119276c0.1224022-0.1716175,0.1837997-0.3826733,0.1837997-0.6338043
			c0-0.2511349-0.0185184-0.7470665-0.0551491-1.4878845c-0.0366306-0.7471447-0.0735855-1.1694946-0.1102161-1.2675285
			c-0.0244484-0.0673313-0.0917015-0.1164684-0.2022381-0.1468487c-0.0855274-0.0246887-0.1834793-0.036953-0.2936954-0.036953
			s-0.1653652-0.0306988-0.1653652-0.0916996v-0.1193542c0.3550987,0.0122662,0.6246662,0.018198,0.8081455,0.018198
			c0.1716194,0,0.4439945-0.00313,0.8175259-0.0090618c0.379549-0.0062523,0.5939674-0.0091362,0.6428623-0.0091362h0.0826435
			c0.0121841,0.0060139,0.0216446,0.0275745,0.0275726,0.0642052v0.064209c0,0.0244465-0.0121822,0.042881-0.0366287,0.0551472
			c-0.0185184,0.0121822-0.0366306,0.0184345-0.0551491,0.0184345l-0.3030777,0.0275745
			c-0.0673313,0.0121841-0.1192703,0.0488167-0.1562271,0.1102161c-0.0610752,0.1039639-0.0917778,0.4896832-0.0917778,1.1572342
			l0.0275726,2.0390453c0.0735874,0.0121841,0.3641586,0.0275726,0.8726768,0.0460091
			c0.4101639,0.0121841,0.6734829,0.0149918,0.789629,0.0090599c0.0185184-0.0491371,0.0338268-0.1039639,0.046093-0.1652851
			l-0.0185184-1.4788246c0-0.0917816-0.0028038-0.1866875-0.0090561-0.2846413
			c-0.0366306-0.7471447-0.0735874-1.1694946-0.1102161-1.2675285c-0.0244484-0.0673313-0.0917816-0.1164684-0.2019978-0.1468487
			c-0.0857697-0.0246887-0.1838017-0.036953-0.2940178-0.036953c-0.110218,0-0.1652851-0.0306988-0.1652851-0.0916996v-0.1193542
			h0.1838036c0.0366306,0,0.2539387,0.0028839,0.6519184,0.0091362c0.1531029,0,0.2876854,0.00313,0.4042358,0.0090618
			c0.1161461-0.0059319,0.2448006-0.0090618,0.3857136-0.0090618c0.379467-0.0062523,0.5939674-0.0091362,0.6428661-0.0091362
			h0.2022381v0.1102161c-0.0062523,0.0303802-0.0247707,0.0520248-0.055069,0.0642071l-0.036953,0.0185184l-0.0457706,0.0090542
			h-0.0460129L25.2940216,25.1089325z M20.24226,25.3387451l-0.3122158,0.670435l-0.3215923,0.6797371
			c-0.2448006,0.5081959-0.4837494,0.9612484-0.7163677,1.35923c-0.5817814,1.0104656-1.2245655,1.8614979-1.9288273,2.5534973
			c-0.6919193,0.6856651-1.414299,1.2304974-2.1676989,1.6347294c-0.0425634-0.055069-0.1007586-0.162159-0.1743431-0.3215103
			c-0.0795965-0.1653671-0.1224794-0.2815132-0.1287317-0.3488445l0.2023163-0.0826435l0.1928587-0.0827217
			c0.1590347-0.0672531,0.2786283-0.1164703,0.3582249-0.147089c0.2510529-0.1162281,0.4714861-0.2326984,0.6612988-0.3488464
			c0.4530497-0.2877655,0.99788-0.7899532,1.6347303-1.5063992c-0.1712952-0.2570648-0.3062019-0.4653149-0.4042339-0.6246662
			c-0.1590309-0.2570667-0.3058815-0.5141315-0.4408665-0.7715149c-0.3306484-0.6612988-0.6305981-1.4296913-0.8998461-2.3051701
			c-0.0122652-0.0428848-0.052022-0.0704575-0.1196766-0.0826435l-0.1007566-0.0184364h-0.2113762
			c-0.0307007,0-0.046011-0.0216408-0.046011-0.0642033c0-0.036953,0.0093794-0.0551491,0.0274944-0.0551491
			c0.6860695-0.1838017,1.2155094-0.3857155,1.5891228-0.6061497c0.0366306,0.1956635,0.0857697,0.4039135,0.1468468,0.6243458
			c0.0798378,0.3062,0.1684132,0.6002178,0.2664433,0.8817329c0.2755032,0.7715149,0.5939674,1.3839169,0.9553204,1.8370457
			c0.1775455-0.2999477,0.3243961-0.6951256,0.4408665-1.1848068c0.0428791-0.1837997,0.0885715-0.413372,0.1377888-0.6888733
			l0.0641251-0.3672791l0.0735855-0.3766632l0.00914-0.0551472v-0.0460091c0-0.171299-0.073267-0.2570667-0.2204342-0.2570667
			h-0.1193562c-0.0243683,0.0059319-0.064127,0.0090599-0.1195946,0.0090599c-0.0303802,0-0.0456886-0.0275745-0.0456886-0.0826416
			c0-0.018198,0.0031242-0.0335064,0.0090542-0.046011c0.0062542-0.0122662,0.0153923-0.018198,0.0275764-0.018198
			c0.9919472-0.1286507,1.5154552-0.1928596,1.5706081-0.1928596c0.0795135,0,0.1377068,0.00313,0.1746597,0.0090618
			c0.0488968,0.0185127,0.0732651,0.051939,0.0732651,0.1011562c0,0.0366344-0.0121841,0.0673332-0.0366325,0.0916996
			L20.24226,25.3387451z"/>
		<path style="fill-rule:evenodd;clip-rule:evenodd;fill:#CA4C44;" d="M44.5866394,35.3904114v-0.0688553
			c0-0.0460892-0.0016022-0.1287346-0.0044136-0.2480087c-0.0031204-0.1161461-0.0047264-0.2031975-0.0047264-0.2614746
			l0.0047264-0.0870514v-0.0826416c-0.1837959-0.2326164-0.4270706-0.3488426-0.729908-0.3488426
			c-0.1590347,0-0.2889671,0.048893-0.3901291,0.1468468c-0.0948257,0.0949059-0.1452446,0.2095337-0.1511726,0.3441162v0.0228462
			c0,0.2264442,0.1192703,0.410244,0.3578224,0.5508423c0.2051239,0.1224022,0.4237137,0.1834793,0.6563263,0.1834793h0.0319023
			c0.0980377,0,0.1729012-0.0303802,0.2251587-0.0917816L44.5866394,35.3904114z M44.5590668,36.0924301
			c0.0062523-0.1468468,0.0137863-0.3334541,0.023159-0.5598984c-0.0275688,0.0185127-0.0597954,0.0397568-0.0964241,0.0642052
			c-0.0491333,0.0338249-0.099556,0.0657272-0.151577,0.0964279c-0.1437225,0.0886574-0.2874413,0.171299-0.4314919,0.2480049
			c-0.0763817,0.0397606-0.1437187,0.0594788-0.2019157,0.0594788h-0.054821
			c-0.1838074-0.0059319-0.3610344-0.0826416-0.5325699-0.2294884c-0.1834831-0.1559067-0.2752647-0.3272057-0.2752647-0.513813
			v-0.036953c0.0153961-0.1988678,0.0917816-0.3854752,0.229496-0.5598946
			c0.1252823-0.1559105,0.2752609-0.2751846,0.4496803-0.3578262c0.0397606-0.0185165,0.0842476-0.0397568,0.1330605-0.0642052
			l0.1149483-0.0597954c0.1007576-0.0520248,0.1728172-0.0870552,0.2156982-0.1055717
			c0.1496544-0.0704575,0.2874527-0.105484,0.4129791-0.105484c0.0579491,0,0.1330566,0.0090561,0.2248383,0.0275726v-0.2890472
			c0-0.144043-0.0031281-0.387001-0.0090599-0.7298355c-0.0125847-0.0855255-0.0476112-0.1284103-0.1058884-0.1284103
			c-0.0274887,0-0.060997,0.007534-0.1007538,0.0228462c-0.0031281,0.0031242-0.0200386,0.0078545-0.0504227,0.0137863
			c-0.0338249,0.0090561-0.0582733,0.0137863-0.0735817,0.0137863c-0.0091362,0-0.0137863-0.0015221-0.0137863-0.0047302v-0.0228424
			c0.3885231-0.1039658,0.7235794-0.2448044,1.0050926-0.4220314v0.0456924
			c-0.0488129,0.0306969-0.0779915,0.0888939-0.0870552,0.1744194c-0.0121803,0.0979538-0.024765,0.206646-0.0369492,0.3259201
			c-0.0181961,0.1591148-0.0335045,0.324398-0.0456886,0.4956932c-0.0338249,0.4527321-0.0504189,0.8964043-0.0504189,1.3306961
			c0,0.266201,0.0059357,0.5110016,0.018116,0.7343216c0.0062523,0.1070099,0.0535469,0.1743431,0.1425171,0.2019157
			c0.012188,0.0031281,0.0335083,0.0047302,0.0641289,0.0047302c0.0213203,0,0.052021-0.0031242,0.0917816-0.0091362
			c0.0366325-0.0031281,0.0594711-0.0046501,0.0688515-0.0046501c0.00914,0,0.0137901,0.0015221,0.0137901,0.0046501
			c0,0.0091362-0.0015221,0.0213203-0.0046501,0.0366287L44.5590668,36.0924301z M42.879528,35.8766479
			c-0.1346664,0.0094566-0.2767868,0.0260506-0.426754,0.0507393c-0.1102219,0.0181961-0.218914,0.0397568-0.3260078,0.0642052
			l-0.0456886,0.0090561l-0.0185165,0.0047302l-0.0137863,0.0090561c-0.0090599,0.0031281-0.0153084,0.0047302-0.0184326,0.0047302
			c-0.0059357,0-0.0090599-0.0078545-0.0090599-0.0231667V35.964016c0-0.0460091,0.0031242-0.1054878,0.0090599-0.1790695
			l0.0047264-0.0964279l0.0046463-0.1055679c0.0122681-0.1803551,0.0181961-0.3227959,0.0181961-0.4267578
			c0-0.278389-0.0382347-0.4618683-0.1146202-0.5507622c-0.0949097-0.1161499-0.2019196-0.1744232-0.32127-0.1744232
			c-0.0979538,0-0.2157059,0.0476112-0.3534966,0.1425209c0,0.060997,0.0031242,0.1114159,0.0093765,0.1514931
			c0,0.0244484,0.001606,0.0563545,0.0044098,0.0961113v0.0917778c0,0.0767136-0.001606,0.1838036-0.0044098,0.3212738
			l-0.0093765,0.1562271v0.2661209c0,0.0275764,0.001606,0.0535469,0.0047264,0.0779915
			c0.0031242,0.0335083,0.0074539,0.062603,0.0137901,0.0870552c0.0153084,0.0645256,0.0428848,0.0964279,0.0826378,0.0964279
			h0.0504189l0.0550728,0.0047302c0.0244446,0,0.042881-0.001606,0.0551453-0.0047302
			c0,0.0184364-0.0016022,0.0366325-0.0047302,0.055069c-0.0704536,0.0032043-0.1527748,0.0047302-0.2476845,0.0047302h-0.2294922
			c-0.1684875,0.0031242-0.2830353,0.0106583-0.3441162,0.0228424l-0.0093727,0.0047302l-0.0090599,0.0043297
			c-0.00914,0.0032043-0.0169106,0.0047264-0.0229263,0.0047264c-0.0062523,0-0.0109024-0.0031242-0.0137062-0.0090561
			c-0.0063324-0.0031242-0.0094604-0.0093803-0.0094604-0.0185165l0.0094604-0.1192741
			c0.0059319-0.0642052,0.010582-0.1161499,0.0137062-0.1559067l0.0137863-0.1744232
			c0.00914-0.1346626,0.0137901-0.2539368,0.0137901-0.358223c0-0.2783089-0.0307007-0.4771767-0.0920258-0.5964508
			c-0.0548248-0.1008377-0.1834755-0.151577-0.385479-0.151577c-0.0795135,0-0.1634331,0.0354271-0.2523346,0.1058083
			c-0.0091362,0.1343422-0.0137863,0.2997055-0.0137863,0.4953728c-0.0031242,0.0735855-0.004406,0.1562271-0.004406,0.2480049
			v0.2204361c0,0.1039619,0.0075378,0.1834793,0.0228424,0.2385483c0.0213242,0.0795937,0.0594788,0.1236801,0.1146278,0.1331406
			h0.036953c0.0121841,0,0.0303802-0.001606,0.0548248-0.0047302h0.0782356c0.0028076,0,0.0044098,0.0047302,0.0044098,0.0137863
			s-0.0016022,0.0213242-0.0044098,0.0366325l-0.9042587,0.110218c0.0338287-0.3058815,0.0504189-0.6609802,0.0504189-1.0645714
			v-0.215786c-0.0028-0.0826416-0.0059319-0.1590309-0.0091362-0.2294922
			c-0.0031281-0.0885696-0.0350304-0.1330605-0.0964279-0.1330605c-0.0274963,0-0.0594788,0.007534-0.0961075,0.0228462
			c-0.0215645,0.0062523-0.044487,0.0121841-0.0688553,0.0184364l-0.0369568,0.0091362
			c-0.0150681,0.0062523-0.0288544,0.0106621-0.0410385,0.0137901v-0.0413628
			c0.5016289-0.1712952,0.8228951-0.3058815,0.9634933-0.4039154c0.0121803,0.0093803,0.0200386,0.0184364,0.0231628,0.0275764
			c-0.0185165,0.0338249-0.0338249,0.0995522-0.0460892,0.1975899c0,0.0090561-0.0015221,0.0228424-0.0046463,0.0409584
			l-0.0090599,0.0507393c-0.0060081,0.052021-0.0106583,0.0977135-0.0137901,0.1374702l0.1010857-0.068615l0.1008339-0.0782356
			c0.0886497-0.0642052,0.1591148-0.114624,0.2110519-0.1512527c0.162159-0.1070938,0.2877731-0.163765,0.3763466-0.1700172
			h0.0827179l0.0870514,0.0093803c0.0613213,0.0091362,0.1102219,0.0303764,0.1468506,0.0642052
			c0.1164665,0.1039658,0.1821976,0.2476845,0.197506,0.431488c0.1405983-0.144043,0.3366623-0.279911,0.5874786-0.4086418
			c0.0916977-0.0488205,0.1897278-0.0732651,0.2936897-0.0732651c0.0397606,0,0.0732689,0.004406,0.1007614,0.0137863
			c0.1346626,0.0456886,0.2279663,0.1054878,0.2799911,0.1787529c0.0704536,0.0949059,0.1054878,0.2433586,0.1054878,0.4452744
			v0.0964279c-0.0028114,0.0642052-0.0059395,0.1284142-0.0090637,0.1926193v0.1514969
			c0,0.0366325,0.0031242,0.2051239,0.0090637,0.5047531v0.0779915c0.0031242,0.0338287,0.0062485,0.0613213,0.0093727,0.0826416
			c0.0122681,0.064209,0.0366325,0.0964317,0.0732651,0.0964317h0.0366287l0.0413666-0.0046501
			c0.0306969-0.0028839,0.0581932-0.00914,0.0826378-0.0181961c0.0062561,0.0059319,0.0093842,0.0165939,0.0093842,0.0319023
			C42.8841782,35.8691902,42.8826523,35.8738403,42.879528,35.8766479z M38.8409538,35.6931648
			c-0.0213203,0.0275726-0.0504189,0.0597992-0.0873718,0.0964279l-0.0961075,0.1008377
			c-0.0857735,0.0889778-0.145649,0.1591148-0.1790733,0.2110558c-0.1039619-0.0642052-0.1898117-0.1192741-0.2571449-0.1650429
			c-0.0948219-0.0672531-0.1590309-0.1207962-0.1925392-0.1605568c0.0366325-0.0488968,0.0917816-0.1134224,0.1650467-0.1929359
			c0.0795174-0.0885773,0.1452446-0.1527824,0.1975861-0.1925392c0.0547485,0.0397568,0.1299362,0.0901794,0.224762,0.1512566
			C38.7078896,35.6061172,38.7826767,35.6565323,38.8409538,35.6931648z M28.0241051,35.3444023
			c-0.0275745,0.0613174-0.0613995,0.1192741-0.1011581,0.1743393l-0.0275745,0.0323029l-0.0228443,0.0366325
			c-0.0213223,0.0307007-0.0413609,0.0610809-0.0594788,0.0917015c-0.0920982,0.159111-0.2097721,0.2645988-0.3534946,0.3166199
			c-0.1039639,0.036953-0.276783,0.056675-0.5185375,0.0597992c-0.1102161,0-0.2279682-0.0153885-0.3534946-0.0460892
			c-0.10709-0.0274963-0.1910152-0.0563507-0.2524185-0.0869713c0.0397587-0.0244484,0.0751915-0.0764694,0.1055698-0.1559868
			c0.0243664-0.0581932,0.0504189-0.1361885,0.0779133-0.2342186c0.0551472-0.2050476,0.088974-0.3074875,0.1011562-0.3074875
			c0.0059338,0,0.0121841,0.001606,0.0185184,0.0047302c0.0059319,0.0031281,0.0090561,0.0059319,0.0090561,0.0090599
			c-0.0185146,0.048893-0.0275745,0.0886497-0.0275745,0.1193542c0,0.0397568,0.0185184,0.0735817,0.0551491,0.101078
			c0.0948257,0.0795135,0.2125797,0.1405945,0.3531742,0.1834793c0.119276,0.0366325,0.2401524,0.0551491,0.3625507,0.0551491
			c0.0889778,0,0.165369-0.0106621,0.2295723-0.0322227c0.0212402-0.006012,0.0397587-0.0181961,0.0550671-0.0367126
			c0.009058-0.0121841,0.0185184-0.0274963,0.0275764-0.0460091v-0.018116c0-0.0795174-0.0657291-0.1563072-0.1972675-0.2295723
			c-0.046011-0.0274963-0.1026802-0.055069-0.1700134-0.0826416c-0.0244503-0.0090599-0.0520229-0.0184364-0.0824032-0.0275764
			l-0.036871-0.0137062l-0.0319862-0.0137863l-0.0231609-0.0091362l-0.0228481-0.0093803l-0.1008358-0.0366325l-0.1102161-0.0366287
			c-0.0888958-0.0307007-0.160635-0.0597992-0.215704-0.0870552c-0.1591129-0.079834-0.2386303-0.1759453-0.2386303-0.2892876
			c0-0.0917778,0.0444889-0.1788292,0.1330624-0.2614746c0.0275726-0.0275726,0.0704594-0.0613976,0.1284122-0.1011581
			l0.0688553-0.050415l0.0689354-0.055069c0.1834812-0.1499786,0.4358158-0.2570686,0.7570839-0.3212738
			c0.0153141-0.0031242,0.0322266-0.004406,0.0507412-0.004406h0.0409641c0.024765,0,0.0936203,0.007534,0.2067242,0.0229225
			c0.0274944,0,0.0412807,0.0153122,0.0412807,0.0456886v0.0093803l-0.0046501,0.0090561
			c-0.0642052,0.1834831-0.1193523,0.3547783-0.1650429,0.5141335c-0.0551491-0.058197-0.0917816-0.0933037-0.1102161-0.1058083
			c-0.1284103-0.1220818-0.279911-0.1834831-0.4543362-0.1834831c-0.0795135,0-0.1437187,0.0185165-0.1928558,0.0551491
			c-0.0457706,0.0337486-0.0689373,0.0747871-0.0689373,0.1239243c0,0.0673332,0.0429668,0.1193542,0.1287346,0.1559868
			c0.1468468,0.0581932,0.2889652,0.1161461,0.4267597,0.1744194c0.0397587,0.0184364,0.0964279,0.0428848,0.1696911,0.0735855
			l0.0826416,0.0319061l0.0827236,0.0366287c0.1468487,0.0614014,0.2201138,0.1393127,0.2201138,0.2342224
			c0,0.0307007-0.0059338,0.0657272-0.0181961,0.1054878l-0.0184364,0.0551491L28.0241051,35.3444023z M37.6248055,32.7605247
			c0,0.036953-0.0215607,0.0551491-0.0642052,0.0551491H37.491745c-0.0338326,0-0.064209,0.0015221-0.0917854,0.0046501
			c-0.0795174,0.006012-0.1286469,0.0185127-0.146843,0.0366287c-0.0428886,0.0520248-0.0719833,0.2342224-0.0872917,0.5461121
			c-0.0032082,0.1192741-0.0060158,0.2649231-0.00914,0.4361382v0.9130745c0,0.1837997,0.001606,0.3397064,0.0047302,0.4681168
			c0.005928,0.3244019,0.0259705,0.5187836,0.0594788,0.5829887c0.0090523,0.0091362,0.0244446,0.0197182,0.0460091,0.0319824
			c0.0244446,0.0121841,0.048893,0.0215607,0.0732613,0.0274925l0.0873718,0.0094604l0.0823212,0.0090561h0.0137901
			l0.0185165,0.0090561c0.0121841,0.0062561,0.0200386,0.0169144,0.0228424,0.0323067
			c0,0.005928-0.001606,0.0121841-0.004406,0.0184326v0.0228462c0,0.0090599-0.0046501,0.0137901-0.0137863,0.0137901
			l-0.0137062,0.004406h-0.0323105c-0.0212364,0-0.1102142-0.0012817-0.2661171-0.004406
			c-0.1590347-0.0031281-0.2846375-0.0047302-0.3763428-0.0047302h-0.1972656
			c-0.1133423,0.0032043-0.2003937,0.0047302-0.2617912,0.0047302c-0.1496582,0-0.2248421-0.0031281-0.2248421-0.0093803
			c-0.0031281,0-0.0043297-0.0044098-0.0043297-0.0137863c-0.0031281-0.0090561-0.004734-0.0181961-0.004734-0.0272522
			c0-0.0307007,0.0106659-0.0476151,0.0322266-0.0507393h0.0366325c0.0091362,0,0.0213203-0.0015221,0.0366287-0.0043297h0.046093
			c0.0456886-0.0062523,0.0839272-0.0109825,0.1145439-0.0137901c0.0980339-0.0122604,0.154705-0.0354271,0.1697769-0.0689354
			c0.0215607-0.0460091,0.0397606-0.2385483,0.0550652-0.5782547c0.0153084-0.3243942,0.0231667-0.6472702,0.0231667-0.9682198
			c0-0.4652367-0.0046501-0.7802544-0.0137863-0.9455376c-0.0153084-0.2599525-0.0412827-0.4051971-0.0782356-0.4358978
			c-0.0213242-0.0184364-0.0595589-0.0307007-0.1146202-0.0366325c-0.024456-0.0031281-0.0488205-0.0062523-0.0735855-0.0093765
			h-0.0594788c-0.0610809,0-0.0917816-0.0165939-0.0917816-0.0504189c0-0.0213242,0.0106621-0.0397606,0.0319824-0.0551491
			c0.0093803,0,0.0412827,0.0016022,0.0964279,0.0047302h0.0779953l0.0872917,0.004406
			c0.1650429,0.0062523,0.2614746,0.0093765,0.2890472,0.0093765c0.0613213,0,0.1944618-0.0031242,0.3991814-0.0093765
			c0.2019997-0.0028038,0.326004-0.006012,0.3720131-0.0091362c0.0059319,0.0063324,0.0106621,0.0137863,0.0134697,0.0229263
			C37.6216812,32.745533,37.6248055,32.7545929,37.6248055,32.7605247z M36.1744385,35.9684258
			c0,0.0093803-0.0015297,0.0184364-0.0043297,0.0275726c-0.2755852-0.0122643-0.4437523-0.0181923-0.5050735-0.0181923
			c-0.1957436,0-0.3500481,0.0016022-0.4633904,0.004406c0-0.0122604,0.0015182-0.0259705,0.0046463-0.0410423v-0.0507393
			c0-0.0181122,0.001606-0.0519409,0.0044174-0.1008377l0.0046425-0.0641251v-0.0689354
			c0.0063324-0.1192741,0.0091362-0.2310944,0.0091362-0.3349762v-0.0917816l-0.004406-0.0964279
			c-0.0121841-0.3948555-0.0244484-0.7173309-0.036953-0.9684639c-0.018116-0.3610268-0.0381546-0.6271515-0.0594788-0.7984467
			l-0.3901215,0.9684601c-0.1653671,0.4098473-0.3122139,0.76334-0.4405479,1.0599251
			c-0.1499748,0.3518867-0.2386322,0.5447502-0.2662086,0.5782547h-0.0412788l-0.0366287,0.0047302
			c-0.049221,0-0.0873756-0.0231667-0.1149483-0.0688553c-0.0244446-0.0307007-0.0811157-0.163765-0.169693-0.3992653
			l-0.0322189-0.0873718c-0.0977135-0.2508125-0.2141838-0.5519638-0.3485298-0.9039383
			c-0.1837997-0.4803047-0.3534927-0.8795662-0.5094795-1.1976318l-0.0046501,0.2153854l-0.0090561,0.2294922
			c-0.0031242,0.2019958-0.0063324,0.3578987-0.0094566,0.4681168c-0.0090599,0.3704071-0.01371,0.6625824-0.01371,0.8767624
			v0.546032l0.0093803,0.0551491l0.0043297,0.0456886c0.0063324,0.0307007,0.0094566,0.0476151,0.0094566,0.0504189
			c0.018116,0.0275764,0.0412788,0.0460129,0.0685349,0.055069c0.0980301,0.0247688,0.1821976,0.036953,0.2526588,0.036953
			c0.0275726,0.0122643,0.0413589,0.0229263,0.0413589,0.0319824v0.0460129l-0.0184364,0.0090561l-0.1559868-0.0046501
			l-0.142437-0.004406c-0.110218-0.0031281-0.1941452-0.0047302-0.2524185-0.0047302
			c-0.2078476,0-0.3807487,0.0032043-0.5184593,0.0091362v-0.0091362l-0.0047302-0.0046501
			c-0.0031242-0.0028038-0.004406-0.007534-0.004406-0.0137863v-0.0228462c0-0.0275726,0.0366325-0.0441666,0.1099739-0.0504189
			c0.0735054-0.0090561,0.1270485-0.0413628,0.1605568-0.0964279c0.0122643-0.0335083,0.036953-0.1788292,0.0735855-0.4358978
			c0.0335045-0.2448006,0.0626831-0.494091,0.0870476-0.7480278c0.0185204-0.110218,0.046093-0.3534966,0.0827255-0.7298355
			c0.0397606-0.3945351,0.0597954-0.6425438,0.0597954-0.7433815c-0.0094566-0.10709-0.0275688-0.1818771-0.0551453-0.2247581
			c-0.0307045-0.046093-0.0826454-0.0735855-0.1562309-0.0827217c-0.0335045-0.0062561-0.062603-0.0121841-0.0870476-0.0184402
			h-0.0322227l-0.0228462-0.004406c-0.0185165,0-0.0275726-0.0093803-0.0275726-0.0274963v-0.023243
			c0.0031242-0.0121841,0.0062523-0.021244,0.0090561-0.0274963l0.0137863-0.0091362
			c0.036953,0,0.0735855,0.0016022,0.110218,0.0047302l0.0964317,0.004406
			c0.0763855,0.0062523,0.1484489,0.0093765,0.2157021,0.0093765c0.159111,0,0.3166199-0.0047264,0.472847-0.0137825
			l0.0272522-0.0047302h0.0231667v0.0779915c0,0.0216446,0.0563507,0.1866074,0.169693,0.495697
			c0.1039619,0.2814293,0.229496,0.6117592,0.376339,0.9913063c0.0673332,0.1775475,0.1422005,0.3579025,0.2248421,0.5417023
			c0.0244484,0.0578728,0.056675,0.1283302,0.0964279,0.2109756l0.0456924,0.1008377l0.0413628,0.0917778
			c0.0275726-0.0610771,0.0597954-0.1358643,0.0964317-0.2248383l0.0504112-0.114624l0.0551529-0.1239281
			c0.0917015-0.2079277,0.172821-0.3976593,0.2432747-0.5689545c0.272377-0.6794968,0.4346161-1.1719856,0.486557-1.4779434
			l0.1374779,0.0047302l0.1286469,0.004406c0.1039658,0.0062523,0.1834831,0.0093765,0.2386284,0.0093765
			c0.0795174,0,0.162159-0.0047264,0.2476845-0.0137825l0.0137901-0.0047302h0.2019157
			c0.0062523,0.0185127,0.0093765,0.0323029,0.0093765,0.0413589c0,0.0244522-0.0031242,0.0397606-0.0093765,0.0460129
			c-0.0121841,0.0028038-0.0397568,0.004406-0.0826416,0.004406h-0.0594788
			c-0.0244484,0.0031281-0.0460091,0.0062561-0.064209,0.0093803c-0.0519371,0.0090599-0.0888901,0.0288582-0.1102142,0.0594788
			c-0.0244446,0.0520172-0.0366287,0.2936974-0.0366287,0.7251816c0.0028038,0.5323257,0.0213242,1.0295448,0.055069,1.4914093
			c0.0303764,0.4405479,0.0595551,0.6747665,0.0870476,0.7022591c0.052021,0.0579567,0.1591148,0.0980339,0.32127,0.1193581
			c0.0153923,0,0.02285,0.0074539,0.02285,0.0228424V35.9684258z M31.4291935,33.3207436
			c0.0735817,0.0610008,0.1102161,0.117672,0.1102161,0.169693c0,0.0732651-0.0747871,0.1575127-0.2248421,0.2523384
			l-0.0964298,0.0551491l-0.0916996,0.0594749c-0.0735836,0.0460091-0.1271286,0.0857697-0.1606369,0.1192741
			c-0.0062485,0-0.0121822-0.0059319-0.0185127-0.018116l-0.0090599-0.0137863l-0.0046482-0.0091362
			c0.0121822-0.0337486,0.0322208-0.0979538,0.0597973-0.1928596l0.0319023-0.110218l0.0369511-0.110218
			c0.0610809-0.1744194,0.1358662-0.2613907,0.2248421-0.2613907C31.329958,33.2609482,31.3772507,33.2806664,31.4291935,33.3207436
			z M31.9937401,35.6565323c-0.1192703,0.0428848-0.2326126,0.1008377-0.3397045,0.1744232l-0.0686169,0.0456924
			c-0.0246868,0.0153885-0.0491333,0.0306969-0.0735836,0.0460892c-0.064127,0.0366325-0.1361847,0.0719795-0.2157021,0.1054878
			c-0.0397625,0.0184364-0.0779953,0.0275726-0.1146259,0.0275726c-0.0888958,0-0.1575108-0.0488968-0.206646-0.1468468
			c-0.0456886-0.0827217-0.0688553-0.1819611-0.0688553-0.2984276v-0.0504189
			c0.0184345-0.0916977,0.0275745-0.2601929,0.0275745-0.5047531c0-0.1712151-0.0060139-0.3610268-0.0181961-0.5691986
			c-0.0031261-0.0855255-0.0353508-0.1284103-0.0964279-0.1284103c-0.0122662,0-0.0275784,0.0016022-0.046011,0.0047264
			l-0.0504189,0.0137901c-0.0244484,0.0059319-0.0472946,0.0121841-0.0689373,0.018116l-0.0319023,0.0090561
			c-0.0153904,0.0063324-0.0290966,0.0109825-0.0413609,0.0137863v-0.0409584
			c0.4771786-0.1684914,0.7893906-0.3031578,0.9362392-0.4039154c0.0059319,0.0090599,0.0106621,0.0168343,0.0137882,0.0228462
			c-0.0122662,0.042881-0.0259724,0.10709-0.0413628,0.1928596c-0.0306988,0.1956635-0.0460129,0.4558563-0.0460129,0.7799301
			c0,0.1988716,0.0078583,0.3519707,0.0228481,0.4590645c0.0062542,0.0763893,0.0413609,0.1315384,0.1058064,0.1652832
			c0.0488987,0.0244484,0.1177502,0.0366325,0.2064075,0.0366325c0.0274925,0,0.062603-0.0015259,0.1054859-0.0046501
			c0.0460091-0.0031281,0.0767097-0.0044098,0.0917816-0.0044098c0.0062523,0,0.0121841,0.0028076,0.0184326,0.0090599
			c0.0059319,0.006012,0.0090599,0.0122643,0.0090599,0.0185165C32.0028,35.6534081,31.9996719,35.6565323,31.9937401,35.6565323z
			 M30.6583195,35.867588c-0.1346664,0.0121841-0.2830372,0.0338249-0.4452763,0.0642052
			c-0.0550671,0.0093765-0.1161461,0.0215645-0.1834793,0.0366325l-0.0779133,0.0137863
			c-0.0306988,0.0062523-0.0520229,0.0109024-0.0642052,0.0137863H29.878067l-0.0137882,0.0046501l-0.018198,0.0047302
			l-0.0137863,0.0090561c-0.0093746,0.0031281-0.0153084,0.0047302-0.0184345,0.0047302
			c-0.0091381,0-0.0137863-0.0094566-0.0137863-0.0275726V35.964016c0-0.0519409,0.0031261-0.1192741,0.009058-0.2019157
			l0.0137882-0.114624l0.0093746-0.1149445c0.018198-0.2078514,0.0275745-0.3669624,0.0275745-0.4771805
			c0-0.2235603-0.0338268-0.3748131-0.1011562-0.4543304c-0.1008396-0.1133461-0.2232418-0.1700134-0.3669605-0.1700134
			c-0.1377907,0-0.2723751,0.0476112-0.4039154,0.1425209l-0.0460129,0.0456848
			c-0.0213184,0.0184402-0.0366287,0.0322266-0.0456867,0.0412865c0,0.1866837,0.0059319,0.472847,0.0181141,0.858242
			c0.0062542,0.0610809,0.0200386,0.11623,0.0413628,0.1653671c0.0274944,0.0610771,0.0626011,0.0964279,0.1054897,0.105484
			h0.1240005c0.0795155,0,0.1192741,0.001606,0.1192741,0.0044098v0.0231667l-0.9177246,0.2063255
			c0.0335102-0.7126007,0.0504208-1.4302483,0.0504208-2.1523094c0-0.3240776-0.0047264-0.6302757-0.0137882-0.9177208
			c-0.0031223-0.0917816-0.0366325-0.1377907-0.1008358-0.1377907c-0.0274944,0-0.0613213,0.0077744-0.101078,0.0231628
			c-0.0307007,0.0059319-0.0748692,0.019722-0.1331425,0.0410423v-0.0410423
			c0.5019474-0.1684914,0.8200932-0.3030739,0.9547558-0.4039116c0.0090542,0.0059319,0.016592,0.0137863,0.0228443,0.0228462
			l-0.0137901,0.0137863c-0.0121822,0.0090561-0.0228405,0.0200386-0.0322208,0.0322227
			c-0.0275726,0.0366325-0.0457706,0.0824013-0.0548267,0.1374702c-0.046011,0.32127-0.0688553,0.9042549-0.0688553,1.7487144
			v0.1512566c0.0976295-0.0854492,0.2125778-0.1680908,0.3441162-0.2476845
			c0.0488167-0.0274963,0.1117401-0.0629234,0.1881313-0.1054878l0.096426-0.0507393l0.1008377-0.0547485
			c0.0980339-0.0460892,0.2035217-0.0689354,0.3165436-0.0689354c0.0397568,0,0.0811214,0.0059319,0.1240025,0.0181961
			c0.1897354,0.0644455,0.3059616,0.1743431,0.3488464,0.3306465c0.0212421,0.0732651,0.0322208,0.1696968,0.0322208,0.2889709
			c0,0.159111-0.0062504,0.3260002-0.0184326,0.5003433c-0.0122662,0.177227-0.0185165,0.3256798-0.0185165,0.4449539v0.0779915
			c0.0031242,0.0338287,0.0062504,0.0613213,0.0093765,0.0826416c0.0122662,0.064209,0.0366344,0.0964317,0.0732651,0.0964317
			h0.0369511l0.0410404-0.0046501c0.0307026-0.0028839,0.0582771-0.00914,0.0826435-0.0181961
			C30.6567173,35.8431396,30.6583195,35.8554039,30.6583195,35.867588z M26.4544601,35.6841087
			c-0.4528084,0.162159-0.7496319,0.2968216-0.8902264,0.4039116c-0.0093784-0.0125046-0.0200405-0.0231628-0.0322247-0.0322227
			c0-0.0213242-0.0016022-0.052021-0.0044098-0.0917816l0.0181961-0.3810654
			c-0.2630768,0.2263641-0.5047512,0.3716888-0.7251835,0.4362144c-0.1130219,0.0335083-0.223238,0.0504189-0.3303299,0.0504189
			c-0.0457668,0-0.0858479-0.0047264-0.1193542-0.0137863c-0.128334-0.0397568-0.2204342-0.0933037-0.2751808-0.1606331
			c-0.0704575-0.0917816-0.1058083-0.2327003-0.1058083-0.4221115v-0.0597992l0.0046482-0.0642052
			c0.0216446-0.3763351,0.0322247-0.6822205,0.0322247-0.9180412v-0.0779152
			c-0.0031242-0.0335045-0.0062542-0.0610809-0.0093784-0.0827217c-0.0149879-0.0610008-0.0409603-0.0916977-0.0779114-0.0916977
			h-0.0595589c-0.0428829,0-0.0767078,0.0031242-0.101078,0.0093765v-0.0137901l-0.0044079-0.0093765v-0.0090561
			l0.0044079-0.0137901c0.1499748-0.0062485,0.3045979-0.0228424,0.4637089-0.0504189
			c0.1220798-0.0216408,0.2294941-0.044487,0.3212719-0.0689354l0.0456886-0.0090561
			c0.0153141,0,0.0228481,0.0059319,0.0228481,0.0181961v0.0137863c-0.0028076,0.0093765-0.0044117,0.0169144-0.0044117,0.0231667
			c0,0.0488167-0.0031223,0.1130219-0.0093746,0.1925392l-0.0090618,0.1102142l-0.0090542,0.114624
			c-0.0153942,0.2081718-0.0228462,0.3688049-0.0228462,0.4818268c0,0.2601929,0.0350304,0.431488,0.1054878,0.5141335
			c0.0949059,0.1162262,0.2063255,0.1744194,0.3350563,0.1744194c0.0303802,0,0.0732651-0.0062523,0.1283321-0.0184364
			c0.0582752-0.0122604,0.1146278-0.0291748,0.1696968-0.0504189c0.1409149-0.052021,0.2189064-0.1118202,0.2342205-0.1791496
			c0.005928-0.2567444,0.0091362-0.4834328,0.0091362-0.6790962v-0.1972656c0-0.1070938-0.0075359-0.1882095-0.0229244-0.2432785
			c-0.0243683-0.0795174-0.065733-0.1208763-0.1239262-0.1240044h-0.0319824l-0.0275745-0.004406h-0.0322227
			c-0.0519409,0-0.0779934-0.0015259-0.0779934-0.0046501v-0.0323067l0.9178047-0.1192741
			c-0.0366344,0.3397102-0.0551472,0.7192535-0.0551472,1.1381569c0,0.0917816,0.0031223,0.2358246,0.0093746,0.431488
			c0.0028095,0.0857697,0.0366344,0.1284103,0.1008415,0.1284103c0.0213203,0,0.0504189-0.0060081,0.0873699-0.0181923
			l0.0366325-0.0093803l0.0366325-0.0090561c0.0275726-0.006012,0.053545-0.0137901,0.0779915-0.0229263V35.6841087z
			 M23.6552029,34.9955559c0,0.3457184-0.1653671,0.6133652-0.4956932,0.8031769
			c-0.2692509,0.1530991-0.5829868,0.2294922-0.9408932,0.2294922c-0.2508087,0-0.4743671-0.0106621-0.6701126-0.0322266
			c-0.0334263-0.0028839-0.0672512-0.0060081-0.1007576-0.0091362l-0.0413628-0.0046501l-0.036953-0.004406
			c-0.0488129-0.0062523-0.0807972-0.0093803-0.0961075-0.0093803h-0.0964298
			c-0.046011,0.0031281-0.0826416,0.0046501-0.110218,0.0046501c0.0031281-0.0885735,0.0062542-0.2448006,0.0090599-0.4680405
			c0.0031261-0.1803551,0.0047283-0.3303299,0.0047283-0.4496841c0.0184364-0.0031242,0.0397587-0.0046463,0.064127-0.0046463
			c0.0275745-0.0031281,0.0551491-0.0047302,0.0827236-0.0047302c0.0795135,0,0.1393127,0.0062523,0.1790695,0.0185165v0.1928558
			c0,0.064209,0.0016041,0.125206,0.0044117,0.1834793c0.0062485,0.0763931,0.0137863,0.1437263,0.0231628,0.2019196
			c0.018116,0.0122643,0.0350285,0.0229263,0.0504189,0.0319824c0.0212421,0.0125046,0.0428829,0.0231667,0.064127,0.0322227
			c0.0551472,0.0275726,0.1134224,0.0520248,0.1744232,0.0735855c0.1622391,0.0548286,0.3425922,0.0823212,0.5417023,0.0823212
			c0.5078793,0,0.761816-0.2201118,0.761816-0.660656c0-0.2019157-0.0811176-0.3566208-0.2432747-0.4637108
			c-0.1164703-0.0763893-0.2953033-0.1389923-0.5369778-0.1878891c-0.0488949-0.0093803-0.0965099-0.0184364-0.1421967-0.0274925
			c-0.0645294-0.0122681-0.1255283-0.0260544-0.1838017-0.0413628c-0.5780144-0.1531029-0.8673038-0.4559364-0.8673038-0.9086685
			c0-0.3397064,0.1483707-0.5845871,0.4452744-0.7342415c0.2263641-0.1133423,0.5353718-0.1700134,0.9270992-0.1700134
			c0.1925373,0,0.3748188,0.0077782,0.5460339,0.0231667c0.0303802,0,0.061079,0.0012016,0.0917816,0.004406
			c0.0213203,0.0031281,0.0441666,0.0062561,0.0688553,0.0090599c0.052021,0.0062523,0.0811176,0.0093803,0.0870495,0.0093803
			c0.0153904,0,0.0582752,0.0016022,0.1287327,0.004406l0.0870514,0.0046501l0.0917015,0.0047264
			c-0.0519428,0.2598724-0.0779133,0.5476418-0.0779133,0.8626556c-0.1039658,0.0093803-0.1622391,0.01371-0.1744232,0.01371
			c-0.0153923,0-0.0307007-0.0015259-0.0460091-0.0043297l-0.0366344-0.0047302
			c0-0.2416725-0.0122643-0.4405441-0.0366306-0.5964508c-0.0275745-0.0153885-0.0642071-0.0323029-0.1102161-0.0507393
			c-0.0520248-0.0181961-0.1070919-0.0351067-0.1650448-0.0504189c-0.1562271-0.0397568-0.3153419-0.0594788-0.477499-0.0594788
			c-0.21418,0-0.3838749,0.0381546-0.5094795,0.1146278c-0.162159,0.0948257-0.2429581,0.2523346-0.2429581,0.4727669
			c0,0.1437225,0.0548286,0.2614746,0.1650448,0.3531723c0.0826435,0.0704613,0.2019157,0.1299362,0.3579044,0.1791534
			c0.0306168,0.0121841,0.0672493,0.0243683,0.1102161,0.0366325l0.0504189,0.0137863l0.0412807,0.0090561
			c0.0306969,0.0093803,0.0811195,0.0215645,0.151577,0.036953l0.0916977,0.018116l0.0964317,0.0231667
			c0.1744194,0.0395203,0.3166218,0.0886536,0.4268379,0.1468506
			C23.4835835,34.4112854,23.6552029,34.6621017,23.6552029,34.9955559z M19.318203,35.8766479
			c-0.1345844,0.0094566-0.2767849,0.0260506-0.4267578,0.0507393c-0.1102161,0.0181961-0.2188301,0.0397568-0.325922,0.0642052
			l-0.0457687,0.0090561l-0.0184383,0.0047302l-0.0137863,0.0090561c-0.0090561,0.0031281-0.0153084,0.0047302-0.0184364,0.0047302
			c-0.006012,0-0.0091362-0.0078545-0.0091362-0.0231667V35.964016c0-0.0460091,0.0031242-0.1054878,0.0091362-0.1790695
			l0.0046501-0.0964279l0.0047302-0.1055679c0.0121822-0.1803551,0.018116-0.3227959,0.018116-0.4267578
			c0-0.278389-0.0381565-0.4618683-0.1145458-0.5507622c-0.0949078-0.1161499-0.2019978-0.1744232-0.32127-0.1744232
			c-0.0980358,0-0.215786,0.0476112-0.3534966,0.1425209c0,0.060997,0.0031261,0.1114159,0.0093784,0.1514931
			c0,0.0244484,0.001524,0.0563545,0.0043278,0.0961113v0.0917778c0,0.0767136-0.0012016,0.1838036-0.0043278,0.3212738
			l-0.0093784,0.1562271v0.2661209c0,0.0275764,0.001524,0.0535469,0.0046501,0.0779915
			c0.0031261,0.0335083,0.0078545,0.062603,0.0137882,0.0870552c0.0153065,0.0645256,0.0428829,0.0964279,0.0826416,0.0964279
			h0.0504189l0.0551472,0.0047302c0.0243683,0,0.0428848-0.001606,0.055069-0.0047302
			c0,0.0184364-0.0015221,0.0366325-0.0046501,0.055069c-0.0704575,0.0032043-0.1528587,0.0047302-0.2476864,0.0047302h-0.2294903
			c-0.1684895,0.0031242-0.2831154,0.0106583-0.3441162,0.0228424l-0.0094585,0.0047302l-0.009058,0.0043297
			c-0.0090561,0.0032043-0.0169125,0.0047264-0.0228443,0.0047264c-0.0062523,0-0.0109825-0.0031242-0.0137901-0.0090561
			c-0.0062485-0.0031242-0.0093765-0.0093803-0.0093765-0.0185165l0.0093765-0.1192741
			c0.0059357-0.0642052,0.010664-0.1161499,0.0137901-0.1559067l0.0137882-0.1744232
			c0.0090561-0.1346626,0.0137844-0.2539368,0.0137844-0.358223c0-0.2783089-0.0306988-0.4771767-0.0921021-0.5964508
			c-0.0547447-0.1008377-0.1834774-0.151577-0.3853951-0.151577c-0.0795975,0-0.1634426,0.0354271-0.2524147,0.1058083
			c-0.009058,0.1343422-0.0137882,0.2997055-0.0137882,0.4953728c-0.0031242,0.0735855-0.0043278,0.1562271-0.0043278,0.2480049
			v0.2204361c0,0.1039619,0.0074558,0.1834793,0.0228443,0.2385483c0.0212421,0.0795937,0.0594769,0.1236801,0.1145458,0.1331406
			h0.0369511c0.0122662,0,0.0303802-0.001606,0.0548286-0.0047302h0.0783138c0.0028057,0,0.0043278,0.0047302,0.0043278,0.0137863
			s-0.0015221,0.0213242-0.0043278,0.0366325l-0.9043369,0.110218c0.0338278-0.3058815,0.0504189-0.6609802,0.0504189-1.0645714
			v-0.215786c-0.0028057-0.0826416-0.0059309-0.1590309-0.009057-0.2294922
			c-0.0031252-0.0885696-0.0351086-0.1330605-0.0964289-0.1330605c-0.0275745,0-0.0594769,0.007534-0.0961103,0.0228462
			c-0.0216417,0.0062523-0.044486,0.0121841-0.0689354,0.0184364l-0.036952,0.0091362
			c-0.0149889,0.0062523-0.0287762,0.0106621-0.0409603,0.0137901v-0.0413628
			c0.501545-0.1712952,0.8228168-0.3058815,0.9634113-0.4039154c0.0125046,0.0093803,0.0200386,0.0184364,0.0231667,0.0275764
			c-0.0184364,0.0338249-0.0338249,0.0995522-0.046011,0.1975899c0,0.0090561-0.0016022,0.0228424-0.0044079,0.0409584
			l-0.0093784,0.0507393c-0.0059319,0.052021-0.0106602,0.0977135-0.0137863,0.1374702l0.1011581-0.068615l0.1008377-0.0782356
			c0.0885754-0.0642052,0.1590328-0.114624,0.2110538-0.1512527c0.1621609-0.1070938,0.2876873-0.163765,0.376339-0.1700172
			h0.0826416l0.0870533,0.0093803c0.0614014,0.0091362,0.1102161,0.0303764,0.1468487,0.0642052
			c0.1164684,0.1039658,0.1822777,0.2476845,0.197588,0.431488c0.1405964-0.144043,0.3365822-0.279911,0.5873928-0.4086418
			c0.0917816-0.0488205,0.1897335-0.0732651,0.2936974-0.0732651c0.0397568,0,0.0732651,0.004406,0.1008377,0.0137863
			c0.1346664,0.0456886,0.2279701,0.1054878,0.279911,0.1787529c0.0704594,0.0949059,0.105566,0.2433586,0.105566,0.4452744
			v0.0964279c-0.0028839,0.0642052-0.006012,0.1284142-0.0091381,0.1926193v0.1514969
			c0,0.0366325,0.0031261,0.2051239,0.0091381,0.5047531v0.0779915c0.0031281,0.0338287,0.0062523,0.0613213,0.0093803,0.0826416
			c0.0121822,0.064209,0.0366325,0.0964317,0.0732632,0.0964317h0.0366306l0.0412827-0.0046501
			c0.0307007-0.0028839,0.0582733-0.00914,0.0827217-0.0181961c0.0062542,0.0059319,0.0093765,0.0165939,0.0093765,0.0319023
			C19.3229294,35.8691902,19.3213291,35.8738403,19.318203,35.8766479z M14.9170761,35.3628349
			c0.046011-0.1011581,0.0688553-0.20504,0.0688553-0.31213c0-0.1988716-0.0688553-0.3657608-0.2066441-0.500103
			c-0.1496553-0.1499748-0.3472443-0.2250824-0.5918036-0.2250824c-0.0274944,0-0.0719814,0.0031242-0.1330624,0.0093765
			c-0.055068,0.0028076-0.1102171,0.0303802-0.1652851,0.0823212c-0.0551481,0.046093-0.0917788,0.0964317-0.1102161,0.1515808
			c-0.0428839,0.1039619-0.0642052,0.2003937-0.0642052,0.2892876c0,0.2016754,0.0826426,0.3760986,0.2476864,0.5229454
			c0.1593533,0.1409187,0.3397083,0.2112961,0.5417032,0.2112961h0.0274944
			C14.7304697,35.5798225,14.8588018,35.5034332,14.9170761,35.3628349z M15.5458317,34.6514397
			c0,0.0917816-0.0153904,0.1913338-0.0457706,0.2984238c-0.0368729,0.1252098-0.0857668,0.2157059-0.1468477,0.2705307
			c-0.1715364,0.1531029-0.2723742,0.2464066-0.3030767,0.2802353l-0.0642052,0.0594749
			c-0.1834812,0.1744194-0.3227949,0.2905693-0.4176998,0.3488464c-0.1468496,0.0857658-0.3196688,0.1283302-0.5184584,0.1283302
			h-0.0460911c-0.2047224-0.0059319-0.3838749-0.0779114-0.536974-0.2157021
			c-0.1741028-0.1559067-0.2674065-0.3610306-0.2799101-0.6149712v-0.0228424c0-0.2386322,0.0704584-0.4358978,0.2113743-0.5921249
			c0.0977116-0.1098938,0.269249-0.2279663,0.5138102-0.3531723c0.3732138-0.1928596,0.6318798-0.2890472,0.7756033-0.2890472
			h0.0184364l0.0181952,0.004406C15.2627964,34.0242882,15.5366945,34.2565842,15.5458317,34.6514397z"/>
		<path style="fill-rule:evenodd;clip-rule:evenodd;fill:#FFFFFF;" d="M15.245883,20.8402271
			c-0.0441675,0.1409168-0.0967522,0.4884796-0.1584711,1.0433292c-0.0617218,0.5457935-0.0926628,0.9505882-0.0926628,1.2148666
			v0.7659073h-0.1716166l-0.1452465,0.0131435c-0.0792751,0-0.2245207-0.0087376-0.435895-0.0262928
			c0-0.0704575,0.0047283-0.1982288,0.0134649-0.3829098v-0.4096031c0-0.6161728-0.0660486-0.9991646-0.1982288-1.148819
			c-0.0174742-0.0175552-0.0440865-0.0350304-0.079196-0.0529041c-0.0441666-0.0262928-0.0879326-0.0525818-0.1320992-0.079195
			c-0.1409168-0.0704575-0.2993879-0.136507-0.4753342-0.1979084c-0.5019455-0.1762657-1.0608044-0.2642803-1.6770535-0.2642803
			c-0.9863377,0-1.752161,0.2332573-2.2979383,0.6998558c-0.748374,0.6340446-1.1225491,1.7035866-1.1225491,3.2091045
			c0,1.2765064,0.3785839,2.280077,1.1356707,3.0108719c0.6428719,0.6074333,1.391221,0.9111519,2.245059,0.9111519
			c0.536974,0,1.0126286-0.0350304,1.42624-0.1054878c0.5282393-0.0880146,0.9728718-0.2332573,1.3339014-0.4358959
			c0.0704575-0.0353508,0.1317797-0.0703793,0.1846828-0.1054897c0.0441675-0.0266094,0.0880127-0.0573101,0.1321793-0.092659
			c0.1054888-0.0617237,0.1894131-0.1098957,0.2508135-0.1453266l0.0131454-0.0131454h0.0134668
			c0.0438452,0,0.0923414,0.0310211,0.1452446,0.0924225c0.0525846,0.0616398,0.0792761,0.1102161,0.0792761,0.1452446
			c0,0.079195-0.0310211,0.1496525-0.092741,0.2113762c-0.123044,0.1233597-0.2508144,0.2376652-0.3829126,0.3434734
			c-1.1973925,0.889267-2.3899765,1.33358-3.5786314,1.33358c-1.4349785,0-2.5662327-0.4399853-3.3937945-1.3204346
			c-0.8187923-0.8717117-1.2284136-2.0512295-1.2284136-3.5391102c0-1.6817856,0.5811419-2.9449062,1.743113-3.7900066
			c0.9158955-0.6781349,2.0471411-1.0169563,3.3941879-1.0169563c0.343153,0,0.6512785,0.0087357,0.9242954,0.026289
			c0.2113762,0.0087376,0.4136925,0.0222054,0.6075125,0.0397606c0.4226713,0.0529022,0.6380539,0.079195,0.647192,0.079195
			h0.4354963c0.0883331,0,0.19382-0.0043316,0.3171825-0.0131474H15.245883z"/>
		<path style="fill-rule:evenodd;clip-rule:evenodd;fill:#FFFFFF;" d="M15.245883,20.8402271
			c-0.0441675,0.1409168-0.0967522,0.4884796-0.1584711,1.0433292c-0.0617218,0.5457935-0.0926628,0.9505882-0.0926628,1.2148666
			v0.7659073h-0.1716166l-0.1452465,0.0131435c-0.0792751,0-0.2245207-0.0087376-0.435895-0.0262928
			c0-0.0704575,0.0047283-0.1982288,0.0134649-0.3829098v-0.4096031c0-0.6161728-0.0660486-0.9991646-0.1982288-1.148819
			c-0.0174742-0.0175552-0.0440865-0.0350304-0.079196-0.0529041c-0.0441666-0.0262928-0.0879326-0.0525818-0.1320992-0.079195
			c-0.1409168-0.0704575-0.2993879-0.136507-0.4753342-0.1979084c-0.5019455-0.1762657-1.0608044-0.2642803-1.6770535-0.2642803
			c-0.9863377,0-1.752161,0.2332573-2.2979383,0.6998558c-0.748374,0.6340446-1.1225491,1.7035866-1.1225491,3.2091045
			c0,1.2765064,0.3785839,2.280077,1.1356707,3.0108719c0.6428719,0.6074333,1.391221,0.9111519,2.245059,0.9111519
			c0.536974,0,1.0126286-0.0350304,1.42624-0.1054878c0.5282393-0.0880146,0.9728718-0.2332573,1.3339014-0.4358959
			c0.0704575-0.0353508,0.1317797-0.0703793,0.1846828-0.1054897c0.0441675-0.0266094,0.0880127-0.0573101,0.1321793-0.092659
			c0.1054888-0.0617237,0.1894131-0.1098957,0.2508135-0.1453266l0.0131454-0.0131454h0.0134668
			c0.0438452,0,0.0923414,0.0310211,0.1452446,0.0924225c0.0525846,0.0616398,0.0792761,0.1102161,0.0792761,0.1452446
			c0,0.079195-0.0310211,0.1496525-0.092741,0.2113762c-0.123044,0.1233597-0.2508144,0.2376652-0.3829126,0.3434734
			c-1.1973925,0.889267-2.3899765,1.33358-3.5786314,1.33358c-1.4349785,0-2.5662327-0.4399853-3.3937945-1.3204346
			c-0.8187923-0.8717117-1.2284136-2.0512295-1.2284136-3.5391102c0-1.6817856,0.5811419-2.9449062,1.743113-3.7900066
			c0.9158955-0.6781349,2.0471411-1.0169563,3.3941879-1.0169563c0.343153,0,0.6512785,0.0087357,0.9242954,0.026289
			c0.2113762,0.0087376,0.4136925,0.0222054,0.6075125,0.0397606c0.4226713,0.0529022,0.6380539,0.079195,0.647192,0.079195
			h0.4354963c0.0883331,0,0.19382-0.0043316,0.3171825-0.0131474H15.245883z"/>
	</g>
</g>
</svg>
