<?xml version="1.0" encoding="utf-8"?>
<!-- Generator: Adobe Illustrator 23.1.0, SVG Export Plug-In . SVG Version: 6.00 Build 0)  -->
<svg version="1.1" id="Слой_1" xmlns="http://www.w3.org/2000/svg" xmlns:xlink="http://www.w3.org/1999/xlink" x="0px" y="0px"
	 viewBox="0 0 50 50" style="enable-background:new 0 0 50 50;" xml:space="preserve">
<style type="text/css">
	.st0{display:none;}
	.st1{display:inline;}
	.st2{fill:#FFFFFF;}
	.st3{display:inline;fill:#FFFFFF;}
	.st4{fill:#333333;}
</style>
<g class="st0">
	<rect class="st1" width="50" height="50"/>
</g>
<g class="st0">
	<g class="st1">
		<path class="st2" d="M7.5,26.5c0,0.9,0.9,1.7,2,1.7h12.8l-6.7-3.4H8.9C8.1,25,7.5,25.7,7.5,26.5z"/>
		<path class="st2" d="M43.5,26.5c0-0.8-0.6-1.5-1.5-1.6h-6.8l-6.7,3.4h12.8C42.6,28.2,43.5,27.4,43.5,26.5z"/>
		<path class="st2" d="M33.5,24.8H17.6c2.5,1.3,7.6,3.8,7.9,4C25.9,28.7,31,26.1,33.5,24.8z"/>
	</g>
	<path class="st2" d="M45.2,21.1c0-0.9,0-1.7,0-2.6c-0.2-5.2-5-9.3-11-9.3c-6.2,0-12.4,0-18.6,0c-3.1,0-5.7,1-7.8,2.9
		c-2.2,1.9-3.2,4.2-3.2,6.8c0,4.3-0.4,3.9,4.4,3.9c5.3,0,10.6,0,15.9,0c6.1,0,12.3,0,18.4,0C44.6,22.8,45.2,22.3,45.2,21.1z
		 M40.6,20.3c-10.5,0-21,0-31.6,0c-1,0-1.8-0.7-1.8-1.5c0.2-4.5,3.7-7.4,9.2-7.4c5.7,0,11.4-0.1,17.1,0c5.3,0,8.9,3.5,9,7.5
		C42.5,19.6,41.6,20.3,40.6,20.3z"/>
	<path class="st3" d="M42.4,31.3c-6,0-11.5,0-17.5,0c-6.1,0-11.7,0-17.8,0c-1.6,0-1.8,0.4-1.7,1.6c1.6,5,4.2,6.9,10.1,6.9
		c6.3,0,12.6,0,18.9,0c5.9,0,9.1-1.6,10-6.2C44.2,31.9,44.4,31.3,42.4,31.3z M42.1,33.9c-0.7,2.4-3.7,4.7-7,4.8
		c-6.8,0.2-13.7,0.2-20.5,0c-3.3-0.1-5.9-2-7-4.8C7.3,33.1,8,32.5,9,32.5c10.6,0,21.1,0,31.6,0C41.5,32.5,42.3,33.1,42.1,33.9z"/>
	<path class="st3" d="M42.4,22.8c-6,0-11.5,0-17.5,0c-6.1,0-11.7,0-17.8,0c-1.6,0-1.8-0.4-1.7-1.6c1.6-5,4.2-9.9,10.1-9.9
		c6.3,0,12.6,0,18.9,0c5.9,0,7.9,4.9,9.7,9.3C43.9,22.3,44.4,22.8,42.4,22.8z M42.1,20.2c-0.7-2.4-3.7-7.7-7-7.8
		c-6.8-0.2-13.7-0.2-20.5,0c-3.3,0.1-5.9,5-7,7.8C7.3,21,8,21.6,9,21.6c10.6,0,21.1,0,31.6,0C41.5,21.6,42.3,21,42.1,20.2z"/>
	<g>
		<path class="st3" d="M14.5,14.1L14.5,14.1c0.3,0,0.5-0.2,0.5-0.4v-0.9c0-0.2-0.2-0.4-0.4-0.4h-0.1c-0.2,0-0.4,0.2-0.4,0.4v0.9
			C14.1,13.9,14.3,14.1,14.5,14.1z"/>
		<path class="st3" d="M18.9,15.9L18.9,15.9c0.3,0,0.5-0.2,0.5-0.4v-0.9c0-0.2-0.2-0.4-0.4-0.4h-0.1c-0.2,0-0.4,0.2-0.4,0.4v0.9
			C18.5,15.7,18.7,15.9,18.9,15.9z"/>
		<path class="st3" d="M30.3,15.9L30.3,15.9c0.3,0,0.5-0.2,0.5-0.4v-0.9c0-0.2-0.2-0.4-0.4-0.4h-0.1c-0.2,0-0.4,0.2-0.4,0.4v0.9
			C29.9,15.7,30,15.9,30.3,15.9z"/>
		<path class="st3" d="M14.5,18.5L14.5,18.5c0.3,0,0.5-0.2,0.5-0.4v-0.9c0-0.2-0.2-0.4-0.4-0.4h-0.1c-0.2,0-0.4,0.2-0.4,0.4v0.9
			C14.1,18.3,14.3,18.5,14.5,18.5z"/>
		<path class="st3" d="M25,14.1L25,14.1c0.3,0,0.5-0.2,0.5-0.4v-0.9c0-0.2-0.2-0.4-0.4-0.4H25c-0.2,0-0.4,0.2-0.4,0.4v0.9
			C24.6,13.9,24.8,14.1,25,14.1z"/>
		<path class="st3" d="M25,18.5L25,18.5c0.3,0,0.5-0.2,0.5-0.4v-0.9c0-0.2-0.2-0.4-0.4-0.4H25c-0.2,0-0.4,0.2-0.4,0.4v0.9
			C24.6,18.3,24.8,18.5,25,18.5z"/>
		<path class="st3" d="M34.6,14.1L34.6,14.1c0.3,0,0.5-0.2,0.5-0.4v-0.9c0-0.2-0.2-0.4-0.4-0.4h-0.1c-0.2,0-0.4,0.2-0.4,0.4v0.9
			C34.2,13.9,34.4,14.1,34.6,14.1z"/>
		<path class="st3" d="M34.6,18.5L34.6,18.5c0.3,0,0.5-0.2,0.5-0.4v-0.9c0-0.2-0.2-0.4-0.4-0.4h-0.1c-0.2,0-0.4,0.2-0.4,0.4v0.9
			C34.2,18.3,34.4,18.5,34.6,18.5z"/>
	</g>
</g>
<g class="st0">
	<path class="st4" d="M37.3,30.9l-8.3,0l0-0.8l8.3,0l0-0.9l-0.3,0l-10.1,0l-11.1,0l-0.9,0l-0.3,0l0,2.1c0,1.3,1.1,2.3,2.3,2.4
		l18.1,0c1.3,0,2.4-1.1,2.4-2.3L37.3,30.9z M17.4,29.1l7.8,0l0,0L17.4,29.1z"/>
</g>
<g>
	<rect x="30.6" y="34.1" class="st2" width="15.2" height="1"/>
	<path class="st2" d="M47.2,36.4l0-4.4c1.1-0.7,1.8-1.9,1.8-3.2c0-1.1-0.5-2.1-1.2-2.8c0.5-0.4,0.8-1,0.8-1.7c0-0.9-0.6-1.7-1.4-2
		c-0.3-8-6.9-14.4-14.9-14.4l-14.5,0c-8,0-14.6,6.4-14.9,14.3c-0.8,0.3-1.4,1.1-1.4,2c0,0.7,0.3,1.3,0.8,1.7C1.5,26.6,1,27.6,1,28.7
		c0,1.4,0.7,2.6,1.8,3.2l0,4.4c0,3.1,2.6,5.7,5.7,5.7l32.9,0.1C44.6,42.1,47.2,39.5,47.2,36.4z M2.9,24.2c0-0.4,0.3-0.7,0.7-0.7
		l5.8,0l0,0l0-0.7l0,0l-5.8,0C3.6,15,10,8.6,17.8,8.7l14.5,0c7.9,0,14.2,6.4,14.2,14.2l-35.1-0.1l0,0l0,0.7l0,0l35.1,0.1
		c0.4,0,0.7,0.3,0.7,0.7c0,0.4-0.3,0.7-0.7,0.7c-0.3,0-0.5,0-0.8,0l0,0l0,0c-1.5,0.1-2.3,0.5-3.1,0.9c-0.9,0.4-1.7,0.8-3.3,0.8
		c-0.2,0-0.4,0-0.6,0c-1.2-0.1-1.9-0.4-2.7-0.8c-0.9-0.4-1.9-0.9-3.9-0.9c-0.4,0-0.7,0-1,0c-1.3,0.1-2.1,0.5-2.9,0.9
		c-0.2,0.1-0.4,0.2-0.6,0.3c-0.6,0.3-1.4,0.5-2.6,0.5c0,0,0,0-0.1,0l0,0l0,0c0,0-0.1,0-0.1,0c-0.1,0-0.1,0-0.2,0c0,0,0,0,0,0
		c-0.6,0-1.1-0.1-1.6-0.2c-0.5-0.1-0.9-0.3-1.4-0.5c-0.9-0.4-1.9-0.9-3.9-0.9c-2,0-3,0.5-3.9,0.9c-0.8,0.4-1.4,0.7-2.7,0.8
		c-0.2,0-0.4,0-0.6,0c-1.6,0-2.4-0.4-3.3-0.8c-0.8-0.4-1.6-0.8-3.1-0.9l0,0l0,0c-0.2,0-0.5,0-0.8,0C3.2,24.9,2.9,24.6,2.9,24.2z
		 M2.5,28.7c0-1.1,0.8-2.1,1.9-2.3c1.1,0.1,1.7,0.4,2.4,0.7c0.8,0.4,1.8,0.9,3.5,0.9c0.1,0,0.2,0,0.4,0c2,0,3-0.5,3.9-0.9
		c0.9-0.4,1.7-0.8,3.3-0.8c0.4,0,0.8,0,1.1,0.1c0.2,0,0.3,0.1,0.5,0.1c0.1,0,0.1,0,0.2,0c0.6,0.1,1.1,0.4,1.5,0.6
		c0.6,0.3,1.2,0.6,2.2,0.8c0.1,0,0.3,0,0.4,0.1c0.1,0,0.2,0,0.3,0c0.3,0,0.6,0.1,1,0.1l0,0c0.4,0,0.8,0,1.2-0.1
		c1.2-0.1,2-0.5,2.6-0.8c0,0,0.1,0,0.1,0c0.9-0.4,1.7-0.8,3.3-0.8c0.4,0,0.8,0,1.1,0.1c0.2,0,0.3,0.1,0.5,0.1c0.1,0,0.1,0,0.2,0
		c0.6,0.1,1.1,0.4,1.5,0.6c0.6,0.3,1.2,0.6,2.2,0.8c0.1,0,0.3,0,0.4,0.1c0.1,0,0.2,0,0.3,0c0.3,0,0.6,0.1,1,0.1c0.1,0,0.2,0,0.4,0
		c1.7-0.1,2.7-0.5,3.5-0.9c0.7-0.3,1.3-0.6,2.4-0.7c1.1,0.2,1.9,1.2,1.9,2.4c0,1.3-1.1,2.4-2.4,2.4l-15.8,0l0,0l-24.5,0
		C3.5,31.1,2.5,30,2.5,28.7z M41.5,41.3L8.5,41.3c-2.8,0-5-2.2-5-5l0-4.5l42.9,0.1l0,4.5C46.5,39.1,44.2,41.3,41.5,41.3z"/>
	<g>
		<rect x="13.4" y="14.1" class="st2" width="2.2" height="1.4"/>
		<rect x="16.9" y="11" class="st2" width="2.2" height="1.4"/>
		<rect x="20.4" y="14.2" class="st2" width="2.2" height="1.4"/>
		<rect x="23.9" y="11" class="st2" width="2.2" height="1.4"/>
		<rect x="27.5" y="14.1" class="st2" width="2.2" height="1.4"/>
		<rect x="31" y="11" class="st2" width="2.2" height="1.4"/>
		<rect x="34.5" y="14.2" class="st2" width="2.2" height="1.4"/>
	</g>
</g>
</svg>
