<?xml version="1.0" encoding="utf-8"?>
<!-- Generator: Adobe Illustrator 23.1.0, SVG Export Plug-In . SVG Version: 6.00 Build 0)  -->
<svg version="1.1" id="Слой_1" xmlns="http://www.w3.org/2000/svg" xmlns:xlink="http://www.w3.org/1999/xlink" x="0px" y="0px"
	 viewBox="0 0 50 50" style="enable-background:new 0 0 50 50;" xml:space="preserve">
<style type="text/css">
	.st0{display:none;}
	.st1{display:inline;}
	.st2{fill:#FFFFFF;}
</style>
<g class="st0">
	<rect class="st1" width="50" height="50"/>
</g>
<g>
	<path class="st2" d="M3.9,26.4c0,1.1,1.1,2,2.4,2h15l-7.8-4h-8C4.6,24.7,3.9,25.5,3.9,26.4z"/>
	<path class="st2" d="M46.1,26.4c0-0.9-0.7-1.7-1.7-1.9h-8l-7.8,4h15C45,28.4,46.1,27.5,46.1,26.4z"/>
	<path class="st2" d="M34.3,24.5H15.7c2.9,1.5,8.9,4.5,9.3,4.7C25.4,29,31.4,26,34.3,24.5z"/>
	<path class="st2" d="M45.2,21.1c0-0.9,0-1.7,0-2.6c-0.2-5.2-5-9.3-11-9.3c-6.2,0-12.4,0-18.6,0c-3.1,0-5.7,1-7.8,2.9
		c-2.2,1.9-3.2,4.2-3.2,6.8c0,4.3-0.4,3.9,4.4,3.9c5.3,0,10.6,0,15.9,0c6.1,0,12.3,0,18.4,0C44.6,22.8,45.2,22.3,45.2,21.1z
		 M40.6,20.3c-10.5,0-21,0-31.6,0c-1,0-1.8-0.7-1.8-1.5c0.2-4.5,3.7-7.4,9.2-7.4c5.7,0,11.4-0.1,17.1,0c5.3,0,8.9,3.5,9,7.5
		C42.5,19.6,41.6,20.3,40.6,20.3z"/>
	<path class="st2" d="M42.9,30.3c-6,0-12,0-18,0c-6.1,0-12.1,0-18.2,0c-1.6,0-2.2,0.5-2.1,1.7c0.1,4.7,5,8.8,10.9,8.8
		c6.3,0,12.6,0,18.9,0c5.9,0,10.8-3.8,11-8.5C45.2,30.6,44.9,30.3,42.9,30.3z M42.1,33.9c-0.7,2.4-3.7,4.7-7,4.8
		c-6.8,0.2-13.7,0.2-20.5,0c-3.3-0.1-5.9-2-7-4.8C7.3,33.1,8,32.5,9,32.5c10.6,0,21.1,0,31.6,0C41.5,32.5,42.3,33.1,42.1,33.9z"/>
	<path class="st2" d="M14.5,14.1L14.5,14.1c0.3,0,0.5-0.2,0.5-0.4v-0.9c0-0.2-0.2-0.4-0.4-0.4h-0.1c-0.2,0-0.4,0.2-0.4,0.4v0.9
		C14.1,13.9,14.3,14.1,14.5,14.1z"/>
	<path class="st2" d="M18.9,15.9L18.9,15.9c0.3,0,0.5-0.2,0.5-0.4v-0.9c0-0.2-0.2-0.4-0.4-0.4h-0.1c-0.2,0-0.4,0.2-0.4,0.4v0.9
		C18.5,15.7,18.7,15.9,18.9,15.9z"/>
	<path class="st2" d="M30.3,15.9L30.3,15.9c0.3,0,0.5-0.2,0.5-0.4v-0.9c0-0.2-0.2-0.4-0.4-0.4h-0.1c-0.2,0-0.4,0.2-0.4,0.4v0.9
		C29.9,15.7,30,15.9,30.3,15.9z"/>
	<path class="st2" d="M14.5,18.5L14.5,18.5c0.3,0,0.5-0.2,0.5-0.4v-0.9c0-0.2-0.2-0.4-0.4-0.4h-0.1c-0.2,0-0.4,0.2-0.4,0.4v0.9
		C14.1,18.3,14.3,18.5,14.5,18.5z"/>
	<path class="st2" d="M25,14.1L25,14.1c0.3,0,0.5-0.2,0.5-0.4v-0.9c0-0.2-0.2-0.4-0.4-0.4H25c-0.2,0-0.4,0.2-0.4,0.4v0.9
		C24.6,13.9,24.8,14.1,25,14.1z"/>
	<path class="st2" d="M25,18.5L25,18.5c0.3,0,0.5-0.2,0.5-0.4v-0.9c0-0.2-0.2-0.4-0.4-0.4H25c-0.2,0-0.4,0.2-0.4,0.4v0.9
		C24.6,18.3,24.8,18.5,25,18.5z"/>
	<path class="st2" d="M34.6,14.1L34.6,14.1c0.3,0,0.5-0.2,0.5-0.4v-0.9c0-0.2-0.2-0.4-0.4-0.4h-0.1c-0.2,0-0.4,0.2-0.4,0.4v0.9
		C34.2,13.9,34.4,14.1,34.6,14.1z"/>
	<path class="st2" d="M34.6,18.5L34.6,18.5c0.3,0,0.5-0.2,0.5-0.4v-0.9c0-0.2-0.2-0.4-0.4-0.4h-0.1c-0.2,0-0.4,0.2-0.4,0.4v0.9
		C34.2,18.3,34.4,18.5,34.6,18.5z"/>
</g>
</svg>
