<?xml version="1.0" encoding="utf-8"?>
<!-- Generator: Adobe Illustrator 23.1.0, SVG Export Plug-In . SVG Version: 6.00 Build 0)  -->
<svg version="1.1" id="Слой_1" xmlns="http://www.w3.org/2000/svg" xmlns:xlink="http://www.w3.org/1999/xlink" x="0px" y="0px"
	 viewBox="0 0 50 50" style="enable-background:new 0 0 50 50;" xml:space="preserve">
<style type="text/css">
	.st0{display:none;}
	.st1{display:inline;}
	.st2{fill:#FFFFFF;}
</style>
<g class="st0">
	<rect class="st1" width="50" height="50"/>
</g>
<g>
	<path class="st2" d="M23.3,31.6c0.6-0.8,1.7-1.9,1.5-3c0-1.2-1.2-2.5-2.1-3.4c-1.9-1.9-5.4-0.9-7.2,0.8c-0.9,0.9-1.5,1.8-1.4,3.1
		c0.1,1.1,1,3.5,2.1,4.2c0.9,0.6,3,0.6,3.9,0.4C21.6,33.6,22.4,32.7,23.3,31.6z M21.1,25.3c-0.4,0.4-0.8,1-1.2,1.4
		c-0.4,0.4-0.9,0.9-1.3,1.3c-0.3,0-0.6,0-1,0c-0.6,0-1.4,0.1-2.1,0.1c0.1-0.6,0.4-1.1,0.9-1.5C17.5,25.6,19.4,24.9,21.1,25.3z
		 M18.4,32.5c-1.7-0.3-2.8-1.7-3-3.2c0.9-0.1,2.8-0.6,3.5,0.1c0.8,0.8,1,2,1.7,2.9C19.8,32.6,19.2,32.6,18.4,32.5z M21.5,31.9
		L21.5,31.9c-0.8-1-1-2.3-1.9-3.2c0.4-0.3,0.8-0.8,1.2-1.1c0.5-0.6,0.9-1.1,1.4-1.7l0,0c0,0,0.1,0,0.1,0.1c0.5,0.4,1.7,1.8,1.7,2.5
		c0.1,0.7-0.5,1.4-0.9,2C22.5,31,22,31.5,21.5,31.9z"/>
	<path class="st2" d="M29.2,36.3c-1.9-1-5.4-1.1-6.8,0.9c-0.8,1-1.5,2.9-1.3,4.1s1.5,2,2.5,2.7c1.2,0.8,2.3,1.4,3.7,1.1
		c1-0.2,3-0.8,3.6-1.5c0.8-1,0.9-3.5,0.6-4.6C31.3,37.4,30.3,36.9,29.2,36.3z M28.7,37.2c0.5,0.3,1,0.8,1.3,1.3
		c-0.6,0.1-1.3,0.3-1.9,0.4c-0.4,0.1-0.8,0.1-1.2,0.3c-0.5-0.3-1-0.6-1.5-0.9c-0.5-0.3-1-0.7-1.5-1C25.2,36.4,27.4,36.5,28.7,37.2z
		 M22.1,41.1C22,40.3,22.6,38.8,23,38l0,0c0.6,0.4,1.2,0.8,1.8,1.2c0.5,0.3,0.9,0.6,1.4,0.8c-0.5,1.1-0.4,2.4-0.8,3.6l0,0
		c-0.5-0.1-1-0.3-1.4-0.7C23.6,42.6,22.3,41.9,22.1,41.1z M29.2,43.1c-0.8,0.6-1.8,0.8-2.7,0.8c0.4-1.1,0.3-2.3,0.8-3.3
		c0.3-0.6,0.9-0.6,1.4-0.7c0.6-0.1,1.2-0.3,1.8-0.4C30.8,40.7,30.4,42.3,29.2,43.1z"/>
	<path class="st2" d="M28.1,27.7c1,0.1,1.9-0.6,2.1-1.5c0.3-1-0.4-1.7-1.3-2c-0.1,0-0.1,0-0.3,0c-1-0.1-2.1,0.4-2.2,1.4
		C26.1,26.6,27,27.6,28.1,27.7z M27.3,25.7c0.1-0.4,0.8-0.6,1.2-0.6c0.4,0.1,0.6,0.3,0.5,0.8c-0.1,0.4-0.5,0.8-0.9,0.7
		C27.7,26.6,27.2,26.2,27.3,25.7z"/>
	<path class="st2" d="M31.7,29.9c-0.1,0-0.1,0-0.3,0c-1-0.1-2.1,0.4-2.2,1.4c-0.3,1,0.8,2,1.7,2.1c1,0.1,1.9-0.6,2.1-1.5
		C33.1,30.9,32.6,30.2,31.7,29.9z M31.9,31.7c-0.1,0.4-0.5,0.8-0.9,0.7c-0.4-0.1-0.9-0.6-0.8-1c0.1-0.4,0.8-0.6,1.2-0.6
		C31.8,31,31.9,31.4,31.9,31.7z"/>
	<path class="st2" d="M18.1,37.5c-0.1,0-0.1,0-0.3,0c-1-0.1-2.1,0.4-2.2,1.4c-0.3,1,0.8,2,1.7,2.1c1,0.1,1.9-0.6,2.1-1.5
		C19.6,38.5,19,37.9,18.1,37.5z M18.4,39.3c-0.1,0.4-0.5,0.8-0.9,0.7c-0.4-0.1-0.9-0.6-0.8-1c0.1-0.4,0.8-0.6,1.2-0.6
		C18.1,38.6,18.4,38.9,18.4,39.3z"/>
	<path class="st2" d="M37.6,11.3c0.1,0.2,0.5,0.2,0.8,0c0.6-0.8,1.3-1.4,1.8-2.2c0.1-0.2,0-0.4-0.1-0.7c-1.7-2-6.7-9.2-8.9-3.8
		c-0.8,1.8-1.2,4-1.5,5.9c-0.3,0.9-0.5,1.8-0.6,2.5c-6.2,0-12.5-0.2-18.7-0.2c-0.1,0-0.1,0-0.3,0c-0.1,0.1-0.3,0.2-0.3,0.4
		c0.8,7.8,1.7,15.6,2.8,23.4c0.4,2,0.6,4.1,1,6.1c0.3,1.1,0.1,2.9,0.9,3.8c0.6,0.7,1.5,0.6,2.3,0.6c2.1,0.1,4.1,0.1,6.2,0.1
		c1.8,0,3.6,0,5.6-0.1c1,0,2.7,0.2,3.7-0.2c2.1-1.1,1.8-5.1,2.1-7.1c1.4-8.7,2.8-17.6,4.1-26.3c0-0.3-0.1-0.7-0.5-0.7
		c-1.5,0.2-3.4,0.2-5,0.2c0.4-1.7,0.9-3.3,1.4-5.1C35.4,9.1,36.6,10.2,37.6,11.3z M28.1,21.2c0.5-2.3,1-4.6,1.7-7c0.6,0,1.3,0,1.9,0
		C31,16.5,30.5,19,30,21.3C29.2,21.3,28.6,21.3,28.1,21.2z M26.9,21.1c-1.4-0.1-2.7-0.4-4.1-0.7c-4-0.7-7.5-0.8-11.4,0.2
		c-0.3-2.2-0.5-4.4-0.6-6.6c5.9,0,11.9,0.1,17.8,0.2C28.1,16.5,27.4,18.8,26.9,21.1z M34.3,34.7c-0.3,1.7-0.5,3.3-0.8,5.1
		c-0.3,1.5-0.3,3.5-0.8,5.1c-0.8,1.8-2.5,1.4-4,1.4c-1.7,0-3.4,0-5,0c-1.5,0-3.2,0-4.8,0c-0.8,0-1.7,0.1-2.5-0.1
		c-1.4-0.4-1.3-0.9-1.5-2.1c-0.6-3.3-1.2-6.5-1.7-9.8c-0.6-4.2-1.2-8.3-1.7-12.5c5.2-1.5,9.7-0.3,14.8,0.3c3.4,0.4,6.8,0.3,10.1-1
		C35.7,25.7,35,30.1,34.3,34.7z M37.5,14.1c-0.3,2-0.6,3.9-0.9,5.9c-1.8,0.8-3.7,1.2-5.7,1.2c0.5-2.3,1.2-4.8,1.7-7.1
		C34.3,14.2,35.9,14.1,37.5,14.1z M31.8,13.1c-0.6,0-1.3,0-1.9,0c0.1-0.7,0.4-1.3,0.5-2c0.5-1.9,0.6-4.6,1.7-6.3
		c1.3-2.2,2.8-0.3,4,0.9c0.8,0.7,3,2.5,3,3.2c0,0.3-0.9,0.9-1,1.2c0,0,0-0.1-0.1-0.1c-0.8-1.2-2.3-2.3-3.4-3.3
		c-0.3-0.3-0.8-0.1-0.9,0.2C33,9,32.5,11.1,31.8,13.1z"/>
	<path class="st2" d="M11.9,17.4c0.1,0.7,0.3,1.3,0.4,1.9c0.1,0.7,1.2,0.3,1-0.3c-0.1-0.8-0.3-1.4-0.4-2.2c0-0.1-0.1-0.3-0.1-0.4
		c0,0,0,0,0-0.1c0.1,0,0.3,0,0.3,0c0.4,0,0.8,0,1.2,0.1c0.6,0.1,0.6-1,0-1c-0.8-0.1-2.3-0.3-2.6,0.7C11.7,16.5,11.9,17,11.9,17.4z"
		/>
	<path class="st2" d="M15.9,16.5c0.6,0,0.6-1,0-1C15.2,15.5,15.2,16.5,15.9,16.5z"/>
</g>
</svg>
