<?xml version="1.0" encoding="utf-8"?>
<!-- Generator: Adobe Illustrator 23.1.0, SVG Export Plug-In . SVG Version: 6.00 Build 0)  -->
<svg version="1.1" id="Слой_1" xmlns="http://www.w3.org/2000/svg" xmlns:xlink="http://www.w3.org/1999/xlink" x="0px" y="0px"
	 viewBox="0 0 50 50" style="enable-background:new 0 0 50 50;" xml:space="preserve">
<style type="text/css">
	.st0{display:none;}
	.st1{display:inline;}
	.st2{display:inline;fill:#CCCCCC;}
	.st3{display:inline;fill:#FFFFFF;}
	.st4{fill:#D24A44;}
	.st5{fill:#FFFFFF;}
</style>
<g class="st0">
	<rect x="0" class="st1" width="50" height="50"/>
</g>
<g>
	<g class="st0">
		<polygon class="st2" points="0.7,15.4 3.7,14.8 8.1,15 12.1,15.7 16.2,15.4 18.2,15 16.8,23.5 15.9,28.3 15.9,30.4 15.1,32.1 
			13.3,32.5 7.7,32.5 4.5,32.5 3.1,31.7 2.2,27.1 		"/>
		<path class="st3" d="M9,22.2c0.4-0.5,1.1-1.3,1.1-2c0-0.8-0.8-1.7-1.4-2.3c-1.3-1.3-3.6-0.6-4.8,0.5c-0.6,0.6-1.1,1.2-1,2
			c0.1,0.8,0.7,2.3,1.3,2.8c0.6,0.4,1.9,0.3,2.6,0.3C7.8,23.6,8.4,23,9,22.2z M7.4,18.1c-0.3,0.3-0.5,0.6-0.8,0.9
			c-0.3,0.3-0.6,0.6-0.9,0.9c-0.2,0-0.4,0-0.7,0c-0.5,0-0.9,0-1.4,0.1C3.8,19.7,4,19.3,4.3,19C5.1,18.3,6.4,17.8,7.4,18.1z
			 M5.6,22.9c-1.1-0.2-1.9-1.1-2-2.1c0.6-0.1,1.9-0.4,2.3,0.1c0.5,0.5,0.7,1.4,1.1,1.9C6.6,22.9,6.2,23,5.6,22.9z M7.7,22.5
			C7.7,22.5,7.7,22.5,7.7,22.5c-0.5-0.7-0.7-1.6-1.3-2.2c0.2-0.3,0.5-0.5,0.7-0.8c0.3-0.4,0.6-0.8,0.9-1.1c0,0,0,0,0,0
			c0,0,0.1,0,0.1,0.1c0.4,0.3,1.1,1.2,1.2,1.7c0.1,0.5-0.4,1-0.6,1.3C8.4,21.9,8.1,22.2,7.7,22.5z"/>
		<path class="st3" d="M12.9,25.4c-1.3-0.6-3.6-0.7-4.6,0.6c-0.5,0.7-1,1.9-0.9,2.7c0.1,0.8,1,1.3,1.6,1.8c0.8,0.5,1.5,1,2.5,0.7
			c0.6-0.2,1.9-0.5,2.4-1.1c0.5-0.6,0.6-2.4,0.4-3.1C14.2,26.2,13.6,25.8,12.9,25.4z M12.5,26c0.4,0.2,0.7,0.5,0.9,0.9
			c-0.4,0.1-0.8,0.2-1.3,0.3c-0.3,0.1-0.5,0.1-0.7,0.2c-0.3-0.2-0.7-0.4-1.1-0.6c-0.3-0.2-0.7-0.5-1-0.7
			C10.2,25.5,11.6,25.6,12.5,26z M8.1,28.6c-0.1-0.5,0.3-1.6,0.6-2c0,0,0,0,0,0c0.4,0.3,0.8,0.5,1.2,0.8c0.3,0.2,0.6,0.3,1,0.5
			c-0.3,0.7-0.3,1.6-0.5,2.4c0,0,0,0,0,0c-0.3-0.1-0.7-0.2-1-0.5C9.1,29.7,8.2,29.1,8.1,28.6z M12.9,30c-0.6,0.4-1.2,0.5-1.8,0.5
			c0.2-0.7,0.2-1.5,0.5-2.2c0.2-0.4,0.6-0.4,0.9-0.5c0.4-0.1,0.8-0.2,1.2-0.3C13.9,28.4,13.7,29.4,12.9,30z"/>
		<path class="st3" d="M12.1,19.7c0.7,0.1,1.3-0.4,1.4-1c0.1-0.7-0.3-1.1-0.8-1.3c-0.1,0-0.1,0-0.2,0c-0.7,0-1.3,0.3-1.5,1
			C10.8,19,11.4,19.6,12.1,19.7z M11.6,18.4c0.1-0.3,0.5-0.4,0.8-0.3c0.2,0.1,0.4,0.3,0.3,0.5c-0.1,0.3-0.3,0.5-0.6,0.5
			C11.9,19,11.5,18.7,11.6,18.4z"/>
		<path class="st3" d="M14.5,21.2c-0.1,0-0.1,0-0.2,0c-0.7,0-1.3,0.3-1.5,1c-0.1,0.7,0.5,1.3,1.1,1.4c0.7,0.1,1.3-0.4,1.4-1
			C15.5,21.8,15.1,21.4,14.5,21.2z M14.7,22.4c-0.1,0.3-0.3,0.5-0.6,0.5c-0.3,0-0.6-0.3-0.5-0.6c0.1-0.3,0.5-0.4,0.8-0.3
			C14.6,21.9,14.7,22.1,14.7,22.4z"/>
		<path class="st3" d="M5.5,26.2c-0.1,0-0.1,0-0.2,0c-0.7,0-1.3,0.3-1.5,1c-0.1,0.7,0.5,1.3,1.1,1.4c0.7,0.1,1.3-0.4,1.4-1
			C6.4,26.9,6.1,26.5,5.5,26.2z M5.6,27.5C5.6,27.7,5.3,28,5,27.9c-0.3,0-0.6-0.3-0.5-0.6c0.1-0.3,0.5-0.4,0.8-0.3
			C5.5,27,5.7,27.2,5.6,27.5z"/>
		<path class="st3" d="M18.5,8.8c0.1,0.1,0.4,0.1,0.5,0c0.4-0.5,0.8-1,1.2-1.5c0.1-0.1,0-0.3-0.1-0.4c-1.1-1.3-4.5-6.1-6-2.5
			c-0.5,1.2-0.7,2.7-1.1,3.9C13,8.8,12.8,9.4,12.7,10C8.5,10,4.4,9.9,0.2,9.9c-0.1,0-0.1,0-0.2,0c-0.1,0-0.2,0.1-0.2,0.3
			c0.5,5.2,1.1,10.4,1.9,15.6c0.2,1.4,0.5,2.7,0.7,4.1c0.1,0.7,0.1,1.9,0.6,2.5c0.4,0.4,1.1,0.3,1.6,0.4c1.4,0,2.8,0.1,4.2,0.1
			c1.2,0,2.4,0,3.7,0c0.7,0,1.8,0.2,2.5-0.2c1.4-0.7,1.2-3.4,1.4-4.7c0.9-5.9,1.9-11.7,2.8-17.6c0-0.2-0.1-0.5-0.3-0.4
			c-1.2,0-2.3,0.1-3.5,0.1c0.3-1.1,0.6-2.3,1-3.4C17,7.3,17.8,8,18.5,8.8z M12.1,15.3c0.3-1.6,0.7-3.1,1.1-4.7c0.4,0,0.8,0,1.3,0
			c-0.4,1.6-0.8,3.2-1.1,4.7C12.9,15.4,12.5,15.4,12.1,15.3z M11.4,15.3c-0.9-0.1-1.8-0.3-2.8-0.4C6,14.4,3.6,14.3,1,15
			c-0.2-1.5-0.3-3-0.5-4.5c4,0,7.9,0.1,11.9,0.1C12.1,12.2,11.7,13.7,11.4,15.3z M16.3,24.3c-0.2,1.1-0.4,2.3-0.5,3.4
			c-0.2,1-0.2,2.4-0.5,3.4c-0.5,1.2-1.6,1-2.7,1c-1.1,0-2.2,0-3.4,0c-1.1,0-2.1,0-3.2,0c-0.5,0-1.2,0.1-1.6-0.1
			c-1-0.3-0.9-0.6-1-1.4c-0.4-2.2-0.8-4.4-1.1-6.6c-0.4-2.8-0.8-5.6-1.1-8.3c3.5-1,6.4-0.2,9.9,0.3c2.3,0.3,4.6,0.2,6.7-0.6
			C17.2,18.3,16.7,21.3,16.3,24.3z M18.4,10.6c-0.2,1.3-0.4,2.6-0.6,3.9c-1.2,0.6-2.5,0.8-3.7,0.8c0.4-1.6,0.7-3.1,1.1-4.7
			C16.3,10.7,17.3,10.6,18.4,10.6z M14.6,10c-0.4,0-0.8,0-1.3,0c0.1-0.4,0.2-0.9,0.3-1.3c0.3-1.3,0.5-3.1,1.1-4.2
			c0.9-1.5,1.9-0.2,2.7,0.6c0.4,0.4,1.9,1.7,1.8,2.2c0,0.3-0.6,0.6-0.7,0.8c0,0,0-0.1-0.1-0.1c-0.5-0.8-1.5-1.5-2.2-2.2
			c-0.2-0.2-0.5-0.1-0.6,0.2C15.4,7.2,15,8.6,14.6,10z"/>
		<path class="st3" d="M1.4,12.8c0.1,0.4,0.2,0.9,0.2,1.3c0.1,0.4,0.7,0.3,0.7-0.2c-0.1-0.5-0.2-1-0.3-1.4c0-0.1-0.1-0.2-0.1-0.3
			c0,0,0,0,0,0c0.1,0,0.1,0,0.2,0c0.3,0,0.5,0,0.8,0c0.4,0.1,0.4-0.6,0-0.7c-0.5-0.1-1.5-0.2-1.7,0.5C1.2,12.2,1.3,12.5,1.4,12.8z"
			/>
		<path class="st3" d="M4,12.2c0.5,0,0.5-0.7,0-0.7C3.6,11.5,3.6,12.2,4,12.2z"/>
	</g>
	<g>
		<path class="st4" d="M19.6,17.2c0,0-1.4,2.8,0.5,3.6s4,0.3,3.9-1.2C23.9,18.1,23.7,15.5,19.6,17.2z"/>
		<path class="st5" d="M35.8,9.8c-2.2,0-4.4-0.1-6.6-0.1c0.4-0.6,0.9-1.1,1.3-1.7c0.4-0.5-0.4-0.9-0.8-0.5c-0.5,0.7-1.1,1.4-1.7,2.1
			C19.7,9.7,11.3,9.8,3,9.8c-0.1,0-0.1,0-0.2,0C2.6,9.9,2.6,10,2.5,10.2c0,0.1,0,0.2,0.1,0.4c0,0,0,0,0,0.1c0,0,0,0,0,0
			c3,3.2,6.1,6.1,9.2,9.2c1.3,1.3,2.6,2.6,4,3.9c0.5,0.5,1.4,1.7,2.2,2.4c0.1,3.2,0.1,6.5,0,9.7c-1.5,0-8.3,0-8,2.8
			c0.3,2.2,6.2,2.2,7.7,2.2c2.4,0.1,4.7,0,7.1-0.4c0.9-0.2,3.6-0.6,3.9-1.8c0.7-2.7-6.3-2.8-8-2.9c0.1-3.2,0.1-6.4,0-9.5
			c0.3-0.3,0.6-0.6,0.8-0.8c1.7-1.5,3.3-3.1,4.8-4.7c3.2-3.4,6.4-6.9,9.8-10.1C36.5,10.3,36.2,9.8,35.8,9.8z M4,10.7
			c7.8,0,15.5-0.1,23.3-0.1c-0.8,1-1.5,1.9-2.3,2.9c-6.1,0-12.3-0.4-18.4-0.1C5.7,12.5,4.9,11.6,4,10.7z M19.8,37.8
			c0,0.6,0.9,0.6,0.9,0c0-0.4,0-0.7,0-1.1c1.6,0,3.1,0.1,4.6,0.5c0.4,0.1,1.6,0.2,1.8,0.6c0.7,1-0.8,1.3-1.4,1.5
			c-2.5,0.8-5.5,0.8-8.1,0.6c-1.7-0.1-4.4,0-5.9-0.9c-1.6-0.9,0.5-1.6,1.5-1.8c1.5-0.3,3.1-0.4,4.6-0.5c0,0.3,0,0.7,0,1
			c0,0.6,0.9,0.6,0.9,0c0.1-3.7,0.1-7.4,0-11.1c0.1,0.1,0.3,0.1,0.4,0.1c0.1,0,0.3,0,0.4-0.1C19.9,30.4,19.9,34.1,19.8,37.8z
			 M23.2,22.6c-0.6,0.5-1.1,1.1-1.7,1.6c-1.1,1-1.8,1.5-3.2,0.6c-1.2-0.8-2.3-2.3-3.3-3.3c-1.1-1.1-2.2-2.2-3.3-3.3
			c-1.4-1.3-2.8-2.6-4.2-4c5.6-0.2,11.2,0.1,16.8,0.1c-0.5,0.6-1,1.3-1.5,1.9c-1.4-0.7-3.4,0-4,1.4c-0.5,1.1-0.1,2.4,0.8,3.2
			c-0.4,0.6-0.9,1.1-1.3,1.7c-0.3,0.5,0.5,1,0.8,0.5c0.4-0.6,0.8-1.1,1.2-1.7c0.1,0,0.1,0.1,0.2,0.1c1.3,0.5,2.9,0,3.7-1.2
			c0.8-1.2,0.6-2.8-0.5-3.6c0.6-0.8,1.2-1.6,1.8-2.4c1.9,0,3.8,0,5.8-0.2c-1.4,1.4-2.7,2.8-4,4.3C25.9,19.9,24.5,21.3,23.2,22.6z
			 M20.7,20.6c-0.8-0.4-1.5-1.4-1.2-2.3c0.3-1,1.7-1.6,2.7-1.2c0,0.1-0.1,0.1-0.1,0.2c-0.4,0.5,0.5,0.9,0.8,0.5
			c0.1-0.1,0.1-0.2,0.2-0.2C24.8,18.5,22.7,21.7,20.7,20.6z M32.1,13.3c-2,0.1-4,0.2-6,0.2c0.8-0.9,1.5-1.9,2.3-2.8
			c2.1,0,4.2,0,6.2,0.1C33.8,11.6,33,12.4,32.1,13.3z"/>
		<path class="st5" d="M11.2,15.5c-0.4-0.4-1.1,0.2-0.7,0.7c0.7,0.7,1.4,1.4,2.1,2.2c0.4,0.5,1-0.2,0.7-0.7
			C12.6,16.9,11.9,16.2,11.2,15.5z"/>
		<path class="st5" d="M14,18.6c-0.6,0-0.6,0.9,0,0.9C14.6,19.5,14.6,18.6,14,18.6z"/>
	</g>
</g>
<g>
	<path class="st5" d="M44.4,39.2l2.3,0.7v1l-7.2-2.4v-1.1l7.2-2.4v1l-2.3,0.8V39.2z M43.6,36.9l-2.1,0.7c-0.5,0.2-0.9,0.3-1.3,0.4v0
		c0.4,0.1,0.9,0.2,1.3,0.4l2.1,0.7V36.9z"/>
	<path class="st5" d="M39.1,34V33h7.5V34H39.1z"/>
	<path class="st5" d="M46.4,27.8c0.1,0.2,0.3,0.8,0.3,1.5c0,1.6-1.1,2.6-2.6,2.6c-1.6,0-2.7-1.1-2.7-2.8c0-0.6,0.1-1,0.3-1.3
		l0.7,0.2c-0.1,0.2-0.2,0.6-0.2,1.1c0,1.2,0.9,1.8,1.9,1.8c1.2,0,1.9-0.8,1.9-1.8c0-0.5-0.1-0.9-0.3-1.1L46.4,27.8z"/>
	<path class="st5" d="M44,22.1c1.9,0,2.7,1.3,2.7,2.6c0,1.4-1,2.5-2.6,2.5c-1.7,0-2.7-1.1-2.7-2.5C41.4,23.1,42.4,22.1,44,22.1z
		 M44,26.2c1.1,0,2-0.6,2-1.6c0-0.9-0.8-1.6-2-1.6c-0.9,0-2,0.4-2,1.5C42.1,25.7,43.1,26.2,44,26.2z"/>
	<path class="st5" d="M39.1,20.9V20h3.2v0c-0.3-0.1-0.5-0.4-0.7-0.7c-0.2-0.3-0.3-0.6-0.3-1c0-0.7,0.4-1.8,2.2-1.8h3.1v0.9h-3
		c-0.8,0-1.5,0.3-1.5,1.2c0,0.6,0.4,1.1,0.9,1.3c0.1,0.1,0.3,0.1,0.4,0.1h3.1v0.9H39.1z"/>
	<path class="st5" d="M44,10.4c1.9,0,2.7,1.3,2.7,2.6c0,1.4-1,2.5-2.6,2.5c-1.7,0-2.7-1.1-2.7-2.5C41.4,11.4,42.4,10.4,44,10.4z
		 M44,14.4c1.1,0,2-0.6,2-1.6c0-0.9-0.8-1.6-2-1.6c-0.9,0-2,0.4-2,1.5C42.1,14,43.1,14.4,44,14.4z"/>
	<path class="st5" d="M39.1,9.2V8.2h7.5v0.9H39.1z"/>
</g>
</svg>
