<?xml version="1.0" encoding="utf-8"?>
<!-- Generator: Adobe Illustrator 23.1.0, SVG Export Plug-In . SVG Version: 6.00 Build 0)  -->
<svg version="1.1" id="Слой_1" xmlns="http://www.w3.org/2000/svg" xmlns:xlink="http://www.w3.org/1999/xlink" x="0px" y="0px"
	 viewBox="0 0 50 50" style="enable-background:new 0 0 50 50;" xml:space="preserve">
<style type="text/css">
	.st0{display:none;}
	.st1{display:inline;}
	.st2{display:inline;fill:#CCCCCC;}
	.st3{display:inline;fill:#FFFFFF;}
	.st4{fill:#D24A44;}
	.st5{fill:#FFFFFF;}
	.st6{font-family:'ArialMT';}
	.st7{font-size:8.2794px;}
</style>
<g class="st0">
	<rect x="0.2" class="st1" width="50" height="50"/>
</g>
<g>
	<g class="st0">
		<polygon class="st2" points="7.1,20.7 10.2,20 14.8,20.2 19,21 23.3,20.7 25.3,20.2 23.9,29.2 23,34.3 23,36.4 22,38.3 20.3,38.8 
			14.4,38.8 11.1,38.8 9.6,37.9 8.7,33 		"/>
		<path class="st3" d="M15.8,27.9c0.4-0.5,1.1-1.4,1.1-2.1c0-0.8-0.8-1.8-1.5-2.4c-1.4-1.4-3.8-0.6-5,0.5c-0.6,0.6-1.1,1.3-1,2.1
			c0.1,0.8,0.7,2.4,1.4,3c0.6,0.4,2,0.3,2.7,0.3C14.5,29.3,15.2,28.7,15.8,27.9z M14.1,23.5c-0.3,0.3-0.5,0.6-0.8,1
			c-0.3,0.3-0.6,0.6-0.9,1c-0.2,0-0.4,0-0.7,0c-0.5,0-0.9,0-1.5,0.1c0.1-0.4,0.3-0.7,0.6-1.2C11.7,23.7,13.1,23.2,14.1,23.5z
			 M12.2,28.6c-1.1-0.2-2-1.2-2.1-2.2c0.6-0.1,2-0.4,2.4,0.1c0.5,0.5,0.7,1.5,1.1,2C13.3,28.6,12.9,28.7,12.2,28.6z M14.4,28.2
			C14.4,28.2,14.4,28.1,14.4,28.2c-0.5-0.8-0.7-1.7-1.3-2.3c0.2-0.3,0.5-0.5,0.7-0.8c0.3-0.4,0.6-0.8,0.9-1.2l0,0c0,0,0.1,0,0.1,0.1
			c0.4,0.3,1.1,1.3,1.3,1.8c0.1,0.5-0.4,1.1-0.6,1.4C15.2,27.5,14.7,27.9,14.4,28.2z"/>
		<path class="st3" d="M19.9,31.2c-1.4-0.6-3.8-0.7-4.8,0.6c-0.5,0.7-1,2-0.9,2.9c0.1,0.8,1,1.4,1.7,1.9c0.8,0.5,1.6,1.1,2.6,0.7
			c0.6-0.2,2-0.5,2.5-1.2c0.5-0.6,0.6-2.5,0.4-3.3C21.2,32.1,20.6,31.7,19.9,31.2z M19.4,31.9c0.4,0.2,0.7,0.5,0.9,1
			c-0.4,0.1-0.8,0.2-1.4,0.3c-0.3,0.1-0.5,0.1-0.7,0.2c-0.3-0.2-0.7-0.4-1.1-0.6c-0.3-0.2-0.7-0.5-1-0.7
			C17,31.4,18.5,31.5,19.4,31.9z M14.8,34.6c-0.1-0.5,0.3-1.7,0.6-2.1l0,0c0.4,0.3,0.8,0.5,1.3,0.8c0.3,0.2,0.6,0.3,1,0.5
			c-0.3,0.7-0.3,1.7-0.5,2.5l0,0c-0.3-0.1-0.7-0.2-1-0.5C15.9,35.7,14.9,35.2,14.8,34.6z M19.7,36.1c-0.6,0.4-1.3,0.5-1.9,0.5
			c0.2-0.7,0.2-1.6,0.5-2.3c0.2-0.4,0.6-0.4,0.9-0.5c0.4-0.1,0.8-0.2,1.3-0.3C20.9,34.4,20.7,35.5,19.7,36.1z"/>
		<path class="st3" d="M19,25.2c0.7,0.1,1.4-0.4,1.5-1.1s-0.3-1.2-0.8-1.4c-0.1,0-0.1,0-0.2,0c-0.7,0-1.4,0.3-1.6,1.1
			C17.7,24.5,18.3,25.1,19,25.2z M18.5,23.8c0.1-0.3,0.5-0.4,0.8-0.3c0.2,0.1,0.4,0.3,0.3,0.5c-0.1,0.3-0.3,0.5-0.6,0.5
			C18.8,24.5,18.4,24.2,18.5,23.8z"/>
		<path class="st3" d="M21.5,26.7c-0.1,0-0.1,0-0.2,0c-0.7,0-1.4,0.3-1.6,1.1c-0.1,0.7,0.5,1.4,1.1,1.5c0.7,0.1,1.4-0.4,1.5-1.1
			C22.6,27.4,22.2,27,21.5,26.7z M21.7,28.1c-0.1,0.3-0.3,0.5-0.6,0.5c-0.3,0-0.6-0.3-0.5-0.6c0.1-0.3,0.5-0.4,0.8-0.3
			C21.6,27.5,21.7,27.8,21.7,28.1z"/>
		<path class="st3" d="M12.1,32.1c-0.1,0-0.1,0-0.2,0c-0.7,0-1.4,0.3-1.6,1.1c-0.1,0.7,0.6,1.3,1.2,1.4c0.7,0.1,1.4-0.4,1.5-1.1
			C13.1,32.8,12.7,32.4,12.1,32.1z M12.2,33.4c-0.1,0.3-0.3,0.5-0.6,0.5s-0.6-0.3-0.5-0.6c0.1-0.4,0.5-0.5,0.8-0.4
			C12.1,32.9,12.3,33.1,12.2,33.4z"/>
		<path class="st3" d="M25.7,13.6c0.1,0.1,0.4,0.1,0.5,0c0.4-0.5,0.8-1.1,1.3-1.6c0.1-0.1,0-0.3-0.1-0.4c-1.1-1.4-4.7-6.5-6.3-2.6
			c-0.5,1.3-0.7,2.9-1.1,4.1c-0.2,0.6-0.3,1.3-0.4,1.8c-4.4,0-8.7-0.2-13.1-0.2c-0.1,0-0.1,0-0.2,0S6.1,14.8,6.1,15
			c0.5,5.5,1.1,11,2,16.5c0.2,1.5,0.5,2.9,0.7,4.3c0.1,0.8,0.1,2.1,0.6,2.7c0.4,0.4,1.1,0.3,1.7,0.4c1.5,0,2.9,0.1,4.4,0.1
			c1.3,0,2.5,0,3.9,0c0.7,0,1.9,0.2,2.6-0.2c1.5-0.7,1.3-3.6,1.5-5c0.9-6.2,2-12.4,2.9-18.6c0-0.2-0.1-0.5-0.3-0.4
			c-1.3,0-2.4,0.1-3.7,0.1c0.3-1.2,0.6-2.4,1-3.6C24.1,12.1,24.9,12.8,25.7,13.6z M19,20.6c0.3-1.7,0.7-3.3,1.1-5c0.4,0,0.8,0,1.4,0
			c-0.4,1.7-0.8,3.4-1.1,5C19.9,20.7,19.4,20.7,19,20.6z M18.3,20.6c-0.9-0.1-1.9-0.3-2.9-0.4c-2.7-0.5-5.2-0.5-7.9,0.2
			c-0.2-1.6-0.3-3.2-0.5-4.8c4.2,0,8.2,0.1,12.4,0.1C19,17.3,18.6,18.9,18.3,20.6z M23.3,30.1c-0.2,1.2-0.4,2.4-0.5,3.6
			c-0.2,1.1-0.2,2.5-0.5,3.6c-0.5,1.3-1.7,1.1-2.8,1.1s-2.3,0-3.5,0c-1.1,0-2.2,0-3.3,0c-0.5,0-1.3,0.1-1.7-0.1
			c-1-0.3-0.9-0.6-1-1.5c-0.4-2.3-0.8-4.7-1.1-7c-0.4-3-0.8-5.9-1.1-8.8c3.4-1.1,6.4-0.2,10.1,0.3c2.4,0.3,4.8,0.2,7-0.6
			C24.3,23.7,23.8,26.9,23.3,30.1z M25.6,15.6c-0.2,1.4-0.4,2.7-0.6,4.1c-1.3,0.6-2.6,0.8-3.9,0.8c0.4-1.7,0.7-3.3,1.1-5
			C23.4,15.6,24.4,15.6,25.6,15.6z M21.6,15c-0.4,0-0.8,0-1.4,0c0.1-0.4,0.2-1,0.3-1.4c0.3-1.4,0.5-3.3,1.1-4.4
			c0.9-1.6,2-0.2,2.8,0.6c0.5,0.3,2.1,1.7,2.1,2.2c0,0.3-0.6,0.6-0.7,0.8c0,0,0-0.1-0.1-0.1c-0.5-0.8-1.6-1.6-2.3-2.3
			c-0.2-0.2-0.5-0.1-0.6,0.2C22.5,12,22,13.5,21.6,15z"/>
		<path class="st3" d="M7.8,17.9c0.1,0.4,0.2,1,0.2,1.4c0.1,0.4,0.7,0.3,0.7-0.2c-0.1-0.5-0.2-1.1-0.3-1.5c0-0.1-0.1-0.2-0.1-0.3
			l0,0c0.1,0,0.1,0,0.2,0c0.3,0,0.5,0,0.8,0c0.4,0.1,0.4-0.6,0-0.7c-0.5-0.1-1.6-0.3-1.8,0.4C7.6,17.3,7.7,17.6,7.8,17.9z"/>
		<path class="st3" d="M10.6,17.3c0.5,0,0.5-0.7,0-0.7C10,16.5,10,17.3,10.6,17.3z"/>
	</g>
	<g>
		<path class="st4" d="M26.8,22.5c0,0-1.5,3,0.5,3.8s4.2,0.3,4.1-1.3C31.3,23.4,31.1,20.8,26.8,22.5z"/>
		<path class="st5" d="M43.8,14.7c-2.3,0-4.6-0.1-6.9-0.1c0.4-0.6,0.9-1.2,1.4-1.8c0.4-0.5-0.4-1-0.8-0.5c-0.5,0.7-1.1,1.5-1.8,2.2
			c-8.8,0-17.4,0.1-26.2,0.1c-0.1,0-0.1,0-0.2,0c-0.1,0.2-0.2,0.3-0.2,0.5c0,0.1,0,0.2,0.1,0.4c0,0,0,0,0,0.1l0,0
			c3.1,3.4,6.4,6.5,9.6,9.7c1.4,1.4,2.7,2.7,4.2,4.1c0.5,0.5,1.5,1.8,2.3,2.5c0.1,3.4,0.1,6.9,0,10.3c-1.6,0-8.7,0-8.4,3
			c0.3,2.3,6.5,2.3,8,2.3c2.5,0.1,4.9,0,7.4-0.4c0.9-0.2,3.8-0.6,4.1-1.9c0.7-2.9-6.6-3-8.4-3.1c0.1-3.4,0.1-6.8,0-10
			c0.3-0.3,0.6-0.6,0.8-0.8c1.8-1.6,3.4-3.3,5-5c3.3-3.6,6.7-7.3,10.2-10.7C44.5,15.3,44.2,14.7,43.8,14.7z M10.6,15.7
			c8.1,0,16.2-0.1,24.3-0.1c-0.8,1.1-1.6,2-2.4,3.1c-6.4,0-12.8-0.4-19.2-0.1C12.3,17.6,11.5,16.6,10.6,15.7z M27.1,44.3
			c0,0.6,0.9,0.6,0.9,0c0-0.4,0-0.7,0-1.2c1.7,0,3.2,0.1,4.8,0.5c0.4,0.1,1.7,0.2,1.9,0.6c0.7,1.1-0.8,1.4-1.5,1.6
			c-2.6,0.8-5.7,0.8-8.5,0.6c-1.8-0.1-4.6,0-6.2-1c-1.7-1,0.5-1.7,1.6-1.9c1.6-0.3,3.2-0.4,4.8-0.5c0,0.3,0,0.7,0,1.1
			c0,0.6,0.9,0.6,0.9,0c0.1-3.9,0.1-7.8,0-11.7c0.1,0.1,0.3,0.1,0.4,0.1s0.3,0,0.4-0.1C27.2,36.5,27.2,40.4,27.1,44.3z M30.6,28.3
			c-0.6,0.5-1.1,1.2-1.8,1.7c-1.1,1.1-1.9,1.6-3.3,0.6c-1.3-0.8-2.4-2.4-3.4-3.5c-1.1-1.2-2.3-2.3-3.4-3.5c-1.5-1.4-2.9-2.7-4.4-4.2
			c5.8-0.2,11.7,0.1,17.5,0.1c-0.5,0.6-1,1.4-1.6,2c-1.5-0.7-3.5,0-4.2,1.5c-0.5,1.2-0.1,2.5,0.8,3.4c-0.4,0.6-0.9,1.2-1.4,1.8
			c-0.3,0.5,0.5,1.1,0.8,0.5c0.4-0.6,0.8-1.2,1.3-1.8c0.1,0,0.1,0.1,0.2,0.1c1.4,0.5,3,0,3.9-1.3c0.8-1.3,0.6-3-0.5-3.8
			c0.6-0.8,1.3-1.7,1.9-2.5c2,0,4,0,6.1-0.2c-1.5,1.5-2.8,3-4.2,4.5C33.3,25.4,32,26.9,30.6,28.3z M28,26.2
			c-0.8-0.4-1.6-1.5-1.3-2.4c0.3-1.1,1.8-1.7,2.8-1.3c0,0.1-0.1,0.1-0.1,0.2c-0.4,0.5,0.5,1,0.8,0.5c0.1-0.1,0.1-0.2,0.2-0.2
			C32.3,23.9,30.1,27.3,28,26.2z M39.9,18.4c-2.1,0.1-4.2,0.2-6.3,0.2c0.8-1,1.6-2,2.4-3c2.2,0,4.4,0,6.5,0.1
			C41.7,16.5,40.8,17.5,39.9,18.4z"/>
		<path class="st5" d="M18.1,20.8c-0.4-0.4-1.1,0.2-0.7,0.7c0.7,0.7,1.5,1.5,2.2,2.3c0.4,0.5,1-0.2,0.7-0.7
			C19.5,22.3,18.8,21.5,18.1,20.8z"/>
		<path class="st5" d="M21,24.1c-0.6,0-0.6,1,0,1C21.6,25,21.6,24.1,21,24.1z"/>
	</g>
</g>
<text transform="matrix(1 0 0 1 4.098 9.5718)" class="st5 st6 st7">AlcoholFree</text>
</svg>
