<?xml version="1.0" encoding="utf-8"?>
<!-- Generator: Adobe Illustrator 23.1.0, SVG Export Plug-In . SVG Version: 6.00 Build 0)  -->
<svg version="1.1" id="Слой_1" xmlns="http://www.w3.org/2000/svg" xmlns:xlink="http://www.w3.org/1999/xlink" x="0px" y="0px"
	 viewBox="0 0 50 50" style="enable-background:new 0 0 50 50;" xml:space="preserve">
<style type="text/css">
	.st0{display:none;}
	.st1{display:inline;}
	.st2{display:inline;fill:#CCCCCC;}
	.st3{display:inline;fill:#FFFFFF;}
	.st4{fill:#D24A44;}
	.st5{fill:#FFFFFF;}
</style>
<g class="st0">
	<rect class="st1" width="50" height="50"/>
</g>
<g>
	<g class="st0">
		<polygon class="st2" points="7.7,20.6 10.7,20 15.1,20.2 19.1,20.9 23.2,20.6 25.2,20.2 23.8,28.7 22.9,33.5 22.9,35.6 22.1,37.3 
			20.3,37.7 14.7,37.7 11.5,37.7 10.1,36.9 9.2,32.3 		"/>
		<path class="st3" d="M16,27.4c0.4-0.5,1.1-1.3,1.1-2c0-0.8-0.8-1.7-1.4-2.3c-1.3-1.3-3.6-0.6-4.8,0.5c-0.6,0.6-1.1,1.2-1,2
			c0.1,0.8,0.7,2.3,1.3,2.8c0.6,0.4,1.9,0.3,2.6,0.3C14.8,28.8,15.4,28.2,16,27.4z M14.4,23.3c-0.3,0.3-0.5,0.6-0.8,0.9
			s-0.6,0.6-0.9,0.9c-0.2,0-0.4,0-0.7,0c-0.5,0-0.9,0-1.4,0.1c0.2-0.3,0.4-0.7,0.7-1C12.1,23.5,13.4,23,14.4,23.3z M12.6,28.1
			c-1.1-0.2-1.9-1.1-2-2.1c0.6-0.1,1.9-0.4,2.3,0.1c0.5,0.5,0.7,1.4,1.1,1.9C13.6,28.1,13.2,28.2,12.6,28.1z M14.7,27.7L14.7,27.7
			c-0.5-0.7-0.7-1.6-1.3-2.2c0.2-0.3,0.5-0.5,0.7-0.8c0.3-0.4,0.6-0.8,0.9-1.1l0,0c0,0,0.1,0,0.1,0.1c0.4,0.3,1.1,1.2,1.2,1.7
			c0.1,0.5-0.4,1-0.6,1.3C15.4,27.1,15.1,27.4,14.7,27.7z"/>
		<path class="st3" d="M19.9,30.6c-1.3-0.6-3.6-0.7-4.6,0.6c-0.5,0.7-1,1.9-0.9,2.7c0.1,0.8,1,1.3,1.6,1.8c0.8,0.5,1.5,1,2.5,0.7
			c0.6-0.2,1.9-0.5,2.4-1.1c0.5-0.6,0.6-2.4,0.4-3.1C21.2,31.4,20.6,31,19.9,30.6z M19.5,31.2c0.4,0.2,0.7,0.5,0.9,0.9
			c-0.4,0.1-0.8,0.2-1.3,0.3c-0.3,0.1-0.5,0.1-0.7,0.2c-0.3-0.2-0.7-0.4-1.1-0.6c-0.3-0.2-0.7-0.5-1-0.7
			C17.2,30.7,18.6,30.8,19.5,31.2z M15.1,33.8c-0.1-0.5,0.3-1.6,0.6-2l0,0c0.4,0.3,0.8,0.5,1.2,0.8c0.3,0.2,0.6,0.3,1,0.5
			c-0.3,0.7-0.3,1.6-0.5,2.4l0,0c-0.3-0.1-0.7-0.2-1-0.5C16.1,34.9,15.2,34.3,15.1,33.8z M19.9,35.2c-0.6,0.4-1.2,0.5-1.8,0.5
			c0.2-0.7,0.2-1.5,0.5-2.2c0.2-0.4,0.6-0.4,0.9-0.5c0.4-0.1,0.8-0.2,1.2-0.3C20.9,33.6,20.7,34.6,19.9,35.2z"/>
		<path class="st3" d="M19.1,24.9c0.7,0.1,1.3-0.4,1.4-1c0.1-0.7-0.3-1.1-0.8-1.3c-0.1,0-0.1,0-0.2,0c-0.7,0-1.3,0.3-1.5,1
			C17.8,24.2,18.4,24.8,19.1,24.9z M18.6,23.6c0.1-0.3,0.5-0.4,0.8-0.3c0.2,0.1,0.4,0.3,0.3,0.5c-0.1,0.3-0.3,0.5-0.6,0.5
			C18.9,24.2,18.5,23.9,18.6,23.6z"/>
		<path class="st3" d="M21.5,26.4c-0.1,0-0.1,0-0.2,0c-0.7,0-1.3,0.3-1.5,1c-0.1,0.7,0.5,1.3,1.1,1.4c0.7,0.1,1.3-0.4,1.4-1
			C22.5,27,22.1,26.6,21.5,26.4z M21.7,27.6c-0.1,0.3-0.3,0.5-0.6,0.5c-0.3,0-0.6-0.3-0.5-0.6c0.1-0.3,0.5-0.4,0.8-0.3
			C21.6,27.1,21.7,27.3,21.7,27.6z"/>
		<path class="st3" d="M12.5,31.4c-0.1,0-0.1,0-0.2,0c-0.7,0-1.3,0.3-1.5,1c-0.1,0.7,0.5,1.3,1.1,1.4c0.7,0.1,1.3-0.4,1.4-1
			C13.4,32.1,13.1,31.7,12.5,31.4z M12.6,32.7c0,0.2-0.3,0.5-0.6,0.4c-0.3,0-0.6-0.3-0.5-0.6c0.1-0.3,0.5-0.4,0.8-0.3
			C12.5,32.2,12.7,32.4,12.6,32.7z"/>
		<path class="st3" d="M25.5,14c0.1,0.1,0.4,0.1,0.5,0c0.4-0.5,0.8-1,1.2-1.5c0.1-0.1,0-0.3-0.1-0.4c-1.1-1.3-4.5-6.1-6-2.5
			c-0.5,1.2-0.7,2.7-1.1,3.9c0,0.5-0.2,1.1-0.3,1.7c-4.2,0-8.3-0.1-12.5-0.1c-0.1,0-0.1,0-0.2,0c-0.1,0-0.2,0.1-0.2,0.3
			C7.3,20.6,7.9,25.8,8.7,31c0.2,1.4,0.5,2.7,0.7,4.1c0.1,0.7,0.1,1.9,0.6,2.5c0.4,0.4,1.1,0.3,1.6,0.4c1.4,0,2.8,0.1,4.2,0.1
			c1.2,0,2.4,0,3.7,0c0.7,0,1.8,0.2,2.5-0.2c1.4-0.7,1.2-3.4,1.4-4.7c0.9-5.9,1.9-11.7,2.8-17.6c0-0.2-0.1-0.5-0.3-0.4
			c-1.2,0-2.3,0.1-3.5,0.1c0.3-1.1,0.6-2.3,1-3.4C24,12.5,24.8,13.2,25.5,14z M19.1,20.5c0.3-1.6,0.7-3.1,1.1-4.7c0.4,0,0.8,0,1.3,0
			c-0.4,1.6-0.8,3.2-1.1,4.7C19.9,20.6,19.5,20.6,19.1,20.5z M18.4,20.5c-0.9-0.1-1.8-0.3-2.8-0.4c-2.6-0.5-5-0.6-7.6,0.1
			c-0.2-1.5-0.3-3-0.5-4.5c4,0,7.9,0.1,11.9,0.1C19.1,17.4,18.7,18.9,18.4,20.5z M23.3,29.5c-0.2,1.1-0.4,2.3-0.5,3.4
			c-0.2,1-0.2,2.4-0.5,3.4c-0.5,1.2-1.6,1-2.7,1c-1.1,0-2.2,0-3.4,0c-1.1,0-2.1,0-3.2,0c-0.5,0-1.2,0.1-1.6-0.1
			c-1-0.3-0.9-0.6-1-1.4c-0.4-2.2-0.8-4.4-1.1-6.6c-0.4-2.8-0.8-5.6-1.1-8.3c3.5-1,6.4-0.2,9.9,0.3c2.3,0.3,4.6,0.2,6.7-0.6
			C24.2,23.5,23.7,26.5,23.3,29.5z M25.4,15.8c-0.2,1.3-0.4,2.6-0.6,3.9c-1.2,0.6-2.5,0.8-3.7,0.8c0.4-1.6,0.7-3.1,1.1-4.7
			C23.3,15.9,24.3,15.8,25.4,15.8z M21.6,15.2c-0.4,0-0.8,0-1.3,0c0.1-0.4,0.2-0.9,0.3-1.3c0.3-1.3,0.5-3.1,1.1-4.2
			c0.9-1.5,1.9-0.2,2.7,0.6c0.4,0.4,1.9,1.7,1.8,2.2c0,0.3-0.6,0.6-0.7,0.8c0,0,0-0.1-0.1-0.1c-0.5-0.8-1.5-1.5-2.2-2.2
			c-0.2-0.2-0.5-0.1-0.6,0.2C22.4,12.4,22,13.8,21.6,15.2z"/>
		<path class="st3" d="M8.4,18c0.1,0.4,0.2,0.9,0.2,1.3c0.1,0.4,0.7,0.3,0.7-0.2c-0.1-0.5-0.2-1-0.3-1.4c0-0.1-0.1-0.2-0.1-0.3l0,0
			c0.1,0,0.1,0,0.2,0c0.3,0,0.5,0,0.8,0c0.4,0.1,0.4-0.6,0-0.7c-0.5-0.1-1.5-0.2-1.7,0.5C8.2,17.4,8.3,17.7,8.4,18z"/>
		<path class="st3" d="M11,17.4c0.5,0,0.5-0.7,0-0.7C10.6,16.7,10.6,17.4,11,17.4z"/>
	</g>
	<g>
		<path class="st4" d="M26.6,22.4c0,0-1.4,2.8,0.5,3.6s4,0.3,3.9-1.2S30.7,20.7,26.6,22.4z"/>
		<path class="st5" d="M42.8,15c-2.2,0-4.4-0.1-6.6-0.1c0.4-0.6,0.9-1.1,1.3-1.7c0.4-0.5-0.4-0.9-0.8-0.5c-0.5,0.7-1.1,1.4-1.7,2.1
			C26.7,14.9,18.3,15,10,15c-0.1,0-0.1,0-0.2,0c-0.2,0.1-0.2,0.2-0.3,0.4c0,0.1,0,0.2,0.1,0.4c0,0,0,0,0,0.1l0,0
			c3,3.2,6.1,6.1,9.2,9.2c1.3,1.3,2.6,2.6,4,3.9c0.5,0.5,1.4,1.7,2.2,2.4c0.1,3.2,0.1,6.5,0,9.7c-1.5,0-8.3,0-8,2.8
			c0.3,2.2,6.2,2.2,7.7,2.2c2.4,0.1,4.7,0,7.1-0.4c0.9-0.2,3.6-0.6,3.9-1.8c0.7-2.7-6.3-2.8-8-2.9c0.1-3.2,0.1-6.4,0-9.5
			c0.3-0.3,0.6-0.6,0.8-0.8c1.7-1.5,3.3-3.1,4.8-4.7c3.2-3.4,6.4-6.9,9.8-10.1C43.5,15.5,43.2,15,42.8,15z M11,15.9
			c7.8,0,15.5-0.1,23.3-0.1c-0.8,1-1.5,1.9-2.3,2.9c-6.1,0-12.3-0.4-18.4-0.1C12.7,17.7,11.9,16.8,11,15.9z M26.8,43
			c0,0.6,0.9,0.6,0.9,0c0-0.4,0-0.7,0-1.1c1.6,0,3.1,0.1,4.6,0.5c0.4,0.1,1.6,0.2,1.8,0.6c0.7,1-0.8,1.3-1.4,1.5
			c-2.5,0.8-5.5,0.8-8.1,0.6c-1.7-0.1-4.4,0-5.9-0.9c-1.6-0.9,0.5-1.6,1.5-1.8c1.5-0.3,3.1-0.4,4.6-0.5c0,0.3,0,0.7,0,1
			c0,0.6,0.9,0.6,0.9,0c0.1-3.7,0.1-7.4,0-11.1c0.1,0.1,0.3,0.1,0.4,0.1s0.3,0,0.4-0.1C26.9,35.6,26.9,39.3,26.8,43z M30.2,27.8
			c-0.6,0.5-1.1,1.1-1.7,1.6c-1.1,1-1.8,1.5-3.2,0.6c-1.2-0.8-2.3-2.3-3.3-3.3c-1.1-1.1-2.2-2.2-3.3-3.3c-1.4-1.3-2.8-2.6-4.2-4
			c5.6-0.2,11.2,0.1,16.8,0.1c-0.5,0.6-1,1.3-1.5,1.9c-1.4-0.7-3.4,0-4,1.4c-0.5,1.1-0.1,2.4,0.8,3.2c-0.4,0.6-0.9,1.1-1.3,1.7
			c-0.3,0.5,0.5,1,0.8,0.5c0.4-0.6,0.8-1.1,1.2-1.7c0.1,0,0.1,0.1,0.2,0.1c1.3,0.5,2.9,0,3.7-1.2c0.8-1.2,0.6-2.8-0.5-3.6
			c0.6-0.8,1.2-1.6,1.8-2.4c1.9,0,3.8,0,5.8-0.2c-1.4,1.4-2.7,2.8-4,4.3C32.9,25.1,31.5,26.5,30.2,27.8z M27.7,25.8
			c-0.8-0.4-1.5-1.4-1.2-2.3c0.3-1,1.7-1.6,2.7-1.2c0,0.1-0.1,0.1-0.1,0.2c-0.4,0.5,0.5,0.9,0.8,0.5c0.1-0.1,0.1-0.2,0.2-0.2
			C31.8,23.7,29.7,26.9,27.7,25.8z M39.1,18.5c-2,0.1-4,0.2-6,0.2c0.8-0.9,1.5-1.9,2.3-2.8c2.1,0,4.2,0,6.2,0.1
			C40.8,16.8,40,17.6,39.1,18.5z"/>
		<path class="st5" d="M18.2,20.7c-0.4-0.4-1.1,0.2-0.7,0.7c0.7,0.7,1.4,1.4,2.1,2.2c0.4,0.5,1-0.2,0.7-0.7
			C19.6,22.1,18.9,21.4,18.2,20.7z"/>
		<path class="st5" d="M21,23.8c-0.6,0-0.6,0.9,0,0.9S21.6,23.8,21,23.8z"/>
	</g>
</g>
<g>
	<path class="st5" d="M11.3,8.1l-0.7,2.3h-1l2.4-7.2h1.1l2.4,7.2h-1l-0.8-2.3H11.3z M13.6,7.3l-0.7-2.1c-0.2-0.5-0.3-0.9-0.4-1.3
		l0,0c-0.1,0.4-0.2,0.9-0.4,1.3l-0.7,2.1H13.6z"/>
	<path class="st5" d="M16.6,2.8h1v7.5h-1V2.8z"/>
	<path class="st5" d="M22.8,10.1c-0.2,0.1-0.8,0.3-1.5,0.3c-1.6,0-2.6-1.1-2.6-2.6c0-1.6,1.1-2.7,2.8-2.7c0.6,0,1,0.1,1.3,0.3
		l-0.2,0.7c-0.2-0.1-0.6-0.2-1.1-0.2c-1.2,0-1.8,0.9-1.8,1.9c0,1.2,0.8,1.9,1.8,1.9c0.5,0,0.9-0.1,1.1-0.3L22.8,10.1z"/>
	<path class="st5" d="M28.5,7.7c0,1.9-1.3,2.7-2.6,2.7c-1.4,0-2.5-1-2.5-2.6c0-1.7,1.1-2.7,2.5-2.7C27.5,5.1,28.5,6.1,28.5,7.7z
		 M24.4,7.7c0,1.1,0.6,2,1.6,2c0.9,0,1.6-0.8,1.6-2c0-0.9-0.4-2-1.5-2C24.9,5.8,24.4,6.8,24.4,7.7z"/>
	<path class="st5" d="M29.7,2.8h0.9V6l0,0c0.1-0.3,0.4-0.5,0.7-0.7c0.3-0.2,0.6-0.3,1-0.3C33,5,34,5.4,34,7.2v3.1h-0.9v-3
		c0-0.8-0.3-1.5-1.2-1.5c-0.6,0-1.1,0.4-1.3,0.9c-0.1,0.1-0.1,0.3-0.1,0.4v3.1h-0.9V2.8z"/>
	<path class="st5" d="M40.2,7.7c0,1.9-1.3,2.7-2.6,2.7c-1.4,0-2.5-1-2.5-2.6c0-1.7,1.1-2.7,2.5-2.7C39.2,5.1,40.2,6.1,40.2,7.7z
		 M36.2,7.7c0,1.1,0.6,2,1.6,2c0.9,0,1.6-0.8,1.6-2c0-0.9-0.4-2-1.5-2C36.5,5.8,36.2,6.8,36.2,7.7z"/>
	<path class="st5" d="M41.4,2.8h1v7.5h-0.9L41.4,2.8L41.4,2.8z"/>
</g>
</svg>
