<?xml version="1.0" encoding="utf-8"?>
<!-- Generator: Adobe Illustrator 23.1.0, SVG Export Plug-In . SVG Version: 6.00 Build 0)  -->
<svg version="1.1" id="Слой_1" xmlns="http://www.w3.org/2000/svg" xmlns:xlink="http://www.w3.org/1999/xlink" x="0px" y="0px"
	 viewBox="0 0 50 50" style="enable-background:new 0 0 50 50;" xml:space="preserve">
<style type="text/css">
	.st0{display:none;}
	.st1{display:inline;}
	.st2{display:inline;fill:#CCCCCC;}
	.st3{display:inline;fill:#FFFFFF;}
	.st4{fill:#D24A44;}
	.st5{fill:#FFFFFF;}
	.st6{font-family:'ArialMT';}
	.st7{font-size:8.2794px;}
</style>
<g class="st0">
	<rect x="0.2" class="st1" width="50" height="50"/>
</g>
<g>
	<g class="st0">
		<polygon class="st2" points="0.2,15.8 3.3,15.1 7.9,15.3 12.1,16.1 16.4,15.8 18.4,15.3 17,24.3 16.1,29.4 16.1,31.5 15.1,33.4 
			13.4,33.9 7.5,33.9 4.2,33.9 2.7,33 1.8,28.1 		"/>
		<path class="st3" d="M8.9,23c0.4-0.5,1.1-1.4,1.1-2.1c0-0.8-0.8-1.8-1.5-2.4c-1.4-1.4-3.8-0.6-5,0.5c-0.6,0.6-1.1,1.3-1,2.1
			c0.1,0.8,0.7,2.4,1.4,3c0.6,0.4,2,0.3,2.7,0.3C7.6,24.4,8.3,23.8,8.9,23z M7.2,18.6c-0.3,0.3-0.5,0.6-0.8,1
			c-0.3,0.3-0.6,0.6-0.9,1c-0.2,0-0.4,0-0.7,0c-0.5,0-0.9,0-1.5,0.1c0.1-0.4,0.3-0.7,0.6-1.2C4.8,18.8,6.2,18.3,7.2,18.6z M5.3,23.7
			c-1.1-0.2-2-1.2-2.1-2.2c0.6-0.1,2-0.4,2.4,0.1c0.5,0.5,0.7,1.5,1.1,2C6.4,23.7,6,23.8,5.3,23.7z M7.5,23.3
			C7.5,23.3,7.5,23.2,7.5,23.3C7,22.5,6.8,21.6,6.2,21c0.2-0.3,0.5-0.5,0.7-0.8c0.3-0.4,0.6-0.8,0.9-1.2l0,0c0,0,0.1,0,0.1,0.1
			c0.4,0.3,1.1,1.3,1.3,1.8c0.1,0.5-0.4,1.1-0.6,1.4C8.3,22.6,7.8,23,7.5,23.3z"/>
		<path class="st3" d="M13,26.3c-1.4-0.6-3.8-0.7-4.8,0.6c-0.5,0.7-1,2-0.9,2.9c0.1,0.8,1,1.4,1.7,1.9c0.8,0.5,1.6,1.1,2.6,0.7
			c0.6-0.2,2-0.5,2.5-1.2c0.5-0.6,0.6-2.5,0.4-3.3C14.3,27.2,13.7,26.8,13,26.3z M12.5,27c0.4,0.2,0.7,0.5,0.9,1
			c-0.4,0.1-0.8,0.2-1.4,0.3c-0.3,0.1-0.5,0.1-0.7,0.2c-0.3-0.2-0.7-0.4-1.1-0.6c-0.3-0.2-0.7-0.5-1-0.7
			C10.1,26.5,11.6,26.6,12.5,27z M7.9,29.7c-0.1-0.5,0.3-1.7,0.6-2.1l0,0c0.4,0.3,0.8,0.5,1.3,0.8c0.3,0.2,0.6,0.3,1,0.5
			c-0.3,0.7-0.3,1.7-0.5,2.5l0,0c-0.3-0.1-0.7-0.2-1-0.5C9,30.8,8,30.3,7.9,29.7z M12.8,31.2c-0.6,0.4-1.3,0.5-1.9,0.5
			c0.2-0.7,0.2-1.6,0.5-2.3c0.2-0.4,0.6-0.4,0.9-0.5c0.4-0.1,0.8-0.2,1.3-0.3C14,29.5,13.8,30.6,12.8,31.2z"/>
		<path class="st3" d="M12.1,20.3c0.7,0.1,1.4-0.4,1.5-1.1c0.1-0.7-0.3-1.2-0.8-1.4c-0.1,0-0.1,0-0.2,0c-0.7,0-1.4,0.3-1.6,1.1
			C10.8,19.6,11.4,20.2,12.1,20.3z M11.6,18.9c0.1-0.3,0.5-0.4,0.8-0.3c0.2,0.1,0.4,0.3,0.3,0.5c-0.1,0.3-0.3,0.5-0.6,0.5
			C11.9,19.6,11.5,19.3,11.6,18.9z"/>
		<path class="st3" d="M14.6,21.8c-0.1,0-0.1,0-0.2,0c-0.7,0-1.4,0.3-1.6,1.1c-0.1,0.7,0.5,1.4,1.1,1.5c0.7,0.1,1.4-0.4,1.5-1.1
			C15.7,22.5,15.3,22.1,14.6,21.8z M14.8,23.2c-0.1,0.3-0.3,0.5-0.6,0.5c-0.3,0-0.6-0.3-0.5-0.6c0.1-0.3,0.5-0.4,0.8-0.3
			C14.7,22.6,14.8,22.9,14.8,23.2z"/>
		<path class="st3" d="M5.2,27.2c-0.1,0-0.1,0-0.2,0c-0.7,0-1.4,0.3-1.6,1.1C3.3,29,4,29.6,4.6,29.7c0.7,0.1,1.4-0.4,1.5-1.1
			C6.2,27.9,5.8,27.5,5.2,27.2z M5.3,28.5C5.2,28.8,5,29,4.7,29s-0.6-0.3-0.5-0.6C4.3,28,4.7,27.9,5,28C5.2,28,5.4,28.2,5.3,28.5z"
			/>
		<path class="st3" d="M18.8,8.7c0.1,0.1,0.4,0.1,0.5,0c0.4-0.5,0.8-1.1,1.3-1.6c0.1-0.1,0-0.3-0.1-0.4c-1.1-1.4-4.7-6.5-6.3-2.6
			c-0.5,1.3-0.7,2.9-1.1,4.1c-0.2,0.6-0.3,1.3-0.4,1.8C8.3,10,4,9.8-0.4,9.8c-0.1,0-0.1,0-0.2,0s-0.2,0.1-0.2,0.3
			c0.5,5.5,1.1,11,2,16.5c0.2,1.5,0.5,2.9,0.7,4.3C2,31.7,2,33,2.5,33.6c0.4,0.4,1.1,0.3,1.7,0.4c1.5,0,2.9,0.1,4.4,0.1
			c1.3,0,2.5,0,3.9,0c0.7,0,1.9,0.2,2.6-0.2c1.5-0.7,1.3-3.6,1.5-5c0.9-6.2,2-12.4,2.9-18.6c0-0.2-0.1-0.5-0.3-0.4
			c-1.3,0-2.4,0.1-3.7,0.1c0.3-1.2,0.6-2.4,1-3.6C17.2,7.2,18,7.9,18.8,8.7z M12.1,15.7c0.3-1.7,0.7-3.3,1.1-5c0.4,0,0.8,0,1.4,0
			c-0.4,1.7-0.8,3.4-1.1,5C13,15.8,12.5,15.8,12.1,15.7z M11.4,15.7c-0.9-0.1-1.9-0.3-2.9-0.4c-2.7-0.5-5.2-0.5-7.9,0.2
			c-0.2-1.6-0.3-3.2-0.5-4.8c4.2,0,8.2,0.1,12.4,0.1C12.1,12.4,11.7,14,11.4,15.7z M16.4,25.2c-0.2,1.2-0.4,2.4-0.5,3.6
			c-0.2,1.1-0.2,2.5-0.5,3.6c-0.5,1.3-1.7,1.1-2.8,1.1s-2.3,0-3.5,0c-1.1,0-2.2,0-3.3,0c-0.5,0-1.3,0.1-1.7-0.1
			c-1-0.3-0.9-0.6-1-1.5c-0.4-2.3-0.8-4.7-1.1-7c-0.4-3-0.8-5.9-1.1-8.8C4.3,15,7.3,15.9,11,16.4c2.4,0.3,4.8,0.2,7-0.6
			C17.4,18.8,16.9,22,16.4,25.2z M18.7,10.7c-0.2,1.4-0.4,2.7-0.6,4.1c-1.3,0.6-2.6,0.8-3.9,0.8c0.4-1.7,0.7-3.3,1.1-5
			C16.5,10.7,17.5,10.7,18.7,10.7z M14.7,10.1c-0.4,0-0.8,0-1.4,0c0.1-0.4,0.2-1,0.3-1.4c0.3-1.4,0.5-3.3,1.1-4.4
			c0.9-1.6,2-0.2,2.8,0.6c0.5,0.3,2.1,1.7,2.1,2.2c0,0.3-0.6,0.6-0.7,0.8c0,0,0-0.1-0.1-0.1c-0.5-0.8-1.6-1.6-2.3-2.3
			c-0.2-0.2-0.5-0.1-0.6,0.2C15.6,7.1,15.1,8.6,14.7,10.1z"/>
		<path class="st3" d="M0.9,13c0.1,0.4,0.2,1,0.2,1.4c0.1,0.4,0.7,0.3,0.7-0.2c-0.1-0.5-0.2-1.1-0.3-1.5c0-0.1-0.1-0.2-0.1-0.3l0,0
			c0.1,0,0.1,0,0.2,0c0.3,0,0.5,0,0.8,0c0.4,0.1,0.4-0.6,0-0.7c-0.5-0.1-1.6-0.3-1.8,0.4C0.7,12.4,0.8,12.7,0.9,13z"/>
		<path class="st3" d="M3.7,12.4c0.5,0,0.5-0.7,0-0.7C3.1,11.6,3.1,12.4,3.7,12.4z"/>
	</g>
	<g>
		<path class="st4" d="M19.9,17.6c0,0-1.5,3,0.5,3.8s4.2,0.3,4.1-1.3C24.4,18.5,24.2,15.9,19.9,17.6z"/>
		<path class="st5" d="M36.9,9.8c-2.3,0-4.6-0.1-6.9-0.1c0.4-0.6,0.9-1.2,1.4-1.8c0.4-0.5-0.4-1-0.8-0.5c-0.5,0.7-1.1,1.5-1.8,2.2
			c-8.8,0-17.4,0.1-26.2,0.1c-0.1,0-0.1,0-0.2,0c-0.1,0.2-0.2,0.3-0.2,0.5c0,0.1,0,0.2,0.1,0.4c0,0,0,0,0,0.1l0,0
			c3.1,3.4,6.4,6.5,9.6,9.7c1.4,1.4,2.7,2.7,4.2,4.1c0.5,0.5,1.5,1.8,2.3,2.5c0.1,3.4,0.1,6.9,0,10.3c-1.6,0-8.7,0-8.4,3
			c0.3,2.3,6.5,2.3,8,2.3c2.5,0.1,4.9,0,7.4-0.4c0.9-0.2,3.8-0.6,4.1-1.9c0.7-2.9-6.6-3-8.4-3.1c0.1-3.4,0.1-6.8,0-10
			c0.3-0.3,0.6-0.6,0.8-0.8c1.8-1.6,3.4-3.3,5-5c3.3-3.6,6.7-7.3,10.2-10.7C37.6,10.4,37.3,9.8,36.9,9.8z M3.7,10.8
			c8.1,0,16.2-0.1,24.3-0.1c-0.8,1.1-1.6,2-2.4,3.1c-6.4,0-12.8-0.4-19.2-0.1C5.4,12.7,4.6,11.7,3.7,10.8z M20.2,39.4
			c0,0.6,0.9,0.6,0.9,0c0-0.4,0-0.7,0-1.2c1.7,0,3.2,0.1,4.8,0.5c0.4,0.1,1.7,0.2,1.9,0.6c0.7,1.1-0.8,1.4-1.5,1.6
			c-2.6,0.8-5.7,0.8-8.5,0.6c-1.8-0.1-4.6,0-6.2-1c-1.7-1,0.5-1.7,1.6-1.9c1.6-0.3,3.2-0.4,4.8-0.5c0,0.3,0,0.7,0,1.1
			c0,0.6,0.9,0.6,0.9,0c0.1-3.9,0.1-7.8,0-11.7c0.1,0.1,0.3,0.1,0.4,0.1c0.1,0,0.3,0,0.4-0.1C20.3,31.6,20.3,35.5,20.2,39.4z
			 M23.7,23.4c-0.6,0.5-1.1,1.2-1.8,1.7c-1.1,1.1-1.9,1.6-3.3,0.6c-1.3-0.8-2.4-2.4-3.4-3.5c-1.1-1.2-2.3-2.3-3.4-3.5
			c-1.5-1.4-2.9-2.7-4.4-4.2c5.8-0.2,11.7,0.1,17.5,0.1c-0.5,0.6-1,1.4-1.6,2c-1.5-0.7-3.5,0-4.2,1.5c-0.5,1.2-0.1,2.5,0.8,3.4
			c-0.4,0.6-0.9,1.2-1.4,1.8c-0.3,0.5,0.5,1.1,0.8,0.5c0.4-0.6,0.8-1.2,1.3-1.8c0.1,0,0.1,0.1,0.2,0.1c1.4,0.5,3,0,3.9-1.3
			c0.8-1.3,0.6-3-0.5-3.8c0.6-0.8,1.3-1.7,1.9-2.5c2,0,4,0,6.1-0.2c-1.5,1.5-2.8,3-4.2,4.5C26.4,20.5,25.1,22,23.7,23.4z M21.1,21.3
			c-0.8-0.4-1.6-1.5-1.3-2.4c0.3-1.1,1.8-1.7,2.8-1.3c0,0.1-0.1,0.1-0.1,0.2c-0.4,0.5,0.5,1,0.8,0.5c0.1-0.1,0.1-0.2,0.2-0.2
			C25.4,19,23.2,22.4,21.1,21.3z M33,13.5c-2.1,0.1-4.2,0.2-6.3,0.2c0.8-1,1.6-2,2.4-3c2.2,0,4.4,0,6.5,0.1
			C34.8,11.6,33.9,12.6,33,13.5z"/>
		<path class="st5" d="M11.2,15.9c-0.4-0.4-1.1,0.2-0.7,0.7c0.7,0.7,1.5,1.5,2.2,2.3c0.4,0.5,1-0.2,0.7-0.7
			C12.6,17.4,11.9,16.6,11.2,15.9z"/>
		<path class="st5" d="M14.1,19.2c-0.6,0-0.6,1,0,1C14.7,20.1,14.7,19.2,14.1,19.2z"/>
	</g>
</g>
<text transform="matrix(4.565752e-07 -1 1 4.565752e-07 45.1652 46.7332)" class="st5 st6 st7">AlcoholFree</text>
</svg>
