<?xml version="1.0" encoding="utf-8"?>
<!-- Generator: Adobe Illustrator 23.1.0, SVG Export Plug-In . SVG Version: 6.00 Build 0)  -->
<svg version="1.1" xmlns="http://www.w3.org/2000/svg" xmlns:xlink="http://www.w3.org/1999/xlink" x="0px" y="0px"
	 viewBox="0 0 50 50" style="enable-background:new 0 0 50 50;" xml:space="preserve">
<g id="Слой_1" style="display:none;">
	<rect style="display:inline;" width="50" height="50"/>
</g>
<g id="Слой_2">
	<g>
		<g>
			<g>
				<g>
					<g>
						<g>
							<path style="fill:#D24A43;" d="M20.1325607,29.4755516l-2.1100578-4.1150951
								c0.0470924-0.0253582,0.0932808-0.0534153,0.1376534-0.0805874l0.0398426-0.0253601
								c0.0489044-0.029892,0.0941868-0.0579491,0.1394672-0.0851231c0.088747-0.0516243,0.1720543-0.1077824,0.2517605-0.1693573
								c0.2598972-0.1983223,0.4781513-0.4518967,0.6719532-0.7806225c0.2544823-0.4301643,0.383976-0.913765,0.383976-1.4390221
								c0-0.7987289-0.2879753-1.4906254-0.853981-2.0566292c-0.5660038-0.5660057-1.2579002-0.853981-2.0557327-0.853981H9.983429
								c-0.7978449,0-1.4897194,0.2879753-2.0557232,0.853981c-0.5669107,0.5660038-0.8540034,1.2579002-0.8540034,2.0566292
								c0,0.5252571,0.1286111,1.0088577,0.3830814,1.4390221c0.1204414,0.2037621,0.264441,0.3866959,0.42835,0.5469913
								c-0.0570536,0.0407467-0.1132011,0.0833073-0.1666284,0.1276817
								c-0.0416546,0.0334949-0.0824132,0.0688267-0.1213593,0.1059494
								c-0.1503229,0.1367455-0.2870703,0.2925091-0.4075232,0.4636803
								c-0.3432174,0.4853935-0.5180044,1.0450516-0.5180044,1.6626835c0,0.4193058,0.0778918,0.8141384,0.2318406,1.1745682
								c0.146708,0.3459473,0.3658686,0.6656303,0.649313,0.9490738c0.5841231,0.5841331,1.2986484,0.88027,2.1236548,0.88027
								h4.4872751v-4.4401932h2.2305222l2.12183,4.1929646l0.1240673,0.2472286h1.8275185L20.1325607,29.4755516z
								 M12.5562496,28.5626926H9.6764269c-0.3767357,0-0.6964169-0.1349335-0.9762468-0.412962
								c-0.0796938-0.0842152-0.1494274-0.1738682-0.2064705-0.2644291
								c-0.1439991-0.2291222-0.2137327-0.4772568-0.2137327-0.7589092c0-0.3957405,0.1367474-0.7253933,0.4165888-1.0061188
								l0.0072298-0.0081577c0.2707863-0.2834454,0.588644-0.4220047,0.9726315-0.4220047h2.8798227V28.5626926z
								 M12.5562496,24.1234074H9.983429c-0.3568153,0-0.6538458-0.1258926-0.9065132-0.3848839
								c-0.2662439-0.2807465-0.3957605-0.5940838-0.3957605-0.9581394c0-0.3694935,0.1277046-0.6773911,0.3903217-0.9391022
								l0.0063457-0.0063457L9.08325,21.8285904c0.2436132-0.2626171,0.5379362-0.3912277,0.9001789-0.3912277h2.5728207V24.1234074
								z M16.737442,24.1234074h-2.57374v-2.6860447h2.57374c0.3622417,0,0.6565647,0.1286106,0.9001789,0.3912277
								l0.0054264,0.0063457l0.0063343,0.0063457c0.26264,0.2617111,0.3903217,0.5696087,0.3903217,0.9391022
								c0,0.3640556-0.1294937,0.677393-0.396656,0.9581394C17.3912983,23.9975147,17.0942554,24.1234074,16.737442,24.1234074z"/>
						</g>
					</g>
					<g>
						<g>
							<path style="fill:#D24A43;" d="M13.569623,35.984066c-6.0566001,0-10.9840212-4.9274235-10.9840212-10.9840221
								S7.5130229,14.0159349,13.569623,14.0159349s10.9840212,4.9275103,10.9840212,10.9841089
								S19.6262207,35.984066,13.569623,35.984066z M13.569623,15.5740385c-5.1975117,0-9.4260063,4.2284937-9.4260063,9.4260054
								s4.2284946,9.4259167,9.4260063,9.4259167s9.4260054-4.228405,9.4260054-9.4259167
								S18.7671337,15.5740385,13.569623,15.5740385z"/>
						</g>
					</g>
				</g>
				<g>
					<g>
						<g>
							<path style="fill:#D24A43;" d="M20.1325607,29.4755516l-2.1100578-4.1150951
								c0.0470924-0.0253582,0.0932808-0.0534153,0.1376534-0.0805874l0.0398426-0.0253601
								c0.0489044-0.029892,0.0941868-0.0579491,0.1394672-0.0851231c0.088747-0.0516243,0.1720543-0.1077824,0.2517605-0.1693573
								c0.2598972-0.1983223,0.4781513-0.4518967,0.6719532-0.7806225c0.2544823-0.4301643,0.383976-0.913765,0.383976-1.4390221
								c0-0.7987289-0.2879753-1.4906254-0.853981-2.0566292c-0.5660038-0.5660057-1.2579002-0.853981-2.0557327-0.853981H9.983429
								c-0.7978449,0-1.4897194,0.2879753-2.0557232,0.853981c-0.5669107,0.5660038-0.8540034,1.2579002-0.8540034,2.0566292
								c0,0.5252571,0.1286111,1.0088577,0.3830814,1.4390221c0.1204414,0.2037621,0.264441,0.3866959,0.42835,0.5469913
								c-0.0570536,0.0407467-0.1132011,0.0833073-0.1666284,0.1276817
								c-0.0416546,0.0334949-0.0824132,0.0688267-0.1213593,0.1059494
								c-0.1503229,0.1367455-0.2870703,0.2925091-0.4075232,0.4636803
								c-0.3432174,0.4853935-0.5180044,1.0450516-0.5180044,1.6626835c0,0.4193058,0.0778918,0.8141384,0.2318406,1.1745682
								c0.146708,0.3459473,0.3658686,0.6656303,0.649313,0.9490738c0.5841231,0.5841331,1.2986484,0.88027,2.1236548,0.88027
								h4.4872751v-4.4401932h2.2305222l2.12183,4.1929646l0.1240673,0.2472286h1.8275185L20.1325607,29.4755516z
								 M12.5562496,28.5626926H9.6764269c-0.3767357,0-0.6964169-0.1349335-0.9762468-0.412962
								c-0.0796938-0.0842152-0.1494274-0.1738682-0.2064705-0.2644291
								c-0.1439991-0.2291222-0.2137327-0.4772568-0.2137327-0.7589092c0-0.3957405,0.1367474-0.7253933,0.4165888-1.0061188
								l0.0072298-0.0081577c0.2707863-0.2834454,0.588644-0.4220047,0.9726315-0.4220047h2.8798227V28.5626926z
								 M12.5562496,24.1234074H9.983429c-0.3568153,0-0.6538458-0.1258926-0.9065132-0.3848839
								c-0.2662439-0.2807465-0.3957605-0.5940838-0.3957605-0.9581394c0-0.3694935,0.1277046-0.6773911,0.3903217-0.9391022
								l0.0063457-0.0063457L9.08325,21.8285904c0.2436132-0.2626171,0.5379362-0.3912277,0.9001789-0.3912277h2.5728207V24.1234074
								z M16.737442,24.1234074h-2.57374v-2.6860447h2.57374c0.3622417,0,0.6565647,0.1286106,0.9001789,0.3912277
								l0.0054264,0.0063457l0.0063343,0.0063457c0.26264,0.2617111,0.3903217,0.5696087,0.3903217,0.9391022
								c0,0.3640556-0.1294937,0.677393-0.396656,0.9581394C17.3912983,23.9975147,17.0942554,24.1234074,16.737442,24.1234074z"/>
						</g>
					</g>
					<g>
						<g>
							<path style="fill:#D24A43;" d="M13.569623,35.984066c-6.0566001,0-10.9840212-4.9274235-10.9840212-10.9840221
								S7.5130229,14.0159349,13.569623,14.0159349s10.9840212,4.9275103,10.9840212,10.9841089
								S19.6262207,35.984066,13.569623,35.984066z M13.569623,15.5740385c-5.1975117,0-9.4260063,4.2284937-9.4260063,9.4260054
								s4.2284946,9.4259167,9.4260063,9.4259167s9.4260054-4.228405,9.4260054-9.4259167
								S18.7671337,15.5740385,13.569623,15.5740385z"/>
						</g>
					</g>
				</g>
				<g>
					<g>
						<g>
							<path style="fill:#D24A43;" d="M20.1325607,29.4755516l-2.1100578-4.1150951
								c0.0470924-0.0253582,0.0932808-0.0534153,0.1376534-0.0805874l0.0398426-0.0253601
								c0.0489044-0.029892,0.0941868-0.0579491,0.1394672-0.0851231c0.088747-0.0516243,0.1720543-0.1077824,0.2517605-0.1693573
								c0.2598972-0.1983223,0.4781513-0.4518967,0.6719532-0.7806225c0.2544823-0.4301643,0.383976-0.913765,0.383976-1.4390221
								c0-0.7987289-0.2879753-1.4906254-0.853981-2.0566292c-0.5660038-0.5660057-1.2579002-0.853981-2.0557327-0.853981H9.983429
								c-0.7978449,0-1.4897194,0.2879753-2.0557232,0.853981c-0.5669107,0.5660038-0.8540034,1.2579002-0.8540034,2.0566292
								c0,0.5252571,0.1286111,1.0088577,0.3830814,1.4390221c0.1204414,0.2037621,0.264441,0.3866959,0.42835,0.5469913
								c-0.0570536,0.0407467-0.1132011,0.0833073-0.1666284,0.1276817
								c-0.0416546,0.0334949-0.0824132,0.0688267-0.1213593,0.1059494
								c-0.1503229,0.1367455-0.2870703,0.2925091-0.4075232,0.4636803
								c-0.3432174,0.4853935-0.5180044,1.0450516-0.5180044,1.6626835c0,0.4193058,0.0778918,0.8141384,0.2318406,1.1745682
								c0.146708,0.3459473,0.3658686,0.6656303,0.649313,0.9490738c0.5841231,0.5841331,1.2986484,0.88027,2.1236548,0.88027
								h4.4872751v-4.4401932h2.2305222l2.12183,4.1929646l0.1240673,0.2472286h1.8275185L20.1325607,29.4755516z
								 M12.5562496,28.5626926H9.6764269c-0.3767357,0-0.6964169-0.1349335-0.9762468-0.412962
								c-0.0796938-0.0842152-0.1494274-0.1738682-0.2064705-0.2644291
								c-0.1439991-0.2291222-0.2137327-0.4772568-0.2137327-0.7589092c0-0.3957405,0.1367474-0.7253933,0.4165888-1.0061188
								l0.0072298-0.0081577c0.2707863-0.2834454,0.588644-0.4220047,0.9726315-0.4220047h2.8798227V28.5626926z
								 M12.5562496,24.1234074H9.983429c-0.3568153,0-0.6538458-0.1258926-0.9065132-0.3848839
								c-0.2662439-0.2807465-0.3957605-0.5940838-0.3957605-0.9581394c0-0.3694935,0.1277046-0.6773911,0.3903217-0.9391022
								l0.0063457-0.0063457L9.08325,21.8285904c0.2436132-0.2626171,0.5379362-0.3912277,0.9001789-0.3912277h2.5728207V24.1234074
								z M16.737442,24.1234074h-2.57374v-2.6860447h2.57374c0.3622417,0,0.6565647,0.1286106,0.9001789,0.3912277
								l0.0054264,0.0063457l0.0063343,0.0063457c0.26264,0.2617111,0.3903217,0.5696087,0.3903217,0.9391022
								c0,0.3640556-0.1294937,0.677393-0.396656,0.9581394C17.3912983,23.9975147,17.0942554,24.1234074,16.737442,24.1234074z"/>
						</g>
					</g>
					<g>
						<g>
							<path style="fill:#D24A43;" d="M13.569623,35.984066c-6.0566001,0-10.9840212-4.9274235-10.9840212-10.9840221
								S7.5130229,14.0159349,13.569623,14.0159349s10.9840212,4.9275103,10.9840212,10.9841089
								S19.6262207,35.984066,13.569623,35.984066z M13.569623,15.5740385c-5.1975117,0-9.4260063,4.2284937-9.4260063,9.4260054
								s4.2284946,9.4259167,9.4260063,9.4259167s9.4260054-4.228405,9.4260054-9.4259167
								S18.7671337,15.5740385,13.569623,15.5740385z"/>
						</g>
					</g>
				</g>
			</g>
			<g>
				<g>
					<path style="fill:#D24A43;" d="M33.0293961,23.0436878c0.1230087,0.2043037,0.1846581,0.4378471,0.1846581,0.7007885v0.08391
						c0,0.4756374-0.1875343,0.8463688-0.5623207,1.1120529c-0.3749123,0.2657986-0.9009037,0.3986397-1.5778351,0.3986397
						h-3.5668926v-5.5056h3.4074459c0.6825581,0,1.2085495,0.1315136,1.577816,0.3944321
						c0.3692856,0.2630711,0.5539207,0.635107,0.5539207,1.1162395v0.0839329c0,0.481266-0.1875343,0.853302-0.5623207,1.1162186
						C32.724369,22.6730919,32.9062538,22.8394947,33.0293961,23.0436878z M29.1939373,21.2602196v0.6714134h1.7205143
						c0.3021259,0,0.4532013-0.0978203,0.4532013-0.2937298v-0.083931c0-0.1957989-0.1510754-0.2937527-0.4532013-0.2937527
						H29.1939373z M31.4935398,23.5178642c0-0.2069397-0.1510754-0.3105202-0.4531994-0.3105202h-1.8464031v0.7049732h1.8464031
						c0.302124,0,0.4531994-0.1034698,0.4531994-0.3105431V23.5178642z"/>
					<path style="fill:#D24A43;" d="M39.5042648,22.8464508c-0.2601738,0.2741909-0.636528,0.4531994-1.1288033,0.5371304
						l1.485508,1.7037239v0.2517738H37.955822l-1.5610428-1.8967514h-0.6126671v1.8967514h-1.6869354v-5.5056h3.5836868
						c0.6882019,0,1.2295227,0.1650963,1.6239738,0.4951553c0.3944778,0.3302135,0.5916939,0.7834129,0.5916939,1.3596191v0.0839329
						C39.8945313,22.2142429,39.7644577,22.5723896,39.5042648,22.8464508z M35.7821121,22.1918259h1.8547935
						c0.3579941,0,0.5371323-0.1370296,0.5371323-0.4112663v-0.08391c0-0.2685661-0.1791382-0.4028492-0.5371323-0.4028492
						h-1.8547935V22.1918259z"/>
					<path style="fill:#D24A43;" d="M42.2109222,25.0998859c-0.5148468-0.2321033-0.9134903-0.5636234-1.1959648-0.9945164
						c-0.2825851-0.4308052-0.4238281-0.9287281-0.4238281-1.4939041v-0.0419769
						c0-0.5650654,0.141243-1.0629883,0.4238281-1.4939041c0.2824745-0.4307804,0.681118-0.7637196,1.1959648-0.9987259
						c0.5147133-0.2350063,1.1105919-0.352499,1.7876549-0.352499c0.6881828,0,1.2895775,0.1174927,1.8044243,0.352499
						c0.5147133,0.2350063,0.9119148,0.5665054,1.1917572,0.9945393c0.279705,0.4280148,0.4196396,0.9273987,0.4196396,1.4980907
						v0.0419769c0,0.5706921-0.1399345,1.070055-0.4196396,1.4980679c-0.2798424,0.4280567-0.6770439,0.7582493-1.1917572,0.9903526
						c-0.5148468,0.2322388-1.1162415,0.3482914-1.8044243,0.3482914
						C43.3215141,25.4481773,42.7256355,25.3321247,42.2109222,25.0998859z M45.2826614,23.572403
						c0.2740593-0.2041492,0.4112206-0.5161343,0.4112206-0.9357719v-0.08391c0-0.8392811-0.5651741-1.2589207-1.6953049-1.2589207
						c-0.5539246,0-0.9735641,0.1063499-1.2589188,0.3189163c-0.2853584,0.2127228-0.4280128,0.5259895-0.4280128,0.9400043v0.08391
						c0,0.4196377,0.1397743,0.7316227,0.4196167,0.9357719c0.2797318,0.2043247,0.7021179,0.3063564,1.2673149,0.3063564
						C44.5804138,23.8787594,45.0084457,23.7767277,45.2826614,23.572403z"/>
				</g>
				<g>
					<path style="fill:#D24A43;" d="M33.0293961,23.0436878c0.1230087,0.2043037,0.1846581,0.4378471,0.1846581,0.7007885v0.08391
						c0,0.4756374-0.1875343,0.8463688-0.5623207,1.1120529c-0.3749123,0.2657986-0.9009037,0.3986397-1.5778351,0.3986397
						h-3.5668926v-5.5056h3.4074459c0.6825581,0,1.2085495,0.1315136,1.577816,0.3944321
						c0.3692856,0.2630711,0.5539207,0.635107,0.5539207,1.1162395v0.0839329c0,0.481266-0.1875343,0.853302-0.5623207,1.1162186
						C32.724369,22.6730919,32.9062538,22.8394947,33.0293961,23.0436878z M29.1939373,21.2602196v0.6714134h1.7205143
						c0.3021259,0,0.4532013-0.0978203,0.4532013-0.2937298v-0.083931c0-0.1957989-0.1510754-0.2937527-0.4532013-0.2937527
						H29.1939373z M31.4935398,23.5178642c0-0.2069397-0.1510754-0.3105202-0.4531994-0.3105202h-1.8464031v0.7049732h1.8464031
						c0.302124,0,0.4531994-0.1034698,0.4531994-0.3105431V23.5178642z"/>
					<path style="fill:#D24A43;" d="M39.5042648,22.8464508c-0.2601738,0.2741909-0.636528,0.4531994-1.1288033,0.5371304
						l1.485508,1.7037239v0.2517738H37.955822l-1.5610428-1.8967514h-0.6126671v1.8967514h-1.6869354v-5.5056h3.5836868
						c0.6882019,0,1.2295227,0.1650963,1.6239738,0.4951553c0.3944778,0.3302135,0.5916939,0.7834129,0.5916939,1.3596191v0.0839329
						C39.8945313,22.2142429,39.7644577,22.5723896,39.5042648,22.8464508z M35.7821121,22.1918259h1.8547935
						c0.3579941,0,0.5371323-0.1370296,0.5371323-0.4112663v-0.08391c0-0.2685661-0.1791382-0.4028492-0.5371323-0.4028492
						h-1.8547935V22.1918259z"/>
					<path style="fill:#D24A43;" d="M42.2109222,25.0998859c-0.5148468-0.2321033-0.9134903-0.5636234-1.1959648-0.9945164
						c-0.2825851-0.4308052-0.4238281-0.9287281-0.4238281-1.4939041v-0.0419769
						c0-0.5650654,0.141243-1.0629883,0.4238281-1.4939041c0.2824745-0.4307804,0.681118-0.7637196,1.1959648-0.9987259
						c0.5147133-0.2350063,1.1105919-0.352499,1.7876549-0.352499c0.6881828,0,1.2895775,0.1174927,1.8044243,0.352499
						c0.5147133,0.2350063,0.9119148,0.5665054,1.1917572,0.9945393c0.279705,0.4280148,0.4196396,0.9273987,0.4196396,1.4980907
						v0.0419769c0,0.5706921-0.1399345,1.070055-0.4196396,1.4980679c-0.2798424,0.4280567-0.6770439,0.7582493-1.1917572,0.9903526
						c-0.5148468,0.2322388-1.1162415,0.3482914-1.8044243,0.3482914
						C43.3215141,25.4481773,42.7256355,25.3321247,42.2109222,25.0998859z M45.2826614,23.572403
						c0.2740593-0.2041492,0.4112206-0.5161343,0.4112206-0.9357719v-0.08391c0-0.8392811-0.5651741-1.2589207-1.6953049-1.2589207
						c-0.5539246,0-0.9735641,0.1063499-1.2589188,0.3189163c-0.2853584,0.2127228-0.4280128,0.5259895-0.4280128,0.9400043v0.08391
						c0,0.4196377,0.1397743,0.7316227,0.4196167,0.9357719c0.2797318,0.2043247,0.7021179,0.3063564,1.2673149,0.3063564
						C44.5804138,23.8787594,45.0084457,23.7767277,45.2826614,23.572403z"/>
				</g>
				<g>
					<path style="fill:#D24A43;" d="M33.0293961,23.0436878c0.1230087,0.2043037,0.1846581,0.4378471,0.1846581,0.7007885v0.08391
						c0,0.4756374-0.1875343,0.8463688-0.5623207,1.1120529c-0.3749123,0.2657986-0.9009037,0.3986397-1.5778351,0.3986397
						h-3.5668926v-5.5056h3.4074459c0.6825581,0,1.2085495,0.1315136,1.577816,0.3944321
						c0.3692856,0.2630711,0.5539207,0.635107,0.5539207,1.1162395v0.0839329c0,0.481266-0.1875343,0.853302-0.5623207,1.1162186
						C32.724369,22.6730919,32.9062538,22.8394947,33.0293961,23.0436878z M29.1939373,21.2602196v0.6714134h1.7205143
						c0.3021259,0,0.4532013-0.0978203,0.4532013-0.2937298v-0.083931c0-0.1957989-0.1510754-0.2937527-0.4532013-0.2937527
						H29.1939373z M31.4935398,23.5178642c0-0.2069397-0.1510754-0.3105202-0.4531994-0.3105202h-1.8464031v0.7049732h1.8464031
						c0.302124,0,0.4531994-0.1034698,0.4531994-0.3105431V23.5178642z"/>
					<path style="fill:#D24A43;" d="M39.5042648,22.8464508c-0.2601738,0.2741909-0.636528,0.4531994-1.1288033,0.5371304
						l1.485508,1.7037239v0.2517738H37.955822l-1.5610428-1.8967514h-0.6126671v1.8967514h-1.6869354v-5.5056h3.5836868
						c0.6882019,0,1.2295227,0.1650963,1.6239738,0.4951553c0.3944778,0.3302135,0.5916939,0.7834129,0.5916939,1.3596191v0.0839329
						C39.8945313,22.2142429,39.7644577,22.5723896,39.5042648,22.8464508z M35.7821121,22.1918259h1.8547935
						c0.3579941,0,0.5371323-0.1370296,0.5371323-0.4112663v-0.08391c0-0.2685661-0.1791382-0.4028492-0.5371323-0.4028492
						h-1.8547935V22.1918259z"/>
					<path style="fill:#D24A43;" d="M42.2109222,25.0998859c-0.5148468-0.2321033-0.9134903-0.5636234-1.1959648-0.9945164
						c-0.2825851-0.4308052-0.4238281-0.9287281-0.4238281-1.4939041v-0.0419769
						c0-0.5650654,0.141243-1.0629883,0.4238281-1.4939041c0.2824745-0.4307804,0.681118-0.7637196,1.1959648-0.9987259
						c0.5147133-0.2350063,1.1105919-0.352499,1.7876549-0.352499c0.6881828,0,1.2895775,0.1174927,1.8044243,0.352499
						c0.5147133,0.2350063,0.9119148,0.5665054,1.1917572,0.9945393c0.279705,0.4280148,0.4196396,0.9273987,0.4196396,1.4980907
						v0.0419769c0,0.5706921-0.1399345,1.070055-0.4196396,1.4980679c-0.2798424,0.4280567-0.6770439,0.7582493-1.1917572,0.9903526
						c-0.5148468,0.2322388-1.1162415,0.3482914-1.8044243,0.3482914
						C43.3215141,25.4481773,42.7256355,25.3321247,42.2109222,25.0998859z M45.2826614,23.572403
						c0.2740593-0.2041492,0.4112206-0.5161343,0.4112206-0.9357719v-0.08391c0-0.8392811-0.5651741-1.2589207-1.6953049-1.2589207
						c-0.5539246,0-0.9735641,0.1063499-1.2589188,0.3189163c-0.2853584,0.2127228-0.4280128,0.5259895-0.4280128,0.9400043v0.08391
						c0,0.4196377,0.1397743,0.7316227,0.4196167,0.9357719c0.2797318,0.2043247,0.7021179,0.3063564,1.2673149,0.3063564
						C44.5804138,23.8787594,45.0084457,23.7767277,45.2826614,23.572403z"/>
				</g>
			</g>
			<g>
				<g>
					<path style="fill:#D24A43;" d="M30.6051064,28.4150276c-0.2098866,0.182972-0.4977913,0.283474-0.8637371,0.3013725
						l1.162405,1.3023376v0.080719H30.290287l-1.2431488-1.3830566h-1.0440025v1.3830566H27.464983v-3.5302773h2.1741352
						c0.3982182,0,0.7111988,0.0941677,0.9390736,0.2825222c0.2277832,0.1883545,0.341732,0.4475956,0.341732,0.7776299v0.0699558
						C30.9199238,27.9935055,30.8149681,28.2320557,30.6051064,28.4150276z M30.3763905,27.613184
						c0-0.1793613-0.0655041-0.3183403-0.1964397-0.4170685c-0.1310062-0.0986195-0.3148174-0.147995-0.5515976-0.147995h-1.6252174
						v1.1947002h1.6252174c0.2367802,0,0.4205914-0.0492649,0.5515976-0.147995
						c0.1309357-0.0986176,0.1964397-0.2376194,0.1964397-0.4170475V27.613184z"/>
					<path style="fill:#D24A43;" d="M32.6043282,29.9433994c-0.3049812-0.1470642-0.5400085-0.3551788-0.7049713-0.6242542
						c-0.1650734-0.2690983-0.2475662-0.5847569-0.2475662-0.9471588v-0.0699539
						c0-0.3623333,0.0824928-0.6789246,0.2475662-0.9498367c0.1649628-0.2708473,0.3999901-0.479805,0.7049713-0.6269569
						c0.3048973-0.1470661,0.6600761-0.2206535,1.0655365-0.2206535c0.4053764,0,0.7596436,0.0735874,1.0628586,0.2206535
						c0.3031197,0.1471519,0.53722,0.3561096,0.7022934,0.6269569c0.1649628,0.2709122,0.2475433,0.5875034,0.2475433,0.9498367
						v0.0699539c0,0.362402-0.0825806,0.6780605-0.2475433,0.9471588c-0.1650734,0.2690754-0.3991737,0.47719-0.7022934,0.6242542
						c-0.303215,0.1471519-0.6574821,0.2206306-1.0628586,0.2206306
						C33.2644043,30.1640301,32.9092255,30.0905514,32.6043282,29.9433994z M34.7515488,29.3245068
						c0.2583122-0.2260132,0.3874779-0.5399017,0.3874779-0.9417553v-0.0861015
						c0-0.4053974-0.1291656-0.7219639-0.3874779-0.9498386c-0.2583084-0.2278061-0.6188698-0.341732-1.0816841-0.341732
						s-0.8243027,0.1139259-1.0843849,0.341732c-0.2601471,0.2278748-0.3901558,0.5444412-0.3901558,0.9498386v0.0861015
						c0,0.4018536,0.1300087,0.7157421,0.3901558,0.9417553c0.2600822,0.2260342,0.6215706,0.3390503,1.0843849,0.3390503
						S34.4932404,29.5505409,34.7515488,29.3245068z"/>
					<path style="fill:#D24A43;" d="M37.060257,26.5691795v3.0513153h2.5992661v0.4789619h-3.1374168v-3.5302773H37.060257z"/>
					<path style="fill:#D24A43;" d="M40.7573357,26.5691795v3.0513153h2.5992661v0.4789619h-3.1374207v-3.5302773H40.7573357z"/>
					<path style="fill:#D24A43;" d="M44.069706,29.8653603c-0.2924652-0.1991215-0.4386024-0.490572-0.4386024-0.8745022v-0.0538044
						h0.5381508v0.0538044c0,0.4592915,0.4071503,0.6888485,1.2216187,0.6888485
						c0.3623085,0,0.6385384-0.044836,0.8287544-0.1345482c0.1901054-0.0896263,0.2852249-0.2224026,0.2852249-0.398243v-0.0430393
						c0-0.1506748-0.0601425-0.2636929-0.1802902-0.3390312c-0.1202393-0.0753593-0.3328056-0.1326866-0.637722-0.172205
						l-0.8018456-0.1076355c-0.3910828-0.0501957-0.6843719-0.1515388-0.8798828-0.3040524
						c-0.1955757-0.1524696-0.2932854-0.3578815-0.2932854-0.61619v-0.0538292c0-0.3156605,0.1399307-0.5623627,0.4197693-0.7399521
						c0.2798195-0.1775894,0.6744537-0.2663956,1.1839371-0.2663956c0.5416756,0,0.9533615,0.0968704,1.2350655,0.2906075
						c0.2815895,0.193737,0.4224281,0.4754391,0.4224281,0.8449059v0.0538063H46.440258v-0.0538063
						c0-0.4340591-0.374939-0.6511688-1.1247253-0.6511688c-0.3444328,0-0.6072845,0.043972-0.7883987,0.1318474
						c-0.181221,0.0879631-0.2717743,0.2144279-0.2717743,0.3793907v0.0430622c0,0.1327763,0.0573502,0.2350292,0.1722069,0.3067551
						c0.1147881,0.0717926,0.3067551,0.1256218,0.5758286,0.1614399l0.8072243,0.102253
						c0.4269066,0.0538044,0.7399788,0.1579189,0.9390755,0.3121166c0.1991196,0.1543064,0.2986908,0.3731861,0.2986908,0.6565495
						v0.0538292c0,0.3264923-0.1453133,0.5794182-0.4359207,0.7587795c-0.2905846,0.179451-0.7068138,0.2690773-1.2485085,0.2690773
						C44.7935104,30.1640301,44.3620644,30.0644798,44.069706,29.8653603z"/>
				</g>
				<g>
					<path style="fill:#D24A43;" d="M30.6051064,28.4150276c-0.2098866,0.182972-0.4977913,0.283474-0.8637371,0.3013725
						l1.162405,1.3023376v0.080719H30.290287l-1.2431488-1.3830566h-1.0440025v1.3830566H27.464983v-3.5302773h2.1741352
						c0.3982182,0,0.7111988,0.0941677,0.9390736,0.2825222c0.2277832,0.1883545,0.341732,0.4475956,0.341732,0.7776299v0.0699558
						C30.9199238,27.9935055,30.8149681,28.2320557,30.6051064,28.4150276z M30.3763905,27.613184
						c0-0.1793613-0.0655041-0.3183403-0.1964397-0.4170685c-0.1310062-0.0986195-0.3148174-0.147995-0.5515976-0.147995h-1.6252174
						v1.1947002h1.6252174c0.2367802,0,0.4205914-0.0492649,0.5515976-0.147995
						c0.1309357-0.0986176,0.1964397-0.2376194,0.1964397-0.4170475V27.613184z"/>
					<path style="fill:#D24A43;" d="M32.6043282,29.9433994c-0.3049812-0.1470642-0.5400085-0.3551788-0.7049713-0.6242542
						c-0.1650734-0.2690983-0.2475662-0.5847569-0.2475662-0.9471588v-0.0699539
						c0-0.3623333,0.0824928-0.6789246,0.2475662-0.9498367c0.1649628-0.2708473,0.3999901-0.479805,0.7049713-0.6269569
						c0.3048973-0.1470661,0.6600761-0.2206535,1.0655365-0.2206535c0.4053764,0,0.7596436,0.0735874,1.0628586,0.2206535
						c0.3031197,0.1471519,0.53722,0.3561096,0.7022934,0.6269569c0.1649628,0.2709122,0.2475433,0.5875034,0.2475433,0.9498367
						v0.0699539c0,0.362402-0.0825806,0.6780605-0.2475433,0.9471588c-0.1650734,0.2690754-0.3991737,0.47719-0.7022934,0.6242542
						c-0.303215,0.1471519-0.6574821,0.2206306-1.0628586,0.2206306
						C33.2644043,30.1640301,32.9092255,30.0905514,32.6043282,29.9433994z M34.7515488,29.3245068
						c0.2583122-0.2260132,0.3874779-0.5399017,0.3874779-0.9417553v-0.0861015
						c0-0.4053974-0.1291656-0.7219639-0.3874779-0.9498386c-0.2583084-0.2278061-0.6188698-0.341732-1.0816841-0.341732
						s-0.8243027,0.1139259-1.0843849,0.341732c-0.2601471,0.2278748-0.3901558,0.5444412-0.3901558,0.9498386v0.0861015
						c0,0.4018536,0.1300087,0.7157421,0.3901558,0.9417553c0.2600822,0.2260342,0.6215706,0.3390503,1.0843849,0.3390503
						S34.4932404,29.5505409,34.7515488,29.3245068z"/>
					<path style="fill:#D24A43;" d="M37.060257,26.5691795v3.0513153h2.5992661v0.4789619h-3.1374168v-3.5302773H37.060257z"/>
					<path style="fill:#D24A43;" d="M40.7573357,26.5691795v3.0513153h2.5992661v0.4789619h-3.1374207v-3.5302773H40.7573357z"/>
					<path style="fill:#D24A43;" d="M44.069706,29.8653603c-0.2924652-0.1991215-0.4386024-0.490572-0.4386024-0.8745022v-0.0538044
						h0.5381508v0.0538044c0,0.4592915,0.4071503,0.6888485,1.2216187,0.6888485
						c0.3623085,0,0.6385384-0.044836,0.8287544-0.1345482c0.1901054-0.0896263,0.2852249-0.2224026,0.2852249-0.398243v-0.0430393
						c0-0.1506748-0.0601425-0.2636929-0.1802902-0.3390312c-0.1202393-0.0753593-0.3328056-0.1326866-0.637722-0.172205
						l-0.8018456-0.1076355c-0.3910828-0.0501957-0.6843719-0.1515388-0.8798828-0.3040524
						c-0.1955757-0.1524696-0.2932854-0.3578815-0.2932854-0.61619v-0.0538292c0-0.3156605,0.1399307-0.5623627,0.4197693-0.7399521
						c0.2798195-0.1775894,0.6744537-0.2663956,1.1839371-0.2663956c0.5416756,0,0.9533615,0.0968704,1.2350655,0.2906075
						c0.2815895,0.193737,0.4224281,0.4754391,0.4224281,0.8449059v0.0538063H46.440258v-0.0538063
						c0-0.4340591-0.374939-0.6511688-1.1247253-0.6511688c-0.3444328,0-0.6072845,0.043972-0.7883987,0.1318474
						c-0.181221,0.0879631-0.2717743,0.2144279-0.2717743,0.3793907v0.0430622c0,0.1327763,0.0573502,0.2350292,0.1722069,0.3067551
						c0.1147881,0.0717926,0.3067551,0.1256218,0.5758286,0.1614399l0.8072243,0.102253
						c0.4269066,0.0538044,0.7399788,0.1579189,0.9390755,0.3121166c0.1991196,0.1543064,0.2986908,0.3731861,0.2986908,0.6565495
						v0.0538292c0,0.3264923-0.1453133,0.5794182-0.4359207,0.7587795c-0.2905846,0.179451-0.7068138,0.2690773-1.2485085,0.2690773
						C44.7935104,30.1640301,44.3620644,30.0644798,44.069706,29.8653603z"/>
				</g>
				<g>
					<path style="fill:#D24A43;" d="M30.6051064,28.4150276c-0.2098866,0.182972-0.4977913,0.283474-0.8637371,0.3013725
						l1.162405,1.3023376v0.080719H30.290287l-1.2431488-1.3830566h-1.0440025v1.3830566H27.464983v-3.5302773h2.1741352
						c0.3982182,0,0.7111988,0.0941677,0.9390736,0.2825222c0.2277832,0.1883545,0.341732,0.4475956,0.341732,0.7776299v0.0699558
						C30.9199238,27.9935055,30.8149681,28.2320557,30.6051064,28.4150276z M30.3763905,27.613184
						c0-0.1793613-0.0655041-0.3183403-0.1964397-0.4170685c-0.1310062-0.0986195-0.3148174-0.147995-0.5515976-0.147995h-1.6252174
						v1.1947002h1.6252174c0.2367802,0,0.4205914-0.0492649,0.5515976-0.147995
						c0.1309357-0.0986176,0.1964397-0.2376194,0.1964397-0.4170475V27.613184z"/>
					<path style="fill:#D24A43;" d="M32.6043282,29.9433994c-0.3049812-0.1470642-0.5400085-0.3551788-0.7049713-0.6242542
						c-0.1650734-0.2690983-0.2475662-0.5847569-0.2475662-0.9471588v-0.0699539
						c0-0.3623333,0.0824928-0.6789246,0.2475662-0.9498367c0.1649628-0.2708473,0.3999901-0.479805,0.7049713-0.6269569
						c0.3048973-0.1470661,0.6600761-0.2206535,1.0655365-0.2206535c0.4053764,0,0.7596436,0.0735874,1.0628586,0.2206535
						c0.3031197,0.1471519,0.53722,0.3561096,0.7022934,0.6269569c0.1649628,0.2709122,0.2475433,0.5875034,0.2475433,0.9498367
						v0.0699539c0,0.362402-0.0825806,0.6780605-0.2475433,0.9471588c-0.1650734,0.2690754-0.3991737,0.47719-0.7022934,0.6242542
						c-0.303215,0.1471519-0.6574821,0.2206306-1.0628586,0.2206306
						C33.2644043,30.1640301,32.9092255,30.0905514,32.6043282,29.9433994z M34.7515488,29.3245068
						c0.2583122-0.2260132,0.3874779-0.5399017,0.3874779-0.9417553v-0.0861015
						c0-0.4053974-0.1291656-0.7219639-0.3874779-0.9498386c-0.2583084-0.2278061-0.6188698-0.341732-1.0816841-0.341732
						s-0.8243027,0.1139259-1.0843849,0.341732c-0.2601471,0.2278748-0.3901558,0.5444412-0.3901558,0.9498386v0.0861015
						c0,0.4018536,0.1300087,0.7157421,0.3901558,0.9417553c0.2600822,0.2260342,0.6215706,0.3390503,1.0843849,0.3390503
						S34.4932404,29.5505409,34.7515488,29.3245068z"/>
					<path style="fill:#D24A43;" d="M37.060257,26.5691795v3.0513153h2.5992661v0.4789619h-3.1374168v-3.5302773H37.060257z"/>
					<path style="fill:#D24A43;" d="M40.7573357,26.5691795v3.0513153h2.5992661v0.4789619h-3.1374207v-3.5302773H40.7573357z"/>
					<path style="fill:#D24A43;" d="M44.069706,29.8653603c-0.2924652-0.1991215-0.4386024-0.490572-0.4386024-0.8745022v-0.0538044
						h0.5381508v0.0538044c0,0.4592915,0.4071503,0.6888485,1.2216187,0.6888485
						c0.3623085,0,0.6385384-0.044836,0.8287544-0.1345482c0.1901054-0.0896263,0.2852249-0.2224026,0.2852249-0.398243v-0.0430393
						c0-0.1506748-0.0601425-0.2636929-0.1802902-0.3390312c-0.1202393-0.0753593-0.3328056-0.1326866-0.637722-0.172205
						l-0.8018456-0.1076355c-0.3910828-0.0501957-0.6843719-0.1515388-0.8798828-0.3040524
						c-0.1955757-0.1524696-0.2932854-0.3578815-0.2932854-0.61619v-0.0538292c0-0.3156605,0.1399307-0.5623627,0.4197693-0.7399521
						c0.2798195-0.1775894,0.6744537-0.2663956,1.1839371-0.2663956c0.5416756,0,0.9533615,0.0968704,1.2350655,0.2906075
						c0.2815895,0.193737,0.4224281,0.4754391,0.4224281,0.8449059v0.0538063H46.440258v-0.0538063
						c0-0.4340591-0.374939-0.6511688-1.1247253-0.6511688c-0.3444328,0-0.6072845,0.043972-0.7883987,0.1318474
						c-0.181221,0.0879631-0.2717743,0.2144279-0.2717743,0.3793907v0.0430622c0,0.1327763,0.0573502,0.2350292,0.1722069,0.3067551
						c0.1147881,0.0717926,0.3067551,0.1256218,0.5758286,0.1614399l0.8072243,0.102253
						c0.4269066,0.0538044,0.7399788,0.1579189,0.9390755,0.3121166c0.1991196,0.1543064,0.2986908,0.3731861,0.2986908,0.6565495
						v0.0538292c0,0.3264923-0.1453133,0.5794182-0.4359207,0.7587795c-0.2905846,0.179451-0.7068138,0.2690773-1.2485085,0.2690773
						C44.7935104,30.1640301,44.3620644,30.0644798,44.069706,29.8653603z"/>
				</g>
			</g>
		</g>
		<g>
			<g>
				<g>
					<g>
						<path style="fill:#D24A43;" d="M20.1325607,29.4755516l-2.1100578-4.1150951
							c0.0470924-0.0253582,0.0932808-0.0534153,0.1376534-0.0805874l0.0398426-0.0253601
							c0.0489044-0.029892,0.0941868-0.0579491,0.1394672-0.0851231c0.088747-0.0516243,0.1720543-0.1077824,0.2517605-0.1693573
							c0.2598972-0.1983223,0.4781513-0.4518967,0.6719532-0.7806225c0.2544823-0.4301643,0.383976-0.913765,0.383976-1.4390221
							c0-0.7987289-0.2879753-1.4906254-0.853981-2.0566292c-0.5660038-0.5660057-1.2579002-0.853981-2.0557327-0.853981H9.983429
							c-0.7978449,0-1.4897194,0.2879753-2.0557232,0.853981c-0.5669107,0.5660038-0.8540034,1.2579002-0.8540034,2.0566292
							c0,0.5252571,0.1286111,1.0088577,0.3830814,1.4390221c0.1204414,0.2037621,0.264441,0.3866959,0.42835,0.5469913
							c-0.0570536,0.0407467-0.1132011,0.0833073-0.1666284,0.1276817
							c-0.0416546,0.0334949-0.0824132,0.0688267-0.1213593,0.1059494
							c-0.1503229,0.1367455-0.2870703,0.2925091-0.4075232,0.4636803
							c-0.3432174,0.4853935-0.5180044,1.0450516-0.5180044,1.6626835c0,0.4193058,0.0778918,0.8141384,0.2318406,1.1745682
							c0.146708,0.3459473,0.3658686,0.6656303,0.649313,0.9490738c0.5841231,0.5841331,1.2986484,0.88027,2.1236548,0.88027
							h4.4872751v-4.4401932h2.2305222l2.12183,4.1929646l0.1240673,0.2472286h1.8275185L20.1325607,29.4755516z
							 M12.5562496,28.5626926H9.6764269c-0.3767357,0-0.6964169-0.1349335-0.9762468-0.412962
							c-0.0796938-0.0842152-0.1494274-0.1738682-0.2064705-0.2644291
							c-0.1439991-0.2291222-0.2137327-0.4772568-0.2137327-0.7589092c0-0.3957405,0.1367474-0.7253933,0.4165888-1.0061188
							l0.0072298-0.0081577c0.2707863-0.2834454,0.588644-0.4220047,0.9726315-0.4220047h2.8798227V28.5626926z
							 M12.5562496,24.1234074H9.983429c-0.3568153,0-0.6538458-0.1258926-0.9065132-0.3848839
							c-0.2662439-0.2807465-0.3957605-0.5940838-0.3957605-0.9581394c0-0.3694935,0.1277046-0.6773911,0.3903217-0.9391022
							l0.0063457-0.0063457L9.08325,21.8285904c0.2436132-0.2626171,0.5379362-0.3912277,0.9001789-0.3912277h2.5728207V24.1234074z
							 M16.737442,24.1234074h-2.57374v-2.6860447h2.57374c0.3622417,0,0.6565647,0.1286106,0.9001789,0.3912277
							l0.0054264,0.0063457l0.0063343,0.0063457c0.26264,0.2617111,0.3903217,0.5696087,0.3903217,0.9391022
							c0,0.3640556-0.1294937,0.677393-0.396656,0.9581394C17.3912983,23.9975147,17.0942554,24.1234074,16.737442,24.1234074z"/>
					</g>
				</g>
				<g>
					<g>
						<path style="fill:#D24A43;" d="M13.569623,35.984066c-6.0566001,0-10.9840212-4.9274235-10.9840212-10.9840221
							S7.5130229,14.0159349,13.569623,14.0159349s10.9840212,4.9275103,10.9840212,10.9841089
							S19.6262207,35.984066,13.569623,35.984066z M13.569623,15.5740385c-5.1975117,0-9.4260063,4.2284937-9.4260063,9.4260054
							s4.2284946,9.4259167,9.4260063,9.4259167s9.4260054-4.228405,9.4260054-9.4259167
							S18.7671337,15.5740385,13.569623,15.5740385z"/>
					</g>
				</g>
			</g>
			<g>
				<g>
					<path style="fill:#D24A43;" d="M33.0293961,23.0436878c0.1230087,0.2043037,0.1846581,0.4378471,0.1846581,0.7007885v0.08391
						c0,0.4756374-0.1875343,0.8463688-0.5623207,1.1120529c-0.3749123,0.2657986-0.9009037,0.3986397-1.5778351,0.3986397
						h-3.5668926v-5.5056h3.4074459c0.6825581,0,1.2085495,0.1315136,1.577816,0.3944321
						c0.3692856,0.2630711,0.5539207,0.635107,0.5539207,1.1162395v0.0839329c0,0.481266-0.1875343,0.853302-0.5623207,1.1162186
						C32.724369,22.6730919,32.9062538,22.8394947,33.0293961,23.0436878z M29.1939373,21.2602196v0.6714134h1.7205143
						c0.3021259,0,0.4532013-0.0978203,0.4532013-0.2937298v-0.083931c0-0.1957989-0.1510754-0.2937527-0.4532013-0.2937527
						H29.1939373z M31.4935398,23.5178642c0-0.2069397-0.1510754-0.3105202-0.4531994-0.3105202h-1.8464031v0.7049732h1.8464031
						c0.302124,0,0.4531994-0.1034698,0.4531994-0.3105431V23.5178642z"/>
					<path style="fill:#D24A43;" d="M39.5042648,22.8464508c-0.2601738,0.2741909-0.636528,0.4531994-1.1288033,0.5371304
						l1.485508,1.7037239v0.2517738H37.955822l-1.5610428-1.8967514h-0.6126671v1.8967514h-1.6869354v-5.5056h3.5836868
						c0.6882019,0,1.2295227,0.1650963,1.6239738,0.4951553c0.3944778,0.3302135,0.5916939,0.7834129,0.5916939,1.3596191v0.0839329
						C39.8945313,22.2142429,39.7644577,22.5723896,39.5042648,22.8464508z M35.7821121,22.1918259h1.8547935
						c0.3579941,0,0.5371323-0.1370296,0.5371323-0.4112663v-0.08391c0-0.2685661-0.1791382-0.4028492-0.5371323-0.4028492
						h-1.8547935V22.1918259z"/>
					<path style="fill:#D24A43;" d="M42.2109222,25.0998859c-0.5148468-0.2321033-0.9134903-0.5636234-1.1959648-0.9945164
						c-0.2825851-0.4308052-0.4238281-0.9287281-0.4238281-1.4939041v-0.0419769
						c0-0.5650654,0.141243-1.0629883,0.4238281-1.4939041c0.2824745-0.4307804,0.681118-0.7637196,1.1959648-0.9987259
						c0.5147133-0.2350063,1.1105919-0.352499,1.7876549-0.352499c0.6881828,0,1.2895775,0.1174927,1.8044243,0.352499
						c0.5147133,0.2350063,0.9119148,0.5665054,1.1917572,0.9945393c0.279705,0.4280148,0.4196396,0.9273987,0.4196396,1.4980907
						v0.0419769c0,0.5706921-0.1399345,1.070055-0.4196396,1.4980679c-0.2798424,0.4280567-0.6770439,0.7582493-1.1917572,0.9903526
						c-0.5148468,0.2322388-1.1162415,0.3482914-1.8044243,0.3482914
						C43.3215141,25.4481773,42.7256355,25.3321247,42.2109222,25.0998859z M45.2826614,23.572403
						c0.2740593-0.2041492,0.4112206-0.5161343,0.4112206-0.9357719v-0.08391c0-0.8392811-0.5651741-1.2589207-1.6953049-1.2589207
						c-0.5539246,0-0.9735641,0.1063499-1.2589188,0.3189163c-0.2853584,0.2127228-0.4280128,0.5259895-0.4280128,0.9400043v0.08391
						c0,0.4196377,0.1397743,0.7316227,0.4196167,0.9357719c0.2797318,0.2043247,0.7021179,0.3063564,1.2673149,0.3063564
						C44.5804138,23.8787594,45.0084457,23.7767277,45.2826614,23.572403z"/>
				</g>
			</g>
			<g>
				<g>
					<path style="fill:#D24A43;" d="M30.6051064,28.4150276c-0.2098866,0.182972-0.4977913,0.283474-0.8637371,0.3013725
						l1.162405,1.3023376v0.080719H30.290287l-1.2431488-1.3830566h-1.0440025v1.3830566H27.464983v-3.5302773h2.1741352
						c0.3982182,0,0.7111988,0.0941677,0.9390736,0.2825222c0.2277832,0.1883545,0.341732,0.4475956,0.341732,0.7776299v0.0699558
						C30.9199238,27.9935055,30.8149681,28.2320557,30.6051064,28.4150276z M30.3763905,27.613184
						c0-0.1793613-0.0655041-0.3183403-0.1964397-0.4170685c-0.1310062-0.0986195-0.3148174-0.147995-0.5515976-0.147995h-1.6252174
						v1.1947002h1.6252174c0.2367802,0,0.4205914-0.0492649,0.5515976-0.147995
						c0.1309357-0.0986176,0.1964397-0.2376194,0.1964397-0.4170475V27.613184z"/>
					<path style="fill:#D24A43;" d="M32.6043282,29.9433994c-0.3049812-0.1470642-0.5400085-0.3551788-0.7049713-0.6242542
						c-0.1650734-0.2690983-0.2475662-0.5847569-0.2475662-0.9471588v-0.0699539
						c0-0.3623333,0.0824928-0.6789246,0.2475662-0.9498367c0.1649628-0.2708473,0.3999901-0.479805,0.7049713-0.6269569
						c0.3048973-0.1470661,0.6600761-0.2206535,1.0655365-0.2206535c0.4053764,0,0.7596436,0.0735874,1.0628586,0.2206535
						c0.3031197,0.1471519,0.53722,0.3561096,0.7022934,0.6269569c0.1649628,0.2709122,0.2475433,0.5875034,0.2475433,0.9498367
						v0.0699539c0,0.362402-0.0825806,0.6780605-0.2475433,0.9471588c-0.1650734,0.2690754-0.3991737,0.47719-0.7022934,0.6242542
						c-0.303215,0.1471519-0.6574821,0.2206306-1.0628586,0.2206306
						C33.2644043,30.1640301,32.9092255,30.0905514,32.6043282,29.9433994z M34.7515488,29.3245068
						c0.2583122-0.2260132,0.3874779-0.5399017,0.3874779-0.9417553v-0.0861015
						c0-0.4053974-0.1291656-0.7219639-0.3874779-0.9498386c-0.2583084-0.2278061-0.6188698-0.341732-1.0816841-0.341732
						s-0.8243027,0.1139259-1.0843849,0.341732c-0.2601471,0.2278748-0.3901558,0.5444412-0.3901558,0.9498386v0.0861015
						c0,0.4018536,0.1300087,0.7157421,0.3901558,0.9417553c0.2600822,0.2260342,0.6215706,0.3390503,1.0843849,0.3390503
						S34.4932404,29.5505409,34.7515488,29.3245068z"/>
					<path style="fill:#D24A43;" d="M37.060257,26.5691795v3.0513153h2.5992661v0.4789619h-3.1374168v-3.5302773H37.060257z"/>
					<path style="fill:#D24A43;" d="M40.7573357,26.5691795v3.0513153h2.5992661v0.4789619h-3.1374207v-3.5302773H40.7573357z"/>
					<path style="fill:#D24A43;" d="M44.069706,29.8653603c-0.2924652-0.1991215-0.4386024-0.490572-0.4386024-0.8745022v-0.0538044
						h0.5381508v0.0538044c0,0.4592915,0.4071503,0.6888485,1.2216187,0.6888485
						c0.3623085,0,0.6385384-0.044836,0.8287544-0.1345482c0.1901054-0.0896263,0.2852249-0.2224026,0.2852249-0.398243v-0.0430393
						c0-0.1506748-0.0601425-0.2636929-0.1802902-0.3390312c-0.1202393-0.0753593-0.3328056-0.1326866-0.637722-0.172205
						l-0.8018456-0.1076355c-0.3910828-0.0501957-0.6843719-0.1515388-0.8798828-0.3040524
						c-0.1955757-0.1524696-0.2932854-0.3578815-0.2932854-0.61619v-0.0538292c0-0.3156605,0.1399307-0.5623627,0.4197693-0.7399521
						c0.2798195-0.1775894,0.6744537-0.2663956,1.1839371-0.2663956c0.5416756,0,0.9533615,0.0968704,1.2350655,0.2906075
						c0.2815895,0.193737,0.4224281,0.4754391,0.4224281,0.8449059v0.0538063H46.440258v-0.0538063
						c0-0.4340591-0.374939-0.6511688-1.1247253-0.6511688c-0.3444328,0-0.6072845,0.043972-0.7883987,0.1318474
						c-0.181221,0.0879631-0.2717743,0.2144279-0.2717743,0.3793907v0.0430622c0,0.1327763,0.0573502,0.2350292,0.1722069,0.3067551
						c0.1147881,0.0717926,0.3067551,0.1256218,0.5758286,0.1614399l0.8072243,0.102253
						c0.4269066,0.0538044,0.7399788,0.1579189,0.9390755,0.3121166c0.1991196,0.1543064,0.2986908,0.3731861,0.2986908,0.6565495
						v0.0538292c0,0.3264923-0.1453133,0.5794182-0.4359207,0.7587795c-0.2905846,0.179451-0.7068138,0.2690773-1.2485085,0.2690773
						C44.7935104,30.1640301,44.3620644,30.0644798,44.069706,29.8653603z"/>
				</g>
			</g>
		</g>
	</g>
</g>
</svg>
