<?xml version="1.0" encoding="utf-8"?>
<!-- Generator: Adobe Illustrator 23.1.0, SVG Export Plug-In . SVG Version: 6.00 Build 0)  -->
<svg version="1.1" id="Слой_1" xmlns="http://www.w3.org/2000/svg" xmlns:xlink="http://www.w3.org/1999/xlink" x="0px" y="0px"
	 viewBox="0 0 50 50" style="enable-background:new 0 0 50 50;" xml:space="preserve">
<rect style="display:none;" width="50" height="50"/>
<g>
	<path style="fill:#FFFFFF;" d="M18.7834015,12.996829c0.2081356-1.3875551,0.4045563-2.7766018,0.5911255-4.1672163
		c0.0891895-0.6642618-0.9565048-0.6576948-1.0447884,0c-0.174181,1.2979269-0.3594818,2.5943604-0.5538139,3.889451
		C17.6772671,13.376833,18.683857,13.6604939,18.7834015,12.996829z"/>
	<path style="fill:#FFFFFF;" d="M19.1550465,7.4221325c0.6722469,0,0.6733665-1.0448642,0-1.0448642
		C18.4827251,6.3772683,18.4816799,7.4221325,19.1550465,7.4221325z"/>
	<path style="fill:#FFFFFF;" d="M26.5035706,39.8876877c0.0505333-3.1207848,0.0603008-6.2393341-0.00597-9.3622818
		c0,0-0.0002975-0.0008965-0.0002975-0.0014935c12.1587334-1.1565075,9.3972168-17.6076813,6.4212723-25.7762909
		c-0.0356712-0.223361-0.1925392-0.41605-0.4874687-0.3976917c-4.9220009,0.305377-9.8536282,0.2476897-14.7791386,0.0594783
		c-0.028656-0.0010448-0.0490303,0.009851-0.0752239,0.0124631c-0.0480614-0.0001493-0.092762,0.0097761-0.1379128,0.0228357
		c-0.0028362,0.0010452-0.0063438,0.0012689-0.0091782,0.0023885c-0.1420822,0.0442543-0.2627659,0.1488075-0.3026905,0.3458996
		c-1.1569548,5.7077575-3.4598198,12.2674656-1.9695768,18.1233597c1.0330725,4.0593796,4.3768454,6.8606071,8.3295164,7.5211391
		c-0.0043392,0.0301495-0.0167274,0.0544033-0.0160561,0.0879116c0.066803,3.1443672,0.0567188,6.2841835,0.0050755,9.4264603
		c-1.6784534,0.0208969-9.3854895,0.0038795-8.9672012,3.1229477c0.3280735,2.4466743,6.9639778,2.4324951,8.6395855,2.5251808
		c2.658989,0.1471672,5.3241711-0.0267906,7.9501724-0.4651527c1.0609188-0.1770935,4.0085583-0.6804581,4.3556538-2.037487
		C36.2287674,40.0683594,28.3729229,39.9158974,26.5035706,39.8876877z M18.0499592,5.4663615
		c4.6652069,0.1714201,9.3354988,0.2170177,13.9976368-0.0546274c1.0006828,2.8409314,2.0150986,6.769711,2.3139076,10.6393871
		c-0.0564919,0.0069408-0.1134338,0.014925-0.1723137,0.0426121c-3.8359432,1.8056202-6.8265781,1.4510632-10.8237915,0.6611271
		c-2.5727196-0.5084381-5.0117798-0.2331371-7.4803925,0.4882164C16.1585178,13.2722797,17.2438297,9.340888,18.0499592,5.4663615z
		 M15.8265724,19.9908714c-0.0232086-0.5481415-0.0174627-1.0953865-0.002388-1.6421852
		c1.8822632-0.5847092,3.818182-0.9828472,5.8023109-0.8140392c1.6821117,0.1430607,3.2851162,0.7347851,4.9474506,0.9906826
		c2.8000336,0.4309025,5.3341694-0.250824,7.8505459-1.399271c0.2604485,6.2897797-1.5743484,12.1175404-8.7065277,12.4161263
		C19.9932671,29.781889,16.0590382,25.48773,15.8265724,19.9908714z M32.2214775,43.8512421
		c-2.809288,0.8480721-6.1563454,0.8654594-9.0731716,0.7040405c-1.8577003-0.1028366-4.9184189-0.0299263-6.5829926-1.0149384
		c-1.7542009-1.038147,0.6038876-1.7677841,1.7113647-2.0230865c1.6979313-0.3914948,3.448103-0.4970932,5.1848507-0.5200806
		c-0.0079956,0.3900795-0.0063534,0.7797852-0.0160561,1.1700897c-0.0167809,0.6725464,1.0280075,0.6722488,1.0447903,0
		c0.0964928-3.8713913,0.1073895-7.7352448,0.0257568-11.6070099c0.3101425,0.0218658,0.6225338,0.0308952,0.9374638,0.0261936
		c0.0810452,3.8628826,0.0702248,7.7181568-0.0260448,11.5808163c-0.0167923,0.6725464,1.0280724,0.6722488,1.0447884,0
		c0.0102997-0.4111977,0.0085831-0.8217278,0.0169506-1.2327766c1.7541161,0.0323143,3.5151081,0.1460457,5.2286377,0.544857
		c0.4355278,0.1013451,1.7457695,0.277317,2.026741,0.6703072C34.571434,43.3057137,32.8999939,43.646389,32.2214775,43.8512421z"/>
</g>
</svg>
