<?xml version="1.0" encoding="utf-8"?>
<!-- Generator: Adobe Illustrator 23.1.0, SVG Export Plug-In . SVG Version: 6.00 Build 0)  -->
<svg version="1.1" id="Слой_1" xmlns="http://www.w3.org/2000/svg" xmlns:xlink="http://www.w3.org/1999/xlink" x="0px" y="0px"
	 viewBox="0 0 50 50" style="enable-background:new 0 0 50 50;" xml:space="preserve">
<g style="display:none;">
	<rect style="display:inline;fill:#0D0E0F;" width="50" height="50"/>
</g>
<g>
	<g>
		<g>
			<g>
				<path style="fill:none;stroke:#FDF9E8;stroke-miterlimit:10;" d="M35.1256065,45.635849h-20.924572
					c-3.2754202,0-5.930666-2.2467422-5.930666-5.0182571l7.9699535-0.0821075c0,0,4.0661297,2.1096764,5.4048386,2.3516121
					c2.2637539,0.409111,6.4628792,0.2889748,8.297533-0.6666031c0.889225-0.46315,3.3062611-1.6029015,3.3062611-1.6029015
					h7.8073196C41.0562744,43.3891068,38.4010277,45.635849,35.1256065,45.635849z"/>
			</g>
		</g>
		<path style="fill:none;stroke:#FDF9E8;stroke-miterlimit:10;" d="M7.854239,23.8492794
			c0,10.6466389,7.5256667,19.2774487,16.8090744,19.2774487c9.2834263,0,16.8090916-8.6308098,16.8090916-19.2774487H7.854239z"/>
		<g>
			<path style="fill:#FDF9E8;" d="M37.9716187,38.959259c-1.0042686,0-1.9378967-0.1625595-2.6919975-0.5028534l1.6383667-2.0385246
				c1.2747574,0.5751534,3.4685745,0.1160316,5.484169-1.1856117c0.9045944-0.584137,1.9828453-1.6092072,1.9828453-3.1749077
				c0-1.8710766-1.5221825-3.3933811-3.3932724-3.3933811c-0.3322868,0,0.0325356,0.1774483-0.2820511,0.2715034
				l0.3465958-3.0967751c0.5423126-0.162075-0.634449,0.3773308-0.0645447,0.3773308
				c3.2207985,0,5.841198,2.6204166,5.841198,5.8413219c0,2.0813484-1.1019173,3.939167-3.1027031,5.2312508
				C42.0598221,38.3674774,39.8874207,38.959259,37.9716187,38.959259z"/>
		</g>
		<g>
			<g>
				<path style="fill:#FDF9E8;" d="M22.9197426,7.9682846c-0.463541,0.9082212-1.1847515,1.6567917-1.7366085,2.5142326
					c-1.2775669,1.9850435-1.571146,4.5865927-0.7081738,6.7838326c0.8629742,2.1972351,2.8806133,3.917738,5.1992493,4.3609848
					c-1.2527885-0.5592384-2.2566528-1.65201-2.7078056-2.9476566c-0.4511528-1.2956276-0.3431377-2.7755842,0.2913799-3.9919863
					c0.6078377-1.1652775,1.6431637-2.0475321,2.3697319-3.1427298c0.6804619-1.0256596,1.0781288-2.23102,1.182621-3.4574413
					c0.1192532-1.3996658-0.2040443-2.9398389-1.2741489-3.8498569c-0.9316387-0.7922657-2.1905518-1.0477686-3.1473694-1.8183088
					C23.4240665,4.1005239,23.8741188,6.0984459,22.9197426,7.9682846z"/>
			</g>
			<g>
				<path style="fill:#FDF9E8;" d="M26.9290924,20.3410416c-0.5843811-0.557579-1.2001076-1.1717148-1.3391132-1.9673843
					c-0.1380997-0.7904148,0.2283325-1.5752296,0.6199455-2.275568c0.3883152-0.6944761,0.8118477-1.3692331,1.268425-2.0208521
					c0.6373787-0.9096689,1.3787594-1.9392891,1.1334686-3.022604c0.8657608,1.129034,0.9754868,2.7843418,0.2663193,4.0177784
					c-0.2319107,0.4033403-0.5388737,0.7580814-0.7943783,1.146903c-0.5610695,0.8537769-0.8669338,1.8940067-0.7459526,2.9084625
					c0.1121883,0.9407825,0.5982399,1.6966972,1.284132,2.3199444
					C27.9649086,21.4727097,27.3686237,20.7604179,26.9290924,20.3410416z"/>
			</g>
		</g>
	</g>
</g>
</svg>
