<?xml version="1.0" encoding="utf-8"?>
<!-- Generator: Adobe Illustrator 23.1.0, SVG Export Plug-In . SVG Version: 6.00 Build 0)  -->
<svg version="1.1" id="Слой_1" xmlns="http://www.w3.org/2000/svg" xmlns:xlink="http://www.w3.org/1999/xlink" x="0px" y="0px"
	 viewBox="0 0 50 50" style="enable-background:new 0 0 50 50;" xml:space="preserve">
<g style="display:none;">
	<rect x="-0.0844297" y="-0.0590515" style="display:inline;fill:#0D0E0F;" width="50" height="50"/>
</g>
<g>
	<g>
		<path style="fill:none;stroke:#FFFFFF;stroke-miterlimit:10;" d="M29.2050724,27.8964844h-6.5415668
			c-0.6804829,0-1.2372475-0.5567665-1.2372475-1.2372494l0,0c0-0.6804848,0.5567646-1.2372494,1.2372475-1.2372494h6.5415668
			c0.6804829,0,1.2372303,0.5567646,1.2372303,1.2372494l0,0C30.4423027,27.3397179,29.8855553,27.8964844,29.2050724,27.8964844z"
			/>
	</g>
	<g>
		<path style="fill:none;stroke:#FFFFFF;stroke-miterlimit:10;" d="M27.7897186,18.7424145h-3.7108784l-2.0408134,2.9685116
			c-0.0670109,0.0974731,0.0027714,0.2301311,0.1210575,0.2301311h7.3641663c0.1971684,0,0.313488-0.2211285,0.2017879-0.383604
			L27.7897186,18.7424145z"/>
	</g>
	<g>
		<path style="fill:#FFFFFF;" d="M32.1721039,35.2475433c3.263958,1.3221893,5.4724159,2.7552261,5.4724159,4.6623573
			c0,1.3478813-0.4892578,2.4990234-1.454216,3.4214516c-2.4461479,2.3383675-7.2639542,2.5553894-8.967083,2.5554771
			c-0.34338,0-0.560051-0.008831-0.6052761-0.0108643l-9.2989216,0.0003281v-0.7527695h9.3158855
			c0.0794487,0.0031281,6.3303165,0.2507019,9.0360851-2.337101c0.8099899-0.7747574,1.2207565-1.7425156,1.2207565-2.8765221
			c0-1.4702187-2.043644-2.7404671-4.9028053-3.9145393"/>
		<path style="fill:#FFFFFF;" d="M20.9862099,32.2559929c-6.1627302-2.0974827-11.5242863-4.5031128-11.5242863-8.3901634
			c0-4.2152405,2.7709494-7.3938961,6.4455709-7.3938961c3.6932878,0,6.1408987,2.4935131,6.2432375,2.5996952l-0.5418015,0.5226116
			l0.2709007-0.2613068l-0.2705517,0.2616367c-0.022995-0.0236721-2.3365974-2.3698483-5.7017851-2.3698483
			c-3.24545,0-5.6927824,2.8550568-5.6927824,6.6411076c0,3.428894,5.3960876,5.7696304,11.230257,7.7492161"/>
	</g>
	<g>
		<path style="fill:#FFFFFF;" d="M23.2075539,20.6648769L23.2075539,20.6648769
			c-0.2213821,0.2213821-0.5836544,0.2213821-0.8050346,0l-1.3922367-1.3922367
			c-0.2213821-0.2213802-0.2213821-0.5836353,0-0.8050346l0,0c0.2213821-0.2213821,0.5836544-0.2213821,0.8050365,0
			l1.3922348,1.3922348C23.428936,20.0812397,23.428936,20.4434948,23.2075539,20.6648769z"/>
	</g>
	<g>
		<path style="fill:none;stroke:#FFFFFF;stroke-miterlimit:10;" d="M28.7193432,38.4005165h-5.6075459
			c-1.9351482,0-3.5184536-1.5833054-3.5184536-3.5184517l0,0c0-1.9351501,1.5833054-3.5184536,3.5184536-3.5184536h5.6075459
			c1.9351482,0,3.5184536,1.5833035,3.5184536,3.5184536l0,0C32.2377968,36.8172112,30.6544914,38.4005165,28.7193432,38.4005165z"
			/>
	</g>
	<g>
		<path style="fill:#FFFFFF;" d="M28.8680897,39.6149445h-5.9050388c-0.3339596,0-0.6072063-0.2732468-0.6072063-0.6072044l0,0
			c0-0.3339767,0.2732468-0.6072235,0.6072063-0.6072235h5.9050388c0.3339577,0,0.6072044,0.2732468,0.6072044,0.6072235l0,0
			C29.4752941,39.3416977,29.2020473,39.6149445,28.8680897,39.6149445z"/>
	</g>
	<g>
		
			<rect x="22.6853027" y="28.8622074" style="fill:none;stroke:#FFFFFF;stroke-miterlimit:10;" width="6.460535" height="2.5188541"/>
	</g>
	<g>
		<path style="fill:#FFFFFF;" d="M29.9612675,28.8622074h-8.0539742c-0.264555,0-0.4810352-0.2164631-0.4810352-0.4810371l0,0
			c0-0.2645741,0.2164803-0.4810543,0.4810352-0.4810543h8.0539742c0.2645741,0,0.4810352,0.2164803,0.4810352,0.4810543l0,0
			C30.4423027,28.6457443,30.2258415,28.8622074,29.9612675,28.8622074z"/>
	</g>
	<g>
		<path style="fill:#FFFFFF;" d="M29.9612675,25.4219856h-8.0539742c-0.264555,0-0.4810352-0.2164631-0.4810352-0.4810371l0,0
			c0-0.2645741,0.2164803-0.4810371,0.4810352-0.4810371h8.0539742c0.2645741,0,0.4810352,0.2164631,0.4810352,0.4810371l0,0
			C30.4423027,25.2055225,30.2258415,25.4219856,29.9612675,25.4219856z"/>
	</g>
	<g>
		<path style="fill:none;stroke:#FFFFFF;stroke-miterlimit:10;" d="M22.2617168,21.9410572h7.2354507
			c0.2714996,0,0.4915943,0.2200947,0.4915943,0.4915943v1.5690517c0,0.2530613-0.2051468,0.4582081-0.4582081,0.4582081H22.427927
			c-0.3027134,0-0.5481129-0.2453995-0.5481129-0.5481129v-1.5888386
			C21.8798141,22.1120415,22.0507984,21.9410572,22.2617168,21.9410572z"/>
	</g>
	<g>
		<path style="fill:none;stroke:#FFFFFF;stroke-width:0.5;stroke-miterlimit:10;" d="M28.23036,16.6204929l-4.5783672-0.0425053
			c0.7818661,0.4425564,0.4757233,1.2053947,0.4268475,2.1744728h3.7108784
			C27.7408619,17.7833824,27.4484921,17.0630493,28.23036,16.6204929z"/>
	</g>
	<g>
		<path style="fill:#FFFFFF;" d="M28.8388538,16.6350193h-5.8091297c-0.2267704,0-0.4123116-0.1855583-0.4123116-0.4123287l0,0
			c0-0.2267694,0.1855412-0.4123297,0.4123116-0.4123297h5.8091297c0.2267704,0,0.4123116,0.1855602,0.4123116,0.4123297l0,0
			C29.2511654,16.449461,29.0656242,16.6350193,28.8388538,16.6350193z"/>
	</g>
	<g>
		<path style="fill:none;stroke:#FFFFFF;stroke-width:0.5;stroke-miterlimit:10;" d="M32.1711578,11.7020874l-12.5085392,0.0242882
			c0,0.6375694,1.6310387,1.1746321,3.9999828,1.3909216c0.9424839,0.8976936,0.9396172,1.7953873-0.0098209,2.6930819h4.5629997
			c-0.9276924-0.8976946-0.9304924-1.7954235-0.0095768-2.6931171
			C30.5750256,12.9009552,32.1711578,12.3396225,32.1711578,11.7020874z"/>
	</g>
	<g>
		
			<rect x="24.3481598" y="8" style="fill:none;stroke:#FFFFFF;stroke-width:0.5;stroke-miterlimit:10;" width="3.1722584" height="3.3481541"/>
	</g>
	<g>
		<path style="fill:none;stroke:#FFFFFF;stroke-width:0.5;stroke-miterlimit:10;" d="M27.8613987,7.9354296h-3.8542366
			c-0.7211037,0-1.3056774-0.584558-1.3056774-1.3056784V3.2624779h6.4655914v3.3672733
			C29.1670761,7.3508716,28.5825195,7.9354296,27.8613987,7.9354296z"/>
	</g>
	<g>
		<polygon style="fill:#FFFFFF;" points="9.7442436,44.9823189 19.8129177,44.794117 19.8129177,46.2056122 9.7442436,46.0174103 		
			"/>
	</g>
	<g>
		<path style="fill:#FFFFFF;" d="M17.6999454,44.5745621h1.8843079c0.3921337,0,0.7100143,0.3178825,0.7100143,0.7100143v0.4305954
			c0,0.3921356-0.3178806,0.7100143-0.7100143,0.7100143h-1.8843079c-0.3921337,0-0.7100143-0.3178787-0.7100143-0.7100143
			v-0.4305954C16.9899311,44.8924446,17.3078117,44.5745621,17.6999454,44.5745621z"/>
	</g>
	<g>
		<path style="fill:#BB724F;" d="M9.9065123,44.794117L9.9065123,44.794117c0.2455072,0,0.4445543,0.1990318,0.4445543,0.4445572
			v0.5223846c0,0.2455254-0.1990471,0.4445534-0.4445543,0.4445534l0,0c-0.2455235,0-0.4445534-0.199028-0.4445534-0.4445534
			v-0.5223846C9.4619589,44.9931488,9.6609888,44.794117,9.9065123,44.794117z"/>
	</g>
	<g>
		<path style="fill:#FFFFFF;" d="M9.9065123,44.794117L9.9065123,44.794117c0.2455072,0,0.4445543,0.1990318,0.4445543,0.4445572
			v0.5223846c0,0.2455254-0.1990471,0.4445534-0.4445543,0.4445534l0,0c-0.2455235,0-0.4445534-0.199028-0.4445534-0.4445534
			v-0.5223846C9.4619589,44.9931488,9.6609888,44.794117,9.9065123,44.794117z"/>
	</g>
	<g>
		<path style="fill:#FFFFFF;" d="M32.2152863,11.9254122H19.6532917c-0.158741,0-0.2886295-0.1298885-0.2886295-0.2886295l0,0
			c0-0.15874,0.1298885-0.2886286,0.2886295-0.2886286h12.5619946c0.158741,0,0.2886314,0.1298885,0.2886314,0.2886286l0,0
			C32.5039177,11.7955236,32.3740273,11.9254122,32.2152863,11.9254122z"/>
	</g>
	<g>
		<path style="fill:#FFFFFF;" d="M28.6590748,20.7117558L28.6590748,20.7117558
			c0.2213821,0.2213821,0.5836544,0.2213821,0.8050365,0l1.3922348-1.3922367c0.2213821-0.2213802,0.2213821-0.5836353,0-0.8050346
			l0,0c-0.2213802-0.2213821-0.5836525-0.2213821-0.8050346,0l-1.3922367,1.3922348
			C28.4376945,20.1281185,28.4376945,20.4903736,28.6590748,20.7117558z"/>
	</g>
	<g>
		<path style="fill:#FFFFFF;" d="M10.5105543,45.2771378c-0.0471888,0-0.0858793-0.0376816-0.0869045-0.0850449
			c-0.001008-0.0480423,0.0370913-0.0877571,0.0850449-0.0887642l6.199439-0.1325684c0.0006771,0,0.0012856,0,0.0018768,0
			c0.0471897,0,0.0858784,0.0376854,0.0869045,0.0850296c0.0010071,0.0480423-0.0370903,0.0877571-0.0850449,0.0887833
			l-6.1994381,0.1325645C10.511754,45.2771378,10.5111456,45.2771378,10.5105543,45.2771378z"/>
	</g>
	<g>
		<path style="fill:#FFFFFF;" d="M26.1138268,45.5874062c-2.5154133,0-5.3094444-0.0888519-5.4959774-0.0949707
			c-0.0479546-0.0015297-0.0856361-0.0416641-0.0840187-0.0896149c0.0015278-0.0480423,0.0461636-0.0880013,0.0896149-0.0840225
			c0.0736618,0.0022964,7.373682,0.2345734,9.1108608-0.0430336c2.3110466-0.3692589,3.9263344-0.8057327,4.6712303-1.2622452
			c0.0410728-0.0250282,0.0944481-0.0122185,0.1194954,0.028698c0.025116,0.0408974,0.0122185,0.0944481-0.028698,0.1194954
			c-0.7750168,0.4750023-2.3679848,0.9075813-4.7345314,1.2856522
			C29.0949802,45.5539627,27.6567192,45.5874062,26.1138268,45.5874062z"/>
	</g>
</g>
</svg>
