<?xml version="1.0" encoding="utf-8"?>
<!-- Generator: Adobe Illustrator 23.1.0, SVG Export Plug-In . SVG Version: 6.00 Build 0)  -->
<svg version="1.1" xmlns="http://www.w3.org/2000/svg" xmlns:xlink="http://www.w3.org/1999/xlink" x="0px" y="0px"
	 viewBox="0 0 50 50" style="enable-background:new 0 0 50 50;" xml:space="preserve">
<g id="Слой_1" style="display:none;">
	<rect x="0.1935484" y="0" style="display:inline;" width="50" height="50"/>
</g>
<g id="Слой_2">
	<g style="display:none;">
		<polygon style="display:inline;fill:#CCCCCC;" points="6.3225808,16.2854691 9.3158865,15.7096777 13.7034407,15.8709679 
			17.669836,16.5806446 21.8307552,16.2854691 23.7419357,15.8709679 22.4193554,24.4255581 21.4838715,29.1935482 
			21.4838715,31.2478828 20.6451607,33.0018883 18.8598957,33.3548393 13.2580643,33.3548393 10.0638332,33.3548393 
			8.7096777,32.6129036 7.8278704,28.032259 		"/>
		<path style="display:inline;fill:#FFFFFF;" d="M14.5588551,23.1243153
			c0.4257507-0.5348454,1.1051989-1.2871189,1.0741377-2.0212879c-0.0353127-0.8352051-0.8089952-1.7114754-1.3838549-2.260025
			c-1.3296862-1.2687626-3.6116695-0.5973682-4.8226109,0.5324955c-0.57411,0.5822124-1.0624886,1.173378-0.9634523,2.0396442
			c0.087182,0.7624779,0.6811485,2.3488064,1.3422899,2.807724c0.569808,0.395546,1.9363575,0.3348236,2.5896463,0.3058624
			C13.400878,24.4841118,13.9530296,23.885294,14.5588551,23.1243153z M13.0258913,18.986805
			c-0.252593,0.3132648-0.500083,0.6306305-0.7558727,0.9413433c-0.2616491,0.3177662-0.5869684,0.5828133-0.8507147,0.8944263
			c-0.2124767-0.02981-0.4392099,0.0019016-0.6924524,0.0189571c-0.4698219,0.0315628-0.942194,0.0467682-1.410965,0.0934353
			c0.0911827-0.3717365,0.2830029-0.736969,0.6057749-1.0643387C10.6825352,19.1607685,11.9663544,18.700201,13.0258913,18.986805z
			 M11.2350368,23.7615986c-1.0879469-0.1979218-1.8817873-1.1155567-1.9752207-2.1250267
			c0.6073256-0.0754776,1.8791361-0.3552799,2.2924404,0.0895329c0.4880743,0.5252419,0.6835957,1.3571453,1.1010485,1.9486618
			C12.2357521,23.8189697,11.7698822,23.8588333,11.2350368,23.7615986z M13.2780333,23.3574009
			c-0.0035515-0.0054016-0.0032511-0.010603-0.0071487-0.0160561c-0.4737272-0.6573906-0.7063122-1.540863-1.2437582-2.1524353
			c0.2402372-0.2581444,0.512887-0.4921303,0.738019-0.7656307c0.3056116-0.3711357,0.5976686-0.7533245,0.90308-1.1246605
			c0.0033512-0.0040512,0.0036516-0.008503,0.006753-0.0125542c0.0261087,0.0178566,0.0535192,0.0328617,0.0789785,0.0521183
			c0.3621321,0.2738018,1.0945492,1.1564732,1.1537209,1.6622581c0.0546198,0.4674206-0.3814888,0.9968643-0.6274242,1.3382378
			C13.9771881,22.7593327,13.647522,23.1044083,13.2780333,23.3574009z"/>
		<path style="display:inline;fill:#FFFFFF;" d="M18.4792862,26.3051281
			c-1.3143845-0.6307316-3.6187754-0.7432232-4.5772257,0.5894146c-0.4742231,0.6593914-1.0048122,1.8950424-0.8675661,2.724844
			c0.1358538,0.8210011,0.9933119,1.3401909,1.6377974,1.7806511c0.7905893,0.5403481,1.5257082,0.9701557,2.4874582,0.7053585
			c0.6479874-0.1784172,1.9386082-0.4956322,2.3836212-1.0545368c0.5143871-0.6459351,0.6049194-2.3520088,0.4441109-3.1293926
			C19.8161697,27.0938148,19.1851902,26.6761627,18.4792862,26.3051281z M18.1258526,26.9097481
			c0.3633327,0.1909695,0.6535435,0.4945297,0.8611641,0.8528614c-0.4206028,0.089283-0.8370552,0.2023735-1.2544575,0.3041611
			c-0.2627449,0.0641232-0.5208397,0.1012878-0.739315,0.2051754c-0.3445797-0.2132778-0.7265205-0.3704357-1.0686951-0.5940666
			c-0.3463764-0.2263336-0.6864462-0.4621696-1.030776-0.6916027C15.827364,26.4044132,17.2302265,26.4799919,18.1258526,26.9097481
			z M13.7194939,29.4972935c-0.1029377-0.5175896,0.3102131-1.5834789,0.6388836-2.0350437
			c0.0083027,0.006403,0.0119543,0.0148048,0.0211077,0.0208073c0.4001961,0.2619457,0.7911386,0.5378475,1.1916351,0.7994919
			c0.3039112,0.1986237,0.6394835,0.3444767,0.9524984,0.5236416C16.2046509,29.552763,16.243866,30.44944,15.9844208,31.21562
			c-0.0039511,0.0116539-0.0012999,0.0209579-0.0040474,0.0322628c-0.3311205-0.0977859-0.6536922-0.2455406-0.9546528-0.452467
			C14.6561861,30.5412731,13.8266335,30.0356388,13.7194939,29.4972935z M18.4436684,30.8728447
			c-0.5588036,0.3745365-1.1706276,0.5296936-1.775198,0.4978313c0.2281342-0.7028065,0.173563-1.5386105,0.473423-2.2081547
			c0.1639652-0.3660851,0.562006-0.3674355,0.9210358-0.456068c0.3964462-0.0978851,0.7920895-0.2059746,1.1925354-0.2874546
			C19.4876537,29.3079243,19.2715759,30.3178425,18.4436684,30.8728447z"/>
		<path style="display:inline;fill:#FFFFFF;" d="M17.6628342,20.6044464
			c0.6564903,0.0885315,1.2534065-0.3871918,1.3773518-1.0252743c0.1298981-0.668745-0.2521915-1.1121063-0.8432064-1.3468418
			c-0.0659256-0.0261612-0.1232948-0.0260105-0.176115-0.015707c-0.6567898-0.0415649-1.3440914,0.2641468-1.4961967,0.9618511
			C16.376215,19.8591728,17.0159969,20.5172634,17.6628342,20.6044464z M17.2255745,19.2634563
			c0.1079884-0.3318214,0.4949799-0.3713856,0.7968903-0.3498783c0.2418385,0.0992374,0.3884926,0.2520428,0.333622,0.5303936
			c-0.0556698,0.2825527-0.3034554,0.5063343-0.599369,0.4661198
			C17.4757156,19.8719292,17.1256371,19.5706692,17.2255745,19.2634563z"/>
		<path style="display:inline;fill:#FFFFFF;" d="M20.0968227,22.04282c-0.0659695-0.0261593-0.1232948-0.0260086-0.176115-0.0157051
			c-0.6567402-0.0415649-1.3440895,0.2640972-1.4962463,0.9618511c-0.1484032,0.6807499,0.4913807,1.338789,1.1381664,1.425972
			c0.6564903,0.0885315,1.2534065-0.3871918,1.3773518-1.0252762C21.0698776,22.7209682,20.6878376,22.2775574,20.0968227,22.04282z
			 M20.2559357,23.2544632c-0.0556755,0.2826042-0.3035164,0.5063343-0.5994244,0.4661713
			c-0.2809525-0.0381641-0.6310253-0.3394756-0.5310936-0.646637c0.1079903-0.331871,0.4949818-0.3714352,0.796896-0.3499279
			C20.1641464,22.8233566,20.3108006,22.9761124,20.2559357,23.2544632z"/>
		<path style="display:inline;fill:#FFFFFF;" d="M11.0526705,27.1364803
			c-0.0659742-0.0261593-0.1233454-0.0260086-0.1761599-0.0156555c-0.6567402-0.0415649-1.3440952,0.2640972-1.4962006,0.9618015
			c-0.1484003,0.680748,0.4913788,1.3388386,1.1381655,1.4260197c0.6564894,0.0884838,1.2534075-0.3872414,1.3773527-1.0253239
			C12.0257254,27.8146286,11.6436357,27.3712158,11.0526705,27.1364803z M11.2117786,28.3481236
			c-0.055666,0.2826023-0.3034611,0.5063343-0.5994186,0.4661694c-0.2809029-0.0381641-0.631031-0.3394241-0.5310946-0.6466351
			c0.1079941-0.3318214,0.4949312-0.3713856,0.7968416-0.3499279
			C11.1199446,27.9170151,11.2665987,28.0697708,11.2117786,28.3481236z"/>
		<path style="display:inline;fill:#FFFFFF;" d="M24.0610199,9.6418428c0.1248951,0.126646,0.3729858,0.1439524,0.4951305,0
			c0.4162521-0.4902792,0.8389568-0.9787579,1.2149944-1.5009985c0.0952835-0.1323481,0.0398178-0.3131638-0.0547714-0.4243045
			c-1.1300125-1.3283849-4.494791-6.1416926-5.9675789-2.5213208c-0.5001812,1.2294493-0.7157097,2.6581707-1.0510826,3.938838
			c-0.1509018,0.576211-0.3012104,1.1526709-0.4499149,1.7295322c-4.1516657-0.0091534-8.3032312-0.1125412-12.4559479-0.1171427
			C5.732028,10.7463465,5.6814094,10.759901,5.6374431,10.781209c-0.1207938,0.0408649-0.2114773,0.1454029-0.1957211,0.3153648
			c0.4839807,5.22791,1.0863466,10.4470644,1.920351,15.6315584c0.2181296,1.3561954,0.4517651,2.709938,0.7068081,4.0596809
			c0.133749,0.7080097,0.119648,1.9199009,0.6285295,2.4773045c0.3876915,0.4247055,1.0644388,0.3425255,1.579627,0.3583336
			c1.3876562,0.0425644,2.771266,0.0833282,4.1598682,0.0780754c1.2232466-0.0046005,2.4463434-0.0264587,3.6695395-0.0369606
			c0.6891022-0.0059052,1.8248177,0.1526527,2.4679508-0.1816177c1.3647499-0.7093582,1.2001896-3.3966904,1.4064636-4.6983662
			c0.9274902-5.8523865,1.8549786-11.7047729,2.7824173-17.5571594c0.0339622-0.2141285-0.0891838-0.4513149-0.3376236-0.4432116
			c-1.1573238,0.0377131-2.3145962,0.0566206-3.4719181,0.0683746c0.2920074-1.1294127,0.6080723-2.2520723,0.9627514-3.363378
			C22.6349487,8.2031174,23.3497601,8.9207792,24.0610199,9.6418428z M17.669836,16.2261963
			c0.3447266-1.5608196,0.726265-3.113286,1.122261-4.6619511c0.419302,0,0.8385544,0.0001497,1.2578583-0.0022011
			c-0.3910427,1.5709734-0.7501736,3.15065-1.1274109,4.7234249C18.5058918,16.2817173,18.0882893,16.2611599,17.669836,16.2261963z
			 M16.9684811,16.1548214c-0.9190826-0.1066399-1.8412733-0.2650976-2.7643604-0.4326582
			c-2.6392136-0.4790249-4.9914217-0.5495005-7.574615,0.1834164c-0.1613092-1.484642-0.3138647-2.9701338-0.4530158-4.4569273
			c3.9650984,0.0102539,7.9292955,0.1037378,11.8934927,0.1150923
			C17.6811905,13.0889015,17.3060532,14.6175594,16.9684811,16.1548214z M21.8407097,25.2220325
			c-0.1783657,1.1254597-0.3567314,2.2509212-0.5350952,3.3763828c-0.1653118,1.0433292-0.1583538,2.3931236-0.5350456,3.3763828
			c-0.4683208,1.2222958-1.5687237,0.9800587-2.6641235,0.9895115c-1.1198578,0.0096512-2.2395668,0.0285606-3.3594265,0.0350609
			c-1.0545349,0.0061531-2.1090193,0.0024033-3.1632042-0.0269089c-0.4919796-0.0136566-1.1599693,0.0827789-1.636898-0.0652237
			c-0.9730549-0.30196-0.8750648-0.6176262-1.0259743-1.3876076c-0.4270058-2.1791458-0.798542-4.3689442-1.1316133-6.5642967
			c-0.4209538-2.7742615-0.7715816-5.5582294-1.0822453-8.3467464c3.4635143-1.007268,6.40979-0.2220821,9.8610048,0.251442
			c2.2591705,0.3099632,4.5711689,0.1874676,6.6992416-0.6399841C22.7917557,19.2206898,22.3162327,22.221386,21.8407097,25.2220325
			z M24.0162029,11.4944696c-0.2076244,1.3101778-0.4152508,2.6204062-0.6228771,3.9305849
			c-1.234251,0.5505009-2.4858074,0.7908382-3.7480183,0.8464088c0.375288-1.5713234,0.735569-3.1485491,1.1288166-4.7167721
			C21.8548145,11.5447874,22.9355087,11.5263805,24.0162029,11.4944696z M20.2290211,10.8599377
			c-0.4191036,0.0027008-0.8382072,0.0039015-1.2572594,0.0041513c0.1141911-0.4422617,0.2287331-0.8844728,0.3442249-1.3263845
			c0.3298206-1.2618608,0.4709721-3.0818748,1.1436176-4.2209911c0.8795223-1.4894936,1.9258537-0.2188797,2.6921844,0.5824127
			c0.3942432,0.4122505,1.8673306,1.6595063,1.8261662,2.1564875c-0.0210075,0.2541933-0.5757103,0.5959177-0.7076588,0.8410072
			c-0.0166054-0.029911-0.028511-0.0544701-0.0513191-0.091383c-0.5038834-0.814898-1.5293083-1.5441141-2.2133579-2.2188106
			c-0.19487-0.1922202-0.5027294-0.0929341-0.5852127,0.1545062C20.9680901,8.0978289,20.58395,9.4748316,20.2290211,10.8599377z"/>
		<path style="display:inline;fill:#FFFFFF;" d="M6.9857855,13.7172813
			c0.0974355,0.4250546,0.1687117,0.8556623,0.2406878,1.2856188c0.0741773,0.443512,0.7491236,0.2554436,0.6751966-0.1861181
			c-0.0809298-0.4835758-0.1612587-0.9682035-0.2782016-1.4447269c-0.0173063-0.0706758-0.100637-0.248291-0.0832305-0.3160658
			c-0.0140052-0.0148554-0.02806-0.0297604-0.0420651-0.0446157c0.0651736-0.0051022,0.1304474-0.0102043,0.1956754-0.0152559
			c0.2725997-0.013505,0.5431447,0.0061522,0.8134427,0.039464c0.4462128,0.0549202,0.4422121-0.6458349,0-0.700305
			c-0.4898243-0.0602722-1.5466647-0.2192802-1.679913,0.4792747C6.7719073,13.1054573,6.9217119,13.437829,6.9857855,13.7172813z"
			/>
		<path style="display:inline;fill:#FFFFFF;" d="M9.5934877,13.1266155c0.4505644,0,0.4513149-0.7003059,0-0.7003059
			C9.1428776,12.4263096,9.1421728,13.1266155,9.5934877,13.1266155z"/>
	</g>
	<g>
		<path style="fill:#D24A44;" d="M25.2338715,18.0483875c0,0-1.4274197,2.8064518,0.4838696,3.5564518
			s4.0403233,0.2816811,3.8951626-1.189806C29.467741,18.9435482,29.3225803,16.4032249,25.2338715,18.0483875z"/>
		<path style="fill:#FFFFFF;" d="M41.4375992,10.6834307c-2.2067413-0.0396748-4.4151382-0.0597115-6.6241417-0.0715876
			c0.4417992-0.5587015,0.8865166-1.1153469,1.3131218-1.6849298c0.3584785-0.4786215-0.4475021-0.9421167-0.8019905-0.4688025
			c-0.543644,0.7257614-1.1063271,1.4375906-1.6728554,2.1465664c-8.3512039-0.0304527-16.7131538,0.0873117-25.059309,0.0787535
			c-0.0636921-0.0042458-0.1255999,0.0037813-0.1844425,0.027998c-0.1684599,0.0508881-0.2659883,0.1851063-0.2945776,0.3408871
			c-0.0315208,0.1169691-0.0150671,0.2426949,0.0662069,0.3612556c0.0119429,0.0188427,0.0197716,0.0398741,0.0346403,0.0566597
			c0.0017176,0.0019236,0.0019169,0.0041132,0.0036421,0.0060377c2.9689283,3.2024679,6.0824261,6.1414738,9.2208691,9.1618881
			c1.3341579,1.2839985,2.6384583,2.6113892,3.9527779,3.9158897c0.5433102,0.5392609,1.3713779,1.6835365,2.2343426,2.4325848
			c0.0663471,3.2298698,0.0573235,6.4574146,0.0031185,9.686224c-1.4942493,0.0185776-8.3427763,0.0041122-7.9709721,2.7764587
			c0.2916584,2.1750946,6.1912346,2.162487,7.6808395,2.244957c2.3639183,0.1308365,4.7333412-0.0238838,7.067934-0.4136009
			c0.9431782-0.1573753,3.5637894-0.6048813,3.8722992-1.8113213c0.6888084-2.6934586-6.2983818-2.8284721-7.9584332-2.8535538
			c0.0527458-3.182827,0.0612373-6.364397-0.0032501-9.5482883c0.3146133-0.2750053,0.6007652-0.581192,0.8410053-0.795557
			c1.6797543-1.4983635,3.2689457-3.0966454,4.8308697-4.7162914c3.2497082-3.3696594,6.3683109-6.8659754,9.77672-10.0793896
			C42.0659637,11.1935005,41.8289108,10.6905298,41.4375992,10.6834307z M9.6149464,11.611084
			c7.7587318-0.0013933,15.5298691-0.1007137,23.2927189-0.0804119c-0.772541,0.9517374-1.5464706,1.9025459-2.3192062,2.8540173
			c-6.1433315-0.0232868-12.293829-0.4380178-18.4371605-0.1015759
			C11.2990141,13.4024992,10.4541607,12.5114689,9.6149464,11.611084z M25.3650837,38.6424103
			c-0.0144634,0.5979767,0.9143848,0.5977135,0.9288483,0c0.0088902-0.3654366,0.0070992-0.7306061,0.0144634-1.095974
			c1.5596676,0.0287285,3.1254406,0.129837,4.6490154,0.4843941c0.3871975,0.0900955,1.5520382,0.2466087,1.8018322,0.5959206
			c0.7351151,1.027771-0.7508392,1.3307076-1.3539944,1.5128288c-2.4975986,0.7539597-5.4732285,0.769352-8.0663795,0.625843
			c-1.651556-0.091423-4.3726158-0.0266037-5.8524685-0.9023094c-1.559536-0.9228745,0.5368729-1.5716095,1.521452-1.7985802
			c1.5093765-0.3479843,3.0650635-0.4419327,4.6088753-0.462368c-0.0070324,0.3467941-0.0052414,0.6934509-0.0136681,1.0402451
			c-0.0145283,0.5979767,0.9143848,0.5977135,0.9288483,0c0.0894356-3.6844063,0.0954723-7.3657627,0.0284634-11.0501041
			c0.1334209,0.0516834,0.2658482,0.0896339,0.3956947,0.1005821c0.1486168,0.0124722,0.2941074-0.0159245,0.4378128-0.0595798
			C25.4600925,31.3039818,25.4541874,34.9716682,25.3650837,38.6424103z M28.7815933,23.4765816
			c-0.5618954,0.5483532-1.1298771,1.0907993-1.7088223,1.6211052c-1.1215096,1.0272388-1.8365974,1.5177383-3.2348442,0.5874958
			c-1.188055-0.7903156-2.3081207-2.2686443-3.3467045-3.2722626c-1.1216507-1.0839653-2.1578388-2.2417755-3.3257389-3.277771
			c-1.4384537-1.2759724-2.8109589-2.6030293-4.1518831-3.9619341c5.6066561-0.2450171,11.2188864,0.0885725,16.8256111,0.1374035
			c-0.502964,0.6288958-0.9906082,1.268939-1.4763355,1.9103746c-1.3973198-0.7252979-3.3625622,0.0332394-4.0455971,1.4331455
			c-0.5433102,1.1134892-0.0709896,2.3816319,0.8066444,3.1861458c-0.408102,0.5837803-0.8755779,1.1215172-1.2696075,1.7161121
			c-0.3311348,0.4997215,0.4729156,0.9654045,0.8020592,0.4688034c0.3812981-0.5754871,0.8300571-1.0991592,1.2289314-1.6615105
			c0.0537415,0.0266056,0.1070175,0.054472,0.1620178,0.077692c1.2936859,0.54603,2.9106102-0.0161877,3.6681519-1.1810951
			c0.7932358-1.2197762,0.562418-2.7973576-0.5452995-3.5773258c0.6039562-0.7974815,1.2177849-1.5880642,1.8467484-2.3677645
			c1.920126,0.0013933,3.8393917-0.0410681,5.7575283-0.156909c-1.3516731,1.4129772-2.6853638,2.843668-4.0310669,4.2631454
			C31.4431992,20.7928104,30.1343193,22.1567554,28.7815933,23.4765816z M26.2768822,21.5276604
			c-0.7746601-0.4017258-1.5166092-1.4099236-1.2023277-2.296442c0.3467255-0.9781437,1.7265282-1.6432648,2.7072582-1.2489033
			c-0.0448494,0.061039-0.0934143,0.1194897-0.1379986,0.180727c-0.3522987,0.4837971,0.4532108,0.9478245,0.8020668,0.4688034
			c0.0575142-0.0789528,0.1200123-0.1543884,0.1779327-0.2331409C30.3733654,19.4151287,28.2800732,22.566843,26.2768822,21.5276604
			z M37.7367401,14.1686659c-1.9876022,0.1474876-3.9765244,0.2050762-5.9664555,0.2154932
			c0.7738056-0.9481544,1.5490551-1.8954468,2.3168774-2.8479795c2.0756454,0.0088234,4.150425,0.0285282,6.2243423,0.0607061
			C39.4393806,12.4406776,38.5816574,13.2984018,37.7367401,14.1686659z"/>
		<path style="fill:#FFFFFF;" d="M16.7999821,16.355505c-0.4341698-0.4106169-1.0921926,0.245018-0.6567631,0.6567612
			c0.7398338,0.6997547,1.4316864,1.4441605,2.07551,2.2332153c0.378109,0.4633636,1.0318184-0.1972466,0.6568279-0.6568279
			C18.2317333,17.7996635,17.5398827,17.0552597,16.7999821,16.355505z"/>
		<path style="fill:#FFFFFF;" d="M19.6000595,19.486187c-0.5977135,0-0.5987091,0.9288464,0,0.9288464
			C20.1977139,20.4150333,20.1987019,19.486187,19.6000595,19.486187z"/>
	</g>
</g>
</svg>
