<?xml version="1.0" encoding="utf-8"?>
<!-- Generator: Adobe Illustrator 23.1.0, SVG Export Plug-In . SVG Version: 6.00 Build 0)  -->
<svg version="1.1" id="Слой_1" xmlns="http://www.w3.org/2000/svg" xmlns:xlink="http://www.w3.org/1999/xlink" x="0px" y="0px"
	 viewBox="0 0 50 50" style="enable-background:new 0 0 50 50;" xml:space="preserve">
<rect style="display:none;" width="50" height="50"/>
<g>
	<path style="fill:#FFFFFF;" d="M41.8004913,33.7081413c0.0227966-2.518631,0.1059265-5.0450592,0.0685272-7.5636883
		c-0.0181961-1.2194176-0.1231918-2.4553661-0.5701752-3.6031857c-0.4701805-1.2077484-1.6487999-1.8159904-2.0697823-2.6947536
		c-0.6528282-1.3626118-0.6274376-3.6813164-0.869297-5.162921c-0.2844543-1.7429943-0.6083755-3.495389-0.773632-5.2549829
		c0.178524-0.2089243,0.4945107-0.379384,0.6363068-0.6493063c0.1886559-0.3589849,0.0060654-0.7228374-0.2115173-1.0495567
		c0.1034546,0.0058661,0.2161827,0.0147324,0.3521118,0.0273986c0.3258629,0.0304656,0.5007782-0.3209867,0.4499779-0.590642
		c-0.1161919-0.6171746-0.3284531-1.4996715-0.8643608-1.8940554c-0.7640381-0.5623102-2.3175735-0.3447189-3.1966705-0.3631849
		c-0.9124947-0.0191994-2.6408882-0.2484565-3.4921875,0.2235909c-0.6633739,0.367918-0.9282284,1.2988129-1.0970879,1.9847846
		c-0.0390663,0.1585937,0.0025425,0.2892547,0.0816631,0.3883171c0.0853958,0.1333947,0.2339897,0.2149248,0.4224491,0.1905255
		c0.0066662-0.0002666,0.0129318-0.0007997,0.0195332-0.0014c0.0175419-0.0029998,0.0322075,0.0015335,0.0503979-0.0034661
		c0.0744724-0.0205326,0.1415272-0.0299988,0.2103901-0.0423985c-0.1723919,0.3795176-0.3879833,0.8142328-0.198925,1.1872845
		c0.0827293,0.163126,0.2270584,0.3001871,0.3565845,0.4267159c0.0769978,0.0751963,0.1571274,0.1472607,0.2340584,0.2225237
		c0.0044651,0.0044003,0.0167313,0.0180664,0.0311317,0.034132c-0.3011208,3.2389994-0.9672928,6.4696665-1.5194702,9.6723347
		c-0.199192,1.1555519-0.9584274,1.3406773-1.5591354,2.3957672c-0.7051716,1.2385483-0.9352283,2.7110882-0.9956264,4.1170292
		c-0.2104568,4.9022655-0.199791,9.9466572-0.0095997,14.8484554c0.1459274,3.7605782,3.5191212,3.4872551,6.4323997,3.4237251
		c2.4533653-0.0535316,7.5127563,0.848896,8.0126038-2.6173592C42.0842781,38.9111252,41.7780991,36.1781044,41.8004913,33.7081413z
		 M37.9909248,18.4917679c-2.3628464,0.2343922-4.727684,0.2759895-7.0960503,0.11273
		c0.3145199-1.8242588,0.6538391-3.6575165,0.942627-5.4959068c1.7702713,0.1985254,3.5172539,0.0687304,5.2825165-0.1156616
		c0.2323227,1.4520063,0.4960442,2.9001465,0.7387009,4.3423538C37.9162598,17.6776695,37.9499817,18.0797195,37.9909248,18.4917679
		z M32.9863205,7.8528748c0.4418488-0.0079327,0.653038-0.1501937,0.8833618-0.1229949
		c0.3460655,0.0407987,0.6435738,0.2261906,0.9967613,0.2027917c0.1807251-0.0119996,0.6911049-0.2127247,0.8437653-0.2959208
		c0.0911942,0.0405979,0.3215179,0.1028624,0.3742485,0.1281281c0.1295967,0.0620637,0.359787,0.1983914,0.5119133,0.2175908
		c0.2086601,0.0261993,0.3100548-0.0019999,0.4126511-0.0486646c0.0935936,0.1595931,0.1894569,0.3276534,0.3070526,0.4525809
		c0.0047989,0.0089998,0.0096016,0.0179996,0.0144005,0.0269995c-0.0177345,0.0215321-0.0354652,0.0443316-0.0457306,0.0541306
		c-0.0550652,0.0529318-0.1138649,0.1027956-0.1730614,0.1523275c-0.0123978,0.0014668-0.0225983-0.0028-0.0353317-0.0004673
		c-1.692997,0.3134537-3.4859886,0.2677231-5.1884518,0.0704641c-0.0007229-0.0001335-0.0012665,0.0002003-0.0020008,0.0001335
		c-0.0853863-0.0829296-0.1723919-0.1608601-0.2555885-0.2237244c0.0007324-0.0042667,0.0013332-0.0059996,0.0020657-0.0107327
		c0.0156002-0.0466652,0.0325336-0.0928631,0.0508652-0.1385279c0.0807304-0.2101908,0.1725273-0.4155827,0.2525234-0.6259742
		C32.2598267,7.7646117,32.5782051,7.8602748,32.9863205,7.8528748z M32.2876167,9.6578007
		c1.4494057,0.1436605,2.9384117,0.1498604,4.385952-0.0494652c0.0801277,0.8226328,0.1865921,1.6439323,0.3078537,2.464365
		c-1.6711998,0.1718597-3.3264618,0.2841215-5.0019264,0.1126623C32.1011658,11.3437309,32.2064209,10.5012321,32.2876167,9.6578007
		z M34.7519798,5.8425579c0.6481094,0.0125327,1.5554695-0.0773301,2.1748428,0.1027956
		c0.4785156,0.1392612,0.6963081,0.4300489,0.8241692,0.7930341c-0.1726608-0.0195327-0.3426552-0.0270658-0.4841156,0.011333
		c-0.1455917,0.039465-0.2665787,0.1572599-0.3909836,0.2369232c-0.0435867,0.0279326-0.0655861,0.0492649-0.0887947,0.0708642
		c-0.3031235-0.0999293-0.6508408-0.3725181-0.9790268-0.3797846c-0.3429184-0.0076661-0.8970184,0.3290529-1.0636215,0.3323197
		c-0.1233292,0.0023999-0.6651726-0.2496567-0.9506874-0.2594562c-0.3041954-0.0103326-0.8095093,0.1998587-0.9679565,0.1882591
		c-0.1574059-0.0113997-0.6401863-0.3274531-0.9334393-0.3633852c-0.1474609-0.0181327-0.3127213-0.0063329-0.4807816,0.0147328
		C32.1067581,5.6493659,33.4813652,5.8180256,34.7519798,5.8425579z M40.9120598,28.7567444
		c-0.0257988,2.8440838-0.0515327,5.6881638-0.0773315,8.5323143c-0.009922,1.0947533,0.0596657,2.2277069-0.0300636,3.319397
		c-0.1761284,2.1427116-2.0760498,2.3528366-3.986702,2.373703c-2.0255165,0.0221329-4.6369438,0.5188446-6.5852623-0.0149994
		c-1.975584-0.541378-2.0133152-1.768261-2.0133152-3.3374634c0-4.5043488-0.1101303-9.0229607,0-13.5259075
		c0.018465-0.7527695,0.0674629-1.4984055,0.2307224-2.2370415c0.3149204-1.4251404,1.1403542-2.1041126,1.9207211-3.194334
		c0.235323-0.3286533,0.3222542-0.7301044,0.383728-1.1425533c2.4554195,0.1777916,4.9069881,0.1346607,7.3566837-0.1149292
		c0.0590668,0.3378525,0.1379967,0.6583729,0.2607231,0.9272289c0.0617332,0.1353951,0.0537987,0.2527218,0.150795,0.3833179
		c0.4133148,0.5563755,1.0307693,0.6344395,1.4699402,1.2663479c0.3573189,0.5141106,0.5487862,1.1436176,0.6965714,1.7443943
		C41.0852509,25.345953,40.9269257,27.1144791,40.9120598,28.7567444z"/>
	<path style="fill:#FFFFFF;" d="M34.3713303,25.5642109c-0.0335312,0.0002651-0.058197,0.0129318-0.0879288,0.0186653
		c-0.0127335,0.0008659-0.0231323-0.0037994-0.0361328-0.0020008c-6.4693336,0.9164963-6.4132023,14.7776566,0.6337852,13.8011627
		C41.6268959,38.4472771,41.272377,25.5022793,34.3713303,25.5642109z M34.7503929,38.4119453
		c-5.8308372,0.5721779-5.624979-11.0333443-0.343399-11.912508C40.140625,26.4963722,40.2881622,37.8685684,34.7503929,38.4119453z
		"/>
	<path style="fill:#FFFFFF;" d="M30.2062359,26.0402565c0.1752586-1.0520229,0.6383724-1.9658508,1.3984756-2.7161541
		c0.4281139-0.4225826-0.2319241-1.0824223-0.6599731-0.6599064c-0.8640308,0.8528976-1.4386082,1.9283199-1.6384659,3.1279373
		C29.2084103,26.3796425,30.1075726,26.6322994,30.2062359,26.0402565z"/>
	<path style="fill:#FFFFFF;" d="M32.0271721,22.3430099c0.6004982,0,0.6014977-0.9332943,0-0.9332943
		C31.426651,21.4097157,31.4256516,22.3430099,32.0271721,22.3430099z"/>
</g>
<g>
	<path style="fill:#FFFFFF;" d="M26.0494576,26.1263332c-0.0048847-0.0063648-0.0113544-0.0087318-0.0165348-0.0144653
		c-0.0086231-0.012579-0.0124321-0.025898-0.0239754-0.0379581c-0.5580349-0.5830421-2.1055393-0.4924412-2.8240948-0.5437908
		c-2.0996532-0.1500149-4.211298-0.1691036-6.3153934-0.1531963c-2.0762024,0.0157604-4.1592846,0.0657768-6.2284565,0.2469788
		c-0.7100468,0.0621891-2.4164457-0.0069542-2.9367442,0.6153774c-0.235363,0.2815685-0.1700668,0.7545147-0.1627789,1.0930195
		c0.0201254,0.9350872,0.1264124,1.871767,0.2244864,2.8010464c0.2918544,2.7645702,0.6716094,5.520628,1.0627608,8.2726574
		c0.1817541,1.278511,0.3719091,2.5557327,0.5621376,3.8329849c0.19489,1.3086662,0.5523739,1.4315643,1.8292961,1.5638199
		c2.1394997,0.2215271,4.293539,0.2686615,6.4429941,0.2302971c0.9951267-0.0177956,1.9898148-0.054718,2.9839458-0.1026611
		c0.8821487-0.0425453,2.1407585,0.1113548,2.9731483-0.1863823c1.2209854-0.4367256,1.2952347-2.8072624,1.4779167-3.8856316
		c0.3712826-2.1914787,0.5066471-4.4123688,0.730545-6.6213799c0.1448326-1.4286041,0.3211174-2.8476238,0.3922558-4.2829227
		C26.2569618,28.2282829,26.54212,26.7686787,26.0494576,26.1263332z M25.7030354,28.9541264
		c-0.0466137,0.9403782-0.1247101,1.8785362-0.2290745,2.8141422c-0.1816082,1.6278191-0.3196716,3.258934-0.4824486,4.8886795
		c-0.1767673,1.770401-0.2485008,3.9957275-0.9672775,5.6537018c-0.5025043,1.1589813-1.2527275,0.9880638-2.3886242,1.0505867
		c-0.9084892,0.0499802-1.817421,0.0932274-2.7268314,0.1225624c-1.8240833,0.0587845-3.6513815,0.0671844-5.4744625-0.0282631
		c-0.8197746-0.0429153-1.6432114-0.0986671-2.4585829-0.1959648c-0.9716015-0.1159058-0.9842176-0.4875565-1.1057463-1.2923851
		c-0.1693258-1.1211739-0.3338804-2.2430878-0.4942913-3.365593c-0.3614416-2.5285759-0.7085667-5.0601883-0.9962406-7.5983467
		c-0.0991468-0.874712-0.1938543-1.7505703-0.2602234-2.6284637c-0.0257854-0.3408718-0.251123-1.4149513-0.0449858-1.7267818
		c0.3534536-0.5346165,2.1773453-0.4744263,2.7687864-0.5231476c1.6938934-0.1395454,3.3958158-0.1927814,5.0948153-0.2193069
		c2.0308447-0.0316315,4.0650568-0.0206432,6.0941648,0.0755806c0.7933598,0.0375862,1.590456,0.0808334,2.3790798,0.1789455
		c0.282198,0.0351086,0.9755268,0.0422115,1.2166576,0.2689915C25.9770203,26.9692287,25.7308559,28.39328,25.7030354,28.9541264z"
		/>
	<path style="fill:#FFFFFF;" d="M15.9084768,32.452343c-1.2015295-1.3024101-3.3008528-0.6997967-4.4240971,0.4250755
		c-0.5841894,0.6358337-0.9830341,1.2266846-0.828764,2.1147499c0.1220121,0.7023506,0.5490437,1.9173813,1.0790358,2.4079742
		c0.5104952,0.472538,1.7633705,0.4255524,2.4229927,0.3943291c0.8873672-0.0419502,1.3535061-0.5819702,1.871067-1.2653427
		c0.4030952-0.5322838,1.0530243-1.2876511,1.0319386-2.0035057C17.0387478,33.7817268,16.3870792,32.971199,15.9084768,32.452343z
		 M14.8544874,32.3923035c-0.277689,0.3635864-0.542943,0.7366066-0.8225155,1.0987892
		c-0.2297392,0.2976265-0.5136395,0.5487862-0.7477074,0.8398628c-0.1706219-0.0314445-0.3585939-0.0105438-0.583746,0.0064011
		c-0.4660635,0.0351067-0.9354572,0.0482025-1.4001493,0.1001816c0.0732098-0.4472351,0.252306-0.8696442,0.5502243-1.1939049
		C12.5886459,32.504509,13.8474407,32.031044,14.8544874,32.3923035z M12.9086533,37.1981125
		c-1.0583181-0.2031784-1.6235294-1.2179909-1.646759-2.2407188c0.6092691-0.0760612,1.7994013-0.3543015,2.1970978,0.1609268
		c0.430068,0.557148,0.6045399,1.3125114,0.9999409,1.8990326c0.0136137,0.0202751,0.0310383,0.031929,0.0471687,0.0465775
		C14.0465479,37.2593002,13.5252533,37.3164978,12.9086533,37.1981125z M15.9146519,35.8000679
		c-0.2950354,0.4375038-0.6163006,0.7833328-0.9776316,1.0308685c-0.0071402-0.0247498-0.0137224-0.0495377-0.0308914-0.0749893
		c-0.4441595-0.6589203-0.6419754-1.5007057-1.143074-2.118412c-0.012208-0.0150223-0.0243797-0.0252686-0.0365477-0.0389938
		c0.235507-0.2941856,0.5281382-0.5530777,0.7592096-0.8544388c0.2814617-0.3671036,0.5501537-0.743824,0.8313904-1.1110382
		c0.0777645,0.0553818,0.1533823,0.1160927,0.2251186,0.1855316c0.3283281,0.3177872,0.905488,1.0937958,0.9742632,1.5723648
		C16.5883694,34.8914299,16.1748009,35.4142456,15.9146519,35.8000679z"/>
	<path style="fill:#FFFFFF;" d="M21.8410091,35.0871735c-1.2397041-0.6385384-3.3718452-0.6700554-4.1838875,0.6746788
		c-0.4099808,0.6789703-0.8746376,1.8240051-0.6926975,2.6275749c0.15168,0.6696129,0.9081936,1.1503983,1.4270496,1.5334091
		c0.7045708,0.5201874,1.3695583,0.9670906,2.2565899,0.7067184c0.6089382-0.1787605,1.7557125-0.5013962,2.1578121-1.0277596
		c0.4403896-0.5764961,0.5183372-2.2835617,0.3907051-2.9545403C23.0480461,35.8663254,22.4991131,35.458416,21.8410091,35.0871735z
		 M21.5795994,35.5343704c0.4688015,0.2644768,0.7639484,0.5615845,0.935051,0.9556198
		c-0.0029964,0.000515-0.0053654-0.0005951-0.0083618,0.0000343c-0.490036,0.1016655-0.9697475,0.2531204-1.4546471,0.3760185
		c-0.1904507,0.048317-0.419117,0.0591202-0.6058311,0.1302986c-0.3053932-0.1972237-0.6426411-0.3500862-0.9428902-0.5606995
		c-0.3424664-0.2402077-0.6770878-0.4913292-1.0182552-0.7332802
		C19.3292255,35.0449982,20.6446972,35.0528412,21.5795994,35.5343704z M17.4544621,38.1495132
		c-0.0739498-0.4832649,0.2692509-1.4079208,0.4885941-1.8126488c0.0527554-0.0973701,0.1138706-0.1858635,0.1786861-0.2700615
		c0.0104332,0.0099525,0.0165005,0.0217171,0.0292263,0.0306664c0.3665104,0.2575607,0.7237759,0.5281448,1.0905418,0.785408
		c0.2752419,0.1930389,0.5820065,0.3368759,0.8667202,0.5111618c-0.0973682,0.330513-0.1235638,0.7659836-0.1827183,1.0892448
		c-0.0834618,0.4560776-0.1376591,0.9334602-0.2774639,1.3767738c-0.0189743,0.0600433-0.0117264,0.1109085,0.0052528,0.1561928
		c-0.2941837-0.0850525-0.5747929-0.2327385-0.8586559-0.4355087
		C18.3653545,39.2740898,17.5441017,38.7353706,17.4544621,38.1495132z M22.4375153,39.1446075
		c-0.2505302,0.3958855-1.1781464,0.7503357-1.6333694,0.8711624c-0.2526779,0.06707-0.4857464,0.0878639-0.7083817,0.0755043
		c0.0215302-0.0253754,0.0398064-0.0557861,0.0516815-0.0935211c0.2250786-0.7136002,0.374649-1.5564575,0.4687271-2.2980614
		c0.0343342-0.2705841-0.0335903-0.1656265,0.1911163-0.2485695c0.1564903-0.0577888,0.3489418-0.0770264,0.5111618-0.1191635
		c0.4410915-0.1146469,0.8790398-0.2498627,1.3255348-0.3424988c0.0047722-0.0009995,0.0072498-0.0039597,0.011837-0.0051422
		c0.0240841,0.1416168,0.0419941,0.2902641,0.0478725,0.4555588C22.7187881,37.8655777,22.67976,38.7618217,22.4375153,39.1446075z"
		/>
	<path style="fill:#FFFFFF;" d="M9.386055,29.8919888c-0.0723991-0.4088707-0.1447992-0.8176651-0.2172356-1.2264614
		C9.0788136,28.157362,8.88799,27.4521618,9.6456499,27.4839783c0.3332882,0.0140209,0.3326225-0.5039463,0-0.517931
		c-1.6992216-0.0714016-0.9301281,2.0975475-0.7589912,3.0636005C8.9446669,30.3573132,9.4439154,30.2184334,9.386055,29.8919888z"
		/>
	<path style="fill:#FFFFFF;" d="M10.6128492,27.4172382c0.333252,0,0.333807-0.5179672,0-0.5179672
		C10.2795973,26.899271,10.2790051,27.4172382,10.6128492,27.4172382z"/>
	<path style="fill:#FFFFFF;" d="M23.2220707,30.9052849c-1.5667057,0.2155323-2.9916077,0.3642902-4.5751457,0.1160164
		c-1.6190166-0.2538986-3.2326317-0.7185192-4.8785429-0.7621365c-0.9827003-0.0260448-1.9819746,0.0602283-2.9564629,0.1767616
		c-0.4618835,0.0552349-1.2062616,0.0175743-1.5542746,0.3561897c-0.4111605,0.4001389-0.1976986,0.9930954-0.1382132,1.4866123
		c0.1250067,1.0371933,0.1929293,2.0803413,0.3055058,3.1187935c0.2221918,2.04953,0.6917706,4.063282,1.0644989,6.088726
		c0.0245247,0.1331825,0.1218224,0.186161,0.2244463,0.1837578c0.0091009,0.0012932,0.0156517,0.0059166,0.0252705,0.0063629
		c4.2271299,0.1995888,8.4924049,0.1842728,12.7222748,0.0532722c0.1054039-0.0032578,0.2294083-0.0773926,0.2497177-0.1901169
		c0.5382786-2.9870605,0.8221779-6.0820694,1.1353455-9.1045685C25.0033836,30.9203415,24.7498569,30.6951523,23.2220707,30.9052849
		z M24.3285198,32.4349556c-0.1385479,1.3372269-0.3379498,2.6701965-0.493515,4.0063858
		c-0.1190834,1.0229874-0.219492,2.0482674-0.3410206,3.0709229c-0.0314083,0.264183-0.1034756,1.6153908-0.267437,1.7038841
		c-0.183567,0.0991096-0.7247715-0.0017395-0.9306126-0.0030708c-3.7870026-0.0246391-7.5539894,0.1200867-11.3406963-0.0466499
		c-0.4649906-2.521328-0.9399338-5.0024757-1.1821775-7.5595779c-0.0463181-0.4890366-0.2888575-1.2812119-0.1889715-1.7550468
		c0.2068033-0.9809246,0.8790808-0.8647957,1.64081-0.9433002c1.0578337-0.109024,2.1404219-0.1901169,3.2013664-0.0850887
		c1.8357697,0.1817207,3.6187115,0.7417889,5.4618435,0.8644276c0.799057,0.0531254,1.5893459,0.0228634,2.3795242-0.1003304
		c0.412426-0.0642986,0.8558083-0.2029552,1.27178-0.2050266C24.3625946,31.3783779,24.4008083,31.7373772,24.3285198,32.4349556z"
		/>
</g>
</svg>
