<?xml version="1.0" encoding="utf-8"?>
<!-- Generator: Adobe Illustrator 23.1.0, SVG Export Plug-In . SVG Version: 6.00 Build 0)  -->
<svg version="1.1" id="Слой_1" xmlns="http://www.w3.org/2000/svg" xmlns:xlink="http://www.w3.org/1999/xlink" x="0px" y="0px"
	 viewBox="0 0 50 50" style="enable-background:new 0 0 50 50;" xml:space="preserve">
<rect style="display:none;" width="50" height="50"/>
<g>
	<path style="fill:#FFFFFF;" d="M23.5011654,31.0674686c0.5955791-0.7481899,1.5460548-1.8005409,1.5026016-2.8275623
		c-0.0493984-1.1683617-1.1316967-2.3941689-1.9358635-3.1615314c-1.8600845-1.7748623-5.0523338-0.8356533-6.7463093,0.7449017
		c-0.8031178,0.8144531-1.4863062,1.6414299-1.347765,2.8532429c0.1219578,1.0666256,0.9528532,3.2857285,1.877718,3.927702
		c0.7971001,0.5533257,2.7087536,0.46838,3.6226349,0.4278679C21.8812809,32.969677,22.6536808,32.1319962,23.5011654,31.0674686z
		 M21.3567142,25.2795391c-0.3533497,0.4382229-0.6995602,0.8821831-1.0573826,1.3168373
		c-0.3660202,0.444521-0.821106,0.8152924-1.1900578,1.2512074c-0.2972336-0.0417023-0.6144085,0.0026588-0.9686661,0.0265179
		c-0.6572304,0.0441513-1.3180275,0.0654221-1.9737873,0.1307049c0.1275539-0.5200195,0.3958893-1.030941,0.847414-1.4888954
		C18.0786133,25.5228958,19.8745365,24.8786106,21.3567142,25.2795391z M18.8515034,31.9589577
		c-1.5219193-0.2768707-2.6324158-1.5605431-2.7631207-2.972681c0.8495827-0.1055851,2.6287079-0.4969978,3.2068768,0.125248
		c0.6827641,0.7347546,0.9562759,1.8984985,1.540247,2.7259655C20.2513962,32.0392151,19.5996952,32.0949821,18.8515034,31.9589577z
		 M21.7094345,31.3935299c-0.0049686-0.0075569-0.004549-0.0148335-0.0100002-0.0224609
		c-0.662693-0.9196167-0.9880543-2.1555004-1.7398834-3.0110245c0.3360672-0.3611164,0.717474-0.6884365,1.0324097-1.0710335
		c0.4275169-0.5191784,0.8360729-1.0538197,1.2633114-1.5732784c0.0046864-0.0056667,0.0051079-0.0118942,0.0094452-0.0175629
		c0.0365238,0.0249805,0.0748672,0.0459709,0.1104832,0.0729103c0.5065842,0.3830166,1.5311565,1.6177788,1.6139317,2.3253174
		c0.0764065,0.6538696-0.5336628,1.3945045-0.8777008,1.8720512C22.6874771,30.5568962,22.2263088,31.0396214,21.7094345,31.3935299
		z"/>
	<path style="fill:#FFFFFF;" d="M28.985424,35.5170784c-1.8386803-0.8823204-5.0622749-1.0396843-6.4030418,0.8245277
		c-0.6633873,0.9224167-1.4056244,2.650959-1.2136326,3.8117638c0.1900444,1.1484909,1.3895359,1.8747826,2.2911015,2.4909363
		c1.1059475,0.7558899,2.1343002,1.3571434,3.4796848,0.986721c0.9064636-0.2495842,2.7119026-0.6933327,3.3344269-1.4751816
		c0.719574-0.903595,0.84622-3.2902031,0.6212654-4.3776817C30.8555794,36.620369,29.9729061,36.0361176,28.985424,35.5170784z
		 M28.4910088,36.3628807c0.5082645,0.2671432,0.9142361,0.6917915,1.2046757,1.193058
		c-0.5883789,0.124897-1.1709499,0.2831001-1.7548504,0.4254875c-0.3675537,0.0897026-0.7285995,0.1416931-1.0342216,0.2870178
		c-0.4820309-0.2983513-1.0163231-0.5181961-1.4949894-0.8310356c-0.4845428-0.3166122-0.9602642-0.6465225-1.4419441-0.9674759
		C25.275671,35.6559715,27.2381248,35.7616959,28.4910088,36.3628807z M22.3269901,39.9825745
		c-0.1439991-0.7240524,0.4339542-2.2151146,0.8937283-2.8468056c0.0116158,0.0089569,0.0167236,0.02071,0.0295277,0.0291061
		c0.5598316,0.366436,1.1067181,0.7523918,1.6669693,1.1184044c0.4251385,0.2778511,0.8945675,0.481884,1.3324413,0.7325172
		c-0.4461994,1.0443726-0.3913441,2.2987289-0.7542782,3.370533c-0.0055275,0.0163002-0.0018196,0.0293159-0.0056629,0.0451279
		c-0.4632015-0.1367912-0.914444-0.343483-1.3354549-0.6329498C23.6373215,41.4429893,22.4768658,40.7356644,22.3269901,39.9825745z
		 M28.9356003,41.9068222c-0.7817078,0.5239372-1.6375809,0.7409859-2.4833107,0.6964149
		c0.3191338-0.9831505,0.2427959-2.1523514,0.6622677-3.088974c0.2293682-0.5121117,0.7861843-0.5139999,1.2884293-0.6379852
		c0.5545845-0.1369324,1.1080475-0.2881393,1.6682281-0.4021187C30.3960228,39.7176666,30.0937519,41.1304359,28.9356003,41.9068222
		z"/>
	<path style="fill:#FFFFFF;" d="M27.8432961,27.5424442c0.9183578,0.1238461,1.7533817-0.5416393,1.9267673-1.434248
		c0.1817131-0.9355011-0.3527889-1.5557175-1.1795559-1.8840866c-0.0922203-0.0365944-0.1724777-0.0363846-0.2463646-0.0219707
		c-0.9187794-0.0581455-1.8802376,0.3695126-2.0930176,1.3455257
		C26.0434551,26.4998875,26.9384422,27.4204845,27.8432961,27.5424442z M27.231617,25.666544
		c0.1510658-0.4641819,0.6924248-0.5195274,1.1147652-0.4894409c0.3383045,0.1388206,0.543457,0.3525791,0.4666996,0.7419624
		c-0.077877,0.3952618-0.4245033,0.7083092-0.8384514,0.6520519C27.5815372,26.5177307,27.0918159,26.0963001,27.231617,25.666544z"
		/>
	<path style="fill:#FFFFFF;" d="M31.2481823,29.554575c-0.0922832-0.0365944-0.1724758-0.0363846-0.2463646-0.0219707
		c-0.9187069-0.0581455-1.8802376,0.369442-2.0930862,1.3455257c-0.2076015,0.9522934,0.6873856,1.8728199,1.5921707,1.9947796
		c0.9183578,0.1238441,1.7533817-0.5416412,1.9267673-1.4342499C32.6093826,30.5032291,32.0749512,29.8829441,31.2481823,29.554575z
		 M31.4707642,31.2495308c-0.0778828,0.3953323-0.4245853,0.7083073-0.8385277,0.6521225
		c-0.3930225-0.0533886-0.8827381-0.4748878-0.7429447-0.9045734c0.1510658-0.4642525,0.6924248-0.5195999,1.1147709-0.4895115
		C31.3423634,30.6464577,31.5475159,30.8601475,31.4707642,31.2495308z"/>
	<path style="fill:#FFFFFF;" d="M18.5963936,36.6800537c-0.0922909-0.0365944-0.1725464-0.0363846-0.2464294-0.0219002
		c-0.9187088-0.0581474-1.8802433,0.369442-2.0930233,1.3454552c-0.2075958,0.9522934,0.6873875,1.8728905,1.5921707,1.9948502
		c0.9183578,0.1237755,1.7533817-0.5417099,1.9267673-1.4343185C19.957592,37.6287079,19.42309,37.0084229,18.5963936,36.6800537z
		 M18.8189678,38.3750114c-0.0778713,0.3953285-0.424509,0.7083054-0.838522,0.6521187
		c-0.392952-0.0533867-0.8827438-0.4748154-0.7429428-0.9045715c0.1510715-0.4641838,0.6923542-0.5195274,1.1146946-0.4895134
		C18.6905022,37.7719383,18.8956547,37.9856262,18.8189678,38.3750114z"/>
	<path style="fill:#FFFFFF;" d="M36.7936668,12.2069483c0.1747131,0.1771641,0.5217667,0.2013741,0.6926346,0
		c0.5822906-0.6858473,1.1736069-1.3691759,1.6996422-2.0997334c0.1332932-0.1851416,0.0557022-0.4380836-0.0766144-0.5935574
		c-1.5807686-1.8582668-6.2877274-8.5915632-8.3479996-3.5270543c-0.6997013,1.7198658-1.0012016,3.718493-1.4703522,5.5100083
		c-0.2110939,0.806056-0.42136,1.612462-0.6293812,2.4194269c-5.8077316-0.012804-11.6153221-0.1574326-17.4245224-0.1638699
		c-0.083684-0.0001392-0.1544943,0.0188227-0.2159977,0.0486298c-0.1689777,0.0571651-0.2958336,0.2034025-0.2737932,0.4411612
		c0.6770363,7.3132792,1.519681,14.6143122,2.6863632,21.8668594c0.3051395,1.897171,0.6319704,3.7909126,0.9887476,5.6790543
		c0.1871004,0.9904289,0.1673746,2.6857338,0.8792448,3.4654808c0.5423393,0.5941162,1.4890356,0.4791565,2.2097273,0.5012665
		c1.9411812,0.0595436,3.8767014,0.1165695,5.8192062,0.1092224c1.7111893-0.0064354,3.4221687-0.037014,5.1332893-0.0517044
		c0.9639778-0.0082588,2.552721,0.2135468,3.4523964-0.2540627c1.9091358-0.9923172,1.6789341-4.7516022,1.9674892-6.572506
		c1.2974586-8.1868553,2.5949135-16.3737106,3.8922997-24.5605659c0.0475082-0.2995424-0.1247559-0.631341-0.4722977-0.6200056
		c-1.618969,0.0527573-3.2378693,0.0792065-4.8568382,0.0956488c0.4084854-1.5799255,0.8506279-3.1504049,1.3467865-4.7050018
		C34.798748,10.1943274,35.7986908,11.1982594,36.7936668,12.2069483z M27.8530922,21.4177475
		c0.482233-2.1834183,1.0159664-4.3551521,1.5699196-6.5215664c0.5865593,0,1.1730499,0.0002098,1.7596092-0.0030794
		c-0.5470276,2.1976233-1.0494118,4.4074202-1.5771275,6.6075602
		C29.0226421,21.4954147,28.4384613,21.4666557,27.8530922,21.4177475z M26.8719711,21.3178997
		c-1.285696-0.1491756-2.5757408-0.370842-3.8670406-0.6052418c-3.6919727-0.6701031-6.98246-0.768692-10.5960665,0.2565804
		c-0.2256536-2.0768528-0.4390631-4.1548958-0.6337194-6.2347584c5.5467415,0.0143433,11.092226,0.1451178,16.6377087,0.1610012
		C27.8689747,17.0290108,27.3441982,19.1674385,26.8719711,21.3178997z M33.6876907,34.0019455
		c-0.2495117,1.574398-0.4990273,3.1487961-0.748539,4.7231941c-0.2312508,1.459507-0.2215195,3.3477211-0.7484703,4.7231941
		c-0.6551323,1.7098618-2.1944752,1.3709946-3.72682,1.3842201c-1.5665627,0.013504-3.1329136,0.0399513-4.6994743,0.0490494
		c-1.4751797,0.008606-2.9502907,0.0033569-4.4249821-0.0376434c-0.6882248-0.019104-1.6226711,0.115799-2.2898426-0.0912399
		c-1.3611984-0.4224129-1.2241211-0.8639946-1.4352274-1.9411125c-0.5973349-3.0483894-1.1170731-6.1116829-1.583004-9.1827431
		c-0.5888681-3.8808918-1.0793591-7.7753601-1.5139437-11.6761951c4.8450813-1.4090595,8.9666023-0.310667,13.7944775,0.3517399
		c3.1603355,0.4336052,6.3945713,0.2622471,9.3715153-0.8952675C35.0181046,25.60672,34.3528976,29.8043671,33.6876907,34.0019455z
		 M36.7309723,14.7985725c-0.2904472,1.832798-0.5808907,3.6656647-0.8713379,5.4984627
		c-1.7265816,0.770092-3.477375,1.1062984-5.2430725,1.1840343c0.5249863-2.1981106,1.0289822-4.40448,1.5790939-6.5982533
		C33.7074242,14.8689623,35.2191963,14.8432131,36.7309723,14.7985725z M31.4331131,13.9109316
		c-0.5862789,0.0037775-1.1725597,0.0054569-1.7587681,0.0058069c0.1597404-0.6186762,0.319973-1.2372818,0.4815331-1.8554678
		c0.4613838-1.7652063,0.6588402-4.3112102,1.5997982-5.9047103c1.2303543-2.0836406,2.6940613-0.3061891,3.7660713,0.8147326
		c0.551506,0.576694,2.6121979,2.3214688,2.5546112,3.0166926c-0.0293884,0.355588-0.8053551,0.8336239-0.9899368,1.1764774
		c-0.0232315-0.0418415-0.0398827-0.0761976-0.0717888-0.1278353c-0.7048798-1.1399536-2.1393394-2.1600485-3.0962486-3.1038752
		c-0.2726059-0.2688951-0.7032661-0.1300044-0.8186531,0.2161379C32.4669914,10.04704,31.9296227,11.9733181,31.4331131,13.9109316z
		"/>
	<path style="fill:#FFFFFF;" d="M12.9072609,17.9080448c0.136302,0.5946064,0.2360096,1.1969795,0.3366966,1.7984428
		c0.1037655,0.6204243,1.0479422,0.357338,0.9445267-0.2603588c-0.1132116-0.6764717-0.225584-1.3544121-0.3891745-2.0210171
		c-0.024209-0.0988674-0.1407795-0.347332-0.1164303-0.4421425c-0.0195913-0.0207806-0.0392532-0.0416317-0.0588446-0.0624123
		c0.0911713-0.0071373,0.1824818-0.0142746,0.2737293-0.0213413c0.3813372-0.0188923,0.7598,0.008606,1.1379185,0.0552063
		c0.6242037,0.076828,0.6186056-0.9034538,0-0.9796515c-0.6852121-0.0843143-2.1636171-0.3067493-2.3500175,0.6704531
		C12.6080685,17.0521698,12.8176289,17.5171223,12.9072609,17.9080448z"/>
	<path style="fill:#FFFFFF;" d="M16.5551548,17.081768c0.630291,0,0.63134-0.9796524,0-0.9796524
		C15.924799,16.1021156,15.9238138,17.081768,16.5551548,17.081768z"/>
</g>
</svg>
