<?xml version="1.0" encoding="utf-8"?>
<!-- Generator: Adobe Illustrator 23.1.0, SVG Export Plug-In . SVG Version: 6.00 Build 0)  -->
<svg version="1.1" id="Слой_1" xmlns="http://www.w3.org/2000/svg" xmlns:xlink="http://www.w3.org/1999/xlink" x="0px" y="0px"
	 viewBox="0 0 50 50" style="enable-background:new 0 0 50 50;" xml:space="preserve">
<g style="display:none;">
	<rect style="display:inline;" width="50" height="50"/>
</g>
<g>
	<polygon style="display:none;fill:#CCCCCC;" points="14.3870964,6.2580647 14.5806456,7.1512833 16.7096767,7.516129 
		32.7096786,7.516129 35.1612892,6.5079784 33.4193535,5.516129 15.6129036,5.516129 	"/>
	<polygon style="display:none;fill:#CCCCCC;" points="15.1693544,7.845232 14.5645161,9.4112902 13.3790321,10.7419357 
		13.3790321,17.1774197 19.5241928,17.1774197 20.9516125,16.7149162 23.2258072,16.0161285 27.2661285,16.0403233 
		30.0725803,17.3467751 36.1935501,17.0806446 36.1935501,11.9032259 35.7800179,10.4516125 34.0255737,7.845232 
		33.3870964,7.516129 17.1774197,7.5 	"/>
	<polygon style="display:none;fill:#CCCCCC;" points="13.3790321,17.1774197 13.3790321,33.1935501 19.8870964,33.1935501 
		18.1935482,31.0161285 16.6330643,26.1290321 16.9801788,21.7258072 17.967741,19.3387089 20.0967751,17.0161285 	"/>
	<polygon style="display:none;fill:#CCCCCC;" points="29.6774197,17.0161285 32,20.3225803 33.1935501,24.7179527 
		32.5662384,28.4838715 30.2872963,31.967741 29.5161285,32.5483856 30.2872963,33.1935501 36.1935501,33.1935501 36.3548393,27 
		36.3548393,17.0161285 	"/>
	<polygon style="display:none;fill:#CCCCCC;" points="13.3790321,33.1935501 13.3790321,37.9677429 15.4611664,41.2580643 
		14.6129036,42.4193535 15.2258062,43.5712166 30.9032249,43.935482 35.2903214,43.4193535 35.2903214,42.2846184 
		33.6129036,41.9032249 34.4838715,40.5161285 36.1612892,38.564518 36.2012024,32.899601 29.5161285,33.0322571 
		27.8064518,33.8709679 25,34.5806465 22.2903233,34.0794563 20.0967751,32.899601 18.0967751,33.2258072 	"/>
	<path id="BelkaLogoVector" style="fill:#FFFFFF;" d="M26.169735,29.939827c0,0,4.2814445-1.0951462,1.742239-7.9853821
		c-0.0040359-0.010952-0.0201283-0.0107918-0.0235729,0.0003529l-0.3669891,1.1432095
		c-0.0066624,0.0207558-0.0375137,0.0187931-0.0415134-0.0026169c-0.4650803-2.4895515,1.2003422-3.812212,1.2003422-3.812212
		c-4.0378761-0.5231285-4.5339203,2.4411125-4.5720329,2.7248688c-0.0018311,0.0136356-0.0025024,0.0273933-0.002039,0.0411377
		c0.0549393,1.6283417,1.9519882,2.8919048,1.9519882,2.8919048c1.7852497,1.5930042,0.725256,3.2958717,0.725256,3.2958717
		c0.3905239-1.7028675-0.836834-2.5817661-0.836834-2.5817661l-2.3989296-1.3732796
		c-0.6694679-0.659174-0.8926239-1.3732796-0.8926239-1.3732796c-0.6136799,0-0.6694698,0.7141056-0.6694698,0.7141056
		c-1.3389359,0.2746563-1.2273579,1.5930042-1.2273579,1.5930042c0.3905239,0.5493126,1.7852497,0.164793,1.7852497,0.164793
		c0,0.0549316-0.6136799,0.7141056-1.0042038,0.7690372c-0.390522,0.0549316-0.334734,0.329586-0.334734,0.329586
		c0.111578,0.5493126,1.6457767,0.1922607,1.6457767,0.1922607c1.3668308-0.0823975,1.3668308,1.1810207,1.3668308,1.1810207
		c-0.5021-1.6479359-3.2328262-0.0802288-1.1157799,1.4831409c-0.5021019,0.0549316-0.446312,0.6042423-0.446312,0.6042423
		c-1.5620937,0-2.8452415,0.2746563-2.8452415,0.2746563h9.8746605C28.7360306,29.939827,26.169735,29.939827,26.169735,29.939827z"
		/>
	<path style="fill:#FFFFFF;" d="M36.6750221,12.5984573c-0.0033684-0.5094194,0.1362343-1.2800512-0.0127983-1.7742453
		c-0.0425148-0.1408129-0.0852966-0.2565622-0.1386566-0.3936701c-0.0766068-0.1970711-0.5398064-0.4291763-0.687088-0.581646
		c-0.5862961-0.6066418-0.9704666-1.2244005-1.2725067-1.9579082c0.514473-0.0972219,0.936779-0.286612,1.1502228-0.6348047
		c1.0122337-1.6506124-1.3504601-2.1242566-2.4012375-2.1792345c-3.0289631-0.1587348-6.0757809-0.1658092-9.1075745-0.1038918
		c-2.6324654-0.0860372-5.2850056-0.0493855-7.9149094,0.0995798c-1.0618258,0.0601659-2.9370661,0.1345472-2.6454678,1.7773447
		c0.121274,0.68291,0.5687094,0.9470859,1.0961857,1.0527296c-0.3399048,0.9796276-0.8496618,1.4243689-1.4763021,2.2798252
		c-0.1892004,0.2583141-0.3325062,0.3027821-0.4378128,0.5966702c-0.1420259,0.3962307-0.0031662,1.1167355-0.0040426,1.5285969
		c-0.0065355,2.937604-0.007534,5.8752756-0.0030317,8.8128805c0.0058613,3.8317337,0.0198755,7.6636009,0.0565948,11.4952679
		c0.0173826,1.8066521,0.0279608,3.6145859,0.074584,5.4208336c0.0436583,1.6948776,1.3780146,2.0876732,2.0058794,3.5004539
		c-0.5305758,0.0951309-0.9662209,0.2863426-1.1845818,0.6424828c-1.0122261,1.6506119,1.3505249,2.1241913,2.4013014,2.1793022
		c3.0289631,0.1585999,6.0757141,0.165741,9.1075764,0.1038246c2.6324635,0.0860367,5.2850056,0.0493851,7.9149895-0.0995789
		c1.0617447-0.0601006,2.9369164-0.1345482,2.6453209-1.7773438c-0.1360321-0.7666588-0.6800003-1.0120354-1.2909012-1.0894508
		c0.2797394-0.6969223,0.7249527-1.1556778,1.3039055-1.7016144c-0.1073303,0.1011963,0.6217308-0.4179916,0.6908722-0.5821838
		c0.1763725-0.4190712,0.0799599-0.9710732,0.0881805-1.4212036c0.0315285-1.7249947,0.0487785-3.450325,0.0611076-5.1755219
		c0.0275574-3.8317337,0.0279617-7.6635342,0.0187988-11.4952679
		C36.7068939,18.2798958,36.6938896,15.4391098,36.6750221,12.5984573z M13.822752,32.899601
		c-0.0390778-3.9261284-0.0535078-7.8525906-0.0595036-11.7789173c-0.0017519-1.1743412,0.0011454-2.3486824,0.0010777-3.5230236
		c1.7687883-0.1207352,3.5249767-0.1418915,5.2899246-0.068924c-1.6421242,1.4387188-2.7377701,3.5198555-2.9726391,5.9927769
		c-0.3050728,3.2118187,0.7020435,6.9564381,2.9977131,9.2770252C17.3290539,32.8968353,15.5760994,32.8682022,13.822752,32.899601z
		 M17.0716152,23.2267494c0.612772-4.7702637,4.8685627-7.6928434,9.5907879-6.6925316
		c4.4453831,0.9417629,6.0069923,4.9464474,5.8985977,9.090126c-0.3404541,4.6299896-3.7785187,8.8500023-8.7814255,8.4256096
		C18.5913868,33.6099968,16.5002213,27.6751633,17.0716152,23.2267494z M33.5042496,25.6243439
		c0.0811729-3.1033459-0.786747-6.0559063-2.7689781-7.9828224c1.6719704,0.0280285,3.3654327,0.0330124,5.0186729-0.100523
		c0.0049858,1.1932049,0.0136757,2.3864784,0.0165062,3.5796852c0.0091629,3.8317337,0.0086937,7.6635342-0.018795,11.4952679
		c-0.0001373,0.0196075,0.0006714,0.0402908,0.0006027,0.0600319c-1.8218117,0.0281601-3.6432838-0.0185966-5.464962-0.0072784
		C32.1454887,30.9090137,33.3038635,28.3495159,33.5042496,25.6243439z M18.581213,5.9301143
		c1.8736229-0.0502615,3.7504787-0.0750551,5.6241703-0.0138116c2.0143127-0.0411658,4.0302181-0.0325418,6.0445194,0.0065355
		c0.8937931,0.0173149,2.2133274-0.1945109,3.063055,0.0972891c0.5666885,0.1946454,1.0193825,0.5501814,0.4505348,0.8946009
		c-0.1223526,0.0740447-0.5623093-0.0069394-0.7087135-0.008287c-3.5108948-0.0330138-7.0234756,0.028904-10.5341682,0.0684528
		c-1.6249428,0.0183258-3.250021,0.0386057-4.8750973,0.0493183c-0.3898983,0.0026274-2.4243441,0.2911258-2.721859-0.0100389
		C13.8059082,5.8826156,18.1029205,5.9429832,18.581213,5.9301143z M14.8074884,10.0058117
		c0.4771481-0.6083927,0.7047396-1.2987146,0.9046402-2.0310097c0.1206684-0.0004721,0.2386408-0.0018191,0.350831-0.0012803
		c2.2432976,0.010241,4.487751-0.033216,6.7309227-0.0584812c2.7026024-0.0304532,5.405405-0.0639386,8.1082764-0.0698004
		c0.5947838-0.0012798,1.6802578,0.1485615,2.6852856,0.132863c0.2744827,0.7283206,0.6182289,1.3947911,1.1268539,2.018681
		c0.0093536,0.0114536,0.3935242,0.3825531,0.6868057,0.6279316c-3.8733044,0.2712507-7.7541542,0.2007093-11.6334553,0.3388948
		c-0.6052265,0.021493-0.6081123,0.9648733,0,0.9431782c4.0058308-0.1425648,8.0132771-0.0607719,12.0123692-0.3648338
		c-0.016777,0.2845907-0.0515404,0.5710011-0.0501938,0.7658482c0.0097694,1.430028,0.0130692,2.8601236,0.0197411,4.2902193
		c-2.0246086,0.1632481-4.1114731,0.1200619-6.1424828,0.08004c-0.0280285-0.0005379-0.0481739,0.0101738-0.0736408,0.0135422
		c-0.966692-0.6135139-2.1181259-1.0357504-3.4695282-1.2045918c-2.1681175-0.2708464-4.1622066,0.1792173-5.7963123,1.1580372
		c-2.1759319-0.1442509-4.3292837-0.1390629-6.5029383,0.0094318c0.0005398-1.4023371-0.0016842-2.8046741,0.0012808-4.2069435
		c0.0003366-0.1414871-0.0213461-0.3452282-0.0417728-0.5643978c1.8123121-0.1702557,3.6393127-0.0652189,5.4559364-0.0396833
		c0.6071796,0.0085564,0.6074486-0.9347572,0-0.9433136c-1.818512-0.0255346-3.6473856-0.1308413-5.4616632,0.0402231
		c0.0124645-0.0605698,0.029376-0.1150093,0.0518789-0.1611605C13.7747698,10.7699757,14.6308994,10.2308435,14.8074884,10.0058117z
		 M14.1249828,38.7170677c1.3134146,0.1608238,2.6260643,0.2946968,3.9525375,0.2794685
		c0.6065731-0.0069389,0.6081905-0.9501839,0-0.9432449c-1.4162731,0.0162392-2.8172741-0.1367035-4.2198801-0.3120117
		c-0.1564436-1.2495308-0.0768747-2.6068611-0.045208-3.8983688c2.0797215-0.0375252,4.1591063,0.0229073,6.233573-0.1615639
		c0.0151596-0.0014153,0.0254002-0.0092964,0.0398197-0.0117912c1.0346718,0.7388992,2.2640591,1.2219086,3.6937504,1.3237114
		c2.0912418,0.1488304,3.9323235-0.4121284,5.4361935-1.4441757c0.0668354,0.0408287,0.1438446,0.0705414,0.2431564,0.0687218
		c2.1039085-0.039547,4.2071438,0.0344276,6.3110561,0.0012817c0.0483055,1.4106903,0.16082,2.9245338-0.0606384,4.2575417
		c-4.6589603,0.2131729-9.3479023,0.5872383-14.0104332,0.3806c-0.6068439-0.0269508-0.6055641,0.9163628,0,0.9431763
		c4.5456352,0.2014503,9.1161995-0.1482925,13.6596794-0.3635521c-0.5197296,0.8597679-1.4484863,1.5603981-1.8022728,2.6250534
		c-0.0437927,0.0002022-0.0901489,0.0006714-0.1324577,0.0004692c-2.2433643-0.0102386-4.4878292,0.0332184-6.7309341,0.0584831
		c-2.7026577,0.0304527-5.4054718,0.0639381-8.1083431,0.0697975c-0.5875072,0.0012817-1.6538353-0.1451912-2.6483641-0.1337357
		C15.5201778,40.3907204,14.5805712,39.654789,14.1249828,38.7170677z M30.9055271,43.5057907
		c-1.8736916,0.0502625-3.7504807,0.0750542-5.6241703,0.013813c-2.0143681,0.0411644-4.03022,0.0325432-6.0445881-0.0065346
		c-0.8937263-0.0173149-2.2132587,0.1945076-3.0629883-0.0973587c-0.5666885-0.1945763-1.0193796-0.5501137-0.4505348-0.8945313
		c0.1223526-0.0740471,0.5623093,0.0069389,0.7087135,0.0082855c3.5109634,0.0330124,7.0234756-0.0289726,10.5341015-0.0684547
		c1.6250782-0.0183258,3.2500877-0.0386047,4.8751659-0.0493851c0.3898983-0.0025597,2.4243565-0.2910576,2.7218037,0.0101089
		C35.6807747,43.5532913,31.3838196,43.4929237,30.9055271,43.5057907z"/>
</g>
</svg>
