<?xml version="1.0" encoding="utf-8"?>
<!-- Generator: Adobe Illustrator 23.1.0, SVG Export Plug-In . SVG Version: 6.00 Build 0)  -->
<svg version="1.1" id="Слой_1" xmlns="http://www.w3.org/2000/svg" xmlns:xlink="http://www.w3.org/1999/xlink" x="0px" y="0px"
	 viewBox="0 0 50 50" style="enable-background:new 0 0 50 50;" xml:space="preserve">
<style type="text/css">
	.st0{display:none;}
	.st1{display:inline;}
	.st2{fill:#FFFFFF;}
	.st3{fill:none;stroke:#FFFFFF;stroke-miterlimit:10;}
</style>
<rect class="st0" width="50" height="50"/>
<g>
	<g class="st0">
		<g class="st1">
			<g>
				<path class="st2" d="M25.1,22.6c-0.4,0-0.7-0.3-0.7-0.7V2.4c0-0.4,0.3-0.7,0.7-0.7c0.4,0,0.7,0.3,0.7,0.7v19.5
					C25.9,22.3,25.5,22.6,25.1,22.6z"/>
			</g>
		</g>
		<g class="st1">
			<g>
				<path class="st2" d="M25.1,16.3c-0.2,0-0.4-0.1-0.5-0.2l-6.5-6.5c-0.3-0.3-0.3-0.8,0-1c0.3-0.3,0.8-0.3,1,0l5.9,5.9l5.8-5.8
					c0.3-0.3,0.8-0.3,1,0c0.3,0.3,0.3,0.8,0,1l-6.3,6.3C25.4,16.3,25.3,16.3,25.1,16.3z"/>
			</g>
		</g>
		<g class="st1">
			<g>
				<path class="st2" d="M25,9.6c-0.2,0-0.4-0.1-0.5-0.2l-3.2-3.2c-0.3-0.3-0.3-0.8,0-1c0.3-0.3,0.8-0.3,1,0L25,7.9l2.8-2.8
					c0.3-0.3,0.8-0.3,1,0c0.3,0.3,0.3,0.8,0,1l-3.3,3.3C25.4,9.6,25.2,9.6,25,9.6z"/>
			</g>
		</g>
	</g>
	<g class="st0">
		<g class="st1">
			<g>
				<path class="st2" d="M22.3,24.1c-0.1,0-0.3,0-0.4-0.1L5.1,14.2c-0.4-0.2-0.5-0.7-0.3-1c0.2-0.4,0.7-0.5,1-0.3l16.9,9.7
					c0.4,0.2,0.5,0.7,0.3,1C22.9,23.9,22.6,24.1,22.3,24.1z"/>
			</g>
		</g>
		<g class="st1">
			<g>
				<path class="st2" d="M8.1,23.3c-0.3,0-0.6-0.2-0.7-0.5c-0.1-0.4,0.1-0.8,0.5-0.9l8.1-2.2l-2.1-7.9c-0.1-0.4,0.1-0.8,0.5-0.9
					c0.4-0.1,0.8,0.1,0.9,0.5l2.3,8.6c0.1,0.2,0,0.4-0.1,0.6c-0.1,0.2-0.3,0.3-0.4,0.3l-8.8,2.4C8.2,23.3,8.1,23.3,8.1,23.3z"/>
			</g>
		</g>
		<g class="st1">
			<g>
				<path class="st2" d="M6.7,18.8c-0.3,0-0.6-0.2-0.7-0.5c-0.1-0.4,0.1-0.8,0.5-0.9l3.7-1l-1-3.8c-0.1-0.4,0.1-0.8,0.5-0.9
					c0.4-0.1,0.8,0.1,0.9,0.5l1.2,4.5c0.1,0.2,0,0.4-0.1,0.6c-0.1,0.2-0.3,0.3-0.4,0.3l-4.4,1.2C6.8,18.8,6.8,18.8,6.7,18.8z"/>
			</g>
		</g>
	</g>
	<g class="st0">
		<g class="st1">
			<g>
				<path class="st2" d="M5.4,36.9c-0.3,0-0.5-0.1-0.6-0.4c-0.2-0.4-0.1-0.8,0.3-1l16.9-9.7c0.4-0.2,0.8-0.1,1,0.3
					c0.2,0.4,0.1,0.8-0.3,1L5.7,36.8C5.6,36.9,5.5,36.9,5.4,36.9z"/>
			</g>
		</g>
		<g class="st1">
			<g>
				<path class="st2" d="M14.5,39.2c-0.1,0-0.1,0-0.2,0c-0.4-0.1-0.6-0.5-0.5-0.9l2.2-8.1L8,28c-0.4-0.1-0.6-0.5-0.5-0.9
					c0.1-0.4,0.5-0.6,0.9-0.5l8.6,2.3c0.4,0.1,0.6,0.5,0.5,0.9l-2.4,8.8C15.1,39,14.8,39.2,14.5,39.2z"/>
			</g>
		</g>
		<g class="st1">
			<g>
				<path class="st2" d="M9.9,38.1c-0.1,0-0.1,0-0.2,0c-0.4-0.1-0.6-0.5-0.5-0.9l1-3.7l-3.8-1C6,32.4,5.7,32,5.8,31.6
					c0.1-0.4,0.5-0.6,0.9-0.5l4.5,1.2c0.4,0.1,0.6,0.5,0.5,0.9l-1.2,4.4C10.5,37.9,10.2,38.1,9.9,38.1z"/>
			</g>
		</g>
	</g>
	<g class="st0">
		<g class="st1">
			<g>
				<path class="st2" d="M24.9,48.3c-0.4,0-0.7-0.3-0.7-0.7V28.1c0-0.4,0.3-0.7,0.7-0.7c0.4,0,0.7,0.3,0.7,0.7v19.5
					C25.6,48,25.3,48.3,24.9,48.3z"/>
			</g>
		</g>
		<g class="st1">
			<g>
				<path class="st2" d="M31.4,41.6c-0.2,0-0.4-0.1-0.5-0.2l-5.9-5.9l-5.8,5.8c-0.3,0.3-0.8,0.3-1,0c-0.3-0.3-0.3-0.8,0-1l6.3-6.3
					c0.3-0.3,0.8-0.3,1,0l6.5,6.5c0.3,0.3,0.3,0.8,0,1C31.8,41.5,31.6,41.6,31.4,41.6z"/>
			</g>
		</g>
		<g class="st1">
			<g>
				<path class="st2" d="M21.7,45.1c-0.2,0-0.4-0.1-0.5-0.2c-0.3-0.3-0.3-0.8,0-1l3.3-3.3c0.3-0.3,0.8-0.3,1,0l3.2,3.2
					c0.3,0.3,0.3,0.8,0,1c-0.3,0.3-0.8,0.3-1,0L25,42.1l-2.8,2.8C22,45.1,21.9,45.1,21.7,45.1z"/>
			</g>
		</g>
	</g>
	<g class="st0">
		<g class="st1">
			<g>
				<path class="st2" d="M44.5,37.1c-0.1,0-0.3,0-0.4-0.1l-16.9-9.7c-0.4-0.2-0.5-0.7-0.3-1c0.2-0.4,0.7-0.5,1-0.3l16.9,9.7
					c0.4,0.2,0.5,0.7,0.3,1C45,37,44.8,37.1,44.5,37.1z"/>
			</g>
		</g>
		<g class="st1">
			<g>
				<path class="st2" d="M35.4,39.1c-0.3,0-0.6-0.2-0.7-0.5l-2.3-8.6c-0.1-0.2,0-0.4,0.1-0.6c0.1-0.2,0.3-0.3,0.4-0.3l8.8-2.4
					c0.4-0.1,0.8,0.1,0.9,0.5c0.1,0.4-0.1,0.8-0.5,0.9L34,30.3l2.1,7.9c0.1,0.4-0.1,0.8-0.5,0.9C35.6,39.1,35.5,39.1,35.4,39.1z"/>
			</g>
		</g>
		<g class="st1">
			<g>
				<path class="st2" d="M40.1,38.3c-0.3,0-0.6-0.2-0.7-0.5l-1.2-4.5c-0.1-0.4,0.1-0.8,0.5-0.9l4.4-1.2c0.4-0.1,0.8,0.1,0.9,0.5
					c0.1,0.4-0.1,0.8-0.5,0.9l-3.7,1l1,3.8c0.1,0.4-0.1,0.8-0.5,0.9C40.3,38.3,40.2,38.3,40.1,38.3z"/>
			</g>
		</g>
	</g>
	<g>
		<g>
			<g>
				<path class="st3" d="M27.4,22.9l4.7-2.7l1.7-1l1.4-0.8l9.1-5.2c0.4-0.2,0.8-0.1,1,0.3c0.2,0.4,0.1,0.8-0.3,1l-16.9,9.7
					c-0.1,0.1-0.2,0.1-0.4,0.1"/>
			</g>
		</g>
		<g>
			<g>
				<path class="st3" d="M35,20.1l7,1.9c0.4,0.1,0.6,0.5,0.5,0.9c-0.1,0.3-0.4,0.5-0.7,0.5c-0.1,0-0.1,0-0.2,0l-8.2-2.2"/>
				<path class="st3" d="M32.6,19.8l2.3-8.4c0.1-0.4,0.5-0.6,0.9-0.5c0.4,0.1,0.6,0.5,0.5,0.9l-2,7.4"/>
			</g>
		</g>
		<g>
			<g>
				<path class="st3" d="M40.9,16.7l2.8,0.7c0.4,0.1,0.6,0.5,0.5,0.9c-0.1,0.3-0.4,0.5-0.7,0.5c-0.1,0-0.1,0-0.2,0l-4.4-1.1"/>
				<path class="st3" d="M38.2,16.8l1.2-4.4c0.1-0.4,0.5-0.6,0.9-0.5c0.4,0.1,0.6,0.5,0.5,0.9l-0.8,2.8"/>
			</g>
		</g>
	</g>
	<g>
		<g>
			<g>
				<path class="st3" d="M24.3,21.8l0-5.5l0-1.9l0-1.6l0.1-10.5c0-0.4,0.3-0.7,0.7-0.7c0.4,0,0.7,0.3,0.7,0.7l-0.2,19.5
					c0,0.1,0,0.3-0.1,0.4"/>
			</g>
		</g>
		<g>
			<g>
				<path class="st3" d="M25.7,13.8l5.2-5.1c0.3-0.3,0.8-0.3,1,0C32.2,9,32.2,9.3,32,9.6c0,0.1-0.1,0.1-0.1,0.2l-6,5.9"/>
				<path class="st3" d="M24.2,15.7l-6.1-6.2c-0.3-0.3-0.3-0.8,0-1c0.3-0.3,0.8-0.3,1,0l5.4,5.4"/>
			</g>
		</g>
		<g>
			<g>
				<path class="st3" d="M25.8,7.1l2.1-2c0.3-0.3,0.8-0.3,1,0c0.2,0.2,0.3,0.6,0.1,0.9C29,6,28.9,6,28.9,6.1l-3.1,3.2"/>
				<path class="st3" d="M24.5,9.3l-3.2-3.2c-0.3-0.3-0.3-0.8,0-1c0.3-0.3,0.8-0.3,1,0l2,2.1"/>
			</g>
		</g>
	</g>
	<g>
		<g>
			<g>
				<path class="st3" d="M25.6,28.4l-0.1,5.5l0,1.9l0,1.6l-0.1,10.5c0,0.4-0.3,0.7-0.7,0.7c-0.4,0-0.7-0.3-0.7-0.7l0.2-19.5
					c0-0.1,0-0.3,0.1-0.4"/>
			</g>
		</g>
		<g>
			<g>
				<path class="st3" d="M24.2,36.4L19,41.5c-0.3,0.3-0.8,0.3-1,0c-0.2-0.2-0.3-0.6-0.1-0.9c0-0.1,0.1-0.1,0.1-0.2l6.1-5.9"/>
				<path class="st3" d="M25.7,34.4l6.1,6.2c0.3,0.3,0.3,0.8,0,1c-0.3,0.3-0.8,0.3-1,0l-5.3-5.5"/>
			</g>
		</g>
		<g>
			<g>
				<path class="st3" d="M24.1,43.1l-2.1,2c-0.3,0.3-0.8,0.3-1,0c-0.2-0.2-0.3-0.6-0.1-0.9c0-0.1,0.1-0.1,0.1-0.2l3.1-3.2"/>
				<path class="st3" d="M25.4,40.8l3.2,3.2c0.3,0.3,0.3,0.8,0,1c-0.3,0.3-0.8,0.3-1,0l-2-2.1"/>
			</g>
		</g>
	</g>
	<g>
		<g>
			<g>
				<path class="st3" d="M22.3,27.2L17.6,30l-1.6,1l-1.4,0.8l-9,5.3c-0.4,0.2-0.8,0.1-1-0.3c-0.2-0.4-0.1-0.8,0.3-1l16.7-9.9
					c0.1-0.1,0.2-0.1,0.4-0.1"/>
			</g>
		</g>
		<g>
			<g>
				<path class="st3" d="M14.7,30.1l-7-1.8c-0.4-0.1-0.6-0.5-0.5-0.9c0.1-0.3,0.4-0.6,0.7-0.6c0.1,0,0.1,0,0.2,0l8.2,2.1"/>
				<path class="st3" d="M17.2,30.4L15,38.8c-0.1,0.4-0.5,0.6-0.9,0.5c-0.4-0.1-0.6-0.5-0.5-0.9l1.9-7.4"/>
			</g>
		</g>
		<g>
			<g>
				<path class="st3" d="M8.9,33.5l-2.8-0.7c-0.4-0.1-0.6-0.5-0.5-0.9c0.1-0.3,0.4-0.6,0.7-0.6c0.1,0,0.1,0,0.2,0l4.4,1"/>
				<path class="st3" d="M11.5,33.4l-1.1,4.4c-0.1,0.4-0.5,0.6-0.9,0.5c-0.4-0.1-0.6-0.5-0.5-0.9l0.7-2.8"/>
			</g>
		</g>
	</g>
	<g>
		<g>
			<g>
				<path class="st3" d="M22,24l-4.7-2.8l-1.7-1l-1.4-0.8l-9-5.3c-0.4-0.2-0.5-0.7-0.3-1c0.2-0.4,0.7-0.5,1-0.3l16.8,9.9
					c0.1,0.1,0.2,0.2,0.3,0.3"/>
			</g>
		</g>
		<g>
			<g>
				<path class="st3" d="M15.8,18.8l-1.8-7c-0.1-0.4,0.1-0.8,0.5-0.9c0.3-0.1,0.7,0.1,0.8,0.4c0,0.1,0.1,0.1,0.1,0.2l2.1,8.2"/>
				<path class="st3" d="M16.7,21.1l-8.5,2.2c-0.4,0.1-0.8-0.1-0.9-0.5c-0.1-0.4,0.1-0.8,0.5-0.9l7.4-1.9"/>
			</g>
		</g>
		<g>
			<g>
				<path class="st3" d="M10,15.4l-0.7-2.8c-0.1-0.4,0.1-0.8,0.5-0.9c0.3-0.1,0.7,0.1,0.8,0.4c0,0.1,0.1,0.1,0.1,0.2l1.2,4.3"/>
				<path class="st3" d="M11.3,17.6l-4.4,1.1c-0.4,0.1-0.8-0.1-0.9-0.5c-0.1-0.4,0.1-0.8,0.5-0.9l2.8-0.7"/>
			</g>
		</g>
	</g>
	<g>
		<g>
			<g>
				<path class="st3" d="M27.4,22.9l4.7-2.7l1.7-1l1.4-0.8l9.1-5.2c0.4-0.2,0.8-0.1,1,0.3c0.2,0.4,0.1,0.8-0.3,1l-16.9,9.7
					c-0.1,0.1-0.2,0.1-0.4,0.1"/>
			</g>
		</g>
		<g>
			<g>
				<path class="st3" d="M35,20.1l7,1.9c0.4,0.1,0.6,0.5,0.5,0.9c-0.1,0.3-0.4,0.5-0.7,0.5c-0.1,0-0.1,0-0.2,0l-8.2-2.2"/>
				<path class="st3" d="M32.6,19.8l2.3-8.4c0.1-0.4,0.5-0.6,0.9-0.5c0.4,0.1,0.6,0.5,0.5,0.9l-2,7.4"/>
			</g>
		</g>
		<g>
			<g>
				<path class="st3" d="M40.9,16.7l2.8,0.7c0.4,0.1,0.6,0.5,0.5,0.9c-0.1,0.3-0.4,0.5-0.7,0.5c-0.1,0-0.1,0-0.2,0l-4.4-1.1"/>
				<path class="st3" d="M38.2,16.8l1.2-4.4c0.1-0.4,0.5-0.6,0.9-0.5c0.4,0.1,0.6,0.5,0.5,0.9l-0.8,2.8"/>
			</g>
		</g>
	</g>
	<g>
		<g>
			<g>
				<path class="st3" d="M27.7,25.8l4.7,2.8l1.6,1l1.4,0.8l9,5.4c0.4,0.2,0.5,0.7,0.3,1c-0.2,0.4-0.7,0.5-1,0.3l-16.7-10
					c-0.1-0.1-0.2-0.2-0.3-0.3"/>
			</g>
		</g>
		<g>
			<g>
				<path class="st3" d="M33.8,31.1l1.7,7c0.1,0.4-0.1,0.8-0.5,0.9c-0.3,0.1-0.7-0.1-0.8-0.4c0-0.1-0.1-0.1-0.1-0.2l-2-8.2"/>
				<path class="st3" d="M32.9,28.8l8.5-2.1c0.4-0.1,0.8,0.1,0.9,0.5c0.1,0.4-0.1,0.8-0.5,0.9L34.3,30"/>
			</g>
		</g>
		<g>
			<g>
				<path class="st3" d="M39.6,34.6l0.7,2.8c0.1,0.4-0.1,0.8-0.5,0.9c-0.3,0.1-0.7-0.1-0.8-0.4c0-0.1-0.1-0.1-0.1-0.2l-1.2-4.3"/>
				<path class="st3" d="M38.3,32.3l4.4-1.1c0.4-0.1,0.8,0.1,0.9,0.5c0.1,0.4-0.1,0.8-0.5,0.9l-2.8,0.7"/>
			</g>
		</g>
	</g>
	<g>
		<g>
			<path class="st2" d="M25,28.9c-2.1,0-3.9-1.7-3.9-3.9s1.7-3.9,3.9-3.9s3.9,1.7,3.9,3.9S27.1,28.9,25,28.9z M25,22.6
				c-1.3,0-2.4,1.1-2.4,2.4s1.1,2.4,2.4,2.4c1.3,0,2.4-1.1,2.4-2.4S26.3,22.6,25,22.6z"/>
		</g>
	</g>
	<g>
		<g>
			<g>
				<path class="st3" d="M22.2,16.4l-2.6-2.6c-0.2-0.2-0.6-0.3-0.9-0.1c-0.3,0.2-0.4,0.5-0.4,0.8l0.9,3.7c0,0.2,0.2,0.4,0.3,0.5
					l1.7,1c0.1,0.1,0.2,0.1,0.4,0.1c0.1,0,0.3,0,0.4-0.1c0.2-0.1,0.4-0.4,0.4-0.6l0-2.2C22.4,16.8,22.3,16.6,22.2,16.4z"/>
			</g>
		</g>
		<g>
			<g>
				<path class="st3" d="M19,24.9c0-0.3-0.1-0.5-0.4-0.6l-1.9-1.1c-0.2-0.1-0.4-0.1-0.6-0.1l-3.5,1c-0.3,0.1-0.5,0.4-0.5,0.7
					c0,0.3,0.2,0.6,0.5,0.7l3.7,1.1c0.1,0,0.1,0,0.2,0c0.1,0,0.3,0,0.4-0.1l1.8-1C18.9,25.5,19,25.2,19,24.9z"/>
			</g>
		</g>
		<g>
			<g>
				<path class="st3" d="M22,30.1c-0.2-0.1-0.5-0.1-0.7,0l-1.9,1.1c-0.2,0.1-0.3,0.3-0.3,0.5l-0.9,3.5c-0.1,0.3,0.1,0.7,0.3,0.8
					c0.1,0.1,0.2,0.1,0.4,0.1c0.2,0,0.4-0.1,0.5-0.2l2.8-2.6c0.1-0.1,0.2-0.3,0.2-0.5l0-2C22.3,30.5,22.2,30.3,22,30.1z"/>
			</g>
		</g>
		<g>
			<g>
				<path class="st3" d="M30.8,31.7c0-0.2-0.2-0.4-0.3-0.5l-1.7-1c-0.2-0.1-0.5-0.1-0.7,0c-0.2,0.1-0.4,0.4-0.4,0.6l0,2.2
					c0,0.2,0.1,0.4,0.2,0.5l2.6,2.6c0.1,0.1,0.3,0.2,0.5,0.2c0.1,0,0.2,0,0.4-0.1c0.3-0.2,0.4-0.5,0.4-0.8L30.8,31.7z"/>
			</g>
		</g>
		<g>
			<g>
				<path class="st3" d="M37.4,24.5l-3.7-1.1c-0.2-0.1-0.4,0-0.6,0.1l-1.8,1c-0.2,0.1-0.4,0.4-0.4,0.6c0,0.3,0.1,0.5,0.4,0.6
					l1.9,1.1c0.1,0.1,0.2,0.1,0.4,0.1c0.1,0,0.1,0,0.2,0l3.5-1c0.3-0.1,0.5-0.4,0.5-0.7C37.9,24.8,37.7,24.6,37.4,24.5z"/>
			</g>
		</g>
		<g>
			<g>
				<path class="st3" d="M28,19.9c0.1,0.1,0.2,0.1,0.4,0.1c0.1,0,0.3,0,0.4-0.1l1.9-1.1c0.2-0.1,0.3-0.3,0.3-0.5l0.9-3.5
					c0.1-0.3-0.1-0.7-0.3-0.8c-0.3-0.2-0.6-0.1-0.9,0.1l-2.8,2.6c-0.1,0.1-0.2,0.3-0.2,0.5l0,2C27.7,19.5,27.8,19.7,28,19.9z"/>
			</g>
		</g>
	</g>
</g>
</svg>
