<?xml version="1.0" encoding="utf-8"?>
<!-- Generator: Adobe Illustrator 23.1.0, SVG Export Plug-In . SVG Version: 6.00 Build 0)  -->
<svg version="1.1" id="Слой_1" xmlns="http://www.w3.org/2000/svg" xmlns:xlink="http://www.w3.org/1999/xlink" x="0px" y="0px"
	 viewBox="0 0 50 50" style="enable-background:new 0 0 50 50;" xml:space="preserve">
<rect style="display:none;" width="50" height="50"/>
<g>
	<g style="display:none;">
		<path style="display:inline;fill:#FFFFFF;" d="M77.4637985,11.7763166
			c2.1957397-1.0426922,4.4751968,1.5221777,4.2354584,3.8206673c-0.2092972,2.0206919-1.605896,3.6418104-2.8160324,5.1754065
			c-1.7010345,2.1576862-3.3335648,4.3686504-4.8899994,6.6366959
			c-6.1191559,8.9199657-10.5258598,18.4373837-14.5710487,28.4266796c-0.0038033,0.0076103-0.0076103,0.0152206-0.0114136,0.026638
			c-0.9209175,2.6485901-4.6921158,2.7970009-5.9935799,0.6088715c-0.1027451-0.0076103-0.2092972-0.0608864-0.281601-0.1750488
			c-4.1212959-6.4920921-7.8848839-13.2048988-11.5343056-19.9709816
			c-3.1813507-5.9060497-6.2409325-11.8844051-9.1749306-17.9198418c-0.8828621-1.8190041-2.6752262-4.4752045-1.3280983-6.4958963
			c0.9665833-1.4498749,2.9682465-1.6097031,4.5437012-1.6287308c7.028656-0.0837202,14.0991745,0.285408,21.1240273,0.5327625
			C63.6652489,11.0532818,70.5759354,11.3120518,77.4637985,11.7763166z M79.5643997,18.1884918
			c0.6164856-0.9285278,1.2900467-2.1424656,1.1758804-3.3145428c-0.0722961-0.7763109-0.5479813-1.5526218-1.1987152-2.0206919
			c-0.6355057-0.0380545-1.271019-0.0913305-1.9065247-0.1103582c-0.0038071,0-0.0038071,0-0.0076141,0
			c-0.2663803-0.0076103-0.5365677-0.0076103-0.8067551,0c-0.0380478,0-0.0646896-0.0152216-0.0837173-0.0418596
			c-7.7973557-0.3424902-15.5871048-0.7572832-23.3882675-1.0160542c-3.7940292-0.1255789-7.5918617-0.232132-11.389698-0.3120461
			c-2.0206909-0.0418596-4.0489922-0.1141634-6.0734901-0.1065531c-2.2756577,0.0114164-4.8861923,0.4376268-3.9919128,3.5885353
			c0.5479851,1.9331665,1.8113899,3.866333,2.6980591,5.6663094c0.8638382,1.7505054,1.73909,3.4972038,2.6257591,5.2362919
			c1.6591721,3.2650738,3.3602066,6.5073128,5.0916862,9.730526c3.7026978,6.8802452,7.6337242,13.6273003,11.5000572,20.4124107
			c0.049469,0.0875244,0.0532761,0.1712456,0.0418587,0.2435493c0.51754,0.5555916,1.1796875,0.9779968,1.9331665,1.084549
			c1.2025223,0.1750526,2.051136-0.4300156,2.7285042-1.2900429c-0.0532761-0.0951385-0.0723038-0.2169113-0.026638-0.3615189
			c2.4545135-7.7402763,6.3056259-15.2522278,10.4649734-22.2009697c2.1843262-3.6380062,4.5513153-7.1656551,7.0933533-10.5639172
			C77.1974106,21.2670975,78.5026855,19.7981949,79.5643997,18.1884918z"/>
		<path style="display:inline;fill:#FFFFFF;" d="M77.5969849,13.7893972c0.18647,0.0761089,0.1217728,0.3462954-0.0837173,0.3082409
			c-1.1035843-0.2131052-2.0929947-0.3805447-3.2194061-0.2169104c-0.1712494,0.026638-0.2511597-0.232132-0.0723038-0.2663813
			C75.3061066,13.393631,76.5580978,13.3593817,77.5969849,13.7893972z"/>
		<path style="display:inline;fill:#FFFFFF;" d="M77.0718307,14.4553499c0.2283325-0.0076113,0.2283325,0.3539066,0,0.3501015
			c-0.5936432-0.0114164-1.1834869-0.0228329-1.7771378-0.0342493c-0.182663-0.0038052-0.182663-0.2816029,0-0.285409
			C75.8883438,14.4781828,76.4781876,14.4667664,77.0718307,14.4553499z"/>
		<path style="display:inline;fill:#FFFFFF;" d="M75.7970123,16.3618774c0.468071,0.0380554,0.4794846,0.7610893,0,0.7382565
			c-6.8041382-0.3348789-13.596859-0.7458668-20.4086075-0.932333c-6.8079414-0.1864672-13.6234932-0.1217747-20.4314346-0.2930193
			c-0.2663841-0.0076113-0.2625771-0.3995724,0-0.4109888C48.4701042,14.7483692,62.3181229,15.2506886,75.7970123,16.3618774z"/>
		<path style="display:inline;fill:#FFFFFF;" d="M70.4731903,24.2315407c0.4338226,0.026638,0.4414368,0.6887856,0,0.6811733
			c-10.7275505-0.1369953-21.5083771-0.7116184-32.2207069-1.2938519c-0.3310738-0.0190258-0.334877-0.5213451,0-0.5137348
			C48.9762306,23.329649,59.7684746,23.5655861,70.4731903,24.2315407z"/>
		<path style="display:inline;fill:#FFFFFF;" d="M67.9349594,29.4297791c0.3120499,0.026638,0.3158493,0.4756794,0,0.4870968
			c-4.383873,0.1598282-8.8058014-0.1103573-13.1896744-0.2207165c-4.3952904-0.1103573-8.7981911-0.1940765-13.1896744-0.414793
			c-0.2701874-0.0152225-0.2701874-0.4186001,0-0.4186001c4.3952904-0.0190258,8.794384,0.0989418,13.1896744,0.1864681
			C59.1329651,29.1367588,63.5625038,29.0720673,67.9349594,29.4297791z"/>
		<path style="display:inline;fill:#FFFFFF;" d="M64.6394424,34.8867874c0.3767395,0.0152206,0.3767395,0.570816,0,0.5860405
			c-6.6443062,0.25877-13.3951683,0.1217728-20.0432816-0.0875282c-0.2625732-0.0076103-0.2625732-0.4033775,0-0.4109879
			C51.2442741,34.7650146,57.9951363,34.6280174,64.6394424,34.8867874z"/>
		<path style="display:inline;fill:#FFFFFF;" d="M62.6111412,40.7319527c0.3653221,0.0152206,0.3615189,0.5517883,0,0.567009
			c-5.2248764,0.2016907-10.5030289,0.0038071-15.7317123-0.1065521c-0.2283249-0.0038033-0.2283249-0.3500977,0-0.3577118
			C52.1081123,40.7281456,57.3862648,40.530262,62.6111412,40.7319527z"/>
		<path style="display:inline;fill:#FFFFFF;" d="M60.5790329,45.5115929c0.3158531-0.0038071,0.3995705,0.51754,0.0761108,0.5632057
			c-3.5200386,0.5061226-7.188488,0.3995705-10.7275543,0.1826591c-0.2359352-0.0152206-0.2397423-0.3691254,0-0.3691254
			C53.4856834,45.8845253,57.0247459,45.5838966,60.5790329,45.5115929z"/>
		<path style="display:inline;fill:#FFFFFF;" d="M58.8056946,50.1656532c0.3044357,0.0190277,0.3044357,0.4528465,0,0.4718742
			c-2.0168839,0.1217728-4.0718269,0.0304413-6.0887108-0.026638c-0.2701874-0.0076103-0.2701874-0.4109879,0-0.4185982
			C54.7338676,50.1352081,56.7888107,50.0400734,58.8056946,50.1656532z"/>
		<path style="display:inline;fill:#FFFFFF;" d="M58.2500992,51.843853c0.1522179-0.0723038,0.285408,0.1598282,0.1331902,0.2283287
			c-0.6050644,0.2739906-1.2405739,0.3386841-1.8875008,0.1940765c-0.1369934-0.0342484-0.0799141-0.2435493,0.0608902-0.2131042
			C57.1389122,52.1711235,57.7135315,52.0988197,58.2500992,51.843853z"/>
		<path style="display:inline;fill:#FFFFFF;" d="M57.028553,52.9702644c0.285408,0.0076103,0.285408,0.4376259,0,0.441433
			c-0.3386841,0.0076103-0.6773682-0.0076103-1.0160561-0.0190277c-0.2549629-0.0076103-0.2549629-0.3919601,0-0.3995705
			C56.3511848,52.9778748,56.6898689,52.9626541,57.028553,52.9702644z"/>
		<path style="display:inline;fill:#FFFFFF;" d="M44.135704,30.9709835c0.2092972,0.0418606,0.1598282,0.3691292-0.0494728,0.365324
			c-0.9323349-0.0152225-1.9065285-0.182663-2.827446-0.338686c-0.1826591-0.0342484-0.1369934-0.3348789,0.0456657-0.3234615
			C42.2367859,30.7236309,43.2185898,30.7807121,44.135704,30.9709835z"/>
		<path style="display:inline;fill:#FFFFFF;" d="M43.328949,31.70924c0.2245216,0.0076122,0.2245216,0.3386841,0,0.3462944
			c-0.4224052,0.0114174-0.8448105,0-1.2672119-0.0076103c-0.2169113-0.0038033-0.2131081-0.3272667,0-0.3310719
			C42.4841385,31.7054348,42.9065437,31.6940193,43.328949,31.70924z"/>
	</g>
	<g>
		<path style="fill:#FFFFFF;" d="M44.3101654,14.0323124c1.8243637-0.3670521,3.0415268,1.9609404,2.436985,3.623642
			c-0.5303802,1.4620304-1.8685036,2.4069729-3.0518761,3.3215275c-1.6637764,1.2869968-3.2865677,2.6262608-4.8634415,4.0220699
			c-6.2000237,5.4898701-11.2390213,11.7412586-16.0970154,18.4102116c-0.0042572,0.0049553-0.008482,0.0099068-0.0134354,0.0176849
			c-1.1754456,1.7963371-4.0040359,1.206852-4.5646801-0.6598434c-0.0749016-0.0247307-0.1441517-0.0840759-0.176693-0.1822853
			c-1.8564968-5.5866508-3.4063654-11.2708988-4.8615198-16.9734993c-1.2670994-4.977005-2.4303341-9.985095-3.4897156-15.0122671
			c-0.318224-1.5148792-1.1566544-3.8203216,0.2188501-5.0712228c0.9869232-0.8975706,2.5033169-0.6448679,3.6770144-0.366673
			c5.2360582,1.2419281,10.4191523,2.8280087,15.5909433,4.3151522
			C34.1955147,10.9350243,39.2803993,12.4094648,44.3101654,14.0323124z M44.6806564,19.1846714
			c0.6301537-0.5752678,1.3556938-1.3519363,1.4883652-2.243681c0.0903435-0.5900097-0.1189232-1.2548618-0.5153999-1.7232695
			c-0.4649696-0.1461906-0.9271126-0.3036575-1.395607-0.4357185c-0.0028229-0.000699-0.0028229-0.000699-0.0056496-0.001399
			c-0.1964455-0.0550909-0.3971176-0.1052294-0.5992165-0.1496868c-0.0282593-0.0070801-0.0452156-0.0233364-0.0543938-0.0466433
			c-5.7279167-1.7011576-11.4367828-3.4545803-17.183054-5.0942659c-2.7946796-0.7972355-5.5957394-1.5810409-8.4017525-2.3450646
			c-1.4930859-0.4060321-2.9862022-0.8360701-4.491292-1.2060351c-1.692359-0.4137816-3.7104006-0.5815902-3.6308079,1.9246688
			c0.0483027,1.5375447,0.6280279,3.2078204,0.9526033,4.7092395c0.3168297,1.4604874,0.6428328,2.9202156,0.9787073,4.3764486
			c0.626543,2.732975,1.2883959,5.4567451,1.9763813,8.1720657c1.473567,5.7972851,3.1414251,11.5380211,4.7541933,17.2950134
			c0.0205097,0.0742035,0.0078068,0.1370735-0.014101,0.1886711c0.281311,0.5086975,0.6947441,0.9452896,1.2346153,1.1642265
			c0.8606873,0.353157,1.6032696,0.0611801,2.2659664-0.4519157c-0.0219383-0.080555-0.0134602-0.174511,0.0472832-0.2734451
			c3.2592697-5.2936592,7.5134792-10.1585579,11.8921089-14.5479698c2.2974319-2.2968197,4.7100258-4.4778042,7.2286682-6.5301647
			C42.3513527,21.0321369,43.5933952,20.1832771,44.6806564,19.1846714z"/>
		<path style="fill:#FFFFFF;" d="M44.0355835,15.5522308c0.1243706,0.0911293,0.0261917,0.2797976-0.1193619,0.2134027
			c-0.7801552-0.3630314-1.4839668-0.6710005-2.350975-0.7584591c-0.132122-0.0119743-0.1434555-0.218996-0.0042534-0.2112761
			C42.4074936,14.8332186,43.3437538,15.0400658,44.0355835,15.5522308z"/>
		<path style="fill:#FFFFFF;" d="M43.5219612,15.9494362c0.1710129,0.0367079,0.10392,0.3052006-0.0649376,0.2600155
			c-0.438839-0.1186314-0.8748169-0.2365341-1.3136253-0.3551655c-0.1349754-0.0367374-0.0834084-0.2430601,0.0529633-0.2120037
			C42.6386948,15.7467842,43.0789299,15.8477602,43.5219612,15.9494362z"/>
		<path style="fill:#FFFFFF;" d="M42.2213593,17.1289597c0.3405991,0.1151066,0.21492,0.6542492-0.1369858,0.5483208
			c-4.9916306-1.5112095-9.9606209-3.0768089-14.9854355-4.4792032c-5.021986-1.4016657-10.0962086-2.6182184-15.1210213-4.0086107
			c-0.1964178-0.0550613-0.1208754-0.3454924,0.0762711-0.3052597
			C22.2237549,10.8601513,32.4161377,13.8026829,42.2213593,17.1289597z"/>
		<path style="fill:#FFFFFF;" d="M36.8069153,21.9863129c0.3172913,0.1002789,0.2000885,0.5934772-0.1263809,0.5059319
			c-7.9424343-2.0922165-15.8432388-4.5193195-23.6917477-6.9394016c-0.2423897-0.075572-0.151989-0.4493828,0.0953245-0.3815899
			C21.0074654,17.3277664,28.9795876,19.5054588,36.8069153,21.9863129z"/>
		<path style="fill:#FFFFFF;" d="M33.9571457,25.3763351c0.2268333,0.0776691,0.1463356,0.4118881-0.090374,0.3617783
			c-3.2857475-0.6946869-6.5199947-1.7158413-9.7556381-2.611227c-3.2440929-0.8974838-6.4988174-1.7766132-9.7196026-2.7553787
			c-0.1978741-0.0614128-0.1230297-0.361021,0.0776701-0.3109112c3.2680979,0.8014011,6.5136156,1.705265,9.7619619,2.5857925
			C27.473856,23.5255184,30.7758942,24.2993317,33.9571457,25.3763351z"/>
		<path style="fill:#FFFFFF;" d="M30.4968834,28.8180389c0.2770042,0.0811939,0.1739273,0.4938698-0.1087208,0.4352818
			c-4.9830704-1.0406456-9.9718151-2.3949699-14.8708296-3.7839622c-0.1936207-0.0543633-0.120204-0.34832,0.0762424-0.3052597
			C20.5702591,26.2421799,25.6098709,27.3930073,30.4968834,28.8180389z"/>
		<path style="fill:#FFFFFF;" d="M27.9058456,32.7831535c0.2684937,0.0790977,0.1661186,0.4769135-0.1052303,0.4211502
			c-3.9181786-0.8196373-7.8017788-1.9459648-11.664896-2.9980888c-0.1688833-0.0451851-0.1046181-0.3024044,0.0663662-0.2656956
			C20.1054649,30.8315353,24.0625095,31.6639061,27.9058456,32.7831535z"/>
		<path style="fill:#FFFFFF;" d="M25.5096531,35.9561882c0.2353096,0.0557594,0.200758,0.4585304-0.0479832,0.4324265
			c-2.7083855-0.2772026-5.4133358-1.0370026-8.0017223-1.8547783c-0.172411-0.0550919-0.1095982-0.3186607,0.0684929-0.2741737
			C20.1718903,34.9170303,22.8563042,35.3503876,25.5096531,35.9561882z"/>
		<path style="fill:#FFFFFF;" d="M23.328989,39.0839195c0.222578,0.0706215,0.1420841,0.3928375-0.0875759,0.3504753
			c-1.5206165-0.2837601-3.0299892-0.7328796-4.5174255-1.1495171c-0.1992722-0.0557594-0.1244278-0.3553696,0.0776711-0.3109093
			C20.3103027,38.3057976,21.8542271,38.6164169,23.328989,39.0839195z"/>
		<path style="fill:#FFFFFF;" d="M22.6049366,40.2273178c0.1264687-0.0254593,0.1823196,0.1716576,0.0565472,0.194294
			c-0.5002499,0.0912437-0.984272,0.0213814-1.4379368-0.2060623c-0.0954113-0.0508652-0.0141544-0.1957169,0.0847492-0.1469765
			C21.7188721,40.2642326,22.1590786,40.3171387,22.6049366,40.2273178z"/>
		<path style="fill:#FFFFFF;" d="M21.4886322,40.8373146c0.2105751,0.0585861,0.1307793,0.3779755-0.0819244,0.3278656
			c-0.2529602-0.0571861-0.5016766-0.1313324-0.7511158-0.202652c-0.1879692-0.0529633-0.1166515-0.3384399,0.0741138-0.2967796
			C20.9841003,40.7172852,21.238493,40.7688217,21.4886322,40.8373146z"/>
		<path style="fill:#FFFFFF;" d="M15.9943638,22.1052074c0.147707,0.0699196,0.0502262,0.3038311-0.1045313,0.2621708
			c-0.6896458-0.1842976-1.3821754-0.4894409-2.0372076-0.7762012c-0.1293268-0.0593147-0.0396214-0.2741451,0.0939226-0.2317562
			C14.6298428,21.5691528,15.348505,21.7937126,15.9943638,22.1052074z"/>
		<path style="fill:#FFFFFF;" d="M15.2581625,22.5038395c0.1653614,0.0473118,0.1039476,0.2932281-0.0642357,0.2572193
			c-0.3158674-0.069891-0.6274786-0.1567383-0.9398174-0.2407875c-0.160409-0.0430603-0.0975389-0.2825947,0.0614462-0.2458858
			C14.6314154,22.3442764,14.9472504,22.4141674,15.2581625,22.5038395z"/>
	</g>
</g>
</svg>
