<?xml version="1.0" encoding="utf-8"?>
<!-- Generator: Adobe Illustrator 23.1.0, SVG Export Plug-In . SVG Version: 6.00 Build 0)  -->
<svg version="1.1" id="Слой_1" xmlns="http://www.w3.org/2000/svg" xmlns:xlink="http://www.w3.org/1999/xlink" x="0px" y="0px"
	 viewBox="0 0 50 50" style="enable-background:new 0 0 50 50;" xml:space="preserve">
<rect style="display:none;" width="50" height="50"/>
<g>
	<g>
		<g>
			<g>
				<path style="fill:#FFFFFF;" d="M25.1265411,22.6073856c-0.408638,0-0.7399693-0.3313293-0.7399693-0.7399864V2.4075301
					c0-0.4086396,0.3313313-0.7399697,0.7399693-0.7399697c0.4086571,0,0.7399864,0.3313302,0.7399864,0.7399697v19.4598694
					C25.8665276,22.2760563,25.5351982,22.6073856,25.1265411,22.6073856z"/>
			</g>
		</g>
		<g>
			<g>
				<path style="fill:#FFFFFF;" d="M25.0633125,16.3421841c-0.1893253,0-0.3786526-0.0722637-0.5231781-0.2167912
					l-6.4550743-6.4548855c-0.2890358-0.2888832-0.2890358-0.7574949,0-1.0463772
					c0.2886944-0.289053,0.7573223-0.289053,1.0463753,0l5.9318771,5.9315195l5.8052521-5.8050632
					c0.2886944-0.2890358,0.7576809-0.2890358,1.0463581,0c0.289053,0.2888832,0.289053,0.7575111,0,1.0463772l-6.328413,6.3284292
					C25.4421539,16.2699203,25.2526398,16.3421841,25.0633125,16.3421841z"/>
			</g>
		</g>
		<g>
			<g>
				<path style="fill:#FFFFFF;" d="M25.0356808,9.6499138c-0.1893272,0-0.3788414-0.0722628-0.52318-0.2167892l-3.2057686-3.2057681
					c-0.289053-0.2888827-0.289053-0.757494,0-1.0463767c0.2886944-0.289053,0.7576809-0.289053,1.04636,0L25.0356808,7.86338
					l2.7734489-2.773262c0.2886944-0.289053,0.7576809-0.289053,1.0463772,0c0.2890358,0.2888656,0.2890358,0.757494,0,1.0463595
					l-3.296648,3.2966471C25.4145203,9.577651,25.2250061,9.6499138,25.0356808,9.6499138z"/>
			</g>
		</g>
	</g>
	<g>
		<g>
			<g>
				<path style="fill:#FFFFFF;" d="M22.3496647,24.0641918c-0.1255531,0-0.2527409-0.0319633-0.3692589-0.0993519
					L5.127605,14.2349911c-0.3539181-0.2043285-0.475141-0.6568642-0.2708125-1.0107822
					c0.2041407-0.3540878,0.6568642-0.475481,1.0107818-0.2707949l16.8528004,9.7298326
					c0.3539009,0.2043266,0.4751225,0.6568813,0.270813,1.0107822
					C22.8542461,23.9314098,22.6054764,24.0641918,22.3496647,24.0641918z"/>
			</g>
		</g>
		<g>
			<g>
				<path style="fill:#FFFFFF;" d="M8.0748339,23.3491631c-0.3266249,0-0.6256166-0.2180519-0.7141256-0.548666
					c-0.1058636-0.3947296,0.1284337-0.8004875,0.5231795-0.9061813l8.1026554-2.1711349l-2.1246996-7.9301386
					c-0.1058636-0.3947287,0.1284513-0.8004875,0.52318-0.9061804c0.3942003-0.1065798,0.8003168,0.1282806,0.9061804,0.5231972
					l2.3163795,8.6448097c0.0509529,0.1895142,0.0242062,0.391489-0.0738831,0.5614853
					c-0.0980911,0.1699944-0.2597828,0.2939281-0.449297,0.3446941l-8.8175154,2.3626289
					C8.2027397,23.3410301,8.1382504,23.3491631,8.0748339,23.3491631z"/>
			</g>
		</g>
		<g>
			<g>
				<path style="fill:#FFFFFF;" d="M6.7038269,18.8375931c-0.3266253,0-0.625617-0.2180519-0.7141261-0.5486488
					c-0.1058803-0.3947449,0.1284342-0.8004875,0.52318-0.9061794l3.6642699-0.9818707l-1.0151119-3.7885618
					c-0.1058636-0.3947458,0.1284513-0.8005047,0.52318-0.9061804c0.394558-0.1067667,0.8004875,0.1282635,0.9061804,0.52318
					l1.2067909,4.5032501c0.0509377,0.1895142,0.0242071,0.3914909-0.0738831,0.5614853
					c-0.0981064,0.1699944-0.2598,0.2939281-0.449297,0.344696L6.895864,18.8121243
					C6.8317323,18.8294792,6.7672424,18.8375931,6.7038269,18.8375931z"/>
			</g>
		</g>
	</g>
	<g>
		<g>
			<g>
				<path style="fill:#FFFFFF;" d="M5.3718405,36.9266434c-0.2558107,0-0.5045643-0.132782-0.6415048-0.3701668
					c-0.2043281-0.3539162-0.0831051-0.8064537,0.2707958-1.0107803l16.8526306-9.7298489
					c0.3539009-0.2048569,0.8066406-0.0831051,1.0107822,0.2708111c0.2043114,0.3539009,0.0831051,0.8064556-0.270813,1.0107822
					L5.7411008,36.8272743C5.6245832,36.8946609,5.4974108,36.9266434,5.3718405,36.9266434z"/>
			</g>
		</g>
		<g>
			<g>
				<path style="fill:#FFFFFF;" d="M14.4675837,39.2018356c-0.0634155,0-0.1279058-0.0081139-0.1920376-0.0254707
					c-0.3947458-0.1056747-0.6290426-0.5114326-0.5231791-0.9061775l2.170949-8.1030159l-7.9299507-2.1249046
					c-0.3947287-0.1056747-0.6290431-0.5114326-0.5231795-0.9061623c0.105505-0.3949337,0.5114341-0.6299629,0.9061799-0.5231972
					l8.6448097,2.3163967c0.3947277,0.1056747,0.6290436,0.5114346,0.52318,0.9061794l-2.3626289,8.8177032
					C15.0932007,38.9837837,14.7942085,39.2018356,14.4675837,39.2018356z"/>
			</g>
		</g>
		<g>
			<g>
				<path style="fill:#FFFFFF;" d="M9.8749037,38.1334343c-0.0633993,0-0.1279058-0.0081329-0.1920376-0.0254707
					c-0.3947287-0.10569-0.6290426-0.5114517-0.52318-0.9061775l0.9816999-3.6644592l-3.7883916-1.0153008
					c-0.3947287-0.1056747-0.6290431-0.5114326-0.5231795-0.9061623c0.105505-0.3947468,0.5116215-0.6304913,0.9061799-0.5231972
					l4.5032334,1.2067909c0.3947458,0.1056938,0.6290607,0.5114517,0.5231972,0.9061813l-1.1733789,4.3791466
					C10.5005198,37.9153824,10.2015457,38.1334343,9.8749037,38.1334343z"/>
			</g>
		</g>
	</g>
	<g>
		<g>
			<g>
				<path style="fill:#FFFFFF;" d="M24.8734417,48.3324394c-0.4086399,0-0.7399693-0.3313141-0.7399693-0.7399712V28.1326008
					c0-0.4086399,0.3313293-0.7399693,0.7399693-0.7399693c0.4086552,0,0.7399864,0.3313293,0.7399864,0.7399693v19.4598675
					C25.6134281,48.0011253,25.2820969,48.3324394,24.8734417,48.3324394z"/>
			</g>
		</g>
		<g>
			<g>
				<path style="fill:#FFFFFF;" d="M31.3917446,41.592659c-0.1893272,0-0.3788414-0.0722618-0.52318-0.2167892l-5.9318771-5.9317055
					l-5.8052521,5.8050613c-0.2886944,0.2890549-0.7576809,0.2890549-1.0463753,0
					c-0.2890358-0.2888641-0.2890358-0.7574959,0-1.04636l6.3284302-6.3284302c0.2886944-0.2890511,0.7576809-0.2890511,1.0463753,0
					l6.4550571,6.4550743c0.289053,0.2888641,0.289053,0.7574959,0,1.04636
					C31.7705841,41.5203972,31.5810699,41.592659,31.3917446,41.592659z"/>
			</g>
		</g>
		<g>
			<g>
				<path style="fill:#FFFFFF;" d="M21.6676903,45.1266899c-0.1893425,0-0.3786697-0.0722656-0.5231972-0.2167892
					c-0.289053-0.2888832-0.289053-0.7575111,0-1.0463791l3.296648-3.2968178c0.2774773-0.2774925,0.7688808-0.2774925,1.0463581,0
					l3.2057686,3.2057686c0.289053,0.288868,0.289053,0.7574959,0,1.04636c-0.2886944,0.2890549-0.7576809,0.2890549-1.04636,0
					l-2.6825886-2.6823997l-2.7734489,2.773468C22.0465145,45.0544243,21.8570175,45.1266899,21.6676903,45.1266899z"/>
			</g>
		</g>
	</g>
	<g>
		<g>
			<g>
				<path style="fill:#FFFFFF;" d="M44.5015144,37.1459541c-0.1255531,0-0.2527428-0.0319633-0.3692589-0.09935
					l-16.8526306-9.7300377c-0.3539009-0.2043114-0.4751225-0.6568642-0.270813-1.0107651
					c0.2041416-0.3539181,0.657053-0.4753113,1.0107822-0.270813l16.8526287,9.7300186
					c0.3539009,0.2043304,0.4751244,0.6568832,0.2707977,1.0107841
					C45.0060959,37.0131721,44.757328,37.1459541,44.5015144,37.1459541z"/>
			</g>
		</g>
		<g>
			<g>
				<path style="fill:#FFFFFF;" d="M35.4227524,39.138607c-0.3266258,0-0.625618-0.2180519-0.7141266-0.5486488
					l-2.3163948-8.6448269c-0.0509567-0.189497-0.0242081-0.3914719,0.0738792-0.5614853
					c0.0981102-0.1699944,0.2597847-0.2939281,0.4492989-0.344677l8.8177032-2.3626461
					c0.3943863-0.106596,0.8003159,0.1282635,0.9061813,0.52318c0.1058617,0.3947468-0.1284523,0.8005047-0.5231819,0.9061813
					l-8.1028442,2.1711349l2.1247177,7.9301395c0.1058655,0.3947449-0.1284523,0.8005028-0.5231972,0.9061813
					C35.5506554,39.1304741,35.4861679,39.138607,35.4227524,39.138607z"/>
			</g>
		</g>
		<g>
			<g>
				<path style="fill:#FFFFFF;" d="M40.1225548,38.3193321c-0.326622,0-0.6256142-0.2180481-0.7141418-0.5486641
					l-1.206604-4.5032349c-0.1058617-0.3947449,0.1284523-0.8005028,0.5231819-0.9061775l4.3791275-1.1735497
					c0.394558-0.1064091,0.8005066,0.1282635,0.9061813,0.52318c0.1058617,0.3947277-0.1284332,0.8004856-0.5231819,0.9061794
					l-3.6642685,0.9820557l1.0149231,3.7885628c0.1058807,0.3947296-0.1284332,0.8004875-0.5231781,0.9061813
					C40.2504616,38.311203,40.1859741,38.3193321,40.1225548,38.3193321z"/>
			</g>
		</g>
	</g>
	<g>
		<g>
			<g>
				<path style="fill:#FFFFFF;" d="M27.7767906,24.2835217c-0.2558098,0-0.5045815-0.132782-0.6415043-0.3701649
					c-0.2043285-0.3539162-0.0831051-0.8064709,0.2707958-1.0107803l16.8527985-9.7300377
					c0.35392-0.2048569,0.8066444-0.0830879,1.0107841,0.270813c0.2043266,0.3539,0.0831032,0.8064537-0.2707977,1.0107813
					l-16.8528156,9.7300196C28.0295334,24.2515411,27.9023438,24.2835217,27.7767906,24.2835217z"/>
			</g>
		</g>
		<g>
			<g>
				<path style="fill:#FFFFFF;" d="M41.8155022,23.4123898c-0.0634155,0-0.1279068-0.008131-0.1920395-0.0254688
					l-8.6446381-2.3163948c-0.3947449-0.1056938-0.6290436-0.5114346-0.5231781-0.9061813l2.3626251-8.8175316
					c0.1055069-0.3949165,0.5116234-0.6301174,0.9061813-0.52318c0.3947296,0.1056929,0.6290436,0.5114517,0.5231819,0.9061804
					l-2.1709518,8.1028433l7.9297638,2.1248875c0.3947449,0.1056938,0.6290588,0.5114517,0.5231972,0.9061813
					C42.4411163,23.1943398,42.142128,23.4123898,41.8155022,23.4123898z"/>
			</g>
		</g>
		<g>
			<g>
				<path style="fill:#FFFFFF;" d="M43.4560432,18.9326305c-0.0634003,0-0.1279068-0.008131-0.1920395-0.0254841l-4.503418-1.206604
					c-0.1895142-0.0507679-0.3512077-0.1747017-0.4492989-0.344696s-0.124836-0.3719711-0.0738831-0.5614853l1.1733627-4.3791285
					c0.1055031-0.3949165,0.5107193-0.6306801,0.9061813-0.52318c0.3947258,0.1056757,0.6290398,0.5114336,0.5231781,0.9061632
					l-0.9816818,3.6644573l3.7885628,1.0151119c0.3947258,0.1056938,0.6290398,0.5114517,0.5231781,0.9061813
					C44.0816574,18.7145805,43.7826843,18.9326305,43.4560432,18.9326305z"/>
			</g>
		</g>
	</g>
	<g>
		<g>
			<path style="fill:#FFFFFF;" d="M24.9999142,28.87257c-2.1353703,0-3.87257-1.7371979-3.87257-3.87257
				s1.7371998-3.87257,3.87257-3.87257S28.8724861,22.8646278,28.8724861,25S27.1352863,28.87257,24.9999142,28.87257z
				 M24.9999142,22.6073856c-1.3193531,0-2.3926315,1.0732765-2.3926315,2.3926144s1.0732784,2.3926315,2.3926315,2.3926315
				c1.3193378,0,2.3926144-1.0732937,2.3926144-2.3926315S26.319252,22.6073856,24.9999142,22.6073856z"/>
		</g>
	</g>
	<g>
		<g>
			<g>
				<path style="fill:#FFFFFF;" d="M22.1980991,16.4301643l-2.6043587-2.56353
					c-0.2348595-0.2314329-0.5947266-0.2793016-0.8823318-0.1172514c-0.2874336,0.1618643-0.4328632,0.4946432-0.3566284,0.8154898
					l0.8877525,3.7388859c0.0462494,0.1949348,0.1696377,0.3627644,0.341814,0.4651852l1.7339439,1.0306587
					c0.116518,0.0691948,0.2473202,0.1038685,0.3781242,0.1038685c0.1271725,0,0.2543621-0.0326958,0.3683567-0.0982761
					c0.2317753-0.1329517,0.3735905-0.3804607,0.3716125-0.6474724l-0.0173531-2.2059975
					C22.4174118,16.7553406,22.3381081,16.5678215,22.1980991,16.4301643z"/>
			</g>
		</g>
		<g>
			<g>
				<path style="fill:#FFFFFF;" d="M19.0335159,24.9443569c0.0005455-0.2671814-0.1427193-0.5137863-0.3750381-0.6454926
					l-1.9191284-1.087904c-0.1705399-0.0972042-0.3736057-0.121769-0.5620289-0.0695534l-3.5220976,0.9737396
					c-0.3179474,0.0879803-0.5394421,0.3757725-0.5428686,0.7054653c-0.0034266,0.3298817,0.2119141,0.6221905,0.5280552,0.7166653
					l3.6817951,1.1007404c0.0693817,0.0207806,0.1407413,0.0310783,0.2119141,0.0310783
					c0.1255703,0,0.2503891-0.0319805,0.3618622-0.0944767l1.759428-0.9865742
					C18.8884449,25.457428,19.0329704,25.2113686,19.0335159,24.9443569z"/>
			</g>
		</g>
		<g>
			<g>
				<path style="fill:#FFFFFF;" d="M21.9684715,30.1393509c-0.2310581-0.1344166-0.5161381-0.1335144-0.7464638,0.0019779
					l-1.9017906,1.1179066c-0.1690922,0.099369-0.2919331,0.2621365-0.3412514,0.4520073l-0.917738,3.5372696
					c-0.0827484,0.3194122,0.0556412,0.6548843,0.339632,0.8229027c0.1170635,0.0691948,0.2471333,0.1029663,0.3764877,0.1029663
					c0.1844521,0,0.3672829-0.068821,0.5081959-0.2019768l2.7942123-2.6383133
					c0.1458054-0.1374893,0.2294388-0.3282623,0.2319794-0.5287895l0.0252819-2.0168591
					C22.3402729,30.521431,22.1995296,30.2733936,21.9684715,30.1393509z"/>
			</g>
		</g>
		<g>
			<g>
				<path style="fill:#FFFFFF;" d="M30.7574673,31.6960716c-0.0462494-0.1949348-0.1696377-0.362936-0.3419857-0.4652023
					l-1.734129-1.0304546c-0.229269-0.1364117-0.5147076-0.1385765-0.7464828-0.0056095
					c-0.2316036,0.1329689-0.3734188,0.3804607-0.3714256,0.6474724l0.0173378,2.2060165
					c0.0016193,0.1963654,0.0809402,0.3838844,0.2209492,0.5215569l2.6043587,2.56353
					c0.1419868,0.1398239,0.3295059,0.2126312,0.519207,0.2126312c0.1242924,0,0.2493-0.0312653,0.3631058-0.0953941
					c0.2874336-0.1618652,0.4328651-0.4944572,0.3566284-0.8154907L30.7574673,31.6960716z"/>
			</g>
		</g>
		<g>
			<g>
				<path style="fill:#FFFFFF;" d="M37.3595924,24.4627228l-3.6818123-1.1007404
					c-0.1920395-0.0574493-0.3988914-0.0346909-0.573761,0.0634155l-1.7595978,0.9863873
					c-0.2328663,0.1306152-0.3773918,0.3766766-0.3781261,0.6436863c-0.0007153,0.2670116,0.1427193,0.5137863,0.3750572,0.6454773
					l1.9191113,1.0881081c0.1121864,0.0637741,0.2381134,0.096283,0.3649292,0.096283
					c0.0661278,0,0.1324234-0.0088482,0.1971016-0.0267296l3.5222816-0.9737396
					c0.3179474-0.0879803,0.539444-0.3756008,0.5428696-0.7054825
					C37.8910713,24.8495235,37.6757317,24.5572147,37.3595924,24.4627228z"/>
			</g>
		</g>
		<g>
			<g>
				<path style="fill:#FFFFFF;" d="M28.0313396,19.8606663c0.1148987,0.0668411,0.2431622,0.1000843,0.3714256,0.1000843
					c0.1297131,0,0.2592545-0.0339756,0.3750572-0.1020794l1.9017735-1.1180763
					c0.1690903-0.099556,0.2919502-0.2621365,0.3412685-0.4520092l0.9179077-3.537097
					c0.0827465-0.319397-0.0556412-0.6548872-0.339632-0.8228874c-0.2841778-0.1680174-0.6451187-0.1275473-0.8846836,0.0989933
					l-2.7942123,2.6381464c-0.1456184,0.1374683-0.2294388,0.3282433-0.2319794,0.5286007l-0.0254688,2.017046
					C27.6595402,19.478569,27.8002815,19.7266064,28.0313396,19.8606663z"/>
			</g>
		</g>
	</g>
</g>
</svg>
