<?xml version="1.0" encoding="utf-8"?>
<!-- Generator: Adobe Illustrator 23.1.0, SVG Export Plug-In . SVG Version: 6.00 Build 0)  -->
<svg version="1.1" id="Слой_1" xmlns="http://www.w3.org/2000/svg" xmlns:xlink="http://www.w3.org/1999/xlink" x="0px" y="0px"
	 viewBox="0 0 150 50" enable-background="new 0 0 150 50" xml:space="preserve">
<rect display="none" width="150" height="50"/>
<g>
	<path fill="#FFFFFF" d="M93.0054398,22.2371597c-0.830986-3.1892586-2.4844513-6.3484993-5.0149002-8.5115252
		c-0.9618454-0.8217821-1.9981461-1.5713739-3.0873871-2.242342c-0.1622772-0.1336288-0.3219452-0.2710781-0.474144-0.4158316
		c-0.7003098-0.6659393-1.6080017-1.2711153-2.5167389-1.6135483c1.9077225-2.3365874,2.9740524-8.6019487-1.0855942-8.7826195
		c-1.7070847-0.0772198-3.3232422,0.9793853-4.4143753,2.1986051c-0.4370193,0.4885731-0.5250092,1.0928779-0.222847,1.6571069
		c0.115593,0.2162509,0.4564438,0.3835754,0.6549911,0.5024529c0.3655014,0.185523,0.7122726,0.4023075,1.0408249,0.6494465
		c0.8479767,0.6987281,0.6758194,1.5970545-0.5111313,2.6942692c-5.5645523-1.0349054-11.7313309,1.1690845-15.9180107,4.7986469
		c-2.0634117,1.7891884-4.0193748,4.3236341-4.878994,6.9313002c-0.6376457,1.934618,0.4817848,3.3161316,2.3306694,3.3315754
		c-0.0180397,0.0572796-0.0373039,0.1138496-0.0555382,0.1723366c-0.6126404,1.9413185-0.8575401,3.935812-0.919136,5.9660606
		c-0.0822678,2.6984444,0.6110764,5.0924721,1.7447395,7.3386383c0.765213,1.8025513,1.8285904,3.4856949,3.1141167,4.9234238
		c0.9467392,1.0600891,2.1208496,1.9035683,3.2673645,2.7310753c0.7103577,0.513382,1.2039566,0.8080788,1.4483261,1.6737747
		c0.1287766,0.4543648,0.5402679,0.620285,0.9328537,0.7466431c0.4904785,0.1586151,1.0404663-0.1659203,1.3941727-0.4675674
		c1.08004-0.9201851,3.5370712-0.5782852,4.9388809-0.832016c2.7635269-0.5005341,5.2703552-2.1881905,7.4184723-3.9133492
		c0.2421112-0.1943741,0.475708-0.3929214,0.7060165-0.5932159c0.0064163-0.0027695,0.0100555-0.0006905,0.0164871-0.005188
		c1.6187592-0.9694862,2.7810516-2.7095528,3.8784409-4.2021446c0.615097-0.8372269,1.1687317-1.6598778,1.6598969-2.5752144
		c0.4293747-0.7990494,1.0741348-1.6300392,1.1656036-2.5519657c1.0977325,0.3613415,2.6916733-1.0250244,3.134758-1.7949123
		C94.0592728,27.7851315,93.625206,24.6139297,93.0054398,22.2371597z"/>
	<path d="M82.2375107,41.0159836c-2.2383423,1.9667358-4.8659821,3.6030121-7.8195496,4.1729622
		c-1.2421417,0.2402077-2.5068436,0.0447884-3.7397842,0.2769966c-1.2665939,0.2391586-2.1078186,1.8629608-2.8263474-0.2370796
		c-0.2495728-0.72789-1.5673752-1.3464317-2.1494827-1.7928123c-0.9771271-0.7494164-1.8877678-1.5630569-2.707653-2.4804726
		c-2.0083885-2.2458076-3.1974144-5.2163811-3.8078156-8.1342049c-0.3195076-1.5269432-0.4359665-3.0407009-0.3934402-4.5367565
		c0.0872993-1.2516727,0.2695313-2.4977989,0.5395813-3.7168598c0.2804604-1.2691231,0.6470108-2.847784,1.2808342-4.0586872
		c0.9236717-0.239336,1.8608627-0.383379,2.8591576-0.4847507c3.6774788-0.3707085,7.645649,0.0026131,11.1860161,1.0298939
		c3.2881927,0.9538631,6.6242905,2.0416946,9.6503983,3.6548157c1.9724503,1.0520916,3.8659439,2.100378,5.5371246,3.4679947
		C88.3081436,33.0688667,86.1902466,37.5438309,82.2375107,41.0159836z"/>
	<path fill="#FFFFFF" d="M67.1152649,43.6189766c-1.0635529-0.7136726-1.9976349-1.361042-2.8536148-2.3409233
		c-1.7013588-1.9465981-2.9219818-4.2219238-3.5695114-6.7280579c-0.6629868-2.5672531-1.0394325-5.4208488-0.6983871-8.065836
		c0.1817017-1.4127407,0.5309029-2.7811394,0.9630508-4.1369553c0.2386436-0.7485619,0.6449318-1.4316673,0.9665375-2.1448097
		c-0.5038414,0.0808811-0.9981194,0.1798-1.4872055,0.306675c-0.6338272,1.2109032-1.0003738,2.7895641-1.280838,4.0586872
		c-0.2700462,1.2190609-0.452282,2.4651871-0.5395775,3.7168598c-0.0425301,1.4960556,0.0739326,3.0098133,0.3934364,4.5367565
		c0.6104012,2.9178238,1.799427,5.8883972,3.8078194,8.1342049c0.8198814,0.9174156,1.730526,1.7310562,2.707653,2.4804726
		c0.5821075,0.4463806,1.89991,1.0649223,2.1494827,1.7928123c0.1285934,0.3755798,0.2613754,0.6307144,0.399353,0.7973289
		C68.1397552,45.1000862,67.9104919,44.152832,67.1152649,43.6189766z"/>
	<path d="M92.5885544,29.2711105c-0.2518311,0.9354706-2.0387573,2.8556938-2.9776917,1.9254303
		c-0.0168304-0.0166531-0.0374832-0.0236015-0.0583115-0.0308876c0.3208923-0.834116,0.603096-1.6831436,0.8259354-2.534605
		c0.1824188,0.1617432,0.3578796,0.3353062,0.5340347,0.5071259c0.0076447,0.0190887,0.0158005,0.0371437,0.0236053,0.0565701
		c0.0144119,0.0371437,0.044426,0.0458336,0.0777512,0.0399342c0.2983398,0.2960815,0.5899277,0.6022243,0.868309,0.9295521
		c-0.3144913-0.6636829-0.6397247-1.3214455-1.0408249-1.9271545c-0.3986435-0.7726784-1.0205078-1.3527069-1.8315201-1.8070679
		c-1.5637512-0.877142-2.9801331-1.8990383-4.608429-2.694891c-3.2763977-1.6020851-6.4505463-3.1970596-10.0443726-3.9586315
		c-3.2751694-0.6942139-7.1480637-1.2056942-10.4660988-0.6100445c-1.587513,0.2847977-4.9242935,0.3524914-5.6659088,2.1814194
		c-0.0275803,0.0239563-0.0551796,0.0480728-0.0791397,0.0723686c0.0215225-0.0071087,0.0427094-0.0168304,0.0638733-0.0242958
		c-0.0352402,0.0937309-0.0702858,0.1879578-0.0914726,0.2914104c-0.0215225,0.104641,0.1083031,0.0682087,0.1468353,0.015089
		c0.1914406-0.2674541,0.4338875-0.4734497,0.701519-0.6444168c0.3035469-0.1273727,0.6063995-0.2434959,0.9088974-0.3420773
		c-0.1232109,0.3450451-0.2379303,0.6924896-0.3483124,1.040308c-0.2002907,0.4526196-0.3682938,0.9137707-0.5241356,1.3882675
		c-5.6020355-1.507679,1.907711-9.274641,4.3496513-10.9966698c4.3697853-3.0811319,10.2227821-4.3578091,15.3759804-2.8888378
		c4.170723,1.1885099,8.5944901,3.8841829,11.1136475,7.4391193c1.4903336,2.1036663,2.3686981,4.4904079,2.9360428,6.985096
		c0.3269882,1.4360924,0.370369,2.8908291,0.0980606,4.3351688C92.7966537,28.441864,92.700325,28.8559723,92.5885544,29.2711105z"
		/>
	<path d="M92.5885544,29.2711105c-0.2518311,0.9354706-2.0387573,2.8556938-2.9776917,1.9254303
		c-0.0168304-0.0166531-0.0374832-0.0236015-0.0583115-0.0308876c0.3208923-0.834116,0.603096-1.6831436,0.8259354-2.534605
		c0.1824188,0.1617432,0.3578796,0.3353062,0.5340347,0.5071259c0.0076447,0.0190887,0.0158005,0.0371437,0.0236053,0.0565701
		c0.0144119,0.0371437,0.044426,0.0458336,0.0777512,0.0399342c0.2983398,0.2960815,0.5899277,0.6022243,0.868309,0.9295521
		c-0.3144913-0.6636829-0.6397247-1.3214455-1.0408249-1.9271545c-0.3986435-0.7726784-1.0205078-1.3527069-1.8315201-1.8070679
		c-1.5637512-0.877142-2.9801331-1.8990383-4.608429-2.694891c-3.2763977-1.6020851-6.4505463-3.1970596-10.0443726-3.9586315
		c-3.2751694-0.6942139-7.1480637-1.2056942-10.4660988-0.6100445c-1.587513,0.2847977-4.9242935,0.3524914-5.6659088,2.1814194
		c-0.0275803,0.0239563-0.0551796,0.0480728-0.0791397,0.0723686c0.0215225-0.0071087,0.0427094-0.0168304,0.0638733-0.0242958
		c-0.0352402,0.0937309-0.0702858,0.1879578-0.0914726,0.2914104c-0.0215225,0.104641,0.1083031,0.0682087,0.1468353,0.015089
		c0.1914406-0.2674541,0.4338875-0.4734497,0.701519-0.6444168c0.3035469-0.1273727,0.6063995-0.2434959,0.9088974-0.3420773
		c-0.1232109,0.3450451-0.2379303,0.6924896-0.3483124,1.040308c-0.2002907,0.4526196-0.3682938,0.9137707-0.5241356,1.3882675
		c-5.6020355-1.507679,1.907711-9.274641,4.3496513-10.9966698c4.3697853-3.0811319,10.2227821-4.3578091,15.3759804-2.8888378
		c4.170723,1.1885099,8.5944901,3.8841829,11.1136475,7.4391193c1.4903336,2.1036663,2.3686981,4.4904079,2.9360428,6.985096
		c0.3269882,1.4360924,0.370369,2.8908291,0.0980606,4.3351688C92.7966537,28.441864,92.700325,28.8559723,92.5885544,29.2711105z"
		/>
	<path fill="#FFFFFF" d="M57.7376862,19.6163731c0.6641998-1.4632492,1.464653-2.9060078,2.5476341-4.1040602
		c2.2270737-2.4632854,5.2021599-4.3717079,8.3525352-5.4159784c2.9943695-0.9929276,6.1707764-1.3303137,9.3043365-1.081255
		C72.9875259,7.8814144,67.50177,9.1750994,63.3527489,12.1005478c-1.9485168,1.373518-7.1209984,6.5942516-6.2896729,9.4152184
		C57.2208405,20.8614674,57.4627876,20.2231293,57.7376862,19.6163731z"/>
	<path fill="#FFFFFF" d="M92.7643585,24.4775105c-0.2391586-0.0572796-0.5-0.0770588-0.7731934-0.0697727
		c-0.3143005-0.8911285-0.6621017-1.7821522-1.0413208-2.665905c0.1862183-0.0203133,0.3717575-0.041481,0.5591965-0.0596962
		c0.0923309-0.0097218,0.252533-0.2332592,0.1013565-0.2390003c-0.2594681-0.0090103-0.5262299-0.0118008-0.7955856-0.0090103
		c-0.2757874-0.6317444-0.5656128-1.2575893-0.8650055-1.878582c-0.6562119-0.956459-1.2357101-1.9636059-1.8981628-2.9136486
		c0.654808,1.6177235,1.3597946,3.2217102,2.0968933,4.8106251c-1.3464508,0.0640335-2.7670135,0.2900047-4.0504379,0.736742
		c-0.2242508-0.3094463-0.4441452-0.627924-0.6664581-0.9427567c-0.4288559-0.8342762-0.8615341-1.6727276-1.3006363-2.5108242
		c0.736412-0.1683559,1.476799-0.3306332,2.2189255-0.5140762c0.0871201-0.0595379,0.175621-0.1188965,0.2601471-0.1824131
		c0.0761871-0.0572624,0.1640167-0.1235695,0.2478485-0.1954231c-0.9320068,0.1178474-1.9332504,0.2717896-2.9403992,0.4877033
		c-0.5305481-1.0050659-1.0727386-2.0071831-1.6326294-2.9983501c0.8582306-0.1619396,1.7192383-0.3091106,2.5845947-0.4526386
		c0.4259109-0.1574249,0.8464355-0.3278418,1.2695541-0.4908123c-1.3302994,0.147171-2.6840363,0.3507509-4.0350037,0.6218462
		c-0.8167496-1.4320049-1.6720352-2.8379917-2.5875244-4.1868591c-0.0218811-0.0322742-0.0735931,0.0256805-0.0695953,0.0518942
		c0.2198944,1.3872375,0.9885712,2.7706356,1.7562027,4.0589542c0.041481,0.0791388,0.0801926,0.1594868,0.1214905,0.2389812
		c-1.2659225,0.281848-2.520546,0.633647-3.7429123,1.0588627c-0.2287445-0.5022755-0.4566193-1.0052443-0.686058-1.506649
		c-0.290184-0.6313896-0.5480881-1.3420963-0.821785-2.0534954c0.0432053-0.0157995,0.0866089-0.0319366,0.1299896-0.0475588
		c0.5630188-0.1612282,1.1261978-0.3120604,1.6892166-0.4399662c0.0916367-0.0210066,0.2245865-0.218152,0.0619583-0.206707
		c-0.6751251,0.0487661-1.3474808,0.1766901-2.0125504,0.3547487c-0.3538742-0.9005833-0.7431564-1.7838039-1.266777-2.4865313
		c-0.0328064-0.0437365-0.0933762-0.0090275-0.1317291,0.0385303c-0.0291595-0.0310659-0.0560684-0.0630026-0.0867767-0.0930195
		c0.1332855,0.9245234,0.3618546,1.8582516,0.6598587,2.7871284c-0.021347,0.0067711-0.0418396,0.0159597-0.0633621,0.0225534
		c-1.2931519,0.353878-2.5375519,0.843482-3.7616425,1.4320049c-0.1126404-0.277689-0.2245865-0.5562315-0.3452072-0.8299398
		c-0.312912-0.7081118-0.5642242-1.6126766-0.9363174-2.3869009c0.3479767-0.1197662,0.6973419-0.2311792,1.0479279-0.3188314
		c0.1004868-0.0255032,0.2428055-0.2558117,0.0682144-0.2278738c-0.0390701,0.0067711-0.0779343,0.0168304-0.1173325,0.0246496
		c-0.0102386-0.0078192-0.0265503-0.0109472-0.0524139-0.0034828c-0.0465088,0.0131865-0.0919876,0.0282927-0.1384964,0.0421734
		c-0.3117065,0.06318-0.6225433,0.1404171-0.9319992,0.2365646c-0.1326065-0.2461081-0.2795944-0.4753685-0.4509048-0.6716614
		c-0.0038147-0.0053854-0.0111084-0.0022573-0.0163116-0.005723c-0.0050278-0.0208292-0.0104141-0.0407867-0.0152664-0.0619717
		c-0.022728-0.0985813-0.1981888,0.0286493-0.1831055,0.1131554c0.0482483,0.2683229,0.1011963,0.5330038,0.1565552,0.795249
		c-0.5137253,0.1872644-1.0217209,0.4139299-1.521225,0.6629705c-0.7171173,0.3144951-1.4177704,0.6640368-2.1019211,1.0606031
		c-0.1178436-0.4259081-0.2415924-0.8497372-0.3846054-1.2680035c-0.0258636-0.0760117-0.1714706,0.023263-0.145607,0.0899086
		c0.0143967,0.0371437,0.02845,0.0748024,0.0428619,0.1117687c0.0116272,0.0307102,0.0543137-0.005722,0.0597-0.0236015
		c-0.0143967,0.0492821-0.0246506,0.0990973-0.0362778,0.1489124c-0.0161362,0.0168304-0.0277557,0.034709-0.0298538,0.0522327
		c-0.005722,0.0484285-0.0044937,0.0985813-0.0091858,0.1473484c-0.0531082,0.342433-0.0489502,0.6952629-0.0076447,1.0519314
		c-0.3752213,0.2316942-0.747673,0.4717245-1.1149139,0.7310019c-1.0689392,0.7537689-2.2560616,1.5385847-3.2658043,2.4629297
		c-0.1008377-0.2552958-0.190731-0.5135431-0.2627602-0.778738c-0.0185699-0.0701113-0.141449,0.0204735-0.1291313,0.0789614
		c0.0593605,0.2915869,0.141449,0.5708399,0.2365646,0.8448868c-0.3764496,0.3561344-0.723732,0.7339516-1.0283318,1.1380005
		c-0.0496368,0.0558758-0.1016884,0.1084633-0.1509895,0.1640015c-0.008316,0.0251656-0.0147514,0.0512009-0.0225525,0.0760288
		c-0.0524101,0.0758343-0.1049995,0.1515064-0.1539421,0.2292595c-0.0621338,0.097374,0.0918083,0.0832977,0.1325951,0.0128498
		c0.0109329-0.0197983,0.021347-0.0383701,0.0324554-0.057972c0.0230827-0.0395794-0.0107727-0.0562325-0.043045-0.0447865
		c0.0027733-0.0029507,0.0060768-0.006237,0.0093651-0.0100594c0.4896049-0.2877483,0.9701805-0.6124802,1.4464188-0.954895
		c0.1532478,0.3599377,0.3212471,0.7138348,0.5038376,1.063715c0.2030487,0.2433167,0.4255562,0.4699821,0.6529121,0.6928272
		c-0.3255844-0.6247959-0.6754799-1.2466431-0.9738197-1.8891392c1.0842018-0.7915878,2.1416779-1.6696186,3.2003632-2.4436655
		c0.3181381-0.233099,0.6572723-0.4647942,1.0040207-0.695796c0.1207962,0.7980213,0.3563156,1.5949755,0.6647263,2.3607054
		c0.1133347,0.3224745,0.2478333,0.6272306,0.3948288,0.9255705c-0.5187531,0.384428-1.1147385,0.8922482-1.2103729,1.1749859
		c-0.0111008,0.0084953-0.0222168,0.0166531-0.0322723,0.0253258c-0.0364532-0.0154457-0.1178513,0.046526-0.1300049,0.0794945
		c-0.004158,0.0104141-0.0086746,0.0211658-0.0123138,0.03158c-0.024826,0.066309,0.0576172,0.0737724,0.0963211,0.0472202
		c0.0590057-0.0414791,0.1193924-0.0788002,0.1785736-0.1188946c0.0282974-0.0060787,0.0569458-0.0138798,0.0852203-0.0197811
		c0.1831055-0.1344986,0.3731461-0.2624226,0.5595551-0.3932781c0.225975-0.1374493,0.4534912-0.2704029,0.6837997-0.3986645
		c0.0758514,0.1362419,0.1520386,0.273016,0.2336197,0.4087238c0.1278992,0.2268429,0.25737,0.4505577,0.3899689,0.6629887
		c0.0111084,0.0177002,0.0286484,0.0241165,0.0472031,0.0255203c0.0265656,0.0390453,0.0510406,0.0784454,0.0784607,0.118185
		c0.0288086,0.0444298,0.1252975-0.035759,0.1060333-0.0791397c-0.0161438-0.0366287-0.0286331-0.0753193-0.0445938-0.1128178
		c0.0341797-0.0379963,0.0543137-0.0838318,0.0381775-0.1185398c-0.1294708-0.2780266-0.268486-0.5619717-0.4056015-0.846077
		c-0.0294952-0.0855732-0.0570984-0.1716423-0.0850372-0.2575531c1.0784683-0.5781269,2.1956406-1.0888968,3.2824554-1.6505136
		c0.165741-0.0859098,0.3347931-0.1700964,0.5020981-0.2544432c0.5329819,1.2063885,1.183815,2.3648815,2.0028305,3.4942093
		c-0.3547516,0.220232-0.705162,0.4470749-1.0448074,0.6888294c-0.0267258,0.0189266-0.0680313,0.0909405-0.0512009,0.1209755
		c0.01754,0.002594,0.0355759,0.0058994,0.0538101,0.0086727l0.0827866-0.0201359
		c0.0246353-0.0060616,0.1138458-0.0826054,0.0548477-0.1009998c0.165741,0.0520554,0.6676559-0.2778664,1.0144272-0.5102539
		c0.0149307,0.0249863,0.0282974,0.0525875,0.0433807,0.0775738c0.0095444,0.0164928,0.0284729,0.0130272,0.0470428,0.0039997
		c0.0506668,0.0690613,0.101181,0.1376266,0.1542816,0.2063522c0.0465088,0.0609226,0.1785889-0.0555382,0.1355515-0.1197491
		c-0.0657806-0.0980663-0.1286011-0.1961155-0.1926498-0.2933102c0.0512009-0.0340157,0.0945969-0.0619545,0.1221771-0.0768833
		c0.6742783-0.3675976,1.4066849-0.6635036,2.1069717-0.9811077c0.5555573-0.2514935,1.1133728-0.4871883,1.6776047-0.7049847
		c0.643364,1.203083,1.3582306,2.3528843,2.0927353,3.4195671c-0.2577362,0.1744156-0.5060959,0.3582134-0.7370987,0.5588436
		c-0.0659561,0.0572796-0.0322952,0.1558609,0.0557175,0.0989189c0.2658844-0.1726742,0.5368042-0.327486,0.809288-0.4736271
		c0.118187,0.1693859,0.2353363,0.3420792,0.3538742,0.5069504c0.0687256,0.0947609,0.2599869-0.0810413,0.2037582-0.1798
		c-0.0899124-0.1574078-0.1837997-0.3163795-0.2756119-0.4750137c1.2653961-0.6343575,2.5946579-1.0205097,3.9499588-1.3464508
		c0.707756,1.1869469,1.4700241,2.3346691,2.3185349,3.4252892c-0.4795456,0.1884918-0.9323425,0.4130783-1.3528671,0.6720181
		c0.0397339-0.0017414,0.0784454-0.0060787,0.1171494-0.0064163c0.4838638-0.1475258,0.966362-0.2804794,1.4498901-0.4004059
		c0.2400131,0.3004379,0.4824753,0.5998096,0.7372513,0.8903465c0.0876541,0.0996132,0.3118896-0.0987587,0.2330856-0.205143
		c-0.1916046-0.2575531-0.3825073-0.5191059-0.573082-0.7808342c1.3131256-0.3066578,2.6333618-0.5230865,3.9884872-0.6864128
		c0.4108047,0.879755,0.8306351,1.7541428,1.2522049,2.6268597c-0.9734802,0.1207962-2.0312958,0.5477371-2.8060532,1.0284901
		c0.154808-0.043045,0.3117065-0.0728836,0.4746704-0.070467c0.0937347,0.0013866,0.1858826,0.0059013,0.2789154,0.0107708
		c0.2299576-0.0885239,0.4611359-0.173563,0.704277-0.2388229c0.5205078-0.139883,1.0370026-0.221796,1.5585403-0.2971306
		c0.1697464,0.3492031,0.3377457,0.6994381,0.5078201,1.0472393c0.044075,0.0895519,0.196991-0.0281162,0.1726913-0.1055145
		c-0.1006622-0.3315029-0.2080917-0.6629887-0.3209076-0.9944725c0.1700745-0.0242958,0.3405151-0.0482521,0.5125122-0.0742874
		C92.7525558,24.7319355,92.9391327,24.5184574,92.7643585,24.4775105z M65.9022827,13.0116405
		c1.1275864-0.7138348,2.3513184-1.3860292,3.5474777-1.9434872c0.2646713,1.1774025,0.609169,2.2902384,1.0429001,3.3626432
		c-1.19841,0.6064014-2.4488754,1.1551867-3.5799484,1.8752775c-0.0383453,0.0246315-0.0796509,0.0515385-0.1230545,0.080862
		C66.4552231,15.272892,66.1966248,14.1367922,65.9022827,13.0116405z M72.9248581,18.3870106
		c-0.0263748-0.0411434-0.0498123-0.082962-0.0763626-0.1242809c-0.4243469-1.2206059-0.8498993-2.4452295-1.322319-3.6488276
		c1.2136765-0.5899267,2.4653625-1.1451273,3.7269363-1.6336832c0.413414,1.2006664,0.9451904,2.386919,1.5425644,3.5327225
		C75.4445496,17.0280647,74.1442566,17.6485252,72.9248581,18.3870106z M79.3193512,20.0317822
		c-0.005722-0.0091877-0.0109329-0.0185719-0.0164948-0.0279369c-0.5333405-1.1593456-1.0633698-2.3219967-1.5916672-3.484827
		c0.3241959-0.1159267,0.6501389-0.2276955,0.9812698-0.3300991c0.9288788-0.2865391,1.860527-0.5114632,2.7961578-0.7039347
		c0.3474579,0.6537828,0.7074203,1.3042593,1.0691147,1.9585752c0.1966324,0.3557796,0.3986511,0.7086277,0.6022263,1.0588627
		C81.7916489,18.845192,80.4538879,19.3269768,79.3193512,20.0317822z"/>
	<path d="M77.957634,4.9230742c-0.2341309-0.1357255-0.4703369-0.2676301-0.7089844-0.3957138
		c-1.9330521-1.0552187,1.0882034-2.7170174,1.5713806-2.9450691c1.3480072-0.633309,3.1316376-0.5467056,3.8076324,0.9354703
		c0.4864807,1.0656335,0.41185,3.0786977-0.0468445,4.7450104c-0.3840942,0.8514619-0.8820114,1.6512065-1.4708939,2.2878032
		c-0.665062-0.2750759-1.3363724-0.5282936-2.014801-0.7454147c-0.3391266-0.108819-0.6827698-0.2016783-1.0274582-0.2841053
		C79.4738083,8.0361433,79.4344101,5.7611713,77.957634,4.9230742z"/>
	<path d="M77.957634,4.9230742c-0.2341309-0.1357255-0.4703369-0.2676301-0.7089844-0.3957138
		c-1.9330521-1.0552187,1.0882034-2.7170174,1.5713806-2.9450691c1.3480072-0.633309,3.1316376-0.5467056,3.8076324,0.9354703
		c0.4864807,1.0656335,0.41185,3.0786977-0.0468445,4.7450104c-0.3840942,0.8514619-0.8820114,1.6512065-1.4708939,2.2878032
		c-0.665062-0.2750759-1.3363724-0.5282936-2.014801-0.7454147c-0.3391266-0.108819-0.6827698-0.2016783-1.0274582-0.2841053
		C79.4738083,8.0361433,79.4344101,5.7611713,77.957634,4.9230742z"/>
	<path fill="#FFFFFF" d="M77.8899384,8.5210552c0.3007813,0.0720301,0.6001663,0.1541195,0.8974609,0.2453976
		c0.7143631-0.9814472,0.6376419-2.6316228,0.0838318-3.6613212c-0.3686295-0.6864119-1.405098-1.0932331-1.4148254-1.929251
		c-0.0057373-0.5111258,0.4233017-1.0251839,0.884964-1.436004c-0.8842697,0.491861-2.9523544,1.8690215-1.2704391,2.7874837
		c0.2386475,0.1280837,0.4748535,0.2599883,0.7089844,0.3957138C79.256691,5.7611713,79.2960892,8.0361433,77.8899384,8.5210552z"/>
	<path fill="#FFFFFF" d="M83.8199921,14.8822079c-2.2027588-0.2783823-4.5450668,0.5081758-6.5895538,1.2650547
		c-0.992218,0.3669052-2.0137787,0.7303257-2.9414291,1.2444019c-0.9314728,0.5158005-1.7438812,1.2999229-2.6656342,1.7844982
		c-0.0524139,0.0279369-0.1152496,0.135725-0.0267334,0.1558437c0.3009338,0.0701275,0.6086578-0.191246,0.8542328-0.3377419
		c1.2062149-0.7193794,2.5276794-1.3289089,3.8482513-1.8070507c2.4554825-0.8880901,5.0749512-1.2494316,7.48806-2.1968803
		C83.8193054,14.9778395,83.8902817,14.8910761,83.8199921,14.8822079z"/>
	<path opacity="0.5" fill="#FFFFFF" d="M93.0054398,22.2371597c-0.830986-3.1892586-2.4844513-6.3484993-5.0149002-8.5115252
		c-0.9618454-0.8217821-1.9981461-1.5713739-3.0873871-2.242342c-0.1622772-0.1336288-0.3219452-0.2710781-0.474144-0.4158316
		c-0.7003098-0.6659393-1.6080017-1.2711153-2.5167389-1.6135483c1.9077225-2.3365874,2.9740524-8.6019487-1.0855942-8.7826195
		c-0.7343063-0.033145-1.4507523,0.1443984-2.1173706,0.4535086c1.7614136-0.1508141,2.6055908,1.1989242,2.829483,2.8572397
		c0.171463,1.2662625,0.3370514,3.9558578-0.9986496,4.7231503c-1.0376816,0.596343-2.495903,0.170435-3.7210388-0.1697407
		c1.196846,0.6956177,2.6255646,1.0043726,3.7066422,1.9313297c0.9961929,0.8549452,1.7565613,1.9693451,2.1595383,3.22155
		c0.5774384,1.7959433,1.2192459,5.1716127-0.8495407,6.2986841c-1.3259735,0.7221699-3.3598709-0.1869278-4.6820221-0.453331
		c-2.14151-0.4312935-4.3187485-0.7306652-6.4942856-0.9215717c-2.3244324-0.2042904-4.6415634-0.2070637-6.9475975,0.1850071
		c-1.1902504,0.2025299-2.6521111,0.3195057-3.6418953,1.0932159c2.4016685-0.4838638,4.9808807-0.2054825,7.3705521,0.1659203
		c2.3534241,0.3656788,4.7143021,0.8825455,6.9488449,1.7265415c2.487915,0.7381287,4.8076553,1.9721184,6.9148026,3.5392265
		c1.0619736,0.7893314,2.4013138,1.8219967,2.7437286,3.179554c0.3485107,1.3762913-5.1766357,10.5938282-8.3407288,12.6803265
		c-2.4478226,1.6147575-6.0569305,2.5325279-6.6565628,5.7898178c0.2948761-0.0892181,0.5739517-0.2735329,0.7841263-0.4526405
		c1.08004-0.9201851,3.5370712-0.5782852,4.9388809-0.832016c2.7635269-0.5005341,5.2703552-2.1881905,7.4184723-3.9133492
		c0.2421112-0.1943741,0.475708-0.3929214,0.7060165-0.5932159c0.0064163-0.0027695,0.0100555-0.0006905,0.0164871-0.005188
		c1.6187592-0.9694862,2.7810516-2.7095528,3.8784409-4.2021446c0.615097-0.8372269,1.1687317-1.6598778,1.6598969-2.5752144
		c0.4293747-0.7990494,1.0741348-1.6300392,1.1656036-2.5519657c1.0977325,0.3613415,2.6916733-1.0250244,3.134758-1.7949123
		C94.0592728,27.7851315,93.625206,24.6139297,93.0054398,22.2371597z"/>
</g>
<path fill="#FFFFFF" d="M47.9178429,37.4188004c-1.3766136-0.3391953-2.8239517-0.3144379-4.2125778-0.6359138
	c-1.2153358-0.2813377-2.4116631-0.689106-3.5488892-1.204998c0.0790443-0.345047,0.2191315-0.7014809,0.2836151-1.00214
	c0.1465759-0.6832542,0.2858162-1.3607445,0.3058815-2.0616608c0.0364647-1.2722282-0.390892-2.4455452-0.6530113-3.6748066
	c-0.3029366-1.4207687-0.5427399-2.8810158-0.9827576-4.2671585c-0.2171173-0.6839447-0.4958382-1.3444386-0.6778564-2.0393009
	c-0.1422844-0.5431576-0.2730217-1.0512295-0.6192665-1.5060196c-0.0743561-0.0976429-0.3575096,0.1401138-0.377903,0.1562233
	c-0.8471603,0.6690598-1.1244926,1.5267334-1.2157593,2.541626c-0.1089363,1.211113-0.487484,2.3550358-0.6739998,3.551012
	c-0.1897888,1.2169228-0.2512894,2.4583035-0.2468796,3.688858c0.0022545,0.6343594,0.0309372,1.2514858,0.1293907,1.8785572
	c0.0091629,0.0582314,0.0165329,0.1179504,0.0241966,0.1774521c-0.9292831-0.5801353-1.8397713-1.1967602-2.7404442-1.8553009
	c0.1919441-0.6581097,0.2448616-1.3884525,0.3996162-2.0496349c0.3961601-1.6924381,0.7004051-3.4457817,0.7401924-5.1911144
	c0.040741-1.7876053-0.1273232-3.5613918-0.5155106-5.3015327c-0.2171173-0.9732685-0.3614044-1.8959503-0.7033577-2.8422937
	c-0.2527199-0.6994848-0.3385429-1.6488094-0.7775059-2.2502747c-0.2421722-0.3317995-1.2543583,1.3319721-1.3133812,1.5202398
	c-0.3342075,1.0655632-0.4588127,2.2814426-0.6649914,3.3843651c-0.2664032,1.4252701-0.4934311,2.8612232-0.5456753,4.3122997
	c-0.0499001,1.385561-0.0665054,2.7826405-0.0246792,4.1685333c0.0180817,0.5991459,0.0439777,1.1822262,0.1165237,1.7527218
	c-0.7359962-0.5807076-1.4573631-1.1769638-2.1623783-1.7953339c0.6361351-0.9949589,0.7667618-2.2192535,0.8870926-3.3819199
	c0.1641293-1.5859356,0.0701084-3.1827908-0.2883549-4.7325382c-0.3556938-1.5376587-0.3668804-3.1851587-0.8946953-4.6761551
	c-0.2567387-0.7252083-0.6505737-1.3831768-0.9378624-2.0934486c-0.2181454-0.5392609-0.2599239-1.1563597-0.7365112-1.5408039
	c-0.2883472-0.2326298-1.0233288,0.9371347-1.0884495,1.048707c-0.5266266,0.9025211-0.5403042,2.0764494-0.6181545,3.1020308
	c-0.1054211,1.388732,0.1041679,2.7866058,0.1341267,4.1745644c0.0303097,1.4052219-0.0016994,2.8102207,0.1119499,4.2127724
	c0.0143738,0.1773281,0.0288582,0.3553619,0.0443974,0.5335884c-0.6516838-0.7084103-1.2918587-1.4280033-1.9134045-2.1606293
	c-0.1287422-0.1517181-0.2592945-0.3051128-0.3904629-0.4599361c0.0101681-0.0479088,0.0157032-0.0908947,0.015976-0.1276722
	c0.1486607-0.2436008,0.2662792-0.5061321,0.3324986-0.7704391c0.2358532-0.9413815,0.5657253-2.0760956,0.5114307-3.046936
	c-0.0620098-1.1085529-0.4574986-2.0665388-0.8354816-3.0980911c-0.4102535-1.1196651-0.8406315-2.1848345-1.3560581-3.2625742
	c-0.4842796-1.0127354-0.8577213-2.2022161-1.5189037-3.1095834c-0.2425671-0.3328824-1.2534695,1.3337007-1.3133888,1.5202641
	c-0.449894,1.400898-0.3036041,2.8354187-0.1899681,4.2724495c-0.3954811-0.599514-0.8106003-1.1765938-1.2377195-1.7230997
	c-0.731184-0.9355602-1.6385603-2.033638-2.6633987-2.6567354c-0.5532112-0.336339-1.1620407-0.5588627-1.7592592-0.8007193
	c-0.3786535-0.1533117-0.7766724-0.365777-1.1863766-0.2185459C9.86971,8.0573378,8.9557409,9.1674557,9.0937204,9.737895
	c0.2223635,0.9193468,0.9009905,1.8064566,1.3813791,2.608201c0.6232357,1.0402136,1.2959013,2.049346,2.0584936,2.9931221
	c0.7473106,0.9248543,1.5484438,1.8206081,2.4513617,2.5969791c0.128458,0.1104698,0.2722435,0.2349777,0.4269648,0.3634453
	c-0.1109514,0.0016632-0.2218113,0.0037346-0.3323832,0.006876c-2.2425365,0.0638046-4.485219,0.1283779-6.7264929,0.2662258
	c-0.4042158,0.0248623-0.821384,0.7583504-0.9955902,1.0617447c-0.0688438,0.119957-0.5040131,0.9156399-0.1416578,0.8933449
	c0.0330539-0.0020256,0.0663142-0.0038414,0.0993733-0.0058479c-0.1545062,0.2854004-0.2224216,0.5489998-0.1038995,0.6997604
	c0.5838103,0.7426929,2.1435328,1.0286999,3.0116596,1.2583771c1.1686859,0.3091812,2.3849745,0.5646324,3.5772886,0.7655735
	c2.0083055,0.3384895,4.312541,0.1313419,6.2631083-0.5305538c0.668293,0.8053265,1.3833313,1.5796223,2.0908833,2.3283558
	c-1.4303684,0.0293579-2.8573513-0.0838737-4.2788506,0.1252403c-1.3594246,0.1999779-2.6968288,0.5692997-4.0007639,0.9966927
	c-1.2387552,0.4060478-2.5519657,0.6158161-3.7378025,1.1616039c-0.4413757,0.203146-0.8063126,0.8324165-0.9984665,1.2555866
	c-0.0932503,0.2053738-0.3244991,0.7945042,0.1189938,0.5903873c0.1227989-0.0565262,0.248559-0.1077633,0.3752165-0.1573372
	c-0.1022453,0.2603683-0.1459332,0.4526234-0.0977354,0.4595795c2.389967,0.3448601,4.7792244,1.1292763,7.2192411,0.8845158
	c1.3940506-0.1397953,2.7868958-0.4888096,4.1697483-0.7198639c1.5439339-0.2579994,3.0820637-0.5326061,4.6010895-0.9140472
	c0.079073-0.0198689,0.1554298-0.0560932,0.2288055-0.1037121c0.6477089,0.5743656,1.3090363,1.1302814,1.9834309,1.6729965
	c-0.0659561,0.016161-0.1323032,0.0299625-0.1980267,0.0475883c-1.3196354,0.3539562-2.6708755,0.6269264-3.974308,1.0325031
	c-1.3272762,0.4129791-2.6521206,0.8302727-3.9998856,1.1727448c-1.1628933,0.2954903-2.6754875,0.3413849-3.6754532,1.039566
	c-0.3809605,0.2659645-1.3351088,1.2573624-1.1468563,1.8055649c0.0101957,0.0296402,0.0203733,0.059288,0.0305433,0.0889168
	c0.021451,0.0624847,0.1006584,0.0495453,0.2108154-0.0140381c-0.0340805,0.1547012-0.0164185,0.2739792,0.126482,0.2636414
	c0.6507444-0.0470161,1.3240213,0.1140289,1.9745951,0.1525497c0.7051258,0.0417366,1.4139156,0.0036087,2.1155872-0.0701218
	c1.4706211-0.1544647,2.8797493-0.539814,4.31707-0.8659439c1.4584751-0.3309135,2.9388084-0.5651665,4.4011478-0.8808441
	c0.7451839-0.1608353,1.4901295-0.3188324,2.2391186-0.4612503c0.4168015-0.079258,0.8890171-0.0830688,1.2543812-0.31213
	c0.0256138-0.0160408,0.0660133-0.0507813,0.1159306-0.0987701c0.7827168,0.5644188,1.5732174,1.0967712,2.3764248,1.6056595
	c-1.0681648,0.2881699-2.1414547,0.5095634-3.2248135,0.7376938c-1.0626831,0.2237625-2.0996189,0.4915504-3.1160698,0.8756828
	c-0.9650078,0.3646812-1.9135323,0.5799332-2.842823,1.0448608c-0.4421482,0.2212143-0.8014317,0.8216934-0.998457,1.2555618
	c-0.0619946,0.1365089-0.1970863,0.4852448-0.1145172,0.5995903c-0.116766,0.2849922-0.2311478,0.660141-0.0058746,0.5976372
	c0.4609146-0.1277885,1.0722294,0.0499649,1.5531044,0.0347137c0.6844196-0.0217171,1.3729935-0.0866394,2.0548649-0.1463699
	c1.487051-0.1302299,2.9744396-0.286644,4.4605198-0.430233c1.4250908-0.1376991,2.8185234-0.417984,4.2330246-0.626255
	c1.2511787-0.1842079,2.5774269-0.3733215,3.8032379-0.6644897c0.0843964-0.0200539,0.1658249-0.0595245,0.2439575-0.1120644
	c0.7488899,0.28405,1.5143013,0.5238609,2.2953415,0.713253c1.4317322,0.3472328,2.9303398,0.3179932,4.3486862,0.6674805
	C47.2073288,39.4987564,48.1409454,37.4737816,47.9178429,37.4188004z M37.1565437,33.1790161
	c-0.1638069-0.4899025-0.1440392-0.9918098-0.2126846-1.500494c-0.0681343-0.5050907-0.18013-0.9969635-0.2108574-1.5071049
	c-0.0651016-1.0804977-0.0205078-2.1790981,0.0817451-3.2554989c0.0684319-0.7199402,0.1940651-1.4161091,0.3441544-2.1143532
	c0.1946754,0.622694,0.4521675,1.224514,0.6347809,1.8516636c0.4058418,1.3937473,0.635643,2.8427639,0.9519081,4.2584305
	c0.298275,1.3352013,0.7309761,2.5670776,0.5243034,3.9566498c-0.0128899,0.0866547-0.0283432,0.1736374-0.0429688,0.2605286
	c-0.7839355-0.3900719-1.549118-0.7958794-2.2967987-1.2229538C37.1086578,33.6280022,37.2161827,33.357338,37.1565437,33.1790161z
	 M31.4837151,29.1492233c-1.1411419-2.2779579-0.8066502-5.2147522-0.7504005-7.6935043
	c0.0304413-1.3421535,0.2208652-2.6694241,0.4550915-3.9892368c0.2516079,0.711132,0.4683208,1.398531,0.5944366,2.1449394
	c0.2544765,1.5059566,0.5386562,2.8925056,0.600584,4.4286861c0.060215,1.4939938,0.0601883,2.9470673-0.2825813,4.4113197
	c-0.1547031,0.6610336-0.2031879,1.3313828-0.3576393,1.9948616c-0.0914078-0.0687542-0.1830215-0.1375542-0.274229-0.2063236
	c0.1213169-0.2868385,0.2527523-0.6906528,0.0176258-0.628994c-0.0228634,0.0060101-0.0460453,0.0103683-0.0689373,0.0161896
	C31.5053883,29.4331665,31.5398197,29.2612324,31.4837151,29.1492233z M26.0626793,25.1238384
	c-1.049757-2.0969753-0.9055977-4.8499146-0.921505-7.1420975c-0.007885-1.1328545-0.0877686-2.2578182-0.1365566-3.3877878
	c0.1767063,0.364254,0.3528976,0.728507,0.4943981,1.1098003c0.4670658,1.2586718,0.5370522,2.6365957,0.7645168,3.951766
	c0.2224197,1.2858963,0.522049,2.4742107,0.5358181,3.7916527c0.0074005,0.7098484-0.0115356,1.4292946-0.1373234,2.1295147
	c-0.0381298,0.2122784-0.0978794,0.421154-0.1395435,0.6330719c-0.1891403-0.1744537-0.3787804-0.3481979-0.5647202-0.5273209
	C26.0734863,25.4558182,26.126442,25.2512169,26.0626793,25.1238384z M19.0581036,16.2059631
	c-0.2384663-0.9470224-0.2934399-1.9320173-0.3328438-2.9040108c-0.0186882-0.4606524-0.0670357-0.9455929-0.1172657-1.440258
	c0.0929527,0.2192192,0.1866436,0.4351749,0.2849045,0.6407003c0.4917488,1.0284405,0.900301,2.0487385,1.2874317,3.1190643
	c0.3244362,0.8969717,0.7123909,1.7630758,0.8026581,2.7203245c0.0259724,0.2756939,0.0199337,0.5637436-0.0064793,0.8566132
	c-0.221035-0.0925522-0.4449844-0.1768818-0.6716766-0.2529068c0.0056496-0.0656815-0.0016861-0.1237793-0.0253162-0.1710491
	C19.8520012,17.9185791,19.2948952,17.1462593,19.0581036,16.2059631z M14.6555157,13.4827919
	c0.6579657,0.8418856,1.2837152,1.754487,1.8517303,2.7090302c-0.1665173-0.1476402-0.3171215-0.2862797-0.4429111-0.3997469
	c-0.8041077-0.7253265-1.527257-1.5409851-2.2077656-2.3818941c-0.6510668-0.8045588-1.2360764-1.6577883-1.7804155-2.5374794
	c0.0149097,0.0098295,0.0304832,0.0188093,0.0452442,0.0288343C13.0867186,11.5576468,13.9433088,12.5715637,14.6555157,13.4827919z
	 M14.8275976,21.2636166c-1.0920534-0.1998291-2.2089329-0.4278603-3.2816925-0.7125301
	c-0.2378054-0.0631218-0.5280285-0.1307526-0.8352175-0.2103043c0.9823742-0.0414963,1.9648132-0.0714588,2.9442892-0.0768089
	c1.6763115-0.0091324,3.3485308,0.042099,4.9451494,0.4961815c0.0028553,0.0089703,0.0060844,0.0179062,0.0089302,0.0268593
	c0.0065193,0.0206318,0.0204239,0.0318661,0.0394382,0.0362053c0.1044502,0.158987,0.2120171,0.3166885,0.322361,0.4732056
	C17.5812798,21.5051403,16.1407013,21.5038414,14.8275976,21.2636166z M22.3872681,27.6302891
	c-1.4020729,0.235754-2.8055153,0.5583763-4.2140656,0.7421227c-1.6771622,0.2187805-3.3271141-0.0778522-4.9713173-0.4006329
	c1.1564608-0.3620377,2.3374681-0.6715851,3.536211-0.8479462c1.2886162-0.189579,2.5713043-0.1019497,3.8678684-0.117609
	c1.0838356-0.0130882,2.2972584-0.1825848,3.4000912-0.029129c0.1025429,0.1028461,0.2052498,0.2056122,0.3087654,0.3069267
	C23.6741199,27.4075928,23.0315132,27.5219841,22.3872681,27.6302891z M28.7257824,32.1836433
	c-1.4593868,0.313446-2.940237,0.5356407-4.3914165,0.8846397c-1.1233482,0.2701607-2.2368622,0.543045-3.3763542,0.7092819
	c0.6003628-0.1854897,1.1999302-0.3737602,1.8028049-0.5527649c1.2469349-0.3701935,2.5381775-0.6392441,3.7981529-0.969223
	c0.9930477-0.2600269,2.0173397-0.3388767,3.0175285-0.5222149c0.0905457,0.0692291,0.1815224,0.1384964,0.2723522,0.2075901
	C29.4743652,32.0214233,29.1001892,32.1032295,28.7257824,32.1836433z M32.8078957,37.414814
	c-1.4295044,0.1381264-2.8596382,0.2835083-4.289566,0.4146614c-0.2137413,0.0196228-0.428669,0.0394249-0.6439629,0.0586243
	c0.7701378-0.2123947,1.5554199-0.3724098,2.3374271-0.5316849c1.0282974-0.2094727,2.0365772-0.5282173,3.0621967-0.7303352
	c0.8973694-0.1768875,1.927742-0.1930199,2.7777328-0.5459328c0.4096069,0.2285995,0.822979,0.45327,1.2437439,0.6710167
	c-0.0302086,0.0045433-0.0608635,0.0091324-0.0909958,0.0136757C35.7367668,36.9859581,34.286953,37.2718964,32.8078957,37.414814z"
	/>
<path fill="#FFFFFF" d="M99.0822067,40.5565414c0.3184128-0.2787132,0.9330521-0.4022026,1.3177185-0.5520058
	c0.6603928-0.2571716,1.3231888-0.508152,1.986496-0.7577782c0.416832-0.6665802,1.122345-1.2384224,1.61763-1.8126335
	c0.745697-0.8644257,1.3699722-1.8037376,1.9513321-2.7844887c0.5484619-0.9252472,1.1369934-1.8392944,1.6524887-2.7825317
	c0.5612564-1.0269413,0.8486481-2.1768398,1.3715973-3.2233601c0.2642212-0.5287743,0.7557831-1.6001091,1.4838638-1.561903
	c0.6973114,0.0366268,1.4866104,1.0028496,1.7992859,1.5519104c0.0331421,0.0582066,0.0590515,0.1184502,0.0860062,0.1783848
	c0.1594925-0.4585896,0.3179092-0.9175358,0.480835-1.3746872c0.2681656-0.7524338,0.5325165-1.5077877,0.8526611-2.2402115
	c0.2437439-0.557642,0.5582352-1.7544231,1.1069641-2.0784225c0.9057236-0.5348434,2.3340073,1.0623875,2.6304703,1.7693329
	c0.1002502,0.2390308,0.177475,0.5102272,0.2397919,0.7877483c0.2307587-0.6735821,0.4326248-1.3530006,0.5705872-2.058567
	c0.296402-1.5161247,0.2801743-3.575346,1.2432632-4.8539371c0.9108582-1.2092533,2.2303009,0.3202305,2.7886887,1.1724224
	c0.1991882,0.3040352,0.3490295,0.6235523,0.4698257,0.9549313c0.4028625-1.3288136,0.8134003-3.3058014,0.8534317-3.5796471
	c0.1973495-1.3492956,0.3302841-2.836937,0.8607559-4.1064157c0.5630646-1.3474102,1.5739822-0.8388748,2.4346542-0.0274849
	c0.2632446,0.2481604,0.5251465,0.5343113,0.7451859,0.845294c0.0384369-0.2517614,0.0647964-0.4694281,0.0866318-0.5816031
	c0.1432724-0.7360048,0.2367783-1.4841824,0.3800964-2.2226553c0.2058258-1.06042,0.0742645-2.4810429,0.9214325-3.304265
	c0.8046112-0.7818465,1.853775,0.2000303,2.4262695,0.828373c0.3478851,0.3817892,0.6063995,0.7705669,0.8251953,1.1717215
	c0.063385-0.139205,0.1178589-0.2681932,0.164978-0.3475342c0.4404602-0.7420349,1.048172-1.4277878,1.6442413-2.0461326
	c1.0531006-1.0924053,2.1598206-2.1383309,3.6921997-1.2662268c1.2788696,0.7277598,2.0418854,1.8887782,1.9234314,3.3513885
	c-0.0443726,0.5476456-0.152832,1.9162579-0.5131378,2.9260693c0.3813477,0.1199207,0.7471008,0.2648239,1.0820618,0.4433136
	c0.9185486,0.4894457,2.3812103,1.7009487,2.1636047,2.8922901c-0.1776581,0.9726896-1.3049316,1.3625002-2.1456757,1.5635538
	c-0.2797089,0.0669136-0.5626984,0.1311646-0.8424072,0.2060471c0.2786865,0.0707188,0.5494995,0.1653881,0.8069,0.3193016
	c0.705368,0.4218712,1.9826202,1.5119438,1.5901794,2.4680824c-0.4293976,1.0460186-1.8676453,1.3367653-2.8268585,1.5638142
	c-0.8035889,0.190197-1.5964966,0.41889-2.3953857,0.6270943c-0.0423431,0.0110474-0.0890198,0.0216427-0.1376343,0.0323601
	c0.1030884,0.0370216,0.20578,0.0749607,0.307663,0.1146698c0.8612366,0.3356056,1.6241455,0.8512707,2.2143555,1.5696182
	c1.825943,2.2223949-2.3412933,2.7006874-3.7673645,2.6552486c-0.64151-0.0204849-1.2783051-0.0855865-1.9186707-0.1215782
	c-0.3241272-0.018259-0.648407-0.0291462-0.9724884-0.004549c-0.1281433,0.0097046-0.3127747,0.0738697-0.4909668,0.1324959
	c0.1616364,0.0747185,0.3240051,0.1478519,0.4840698,0.2257252c0.5019989,0.2443695,0.9867249,0.5183086,1.4624939,0.8102608
	c0.8500977,0.5216198,1.7839813,1.194706,2.260437,2.0980244c0.4521637,0.8572311-0.1707916,1.2773438-0.9657898,1.4900455
	c-1.486496,0.3977413-3.0661926,0.1556015-4.5829926,0.3077507c-0.3285522,0.0329857-0.6558075,0.077528-0.9829102,0.1229839
	c0.0008392,0.0004578,0.0017548,0.0007706,0.0026093,0.0012894c0.6916351,0.3701477,2.1060333,1.4804535,1.5804443,2.3940125
	c-0.5187683,0.9018059-2.4494324,1.2553787-3.3342972,1.3959694c-1.5367584,0.2442322-2.9940338-0.0549202-4.524147-0.0452805
	c-0.1673737-0.0018845-0.3339615,0.0084801-0.500145,0.0260201c0.3138275,0.2429047,0.6147842,0.5045395,0.8957825,0.783165
	c0.6502914,0.6447945,1.678688,1.7855225,0.7620773,2.6276169c-0.978096,0.898571-2.5398483,0.6627769-3.7631683,0.7074623
	c-1.2972717,0.0473213-2.8155746-0.041523-4.1411209,0.2199554c0.1923904,0.1404457,0.3813171,0.2856331,0.5638733,0.4373589
	c0.6480942,0.5385551,1.4661865,1.2673416,1.7257156,2.0989075c0.5382004,1.7245216-2.4394226,1.3795013-3.3272934,1.2789116
	c-2.0653534-0.2340736-4.1647568-0.3922234-6.1637344-1.0017891c-0.997406-0.3042107-1.9789429-0.6671333-2.9724121-0.9853745
	c-0.488472-0.1564598-0.9771805-0.4734688-1.4789886-0.5544853c-0.388504-0.0627098-0.7331161,0.0077629-1.1045914-0.1622429
	c-0.4045334,0.1450043-0.8088837,0.2904396-1.2140884,0.4334717c-0.5487061,0.1936646-1.2025528,0.5445671-1.7885971,0.5969238
	C100.3541336,42.3343163,98.7107086,40.8816757,99.0822067,40.5565414z M126.8761902,14.0702858
	c0.0027161,0.0024948,0.005394,0.0049791,0.0080795,0.0075254
	C126.8845978,14.0720644,126.8811951,14.0703306,126.8761902,14.0702858z M130.6641998,8.9282007
	c0.0184479,0.0223732,0.0368958,0.0447464,0.0553436,0.0671387C130.6889191,8.9441137,130.6669922,8.9142141,130.6641998,8.9282007z
	 M107.0700684,40.9357491c1.8996048,0.6629906,3.8526611,0.952446,5.8474808,1.1612854
	c0.7575607,0.0793114,1.5281754,0.2110558,2.2902832,0.2284927c0.4506912,0.0103073,1.9677277-0.0669937,1.8729019-0.8197136
	c-0.0364838-0.2897682-1.4518127-0.9556847-1.7102966-1.1638527c-0.5013885-0.403801-0.9852142-0.9058533-1.2172241-1.5154953
	c-0.0540771-0.1421242-0.0482788-0.223259,0.0899429-0.2680893c1.262001-0.4093094,2.7920609-0.3122711,4.1062393-0.3678017
	c1.2119598-0.0512352,2.9419708,0.2210884,3.9999619-0.4467506c0.2148819-0.1356659,0.360199-0.3037872,0.5325089-0.4810791
	c0.0835495-0.0952377,0.1175461-0.2103462,0.1019669-0.3452492c0.1438904,0.1102982,0.1613693,0.1210365,0.0524139,0.0323296
	c-0.1508408-0.2127419-0.5642014-0.3912582-0.7693558-0.5468636c-0.5708313-0.432972-1.7441483-1.3309479-1.6341629-2.1648254
	c-0.0006866-0.0825577,0.0402679-0.1243668,0.1228333-0.1254692c1.6247025-0.298912,3.3006287,0.1973076,4.9491501,0.0165367
	c0.807518-0.0885925,1.6114044-0.2613525,2.3668976-0.5648308c0.2509766-0.1008339,0.5056305-0.2124519,0.7372131-0.3556328
	c-0.2726898-0.0352669-0.5419159-0.0686989-0.7954254-0.1175804c-0.7519455-0.1451111-1.3343506-0.4171486-1.9276962-0.9034576
	c-0.2189026-0.179409-1.0824966-0.9204941-0.8835907-1.3107014c0.3095856-0.6072865,2.3138199-0.5510254,2.8478928-0.6207981
	c1.6246338-0.2121277,3.2888336-0.0298271,4.8995361-0.2932186c0.2221069-0.0362854,0.4531555-0.0763111,0.6675262-0.1461906
	c0.1833801-0.0504608,0.3553772-0.1258774,0.5159302-0.226202c0.0923309-0.0525761,0.1639862-0.1228371,0.2193909-0.2069836
	c-0.2215118-0.12183-0.4346313-0.2737637-0.6539001-0.3903656c-1.2818756-0.681427-2.7037964-1.0356712-3.6655426-2.1945744
	c-0.2442017-0.2942715-0.6770325-0.8394299-0.4723053-1.268177c0.2050629-0.4296341,0.9849701-0.4374161,1.3709869-0.4565487
	c1.4891357-0.0737534,2.9718628,0.303688,4.4634857,0.0786743c0.6804657-0.1026573,1.5368347-0.3750134,2.0626526-0.8556747
	c0.0097961-0.0065556,0.0175781-0.0145035,0.0268555-0.0213718c-0.966156-0.3199005-1.9894867-0.5633678-2.8357544-1.1178608
	c-0.2564392-0.1680298-1.2518463-0.9752426-1.1458588-1.3980618c0.2004547-0.7997398,1.3855286-0.8772507,2.0561829-1.0582943
	c1.1880188-0.3207645,2.7119293-0.4409485,3.7337799-1.162508c0.157074-0.1108913,0.3224945-0.2351971,0.4600067-0.3784924
	c-0.0168915-0.0024757-0.0336456-0.0068359-0.0505524-0.0088387c-0.316452-0.037447-0.6243134,0.0337696-0.9389648,0.0177193
	c-0.9724579-0.0496044-1.8626404-0.7646484-2.3994293-1.538105c-0.9789581-1.4107246,1.4127655-1.7518044,2.3503113-1.9760628
	c0.3097382-0.0740471,0.5971527-0.1460333,0.8825378-0.2953844c0.2184601-0.1143141,0.4370422-0.2514448,0.6166077-0.4226818
	c0.0591888-0.0563879,0.2673492-0.4446964,0.3698578-0.6199064c-0.0018768-0.0005417-0.0037231-0.0012341-0.0055695-0.001771
	c-0.2185822-0.0646229-0.4414673-0.1130543-0.6629639-0.1663818c-0.7359009-0.1772499-1.4476166-0.3050642-2.2023926-0.3675632
	c-0.4451447-0.0368919-2.062561-1.648118-1.5627289-1.7757187c0.1566315-0.0640202,0.3176422-0.0862608,0.4824982-0.0712624
	c0.6706085-0.1252451,0.935791-1.8714533,1.0386353-2.3668356c0.0904236-0.4357424,0.1560364-0.8771162,0.1974792-1.320199
	c0.0170593-0.1827946,0.0367584-0.3801789,0.0410156-0.569798c-0.04039,0.0023012-0.0730133,0.004735-0.085556,0.006989
	c-0.2971039,0.0533791-0.4744263,0.1845016-0.7007141,0.3571701c-0.3798065,0.2897053-0.7357788,0.6247997-1.0743713,0.960659
	c-0.6728668,0.6674948-1.3527985,1.4157572-1.8443756,2.2309513c-0.1954498,0.3240337-0.3429871,0.9236259-0.7246094,1.0705757
	c-0.5834808,0.2246723-1.2673187-0.5795517-1.6012421-0.9689026c-0.47052-0.5485754-0.627533-1.2110643-0.9094543-1.8605442
	c-0.000412-0.0009651-0.0015717-0.0034409-0.0022125-0.0048428c-0.0189972,0.0092669-0.039917,0.0182219-0.0648499,0.0265236
	c-0.135849,0.2740498-0.4344635,0.4832296-0.5680542,0.7882624c-0.3404694,0.7774248-0.2977448,1.7691565-0.4634094,2.5976963
	c-0.1909637,0.9549694-0.3171692,1.91681-0.5136871,2.8697128c-0.0894165,0.4334869-0.1091309,1.4464264-0.6846771,1.5523186
	c-0.6791687,0.1250057-1.5525208-0.9814892-1.8508453-1.4545145c-0.2064972-0.3273849-0.3567505-0.8670835-0.4227829-1.3572025
	c-0.1693497,0.2480497-0.2666626,0.5715981-0.3486557,0.8476591c-0.5534668,1.8628006-0.6133652,3.8379421-1.1136322,5.7149544
	c-0.1411285,0.5295429-0.3067093,1.0519924-0.4587097,1.5783463c-0.094696,0.327816-0.1920624,0.8649349-0.4703903,1.0884743
	c-0.5166092,0.4150028-1.1369781-0.2029533-1.5117722-0.5666771c-0.5118256-0.4967136-0.8532562-1.060585-1.0435715-1.7455635
	c-0.0638275-0.2298641-0.1104279-0.4639378-0.1631088-0.6964951c-0.0147095-0.0650616-0.040184-0.2025013-0.0714493-0.3639221
	c-0.6704712,0.9213448-0.9678116,3.6231461-1.0529022,4.0983753c-0.256897,1.4349136-0.5684814,3.2210121-1.3408279,4.4895248
	c-0.6517944,1.0704842-2.1048508-0.6889553-2.4026718-1.324297c-0.2372971-0.5062218-0.2848206-1.1270504-0.3391876-1.6773987
	c-0.0104904-0.106329-0.0191345-0.2120438-0.0276947-0.3173962c-0.5948639,1.2083473-1.3831329,3.2691002-1.4764099,3.530838
	c-0.3123856,0.8764648-0.606781,1.7600441-0.9277802,2.6333389c-0.1704025,0.4637222-0.4001389,1.6464539-0.919426,1.857399
	c-0.4436569,0.1801491-1.0217972-0.4088326-1.2990112-0.680233c-0.4098129-0.4012413-0.7255554-0.8471909-0.8060532-1.4213657
	c-0.0424194-0.3026772-0.0415497-0.6108036-0.0230942-0.9187336c-0.180748,0.3927879-0.3411255,0.7951965-0.496666,1.1983299
	c-0.4885406,1.2663155-1.1234207,2.3427391-1.8034515,3.5117493c-0.4330673,0.7443962-0.8602066,1.4941711-1.3345642,2.2124863
	c0.7132797-0.2629929,1.4265594-0.5260277,2.1405106-0.7872124c6.7675858-2.4759865,12.5788345-7.2171764,17.3125076-12.5775013
	c1.5835342-1.7931538,2.9379196-3.7227058,4.1871109-5.7595978c1.2518005-2.0411739,2.2706909-4.2801762,3.6428375-6.2389898
	c0.2123566-0.3031721,2.0794067,1.2382822,1.7480011,1.7113838c-1.1985626,1.7110491-2.0895233,3.6650019-3.1666718,5.456151
	c-1.1269989,1.8740444-2.3000793,3.7023792-3.687439,5.3966618c-2.6633072,3.2524681-5.8494797,6.252615-9.1984482,8.7898884
	c-1.6480103,1.2486038-3.4767303,2.2100792-5.2836838,3.1979561c-1.0098801,0.5521393-1.9919052,1.047184-3.0546722,1.4569244
	c0.0490341,0.1065903,0.0634613,0.17873,0.0295105,0.1926918c-1.7987518,0.7403221-3.659729,1.3550034-5.4872055,2.0195122
	c-0.1171265,0.0425949-0.2343979,0.0848351-0.3515091,0.1273918
	C106.2239075,40.6599274,106.6509171,40.7894669,107.0700684,40.9357491z"/>
</svg>
