<?xml version="1.0" encoding="utf-8"?>
<!-- Generator: Adobe Illustrator 23.1.0, SVG Export Plug-In . SVG Version: 6.00 Build 0)  -->
<svg version="1.1" id="Слой_1" xmlns="http://www.w3.org/2000/svg" xmlns:xlink="http://www.w3.org/1999/xlink" x="0px" y="0px"
	 viewBox="0 0 150 50" style="enable-background:new 0 0 150 50;" xml:space="preserve">
<style type="text/css">
	.st0{display:none;}
	.st1{fill:#FFFFFF;}
	.st2{opacity:0.5;fill:#FFFFFF;enable-background:new    ;}
</style>
<rect class="st0" width="150" height="50"/>
<g>
	<path class="st1" d="M93,22.2c-0.8-3.2-2.5-6.3-5-8.5c-1-0.8-2-1.6-3.1-2.2c-0.2-0.1-0.3-0.3-0.5-0.4c-0.7-0.7-1.6-1.3-2.5-1.6
		c1.9-2.3,3-8.6-1.1-8.8c-1.7-0.1-3.3,1-4.4,2.2C76,3.4,75.9,4,76.2,4.5c0.1,0.2,0.5,0.4,0.7,0.5c0.4,0.2,0.7,0.4,1,0.6
		c0.8,0.7,0.7,1.6-0.5,2.7c-5.6-1-11.7,1.2-15.9,4.8c-2.1,1.8-4,4.3-4.9,6.9c-0.6,1.9,0.5,3.3,2.3,3.3c0,0.1,0,0.1-0.1,0.2
		c-0.6,1.9-0.9,3.9-0.9,6c-0.1,2.7,0.6,5.1,1.7,7.3c0.8,1.8,1.8,3.5,3.1,4.9c0.9,1.1,2.1,1.9,3.3,2.7c0.7,0.5,1.2,0.8,1.4,1.7
		c0.1,0.5,0.5,0.6,0.9,0.7c0.5,0.2,1-0.2,1.4-0.5c1.1-0.9,3.5-0.6,4.9-0.8c2.8-0.5,5.3-2.2,7.4-3.9c0.2-0.2,0.5-0.4,0.7-0.6
		c0,0,0,0,0,0c1.6-1,2.8-2.7,3.9-4.2c0.6-0.8,1.2-1.7,1.7-2.6c0.4-0.8,1.1-1.6,1.2-2.6c1.1,0.4,2.7-1,3.1-1.8
		C94.1,27.8,93.6,24.6,93,22.2z"/>
	<path d="M82.2,41c-2.2,2-4.9,3.6-7.8,4.2c-1.2,0.2-2.5,0-3.7,0.3c-1.3,0.2-2.1,1.9-2.8-0.2c-0.2-0.7-1.6-1.3-2.1-1.8
		c-1-0.7-1.9-1.6-2.7-2.5c-2-2.2-3.2-5.2-3.8-8.1c-0.3-1.5-0.4-3-0.4-4.5c0.1-1.3,0.3-2.5,0.5-3.7c0.3-1.3,0.6-2.8,1.3-4.1
		c0.9-0.2,1.9-0.4,2.9-0.5c3.7-0.4,7.6,0,11.2,1c3.3,1,6.6,2,9.7,3.7c2,1.1,3.9,2.1,5.5,3.5C88.3,33.1,86.2,37.5,82.2,41z"/>
	<path class="st1" d="M67.1,43.6c-1.1-0.7-2-1.4-2.9-2.3c-1.7-1.9-2.9-4.2-3.6-6.7c-0.7-2.6-1-5.4-0.7-8.1c0.2-1.4,0.5-2.8,1-4.1
		c0.2-0.7,0.6-1.4,1-2.1c-0.5,0.1-1,0.2-1.5,0.3c-0.6,1.2-1,2.8-1.3,4.1c-0.3,1.2-0.5,2.5-0.5,3.7c0,1.5,0.1,3,0.4,4.5
		c0.6,2.9,1.8,5.9,3.8,8.1c0.8,0.9,1.7,1.7,2.7,2.5c0.6,0.4,1.9,1.1,2.1,1.8c0.1,0.4,0.3,0.6,0.4,0.8C68.1,45.1,67.9,44.2,67.1,43.6
		z"/>
	<path d="M92.6,29.3c-0.3,0.9-2,2.9-3,1.9c0,0,0,0-0.1,0c0.3-0.8,0.6-1.7,0.8-2.5c0.2,0.2,0.4,0.3,0.5,0.5c0,0,0,0,0,0.1
		c0,0,0,0,0.1,0c0.3,0.3,0.6,0.6,0.9,0.9c-0.3-0.7-0.6-1.3-1-1.9c-0.4-0.8-1-1.4-1.8-1.8c-1.6-0.9-3-1.9-4.6-2.7
		c-3.3-1.6-6.5-3.2-10-4c-3.3-0.7-7.1-1.2-10.5-0.6c-1.6,0.3-4.9,0.4-5.7,2.2c0,0-0.1,0-0.1,0.1c0,0,0,0,0.1,0
		c0,0.1-0.1,0.2-0.1,0.3c0,0.1,0.1,0.1,0.1,0c0.2-0.3,0.4-0.5,0.7-0.6c0.3-0.1,0.6-0.2,0.9-0.3c-0.1,0.3-0.2,0.7-0.3,1
		c-0.2,0.5-0.4,0.9-0.5,1.4c-5.6-1.5,1.9-9.3,4.3-11c4.4-3.1,10.2-4.4,15.4-2.9c4.2,1.2,8.6,3.9,11.1,7.4c1.5,2.1,2.4,4.5,2.9,7
		c0.3,1.4,0.4,2.9,0.1,4.3C92.8,28.4,92.7,28.9,92.6,29.3z"/>
	<path d="M92.6,29.3c-0.3,0.9-2,2.9-3,1.9c0,0,0,0-0.1,0c0.3-0.8,0.6-1.7,0.8-2.5c0.2,0.2,0.4,0.3,0.5,0.5c0,0,0,0,0,0.1
		c0,0,0,0,0.1,0c0.3,0.3,0.6,0.6,0.9,0.9c-0.3-0.7-0.6-1.3-1-1.9c-0.4-0.8-1-1.4-1.8-1.8c-1.6-0.9-3-1.9-4.6-2.7
		c-3.3-1.6-6.5-3.2-10-4c-3.3-0.7-7.1-1.2-10.5-0.6c-1.6,0.3-4.9,0.4-5.7,2.2c0,0-0.1,0-0.1,0.1c0,0,0,0,0.1,0
		c0,0.1-0.1,0.2-0.1,0.3c0,0.1,0.1,0.1,0.1,0c0.2-0.3,0.4-0.5,0.7-0.6c0.3-0.1,0.6-0.2,0.9-0.3c-0.1,0.3-0.2,0.7-0.3,1
		c-0.2,0.5-0.4,0.9-0.5,1.4c-5.6-1.5,1.9-9.3,4.3-11c4.4-3.1,10.2-4.4,15.4-2.9c4.2,1.2,8.6,3.9,11.1,7.4c1.5,2.1,2.4,4.5,2.9,7
		c0.3,1.4,0.4,2.9,0.1,4.3C92.8,28.4,92.7,28.9,92.6,29.3z"/>
	<path class="st1" d="M57.7,19.6c0.7-1.5,1.5-2.9,2.5-4.1c2.2-2.5,5.2-4.4,8.4-5.4c3-1,6.2-1.3,9.3-1.1c-5-1.1-10.4,0.2-14.6,3.1
		c-1.9,1.4-7.1,6.6-6.3,9.4C57.2,20.9,57.5,20.2,57.7,19.6z"/>
	<path class="st1" d="M92.8,24.5c-0.2-0.1-0.5-0.1-0.8-0.1c-0.3-0.9-0.7-1.8-1-2.7c0.2,0,0.4,0,0.6-0.1c0.1,0,0.3-0.2,0.1-0.2
		c-0.3,0-0.5,0-0.8,0c-0.3-0.6-0.6-1.3-0.9-1.9c-0.7-1-1.2-2-1.9-2.9c0.7,1.6,1.4,3.2,2.1,4.8c-1.3,0.1-2.8,0.3-4.1,0.7
		c-0.2-0.3-0.4-0.6-0.7-0.9c-0.4-0.8-0.9-1.7-1.3-2.5c0.7-0.2,1.5-0.3,2.2-0.5c0.1-0.1,0.2-0.1,0.3-0.2c0.1-0.1,0.2-0.1,0.2-0.2
		c-0.9,0.1-1.9,0.3-2.9,0.5c-0.5-1-1.1-2-1.6-3c0.9-0.2,1.7-0.3,2.6-0.5c0.4-0.2,0.8-0.3,1.3-0.5c-1.3,0.1-2.7,0.4-4,0.6
		c-0.8-1.4-1.7-2.8-2.6-4.2c0,0-0.1,0-0.1,0.1c0.2,1.4,1,2.8,1.8,4.1c0,0.1,0.1,0.2,0.1,0.2c-1.3,0.3-2.5,0.6-3.7,1.1
		c-0.2-0.5-0.5-1-0.7-1.5c-0.3-0.6-0.5-1.3-0.8-2.1c0,0,0.1,0,0.1,0c0.6-0.2,1.1-0.3,1.7-0.4c0.1,0,0.2-0.2,0.1-0.2
		c-0.7,0-1.3,0.2-2,0.4c-0.4-0.9-0.7-1.8-1.3-2.5c0,0-0.1,0-0.1,0c0,0-0.1-0.1-0.1-0.1c0.1,0.9,0.4,1.9,0.7,2.8c0,0,0,0-0.1,0
		c-1.3,0.4-2.5,0.8-3.8,1.4c-0.1-0.3-0.2-0.6-0.3-0.8c-0.3-0.7-0.6-1.6-0.9-2.4c0.3-0.1,0.7-0.2,1-0.3c0.1,0,0.2-0.3,0.1-0.2
		c0,0-0.1,0-0.1,0c0,0,0,0-0.1,0c0,0-0.1,0-0.1,0c-0.3,0.1-0.6,0.1-0.9,0.2c-0.1-0.2-0.3-0.5-0.5-0.7c0,0,0,0,0,0c0,0,0,0,0-0.1
		c0-0.1-0.2,0-0.2,0.1c0,0.3,0.1,0.5,0.2,0.8c-0.5,0.2-1,0.4-1.5,0.7c-0.7,0.3-1.4,0.7-2.1,1.1c-0.1-0.4-0.2-0.8-0.4-1.3
		c0-0.1-0.2,0-0.1,0.1c0,0,0,0.1,0,0.1c0,0,0.1,0,0.1,0c0,0,0,0.1,0,0.1c0,0,0,0,0,0.1c0,0,0,0.1,0,0.1c-0.1,0.3,0,0.7,0,1.1
		c-0.4,0.2-0.7,0.5-1.1,0.7c-1.1,0.8-2.3,1.5-3.3,2.5c-0.1-0.3-0.2-0.5-0.3-0.8c0-0.1-0.1,0-0.1,0.1c0.1,0.3,0.1,0.6,0.2,0.8
		c-0.4,0.4-0.7,0.7-1,1.1c0,0.1-0.1,0.1-0.2,0.2c0,0,0,0.1,0,0.1c-0.1,0.1-0.1,0.2-0.2,0.2c-0.1,0.1,0.1,0.1,0.1,0c0,0,0,0,0-0.1
		c0,0,0-0.1,0,0c0,0,0,0,0,0c0.5-0.3,1-0.6,1.4-1c0.2,0.4,0.3,0.7,0.5,1.1c0.2,0.2,0.4,0.5,0.7,0.7c-0.3-0.6-0.7-1.2-1-1.9
		c1.1-0.8,2.1-1.7,3.2-2.4c0.3-0.2,0.7-0.5,1-0.7c0.1,0.8,0.4,1.6,0.7,2.4c0.1,0.3,0.2,0.6,0.4,0.9c-0.5,0.4-1.1,0.9-1.2,1.2
		c0,0,0,0,0,0c0,0-0.1,0-0.1,0.1c0,0,0,0,0,0c0,0.1,0.1,0.1,0.1,0c0.1,0,0.1-0.1,0.2-0.1c0,0,0.1,0,0.1,0c0.2-0.1,0.4-0.3,0.6-0.4
		c0.2-0.1,0.5-0.3,0.7-0.4c0.1,0.1,0.2,0.3,0.2,0.4c0.1,0.2,0.3,0.5,0.4,0.7c0,0,0,0,0,0c0,0,0.1,0.1,0.1,0.1c0,0,0.1,0,0.1-0.1
		c0,0,0-0.1,0-0.1c0,0,0.1-0.1,0-0.1c-0.1-0.3-0.3-0.6-0.4-0.8c0-0.1-0.1-0.2-0.1-0.3c1.1-0.6,2.2-1.1,3.3-1.7
		c0.2-0.1,0.3-0.2,0.5-0.3c0.5,1.2,1.2,2.4,2,3.5c-0.4,0.2-0.7,0.4-1,0.7c0,0-0.1,0.1-0.1,0.1c0,0,0,0,0.1,0l0.1,0
		c0,0,0.1-0.1,0.1-0.1c0.2,0.1,0.7-0.3,1-0.5c0,0,0,0.1,0,0.1c0,0,0,0,0,0c0.1,0.1,0.1,0.1,0.2,0.2c0,0.1,0.2-0.1,0.1-0.1
		c-0.1-0.1-0.1-0.2-0.2-0.3c0.1,0,0.1-0.1,0.1-0.1c0.7-0.4,1.4-0.7,2.1-1c0.6-0.3,1.1-0.5,1.7-0.7c0.6,1.2,1.4,2.4,2.1,3.4
		c-0.3,0.2-0.5,0.4-0.7,0.6c-0.1,0.1,0,0.2,0.1,0.1c0.3-0.2,0.5-0.3,0.8-0.5c0.1,0.2,0.2,0.3,0.4,0.5c0.1,0.1,0.3-0.1,0.2-0.2
		c-0.1-0.2-0.2-0.3-0.3-0.5c1.3-0.6,2.6-1,3.9-1.3c0.7,1.2,1.5,2.3,2.3,3.4c-0.5,0.2-0.9,0.4-1.4,0.7c0,0,0.1,0,0.1,0
		c0.5-0.1,1-0.3,1.4-0.4c0.2,0.3,0.5,0.6,0.7,0.9c0.1,0.1,0.3-0.1,0.2-0.2c-0.2-0.3-0.4-0.5-0.6-0.8c1.3-0.3,2.6-0.5,4-0.7
		c0.4,0.9,0.8,1.8,1.3,2.6c-1,0.1-2,0.5-2.8,1c0.2,0,0.3-0.1,0.5-0.1c0.1,0,0.2,0,0.3,0c0.2-0.1,0.5-0.2,0.7-0.2
		c0.5-0.1,1-0.2,1.6-0.3c0.2,0.3,0.3,0.7,0.5,1c0,0.1,0.2,0,0.2-0.1c-0.1-0.3-0.2-0.7-0.3-1c0.2,0,0.3,0,0.5-0.1
		C92.8,24.7,92.9,24.5,92.8,24.5z M65.9,13c1.1-0.7,2.4-1.4,3.5-1.9c0.3,1.2,0.6,2.3,1,3.4c-1.2,0.6-2.4,1.2-3.6,1.9
		c0,0-0.1,0.1-0.1,0.1C66.5,15.3,66.2,14.1,65.9,13z M72.9,18.4c0,0,0-0.1-0.1-0.1c-0.4-1.2-0.8-2.4-1.3-3.6
		c1.2-0.6,2.5-1.1,3.7-1.6c0.4,1.2,0.9,2.4,1.5,3.5C75.4,17,74.1,17.6,72.9,18.4z M79.3,20C79.3,20,79.3,20,79.3,20
		c-0.5-1.2-1.1-2.3-1.6-3.5c0.3-0.1,0.7-0.2,1-0.3c0.9-0.3,1.9-0.5,2.8-0.7c0.3,0.7,0.7,1.3,1.1,2c0.2,0.4,0.4,0.7,0.6,1.1
		C81.8,18.8,80.5,19.3,79.3,20z"/>
	<path d="M78,4.9c-0.2-0.1-0.5-0.3-0.7-0.4c-1.9-1.1,1.1-2.7,1.6-2.9C80.2,0.9,82,1,82.6,2.5c0.5,1.1,0.4,3.1,0,4.7
		c-0.4,0.9-0.9,1.7-1.5,2.3c-0.7-0.3-1.3-0.5-2-0.7c-0.3-0.1-0.7-0.2-1-0.3C79.5,8,79.4,5.8,78,4.9z"/>
	<path d="M78,4.9c-0.2-0.1-0.5-0.3-0.7-0.4c-1.9-1.1,1.1-2.7,1.6-2.9C80.2,0.9,82,1,82.6,2.5c0.5,1.1,0.4,3.1,0,4.7
		c-0.4,0.9-0.9,1.7-1.5,2.3c-0.7-0.3-1.3-0.5-2-0.7c-0.3-0.1-0.7-0.2-1-0.3C79.5,8,79.4,5.8,78,4.9z"/>
	<path class="st1" d="M77.9,8.5c0.3,0.1,0.6,0.2,0.9,0.2c0.7-1,0.6-2.6,0.1-3.7c-0.4-0.7-1.4-1.1-1.4-1.9c0-0.5,0.4-1,0.9-1.4
		c-0.9,0.5-3,1.9-1.3,2.8c0.2,0.1,0.5,0.3,0.7,0.4C79.3,5.8,79.3,8,77.9,8.5z"/>
	<path class="st1" d="M83.8,14.9c-2.2-0.3-4.5,0.5-6.6,1.3c-1,0.4-2,0.7-2.9,1.2c-0.9,0.5-1.7,1.3-2.7,1.8c-0.1,0-0.1,0.1,0,0.2
		c0.3,0.1,0.6-0.2,0.9-0.3c1.2-0.7,2.5-1.3,3.8-1.8c2.5-0.9,5.1-1.2,7.5-2.2C83.8,15,83.9,14.9,83.8,14.9z"/>
	<path class="st2" d="M93,22.2c-0.8-3.2-2.5-6.3-5-8.5c-1-0.8-2-1.6-3.1-2.2c-0.2-0.1-0.3-0.3-0.5-0.4c-0.7-0.7-1.6-1.3-2.5-1.6
		c1.9-2.3,3-8.6-1.1-8.8c-0.7,0-1.5,0.1-2.1,0.5C80.5,1,81.3,2.3,81.5,4c0.2,1.3,0.3,4-1,4.7c-1,0.6-2.5,0.2-3.7-0.2
		c1.2,0.7,2.6,1,3.7,1.9c1,0.9,1.8,2,2.2,3.2c0.6,1.8,1.2,5.2-0.8,6.3c-1.3,0.7-3.4-0.2-4.7-0.5c-2.1-0.4-4.3-0.7-6.5-0.9
		c-2.3-0.2-4.6-0.2-6.9,0.2c-1.2,0.2-2.7,0.3-3.6,1.1c2.4-0.5,5-0.2,7.4,0.2c2.4,0.4,4.7,0.9,6.9,1.7c2.5,0.7,4.8,2,6.9,3.5
		c1.1,0.8,2.4,1.8,2.7,3.2c0.3,1.4-5.2,10.6-8.3,12.7c-2.4,1.6-6.1,2.5-6.7,5.8c0.3-0.1,0.6-0.3,0.8-0.5c1.1-0.9,3.5-0.6,4.9-0.8
		c2.8-0.5,5.3-2.2,7.4-3.9c0.2-0.2,0.5-0.4,0.7-0.6c0,0,0,0,0,0c1.6-1,2.8-2.7,3.9-4.2c0.6-0.8,1.2-1.7,1.7-2.6
		c0.4-0.8,1.1-1.6,1.2-2.6c1.1,0.4,2.7-1,3.1-1.8C94.1,27.8,93.6,24.6,93,22.2z"/>
</g>
<path class="st1" d="M47.9,37.4c-1.4-0.3-2.8-0.3-4.2-0.6c-1.2-0.3-2.4-0.7-3.5-1.2c0.1-0.3,0.2-0.7,0.3-1c0.1-0.7,0.3-1.4,0.3-2.1
	c0-1.3-0.4-2.4-0.7-3.7c-0.3-1.4-0.5-2.9-1-4.3c-0.2-0.7-0.5-1.3-0.7-2c-0.1-0.5-0.3-1.1-0.6-1.5c-0.1-0.1-0.4,0.1-0.4,0.2
	c-0.8,0.7-1.1,1.5-1.2,2.5c-0.1,1.2-0.5,2.4-0.7,3.6c-0.2,1.2-0.3,2.5-0.2,3.7c0,0.6,0,1.3,0.1,1.9c0,0.1,0,0.1,0,0.2
	c-0.9-0.6-1.8-1.2-2.7-1.9c0.2-0.7,0.2-1.4,0.4-2c0.4-1.7,0.7-3.4,0.7-5.2c0-1.8-0.1-3.6-0.5-5.3c-0.2-1-0.4-1.9-0.7-2.8
	c-0.3-0.7-0.3-1.6-0.8-2.3c-0.2-0.3-1.3,1.3-1.3,1.5c-0.3,1.1-0.5,2.3-0.7,3.4c-0.3,1.4-0.5,2.9-0.5,4.3c0,1.4-0.1,2.8,0,4.2
	c0,0.6,0,1.2,0.1,1.8c-0.7-0.6-1.5-1.2-2.2-1.8c0.6-1,0.8-2.2,0.9-3.4c0.2-1.6,0.1-3.2-0.3-4.7c-0.4-1.5-0.4-3.2-0.9-4.7
	c-0.3-0.7-0.7-1.4-0.9-2.1c-0.2-0.5-0.3-1.2-0.7-1.5c-0.3-0.2-1,0.9-1.1,1c-0.5,0.9-0.5,2.1-0.6,3.1c-0.1,1.4,0.1,2.8,0.1,4.2
	c0,1.4,0,2.8,0.1,4.2c0,0.2,0,0.4,0,0.5c-0.7-0.7-1.3-1.4-1.9-2.2c-0.1-0.2-0.3-0.3-0.4-0.5c0,0,0-0.1,0-0.1
	c0.1-0.2,0.3-0.5,0.3-0.8c0.2-0.9,0.6-2.1,0.5-3c-0.1-1.1-0.5-2.1-0.8-3.1c-0.4-1.1-0.8-2.2-1.4-3.3c-0.5-1-0.9-2.2-1.5-3.1
	c-0.2-0.3-1.3,1.3-1.3,1.5c-0.4,1.4-0.3,2.8-0.2,4.3c-0.4-0.6-0.8-1.2-1.2-1.7c-0.7-0.9-1.6-2-2.7-2.7c-0.6-0.3-1.2-0.6-1.8-0.8
	c-0.4-0.2-0.8-0.4-1.2-0.2C9.9,8.1,9,9.2,9.1,9.7c0.2,0.9,0.9,1.8,1.4,2.6c0.6,1,1.3,2,2.1,3c0.7,0.9,1.5,1.8,2.5,2.6
	c0.1,0.1,0.3,0.2,0.4,0.4c-0.1,0-0.2,0-0.3,0c-2.2,0.1-4.5,0.1-6.7,0.3c-0.4,0-0.8,0.8-1,1.1c-0.1,0.1-0.5,0.9-0.1,0.9
	c0,0,0.1,0,0.1,0c-0.2,0.3-0.2,0.5-0.1,0.7c0.6,0.7,2.1,1,3,1.3c1.2,0.3,2.4,0.6,3.6,0.8c2,0.3,4.3,0.1,6.3-0.5
	c0.7,0.8,1.4,1.6,2.1,2.3c-1.4,0-2.9-0.1-4.3,0.1c-1.4,0.2-2.7,0.6-4,1c-1.2,0.4-2.6,0.6-3.7,1.2c-0.4,0.2-0.8,0.8-1,1.3
	c-0.1,0.2-0.3,0.8,0.1,0.6c0.1-0.1,0.2-0.1,0.4-0.2c-0.1,0.3-0.1,0.5-0.1,0.5c2.4,0.3,4.8,1.1,7.2,0.9c1.4-0.1,2.8-0.5,4.2-0.7
	c1.5-0.3,3.1-0.5,4.6-0.9c0.1,0,0.2-0.1,0.2-0.1c0.6,0.6,1.3,1.1,2,1.7c-0.1,0-0.1,0-0.2,0c-1.3,0.4-2.7,0.6-4,1
	c-1.3,0.4-2.7,0.8-4,1.2c-1.2,0.3-2.7,0.3-3.7,1c-0.4,0.3-1.3,1.3-1.1,1.8c0,0,0,0.1,0,0.1c0,0.1,0.1,0,0.2,0c0,0.2,0,0.3,0.1,0.3
	c0.7,0,1.3,0.1,2,0.2c0.7,0,1.4,0,2.1-0.1c1.5-0.2,2.9-0.5,4.3-0.9c1.5-0.3,2.9-0.6,4.4-0.9c0.7-0.2,1.5-0.3,2.2-0.5
	c0.4-0.1,0.9-0.1,1.3-0.3c0,0,0.1-0.1,0.1-0.1c0.8,0.6,1.6,1.1,2.4,1.6c-1.1,0.3-2.1,0.5-3.2,0.7c-1.1,0.2-2.1,0.5-3.1,0.9
	c-1,0.4-1.9,0.6-2.8,1c-0.4,0.2-0.8,0.8-1,1.3c-0.1,0.1-0.2,0.5-0.1,0.6c-0.1,0.3-0.2,0.7,0,0.6c0.5-0.1,1.1,0,1.6,0
	c0.7,0,1.4-0.1,2.1-0.1c1.5-0.1,3-0.3,4.5-0.4c1.4-0.1,2.8-0.4,4.2-0.6c1.3-0.2,2.6-0.4,3.8-0.7c0.1,0,0.2-0.1,0.2-0.1
	c0.7,0.3,1.5,0.5,2.3,0.7c1.4,0.3,2.9,0.3,4.3,0.7C47.2,39.5,48.1,37.5,47.9,37.4z M37.2,33.2c-0.2-0.5-0.1-1-0.2-1.5
	c-0.1-0.5-0.2-1-0.2-1.5c-0.1-1.1,0-2.2,0.1-3.3c0.1-0.7,0.2-1.4,0.3-2.1c0.2,0.6,0.5,1.2,0.6,1.9c0.4,1.4,0.6,2.8,1,4.3
	c0.3,1.3,0.7,2.6,0.5,4c0,0.1,0,0.2,0,0.3c-0.8-0.4-1.5-0.8-2.3-1.2C37.1,33.6,37.2,33.4,37.2,33.2z M31.5,29.1
	c-1.1-2.3-0.8-5.2-0.8-7.7c0-1.3,0.2-2.7,0.5-4c0.3,0.7,0.5,1.4,0.6,2.1c0.3,1.5,0.5,2.9,0.6,4.4c0.1,1.5,0.1,2.9-0.3,4.4
	c-0.2,0.7-0.2,1.3-0.4,2c-0.1-0.1-0.2-0.1-0.3-0.2c0.1-0.3,0.3-0.7,0-0.6c0,0,0,0-0.1,0C31.5,29.4,31.5,29.3,31.5,29.1z M26.1,25.1
	c-1-2.1-0.9-4.8-0.9-7.1c0-1.1-0.1-2.3-0.1-3.4c0.2,0.4,0.4,0.7,0.5,1.1c0.5,1.3,0.5,2.6,0.8,4c0.2,1.3,0.5,2.5,0.5,3.8
	c0,0.7,0,1.4-0.1,2.1c0,0.2-0.1,0.4-0.1,0.6c-0.2-0.2-0.4-0.3-0.6-0.5C26.1,25.5,26.1,25.3,26.1,25.1z M19.1,16.2
	c-0.2-0.9-0.3-1.9-0.3-2.9c0-0.5-0.1-0.9-0.1-1.4c0.1,0.2,0.2,0.4,0.3,0.6c0.5,1,0.9,2,1.3,3.1c0.3,0.9,0.7,1.8,0.8,2.7
	c0,0.3,0,0.6,0,0.9c-0.2-0.1-0.4-0.2-0.7-0.3c0-0.1,0-0.1,0-0.2C19.9,17.9,19.3,17.1,19.1,16.2z M14.7,13.5c0.7,0.8,1.3,1.8,1.9,2.7
	c-0.2-0.1-0.3-0.3-0.4-0.4c-0.8-0.7-1.5-1.5-2.2-2.4c-0.7-0.8-1.2-1.7-1.8-2.5c0,0,0,0,0,0C13.1,11.6,13.9,12.6,14.7,13.5z
	 M14.8,21.3c-1.1-0.2-2.2-0.4-3.3-0.7c-0.2-0.1-0.5-0.1-0.8-0.2c1,0,2-0.1,2.9-0.1c1.7,0,3.3,0,4.9,0.5c0,0,0,0,0,0c0,0,0,0,0,0
	c0.1,0.2,0.2,0.3,0.3,0.5C17.6,21.5,16.1,21.5,14.8,21.3z M22.4,27.6c-1.4,0.2-2.8,0.6-4.2,0.7c-1.7,0.2-3.3-0.1-5-0.4
	c1.2-0.4,2.3-0.7,3.5-0.8c1.3-0.2,2.6-0.1,3.9-0.1c1.1,0,2.3-0.2,3.4,0c0.1,0.1,0.2,0.2,0.3,0.3C23.7,27.4,23,27.5,22.4,27.6z
	 M28.7,32.2c-1.5,0.3-2.9,0.5-4.4,0.9c-1.1,0.3-2.2,0.5-3.4,0.7c0.6-0.2,1.2-0.4,1.8-0.6c1.2-0.4,2.5-0.6,3.8-1c1-0.3,2-0.3,3-0.5
	c0.1,0.1,0.2,0.1,0.3,0.2C29.5,32,29.1,32.1,28.7,32.2z M32.8,37.4c-1.4,0.1-2.9,0.3-4.3,0.4c-0.2,0-0.4,0-0.6,0.1
	c0.8-0.2,1.6-0.4,2.3-0.5c1-0.2,2-0.5,3.1-0.7c0.9-0.2,1.9-0.2,2.8-0.5c0.4,0.2,0.8,0.5,1.2,0.7c0,0-0.1,0-0.1,0
	C35.7,37,34.3,37.3,32.8,37.4z"/>
<g>
	<path class="st1" d="M127.2,45.5c0-0.1,0-0.1,0-0.2c0-0.2-0.1-0.5-0.4-0.7c-0.1-0.4-0.1-0.8-0.2-1c-0.2-0.6-0.5-1.1-0.7-1.6
		c-0.6-1.3-1.3-2.5-2.1-3.7c-0.8-1.1-1.6-2.2-2.4-3.3c1.1-0.7,2.1-1.6,3-2.7c0.9-1.1,1.8-2.2,2.5-3.4c0.6-0.9,1.5-2.1,1.5-3.2
		c0-0.7-2.2-1.8-2.3-1.4c0,0.9-0.8,1.9-1.3,2.6c-0.6,1-1.3,1.9-2,2.8c-1,1.3-2,2.3-3.2,3.2c-0.4-0.5-0.9-1-1.3-1.5
		c-1.9-2.1-3.8-4.1-5.8-5.9c-1-0.9-2.1-1.7-3.3-2.5c-1-0.6-1.8-1.4-2.9-1.7c-0.6-0.2,0,0.6,0.1,0.7c0.4,0.4,1,0.8,1.6,1
		c-0.3-0.1,0.1,0.1,0.2,0.2c0.2,0.2,0.5,0.3,0.7,0.5c0.5,0.3,0.9,0.6,1.4,0.9c0.9,0.7,1.7,1.5,2.5,2.2c1.9,1.7,3.4,3.7,5.1,5.5
		c0.3,0.4,0.6,0.7,0.9,1.1c-0.5,0.3-1,0.6-1.6,0.8c-2,0.8-4.4,1.3-6.6,1.2c-2.1-0.1-3.5-1.2-4.9-2.6c-0.3-0.3-1.1-1.1-1.6-1
		c-0.5,0.1-0.2,0.4,0.1,0.7c1.7,1.7,3.6,3.3,5.8,4.1c2.4,0.9,5.1,0.5,7.5-0.1c1-0.3,2-0.6,2.9-1.1c0.7,1,1.4,2,2,3c0.6,1,1,2,1.5,3
		c0.3,0.6,0.5,1.1,0.7,1.7c0.1,0.5,0.1,0.7,0.5,1.1C125.3,44.5,127.1,46,127.2,45.5z"/>
	<path class="st1" d="M136.9,45.3c0.2-1.1,0-2.2,0.1-3.3c0-0.5,0-0.9,0-1.3c0-0.2-0.1-0.4,0-0.6c0-0.1,0-0.1,0-0.2c0,0,0.1,0,0.2,0
		c0.4,0.1,0.9,0.4,1.3,0.6c0.5,0.2,1,0.4,1.4,0.6c0.8,0.4,1.5,1,2.4,1c0.1,0,0.1-0.1,0.1-0.2c-0.1-0.9-1.1-1.8-1.6-2.5
		c-0.4-0.5-0.8-0.9-1.3-1.4c-0.2-0.3-1-0.8-1.1-1.2c-0.1-0.4,0.7-0.6,1-0.8c0.4-0.3,0.9-0.5,1.3-0.9c0.5-0.4,0.9-0.9,1.4-1.2
		c0.2-0.2,0.7-0.3,0.9-0.6c0.2-0.4-1-1.2-1.2-1.3c-0.8-0.5-1.3-0.5-2.2-0.5c-1,0-2-0.4-3-0.5c-1.6-0.2-3.1-1-4.5-1.9
		c0.6-0.6,2.1-1,2.7-1.2c1.1-0.3,2.4-0.2,3.5-0.4c1.2-0.2,2.4-0.5,3.5-0.9c0.6-0.2,1.3-0.4,1.9-0.7c0.4-0.2,1-0.3,1.3-0.6
		c0.1-0.1-0.1-0.4-0.2-0.4c-1.1-1.3-2.6-1.7-4-2.6c-0.8-0.4-1.5-0.9-2.3-1.3c-0.1-0.1-0.3-0.1-0.4-0.2c0.3-0.5,0.5-1,0.8-1.5
		c0.4-0.8,0.9-1.5,1.3-2.3c0.3-0.7,0.6-1.4,1-2c0.2-0.4,0.5-0.7,0.6-1.2c0-0.6-1.6-1.6-2.1-1.6c-1,0.2-2,0.8-2.9,1.3
		c-0.6,0.4-1.2,0.7-1.8,1.1c-0.2,0.1-0.4,0.2-0.5,0.3c0-0.3-0.1-0.6-0.1-0.8c-0.1-0.8-0.2-1.7-0.3-2.5c-0.1-1,0-2.5-0.5-3.4
		c-0.2-0.4-1.7-1.8-2.2-1.4c-0.9,0.8-1.3,2.4-1.9,3.4c-0.7,1.3-1.4,2.6-2,3.9c-0.6,1.1-1,2.3-1.5,3.4c-0.3-0.8-0.6-1.5-0.8-2.3
		c-0.3-1-0.5-2-0.8-2.9c-0.2-0.8-0.3-1.6-0.7-2.4c-0.1-0.3-1.9-1.9-2.2-1.4c-0.4,0.7-0.6,1.4-0.9,2.1c-0.1,0.2-0.3,1-0.6,1.5
		c-0.1-0.1-0.2-0.2-0.2-0.3c-0.8-0.9-1.7-1.8-2.6-2.7c-0.8-0.9-2.6-3-4-2.8c-0.1,0-0.1,0.1-0.1,0.2c0.3,1.5,0.7,3,1.2,4.5
		c0.4,1.1,1.2,2.1,1.4,3.3c-0.4-0.1-0.9-0.4-1.3-0.6c-0.6-0.3-1.2-0.5-1.8-0.8c-0.6-0.2-1.3-0.4-1.9-0.6c-0.4-0.2-0.8-0.4-1.3-0.3
		c-0.2,0-0.1,0.2-0.1,0.3c1.1,1.7,2.7,3.1,4,4.6c1.5,1.7,2.8,3.6,4.1,5.5c0.2,0.2,0.7,0.7,0.8,1c0.1,0.6-0.6,0.3-0.9,0.2
		c-0.8-0.2-1.6-0.4-2.4-0.8c-1.7-0.8-3.1-1.9-5-2.2c-0.6-0.1,0,0.6,0.1,0.7c0.4,0.4,1,0.9,1.6,1c1.8,0.4,3.3,1.7,5,2.3
		c0.7,0.2,1.4,0.4,2.1,0.7c0.6,0.2,1.2,0.4,1.8,0.1c0,0,0-0.1,0-0.1c-0.3-0.9-1-1.6-1.6-2.4c-0.8-1.2-1.6-2.3-2.5-3.5
		c-0.8-1-1.7-2-2.6-3c-0.7-0.8-1.6-1.6-2.3-2.5c0.3,0.1,0.6,0.3,0.9,0.3c0.7,0.2,1.4,0.4,2.1,0.7c1,0.4,1.9,1.1,3,1.2
		c0.1,0,0.3,0,0.3-0.1c-0.1-0.8-0.4-1.4-0.7-2c-0.4-0.8-0.7-1.6-1-2.5c-0.2-0.9-0.3-1.8-0.7-2.6c0,0,0,0,0,0c0,0,0,0,0.1,0.1
		c1.1,1.2,2.3,2.3,3.3,3.5c0.7,0.9,1.7,2,2.9,2c0,0,0.1,0,0.1-0.1c0.3-0.5,0.5-1.1,0.8-1.7c0.2,0.7,0.4,1.3,0.6,2
		c0.6,1.8,1.1,3.9,2.2,5.5c0,0,0,0,0,0c0,0.1,0.1,0.1,0.1,0.2c0.3,0.5,0.9,0.9,1.4,1.1c0.2,0.1,0.9,0.3,0.6-0.2
		c0-0.1-0.1-0.2-0.1-0.2c0-0.2,0.4-0.7,0.5-0.9c0.3-0.5,0.5-1.1,0.7-1.7c0.5-1.2,1.1-2.4,1.7-3.5c0.6-1.2,1.2-2.3,1.8-3.4
		c0-0.1,0.1-0.1,0.1-0.2c0,0.1,0,0.2,0,0.3c0.1,1.5,0.2,3.2,1.3,4.3c0.4,0.4,1.1,1,1.7,1.1c0.7,0.1,1.5-0.5,2-0.8
		c0.2-0.1,0.3-0.2,0.5-0.3c-0.7,1.3-1.3,2.6-2.2,3.8c-0.1,0.2,0.3,0.6,0.4,0.7c1,1.1,2.5,1.3,3.8,2c0.8,0.4,1.6,0.9,2.4,1.3
		c0.1,0.1,0.2,0.1,0.3,0.2c-0.4,0.2-0.9,0.3-1.3,0.4c-0.7,0.2-1.4,0.4-2.1,0.6c-1.3,0.4-2.7,0.7-4.1,0.8c-0.5,0.1-1.1,0-1.7,0.1
		c-0.6,0.1-1.3,0.4-1.9,0.6c-0.7,0.3-2,0.7-1.4,1.6c0.7,0.9,1.8,1.4,2.8,1.9c1.1,0.6,2.3,1.3,3.5,1.8c1,0.4,2,0.5,3.1,0.7
		c-0.2,0.2-0.4,0.4-0.7,0.6c-0.4,0.3-0.8,0.6-1.2,0.9c-0.5,0.3-1,0.4-1.4,0.9c0,0.1,0,0.2,0,0.3c1,1.6,2.6,2.7,3.7,4.3
		c0.1,0.2,0.2,0.3,0.3,0.5c0,0,0,0,0,0c-0.2-0.1-0.4-0.2-0.6-0.3c-0.8-0.4-1.7-0.7-2.5-1.1c-0.8-0.4-2.3-1.4-2.1,0.2
		c0.1,1.3,0.2,2.7,0.1,4.1c-1-1-1.9-2.1-3-3c-0.7-0.6-1.5-1.2-2.3-1.6c-0.5-0.2-0.9-0.4-1.4-0.6c-0.2-0.1-0.4-0.1-0.6-0.2
		c-0.3-0.1-0.7-0.3-0.1,0.1c-0.2-0.1-0.9-0.6-1-0.2c-0.1,0.4,1,1.1,1.2,1.2c0.7,0.4,1.4,0.5,2.1,0.8c0.8,0.3,1.3,0.8,1.8,1.3
		c1.3,1.3,2.4,2.7,3.8,3.8C135.4,44.8,136.8,45.9,136.9,45.3z"/>
</g>
</svg>
