<?xml version="1.0" encoding="utf-8"?>
<!-- Generator: Adobe Illustrator 23.1.0, SVG Export Plug-In . SVG Version: 6.00 Build 0)  -->
<svg version="1.1" id="Слой_1" xmlns="http://www.w3.org/2000/svg" xmlns:xlink="http://www.w3.org/1999/xlink" x="0px" y="0px"
	 viewBox="0 0 50 50" style="enable-background:new 0 0 50 50;" xml:space="preserve">
<rect style="display:none;" width="50" height="50"/>
<g>
	<path style="fill:#FFFFFF;" d="M11.6096373,37.554142c0.0264416,1.9625473,0.0479317,3.9250946,0.0735416,5.8876419
		c0.1613483,0.0052338,0.3245745,0.0421371,0.4825687,0.129406c0.0793238,0.0438194,0.1467819,0.0956726,0.2183514,0.1448174
		c-0.024292-2.0539246-0.0526028-4.1078491-0.0758572-6.1618652c-0.0465393-4.1101875-0.0789604-8.2203732-0.1297874-12.3305588
		c-0.0560598-4.5183926,0.1849127-9.1791763-0.2850523-13.6740227c-0.0342064-0.3263597-0.4865131-0.3331804-0.5131407,0
		c-0.3470087,4.350214-0.0061665,8.8402023,0.0478468,13.2025623C11.4809809,29.019556,11.5521765,33.2867088,11.6096373,37.554142z
		"/>
	<path style="fill:#FFFFFF;" d="M42.5593147,7.866641c0.2503967,0.0136414,0.4131584-0.3477554,0.2135048-0.5153732
		c-1.9193001-1.6114287-4.2353973-2.0454226-6.6533241-2.2989979c0.1083832-0.1792035,0.2817802-0.3976483,0.3517609-0.4749174
		c0.0633469-0.1451936-0.0579262-0.3499041-0.2227402-0.3328061c-0.9540291,0.099412-1.8566895,0.2490907-2.7723274,0.5662007
		c-0.3651352,0.1265073-2.0628853,0.8692951-2.02738,0.6663599c0.0262432-0.1496787-0.1006374-0.3445787-0.2762909-0.2763734
		c-0.8213634,0.3191652-1.5754566,0.6716857-2.3009605,1.190516c-0.2685242,0.1920037-1.6379623,1.3761663-1.688324,1.2245255
		c-0.0688591-0.2071395-0.323555-0.2304044-0.4443531-0.058115c-0.4424133,0.630949-0.7638206,1.2756329-0.9827328,1.9461975
		c-4.7385197-0.2943125-9.7300529,0.0580215-14.2415304,1.6008711c-0.086051,0.0294313-0.1263208,0.0940866-0.1307116,0.1607037
		c-0.1967688-0.0549383-0.3519506,0.2044306-0.1550045,0.3225288c4.3197546,2.5889187,9.5784111,2.336278,14.4269009,2.0812073
		c0.0226192-0.0013084,0.0391464-0.0106516,0.0592346-0.0153227c0.7156925,1.1413708,1.4312916,2.2827406,2.1467037,3.4241114
		c0.1200619,0.1915359,0.3989563,0.1487446,0.4681892-0.0611057c0.1862125-0.5651722,0.662344-0.1566849,1.0701752,0.3242111
		c-5.4953213,1.0853119-10.8525486-2.4275608-16.2897549-0.9408646c-0.1474371,0.0402699-0.160984,0.2456341-0.0628805,0.324585
		c-0.3570051,6.3973179,0.069047,12.9158173,0.1584616,19.3214512c0.0210218,1.4987488-0.3334608,3.2872314,1.2638607,4.0370293
		c2.0371075,0.9560013,5.1310272,0.7290535,7.3201504,0.8201485c2.8924904,0.1201553,5.9892044,0.2565651,8.8587017-0.2027473
		c1.1352959-0.1817284,1.4741745-0.4995842,1.6220779-1.5965729c0.4035378-2.9932022,0.0584908-6.2859459,0.1013756-9.3130646
		c0.0474739-3.3562794,0.0942726-6.7125587,0.1373444-10.0689316c0.090538-0.0502682,0.1526718-0.1493988,0.123333-0.26647
		c-0.3941002-1.5705051,0.4353943-0.2277889,0.9110603,0.1531353c0.156311,0.1251068,0.3154259,0.2391872,0.4779968,0.3478489
		c-0.9261932,7.0363026-0.9091873,14.0833492-0.9531021,21.1662769l-0.0158844,2.5616341
		c-7.1718712,2.0272026-13.8954563,1.4321327-21.0050087-0.5722733c-0.1967678-0.0554047-0.3403645,0.2518959-0.1435118,0.3401871
		c6.4431,2.8870621,14.2095757,2.8771591,20.949707,0.9881439c0.1494942-0.1618271,0.3386841-0.288147,0.526577-0.3662567
		c0.0423241-0.0207405,0.0843697-0.0420456,0.1260376-0.0640945c0.0742912-0.0381203,0.1478119-0.0764275,0.2237816-0.1111832
		c-0.0062675-0.0608253-0.0241165-0.1206245-0.0591507-0.1707039l0.0170021-2.6054535
		c0.0453148-6.9670715,0.0519485-13.8891048,0.9262886-20.8109531c0.8905983,0.4960327,1.8230553,0.7784786,2.8376389,0.9467506
		c0.1999435,0.0331688,0.3731689-0.1548176,0.2676811-0.3482227c-0.6798134-1.2466679,1.2468567-0.3896122,1.5394897-0.3394394
		c0.7528763,0.1292171,1.4806213,0.144165,2.2407875,0.1163235c0.0829697-0.0029907,0.1284714-0.0527897,0.151268-0.1111851
		c0.0863304-0.0490513,0.1416435-0.1413631,0.0981979-0.2646942c-0.3305664-0.9377804-0.716629-1.8285656-1.2636757-2.6654396
		c-0.4848213-0.7414799-1.5193977-1.3283291-0.1647186-1.6271267c0.1992912-0.0440063,0.2353668-0.342803,0.0572739-0.4378233
		c-0.7641869-0.4072723-1.5293961-0.793148-2.3316078-1.1218433c-0.7480202-0.3064585-2.4558716-0.3331804-1.0243912-0.8493013
		c0.2253571-0.081192,0.2167625-0.3661613,0-0.4504375c-0.3514938-0.136878-0.70364-0.2606764-1.0569077-0.3770933
		c0.1958313-0.0504532,0.3912926-0.1024952,0.5876884-0.1508932c0.0643768-0.0160704,0.1088486-0.059329,0.1422043-0.1109037
		c1.3436508,0.1280022,2.6043358-0.2631063,3.7153511-1.1257677c0.1808739-0.1404285,0.0456772-0.3921356-0.1208191-0.4575386
		c-0.1132393-0.0444736-0.2151756-0.0694199-0.3182297-0.095768c1.0774612-0.7110205,1.9966507-1.6002169,2.7239265-2.7086992
		c0.0977325-0.1487446-0.1353836-0.3348622-0.2501183-0.1930318c-1.0626068,1.3143144-2.2924576,2.3533759-3.8311005,3.071404
		c-0.313282,0.1462221-0.0404587,0.6037607,0.2704849,0.462678c0.1301498-0.0009346,0.2603035-0.0017757,0.3904533-0.0026169
		c-0.9940262,0.5119162-2.0739174,0.6413202-3.2376175,0.3770933c-0.2589951-0.0587683-0.4630432,0.2745981-0.3015099,0.4510918
		c-0.1265984,0.035037-0.2526398,0.0719433-0.3794289,0.1060457c-0.0859566,0.0235453-0.1369705,0.0770817-0.1624794,0.1401491
		c-0.5771294-0.1602364-1.1632309-0.2894535-1.7688599-0.3762522c-0.670845-0.0961428-1.946104,0.1936855-1.0455093-0.5614357
		c0.1288414-0.1081018,0.0673637-0.3715811-0.1049232-0.3974619c-1.6222687-0.243578-3.2237835-0.1566858-4.7645874,0.2552576
		C32.2328835,8.9987621,37.0768852,7.5670967,42.5593147,7.866641z M25.3547611,12.6074028
		c-0.1076336,0.0664301-0.1714478,0.1983566-0.0846386,0.3368235c0.0196209,0.0312061,0.0391369,0.0623198,0.0586643,0.0935259
		c-4.6617165,0.2304983-9.1663742,0.2036829-13.5320978-1.6073179c4.6365938-0.8654642,9.0700464-1.4724951,13.7873659-1.2962818
		c-0.1470718,0.667201-0.1993008,1.3627119-0.1486607,2.1042852c-0.03158,0.0153227-0.0639076,0.0272827-0.0953941,0.0430727
		C25.2010651,12.3508368,25.2416153,12.5473251,25.3547611,12.6074028z M31.9250221,19.5465355
		c-0.0600758,4.9669609-0.106699,9.9341087-0.1738777,14.9009781c-0.0161629,1.1905136,0.1448212,2.5528526-0.0545635,3.7252426
		c-0.2476902,1.4561462-0.2538567,1.8634148-2.0136452,2.0136566c-2.4642906,0.2105026-4.9572544,0.2588997-7.4286346,0.1835938
		c-2.3800983-0.0724106-7.7176962,0.4338989-8.4963713-2.4791374c-0.5058432-1.8921928-0.0669918-4.50774-0.0981045-6.4560852
		c-0.0778294-4.8762379,0.0795107-9.831707-0.3307505-14.6924362c5.5644608-0.5867558,10.9308453,2.4111176,16.4427986,1.1331482
		c0.0142002-0.0032692,0.0226097-0.0114918,0.0353279-0.0160694c0.1097717,0.1467819,0.195076,0.2619839,0.2365589,0.300478
		c0.5840473,0.5428429,1.2089233,0.9690819,1.8857479,1.3657951C31.928854,19.533268,31.9251156,19.5385933,31.9250221,19.5465355z
		 M37.2245102,19.5000992c-0.1406174-0.053257-0.29776,0.083622-0.2938461,0.2239571
		c0.0266304,0.9608593,0.269928,0.9096584-0.7067223,0.7767982c-0.5414391-0.073719-1.0721359-0.3131866-1.5707855-0.6397324
		c-0.0161629-0.1680851-0.164814-0.2419891-0.3186035-0.2225552c-0.7388649-0.5516262-1.3909302-1.2696533-1.8762169-1.8816357
		c-0.1470642-0.1853714-0.3989563-0.0114002-0.4178314,0.17313c-0.1166019,1.1380997,0.112587,1.0402756-0.7697887,0.5662937
		c-1.0447617-0.5612488-1.8886318-1.7641907-2.5120239-2.710475c-0.1024952-0.1556587-0.3435516-0.1750927-0.4416561,0
		c-0.4654789,0.8305216-0.3517723,0.4846334-0.875742-0.3449526c-0.5790005-0.9165716-1.1501522-1.8382826-1.7252293-2.7573776
		c-0.0354099-0.0565262-0.0827808-0.0861444-0.1326733-0.1032429c0.0383072-0.0136414,0.0764275-0.0258808,0.1147346-0.0394287
		c0.0219574,0.0391483,0.0610104,0.0712891,0.1227703,0.085865c5.744318,1.3482294,10.5331154,3.8020458,14.9577827,7.6543579
		C39.5495758,20.1813145,38.3997955,19.9453049,37.2245102,19.5000992z M29.1693268,11.6783104
		c0.569191-0.0620394,3.0505676-0.5578852,1.9686222,0.3998909c-0.150053,0.1328611-0.0248547,0.3727951,0.1565914,0.3781214
		c1.2340546,0.0358772,2.4440994,0.164814,3.6384468,0.4822979c0.7743683,0.205925,1.9389076,0.2307777,0.5982475,0.7068157
		c-0.2174187,0.0772686-0.2322731,0.3854094,0,0.4570723c1.0478439,0.3232756,2.1132545,0.6543064,3.1012077,1.1353903
		c0.6314163,0.3074865,1.3725243,0.3617706,0.2108765,0.6232882c-0.1803246,0.0406427-0.220314,0.2715149-0.1043625,0.3954048
		c0.9685211,1.035326,1.6647797,2.093729,2.1958466,3.3348846c-3.9100533-3.816061-9.1800137-6.4481459-14.5689163-7.279974
		C27.2790031,12.015975,28.1942673,11.7849169,29.1693268,11.6783104z M25.9075069,11.9631863
		c-0.0306454-0.6142254-0.008688-1.223031,0.1378136-1.8259506c0.2622643-0.0269079,0.318512-0.3428965,0.168272-0.5142517
		c0.2149887-0.5039749,0.6523552-1.4221354,0.7263432-1.1994858c0.0525093,0.1579943,0.2821655,0.2574997,0.4063377,0.1071672
		c0.4654808-0.5634909,0.9375019-1.0558796,1.5124836-1.513979c-0.0782948,0.0623193,2.1234398-1.4943581,1.9822636-0.7980995
		c-0.038681,0.1910691,0.1619186,0.3837266,0.3472881,0.2669363c0.6738338-0.4244637,1.3342133-0.7770777,2.080925-1.0651298
		c0.3509445-0.1661229,0.7152252-0.2907615,1.0929756-0.3738232c0.310379-0.1513605,0.6179619-0.1315527,0.9228287,0.0595164
		c-0.1882629,0.1325808-0.1418304,0.3736362,0.0597992,0.4579124c0.1898537,0.0793242,0.3796158,0.158555,0.5694695,0.2378788
		c0.2445145,0.1022153,0.4174576-0.2604895,0.2482491-0.4265189c0.6219826,0.6099267,1.9099464,0.461463,2.7724228,0.6821504
		c0.9872169,0.2525477,1.8639755,0.6226335,2.681324,1.1712685C36.0807114,7.1021771,30.3220959,8.5366449,25.9075069,11.9631863z"
		/>
	<path style="fill:#FFFFFF;" d="M36.4712563,4.5773525c-0.0052299,0.0118661-0.0030823,0.0256944-0.0108376,0.0365324
		C36.5173187,4.5348411,36.5105934,4.5338135,36.4712563,4.5773525z"/>
	<path style="fill:#FFFFFF;" d="M34.07621,7.2704492c-0.6828957,0.1387467-1.361496,0.3940043-2.0214081,0.6157193
		c-0.1199684,0.0402694-0.0719452,0.2222757,0.0525093,0.1907892c0.6749535-0.1710749,1.3830795-0.3240237,2.0322456-0.5769453
		C34.2809219,7.4449806,34.2286911,7.2394295,34.07621,7.2704492z"/>
	<path style="fill:#FFFFFF;" d="M34.0673332,6.7602143c-0.4771576,0.1163235-0.9556236,0.2273211-1.4292336,0.357286
		c-0.1436043,0.0394282-0.0817528,0.2453532,0.0606384,0.2198462c0.4844475-0.0866117,0.9652481-0.1922841,1.4469872-0.2926302
		C34.3305359,7.0062222,34.2528915,6.7148995,34.0673332,6.7602143z"/>
	<path style="fill:#FFFFFF;" d="M32.4346962,15.3747778c-0.5316296-0.5415344-1.395319-0.8234205-2.1418438-0.8230467
		c-0.1314602,0.0000935-0.1220226,0.1814461,0,0.1978903c0.783617,0.1052046,1.333477,0.4048424,1.9712353,0.8463106
		C32.3982582,15.6888037,32.5442009,15.4861488,32.4346962,15.3747778z"/>
	<path style="fill:#FFFFFF;" d="M32.0872231,15.8435278c-0.4772549-0.415494-1.0444832-0.6535597-1.6761799-0.6974726
		c-0.1536961-0.0106516-0.1458473,0.2162027,0,0.2347956c0.5512524,0.070261,1.0421467,0.3118773,1.4390469,0.6997156
		C32.0055618,16.2325802,32.2490463,15.9844236,32.0872231,15.8435278z"/>
	<path style="fill:#FFFFFF;" d="M30.4415035,30.492424c0.3668156-2.1272697,0.0915642-4.5085812,0.1525745-6.6687393
		c0.0032711-0.1130524-0.0869846-0.2422695-0.2019081-0.265255c-1.3458939-0.2688046-2.6981411-0.4642658-4.0671959-0.5671349
		c-0.3369274-0.0253201-0.7028084-0.062973-1.0799961-0.0975437c0.3912029-1.1584682-1.0239258-1.7378426-2.0014057-2.1527767
		c-1.4211063-0.6032925-4.9698677-2.441576-6.4654408-1.3756981c-0.5607796,0.3996105-0.9365654,1.8521118-1.1443596,2.4475555
		c-0.4568844,1.309269-0.7904377,2.6697388-0.9592705,4.0468388c-0.2689915,2.19314,0.529108,2.1685658,2.2506008,2.9690018
		c-0.1266022,0.3512135-0.236105,0.7018642-0.3501854,1.0019703c-0.4015732,1.0567207-1.6340399,3.301342-0.6392641,4.3849716
		c0.5046282,0.5497551,1.6039534,0.8194008,2.2574205,1.0964279c1.1471634,0.4862213,2.2999325,0.9440422,3.4851227,1.3280487
		c0.0840893,0.6497307,0.1693935,1.299366,0.2574062,1.9483452c0.0098095,0.0725975,0.0523224,0.1197815,0.1073647,0.1471558
		c-0.0202866,0.0910988,0.0355034,0.2066727,0.1477051,0.2023773c1.5720005-0.0607338,3.1271839-0.2559128,4.6748924-0.5347137
		c0.7563343-0.1363182,2.8101673-0.1503334,3.2884464-0.8671494c0.4259586-0.638237-0.1536961-1.6778564-0.3212204-2.3052559
		c-0.2025604-0.758297-0.3248634-2.1735191-0.7139168-3.1326981C29.926878,31.9202576,30.2892075,31.3753605,30.4415035,30.492424z
		 M15.2007132,25.9308662c0.0256004-1.3070259,0.5146255-2.7528934,0.9451628-3.9768581
		c0.3467274-0.9856186,0.4356747-1.6763649,1.4851074-2.0221577c0.7709217-0.2542286,1.3620586-0.0589561,2.1062469,0.1473427
		c0.7750225,0.2149887,5.3140621,1.5894718,4.9962063,2.7721405c-0.8650913-0.0632534-1.7560635-0.0730648-2.4938984,0.1568737
		c-1.7140179,0.5342464-1.2553577,3.4392471-1.0173855,4.8620358c-0.7753963-0.3926029-1.6619759-0.8805065-2.3950481-0.9147034
		c-0.9488983-0.0442867-1.4323177,0.6972866-1.770731,1.5297699C15.9339705,27.7690563,15.1649284,27.7514896,15.2007132,25.9308662
		z M21.3309078,33.7145348c0.0877323,0.847805,0.1890125,1.6944885,0.2963676,2.5403328
		c-1.2548809-0.5974045-2.537344-1.1309052-3.8143787-1.6796341c-1.1993923-0.5154648-1.7512035-0.4350204-1.553875-2.2538681
		c0.0628796-0.5791893,0.3968067-1.2322826,0.5926418-1.7710133c0.1994781-0.5484486,0.5668545-1.886961,0.8970451-2.251442
		c1.032896-1.139782,2.2907753-0.3111286,3.2707882,0.1015625c1.2932911,0.5446167,2.5819225,1.1096954,3.9029522,1.5834923
		c0.0131855,0.1989174,0.0056057,0.4026928-0.037466,0.5943241c-0.0551243,0.2448864-0.1858368,0.4192314-0.2993565,0.6352463
		c-0.0317669,0.060545-0.037468,0.1185665-0.0251331,0.1691132c-0.9938412,0.0645618-2.0343056,0.1697674-2.717577,0.5320969
		C21.0964947,32.3107109,21.2527981,32.9596939,21.3309078,33.7145348z M29.3461018,35.6884804
		c0.3735428,1.3950424,0.3481293,1.5449982-1.1138077,1.8607063c-1.9270439,0.4161491-3.8763256,0.705883-5.8186913,1.037941
		c0.0040264-0.020462,0.0092487-0.0404549,0.006073-0.0641861c-0.1325817-1.0002899-0.2601166-2.0012283-0.3778419-3.0033875
		c-0.1107159-0.9424515-0.6555214-2.5655594,0.3489704-3.1857643c0.7600727-0.4693108,2.6555367-0.3531742,3.5671577-0.4745426
		c0.4583778-0.0611057,1.1951866-0.3211269,1.6556225-0.2172298c0.7661457,0.1728497,0.8372478,0.6804657,1.0064526,1.3353348
		C28.8540859,33.8830872,29.1040173,34.7848969,29.3461018,35.6884804z M28.8802471,31.6333275
		c-0.0682049-0.1041775-0.1410828-0.1991043-0.2227421-0.2756252c-0.5973148-0.5601273-1.6649666-0.1929379-2.3685131-0.1031494
		c-0.34869,0.0444736-0.7611942,0.0698872-1.1960278,0.0953941c0.3353291-0.4058704,0.3663483-1.0414906,0.1600494-1.5119228
		c0.0207424-0.0869865-0.0014019-0.181633-0.096983-0.2279758c-1.0740051-0.5206985-2.1800594-0.9685211-3.2806931-1.4296093
		c-0.1199665-0.0503597-0.2464733-0.1093159-0.3767185-0.1724758c0.0400829-0.6780396-0.0288715-1.4217625,0.0898819-2.0920467
		c-0.0597038-1.0090694,0.3994236-1.822773,1.3773804-2.4412956l0.6722469-0.0085945
		c1.4197979-0.2454472,3.2514477,0.1218357,4.6532135,0.3115959c0.9204979,0.124733,1.5177269,0.0517616,1.7409267,1.0388756
		c0.1338882,0.5921745-0.0270958,1.3751392-0.0392418,1.9855328C29.9720993,27.8612728,30.3847904,31.2645493,28.8802471,31.6333275
		z"/>
	<path style="fill:#FFFFFF;" d="M23.9258995,37.4775238c-0.2589016,0.0407372-0.4682827,0.0244827-0.6771049-0.1557503
		c-0.1931248-0.1666832-0.3284988-0.4139061-0.2860889-0.6753311c0.0360737-0.2219925-0.248064-0.2967415-0.332983-0.0918427
		c-0.3260803,0.7861404,0.6967144,1.8366013,1.4784641,1.3550491
		C24.3489609,37.7612801,24.1814365,37.4373512,23.9258995,37.4775238z"/>
	<path style="fill:#FFFFFF;" d="M17.1729774,31.6178169c-0.6825237,0.3610229-0.5315361,1.4170914,0.0245838,1.8024979
		c0.15378,0.1066093,0.3264427-0.1279068,0.1970387-0.2554436c-0.3713017-0.366066-0.2387199-0.8382759,0.0547504-1.1888332
		C17.6124001,31.7812309,17.4113235,31.4919643,17.1729774,31.6178169z"/>
	<path style="fill:#FFFFFF;" d="M29.2594891,24.4343586c-0.0256004-0.2043362-0.2928162-0.2048035-0.3185101,0
		c-0.083622,0.6658936-0.090723,1.3561726-0.0872669,2.0269241c0.0017757,0.3171082,0.4912682,0.3176689,0.4929504,0
		C29.3502121,25.7906246,29.343111,25.1004391,29.2594891,24.4343586z"/>
	<path style="fill:#FFFFFF;" d="M18.0615196,20.2464371c-0.5106068,0.3623314-0.9849644,0.9972038-1.070549,1.6311436
		c-0.0197124,0.1465015,0.1759338,0.265255,0.2605839,0.1097832c0.1399612-0.2570324,0.2558174-0.517149,0.4286671-0.7559624
		c0.1813526-0.2503986,0.40802-0.4481945,0.6413307-0.6478596C18.5046806,20.4267616,18.2609978,20.104887,18.0615196,20.2464371z"
		/>
	<path style="fill:#FFFFFF;" d="M15.5502434,40.8289452c-0.6899052-0.1009064-1.2177982-0.2771187-1.7752161-0.7101784
		c-0.1280956-0.0995064-0.2986097,0.0569-0.1826601,0.1825676c0.4677324,0.5068703,1.2223759,0.8578033,1.9168692,0.8306122
		C15.6733875,41.1254997,15.7301941,40.8552933,15.5502434,40.8289452z"/>
	<path style="fill:#FFFFFF;" d="M15.6301279,41.4161682c-0.5746088-0.0759583-1.096242-0.2141457-1.6437559-0.3985825
		c-0.1336927-0.0450325-0.2180719,0.1593018-0.095582,0.2266693c0.524437,0.2890778,1.1433325,0.4510918,1.7393379,0.4837914
		C15.8354931,41.7392578,15.8226929,41.4416771,15.6301279,41.4161682z"/>
	<path style="fill:#FFFFFF;" d="M31.5583,43.2260475c-0.9339504,0.2373199-1.8483734,0.4010124-2.8158665,0.4003601
		c-0.1645336-0.0000954-0.163599,0.2487144,0,0.2548828c0.9740334,0.0365334,1.9695568-0.0440063,2.9050026-0.331871
		C31.8532677,43.4860725,31.7683468,43.1726074,31.5583,43.2260475z"/>
	<path style="fill:#FFFFFF;" d="M31.3238792,42.7638397c-0.4670696,0.0953941-0.9108734,0.1580849-1.3888741,0.1251068
		c-0.1847992-0.0128021-0.1794834,0.266468,0,0.2849655c0.4864101,0.0501747,1.0020638,0.0383072,1.4744568-0.0996895
		C31.6097813,43.0157318,31.5257854,42.7226334,31.3238792,42.7638397z"/>
	<path style="fill:#FFFFFF;" d="M27.6721668,18.9001694c-0.7231674,0.0794182-1.4190521,0.1536961-2.1481991,0.1373463
		c-0.1903114-0.0042973-0.1789227,0.2663765,0,0.2884254c0.7195225,0.0881996,1.4862289,0.0926857,2.1972504-0.0635338
		C27.9205093,19.2186813,27.8810806,18.8771858,27.6721668,18.9001694z"/>
	<path style="fill:#FFFFFF;" d="M27.6378765,19.6814518l-0.2553501,0.0460625
		c-0.0466137,0.0084076-0.0764294,0.0307388-0.0980015,0.0576477c-0.1458588,0.0333557-0.2935753,0.0578346-0.4496059,0.0717564
		c-0.2121868,0.0191536-0.2148018,0.316082,0,0.332058c0.3033733,0.0226116,0.6197357-0.037466,0.9023685-0.1469688
		C27.9610596,19.9551144,27.8768864,19.638567,27.6378765,19.6814518z"/>
	<path style="fill:#FFFFFF;" d="M15.1953869,13.5310755c-0.8689213-0.1665897-1.6803818-0.365881-2.5051098-0.6928015
		c-0.1511736-0.0598898-0.2572193,0.1919098-0.1110811,0.2635727c0.7979965,0.3915758,1.6850433,0.6712189,2.5738659,0.7420406
		C15.3305836,13.857995,15.3719749,13.5648041,15.1953869,13.5310755z"/>
	<path style="fill:#FFFFFF;" d="M15.5691166,14.0709276c-0.5968456-0.1202469-1.1998587-0.213026-1.8012838-0.3078594
		c-0.2080736-0.032795-0.3036547,0.2739439-0.0891342,0.32337c0.5912409,0.1361303,1.183322,0.2746906,1.7798882,0.3855019
		C15.7192631,14.5203381,15.8326893,14.1240911,15.5691166,14.0709276z"/>
</g>
</svg>
