<?xml version="1.0" encoding="utf-8"?>
<!-- Generator: Adobe Illustrator 26.0.3, SVG Export Plug-In . SVG Version: 6.00 Build 0)  -->
<svg version="1.1" id="Слой_1" xmlns="http://www.w3.org/2000/svg" xmlns:xlink="http://www.w3.org/1999/xlink" x="0px" y="0px"
	 viewBox="0 0 500 270" style="enable-background:new 0 0 500 270;" xml:space="preserve">
<rect y="-128.4061432" style="display:none;fill:#FFFFFF;stroke:#000000;stroke-miterlimit:10;" width="500" height="500"/>
<g>
	<g>
		<g>
			<g>
				<g>
					<g>
						<path style="fill:#E50024;" d="M193.9824219,181.3052826l-22.4666138-43.815033
							c0.5014191-0.2700043,0.9931946-0.5687408,1.4656525-0.8580627l0.4242096-0.2700195
							c0.5207214-0.3182678,1.0028534-0.6170044,1.4849701-0.9063263c0.944931-0.5496674,1.8319397-1.1476135,2.680603-1.8032227
							c2.7672272-2.111618,5.0910645-4.8115234,7.154541-8.3115921c2.7095642-4.5801163,4.0883484-9.7292175,4.0883484-15.3218307
							c0-8.5043869-3.0661926-15.8712692-9.0926666-21.8977432s-13.3933716-9.0926743-21.8882141-9.0926743H85.9206238
							c-8.4949722,0-15.8616257,3.0662003-21.888092,9.0926743c-6.0361252,6.026474-9.0929108,13.3933563-9.0929108,21.8977432
							c0,5.5926132,1.3693733,10.7417145,4.0788155,15.3218307c1.2823906,2.1695328,2.815609,4.1173019,4.5608139,5.824028
							c-0.6074715,0.4338531-1.2052956,0.8870087-1.7741585,1.3594818c-0.443512,0.3566437-0.8774872,0.7328339-1.29216,1.1280823
							c-1.6005478,1.4559937-3.0565529,3.1144562-4.3390617,4.9369965
							c-3.6543694,5.1681671-5.5153961,11.1270752-5.5153961,17.7032318c0,4.4645233,0.8293457,8.668457,2.4684982,12.5061035
							c1.5620575,3.6834412,3.8955498,7.0872192,6.9134903,10.1051636
							c6.2193871,6.2194977,13.8272209,9.3725739,22.611393,9.3725739h47.7777863v-47.2764893h23.7492371l22.5919647,44.6441498
							l1.3209991,2.6323395h19.458313L193.9824219,181.3052826z M113.3144608,171.5857086H82.6518555
							c-4.0112534,0-7.4150314-1.4366913-10.3944855-4.3969574c-0.8485336-0.8966827-1.591011-1.8512573-2.1983719-2.8154907
							c-1.5332184-2.4395447-2.2756958-5.081543-2.2756958-8.0804138c0-4.2135925,1.4560013-7.7235413,4.4355774-10.7125244
							l0.0769806-0.0868683c2.8831711-3.0179443,6.2675247-4.4932556,10.3559952-4.4932556h30.6626053V171.5857086z
							 M113.3144608,124.3188858h-27.393837c-3.7991486,0-6.9617538-1.3404236-9.6520004-4.0979996
							c-2.8348007-2.9892273-4.2138214-6.3254471-4.2138214-10.2016907c0-3.9341507,1.3597183-7.2124557,4.1559067-9.9989929
							l0.0675659-0.0675659l0.0577927-0.0675583c2.5938492-2.7961884,5.7276154-4.1655655,9.5845566-4.1655655h27.393837
							V124.3188858z M157.833252,124.3188858h-27.4036102V95.7195129h27.4036102
							c3.8569336,0,6.9907074,1.3693771,9.5845642,4.1655655l0.057785,0.0675583l0.0674438,0.0675659
							c2.7964325,2.7865372,4.1559143,6.0648422,4.1559143,9.9989929c0,3.8762436-1.3787842,7.2124634-4.2233582,10.2016907
							C164.7951202,122.9784622,161.6324005,124.3188858,157.833252,124.3188858z"/>
					</g>
				</g>
				<g>
					<g>
						<path style="fill:#E50024;" d="M124.1042404,250.6039886c-64.4869995,0-116.9511948-52.4642029-116.9511948-116.9512024
							S59.6172371,16.7006512,124.1042404,16.7006512s116.9511948,52.4651337,116.9511948,116.9521332
							S188.5912323,250.6039886,124.1042404,250.6039886z M124.1042404,33.2903938
							c-55.3399506,0-100.3623962,45.0224419-100.3623962,100.3623962s45.0224457,100.3614502,100.3623962,100.3614502
							S224.466629,188.9927368,224.466629,133.6527863S179.4441833,33.2903938,124.1042404,33.2903938z"/>
					</g>
				</g>
			</g>
			<g>
				<g>
					<g>
						<path style="fill:#E50024;" d="M193.9824219,181.3052826l-22.4666138-43.815033
							c0.5014191-0.2700043,0.9931946-0.5687408,1.4656525-0.8580627l0.4242096-0.2700195
							c0.5207214-0.3182678,1.0028534-0.6170044,1.4849701-0.9063263c0.944931-0.5496674,1.8319397-1.1476135,2.680603-1.8032227
							c2.7672272-2.111618,5.0910645-4.8115234,7.154541-8.3115921c2.7095642-4.5801163,4.0883484-9.7292175,4.0883484-15.3218307
							c0-8.5043869-3.0661926-15.8712692-9.0926666-21.8977432s-13.3933716-9.0926743-21.8882141-9.0926743H85.9206238
							c-8.4949722,0-15.8616257,3.0662003-21.888092,9.0926743c-6.0361252,6.026474-9.0929108,13.3933563-9.0929108,21.8977432
							c0,5.5926132,1.3693733,10.7417145,4.0788155,15.3218307c1.2823906,2.1695328,2.815609,4.1173019,4.5608139,5.824028
							c-0.6074715,0.4338531-1.2052956,0.8870087-1.7741585,1.3594818c-0.443512,0.3566437-0.8774872,0.7328339-1.29216,1.1280823
							c-1.6005478,1.4559937-3.0565529,3.1144562-4.3390617,4.9369965
							c-3.6543694,5.1681671-5.5153961,11.1270752-5.5153961,17.7032318c0,4.4645233,0.8293457,8.668457,2.4684982,12.5061035
							c1.5620575,3.6834412,3.8955498,7.0872192,6.9134903,10.1051636
							c6.2193871,6.2194977,13.8272209,9.3725739,22.611393,9.3725739h47.7777863v-47.2764893h23.7492371l22.5919647,44.6441498
							l1.3209991,2.6323395h19.458313L193.9824219,181.3052826z M113.3144608,171.5857086H82.6518555
							c-4.0112534,0-7.4150314-1.4366913-10.3944855-4.3969574c-0.8485336-0.8966827-1.591011-1.8512573-2.1983719-2.8154907
							c-1.5332184-2.4395447-2.2756958-5.081543-2.2756958-8.0804138c0-4.2135925,1.4560013-7.7235413,4.4355774-10.7125244
							l0.0769806-0.0868683c2.8831711-3.0179443,6.2675247-4.4932556,10.3559952-4.4932556h30.6626053V171.5857086z
							 M113.3144608,124.3188858h-27.393837c-3.7991486,0-6.9617538-1.3404236-9.6520004-4.0979996
							c-2.8348007-2.9892273-4.2138214-6.3254471-4.2138214-10.2016907c0-3.9341507,1.3597183-7.2124557,4.1559067-9.9989929
							l0.0675659-0.0675659l0.0577927-0.0675583c2.5938492-2.7961884,5.7276154-4.1655655,9.5845566-4.1655655h27.393837
							V124.3188858z M157.833252,124.3188858h-27.4036102V95.7195129h27.4036102
							c3.8569336,0,6.9907074,1.3693771,9.5845642,4.1655655l0.057785,0.0675583l0.0674438,0.0675659
							c2.7964325,2.7865372,4.1559143,6.0648422,4.1559143,9.9989929c0,3.8762436-1.3787842,7.2124634-4.2233582,10.2016907
							C164.7951202,122.9784622,161.6324005,124.3188858,157.833252,124.3188858z"/>
					</g>
				</g>
				<g>
					<g>
						<path style="fill:#E50024;" d="M124.1042404,250.6039886c-64.4869995,0-116.9511948-52.4642029-116.9511948-116.9512024
							S59.6172371,16.7006512,124.1042404,16.7006512s116.9511948,52.4651337,116.9511948,116.9521332
							S188.5912323,250.6039886,124.1042404,250.6039886z M124.1042404,33.2903938
							c-55.3399506,0-100.3623962,45.0224419-100.3623962,100.3623962s45.0224457,100.3614502,100.3623962,100.3614502
							S224.466629,188.9927368,224.466629,133.6527863S179.4441833,33.2903938,124.1042404,33.2903938z"/>
					</g>
				</g>
			</g>
			<g>
				<g>
					<g>
						<path style="fill:#E50024;" d="M193.9824219,181.3052826l-22.4666138-43.815033
							c0.5014191-0.2700043,0.9931946-0.5687408,1.4656525-0.8580627l0.4242096-0.2700195
							c0.5207214-0.3182678,1.0028534-0.6170044,1.4849701-0.9063263c0.944931-0.5496674,1.8319397-1.1476135,2.680603-1.8032227
							c2.7672272-2.111618,5.0910645-4.8115234,7.154541-8.3115921c2.7095642-4.5801163,4.0883484-9.7292175,4.0883484-15.3218307
							c0-8.5043869-3.0661926-15.8712692-9.0926666-21.8977432s-13.3933716-9.0926743-21.8882141-9.0926743H85.9206238
							c-8.4949722,0-15.8616257,3.0662003-21.888092,9.0926743c-6.0361252,6.026474-9.0929108,13.3933563-9.0929108,21.8977432
							c0,5.5926132,1.3693733,10.7417145,4.0788155,15.3218307c1.2823906,2.1695328,2.815609,4.1173019,4.5608139,5.824028
							c-0.6074715,0.4338531-1.2052956,0.8870087-1.7741585,1.3594818c-0.443512,0.3566437-0.8774872,0.7328339-1.29216,1.1280823
							c-1.6005478,1.4559937-3.0565529,3.1144562-4.3390617,4.9369965
							c-3.6543694,5.1681671-5.5153961,11.1270752-5.5153961,17.7032318c0,4.4645233,0.8293457,8.668457,2.4684982,12.5061035
							c1.5620575,3.6834412,3.8955498,7.0872192,6.9134903,10.1051636
							c6.2193871,6.2194977,13.8272209,9.3725739,22.611393,9.3725739h47.7777863v-47.2764893h23.7492371l22.5919647,44.6441498
							l1.3209991,2.6323395h19.458313L193.9824219,181.3052826z M113.3144608,171.5857086H82.6518555
							c-4.0112534,0-7.4150314-1.4366913-10.3944855-4.3969574c-0.8485336-0.8966827-1.591011-1.8512573-2.1983719-2.8154907
							c-1.5332184-2.4395447-2.2756958-5.081543-2.2756958-8.0804138c0-4.2135925,1.4560013-7.7235413,4.4355774-10.7125244
							l0.0769806-0.0868683c2.8831711-3.0179443,6.2675247-4.4932556,10.3559952-4.4932556h30.6626053V171.5857086z
							 M113.3144608,124.3188858h-27.393837c-3.7991486,0-6.9617538-1.3404236-9.6520004-4.0979996
							c-2.8348007-2.9892273-4.2138214-6.3254471-4.2138214-10.2016907c0-3.9341507,1.3597183-7.2124557,4.1559067-9.9989929
							l0.0675659-0.0675659l0.0577927-0.0675583c2.5938492-2.7961884,5.7276154-4.1655655,9.5845566-4.1655655h27.393837
							V124.3188858z M157.833252,124.3188858h-27.4036102V95.7195129h27.4036102
							c3.8569336,0,6.9907074,1.3693771,9.5845642,4.1655655l0.057785,0.0675583l0.0674438,0.0675659
							c2.7964325,2.7865372,4.1559143,6.0648422,4.1559143,9.9989929c0,3.8762436-1.3787842,7.2124634-4.2233582,10.2016907
							C164.7951202,122.9784622,161.6324005,124.3188858,157.833252,124.3188858z"/>
					</g>
				</g>
				<g>
					<g>
						<path style="fill:#E50024;" d="M124.1042404,250.6039886c-64.4869995,0-116.9511948-52.4642029-116.9511948-116.9512024
							S59.6172371,16.7006512,124.1042404,16.7006512s116.9511948,52.4651337,116.9511948,116.9521332
							S188.5912323,250.6039886,124.1042404,250.6039886z M124.1042404,33.2903938
							c-55.3399506,0-100.3623962,45.0224419-100.3623962,100.3623962s45.0224457,100.3614502,100.3623962,100.3614502
							S224.466629,188.9927368,224.466629,133.6527863S179.4441833,33.2903938,124.1042404,33.2903938z"/>
					</g>
				</g>
			</g>
		</g>
		<g>
			<g>
				<path style="fill:#E50024;" d="M331.3001099,112.8226929c1.3097229,2.1753082,1.9661255,4.6619415,1.9661255,7.4615631v0.893425
					c0,5.0643158-1.9967651,9.0116196-5.9872437,11.840477c-3.9918518,2.8300476-9.5922852,4.2444763-16.7998352,4.2444763
					h-37.9781189V78.6423416h36.280426c7.2674561,0,12.8678894,1.4002762,16.7996216,4.1996613
					c3.9319458,2.801033,5.8978271,6.7622452,5.8978271,11.8850555v0.8936615c0,5.1242218-1.9967651,9.085434-5.9872437,11.884819
					C328.0523682,108.8768082,329.9889832,110.6485672,331.3001099,112.8226929z M290.4624634,93.8333969v7.148819h18.3190002
					c3.2168579,0,4.8254089-1.0415421,4.8254089-3.1274643v-0.8936539c0-2.0847397-1.608551-3.1277008-4.8254089-3.1277008
					H290.4624634z M314.9472351,117.8714447c0-2.2033768-1.608551-3.3062439-4.8253784-3.3062439h-19.6593933v7.5061417h19.6593933
					c3.2168274,0,4.8253784-1.1016846,4.8253784-3.3064728V117.8714447z"/>
				<path style="fill:#E50024;" d="M400.2405701,110.7226257c-2.7701416,2.9194336-6.7773438,4.8253937-12.0187988,5.7190552
					l15.816803,18.140213v2.6807404h-20.2848511l-16.6210632-20.1954651h-6.5233154v20.1954651h-17.9614563V78.6423416h38.1569214
					c7.3275757,0,13.091217,1.7578354,17.2911072,5.2721024c4.2001343,3.5159149,6.2999878,8.3413086,6.2999878,14.4764099
					v0.8936615C404.3959045,103.991272,403.0109558,107.8046036,400.2405701,110.7226257z M360.6093445,103.7525864h19.7487488
					c3.811676,0,5.7190552-1.4590073,5.7190552-4.3789139v-0.893425c0-2.8595276-1.9073792-4.2892914-5.7190552-4.2892914
					h-19.7487488V103.7525864z"/>
				<path style="fill:#E50024;" d="M429.0594177,134.7158508c-5.481781-2.4712982-9.7262573-6.0011292-12.7338867-10.5890198
					c-3.0088196-4.586937-4.5126648-9.8885269-4.5126648-15.9061737v-0.4469452
					c0-6.0164719,1.5038452-11.3180618,4.5126648-15.9061813c3.0076294-4.5867004,7.2521057-8.1316299,12.7338867-10.6338348
					c5.4803772-2.5022049,11.8249207-3.7531891,19.0338745-3.7531891c7.3273621,0,13.7306519,1.2509842,19.2124329,3.7531891
					c5.4803467,2.5022049,9.7095032,6.0317993,12.6890869,10.5892563c2.9781494,4.5572281,4.4680786,9.874382,4.4680786,15.9507599
					v0.4469452c0,6.0763779-1.4899292,11.3932953-4.4680786,15.9505157
					c-2.9795837,4.5576935-7.2087402,8.0733795-12.6890869,10.5446777
					c-5.481781,2.4727325-11.8850708,3.7083893-19.2124329,3.7083893
					C440.8843384,138.4242401,434.5397949,137.1885834,429.0594177,134.7158508z M461.7654419,118.4521255
					c2.9180298-2.1736603,4.3784485-5.4954681,4.3784485-9.9635315v-0.893425c0-8.936142-6.0176392-13.404213-18.0505981-13.404213
					c-5.8978271,0-10.3659058,1.1323471-13.4042053,3.3956299c-3.0382996,2.2649307-4.5572205,5.6004181-4.5572205,10.0085831
					v0.893425c0,4.4680634,1.4882507,7.7898712,4.4678345,9.9635315c2.9783936,2.1755371,7.475708,3.2618942,13.4935913,3.2618942
					C454.2883301,121.7140198,458.8457642,120.6276627,461.7654419,118.4521255z"/>
			</g>
			<g>
				<path style="fill:#E50024;" d="M331.3001099,112.8226929c1.3097229,2.1753082,1.9661255,4.6619415,1.9661255,7.4615631v0.893425
					c0,5.0643158-1.9967651,9.0116196-5.9872437,11.840477c-3.9918518,2.8300476-9.5922852,4.2444763-16.7998352,4.2444763
					h-37.9781189V78.6423416h36.280426c7.2674561,0,12.8678894,1.4002762,16.7996216,4.1996613
					c3.9319458,2.801033,5.8978271,6.7622452,5.8978271,11.8850555v0.8936615c0,5.1242218-1.9967651,9.085434-5.9872437,11.884819
					C328.0523682,108.8768082,329.9889832,110.6485672,331.3001099,112.8226929z M290.4624634,93.8333969v7.148819h18.3190002
					c3.2168579,0,4.8254089-1.0415421,4.8254089-3.1274643v-0.8936539c0-2.0847397-1.608551-3.1277008-4.8254089-3.1277008
					H290.4624634z M314.9472351,117.8714447c0-2.2033768-1.608551-3.3062439-4.8253784-3.3062439h-19.6593933v7.5061417h19.6593933
					c3.2168274,0,4.8253784-1.1016846,4.8253784-3.3064728V117.8714447z"/>
				<path style="fill:#E50024;" d="M400.2405701,110.7226257c-2.7701416,2.9194336-6.7773438,4.8253937-12.0187988,5.7190552
					l15.816803,18.140213v2.6807404h-20.2848511l-16.6210632-20.1954651h-6.5233154v20.1954651h-17.9614563V78.6423416h38.1569214
					c7.3275757,0,13.091217,1.7578354,17.2911072,5.2721024c4.2001343,3.5159149,6.2999878,8.3413086,6.2999878,14.4764099
					v0.8936615C404.3959045,103.991272,403.0109558,107.8046036,400.2405701,110.7226257z M360.6093445,103.7525864h19.7487488
					c3.811676,0,5.7190552-1.4590073,5.7190552-4.3789139v-0.893425c0-2.8595276-1.9073792-4.2892914-5.7190552-4.2892914
					h-19.7487488V103.7525864z"/>
				<path style="fill:#E50024;" d="M429.0594177,134.7158508c-5.481781-2.4712982-9.7262573-6.0011292-12.7338867-10.5890198
					c-3.0088196-4.586937-4.5126648-9.8885269-4.5126648-15.9061737v-0.4469452
					c0-6.0164719,1.5038452-11.3180618,4.5126648-15.9061813c3.0076294-4.5867004,7.2521057-8.1316299,12.7338867-10.6338348
					c5.4803772-2.5022049,11.8249207-3.7531891,19.0338745-3.7531891c7.3273621,0,13.7306519,1.2509842,19.2124329,3.7531891
					c5.4803467,2.5022049,9.7095032,6.0317993,12.6890869,10.5892563c2.9781494,4.5572281,4.4680786,9.874382,4.4680786,15.9507599
					v0.4469452c0,6.0763779-1.4899292,11.3932953-4.4680786,15.9505157
					c-2.9795837,4.5576935-7.2087402,8.0733795-12.6890869,10.5446777
					c-5.481781,2.4727325-11.8850708,3.7083893-19.2124329,3.7083893
					C440.8843384,138.4242401,434.5397949,137.1885834,429.0594177,134.7158508z M461.7654419,118.4521255
					c2.9180298-2.1736603,4.3784485-5.4954681,4.3784485-9.9635315v-0.893425c0-8.936142-6.0176392-13.404213-18.0505981-13.404213
					c-5.8978271,0-10.3659058,1.1323471-13.4042053,3.3956299c-3.0382996,2.2649307-4.5572205,5.6004181-4.5572205,10.0085831
					v0.893425c0,4.4680634,1.4882507,7.7898712,4.4678345,9.9635315c2.9783936,2.1755371,7.475708,3.2618942,13.4935913,3.2618942
					C454.2883301,121.7140198,458.8457642,120.6276627,461.7654419,118.4521255z"/>
			</g>
			<g>
				<path style="fill:#E50024;" d="M331.3001099,112.8226929c1.3097229,2.1753082,1.9661255,4.6619415,1.9661255,7.4615631v0.893425
					c0,5.0643158-1.9967651,9.0116196-5.9872437,11.840477c-3.9918518,2.8300476-9.5922852,4.2444763-16.7998352,4.2444763
					h-37.9781189V78.6423416h36.280426c7.2674561,0,12.8678894,1.4002762,16.7996216,4.1996613
					c3.9319458,2.801033,5.8978271,6.7622452,5.8978271,11.8850555v0.8936615c0,5.1242218-1.9967651,9.085434-5.9872437,11.884819
					C328.0523682,108.8768082,329.9889832,110.6485672,331.3001099,112.8226929z M290.4624634,93.8333969v7.148819h18.3190002
					c3.2168579,0,4.8254089-1.0415421,4.8254089-3.1274643v-0.8936539c0-2.0847397-1.608551-3.1277008-4.8254089-3.1277008
					H290.4624634z M314.9472351,117.8714447c0-2.2033768-1.608551-3.3062439-4.8253784-3.3062439h-19.6593933v7.5061417h19.6593933
					c3.2168274,0,4.8253784-1.1016846,4.8253784-3.3064728V117.8714447z"/>
				<path style="fill:#E50024;" d="M400.2405701,110.7226257c-2.7701416,2.9194336-6.7773438,4.8253937-12.0187988,5.7190552
					l15.816803,18.140213v2.6807404h-20.2848511l-16.6210632-20.1954651h-6.5233154v20.1954651h-17.9614563V78.6423416h38.1569214
					c7.3275757,0,13.091217,1.7578354,17.2911072,5.2721024c4.2001343,3.5159149,6.2999878,8.3413086,6.2999878,14.4764099
					v0.8936615C404.3959045,103.991272,403.0109558,107.8046036,400.2405701,110.7226257z M360.6093445,103.7525864h19.7487488
					c3.811676,0,5.7190552-1.4590073,5.7190552-4.3789139v-0.893425c0-2.8595276-1.9073792-4.2892914-5.7190552-4.2892914
					h-19.7487488V103.7525864z"/>
				<path style="fill:#E50024;" d="M429.0594177,134.7158508c-5.481781-2.4712982-9.7262573-6.0011292-12.7338867-10.5890198
					c-3.0088196-4.586937-4.5126648-9.8885269-4.5126648-15.9061737v-0.4469452
					c0-6.0164719,1.5038452-11.3180618,4.5126648-15.9061813c3.0076294-4.5867004,7.2521057-8.1316299,12.7338867-10.6338348
					c5.4803772-2.5022049,11.8249207-3.7531891,19.0338745-3.7531891c7.3273621,0,13.7306519,1.2509842,19.2124329,3.7531891
					c5.4803467,2.5022049,9.7095032,6.0317993,12.6890869,10.5892563c2.9781494,4.5572281,4.4680786,9.874382,4.4680786,15.9507599
					v0.4469452c0,6.0763779-1.4899292,11.3932953-4.4680786,15.9505157
					c-2.9795837,4.5576935-7.2087402,8.0733795-12.6890869,10.5446777
					c-5.481781,2.4727325-11.8850708,3.7083893-19.2124329,3.7083893
					C440.8843384,138.4242401,434.5397949,137.1885834,429.0594177,134.7158508z M461.7654419,118.4521255
					c2.9180298-2.1736603,4.3784485-5.4954681,4.3784485-9.9635315v-0.893425c0-8.936142-6.0176392-13.404213-18.0505981-13.404213
					c-5.8978271,0-10.3659058,1.1323471-13.4042053,3.3956299c-3.0382996,2.2649307-4.5572205,5.6004181-4.5572205,10.0085831
					v0.893425c0,4.4680634,1.4882507,7.7898712,4.4678345,9.9635315c2.9783936,2.1755371,7.475708,3.2618942,13.4935913,3.2618942
					C454.2883301,121.7140198,458.8457642,120.6276627,461.7654419,118.4521255z"/>
			</g>
		</g>
		<g>
			<g>
				<path style="fill:#E50024;" d="M305.4877319,170.0134583c-2.2347412,1.9481812-5.3001709,3.0182648-9.1965332,3.2088318
					l12.3765869,13.8665009v0.8594513h-6.5320435L288.8994446,173.22229h-11.1159058v14.7259521h-5.7299194v-37.5882416h23.1488647
					c4.2399902,0,7.5724182,1.0026245,9.9986877,3.0081177c2.425293,2.0054779,3.6385498,4.7657166,3.6385498,8.2797394v0.7448425
					C308.8397217,165.5253448,307.722229,168.0652924,305.4877319,170.0134583z M303.0525208,161.4759216
					c0-1.909729-0.6974487-3.3894958-2.0915833-4.4407043c-1.3948669-1.0500336-3.3519897-1.5757599-5.8730774-1.5757599
					h-17.3043213v12.720459h17.3043213c2.5210876,0,4.4782104-0.5245514,5.8730774-1.5757599
					c1.3941345-1.0500336,2.0915833-2.5300293,2.0915833-4.4404755V161.4759216z"/>
				<path style="fill:#E50024;" d="M326.7742615,186.2866364c-3.2472534-1.5658569-5.7496948-3.781723-7.506134-6.6466827
					c-1.7575989-2.8651886-2.6359253-6.2261353-2.6359253-10.0847626v-0.7448273
					c0-3.8579102,0.8783264-7.228775,2.6359253-10.1132965c1.7564392-2.8838196,4.2588806-5.1086578,7.506134-6.6754608
					c3.2463379-1.5658569,7.0280762-2.3493652,11.3451843-2.3493652c4.3161926,0,8.0882263,0.7835083,11.3166504,2.3493652
					c3.2274475,1.566803,5.7200012,3.7916412,7.4776001,6.6754608c1.7564087,2.8845215,2.6356812,6.2553864,2.6356812,10.1132965
					v0.7448273c0,3.8586273-0.8792725,7.219574-2.6356812,10.0847626c-1.7575989,2.8649597-4.2501526,5.0808258-7.4776001,6.6466827
					c-3.2284241,1.5667877-7.0004578,2.3491364-11.3166504,2.3491364
					C333.8023376,188.6357727,330.0205994,187.8534241,326.7742615,186.2866364z M349.6365662,179.6970367
					c2.7503357-2.4064484,4.1256104-5.7485352,4.1256104-10.0272217v-0.9167633
					c0-4.3164215-1.3752747-7.6870422-4.1256104-10.1133118c-2.7503357-2.4255371-6.5893555-3.6385498-11.5171204-3.6385498
					s-8.7767029,1.2130127-11.5458984,3.6385498c-2.7698975,2.4262695-4.1541443,5.7968903-4.1541443,10.1133118v0.9167633
					c0,4.2786865,1.3842468,7.6207733,4.1541443,10.0272217c2.7691956,2.4066772,6.6181335,3.6100159,11.5458984,3.6100159
					S346.8862305,182.103714,349.6365662,179.6970367z"/>
				<path style="fill:#E50024;" d="M374.2182617,150.3600006v32.4885559h27.675415v5.0996857h-33.405304v-37.5882416H374.2182617z"
					/>
				<path style="fill:#E50024;" d="M413.5825195,150.3600006v32.4885559h27.675415v5.0996857h-33.4053345v-37.5882416H413.5825195z"
					/>
				<path style="fill:#E50024;" d="M448.850647,185.455719c-3.1140137-2.1201172-4.6699829-5.2232971-4.6699829-9.3111572
					v-0.5728912h5.7299194v0.5728912c0,4.8902588,4.3350525,7.3344421,13.007019,7.3344421
					c3.857666,0,6.7987976-0.4773865,8.8240967-1.4326019c2.0241394-0.9542694,3.0368958-2.3679962,3.0368958-4.2402344v-0.4582672
					c0-1.6042938-0.6403503-2.8076324-1.9196167-3.609787c-1.2802429-0.8023834-3.5435181-1.4127808-6.7901001-1.8335419
					l-8.5375366-1.1460419c-4.164032-0.5344391-7.2867737-1.6134949-9.3684692-3.2373657
					c-2.0823669-1.6233978-3.1227417-3.8105011-3.1227417-6.5608215v-0.5731354
					c0-3.3609619,1.4899292-5.9876862,4.4694824-7.8785553c2.9793396-1.8908691,7.1811523-2.8364105,12.605835-2.8364105
					c5.7674255,0,10.1508179,1.0314026,13.1502075,3.0942078c2.9981995,2.0627899,4.4977722,5.0621796,4.4977722,8.996048v0.5728912
					h-5.6725769v-0.5728912c0-4.6216125-3.9921265-6.9332581-11.9754028-6.9332581
					c-3.6673279,0-6.4660034,0.4681854-8.3943787,1.4038239c-1.9295349,0.9365845-2.8937073,2.2830963-2.8937073,4.0395203
					v0.4585114c0,1.4137268,0.6106262,2.5024414,1.8335571,3.2661438c1.2221985,0.7644043,3.2661438,1.3375397,6.131073,1.7189178
					l8.5948486,1.0887146c4.5454407,0.5728912,7.8788147,1.681427,9.9986877,3.3232269
					c2.1201172,1.6429749,3.1802979,3.973465,3.1802979,6.9905548v0.5731354c0,3.4762878-1.5472412,6.1692963-4.6414185,8.0790253
					c-3.0939941,1.910675-7.5257263,2.8649597-13.2933655,2.8649597
					C456.557251,188.6357727,451.9634705,187.5758209,448.850647,185.455719z"/>
			</g>
			<g>
				<path style="fill:#E50024;" d="M305.4877319,170.0134583c-2.2347412,1.9481812-5.3001709,3.0182648-9.1965332,3.2088318
					l12.3765869,13.8665009v0.8594513h-6.5320435L288.8994446,173.22229h-11.1159058v14.7259521h-5.7299194v-37.5882416h23.1488647
					c4.2399902,0,7.5724182,1.0026245,9.9986877,3.0081177c2.425293,2.0054779,3.6385498,4.7657166,3.6385498,8.2797394v0.7448425
					C308.8397217,165.5253448,307.722229,168.0652924,305.4877319,170.0134583z M303.0525208,161.4759216
					c0-1.909729-0.6974487-3.3894958-2.0915833-4.4407043c-1.3948669-1.0500336-3.3519897-1.5757599-5.8730774-1.5757599
					h-17.3043213v12.720459h17.3043213c2.5210876,0,4.4782104-0.5245514,5.8730774-1.5757599
					c1.3941345-1.0500336,2.0915833-2.5300293,2.0915833-4.4404755V161.4759216z"/>
				<path style="fill:#E50024;" d="M326.7742615,186.2866364c-3.2472534-1.5658569-5.7496948-3.781723-7.506134-6.6466827
					c-1.7575989-2.8651886-2.6359253-6.2261353-2.6359253-10.0847626v-0.7448273
					c0-3.8579102,0.8783264-7.228775,2.6359253-10.1132965c1.7564392-2.8838196,4.2588806-5.1086578,7.506134-6.6754608
					c3.2463379-1.5658569,7.0280762-2.3493652,11.3451843-2.3493652c4.3161926,0,8.0882263,0.7835083,11.3166504,2.3493652
					c3.2274475,1.566803,5.7200012,3.7916412,7.4776001,6.6754608c1.7564087,2.8845215,2.6356812,6.2553864,2.6356812,10.1132965
					v0.7448273c0,3.8586273-0.8792725,7.219574-2.6356812,10.0847626c-1.7575989,2.8649597-4.2501526,5.0808258-7.4776001,6.6466827
					c-3.2284241,1.5667877-7.0004578,2.3491364-11.3166504,2.3491364
					C333.8023376,188.6357727,330.0205994,187.8534241,326.7742615,186.2866364z M349.6365662,179.6970367
					c2.7503357-2.4064484,4.1256104-5.7485352,4.1256104-10.0272217v-0.9167633
					c0-4.3164215-1.3752747-7.6870422-4.1256104-10.1133118c-2.7503357-2.4255371-6.5893555-3.6385498-11.5171204-3.6385498
					s-8.7767029,1.2130127-11.5458984,3.6385498c-2.7698975,2.4262695-4.1541443,5.7968903-4.1541443,10.1133118v0.9167633
					c0,4.2786865,1.3842468,7.6207733,4.1541443,10.0272217c2.7691956,2.4066772,6.6181335,3.6100159,11.5458984,3.6100159
					S346.8862305,182.103714,349.6365662,179.6970367z"/>
				<path style="fill:#E50024;" d="M374.2182617,150.3600006v32.4885559h27.675415v5.0996857h-33.405304v-37.5882416H374.2182617z"
					/>
				<path style="fill:#E50024;" d="M413.5825195,150.3600006v32.4885559h27.675415v5.0996857h-33.4053345v-37.5882416H413.5825195z"
					/>
				<path style="fill:#E50024;" d="M448.850647,185.455719c-3.1140137-2.1201172-4.6699829-5.2232971-4.6699829-9.3111572
					v-0.5728912h5.7299194v0.5728912c0,4.8902588,4.3350525,7.3344421,13.007019,7.3344421
					c3.857666,0,6.7987976-0.4773865,8.8240967-1.4326019c2.0241394-0.9542694,3.0368958-2.3679962,3.0368958-4.2402344v-0.4582672
					c0-1.6042938-0.6403503-2.8076324-1.9196167-3.609787c-1.2802429-0.8023834-3.5435181-1.4127808-6.7901001-1.8335419
					l-8.5375366-1.1460419c-4.164032-0.5344391-7.2867737-1.6134949-9.3684692-3.2373657
					c-2.0823669-1.6233978-3.1227417-3.8105011-3.1227417-6.5608215v-0.5731354
					c0-3.3609619,1.4899292-5.9876862,4.4694824-7.8785553c2.9793396-1.8908691,7.1811523-2.8364105,12.605835-2.8364105
					c5.7674255,0,10.1508179,1.0314026,13.1502075,3.0942078c2.9981995,2.0627899,4.4977722,5.0621796,4.4977722,8.996048v0.5728912
					h-5.6725769v-0.5728912c0-4.6216125-3.9921265-6.9332581-11.9754028-6.9332581
					c-3.6673279,0-6.4660034,0.4681854-8.3943787,1.4038239c-1.9295349,0.9365845-2.8937073,2.2830963-2.8937073,4.0395203
					v0.4585114c0,1.4137268,0.6106262,2.5024414,1.8335571,3.2661438c1.2221985,0.7644043,3.2661438,1.3375397,6.131073,1.7189178
					l8.5948486,1.0887146c4.5454407,0.5728912,7.8788147,1.681427,9.9986877,3.3232269
					c2.1201172,1.6429749,3.1802979,3.973465,3.1802979,6.9905548v0.5731354c0,3.4762878-1.5472412,6.1692963-4.6414185,8.0790253
					c-3.0939941,1.910675-7.5257263,2.8649597-13.2933655,2.8649597
					C456.557251,188.6357727,451.9634705,187.5758209,448.850647,185.455719z"/>
			</g>
			<g>
				<path style="fill:#E50024;" d="M305.4877319,170.0134583c-2.2347412,1.9481812-5.3001709,3.0182648-9.1965332,3.2088318
					l12.3765869,13.8665009v0.8594513h-6.5320435L288.8994446,173.22229h-11.1159058v14.7259521h-5.7299194v-37.5882416h23.1488647
					c4.2399902,0,7.5724182,1.0026245,9.9986877,3.0081177c2.425293,2.0054779,3.6385498,4.7657166,3.6385498,8.2797394v0.7448425
					C308.8397217,165.5253448,307.722229,168.0652924,305.4877319,170.0134583z M303.0525208,161.4759216
					c0-1.909729-0.6974487-3.3894958-2.0915833-4.4407043c-1.3948669-1.0500336-3.3519897-1.5757599-5.8730774-1.5757599
					h-17.3043213v12.720459h17.3043213c2.5210876,0,4.4782104-0.5245514,5.8730774-1.5757599
					c1.3941345-1.0500336,2.0915833-2.5300293,2.0915833-4.4404755V161.4759216z"/>
				<path style="fill:#E50024;" d="M326.7742615,186.2866364c-3.2472534-1.5658569-5.7496948-3.781723-7.506134-6.6466827
					c-1.7575989-2.8651886-2.6359253-6.2261353-2.6359253-10.0847626v-0.7448273
					c0-3.8579102,0.8783264-7.228775,2.6359253-10.1132965c1.7564392-2.8838196,4.2588806-5.1086578,7.506134-6.6754608
					c3.2463379-1.5658569,7.0280762-2.3493652,11.3451843-2.3493652c4.3161926,0,8.0882263,0.7835083,11.3166504,2.3493652
					c3.2274475,1.566803,5.7200012,3.7916412,7.4776001,6.6754608c1.7564087,2.8845215,2.6356812,6.2553864,2.6356812,10.1132965
					v0.7448273c0,3.8586273-0.8792725,7.219574-2.6356812,10.0847626c-1.7575989,2.8649597-4.2501526,5.0808258-7.4776001,6.6466827
					c-3.2284241,1.5667877-7.0004578,2.3491364-11.3166504,2.3491364
					C333.8023376,188.6357727,330.0205994,187.8534241,326.7742615,186.2866364z M349.6365662,179.6970367
					c2.7503357-2.4064484,4.1256104-5.7485352,4.1256104-10.0272217v-0.9167633
					c0-4.3164215-1.3752747-7.6870422-4.1256104-10.1133118c-2.7503357-2.4255371-6.5893555-3.6385498-11.5171204-3.6385498
					s-8.7767029,1.2130127-11.5458984,3.6385498c-2.7698975,2.4262695-4.1541443,5.7968903-4.1541443,10.1133118v0.9167633
					c0,4.2786865,1.3842468,7.6207733,4.1541443,10.0272217c2.7691956,2.4066772,6.6181335,3.6100159,11.5458984,3.6100159
					S346.8862305,182.103714,349.6365662,179.6970367z"/>
				<path style="fill:#E50024;" d="M374.2182617,150.3600006v32.4885559h27.675415v5.0996857h-33.405304v-37.5882416H374.2182617z"
					/>
				<path style="fill:#E50024;" d="M413.5825195,150.3600006v32.4885559h27.675415v5.0996857h-33.4053345v-37.5882416H413.5825195z"
					/>
				<path style="fill:#E50024;" d="M448.850647,185.455719c-3.1140137-2.1201172-4.6699829-5.2232971-4.6699829-9.3111572
					v-0.5728912h5.7299194v0.5728912c0,4.8902588,4.3350525,7.3344421,13.007019,7.3344421
					c3.857666,0,6.7987976-0.4773865,8.8240967-1.4326019c2.0241394-0.9542694,3.0368958-2.3679962,3.0368958-4.2402344v-0.4582672
					c0-1.6042938-0.6403503-2.8076324-1.9196167-3.609787c-1.2802429-0.8023834-3.5435181-1.4127808-6.7901001-1.8335419
					l-8.5375366-1.1460419c-4.164032-0.5344391-7.2867737-1.6134949-9.3684692-3.2373657
					c-2.0823669-1.6233978-3.1227417-3.8105011-3.1227417-6.5608215v-0.5731354
					c0-3.3609619,1.4899292-5.9876862,4.4694824-7.8785553c2.9793396-1.8908691,7.1811523-2.8364105,12.605835-2.8364105
					c5.7674255,0,10.1508179,1.0314026,13.1502075,3.0942078c2.9981995,2.0627899,4.4977722,5.0621796,4.4977722,8.996048v0.5728912
					h-5.6725769v-0.5728912c0-4.6216125-3.9921265-6.9332581-11.9754028-6.9332581
					c-3.6673279,0-6.4660034,0.4681854-8.3943787,1.4038239c-1.9295349,0.9365845-2.8937073,2.2830963-2.8937073,4.0395203
					v0.4585114c0,1.4137268,0.6106262,2.5024414,1.8335571,3.2661438c1.2221985,0.7644043,3.2661438,1.3375397,6.131073,1.7189178
					l8.5948486,1.0887146c4.5454407,0.5728912,7.8788147,1.681427,9.9986877,3.3232269
					c2.1201172,1.6429749,3.1802979,3.973465,3.1802979,6.9905548v0.5731354c0,3.4762878-1.5472412,6.1692963-4.6414185,8.0790253
					c-3.0939941,1.910675-7.5257263,2.8649597-13.2933655,2.8649597
					C456.557251,188.6357727,451.9634705,187.5758209,448.850647,185.455719z"/>
			</g>
		</g>
	</g>
	<g>
		<g>
			<g>
				<g>
					<path style="fill:#E50024;" d="M193.9824219,181.3052826l-22.4666138-43.815033
						c0.5014191-0.2700043,0.9931946-0.5687408,1.4656525-0.8580627l0.4242096-0.2700195
						c0.5207214-0.3182678,1.0028534-0.6170044,1.4849701-0.9063263c0.944931-0.5496674,1.8319397-1.1476135,2.680603-1.8032227
						c2.7672272-2.111618,5.0910645-4.8115234,7.154541-8.3115921c2.7095642-4.5801163,4.0883484-9.7292175,4.0883484-15.3218307
						c0-8.5043869-3.0661926-15.8712692-9.0926666-21.8977432s-13.3933716-9.0926743-21.8882141-9.0926743H85.9206238
						c-8.4949722,0-15.8616257,3.0662003-21.888092,9.0926743c-6.0361252,6.026474-9.0929108,13.3933563-9.0929108,21.8977432
						c0,5.5926132,1.3693733,10.7417145,4.0788155,15.3218307c1.2823906,2.1695328,2.815609,4.1173019,4.5608139,5.824028
						c-0.6074715,0.4338531-1.2052956,0.8870087-1.7741585,1.3594818c-0.443512,0.3566437-0.8774872,0.7328339-1.29216,1.1280823
						c-1.6005478,1.4559937-3.0565529,3.1144562-4.3390617,4.9369965
						c-3.6543694,5.1681671-5.5153961,11.1270752-5.5153961,17.7032318c0,4.4645233,0.8293457,8.668457,2.4684982,12.5061035
						c1.5620575,3.6834412,3.8955498,7.0872192,6.9134903,10.1051636c6.2193871,6.2194977,13.8272209,9.3725739,22.611393,9.3725739
						h47.7777863v-47.2764893h23.7492371l22.5919647,44.6441498l1.3209991,2.6323395h19.458313L193.9824219,181.3052826z
						 M113.3144608,171.5857086H82.6518555c-4.0112534,0-7.4150314-1.4366913-10.3944855-4.3969574
						c-0.8485336-0.8966827-1.591011-1.8512573-2.1983719-2.8154907c-1.5332184-2.4395447-2.2756958-5.081543-2.2756958-8.0804138
						c0-4.2135925,1.4560013-7.7235413,4.4355774-10.7125244l0.0769806-0.0868683
						c2.8831711-3.0179443,6.2675247-4.4932556,10.3559952-4.4932556h30.6626053V171.5857086z M113.3144608,124.3188858h-27.393837
						c-3.7991486,0-6.9617538-1.3404236-9.6520004-4.0979996c-2.8348007-2.9892273-4.2138214-6.3254471-4.2138214-10.2016907
						c0-3.9341507,1.3597183-7.2124557,4.1559067-9.9989929l0.0675659-0.0675659l0.0577927-0.0675583
						c2.5938492-2.7961884,5.7276154-4.1655655,9.5845566-4.1655655h27.393837V124.3188858z M157.833252,124.3188858h-27.4036102
						V95.7195129h27.4036102c3.8569336,0,6.9907074,1.3693771,9.5845642,4.1655655l0.057785,0.0675583l0.0674438,0.0675659
						c2.7964325,2.7865372,4.1559143,6.0648422,4.1559143,9.9989929c0,3.8762436-1.3787842,7.2124634-4.2233582,10.2016907
						C164.7951202,122.9784622,161.6324005,124.3188858,157.833252,124.3188858z"/>
				</g>
			</g>
			<g>
				<g>
					<path style="fill:#E50024;" d="M124.1042404,250.6039886c-64.4869995,0-116.9511948-52.4642029-116.9511948-116.9512024
						S59.6172371,16.7006512,124.1042404,16.7006512s116.9511948,52.4651337,116.9511948,116.9521332
						S188.5912323,250.6039886,124.1042404,250.6039886z M124.1042404,33.2903938
						c-55.3399506,0-100.3623962,45.0224419-100.3623962,100.3623962s45.0224457,100.3614502,100.3623962,100.3614502
						S224.466629,188.9927368,224.466629,133.6527863S179.4441833,33.2903938,124.1042404,33.2903938z"/>
				</g>
			</g>
		</g>
		<g>
			<g>
				<path style="fill:#E50024;" d="M331.3001099,112.8226929c1.3097229,2.1753082,1.9661255,4.6619415,1.9661255,7.4615631v0.893425
					c0,5.0643158-1.9967651,9.0116196-5.9872437,11.840477c-3.9918518,2.8300476-9.5922852,4.2444763-16.7998352,4.2444763
					h-37.9781189V78.6423416h36.280426c7.2674561,0,12.8678894,1.4002762,16.7996216,4.1996613
					c3.9319458,2.801033,5.8978271,6.7622452,5.8978271,11.8850555v0.8936615c0,5.1242218-1.9967651,9.085434-5.9872437,11.884819
					C328.0523682,108.8768082,329.9889832,110.6485672,331.3001099,112.8226929z M290.4624634,93.8333969v7.148819h18.3190002
					c3.2168579,0,4.8254089-1.0415421,4.8254089-3.1274643v-0.8936539c0-2.0847397-1.608551-3.1277008-4.8254089-3.1277008
					H290.4624634z M314.9472351,117.8714447c0-2.2033768-1.608551-3.3062439-4.8253784-3.3062439h-19.6593933v7.5061417h19.6593933
					c3.2168274,0,4.8253784-1.1016846,4.8253784-3.3064728V117.8714447z"/>
				<path style="fill:#E50024;" d="M400.2405701,110.7226257c-2.7701416,2.9194336-6.7773438,4.8253937-12.0187988,5.7190552
					l15.816803,18.140213v2.6807404h-20.2848511l-16.6210632-20.1954651h-6.5233154v20.1954651h-17.9614563V78.6423416h38.1569214
					c7.3275757,0,13.091217,1.7578354,17.2911072,5.2721024c4.2001343,3.5159149,6.2999878,8.3413086,6.2999878,14.4764099
					v0.8936615C404.3959045,103.991272,403.0109558,107.8046036,400.2405701,110.7226257z M360.6093445,103.7525864h19.7487488
					c3.811676,0,5.7190552-1.4590073,5.7190552-4.3789139v-0.893425c0-2.8595276-1.9073792-4.2892914-5.7190552-4.2892914
					h-19.7487488V103.7525864z"/>
				<path style="fill:#E50024;" d="M429.0594177,134.7158508c-5.481781-2.4712982-9.7262573-6.0011292-12.7338867-10.5890198
					c-3.0088196-4.586937-4.5126648-9.8885269-4.5126648-15.9061737v-0.4469452
					c0-6.0164719,1.5038452-11.3180618,4.5126648-15.9061813c3.0076294-4.5867004,7.2521057-8.1316299,12.7338867-10.6338348
					c5.4803772-2.5022049,11.8249207-3.7531891,19.0338745-3.7531891c7.3273621,0,13.7306519,1.2509842,19.2124329,3.7531891
					c5.4803467,2.5022049,9.7095032,6.0317993,12.6890869,10.5892563c2.9781494,4.5572281,4.4680786,9.874382,4.4680786,15.9507599
					v0.4469452c0,6.0763779-1.4899292,11.3932953-4.4680786,15.9505157
					c-2.9795837,4.5576935-7.2087402,8.0733795-12.6890869,10.5446777
					c-5.481781,2.4727325-11.8850708,3.7083893-19.2124329,3.7083893
					C440.8843384,138.4242401,434.5397949,137.1885834,429.0594177,134.7158508z M461.7654419,118.4521255
					c2.9180298-2.1736603,4.3784485-5.4954681,4.3784485-9.9635315v-0.893425c0-8.936142-6.0176392-13.404213-18.0505981-13.404213
					c-5.8978271,0-10.3659058,1.1323471-13.4042053,3.3956299c-3.0382996,2.2649307-4.5572205,5.6004181-4.5572205,10.0085831
					v0.893425c0,4.4680634,1.4882507,7.7898712,4.4678345,9.9635315c2.9783936,2.1755371,7.475708,3.2618942,13.4935913,3.2618942
					C454.2883301,121.7140198,458.8457642,120.6276627,461.7654419,118.4521255z"/>
			</g>
		</g>
		<g>
			<g>
				<path style="fill:#E50024;" d="M305.4877319,170.0134583c-2.2347412,1.9481812-5.3001709,3.0182648-9.1965332,3.2088318
					l12.3765869,13.8665009v0.8594513h-6.5320435L288.8994446,173.22229h-11.1159058v14.7259521h-5.7299194v-37.5882416h23.1488647
					c4.2399902,0,7.5724182,1.0026245,9.9986877,3.0081177c2.425293,2.0054779,3.6385498,4.7657166,3.6385498,8.2797394v0.7448425
					C308.8397217,165.5253448,307.722229,168.0652924,305.4877319,170.0134583z M303.0525208,161.4759216
					c0-1.909729-0.6974487-3.3894958-2.0915833-4.4407043c-1.3948669-1.0500336-3.3519897-1.5757599-5.8730774-1.5757599
					h-17.3043213v12.720459h17.3043213c2.5210876,0,4.4782104-0.5245514,5.8730774-1.5757599
					c1.3941345-1.0500336,2.0915833-2.5300293,2.0915833-4.4404755V161.4759216z"/>
				<path style="fill:#E50024;" d="M326.7742615,186.2866364c-3.2472534-1.5658569-5.7496948-3.781723-7.506134-6.6466827
					c-1.7575989-2.8651886-2.6359253-6.2261353-2.6359253-10.0847626v-0.7448273
					c0-3.8579102,0.8783264-7.228775,2.6359253-10.1132965c1.7564392-2.8838196,4.2588806-5.1086578,7.506134-6.6754608
					c3.2463379-1.5658569,7.0280762-2.3493652,11.3451843-2.3493652c4.3161926,0,8.0882263,0.7835083,11.3166504,2.3493652
					c3.2274475,1.566803,5.7200012,3.7916412,7.4776001,6.6754608c1.7564087,2.8845215,2.6356812,6.2553864,2.6356812,10.1132965
					v0.7448273c0,3.8586273-0.8792725,7.219574-2.6356812,10.0847626c-1.7575989,2.8649597-4.2501526,5.0808258-7.4776001,6.6466827
					c-3.2284241,1.5667877-7.0004578,2.3491364-11.3166504,2.3491364
					C333.8023376,188.6357727,330.0205994,187.8534241,326.7742615,186.2866364z M349.6365662,179.6970367
					c2.7503357-2.4064484,4.1256104-5.7485352,4.1256104-10.0272217v-0.9167633
					c0-4.3164215-1.3752747-7.6870422-4.1256104-10.1133118c-2.7503357-2.4255371-6.5893555-3.6385498-11.5171204-3.6385498
					s-8.7767029,1.2130127-11.5458984,3.6385498c-2.7698975,2.4262695-4.1541443,5.7968903-4.1541443,10.1133118v0.9167633
					c0,4.2786865,1.3842468,7.6207733,4.1541443,10.0272217c2.7691956,2.4066772,6.6181335,3.6100159,11.5458984,3.6100159
					S346.8862305,182.103714,349.6365662,179.6970367z"/>
				<path style="fill:#E50024;" d="M374.2182617,150.3600006v32.4885559h27.675415v5.0996857h-33.405304v-37.5882416H374.2182617z"
					/>
				<path style="fill:#E50024;" d="M413.5825195,150.3600006v32.4885559h27.675415v5.0996857h-33.4053345v-37.5882416H413.5825195z"
					/>
				<path style="fill:#E50024;" d="M448.850647,185.455719c-3.1140137-2.1201172-4.6699829-5.2232971-4.6699829-9.3111572
					v-0.5728912h5.7299194v0.5728912c0,4.8902588,4.3350525,7.3344421,13.007019,7.3344421
					c3.857666,0,6.7987976-0.4773865,8.8240967-1.4326019c2.0241394-0.9542694,3.0368958-2.3679962,3.0368958-4.2402344v-0.4582672
					c0-1.6042938-0.6403503-2.8076324-1.9196167-3.609787c-1.2802429-0.8023834-3.5435181-1.4127808-6.7901001-1.8335419
					l-8.5375366-1.1460419c-4.164032-0.5344391-7.2867737-1.6134949-9.3684692-3.2373657
					c-2.0823669-1.6233978-3.1227417-3.8105011-3.1227417-6.5608215v-0.5731354
					c0-3.3609619,1.4899292-5.9876862,4.4694824-7.8785553c2.9793396-1.8908691,7.1811523-2.8364105,12.605835-2.8364105
					c5.7674255,0,10.1508179,1.0314026,13.1502075,3.0942078c2.9981995,2.0627899,4.4977722,5.0621796,4.4977722,8.996048v0.5728912
					h-5.6725769v-0.5728912c0-4.6216125-3.9921265-6.9332581-11.9754028-6.9332581
					c-3.6673279,0-6.4660034,0.4681854-8.3943787,1.4038239c-1.9295349,0.9365845-2.8937073,2.2830963-2.8937073,4.0395203
					v0.4585114c0,1.4137268,0.6106262,2.5024414,1.8335571,3.2661438c1.2221985,0.7644043,3.2661438,1.3375397,6.131073,1.7189178
					l8.5948486,1.0887146c4.5454407,0.5728912,7.8788147,1.681427,9.9986877,3.3232269
					c2.1201172,1.6429749,3.1802979,3.973465,3.1802979,6.9905548v0.5731354c0,3.4762878-1.5472412,6.1692963-4.6414185,8.0790253
					c-3.0939941,1.910675-7.5257263,2.8649597-13.2933655,2.8649597
					C456.557251,188.6357727,451.9634705,187.5758209,448.850647,185.455719z"/>
			</g>
		</g>
	</g>
</g>
</svg>
