<?xml version="1.0" encoding="utf-8"?>
<!-- Generator: Adobe Illustrator 24.0.3, SVG Export Plug-In . SVG Version: 6.00 Build 0)  -->
<svg version="1.1" id="Слой_1" xmlns="http://www.w3.org/2000/svg" xmlns:xlink="http://www.w3.org/1999/xlink" x="0px" y="0px"
	 viewBox="0 0 500 500" style="enable-background:new 0 0 500 500;" xml:space="preserve">
<style type="text/css">
	.st0{display:none;fill:#FFFFFF;stroke:#000000;stroke-miterlimit:10;}
	.st1{fill:#FFFFFF;stroke:#000000;stroke-miterlimit:10;}
	.st2{fill:#E6792C;}
	.st3{fill:#191518;}
	.st4{font-family:'Helvetica';}
	.st5{font-size:95.4017px;}
	.st6{font-size:27.8257px;}
</style>
<rect class="st0" width="500" height="500"/>
<g id="LogoSmart" transform="translate(-8 -9.5)">
	<path id="Контур_1" class="st1" d="M228.2,262.9v20.1h-34c0,0-15.1-2.5-18.9-15.1c-3.8-12.6-1.3-66.7-1.3-66.7
		s3.8-17.6,18.9-17.6h36.5v20.8h-28.3c0,0-6.3,0-6.3,6.3v12.6h34v20.1h-34v11.3c0,0-1.3,6.3,6.3,7.6S228.2,262.9,228.2,262.9z"/>
	<rect id="Прямоугольник_4" x="240.1" y="203.7" class="st1" width="14.9" height="79.5"/>
	<path id="Контур_2" class="st1" d="M267.2,203.8l8.8-18.9h17.6v2.5l-15.1,16.4H267.2z"/>
	<rect id="Прямоугольник_5" x="291.8" y="204.7" class="st2" width="44.7" height="78.5"/>
	<g id="Сгруппировать_1" transform="translate(146.004 17.498)">
		<text transform="matrix(1 0 0 1 143.8003 256.1149)" class="st3 st4 st5">s</text>
	</g>
	<rect id="Прямоугольник_6" x="152.7" y="293.1" class="st2" width="210.7" height="40.7"/>
	<text transform="matrix(1 4.000000e-03 -4.000000e-03 1 196.7286 321.5113)" class="st4 st6">fast food</text>
</g>
</svg>
