<?xml version="1.0" encoding="utf-8"?>
<!-- Generator: Adobe Illustrator 24.0.3, SVG Export Plug-In . SVG Version: 6.00 Build 0)  -->
<svg version="1.1" id="Слой_1" xmlns="http://www.w3.org/2000/svg" xmlns:xlink="http://www.w3.org/1999/xlink" x="0px" y="0px"
	 viewBox="0 0 800 250" style="enable-background:new 0 0 800 250;" xml:space="preserve">
<style type="text/css">
	.st0{fill:#FFFFFF;}
	.st1{fill:#D6222D;}
	.st2{fill-rule:evenodd;clip-rule:evenodd;fill:#FF0000;}
</style>
<g>
	<path class="st0" d="M269.5,127.2c2.7,1.2,4.8,2.9,6.4,5.3c1.6,2.3,2.4,5,2.4,8c0,4.3-1.5,7.9-4.5,10.9c-3,3-6.6,4.5-10.9,4.5h-24
		v-55.2h22.2c4.1,0,7.6,1.5,10.5,4.4c2.9,2.9,4.3,6.4,4.3,10.4C275.9,120.6,273.8,124.5,269.5,127.2z M261.1,105.9h-16.7v19.2h16.7
		c2.6,0,4.8-0.9,6.5-2.8c1.8-1.9,2.8-4.2,2.8-6.9c0-2.6-0.9-4.9-2.8-6.8C265.9,106.8,263.7,105.9,261.1,105.9z M262.9,150.6
		c2.7,0,5-1,6.9-2.9c1.9-2,2.9-4.4,2.9-7.2c0-2.8-1-5.2-2.9-7.2c-1.9-2-4.2-3-6.9-3h-18.5v20.3H262.9z M319.3,155.8H312l-25.8-26.7
		v26.7h-5.5v-55.2h5.5v25.2l25.1-25.2h7.2L292,127.4L319.3,155.8z M349.9,100.7h5.7l-18.4,43.1c-1.8,4.4-4.2,7.6-7,9.5
		c-2.8,1.9-6.4,2.8-10.6,2.5v-5c2.9,0.3,5.4-0.1,7.2-1.3c1.9-1.2,3.5-3.3,4.8-6.2l1.1-2.6l-19-40h5.7l15.9,33.9L349.9,100.7z
		 M378.2,156.8c-8.4,0-15.3-2.8-20.7-8.3c-5.5-5.5-8.2-12.3-8.2-20.3c0-8,2.7-14.7,8.2-20.3s12.4-8.3,20.7-8.3c5.1,0,9.8,1.2,14,3.7
		c4.3,2.4,7.5,5.7,9.8,9.8l-4.9,2.8c-1.7-3.4-4.3-6-7.7-8c-3.4-2-7.2-3-11.3-3c-6.9,0-12.5,2.2-16.9,6.7s-6.5,10-6.5,16.5
		s2.2,12,6.5,16.5c4.4,4.5,10,6.7,16.9,6.7c4.1,0,7.9-1,11.3-3c3.4-2,6-4.7,7.7-8l4.9,2.8c-2.3,4.1-5.5,7.5-9.8,9.9
		C388,155.5,383.3,156.8,378.2,156.8z M439.5,100.7h5.5v55.2h-5.5V130h-29.9v25.8h-5.5v-55.2h5.5v24.2h29.9V100.7z M450.5,155.8
		v-55.2h5.5v20.5h14.2c4.9,0,9.1,1.7,12.4,5c3.3,3.3,5,7.4,5,12.4s-1.7,9.1-5,12.4c-3.3,3.3-7.4,5-12.4,5H450.5z M493.5,155.8v-55.2
		h5.5v55.2H493.5z M456,150.6h14.2c3.4,0,6.2-1.1,8.4-3.4c2.3-2.3,3.4-5.2,3.4-8.7c0-3.5-1.1-6.4-3.4-8.7c-2.2-2.3-5-3.5-8.4-3.5
		H456V150.6z M510,150.6h26.8v5.2h-32.3v-55.2h31.9v5.2H510v19.5h24.4v5.2H510V150.6z"/>
	<path class="st1" d="M590.2,156.8c-8.4,0-15.3-2.8-20.7-8.3c-5.5-5.5-8.2-12.3-8.2-20.3c0-8,2.7-14.7,8.2-20.3
		c5.5-5.5,12.4-8.3,20.7-8.3c5.1,0,9.8,1.2,14,3.7c4.3,2.4,7.5,5.7,9.8,9.8l-4.9,2.8c-1.7-3.4-4.3-6-7.7-8c-3.4-2-7.2-3-11.3-3
		c-6.9,0-12.5,2.2-16.9,6.7s-6.5,10-6.5,16.5s2.2,12,6.5,16.5c4.4,4.5,10,6.7,16.9,6.7c4.1,0,7.9-1,11.3-3c3.4-2,6-4.7,7.7-8
		l4.9,2.8c-2.3,4.1-5.5,7.5-9.8,9.9C600,155.5,595.3,156.8,590.2,156.8z M646.7,100.7h5.7L634,143.8c-1.8,4.4-4.2,7.6-7,9.5
		c-2.8,1.9-6.4,2.8-10.6,2.5v-5c2.9,0.3,5.4-0.1,7.2-1.3c1.9-1.2,3.5-3.3,4.8-6.2l1.1-2.6l-19-40h5.7l15.9,33.9L646.7,100.7z
		 M709.1,100.7h5.5v55.2h-62.2v-55.2h5.5v50h22.9v-50h5.5v50h22.9V100.7z M755.6,155.8v-44.9l-30.7,44.9h-4.7v-55.2h5.5v44.9
		l30.7-44.9h4.7v55.2H755.6z"/>
	<path class="st0" d="M78.6,76h64c10.9,0,20.8,4.3,28,11.2c7.2,6.9,11.7,16.5,11.7,27v21.7c0,10.5-4.5,20-11.7,27
		c-7.2,6.9-17.1,11.2-28,11.2h-64c-10.9,0-20.8-4.3-28-11.2c-7.2-6.9-11.7-16.5-11.7-27v-21.7c0-10.5,4.5-20,11.7-27
		C57.8,80.2,67.7,76,78.6,76z M142.6,81.7h-64c-9.2,0-17.7,3.7-23.8,9.5c-6.1,5.9-9.9,14-9.9,22.9v21.7c0,8.9,3.8,17,9.9,22.9
		c6.1,5.9,14.6,9.5,23.8,9.5h64c9.2,0,17.7-3.7,23.8-9.5c6.1-5.9,9.9-14,9.9-22.9v-21.7c0-8.9-3.8-17-9.9-22.9
		C160.3,85.3,152,81.7,142.6,81.7z"/>
	<path class="st2" d="M99.4,85.7c0,0-2-0.2-5.2,0c-3.6,7-9.7,16.5-19.4,27.4c-9.1,10.2-14.1,24-16.7,35.8c0.8,1.3,1.9,2.4,3,3.5
		c1.9,1.7,4.6,3.1,8,4.2c4.1-12.2,12.4-30.4,29.3-47.1c10.6-10.4,17.1-18.3,21.2-24.1C112.7,85.5,105.7,85.6,99.4,85.7z M86.9,86.4
		c-6.5,1-14.5,3.3-21.2,8.2c-14,10.4-10.7,23.5-11.8,29.3c-0.6,3.2-0.9,9,0.3,14.9c3-9.8,7.8-20,15.1-28
		C77.7,101.4,83.3,93,86.9,86.4z M75.1,158.4c3.6,0.7,7.5,1.4,11.9,1.8c3.2-7.3,9.6-17,22.2-26.9c3.8-2.9,7.9-6,11.9-9.1
		c16.4-12.4,31.6-23.8,35.5-33c-7-3.7-18.2-5.1-30.2-5.5c-4.2,6.3-11.2,14.9-22.7,26.4C87,128.6,78.9,146.6,75.1,158.4z M93.6,160.8
		c5.3,0.4,11.1,0.6,16.9,0.7c3.2-3.6,8-8.1,15.4-13.8c13.8-10.7,25.9-16,34.7-19.9c2.7-1.2,5.1-2.2,7.1-3.3
		c0.4-9.9-0.6-20.5-5.2-28.1c-0.3-0.5-0.7-1-1-1.5c-5.8,9.6-20.2,20.5-35.6,32.1c-3.8,2.9-7.8,5.9-11.9,9
		C102.6,145.2,96.6,154,93.6,160.8z M117.6,161.6h4.5c26.5,0,41.3-9.5,43.8-21.7c0.6-2.9,1.1-6.2,1.4-9.8c-1,0.4-2,0.9-3,1.4
		c-8.6,3.7-20.2,8.9-33.4,19.1C124.9,155.2,120.6,158.8,117.6,161.6z"/>
</g>
</svg>
