<?xml version="1.0" encoding="utf-8"?>
<!-- Generator: Adobe Illustrator 24.0.3, SVG Export Plug-In . SVG Version: 6.00 Build 0)  -->
<svg version="1.1" id="Слой_1" xmlns="http://www.w3.org/2000/svg" xmlns:xlink="http://www.w3.org/1999/xlink" x="0px" y="0px"
	 viewBox="0 0 500 375" style="enable-background:new 0 0 500 375;" xml:space="preserve">
<rect y="0.0000017" style="display:none;" width="500" height="375"/>
<g id="LOGO">
	<g>
		<path style="fill:#FFFFFF;" d="M57,248.8999939c3.9000015,1.6999969,7.0999985,4.3000031,9.5,7.8999939
			C68.9000015,260.3999939,70.0999985,264.5,70.0999985,269c0,6-2.0999985,11.1000061-6.2000008,15.2999878
			c-4.2000008,4.2999878-9.2000008,6.3999939-15,6.3999939c-2.2999992,0-4.5-0.3999939-6.5999985-1.1000061v-68.1999969
			c0.4000015-0.3000031,0.7999992-0.5,1.2999992-0.6000061c1.7999992-0.6999969,3.5-1.1000061,5.4000015-1.1000061
			c4,0,7.2999992,1.3999939,10.0999985,4.3000031c2.7999992,2.8999939,4.0999985,6.3000031,4.0999985,10.3999939
			c0,2.6999969-0.7000008,5.1999969-2,7.6000061c-1.4000015,2.3000031-3.2000008,4.1000061-5.5999985,5.3000031
			c-0.5,0.3000031-0.9000015,0.5-1.4000015,0.6999969C55.0999985,248.1000061,56,248.5,57,248.8999939z M45.5,222v25.1999969
			h3.2999992c3,0,5.5999985-1.3000031,7.7000008-3.8000031c2.0999985-2.5,3.2000008-5.6000061,3.2000008-9.1000061
			c0-3.6000061-1.0999985-6.6000061-3.2000008-9.1000061c-2.0999985-2.5-4.7000008-3.8000031-7.7000008-3.8000031
			C47.7000008,221.3999939,46.5,221.6000061,45.5,222z M48.7999992,289C53.7000008,289,58,287,61.5,283.1000061
			S66.8000031,274.5,66.8000031,268.8999939c0-5.5-1.8000031-10.2999878-5.2999992-14.1999969
			c-3.5-3.8999939-7.7000008-5.8999939-12.7000008-5.8999939h-3.2999992V288.5C46.5,288.8999939,47.7000008,289,48.7999992,289z"/>
		<path style="fill:#FFFFFF;" d="M78.5999985,287.8999939h15.0999985l1.4000015,1.7000122H75.1999969v-68.8000031H95
			L93.5999985,222.5h-15v23.6999969h13.1999969l-1.1999969,1.6999969h-12V287.8999939z"/>
		<path style="fill:#FFFFFF;" d="M118.5999985,287.8999939L120,289.6000061h-19.8000031v-68.8000031H103.5v67.0999908H118.5999985z"
			/>
		<path style="fill:#FFFFFF;" d="M129.3000031,247.8999939l23.6000061,41.7000122h-3.8000031l-20.6999969-36.5v36.5h-3.3000031
			v-68.8000031h3.3000031v25.5l19.5-25.5h2L129.3000031,247.8999939z"/>
		<path style="fill:#FFFFFF;" d="M178.1000061,219.6999969l18.3000031,69.9000092h-3.3000031l-6.6999969-25.7999878h-19.8999939
			l-6.6999969,25.7999878H158l17.5-66.8999939L178.1000061,219.6999969z M167,262.1000061h18.8999939l-9.5-36.1999969
			L167,262.1000061z"/>
		<path style="fill:#FFFFFF;" d="M245.3999939,287.8999939l1.3999939,1.7000122H227v-68.8000031h3.3000031v67.0999908H245.3999939z"
			/>
		<path style="fill:#FFFFFF;" d="M257.6000061,224.5c5.3999939-3.1999969,11.2000122-4.8000031,17.5-4.8000031
			S287.2000122,221.3000031,292.5,224.5s9.6000061,7.5,12.7000122,12.8999939s4.7000122,11.3999939,4.7000122,17.8000031
			S308.3000183,267.5,305.2000122,273c-3.1000061,5.3999939-7.2999878,9.7999878-12.7000122,12.8999939
			c-5.2999878,3.2000122-11.1000061,4.7999878-17.3999939,4.7999878s-12.1000061-1.6000061-17.5-4.7999878
			C252.2000122,282.6999817,248,278.3999939,244.9000092,273c-3.1000061-5.3999939-4.6000061-11.3999939-4.6000061-17.8000031
			c0-6.3999939,1.5-12.3000031,4.6000061-17.8000031C248,232,252.1999969,227.6000061,257.6000061,224.5z M284.1000061,287.2999878
			c5.5-1.3999939,10.2999878-4.1000061,14.2999878-8.2000122s6.7000122-8.8999939,8-14.6000061
			c1.2999878-5.6000061,1.2000122-11.3000031-0.3999939-17s-4.5-10.6999969-8.7999878-15s-9.2000122-7.3000031-14.7000122-9
			c-5.6000061-1.6000061-11.1000061-1.8000031-16.6000061-0.3999939c-5.5,1.3999939-10.3000031,4.1000061-14.3000031,8.1999969
			c-4,4.1000061-6.6999969,8.8999939-8,14.6000061c-1.3000031,5.6000061-1.1999969,11.3000031,0.3999939,16.9999847
			c1.6000061,5.7000122,4.5,10.7000122,8.6999969,15c4.2000122,4.2999878,9.1000061,7.2999878,14.7000122,9
			C273.1000061,288.5,278.6000061,288.6000061,284.1000061,287.2999878z"/>
		<path style="fill:#FFFFFF;" d="M341.1000061,220.8000031h1.6000061v55.8000031c0,3.8999939-1.3999939,7.2999878-4.1000061,10
			c-2.7000122,2.7999878-6,4.1000061-9.7000122,4.1000061c-2.5,0-4.7999878-0.6000061-6.8999939-1.8999939
			s-3.8999939-3-5.1000061-5.2000122C315.6000061,281.3999939,315,279,315,276.3999939v-55.6999969h3.2999878v55.6999969
			c0,3.5,1.1000061,6.3999939,3.3999939,8.8999939c2.2000122,2.5,4.8999939,3.7000122,8,3.7000122
			c3.2000122,0,5.8999939-1.2000122,8.1000061-3.6000061s3.2999878-5.3999939,3.3999939-8.7999878v-55.8000031H341.1000061z"/>
		<path style="fill:#FFFFFF;" d="M374,220.8000031h1.6000061v68.8000031H374.5l-0.5-1.2000122L349.3999939,230.5v59.1000061
			h-1.7000122v-68.8000031h1.1000061L349.3999939,222L374,279.8999939V220.8000031z"/>
		<path style="fill:#FFFFFF;" d="M423.5,269.1000061l-1.5-1.7000122h15.8999939v14.8999939l-1.2000122,1
			c-2.2999878,1.7999878-4.7000122,3.2999878-7.2000122,4.3999939c-4.3999939,2-9.1000061,3-14,3
			c-6.2000122,0-12-1.6000061-17.3999939-4.7999878c-5.3999939-3.2000122-9.6000061-7.5-12.7000122-12.8999939
			s-4.6000061-11.3999939-4.6000061-17.8000031c0-4.8000031,0.8999939-9.3999939,2.7000122-13.6999969
			c1.7999878-4.3999939,4.2999878-8.1000061,7.3999939-11.3000031s6.7999878-5.6999969,11.1000061-7.6000061
			c4.2999878-1.8999939,8.7999878-2.8000031,13.5-2.8000031c8.5,0,16,2.8000031,22.3999939,8.3999939l-2.1000061,2.6000061
			c-6.3999939-5.6999969-13.8999939-8.5-22.2999878-8.3999939s-15.5,3.1000061-21.3999939,9c-4,4.1000061-6.7000122,9-8,14.6000061
			s-1.2000122,11.2999878,0.3999939,17s4.5,10.7000122,8.7000122,15.1000061
			c5.2000122,5.2000122,11.2999878,8.5,18.2999878,9.7000122s13.5,0.2999878,19.3999939-2.7999878
			c1.2000122-0.5,2.3999939-1.2000122,3.7000122-2.1000061v-13.6000061H423.5V269.1000061z"/>
		<path style="fill:#FFFFFF;" d="M446.3999939,287.8999939H461.5l1.3999939,1.7000122h-19.7999878v-68.8000031h19.7999878
			L461.5,222.5h-15.1000061v23.6999969h13.2000122l-1.2000122,1.6999969h-12V287.8999939z"/>
	</g>
	<path id="BelkaLogoVector" style="fill:#FFFFFF;" d="M270.6000061,195.6999969c0,0,59-15,24-109.1999969
		c-0.1000061-0.0999985-0.2999878-0.0999985-0.2999878,0l-5.1000061,15.5999985c-0.1000061,0.3000031-0.5,0.3000031-0.6000061,0
		c-6.3999939-34,16.5-52.0999985,16.5-52.0999985c-55.6000061-7.2000008-62.5,33.4000015-63,37.3000031
		c0,0.1999969,0,0.4000015,0,0.5999985c0.8000031,22.2999954,26.8999939,39.5,26.8999939,39.5
		C293.6000061,149.1999969,279,172.5,279,172.5c5.3999939-23.3000031-11.5-35.3000031-11.5-35.3000031l-33.1000061-18.8000031
		c-9.1999969-9-12.3000031-18.8000031-12.3000031-18.8000031c-8.5,0-9.1999969,9.8000031-9.1999969,9.8000031
		C194.3999939,113.1999969,196,131.1999969,196,131.1999969c5.3999939,7.5,25.5,1.3000031,25.5,1.3000031
		c2,6.1000061-18.3000031,12.1999969-22.3000031,14.1999969c-6.5,3.3000031-4.1000061,6.1000061-4.1000061,6.1000061
		c1.5,7.5,22.3000031,0,22.3000031,0c26.3999939-4.1000061,26.1999969,14.3999939,26.1999969,14.3999939
		c-6.8999939-22.5-44.5-1.1000061-15.3999939,20.3000031C221.3000031,188.3000031,222,195.8000031,222,195.8000031
		c-21.5,0-39.1999969,3.8000031-39.1999969,3.8000031H319C305.8999939,195.6999969,270.6000061,195.6999969,270.6000061,195.6999969
		z"/>
	
		<line style="fill:none;stroke:#FFFFFF;stroke-linecap:round;stroke-miterlimit:10;" x1="220.8999939" y1="195.8000031" x2="177.8999939" y2="123.3000031"/>
</g>
<g id="RUS">
	<path style="fill:#FFFFFF;" d="M189.1000061,148.1999969L152.1999969,168c-1.8000031,1-4.1000061,0.3999939-5.1000061-1.3000031
		l-12.5-21.1999969c-1-1.6999969-0.3000031-3.8000031,1.5-4.8000031L173,120.8999939
		c1.8000031-1,4.1000061-0.4000015,5.1000061,1.3000031l12.5,21.1999969
		C191.6000061,145.1000061,191,147.3000031,189.1000061,148.1999969z"/>
	<path style="fill:#FF4A55;" d="M188.8000031,147.8999939L152,167.6000061c-1.6000061,0.8999939-3.6000061,0.3000031-4.5-1.1999969
		l-3.1000061-5.3999939c-0.8999939-1.5-0.3000031-3.3999939,1.3000031-4.1999969L182.5,137.1000214
		c1.6000061-0.8999939,3.6000061-0.3000031,4.5,1.1999969l3.1000061,5.3999939
		C191,145.1000061,190.3999939,147,188.8000031,147.8999939z"/>
	<polygon style="fill:#3C459F;" points="187.1000061,138.5 144.5,161.3000031 138.6000061,151.3000031 181.1999969,128.3999939 	"/>
</g>
</svg>
